G04*
G04 #@! TF.GenerationSoftware,Altium Limited,Altium Designer,21.3.2 (30)*
G04*
G04 Layer_Color=128*
%FSTAX24Y24*%
%MOIN*%
G70*
G04*
G04 #@! TF.SameCoordinates,1AC0675F-A7BC-4776-8E39-8DD75055E93B*
G04*
G04*
G04 #@! TF.FilePolarity,Positive*
G04*
G01*
G75*
%ADD92C,0.0020*%
D92*
X024119Y008689D02*
X024479D01*
X024299Y008509D02*
Y008869D01*
X025129Y008689D02*
X025489D01*
X025309Y008509D02*
Y008869D01*
X026109Y008689D02*
X026469D01*
X026289Y008509D02*
Y008869D01*
X027119Y008689D02*
X027479D01*
X027299Y008509D02*
Y008869D01*
X024569Y010989D02*
X024929D01*
X024749Y010809D02*
Y011169D01*
X025579Y010989D02*
X025939D01*
X025759Y010809D02*
Y011169D01*
X026559Y010989D02*
X026919D01*
X026739Y010809D02*
Y011169D01*
X027569Y010989D02*
X027929D01*
X027749Y010809D02*
Y011169D01*
X028421Y009847D02*
X028657D01*
X028539Y009729D02*
Y009965D01*
X028421Y005831D02*
X028657D01*
X028539Y005713D02*
Y005949D01*
X027877Y036015D02*
X028271D01*
X028074Y035819D02*
Y036212D01*
X028877Y036015D02*
X029271D01*
X029074Y035819D02*
Y036212D01*
X026877Y036015D02*
X027271D01*
X027074Y035819D02*
Y036212D01*
X025877Y036015D02*
X026271D01*
X026074Y035819D02*
Y036212D01*
X027877Y037015D02*
X028271D01*
X028074Y036819D02*
Y037212D01*
X028877Y037015D02*
X029271D01*
X029074Y036819D02*
Y037212D01*
X026877Y037015D02*
X027271D01*
X027074Y036819D02*
Y037212D01*
X025877Y037015D02*
X026271D01*
X026074Y036819D02*
Y037212D01*
X030377Y024224D02*
X030771D01*
X030574Y024027D02*
Y024421D01*
X030377Y025224D02*
X030771D01*
X030574Y025027D02*
Y025421D01*
X030377Y026224D02*
X030771D01*
X030574Y026027D02*
Y026421D01*
X030377Y034224D02*
X030771D01*
X030574Y034027D02*
Y034421D01*
X030377Y033224D02*
X030771D01*
X030574Y033027D02*
Y033421D01*
X030377Y032224D02*
X030771D01*
X030574Y032027D02*
Y032421D01*
X030377Y031224D02*
X030771D01*
X030574Y031027D02*
Y031421D01*
X030377Y029224D02*
X030771D01*
X030574Y029027D02*
Y029421D01*
X030377Y030224D02*
X030771D01*
X030574Y030027D02*
Y030421D01*
X030377Y028224D02*
X030771D01*
X030574Y028027D02*
Y028421D01*
X030377Y023224D02*
X030771D01*
X030574Y023027D02*
Y023421D01*
X030377Y022224D02*
X030771D01*
X030574Y022027D02*
Y022421D01*
X030377Y016224D02*
X030771D01*
X030574Y016027D02*
Y016421D01*
X030377Y017224D02*
X030771D01*
X030574Y017027D02*
Y017421D01*
X030377Y018224D02*
X030771D01*
X030574Y018027D02*
Y018421D01*
X030377Y019224D02*
X030771D01*
X030574Y019027D02*
Y019421D01*
X030377Y020224D02*
X030771D01*
X030574Y020027D02*
Y020421D01*
X030377Y021224D02*
X030771D01*
X030574Y021027D02*
Y021421D01*
X030377Y015224D02*
X030771D01*
X030574Y015027D02*
Y015421D01*
X024377Y015224D02*
X024771D01*
X024574Y015027D02*
Y015421D01*
X024377Y017224D02*
X024771D01*
X024574Y017027D02*
Y017421D01*
X024377Y016224D02*
X024771D01*
X024574Y016027D02*
Y016421D01*
X024377Y034224D02*
X024771D01*
X024574Y034027D02*
Y034421D01*
X024377Y033224D02*
X024771D01*
X024574Y033027D02*
Y033421D01*
X024377Y032224D02*
X024771D01*
X024574Y032027D02*
Y032421D01*
X024377Y031224D02*
X024771D01*
X024574Y031027D02*
Y031421D01*
X024377Y030224D02*
X024771D01*
X024574Y030027D02*
Y030421D01*
X024377Y029224D02*
X024771D01*
X024574Y029027D02*
Y029421D01*
X024377Y028224D02*
X024771D01*
X024574Y028027D02*
Y028421D01*
X024377Y027224D02*
X024771D01*
X024574Y027027D02*
Y027421D01*
X024377Y026224D02*
X024771D01*
X024574Y026027D02*
Y026421D01*
X024377Y025224D02*
X024771D01*
X024574Y025027D02*
Y025421D01*
X024377Y024224D02*
X024771D01*
X024574Y024027D02*
Y024421D01*
X024377Y023224D02*
X024771D01*
X024574Y023027D02*
Y023421D01*
X024377Y022224D02*
X024771D01*
X024574Y022027D02*
Y022421D01*
X024377Y021224D02*
X024771D01*
X024574Y021027D02*
Y021421D01*
X024377Y020224D02*
X024771D01*
X024574Y020027D02*
Y020421D01*
X024377Y019224D02*
X024771D01*
X024574Y019027D02*
Y019421D01*
X024377Y018224D02*
X024771D01*
X024574Y018027D02*
Y018421D01*
X030377Y027224D02*
X030771D01*
X030574Y027027D02*
Y027421D01*
X045442Y009573D02*
X045836D01*
X045639Y009376D02*
Y00977D01*
X045442Y008589D02*
X045836D01*
X045639Y008392D02*
Y008786D01*
X045289Y016939D02*
X045889D01*
X045589Y016639D02*
Y017239D01*
X045289Y011439D02*
X045889D01*
X045589Y011139D02*
Y011739D01*
X042842Y004139D02*
X043236D01*
X043039Y003942D02*
Y004336D01*
X041858Y004139D02*
X042252D01*
X042055Y003942D02*
Y004336D01*
X042363Y026339D02*
X042599D01*
X042481Y026221D02*
Y026457D01*
X046379Y026339D02*
X046615D01*
X046497Y026221D02*
Y026457D01*
X042562Y022539D02*
X042916D01*
X042739Y022362D02*
Y022716D01*
X041184Y022539D02*
X041538D01*
X041361Y022362D02*
Y022716D01*
X035236Y013689D02*
X035551D01*
X035394Y013532D02*
Y013846D01*
X035231Y016689D02*
X035546D01*
X035389Y016531D02*
Y016846D01*
X039479Y019789D02*
X039799D01*
X039639Y019629D02*
Y019949D01*
X038479Y019789D02*
X038799D01*
X038639Y019629D02*
Y019949D01*
X037479Y019789D02*
X037799D01*
X037639Y019629D02*
Y019949D01*
X042739Y018889D02*
X043239D01*
X042989Y018639D02*
Y019139D01*
X040739Y018889D02*
X041239D01*
X040989Y018639D02*
Y019139D01*
X038471Y017647D02*
X038707D01*
X038589Y017529D02*
Y017765D01*
X038471Y013631D02*
X038707D01*
X038589Y013513D02*
Y013749D01*
X045139Y018839D02*
X045739D01*
X045439Y018539D02*
Y019139D01*
X045139Y024339D02*
X045739D01*
X045439Y024039D02*
Y024639D01*
X042902Y015639D02*
X043217D01*
X043059Y015481D02*
Y015796D01*
X042231Y015639D02*
X042546D01*
X042389Y015481D02*
Y015796D01*
X041561Y015639D02*
X041876D01*
X041719Y015481D02*
Y015796D01*
X040891Y015639D02*
X041206D01*
X041049Y015481D02*
Y015796D01*
X040221Y015639D02*
X040536D01*
X040379Y015481D02*
Y015796D01*
X042851Y012689D02*
X043205D01*
X043028Y012512D02*
Y012866D01*
X041473Y012689D02*
X041827D01*
X04165Y012512D02*
Y012866D01*
X042162Y00855D02*
X042516D01*
X042339Y008373D02*
Y008727D01*
X042162Y009928D02*
X042516D01*
X042339Y009751D02*
Y010105D01*
X035489Y008339D02*
X035989D01*
X035739Y008089D02*
Y008589D01*
X035489Y010339D02*
X035989D01*
X035739Y010089D02*
Y010589D01*
X034189Y006389D02*
X034789D01*
X034489Y006089D02*
Y006689D01*
X039689Y006389D02*
X040289D01*
X039989Y006089D02*
Y006689D01*
X030514Y006389D02*
X030864D01*
X030689Y006214D02*
Y006564D01*
X031514Y006389D02*
X031864D01*
X031689Y006214D02*
Y006564D01*
X031662Y010028D02*
X032016D01*
X031839Y009851D02*
Y010205D01*
X031662Y00865D02*
X032016D01*
X031839Y008473D02*
Y008827D01*
X033263Y031189D02*
X033499D01*
X033381Y031071D02*
Y031307D01*
X037279Y031189D02*
X037515D01*
X037397Y031071D02*
Y031307D01*
X037279Y032589D02*
X037515D01*
X037397Y032471D02*
Y032707D01*
X033263Y032589D02*
X033499D01*
X033381Y032471D02*
Y032707D01*
X037429Y033939D02*
X037665D01*
X037547Y033821D02*
Y034057D01*
X033413Y033939D02*
X033649D01*
X033531Y033821D02*
Y034057D01*
X034248Y022389D02*
X034445D01*
X034347Y022291D02*
Y022487D01*
X034741Y022389D02*
X034937D01*
X034839Y022291D02*
Y022487D01*
X035233Y022389D02*
X03543D01*
X035331Y022291D02*
Y022487D01*
X022034Y019489D02*
X022344D01*
X022189Y019334D02*
Y019644D01*
X022034Y020489D02*
X022344D01*
X022189Y020334D02*
Y020644D01*
X022034Y021489D02*
X022344D01*
X022189Y021334D02*
Y021644D01*
X022034Y022489D02*
X022344D01*
X022189Y022334D02*
Y022644D01*
X022034Y023489D02*
X022344D01*
X022189Y023334D02*
Y023644D01*
X022034Y024489D02*
X022344D01*
X022189Y024334D02*
Y024644D01*
X022034Y025489D02*
X022344D01*
X022189Y025334D02*
Y025644D01*
X022034Y026489D02*
X022344D01*
X022189Y026334D02*
Y026644D01*
X019034Y019489D02*
X019344D01*
X019189Y019334D02*
Y019644D01*
X019034Y020489D02*
X019344D01*
X019189Y020334D02*
Y020644D01*
X019034Y021489D02*
X019344D01*
X019189Y021334D02*
Y021644D01*
X019034Y022489D02*
X019344D01*
X019189Y022334D02*
Y022644D01*
X019034Y023489D02*
X019344D01*
X019189Y023334D02*
Y023644D01*
X019034Y024489D02*
X019344D01*
X019189Y024334D02*
Y024644D01*
X019034Y025489D02*
X019344D01*
X019189Y025334D02*
Y025644D01*
X019034Y026489D02*
X019344D01*
X019189Y026334D02*
Y026644D01*
X016951Y020489D02*
X017227D01*
X017089Y020351D02*
Y020627D01*
X016951Y021489D02*
X017227D01*
X017089Y021351D02*
Y021627D01*
X015601Y020489D02*
X015877D01*
X015739Y020351D02*
Y020627D01*
X015601Y021489D02*
X015877D01*
X015739Y021351D02*
Y021627D01*
X013051Y020489D02*
X013327D01*
X013189Y020351D02*
Y020627D01*
X013051Y021489D02*
X013327D01*
X013189Y021351D02*
Y021627D01*
X010551Y020489D02*
X010827D01*
X010689Y020351D02*
Y020627D01*
X010551Y021489D02*
X010827D01*
X010689Y021351D02*
Y021627D01*
X011751Y020489D02*
X012027D01*
X011889Y020351D02*
Y020627D01*
X011751Y021489D02*
X012027D01*
X011889Y021351D02*
Y021627D01*
X014301Y020489D02*
X014577D01*
X014439Y020351D02*
Y020627D01*
X014301Y021489D02*
X014577D01*
X014439Y021351D02*
Y021627D01*
X032631Y037139D02*
X032946D01*
X032789Y036981D02*
Y037296D01*
X032631Y036139D02*
X032946D01*
X032789Y035982D02*
Y036296D01*
X038084Y026189D02*
X038394D01*
X038239Y026034D02*
Y026344D01*
X039084Y026189D02*
X039394D01*
X039239Y026034D02*
Y026344D01*
X039084Y023189D02*
X039394D01*
X039239Y023034D02*
Y023344D01*
X038084Y023189D02*
X038394D01*
X038239Y023034D02*
Y023344D01*
X011821Y019347D02*
X012057D01*
X011939Y019229D02*
Y019465D01*
X011821Y015331D02*
X012057D01*
X011939Y015213D02*
Y015449D01*
X014321Y019347D02*
X014557D01*
X014439Y019229D02*
Y019465D01*
X014321Y015331D02*
X014557D01*
X014439Y015213D02*
Y015449D01*
X013071Y019347D02*
X013307D01*
X013189Y019229D02*
Y019465D01*
X013071Y015331D02*
X013307D01*
X013189Y015213D02*
Y015449D01*
X034248Y025989D02*
X034445D01*
X034347Y025891D02*
Y026087D01*
X034741Y025989D02*
X034937D01*
X034839Y025891D02*
Y026087D01*
X035233Y025989D02*
X03543D01*
X035331Y025891D02*
Y026087D01*
X034248Y029589D02*
X034445D01*
X034347Y029491D02*
Y029687D01*
X034741Y029589D02*
X034937D01*
X034839Y029491D02*
Y029687D01*
X035233Y029589D02*
X03543D01*
X035331Y029491D02*
Y029687D01*
X034248Y027789D02*
X034445D01*
X034347Y027691D02*
Y027887D01*
X034741Y027789D02*
X034937D01*
X034839Y027691D02*
Y027887D01*
X035233Y027789D02*
X03543D01*
X035331Y027691D02*
Y027887D01*
X041014Y026239D02*
X041364D01*
X041189Y026064D02*
Y026414D01*
X041014Y025239D02*
X041364D01*
X041189Y025064D02*
Y025414D01*
X014001Y032539D02*
X014277D01*
X014139Y032401D02*
Y032677D01*
X014001Y033539D02*
X014277D01*
X014139Y033401D02*
Y033677D01*
X010371Y027281D02*
X010607D01*
X010489Y027163D02*
Y027399D01*
X010371Y031297D02*
X010607D01*
X010489Y031179D02*
Y031415D01*
X012821Y027281D02*
X013057D01*
X012939Y027163D02*
Y027399D01*
X012821Y031297D02*
X013057D01*
X012939Y031179D02*
Y031415D01*
X011621Y027281D02*
X011857D01*
X011739Y027163D02*
Y027399D01*
X011621Y031297D02*
X011857D01*
X011739Y031179D02*
Y031415D01*
X012801Y032539D02*
X013077D01*
X012939Y032401D02*
Y032677D01*
X012801Y033539D02*
X013077D01*
X012939Y033401D02*
Y033677D01*
X011601Y032539D02*
X011877D01*
X011739Y032401D02*
Y032677D01*
X011601Y033539D02*
X011877D01*
X011739Y033401D02*
Y033677D01*
X014021Y027281D02*
X014257D01*
X014139Y027163D02*
Y027399D01*
X014021Y031297D02*
X014257D01*
X014139Y031179D02*
Y031415D01*
X010669Y024539D02*
X011009D01*
X010839Y024369D02*
Y024709D01*
X012669Y024539D02*
X013009D01*
X012839Y024369D02*
Y024709D01*
X016669Y024539D02*
X017009D01*
X016839Y024369D02*
Y024709D01*
X015669Y024539D02*
X016009D01*
X015839Y024369D02*
Y024709D01*
X014669Y024539D02*
X015009D01*
X014839Y024369D02*
Y024709D01*
X013669Y024539D02*
X014009D01*
X013839Y024369D02*
Y024709D01*
X011669Y024539D02*
X012009D01*
X011839Y024369D02*
Y024709D01*
X009669Y024539D02*
X010009D01*
X009839Y024369D02*
Y024709D01*
X034248Y024189D02*
X034445D01*
X034347Y024091D02*
Y024287D01*
X034741Y024189D02*
X034937D01*
X034839Y024091D02*
Y024287D01*
X035233Y024189D02*
X03543D01*
X035331Y024091D02*
Y024287D01*
X016421Y027281D02*
X016657D01*
X016539Y027163D02*
Y027399D01*
X016421Y031297D02*
X016657D01*
X016539Y031179D02*
Y031415D01*
X015221Y027281D02*
X015457D01*
X015339Y027163D02*
Y027399D01*
X015221Y031297D02*
X015457D01*
X015339Y031179D02*
Y031415D01*
X017621Y031297D02*
X017857D01*
X017739Y031179D02*
Y031415D01*
X017621Y027281D02*
X017857D01*
X017739Y027163D02*
Y027399D01*
X010571Y019347D02*
X010807D01*
X010689Y019229D02*
Y019465D01*
X010571Y015331D02*
X010807D01*
X010689Y015213D02*
Y015449D01*
X015621Y019347D02*
X015857D01*
X015739Y019229D02*
Y019465D01*
X015621Y015331D02*
X015857D01*
X015739Y015213D02*
Y015449D01*
X016971Y019347D02*
X017207D01*
X017089Y019229D02*
Y019465D01*
X016971Y015331D02*
X017207D01*
X017089Y015213D02*
Y015449D01*
X017601Y033539D02*
X017877D01*
X017739Y033401D02*
Y033677D01*
X017601Y032539D02*
X017877D01*
X017739Y032401D02*
Y032677D01*
X016401Y033539D02*
X016677D01*
X016539Y033401D02*
Y033677D01*
X016401Y032539D02*
X016677D01*
X016539Y032401D02*
Y032677D01*
X015201Y032539D02*
X015477D01*
X015339Y032401D02*
Y032677D01*
X015201Y033539D02*
X015477D01*
X015339Y033401D02*
Y033677D01*
X022184Y030589D02*
X022494D01*
X022339Y030434D02*
Y030744D01*
X022184Y031589D02*
X022494D01*
X022339Y031434D02*
Y031744D01*
X022184Y032589D02*
X022494D01*
X022339Y032434D02*
Y032744D01*
X022184Y033589D02*
X022494D01*
X022339Y033434D02*
Y033744D01*
X022184Y034589D02*
X022494D01*
X022339Y034434D02*
Y034744D01*
X022184Y035589D02*
X022494D01*
X022339Y035434D02*
Y035744D01*
X022184Y036589D02*
X022494D01*
X022339Y036434D02*
Y036744D01*
X022184Y037589D02*
X022494D01*
X022339Y037434D02*
Y037744D01*
X019184Y030589D02*
X019494D01*
X019339Y030434D02*
Y030744D01*
X019184Y031589D02*
X019494D01*
X019339Y031434D02*
Y031744D01*
X019184Y032589D02*
X019494D01*
X019339Y032434D02*
Y032744D01*
X019184Y033589D02*
X019494D01*
X019339Y033434D02*
Y033744D01*
X019184Y034589D02*
X019494D01*
X019339Y034434D02*
Y034744D01*
X019184Y035589D02*
X019494D01*
X019339Y035434D02*
Y035744D01*
X019184Y036589D02*
X019494D01*
X019339Y036434D02*
Y036744D01*
X019184Y037589D02*
X019494D01*
X019339Y037434D02*
Y037744D01*
X034248Y020539D02*
X034445D01*
X034347Y020441D02*
Y020637D01*
X034741Y020539D02*
X034937D01*
X034839Y020441D02*
Y020637D01*
X035233Y020539D02*
X03543D01*
X035331Y020441D02*
Y020637D01*
X016269Y036739D02*
X016609D01*
X016439Y036569D02*
Y036909D01*
X014269Y036739D02*
X014609D01*
X014439Y036569D02*
Y036909D01*
X012269Y036739D02*
X012609D01*
X012439Y036569D02*
Y036909D01*
X011269Y036739D02*
X011609D01*
X011439Y036569D02*
Y036909D01*
X010269Y036739D02*
X010609D01*
X010439Y036569D02*
Y036909D01*
X009269Y036739D02*
X009609D01*
X009439Y036569D02*
Y036909D01*
X013269Y036739D02*
X013609D01*
X013439Y036569D02*
Y036909D01*
X015269Y036739D02*
X015609D01*
X015439Y036569D02*
Y036909D01*
X017269Y036739D02*
X017609D01*
X017439Y036569D02*
Y036909D01*
X010351Y032539D02*
X010627D01*
X010489Y032401D02*
Y032677D01*
X010351Y033539D02*
X010627D01*
X010489Y033401D02*
Y033677D01*
X009251Y020489D02*
X009527D01*
X009389Y020351D02*
Y020627D01*
X009251Y021489D02*
X009527D01*
X009389Y021351D02*
Y021627D01*
X009101Y032539D02*
X009377D01*
X009239Y032401D02*
Y032677D01*
X009101Y033539D02*
X009377D01*
X009239Y033401D02*
Y033677D01*
X009171Y027281D02*
X009407D01*
X009289Y027163D02*
Y027399D01*
X009171Y031297D02*
X009407D01*
X009289Y031179D02*
Y031415D01*
X015529Y013239D02*
X015949D01*
X015739Y013029D02*
Y013449D01*
X013529Y013239D02*
X013949D01*
X013739Y013029D02*
Y013449D01*
X009529Y013239D02*
X009949D01*
X009739Y013029D02*
Y013449D01*
X010529Y013239D02*
X010949D01*
X010739Y013029D02*
Y013449D01*
X011529Y013239D02*
X011949D01*
X011739Y013029D02*
Y013449D01*
X012529Y013239D02*
X012949D01*
X012739Y013029D02*
Y013449D01*
X014529Y013239D02*
X014949D01*
X014739Y013029D02*
Y013449D01*
X016529Y013239D02*
X016949D01*
X016739Y013029D02*
Y013449D01*
X009171Y006081D02*
X009407D01*
X009289Y005963D02*
Y006199D01*
X009171Y010097D02*
X009407D01*
X009289Y009979D02*
Y010215D01*
X014571Y006081D02*
X014807D01*
X014689Y005963D02*
Y006199D01*
X014571Y010097D02*
X014807D01*
X014689Y009979D02*
Y010215D01*
X010521Y006081D02*
X010757D01*
X010639Y005963D02*
Y006199D01*
X010521Y010097D02*
X010757D01*
X010639Y009979D02*
Y010215D01*
X011871Y006081D02*
X012107D01*
X011989Y005963D02*
Y006199D01*
X011871Y010097D02*
X012107D01*
X011989Y009979D02*
Y010215D01*
X013221Y006081D02*
X013457D01*
X013339Y005963D02*
Y006199D01*
X013221Y010097D02*
X013457D01*
X013339Y009979D02*
Y010215D01*
X015971Y006131D02*
X016207D01*
X016089Y006013D02*
Y006249D01*
X015971Y010147D02*
X016207D01*
X016089Y010029D02*
Y010265D01*
X017371Y006131D02*
X017607D01*
X017489Y006013D02*
Y006249D01*
X017371Y010147D02*
X017607D01*
X017489Y010029D02*
Y010265D01*
X039081Y008369D02*
X039396D01*
X039239Y008211D02*
Y008526D01*
X039081Y009039D02*
X039396D01*
X039239Y008881D02*
Y009196D01*
X039081Y009709D02*
X039396D01*
X039239Y009552D02*
Y009867D01*
X039081Y010379D02*
X039396D01*
X039239Y010222D02*
Y010537D01*
X039081Y011049D02*
X039396D01*
X039239Y010892D02*
Y011207D01*
X009271Y019347D02*
X009507D01*
X009389Y019229D02*
Y019465D01*
X009271Y015331D02*
X009507D01*
X009389Y015213D02*
Y015449D01*
X022234Y008639D02*
X022544D01*
X022389Y008484D02*
Y008794D01*
X022234Y009639D02*
X022544D01*
X022389Y009484D02*
Y009794D01*
X022234Y010639D02*
X022544D01*
X022389Y010484D02*
Y010794D01*
X022234Y011639D02*
X022544D01*
X022389Y011484D02*
Y011794D01*
X022234Y012639D02*
X022544D01*
X022389Y012484D02*
Y012794D01*
X022234Y013639D02*
X022544D01*
X022389Y013484D02*
Y013794D01*
X022234Y014639D02*
X022544D01*
X022389Y014484D02*
Y014794D01*
X022234Y015639D02*
X022544D01*
X022389Y015484D02*
Y015794D01*
X019234Y008639D02*
X019544D01*
X019389Y008484D02*
Y008794D01*
X019234Y009639D02*
X019544D01*
X019389Y009484D02*
Y009794D01*
X019234Y010639D02*
X019544D01*
X019389Y010484D02*
Y010794D01*
X019234Y011639D02*
X019544D01*
X019389Y011484D02*
Y011794D01*
X019234Y012639D02*
X019544D01*
X019389Y012484D02*
Y012794D01*
X019234Y013639D02*
X019544D01*
X019389Y013484D02*
Y013794D01*
X019234Y014639D02*
X019544D01*
X019389Y014484D02*
Y014794D01*
X019234Y015639D02*
X019544D01*
X019389Y015484D02*
Y015794D01*
X034248Y018739D02*
X034445D01*
X034347Y018641D02*
Y018837D01*
X034741Y018739D02*
X034937D01*
X034839Y018641D02*
Y018837D01*
X035233Y018739D02*
X03543D01*
X035331Y018641D02*
Y018837D01*
X022438Y028224D02*
X022635D01*
X022536Y028126D02*
Y028322D01*
X022441Y028939D02*
X022637D01*
X022539Y028841D02*
Y029037D01*
X021432Y03424D02*
X021628D01*
X02153Y034142D02*
Y034338D01*
X027352Y0224D02*
X027548D01*
X02745Y022302D02*
Y022498D01*
X019342Y01763D02*
X019538D01*
X01944Y017532D02*
Y017728D01*
X019952Y02953D02*
X020148D01*
X02005Y029432D02*
Y029628D01*
X0447Y004357D02*
X045881D01*
X045291Y003767D02*
Y004948D01*
X0447Y039791D02*
X045881D01*
X045291Y0392D02*
Y040381D01*
X009267Y039791D02*
X010448D01*
X009857Y0392D02*
Y040381D01*
X009267Y004357D02*
X010448D01*
X009857Y003767D02*
Y004948D01*
M02*
