G04*
G04 #@! TF.GenerationSoftware,Altium Limited,Altium Designer,21.3.2 (30)*
G04*
G04 Layer_Physical_Order=2*
G04 Layer_Color=16711680*
%FSTAX24Y24*%
%MOIN*%
G70*
G04*
G04 #@! TF.SameCoordinates,1AC0675F-A7BC-4776-8E39-8DD75055E93B*
G04*
G04*
G04 #@! TF.FilePolarity,Positive*
G04*
G01*
G75*
%ADD54C,0.0197*%
%ADD55C,0.0394*%
%ADD56O,0.0650X0.0750*%
%ADD57C,0.0551*%
%ADD58C,0.0591*%
%ADD59C,0.0600*%
%ADD60R,0.0600X0.0600*%
%ADD61R,0.0700X0.0700*%
%ADD62C,0.0700*%
%ADD63R,0.1500X0.1500*%
%ADD64C,0.1500*%
%ADD65R,0.0700X0.0700*%
%ADD66C,0.0827*%
%ADD67R,0.0827X0.0827*%
%ADD68R,0.0591X0.0591*%
%ADD69O,0.0660X0.1000*%
%ADD70C,0.0900*%
%ADD71R,0.0551X0.0551*%
%ADD72R,0.0827X0.0827*%
%ADD73R,0.1500X0.1500*%
%ADD74O,0.0600X0.0700*%
%ADD75R,0.0600X0.0700*%
%ADD76C,0.0315*%
%ADD77R,0.0900X0.0600*%
%ADD78O,0.0900X0.0600*%
%ADD79R,0.0591X0.0512*%
%ADD80O,0.0591X0.0512*%
%ADD81O,0.0600X0.0900*%
%ADD82R,0.0600X0.0900*%
%ADD83O,0.0700X0.0600*%
%ADD84R,0.0700X0.0600*%
%ADD85O,0.0750X0.0900*%
%ADD86R,0.0750X0.0900*%
%ADD87O,0.0650X0.0900*%
%ADD88R,0.0650X0.0900*%
%ADD89R,0.0551X0.0551*%
%ADD90C,0.0394*%
%ADD91C,0.1969*%
G36*
X047048Y025213D02*
X046929Y025164D01*
X044671Y027421D01*
X044618Y027463D01*
X044556Y027488D01*
X044489Y027497D01*
X039589D01*
X039522Y027488D01*
X03946Y027463D01*
X039406Y027421D01*
X039056Y027071D01*
X039015Y027018D01*
X03899Y026956D01*
X038981Y026889D01*
Y026718D01*
X038913Y026665D01*
X038839Y02657D01*
X038801Y026476D01*
X038739Y026467D01*
X038677Y026476D01*
X038639Y02657D01*
X038565Y026665D01*
X03847Y026739D01*
X038358Y026785D01*
X038239Y0268D01*
X03812Y026785D01*
X038008Y026739D01*
X037913Y026665D01*
X037839Y02657D01*
X037793Y026458D01*
X037778Y026339D01*
Y026039D01*
X037793Y02592D01*
X037839Y025808D01*
X037913Y025713D01*
X038008Y025639D01*
X03812Y025593D01*
X038239Y025578D01*
X038358Y025593D01*
X03847Y025639D01*
X038565Y025713D01*
X038639Y025808D01*
X038677Y025902D01*
X038739Y025911D01*
X038801Y025902D01*
X038839Y025808D01*
X038913Y025713D01*
X039008Y025639D01*
X03912Y025593D01*
X039239Y025578D01*
X039358Y025593D01*
X03947Y025639D01*
X039565Y025713D01*
X039639Y025808D01*
X039685Y02592D01*
X0397Y026039D01*
Y026339D01*
X039685Y026458D01*
X039639Y02657D01*
X039565Y026665D01*
X039542Y026683D01*
X039535Y02682D01*
X039696Y026981D01*
X044382D01*
X046581Y024782D01*
Y021896D01*
X046132Y021447D01*
X038989D01*
X038922Y021438D01*
X03886Y021413D01*
X038806Y021371D01*
X038456Y021021D01*
X038415Y020968D01*
X03839Y020906D01*
X038381Y020839D01*
Y020375D01*
X038291Y020307D01*
X038213Y020205D01*
X038203Y02018D01*
X038075D01*
X038065Y020205D01*
X037987Y020307D01*
X037885Y020385D01*
X037766Y020434D01*
X037639Y020451D01*
X037512Y020434D01*
X037393Y020385D01*
X037291Y020307D01*
X037213Y020205D01*
X037164Y020086D01*
X037147Y019959D01*
Y019619D01*
X037164Y019492D01*
X037213Y019373D01*
X037291Y019271D01*
X037393Y019193D01*
X037512Y019144D01*
X037639Y019127D01*
X037766Y019144D01*
X037885Y019193D01*
X037987Y019271D01*
X038065Y019373D01*
X038075Y019398D01*
X038203D01*
X038213Y019373D01*
X038291Y019271D01*
X038393Y019193D01*
X038512Y019144D01*
X038639Y019127D01*
X038766Y019144D01*
X038885Y019193D01*
X038987Y019271D01*
X039065Y019373D01*
X039114Y019492D01*
X039131Y019619D01*
Y019959D01*
X039114Y020086D01*
X039065Y020205D01*
X038987Y020307D01*
X038897Y020375D01*
Y020732D01*
X039096Y020931D01*
X046239D01*
X046306Y02094D01*
X046368Y020965D01*
X046421Y021006D01*
X046929Y021514D01*
X047048Y021465D01*
Y002601D01*
X008101D01*
Y041548D01*
X047048D01*
Y025213D01*
D02*
G37*
%LPC*%
G36*
X045291Y040936D02*
X045111Y040922D01*
X044937Y04088D01*
X044771Y040811D01*
X044617Y040717D01*
X044481Y0406D01*
X044364Y040464D01*
X04427Y040311D01*
X044201Y040144D01*
X044159Y03997D01*
X044145Y039791D01*
X044159Y039611D01*
X044201Y039437D01*
X04427Y039271D01*
X044364Y039117D01*
X044481Y038981D01*
X044617Y038864D01*
X044771Y03877D01*
X044937Y038701D01*
X045111Y038659D01*
X045291Y038645D01*
X04547Y038659D01*
X045644Y038701D01*
X04581Y03877D01*
X045964Y038864D01*
X0461Y038981D01*
X046217Y039117D01*
X046311Y039271D01*
X04638Y039437D01*
X046422Y039611D01*
X046436Y039791D01*
X046422Y03997D01*
X04638Y040144D01*
X046311Y040311D01*
X046217Y040464D01*
X0461Y0406D01*
X045964Y040717D01*
X04581Y040811D01*
X045644Y04088D01*
X04547Y040922D01*
X045291Y040936D01*
D02*
G37*
G36*
X009857D02*
X009678Y040922D01*
X009504Y04088D01*
X009338Y040811D01*
X009184Y040717D01*
X009048Y0406D01*
X008931Y040464D01*
X008837Y040311D01*
X008768Y040144D01*
X008726Y03997D01*
X008712Y039791D01*
X008726Y039611D01*
X008768Y039437D01*
X008837Y039271D01*
X008931Y039117D01*
X009048Y038981D01*
X009184Y038864D01*
X009338Y03877D01*
X009504Y038701D01*
X009678Y038659D01*
X009857Y038645D01*
X010037Y038659D01*
X010211Y038701D01*
X010377Y03877D01*
X010531Y038864D01*
X010667Y038981D01*
X010784Y039117D01*
X010878Y039271D01*
X010947Y039437D01*
X010989Y039611D01*
X011003Y039791D01*
X010989Y03997D01*
X010947Y040144D01*
X010878Y040311D01*
X010784Y040464D01*
X010667Y0406D01*
X010531Y040717D01*
X010377Y040811D01*
X010211Y04088D01*
X010037Y040922D01*
X009857Y040936D01*
D02*
G37*
G36*
X020546Y03944D02*
X011432D01*
X011365Y039431D01*
X011303Y039405D01*
X011249Y039364D01*
X010256Y038371D01*
X010215Y038318D01*
X01019Y038256D01*
X010181Y038189D01*
Y037283D01*
X01017Y037279D01*
X01009Y037217D01*
X00999Y037253D01*
X009971Y037269D01*
Y037346D01*
X008906D01*
Y036131D01*
X009971D01*
Y036209D01*
X00999Y036225D01*
X01009Y036261D01*
X01017Y036199D01*
X0103Y036145D01*
X010439Y036127D01*
X010578Y036145D01*
X010708Y036199D01*
X010819Y036284D01*
X010867Y036348D01*
X010881Y036354D01*
X010997D01*
X011011Y036348D01*
X011059Y036284D01*
X01117Y036199D01*
X0113Y036145D01*
X011439Y036127D01*
X011525Y036138D01*
X012156Y035506D01*
X01221Y035465D01*
X012272Y03544D01*
X012339Y035431D01*
X017739D01*
X017806Y03544D01*
X017809Y035441D01*
X017876Y035341D01*
X016529Y033994D01*
X016421Y03398D01*
X016311Y033934D01*
X016216Y033862D01*
X016143Y033767D01*
X016098Y033657D01*
X016082Y033539D01*
X016092Y033468D01*
X01598Y033413D01*
X015817Y033576D01*
X015788Y033598D01*
X01578Y033657D01*
X015734Y033767D01*
X015662Y033862D01*
X015567Y033934D01*
X015457Y03398D01*
X015339Y033996D01*
X015221Y03398D01*
X015111Y033934D01*
X015016Y033862D01*
X014966Y033797D01*
X014512D01*
X014462Y033862D01*
X014367Y033934D01*
X014257Y03398D01*
X014139Y033996D01*
X014021Y03398D01*
X013911Y033934D01*
X013816Y033862D01*
X013766Y033797D01*
X013312D01*
X013262Y033862D01*
X013167Y033934D01*
X013057Y03398D01*
X012939Y033996D01*
X012821Y03398D01*
X012711Y033934D01*
X012616Y033862D01*
X012566Y033797D01*
X012112D01*
X012062Y033862D01*
X011967Y033934D01*
X011857Y03398D01*
X011739Y033996D01*
X011621Y03398D01*
X011511Y033934D01*
X011416Y033862D01*
X011366Y033797D01*
X010862D01*
X010812Y033862D01*
X010717Y033934D01*
X010607Y03398D01*
X010489Y033996D01*
X010371Y03398D01*
X010261Y033934D01*
X010166Y033862D01*
X010116Y033797D01*
X009612D01*
X009562Y033862D01*
X009467Y033934D01*
X009357Y03398D01*
X009239Y033996D01*
X009121Y03398D01*
X009011Y033934D01*
X008916Y033862D01*
X008844Y033767D01*
X008798Y033657D01*
X008782Y033539D01*
X008798Y033421D01*
X008844Y033311D01*
X008916Y033216D01*
X009011Y033143D01*
X009121Y033098D01*
Y03298D01*
X009011Y032934D01*
X008916Y032862D01*
X008844Y032767D01*
X008798Y032657D01*
X008782Y032539D01*
X008798Y032421D01*
X008844Y032311D01*
X008916Y032216D01*
X009011Y032143D01*
X009121Y032098D01*
X009239Y032082D01*
X009357Y032098D01*
X009467Y032143D01*
X009562Y032216D01*
X009634Y032311D01*
X00968Y032421D01*
X009696Y032539D01*
X00968Y032657D01*
X009634Y032767D01*
X009562Y032862D01*
X009467Y032934D01*
X009357Y03298D01*
Y033098D01*
X009467Y033143D01*
X009562Y033216D01*
X009612Y033281D01*
X010116D01*
X010166Y033216D01*
X010261Y033143D01*
X010371Y033098D01*
Y03298D01*
X010261Y032934D01*
X010166Y032862D01*
X010093Y032767D01*
X010048Y032657D01*
X010032Y032539D01*
X010048Y032421D01*
X010093Y032311D01*
X010166Y032216D01*
X010261Y032143D01*
X010371Y032098D01*
X010489Y032082D01*
X010607Y032098D01*
X010717Y032143D01*
X010812Y032216D01*
X010884Y032311D01*
X01093Y032421D01*
X010946Y032539D01*
X01093Y032657D01*
X010884Y032767D01*
X010812Y032862D01*
X010717Y032934D01*
X010607Y03298D01*
Y033098D01*
X010717Y033143D01*
X010812Y033216D01*
X010862Y033281D01*
X011366D01*
X011416Y033216D01*
X011511Y033143D01*
X011621Y033098D01*
Y03298D01*
X011511Y032934D01*
X011416Y032862D01*
X011343Y032767D01*
X011298Y032657D01*
X011282Y032539D01*
X011298Y032421D01*
X011343Y032311D01*
X011416Y032216D01*
X011511Y032143D01*
X011621Y032098D01*
X011739Y032082D01*
X011857Y032098D01*
X011967Y032143D01*
X012062Y032216D01*
X012134Y032311D01*
X01218Y032421D01*
X012196Y032539D01*
X01218Y032657D01*
X012134Y032767D01*
X012062Y032862D01*
X011967Y032934D01*
X011857Y03298D01*
Y033098D01*
X011967Y033143D01*
X012062Y033216D01*
X012112Y033281D01*
X012566D01*
X012616Y033216D01*
X012711Y033143D01*
X012821Y033098D01*
Y03298D01*
X012711Y032934D01*
X012616Y032862D01*
X012543Y032767D01*
X012498Y032657D01*
X012482Y032539D01*
X012498Y032421D01*
X012543Y032311D01*
X012616Y032216D01*
X012711Y032143D01*
X012821Y032098D01*
X012939Y032082D01*
X01302Y032093D01*
X013315Y031797D01*
X013369Y031756D01*
X013431Y031731D01*
X013498Y031722D01*
X013787D01*
X013827Y031613D01*
X013829Y031604D01*
X013761Y031515D01*
X013717Y03141D01*
X013702Y031297D01*
X013717Y031184D01*
X013761Y031078D01*
X01383Y030988D01*
X013921Y030919D01*
X014026Y030875D01*
X014139Y03086D01*
X014252Y030875D01*
X014357Y030919D01*
X014448Y030988D01*
X014517Y031078D01*
X014561Y031184D01*
X014576Y031297D01*
X014561Y03141D01*
X014517Y031515D01*
X014449Y031604D01*
X014451Y031613D01*
X01449Y031722D01*
X014987D01*
X015027Y031613D01*
X015029Y031604D01*
X014961Y031515D01*
X014917Y03141D01*
X014902Y031297D01*
X014917Y031184D01*
X014961Y031078D01*
X01503Y030988D01*
X015121Y030919D01*
X015226Y030875D01*
X015339Y03086D01*
X015402Y030868D01*
X016923Y029347D01*
X016977Y029306D01*
X017039Y029281D01*
X017106Y029272D01*
X019804D01*
X019871Y02922D01*
X019957Y029185D01*
X02005Y029173D01*
X020143Y029185D01*
X020229Y02922D01*
X020303Y029277D01*
X02036Y029351D01*
X020395Y029437D01*
X020407Y02953D01*
X020395Y029622D01*
X020395Y029624D01*
X020474Y029742D01*
X02075D01*
X020817Y029751D01*
X020879Y029776D01*
X020933Y029817D01*
X021371Y030256D01*
X021413Y03031D01*
X021438Y030372D01*
X021447Y030439D01*
Y032082D01*
X021696Y032331D01*
X02181D01*
X021863Y032263D01*
X021958Y032189D01*
X022052Y032151D01*
X022061Y032089D01*
X022052Y032027D01*
X021958Y031989D01*
X021863Y031915D01*
X021789Y03182D01*
X021743Y031708D01*
X021728Y031589D01*
X021743Y03147D01*
X021789Y031358D01*
X021863Y031263D01*
X021958Y031189D01*
X022018Y031165D01*
X021995Y031046D01*
X021732D01*
Y030131D01*
X022946D01*
Y030332D01*
X023006Y03034D01*
X023068Y030365D01*
X023121Y030406D01*
X024002Y031287D01*
X024114Y031232D01*
X024113Y031224D01*
X024128Y031105D01*
X024174Y030993D01*
X024248Y030898D01*
X024343Y030824D01*
X024437Y030786D01*
X024446Y030724D01*
X024437Y030662D01*
X024343Y030624D01*
X024248Y03055D01*
X024195Y030482D01*
X023824D01*
X023757Y030473D01*
X023695Y030448D01*
X023642Y030407D01*
X02253Y029295D01*
X022446Y029284D01*
X02236Y029248D01*
X022286Y029192D01*
X022229Y029118D01*
X022194Y029031D01*
X022182Y028939D01*
X022194Y028846D01*
X022229Y02876D01*
X022286Y028686D01*
X022332Y028651D01*
X022343Y028603D01*
X022342Y028557D01*
X022332Y028514D01*
X022284Y028477D01*
X022227Y028403D01*
X022191Y028317D01*
X022179Y028224D01*
X022191Y028132D01*
X022227Y028045D01*
X022284Y027971D01*
X022358Y027915D01*
X022444Y027879D01*
X022536Y027867D01*
X022629Y027879D01*
X022715Y027915D01*
X022782Y027966D01*
X024195D01*
X024248Y027898D01*
X024343Y027824D01*
X024437Y027786D01*
X024446Y027724D01*
X024437Y027662D01*
X024343Y027624D01*
X024248Y02755D01*
X024195Y027482D01*
X021115D01*
X021048Y027473D01*
X020986Y027448D01*
X020933Y027407D01*
X020273Y026747D01*
X019718D01*
X019665Y026815D01*
X01957Y026889D01*
X019458Y026935D01*
X019339Y02695D01*
X019039D01*
X01892Y026935D01*
X018808Y026889D01*
X018713Y026815D01*
X018639Y02672D01*
X018593Y026608D01*
X018578Y026489D01*
X018593Y02637D01*
X018639Y026258D01*
X018713Y026163D01*
X018808Y026089D01*
X018902Y026051D01*
X018911Y025989D01*
X018902Y025927D01*
X018808Y025889D01*
X018713Y025815D01*
X018639Y02572D01*
X018593Y025608D01*
X018578Y025489D01*
X018593Y02537D01*
X018639Y025258D01*
X018713Y025163D01*
X018808Y025089D01*
X018902Y025051D01*
X018911Y024989D01*
X018902Y024927D01*
X018808Y024889D01*
X018713Y024815D01*
X018639Y02472D01*
X018593Y024608D01*
X018578Y024493D01*
X017882Y023797D01*
X010838D01*
X010829Y023811D01*
X010831Y023827D01*
X010892Y023934D01*
X010978Y023945D01*
X011108Y023999D01*
X011219Y024084D01*
X011267Y024148D01*
X011281Y024154D01*
X011397D01*
X011411Y024148D01*
X011459Y024084D01*
X01157Y023999D01*
X0117Y023945D01*
X011839Y023927D01*
X011978Y023945D01*
X012108Y023999D01*
X012219Y024084D01*
X012267Y024148D01*
X012281Y024154D01*
X012397D01*
X012411Y024148D01*
X012459Y024084D01*
X01257Y023999D01*
X0127Y023945D01*
X012839Y023927D01*
X012978Y023945D01*
X013108Y023999D01*
X013219Y024084D01*
X013267Y024148D01*
X013281Y024154D01*
X013397D01*
X013411Y024148D01*
X013459Y024084D01*
X01357Y023999D01*
X0137Y023945D01*
X013839Y023927D01*
X013978Y023945D01*
X014108Y023999D01*
X014219Y024084D01*
X014267Y024148D01*
X014281Y024154D01*
X014397D01*
X014411Y024148D01*
X014459Y024084D01*
X01457Y023999D01*
X0147Y023945D01*
X014839Y023927D01*
X014978Y023945D01*
X015108Y023999D01*
X015219Y024084D01*
X015267Y024148D01*
X015281Y024154D01*
X015397D01*
X015411Y024148D01*
X015459Y024084D01*
X01557Y023999D01*
X0157Y023945D01*
X015839Y023927D01*
X015978Y023945D01*
X016108Y023999D01*
X016188Y024061D01*
X016288Y024025D01*
X016307Y024009D01*
Y023932D01*
X017371D01*
Y025146D01*
X016307D01*
Y025069D01*
X016288Y025053D01*
X016188Y025017D01*
X016108Y025079D01*
X015978Y025133D01*
X015839Y025151D01*
X0157Y025133D01*
X01557Y025079D01*
X015459Y024994D01*
X015411Y02493D01*
X015397Y024924D01*
X015281D01*
X015267Y02493D01*
X015219Y024994D01*
X015108Y025079D01*
X014978Y025133D01*
X014839Y025151D01*
X0147Y025133D01*
X01457Y025079D01*
X014459Y024994D01*
X014411Y02493D01*
X014397Y024924D01*
X014281D01*
X014267Y02493D01*
X014219Y024994D01*
X014108Y025079D01*
X013978Y025133D01*
X013839Y025151D01*
X0137Y025133D01*
X01357Y025079D01*
X013459Y024994D01*
X013411Y02493D01*
X013397Y024924D01*
X013281D01*
X013267Y02493D01*
X013219Y024994D01*
X013108Y025079D01*
X012978Y025133D01*
X012839Y025151D01*
X0127Y025133D01*
X01257Y025079D01*
X012459Y024994D01*
X012411Y02493D01*
X012397Y024924D01*
X012281D01*
X012267Y02493D01*
X012219Y024994D01*
X012108Y025079D01*
X012097Y025083D01*
Y025489D01*
X012088Y025556D01*
X012063Y025618D01*
X012021Y025671D01*
X01163Y026063D01*
X011577Y026104D01*
X011515Y026129D01*
X011448Y026138D01*
X00908D01*
X009013Y026129D01*
X008951Y026104D01*
X008897Y026063D01*
X008506Y025671D01*
X008465Y025618D01*
X00844Y025556D01*
X008431Y025489D01*
Y023239D01*
X00844Y023172D01*
X008465Y02311D01*
X008506Y023056D01*
X009146Y022417D01*
X0091Y022308D01*
X00895D01*
X008883Y022299D01*
X008821Y022274D01*
X008767Y022233D01*
X008506Y021971D01*
X008465Y021918D01*
X00844Y021856D01*
X008431Y021789D01*
Y018989D01*
X00844Y018922D01*
X008465Y01886D01*
X008506Y018806D01*
X008805Y018507D01*
X008859Y018466D01*
X008921Y018441D01*
X008988Y018432D01*
X012532D01*
X012599Y018441D01*
X012661Y018466D01*
X012715Y018507D01*
X013126Y018918D01*
X013189Y01891D01*
X013302Y018925D01*
X013407Y018969D01*
X013498Y019038D01*
X013567Y019128D01*
X013611Y019234D01*
X013626Y019347D01*
X013611Y01946D01*
X013567Y019565D01*
X013498Y019656D01*
X013407Y019725D01*
X013302Y019769D01*
X013189Y019784D01*
X013076Y019769D01*
X012971Y019725D01*
X01288Y019656D01*
X012811Y019565D01*
X012767Y01946D01*
X012752Y019347D01*
X012761Y019283D01*
X012434Y018956D01*
X012312Y01896D01*
X012302Y018972D01*
X01227Y019066D01*
X012317Y019128D01*
X012361Y019234D01*
X012376Y019347D01*
X012361Y01946D01*
X012317Y019565D01*
X012248Y019656D01*
X012157Y019725D01*
X012052Y019769D01*
X011939Y019784D01*
X011826Y019769D01*
X011721Y019725D01*
X01163Y019656D01*
X011561Y019565D01*
X011517Y01946D01*
X011502Y019347D01*
X011517Y019234D01*
X011561Y019128D01*
X011608Y019066D01*
X011576Y018972D01*
X011556Y018948D01*
X011072D01*
X011052Y018972D01*
X01102Y019066D01*
X011067Y019128D01*
X011111Y019234D01*
X011126Y019347D01*
X011111Y01946D01*
X011067Y019565D01*
X010998Y019656D01*
X010907Y019725D01*
X010802Y019769D01*
X010689Y019784D01*
X010576Y019769D01*
X010471Y019725D01*
X01038Y019656D01*
X010311Y019565D01*
X010267Y01946D01*
X010252Y019347D01*
X010267Y019234D01*
X010311Y019128D01*
X010358Y019066D01*
X010326Y018972D01*
X010306Y018948D01*
X009772D01*
X009752Y018972D01*
X00972Y019066D01*
X009767Y019128D01*
X009811Y019234D01*
X009826Y019347D01*
X009811Y01946D01*
X009767Y019565D01*
X009698Y019656D01*
X009607Y019725D01*
X009502Y019769D01*
X009389Y019784D01*
X009276Y019769D01*
X009171Y019725D01*
X00908Y019656D01*
X009065Y019636D01*
X008947Y019676D01*
Y020127D01*
X009065Y020167D01*
X009066Y020166D01*
X009161Y020094D01*
X009271Y020048D01*
X009389Y020032D01*
X009507Y020048D01*
X009617Y020094D01*
X009712Y020166D01*
X009784Y020261D01*
X00983Y020371D01*
X009846Y020489D01*
X00983Y020607D01*
X009784Y020717D01*
X009712Y020812D01*
X009617Y020884D01*
X009507Y02093D01*
Y021048D01*
X009617Y021093D01*
X009712Y021166D01*
X009762Y021231D01*
X010316D01*
X010366Y021166D01*
X010461Y021093D01*
X010571Y021048D01*
Y02093D01*
X010461Y020884D01*
X010366Y020812D01*
X010294Y020717D01*
X010248Y020607D01*
X010232Y020489D01*
X010248Y020371D01*
X010294Y020261D01*
X010366Y020166D01*
X010461Y020094D01*
X010571Y020048D01*
X010689Y020032D01*
X010807Y020048D01*
X010917Y020094D01*
X011012Y020166D01*
X011084Y020261D01*
X01113Y020371D01*
X011146Y020489D01*
X01113Y020607D01*
X011084Y020717D01*
X011012Y020812D01*
X010917Y020884D01*
X010807Y02093D01*
Y021048D01*
X010917Y021093D01*
X011012Y021166D01*
X011062Y021231D01*
X011516D01*
X011566Y021166D01*
X011661Y021093D01*
X011771Y021048D01*
Y02093D01*
X011661Y020884D01*
X011566Y020812D01*
X011494Y020717D01*
X011448Y020607D01*
X011432Y020489D01*
X011448Y020371D01*
X011494Y020261D01*
X011566Y020166D01*
X011661Y020094D01*
X011771Y020048D01*
X011889Y020032D01*
X012007Y020048D01*
X012117Y020094D01*
X012212Y020166D01*
X012284Y020261D01*
X01233Y020371D01*
X012346Y020489D01*
X01233Y020607D01*
X012284Y020717D01*
X012212Y020812D01*
X012117Y020884D01*
X012007Y02093D01*
Y021048D01*
X012117Y021093D01*
X012212Y021166D01*
X012262Y021231D01*
X012816D01*
X012866Y021166D01*
X012961Y021093D01*
X013071Y021048D01*
Y02093D01*
X012961Y020884D01*
X012866Y020812D01*
X012794Y020717D01*
X012748Y020607D01*
X012732Y020489D01*
X012748Y020371D01*
X012794Y020261D01*
X012866Y020166D01*
X012961Y020094D01*
X013071Y020048D01*
X013189Y020032D01*
X013307Y020048D01*
X013417Y020094D01*
X013512Y020166D01*
X013584Y020261D01*
X01363Y020371D01*
X013646Y020489D01*
X01363Y020607D01*
X013584Y020717D01*
X013512Y020812D01*
X013417Y020884D01*
X013307Y02093D01*
Y021048D01*
X013417Y021093D01*
X013512Y021166D01*
X013562Y021231D01*
X014066D01*
X014116Y021166D01*
X014211Y021093D01*
X014321Y021048D01*
Y02093D01*
X014211Y020884D01*
X014116Y020812D01*
X014044Y020717D01*
X013998Y020607D01*
X013982Y020489D01*
X013998Y020371D01*
X014044Y020261D01*
X014116Y020166D01*
X014211Y020094D01*
X014321Y020048D01*
X014439Y020032D01*
X014557Y020048D01*
X014667Y020094D01*
X014762Y020166D01*
X014834Y020261D01*
X01488Y020371D01*
X014896Y020489D01*
X01488Y020607D01*
X014834Y020717D01*
X014762Y020812D01*
X014667Y020884D01*
X014557Y02093D01*
Y021048D01*
X014667Y021093D01*
X014762Y021166D01*
X014812Y021231D01*
X015366D01*
X015416Y021166D01*
X015511Y021093D01*
X015621Y021048D01*
Y02093D01*
X015511Y020884D01*
X015416Y020812D01*
X015344Y020717D01*
X015298Y020607D01*
X015282Y020489D01*
X015298Y020371D01*
X015344Y020261D01*
X015416Y020166D01*
X015511Y020094D01*
X015621Y020048D01*
X015739Y020032D01*
X015857Y020048D01*
X015967Y020094D01*
X016062Y020166D01*
X016134Y020261D01*
X01618Y020371D01*
X016196Y020489D01*
X01618Y020607D01*
X016134Y020717D01*
X016062Y020812D01*
X015967Y020884D01*
X015857Y02093D01*
Y021048D01*
X015967Y021093D01*
X016062Y021166D01*
X016112Y021231D01*
X016716D01*
X016766Y021166D01*
X016861Y021093D01*
X016971Y021048D01*
Y02093D01*
X016861Y020884D01*
X016766Y020812D01*
X016694Y020717D01*
X016648Y020607D01*
X016632Y020489D01*
X016648Y020371D01*
X016694Y020261D01*
X016766Y020166D01*
X016861Y020094D01*
X016971Y020048D01*
X017089Y020032D01*
X017207Y020048D01*
X017317Y020094D01*
X017412Y020166D01*
X017484Y020261D01*
X01753Y020371D01*
X017546Y020489D01*
X017544Y020502D01*
X017656Y020557D01*
X018597Y019616D01*
X018593Y019608D01*
X018578Y019489D01*
X018593Y01937D01*
X018618Y019309D01*
X018552Y019191D01*
X01761D01*
X017517Y019283D01*
X017526Y019347D01*
X017511Y01946D01*
X017467Y019565D01*
X017398Y019656D01*
X017307Y019725D01*
X017202Y019769D01*
X017089Y019784D01*
X016976Y019769D01*
X016871Y019725D01*
X01678Y019656D01*
X016711Y019565D01*
X016667Y01946D01*
X016652Y019347D01*
X016667Y019234D01*
X016711Y019128D01*
X01678Y019038D01*
X016871Y018969D01*
X016976Y018925D01*
X017089Y01891D01*
X017097Y018911D01*
X017136Y018865D01*
X017081Y018747D01*
X016704D01*
X016167Y019283D01*
X016176Y019347D01*
X016161Y01946D01*
X016117Y019565D01*
X016048Y019656D01*
X015957Y019725D01*
X015852Y019769D01*
X015739Y019784D01*
X015626Y019769D01*
X015521Y019725D01*
X01543Y019656D01*
X015361Y019565D01*
X015317Y01946D01*
X015302Y019347D01*
X015317Y019234D01*
X015361Y019128D01*
X01543Y019038D01*
X015521Y018969D01*
X015626Y018925D01*
X015739Y01891D01*
X015802Y018918D01*
X016271Y01845D01*
X016226Y018341D01*
X01581D01*
X014867Y019283D01*
X014876Y019347D01*
X014861Y01946D01*
X014817Y019565D01*
X014748Y019656D01*
X014657Y019725D01*
X014552Y019769D01*
X014439Y019784D01*
X014326Y019769D01*
X014221Y019725D01*
X01413Y019656D01*
X014061Y019565D01*
X014017Y01946D01*
X014002Y019347D01*
X014017Y019234D01*
X014061Y019128D01*
X01413Y019038D01*
X014221Y018969D01*
X014326Y018925D01*
X014439Y01891D01*
X014502Y018918D01*
X015521Y0179D01*
X015574Y017859D01*
X015636Y017833D01*
X015703Y017825D01*
X019009D01*
X019083Y017737D01*
X019093Y017707D01*
X019083Y01763D01*
X019095Y017537D01*
X01913Y017451D01*
X019187Y017377D01*
X019261Y01732D01*
X019347Y017285D01*
X01944Y017273D01*
X019533Y017285D01*
X019619Y01732D01*
X019686Y017372D01*
X02318D01*
X023247Y017381D01*
X023309Y017406D01*
X023363Y017447D01*
X023771Y017856D01*
X023813Y01791D01*
X023838Y017972D01*
X023847Y018039D01*
Y020132D01*
X024002Y020287D01*
X024114Y020232D01*
X024113Y020224D01*
X024128Y020105D01*
X024174Y019993D01*
X024248Y019898D01*
X024343Y019824D01*
X024437Y019786D01*
X024446Y019724D01*
X024437Y019662D01*
X024343Y019624D01*
X024248Y01955D01*
X024174Y019455D01*
X024128Y019343D01*
X024113Y019224D01*
X024128Y019105D01*
X024174Y018993D01*
X024248Y018898D01*
X024343Y018824D01*
X024437Y018786D01*
X024446Y018724D01*
X024437Y018662D01*
X024343Y018624D01*
X024248Y01855D01*
X024174Y018455D01*
X024128Y018343D01*
X024113Y018224D01*
X024128Y018105D01*
X024174Y017993D01*
X024248Y017898D01*
X024343Y017824D01*
X024437Y017786D01*
X024446Y017724D01*
X024437Y017662D01*
X024343Y017624D01*
X024248Y01755D01*
X024174Y017455D01*
X024128Y017343D01*
X024113Y017224D01*
X024128Y017105D01*
X024174Y016993D01*
X024248Y016898D01*
X024343Y016824D01*
X024455Y016778D01*
X024574Y016763D01*
X024693Y016778D01*
X024805Y016824D01*
X0249Y016898D01*
X024974Y016993D01*
X02502Y017105D01*
X025035Y017224D01*
X02502Y017343D01*
X024974Y017455D01*
X0249Y01755D01*
X024805Y017624D01*
X024711Y017662D01*
X024702Y017724D01*
X024711Y017786D01*
X024805Y017824D01*
X0249Y017898D01*
X024974Y017993D01*
X02502Y018105D01*
X025035Y018224D01*
X025034Y018232D01*
X025146Y018287D01*
X026481Y016952D01*
Y011449D01*
X026395Y011383D01*
X026318Y011282D01*
X026269Y011165D01*
X026252Y011039D01*
Y010939D01*
X026269Y010813D01*
X026318Y010696D01*
X026395Y010595D01*
X026496Y010518D01*
X026613Y010469D01*
X026739Y010452D01*
X026865Y010469D01*
X026982Y010518D01*
X027083Y010595D01*
X02716Y010696D01*
X02718Y010743D01*
X027308D01*
X027328Y010696D01*
X027405Y010595D01*
X027506Y010518D01*
X027623Y010469D01*
X027749Y010452D01*
X027875Y010469D01*
X027992Y010518D01*
X028093Y010595D01*
X02817Y010696D01*
X028219Y010813D01*
X028236Y010939D01*
Y011039D01*
X028219Y011165D01*
X02817Y011282D01*
X028093Y011383D01*
X027992Y01146D01*
X027875Y011509D01*
X027749Y011526D01*
X027623Y011509D01*
X027506Y01146D01*
X027405Y011383D01*
X027328Y011282D01*
X027308Y011235D01*
X02718D01*
X02716Y011282D01*
X027083Y011383D01*
X026997Y011449D01*
Y017059D01*
X026988Y017126D01*
X026963Y017188D01*
X026921Y017242D01*
X025024Y019139D01*
X025035Y019224D01*
X02502Y019343D01*
X024974Y019455D01*
X0249Y01955D01*
X024805Y019624D01*
X024711Y019662D01*
X024702Y019724D01*
X024711Y019786D01*
X024805Y019824D01*
X0249Y019898D01*
X024974Y019993D01*
X02502Y020105D01*
X025035Y020224D01*
X02502Y020343D01*
X024974Y020455D01*
X0249Y02055D01*
X024805Y020624D01*
X024711Y020662D01*
X024702Y020724D01*
X024711Y020786D01*
X024805Y020824D01*
X0249Y020898D01*
X024974Y020993D01*
X02502Y021105D01*
X025035Y021224D01*
X02502Y021343D01*
X024974Y021455D01*
X0249Y02155D01*
X024805Y021624D01*
X024711Y021662D01*
X024702Y021724D01*
X024711Y021786D01*
X024805Y021824D01*
X0249Y021898D01*
X024974Y021993D01*
X02502Y022105D01*
X025035Y022224D01*
X02502Y022343D01*
X024974Y022455D01*
X0249Y02255D01*
X024805Y022624D01*
X024711Y022662D01*
X024702Y022724D01*
X024711Y022786D01*
X024805Y022824D01*
X0249Y022898D01*
X024974Y022993D01*
X02502Y023105D01*
X025035Y023224D01*
X02502Y023343D01*
X024974Y023455D01*
X0249Y02355D01*
X024805Y023624D01*
X024711Y023662D01*
X024702Y023724D01*
X024711Y023786D01*
X024805Y023824D01*
X0249Y023898D01*
X024974Y023993D01*
X02502Y024105D01*
X025035Y024224D01*
X02502Y024343D01*
X024974Y024455D01*
X0249Y02455D01*
X024805Y024624D01*
X024711Y024662D01*
X024702Y024724D01*
X024711Y024786D01*
X024805Y024824D01*
X0249Y024898D01*
X024974Y024993D01*
X02502Y025105D01*
X025035Y025224D01*
X02502Y025343D01*
X024974Y025455D01*
X0249Y02555D01*
X024805Y025624D01*
X024711Y025662D01*
X024702Y025724D01*
X024711Y025786D01*
X024805Y025824D01*
X0249Y025898D01*
X024974Y025993D01*
X02502Y026105D01*
X025035Y026224D01*
X02502Y026343D01*
X024974Y026455D01*
X0249Y02655D01*
X024805Y026624D01*
X024711Y026662D01*
X024702Y026724D01*
X024711Y026786D01*
X024805Y026824D01*
X0249Y026898D01*
X024974Y026993D01*
X02502Y027105D01*
X025035Y027224D01*
X02502Y027343D01*
X024974Y027455D01*
X0249Y02755D01*
X024805Y027624D01*
X024711Y027662D01*
X024702Y027724D01*
X024711Y027786D01*
X024805Y027824D01*
X0249Y027898D01*
X024974Y027993D01*
X02502Y028105D01*
X025035Y028224D01*
X02502Y028343D01*
X024974Y028455D01*
X0249Y02855D01*
X024805Y028624D01*
X024711Y028662D01*
X024702Y028724D01*
X024711Y028786D01*
X024805Y028824D01*
X0249Y028898D01*
X024953Y028966D01*
X026847D01*
X027192Y028621D01*
Y022646D01*
X02714Y022579D01*
X027105Y022492D01*
X027093Y0224D01*
X027105Y022308D01*
X02714Y022221D01*
X027197Y022147D01*
X027271Y02209D01*
X027357Y022055D01*
X02745Y022043D01*
X027543Y022055D01*
X027629Y02209D01*
X027703Y022147D01*
X02776Y022221D01*
X027795Y022308D01*
X027807Y0224D01*
X027795Y022492D01*
X02776Y022579D01*
X027708Y022646D01*
Y028728D01*
X027699Y028795D01*
X027674Y028857D01*
X027633Y02891D01*
X027136Y029407D01*
X027083Y029448D01*
X027021Y029473D01*
X026954Y029482D01*
X024953D01*
X0249Y02955D01*
X024805Y029624D01*
X024711Y029662D01*
X024702Y029724D01*
X024711Y029786D01*
X024805Y029824D01*
X0249Y029898D01*
X024974Y029993D01*
X02502Y030105D01*
X025035Y030224D01*
X02502Y030343D01*
X024974Y030455D01*
X0249Y03055D01*
X024805Y030624D01*
X024711Y030662D01*
X024702Y030724D01*
X024711Y030786D01*
X024805Y030824D01*
X0249Y030898D01*
X024974Y030993D01*
X02502Y031105D01*
X025035Y031224D01*
X02502Y031343D01*
X024974Y031455D01*
X0249Y03155D01*
X024805Y031624D01*
X024711Y031662D01*
X024702Y031724D01*
X024711Y031786D01*
X024805Y031824D01*
X0249Y031898D01*
X024974Y031993D01*
X02502Y032105D01*
X025035Y032224D01*
X02502Y032343D01*
X024974Y032455D01*
X0249Y03255D01*
X024805Y032624D01*
X024711Y032662D01*
X024702Y032724D01*
X024711Y032786D01*
X024805Y032824D01*
X0249Y032898D01*
X024974Y032993D01*
X02502Y033105D01*
X025035Y033224D01*
X02502Y033343D01*
X024974Y033455D01*
X0249Y03355D01*
X024805Y033624D01*
X024711Y033662D01*
X024702Y033724D01*
X024711Y033786D01*
X024805Y033824D01*
X0249Y033898D01*
X024974Y033993D01*
X02502Y034105D01*
X025035Y034224D01*
X02502Y034343D01*
X024974Y034455D01*
X0249Y03455D01*
X024805Y034624D01*
X024693Y03467D01*
X024574Y034685D01*
X024455Y03467D01*
X024343Y034624D01*
X024248Y03455D01*
X024174Y034455D01*
X024128Y034343D01*
X024113Y034224D01*
X024128Y034105D01*
X024174Y033993D01*
X024248Y033898D01*
X024343Y033824D01*
X024437Y033786D01*
X024446Y033724D01*
X024437Y033662D01*
X024343Y033624D01*
X024248Y03355D01*
X024174Y033455D01*
X024128Y033343D01*
X024113Y033224D01*
X024124Y033139D01*
X022895Y03191D01*
X022815Y031915D01*
X02272Y031989D01*
X022626Y032027D01*
X022617Y032089D01*
X022626Y032151D01*
X02272Y032189D01*
X022815Y032263D01*
X022889Y032358D01*
X022935Y03247D01*
X02295Y032589D01*
X022935Y032708D01*
X022889Y03282D01*
X022815Y032915D01*
X02272Y032989D01*
X022626Y033027D01*
X022617Y033089D01*
X022626Y033151D01*
X02272Y033189D01*
X022815Y033263D01*
X022889Y033358D01*
X022935Y03347D01*
X02295Y033589D01*
X022935Y033708D01*
X022889Y03382D01*
X022815Y033915D01*
X02272Y033989D01*
X022626Y034027D01*
X022617Y034089D01*
X022626Y034151D01*
X02272Y034189D01*
X022815Y034263D01*
X022889Y034358D01*
X022935Y03447D01*
X02295Y034589D01*
X022935Y034708D01*
X022889Y03482D01*
X022815Y034915D01*
X02272Y034989D01*
X022626Y035027D01*
X022617Y035089D01*
X022626Y035151D01*
X02272Y035189D01*
X022815Y035263D01*
X022889Y035358D01*
X022935Y03547D01*
X02295Y035589D01*
X022935Y035708D01*
X022889Y03582D01*
X022815Y035915D01*
X02272Y035989D01*
X022626Y036027D01*
X022617Y036089D01*
X022626Y036151D01*
X02272Y036189D01*
X022815Y036263D01*
X022889Y036358D01*
X022935Y03647D01*
X02295Y036589D01*
X022935Y036708D01*
X022889Y03682D01*
X022815Y036915D01*
X02272Y036989D01*
X022608Y037035D01*
X022489Y03705D01*
X022189D01*
X02207Y037035D01*
X021958Y036989D01*
X021863Y036915D01*
X021789Y03682D01*
X021743Y036708D01*
X021728Y036589D01*
X021743Y03647D01*
X021789Y036358D01*
X021863Y036263D01*
X021958Y036189D01*
X022052Y036151D01*
X022061Y036089D01*
X022052Y036027D01*
X021958Y035989D01*
X021928Y035965D01*
X021327Y036566D01*
Y038659D01*
X021318Y038726D01*
X021292Y038788D01*
X021251Y038842D01*
X020729Y039364D01*
X020675Y039405D01*
X020613Y039431D01*
X020546Y03944D01*
D02*
G37*
G36*
X032389Y038447D02*
X026389D01*
X026322Y038438D01*
X02626Y038413D01*
X026206Y038371D01*
X025892Y038057D01*
X02585Y038003D01*
X025825Y037941D01*
X025816Y037874D01*
Y037388D01*
X025751Y037338D01*
X025679Y037244D01*
X025633Y037134D01*
X025617Y037015D01*
X025633Y036897D01*
X025679Y036787D01*
X025751Y036692D01*
X025846Y03662D01*
X025956Y036574D01*
X026074Y036559D01*
X026192Y036574D01*
X026302Y03662D01*
X026397Y036692D01*
X02647Y036787D01*
X026515Y036897D01*
X026633D01*
X026679Y036787D01*
X026751Y036692D01*
X026846Y03662D01*
X026956Y036574D01*
Y036456D01*
X026846Y036411D01*
X026751Y036338D01*
X026679Y036244D01*
X026633Y036134D01*
X026617Y036015D01*
X026633Y035897D01*
X026679Y035787D01*
X026751Y035692D01*
X026846Y03562D01*
X026956Y035574D01*
X027074Y035559D01*
X027192Y035574D01*
X027302Y03562D01*
X027397Y035692D01*
X027469Y035787D01*
X027515Y035897D01*
X027633D01*
X027679Y035787D01*
X027751Y035692D01*
X027846Y03562D01*
X027956Y035574D01*
X028074Y035559D01*
X028192Y035574D01*
X028302Y03562D01*
X028397Y035692D01*
X02847Y035787D01*
X028515Y035897D01*
X028633D01*
X028679Y035787D01*
X028751Y035692D01*
X028846Y03562D01*
X028956Y035574D01*
X029074Y035559D01*
X029192Y035574D01*
X029302Y03562D01*
X029397Y035692D01*
X029469Y035787D01*
X029515Y035897D01*
X029531Y036015D01*
X029515Y036134D01*
X029469Y036244D01*
X029397Y036338D01*
X029302Y036411D01*
X029192Y036456D01*
Y036574D01*
X029302Y03662D01*
X029397Y036692D01*
X029469Y036787D01*
X029515Y036897D01*
X029531Y037015D01*
X029515Y037134D01*
X029469Y037244D01*
X029397Y037338D01*
X029302Y037411D01*
X029192Y037456D01*
X029074Y037472D01*
X028956Y037456D01*
X028846Y037411D01*
X028751Y037338D01*
X028679Y037244D01*
X028633Y037134D01*
X028515D01*
X02847Y037244D01*
X028397Y037338D01*
X028302Y037411D01*
X028192Y037456D01*
X028074Y037472D01*
X027956Y037456D01*
X027846Y037411D01*
X027751Y037338D01*
X027679Y037244D01*
X027633Y037134D01*
X027515D01*
X027469Y037244D01*
X027397Y037338D01*
X027302Y037411D01*
X027192Y037456D01*
X027074Y037472D01*
X026956Y037456D01*
X026846Y037411D01*
X026751Y037338D01*
X026679Y037244D01*
X026633Y037134D01*
X026515D01*
X02647Y037244D01*
X026397Y037338D01*
X026332Y037388D01*
Y037767D01*
X026496Y037931D01*
X032282D01*
X032531Y037682D01*
Y037552D01*
X032336D01*
Y036726D01*
X033242D01*
Y037552D01*
X033047D01*
Y037789D01*
X033038Y037856D01*
X033013Y037918D01*
X032971Y037971D01*
X032571Y038371D01*
X032518Y038413D01*
X032456Y038438D01*
X032389Y038447D01*
D02*
G37*
G36*
X037547Y034376D02*
X037434Y034361D01*
X037328Y034317D01*
X037238Y034248D01*
X037169Y034157D01*
X037125Y034052D01*
X03711Y033939D01*
X037125Y033826D01*
X037169Y033721D01*
X037238Y03363D01*
X037328Y033561D01*
X037434Y033517D01*
X037547Y033502D01*
X03766Y033517D01*
X037765Y033561D01*
X037856Y03363D01*
X037925Y033721D01*
X037969Y033826D01*
X037984Y033939D01*
X037969Y034052D01*
X037925Y034157D01*
X037856Y034248D01*
X037765Y034317D01*
X03766Y034361D01*
X037547Y034376D01*
D02*
G37*
G36*
X030574Y034685D02*
X030455Y03467D01*
X030343Y034624D01*
X030248Y03455D01*
X030174Y034455D01*
X030128Y034343D01*
X030113Y034224D01*
X030128Y034105D01*
X030174Y033993D01*
X030248Y033898D01*
X030343Y033824D01*
X030437Y033786D01*
X030446Y033724D01*
X030437Y033662D01*
X030343Y033624D01*
X030248Y03355D01*
X030174Y033455D01*
X030128Y033343D01*
X030113Y033224D01*
X030128Y033105D01*
X030174Y032993D01*
X030248Y032898D01*
X030343Y032824D01*
X030437Y032786D01*
X030446Y032724D01*
X030437Y032662D01*
X030343Y032624D01*
X030248Y03255D01*
X030174Y032455D01*
X030128Y032343D01*
X030113Y032224D01*
X030128Y032105D01*
X030174Y031993D01*
X030248Y031898D01*
X030343Y031824D01*
X030437Y031786D01*
X030446Y031724D01*
X030437Y031662D01*
X030343Y031624D01*
X030248Y03155D01*
X030174Y031455D01*
X030128Y031343D01*
X030113Y031224D01*
X030128Y031105D01*
X030174Y030993D01*
X030248Y030898D01*
X030343Y030824D01*
X030437Y030786D01*
X030446Y030724D01*
X030437Y030662D01*
X030343Y030624D01*
X030248Y03055D01*
X030174Y030455D01*
X030128Y030343D01*
X030113Y030224D01*
X030128Y030105D01*
X030174Y029993D01*
X030248Y029898D01*
X030343Y029824D01*
X030437Y029786D01*
X030446Y029724D01*
X030437Y029662D01*
X030343Y029624D01*
X030248Y02955D01*
X030174Y029455D01*
X030128Y029343D01*
X030113Y029224D01*
X030128Y029105D01*
X030174Y028993D01*
X030248Y028898D01*
X030343Y028824D01*
X030437Y028786D01*
X030446Y028724D01*
X030437Y028662D01*
X030343Y028624D01*
X030248Y02855D01*
X030174Y028455D01*
X030128Y028343D01*
X030113Y028224D01*
X030128Y028105D01*
X030174Y027993D01*
X030248Y027898D01*
X030343Y027824D01*
X030437Y027786D01*
X030446Y027724D01*
X030437Y027662D01*
X030343Y027624D01*
X030248Y02755D01*
X030174Y027455D01*
X030128Y027343D01*
X030113Y027224D01*
X030128Y027105D01*
X030174Y026993D01*
X030248Y026898D01*
X030343Y026824D01*
X030437Y026786D01*
X030446Y026724D01*
X030437Y026662D01*
X030343Y026624D01*
X030248Y02655D01*
X030174Y026455D01*
X030128Y026343D01*
X030113Y026224D01*
X030128Y026105D01*
X030174Y025993D01*
X030248Y025898D01*
X030343Y025824D01*
X030437Y025786D01*
X030446Y025724D01*
X030437Y025662D01*
X030343Y025624D01*
X030248Y02555D01*
X030174Y025455D01*
X030128Y025343D01*
X030113Y025224D01*
X030128Y025105D01*
X030174Y024993D01*
X030248Y024898D01*
X030343Y024824D01*
X030437Y024786D01*
X030446Y024724D01*
X030437Y024662D01*
X030343Y024624D01*
X030248Y02455D01*
X030174Y024455D01*
X030128Y024343D01*
X030113Y024224D01*
X030128Y024105D01*
X030174Y023993D01*
X030248Y023898D01*
X030343Y023824D01*
X030437Y023786D01*
X030446Y023724D01*
X030437Y023662D01*
X030343Y023624D01*
X030248Y02355D01*
X030174Y023455D01*
X030128Y023343D01*
X030113Y023224D01*
X030128Y023105D01*
X030174Y022993D01*
X030248Y022898D01*
X030343Y022824D01*
X030437Y022786D01*
X030446Y022724D01*
X030437Y022662D01*
X030343Y022624D01*
X030248Y02255D01*
X030174Y022455D01*
X030128Y022343D01*
X030113Y022224D01*
X030128Y022105D01*
X030174Y021993D01*
X030248Y021898D01*
X030343Y021824D01*
X030437Y021786D01*
X030446Y021724D01*
X030437Y021662D01*
X030343Y021624D01*
X030248Y02155D01*
X030174Y021455D01*
X030128Y021343D01*
X030113Y021224D01*
X030128Y021105D01*
X030174Y020993D01*
X030248Y020898D01*
X030343Y020824D01*
X030437Y020786D01*
X030446Y020724D01*
X030437Y020662D01*
X030343Y020624D01*
X030248Y02055D01*
X030174Y020455D01*
X030128Y020343D01*
X030113Y020224D01*
X030128Y020105D01*
X030174Y019993D01*
X030248Y019898D01*
X030343Y019824D01*
X030437Y019786D01*
X030446Y019724D01*
X030437Y019662D01*
X030343Y019624D01*
X030248Y01955D01*
X030174Y019455D01*
X030128Y019343D01*
X030113Y019224D01*
X030128Y019105D01*
X030174Y018993D01*
X030248Y018898D01*
X030343Y018824D01*
X030437Y018786D01*
X030446Y018724D01*
X030437Y018662D01*
X030343Y018624D01*
X030248Y01855D01*
X030174Y018455D01*
X030128Y018343D01*
X030113Y018224D01*
X030128Y018105D01*
X030174Y017993D01*
X030248Y017898D01*
X030343Y017824D01*
X030437Y017786D01*
X030446Y017724D01*
X030437Y017662D01*
X030343Y017624D01*
X030248Y01755D01*
X030174Y017455D01*
X030128Y017343D01*
X030113Y017224D01*
X030128Y017105D01*
X030174Y016993D01*
X030248Y016898D01*
X030343Y016824D01*
X030437Y016786D01*
X030446Y016724D01*
X030437Y016662D01*
X030343Y016624D01*
X030248Y01655D01*
X030174Y016455D01*
X030128Y016343D01*
X030113Y016224D01*
X030128Y016105D01*
X030174Y015993D01*
X030248Y015898D01*
X030343Y015824D01*
X030403Y0158D01*
X03038Y015682D01*
X030117D01*
Y014767D01*
X031031D01*
Y015682D01*
X030768D01*
X030745Y0158D01*
X030805Y015824D01*
X0309Y015898D01*
X030974Y015993D01*
X03102Y016105D01*
X031035Y016224D01*
X03102Y016343D01*
X030974Y016455D01*
X0309Y01655D01*
X030805Y016624D01*
X030711Y016662D01*
X030702Y016724D01*
X030711Y016786D01*
X030805Y016824D01*
X0309Y016898D01*
X030974Y016993D01*
X03102Y017105D01*
X031035Y017224D01*
X03102Y017343D01*
X030974Y017455D01*
X0309Y01755D01*
X030805Y017624D01*
X030711Y017662D01*
X030702Y017724D01*
X030711Y017786D01*
X030805Y017824D01*
X0309Y017898D01*
X030974Y017993D01*
X03102Y018105D01*
X031035Y018224D01*
X03102Y018343D01*
X030974Y018455D01*
X0309Y01855D01*
X030805Y018624D01*
X030711Y018662D01*
X030702Y018724D01*
X030711Y018786D01*
X030805Y018824D01*
X0309Y018898D01*
X030974Y018993D01*
X03102Y019105D01*
X031035Y019224D01*
X03102Y019343D01*
X030974Y019455D01*
X0309Y01955D01*
X030805Y019624D01*
X030711Y019662D01*
X030702Y019724D01*
X030711Y019786D01*
X030805Y019824D01*
X0309Y019898D01*
X030953Y019966D01*
X033508D01*
X034304Y01917D01*
X034265Y019046D01*
X034188Y019014D01*
X034122Y018964D01*
X034072Y018898D01*
X03404Y018821D01*
X034029Y018739D01*
X03404Y018657D01*
X034072Y01858D01*
X034122Y018514D01*
X034188Y018464D01*
X034265Y018432D01*
X034347Y018421D01*
X034429Y018432D01*
X034506Y018464D01*
X034571Y018514D01*
X034614D01*
X03468Y018464D01*
X034757Y018432D01*
X034839Y018421D01*
X034921Y018432D01*
X034998Y018464D01*
X035064Y018514D01*
X035114Y01858D01*
X035146Y018657D01*
X035157Y018739D01*
X035146Y018821D01*
X035114Y018898D01*
X035097Y01892D01*
Y019D01*
X035088Y019067D01*
X035063Y019129D01*
X035021Y019183D01*
X033797Y020407D01*
X033744Y020448D01*
X033682Y020473D01*
X033615Y020482D01*
X030953D01*
X0309Y02055D01*
X030805Y020624D01*
X030711Y020662D01*
X030702Y020724D01*
X030711Y020786D01*
X030805Y020824D01*
X0309Y020898D01*
X030953Y020966D01*
X034272D01*
X03428Y020848D01*
X034265Y020846D01*
X034188Y020814D01*
X034122Y020764D01*
X034072Y020698D01*
X03404Y020621D01*
X034029Y020539D01*
X03404Y020457D01*
X034072Y02038D01*
X034122Y020314D01*
X034188Y020264D01*
X034265Y020232D01*
X034347Y020221D01*
X034429Y020232D01*
X034506Y020264D01*
X034571Y020314D01*
X034614D01*
X03468Y020264D01*
X034757Y020232D01*
X034839Y020221D01*
X034921Y020232D01*
X034998Y020264D01*
X035064Y020314D01*
X035114Y02038D01*
X035146Y020457D01*
X035157Y020539D01*
X035146Y020621D01*
X035114Y020698D01*
X035097Y02072D01*
Y020889D01*
X035088Y020956D01*
X035063Y021018D01*
X035021Y021071D01*
X034686Y021407D01*
X034666Y021422D01*
X034662Y021468D01*
X034674Y021532D01*
X034684Y021551D01*
X034718Y021565D01*
X034771Y021606D01*
X035021Y021856D01*
X035063Y02191D01*
X035088Y021972D01*
X035097Y022039D01*
Y022208D01*
X035114Y02223D01*
X035146Y022307D01*
X035157Y022389D01*
X035146Y022471D01*
X035114Y022548D01*
X035064Y022614D01*
X034998Y022664D01*
X034921Y022696D01*
X034839Y022707D01*
X034757Y022696D01*
X03468Y022664D01*
X034614Y022614D01*
X034571D01*
X034506Y022664D01*
X034429Y022696D01*
X034347Y022707D01*
X034265Y022696D01*
X034188Y022664D01*
X034122Y022614D01*
X034072Y022548D01*
X03404Y022471D01*
X034029Y022389D01*
X03404Y022307D01*
X034072Y02223D01*
X034122Y022164D01*
X034081Y022047D01*
X031184D01*
X031032Y022199D01*
X031035Y022224D01*
X03102Y022343D01*
X030974Y022455D01*
X0309Y02255D01*
X030805Y022624D01*
X030711Y022662D01*
X030702Y022724D01*
X030711Y022786D01*
X030805Y022824D01*
X0309Y022898D01*
X030953Y022966D01*
X034424D01*
X034491Y022975D01*
X034553Y023D01*
X034607Y023042D01*
X035021Y023456D01*
X035063Y02351D01*
X035088Y023572D01*
X035097Y023639D01*
Y024008D01*
X035114Y02403D01*
X035146Y024107D01*
X035157Y024189D01*
X035146Y024271D01*
X035114Y024348D01*
X035064Y024414D01*
X034998Y024464D01*
X034921Y024496D01*
X034839Y024507D01*
X034757Y024496D01*
X03468Y024464D01*
X034614Y024414D01*
X034571D01*
X034506Y024464D01*
X034464Y024482D01*
X03443Y024578D01*
X03443Y024615D01*
X035021Y025206D01*
X035063Y02526D01*
X035088Y025322D01*
X035097Y025389D01*
Y025808D01*
X035114Y02583D01*
X035146Y025907D01*
X035157Y025989D01*
X035146Y026071D01*
X035114Y026148D01*
X035064Y026214D01*
X034998Y026264D01*
X034921Y026296D01*
X034839Y026307D01*
X034757Y026296D01*
X03468Y026264D01*
X034593Y026224D01*
X034506Y026264D01*
X034429Y026296D01*
X034347Y026307D01*
X03428Y026298D01*
X034251Y026328D01*
X03422Y026405D01*
X035021Y027206D01*
X035063Y02726D01*
X035088Y027322D01*
X035097Y027389D01*
Y027608D01*
X035114Y02763D01*
X035146Y027707D01*
X035157Y027789D01*
X035146Y027871D01*
X035114Y027948D01*
X035064Y028014D01*
X034998Y028064D01*
X034921Y028096D01*
X034839Y028107D01*
X034757Y028096D01*
X03468Y028064D01*
X034614Y028014D01*
X034571D01*
X034506Y028064D01*
X034429Y028096D01*
X034347Y028107D01*
X034265Y028096D01*
X034188Y028064D01*
X034122Y028014D01*
X034072Y027948D01*
X03404Y027871D01*
X034029Y027789D01*
X03404Y027707D01*
X034072Y02763D01*
X034122Y027564D01*
X034188Y027514D01*
X034265Y027482D01*
X034347Y027471D01*
X034396Y027478D01*
X034458Y027373D01*
X032567Y025482D01*
X030953D01*
X0309Y02555D01*
X030805Y025624D01*
X030711Y025662D01*
X030702Y025724D01*
X030711Y025786D01*
X030805Y025824D01*
X0309Y025898D01*
X030974Y025993D01*
X03102Y026105D01*
X031035Y026224D01*
X031024Y026309D01*
X032996Y028281D01*
X034378D01*
X034445Y02829D01*
X034507Y028315D01*
X03456Y028356D01*
X035021Y028817D01*
X035063Y028871D01*
X035088Y028933D01*
X035097Y029D01*
Y029408D01*
X035114Y02943D01*
X035146Y029507D01*
X035157Y029589D01*
X035146Y029671D01*
X035114Y029748D01*
X035064Y029814D01*
X034998Y029864D01*
X034921Y029896D01*
X034839Y029907D01*
X034757Y029896D01*
X03468Y029864D01*
X034614Y029814D01*
X034571D01*
X034506Y029864D01*
X034429Y029896D01*
X034347Y029907D01*
X034265Y029896D01*
X034188Y029864D01*
X034122Y029814D01*
X034072Y029748D01*
X03404Y029671D01*
X034029Y029589D01*
X03404Y029507D01*
X034072Y02943D01*
X034122Y029364D01*
X034188Y029314D01*
X034265Y029282D01*
X034347Y029271D01*
X034429Y029282D01*
X034463Y029296D01*
X034564Y029244D01*
X034581Y029223D01*
Y029107D01*
X034271Y028797D01*
X032889D01*
X032822Y028788D01*
X032786Y028773D01*
X03276Y028763D01*
X032706Y028721D01*
X031146Y027161D01*
X031034Y027217D01*
X031035Y027224D01*
X03102Y027343D01*
X030974Y027455D01*
X0309Y02755D01*
X030805Y027624D01*
X030711Y027662D01*
X030702Y027724D01*
X030711Y027786D01*
X030805Y027824D01*
X0309Y027898D01*
X030974Y027993D01*
X03102Y028105D01*
X031035Y028224D01*
X03102Y028343D01*
X030974Y028455D01*
X0309Y02855D01*
X030805Y028624D01*
X030711Y028662D01*
X030702Y028724D01*
X030711Y028786D01*
X030805Y028824D01*
X0309Y028898D01*
X030974Y028993D01*
X03102Y029105D01*
X031035Y029224D01*
X03102Y029343D01*
X030974Y029455D01*
X0309Y02955D01*
X030805Y029624D01*
X030711Y029662D01*
X030702Y029724D01*
X030711Y029786D01*
X030805Y029824D01*
X0309Y029898D01*
X030974Y029993D01*
X03102Y030105D01*
X031035Y030224D01*
X03102Y030343D01*
X030974Y030455D01*
X0309Y03055D01*
X030805Y030624D01*
X030711Y030662D01*
X030702Y030724D01*
X030711Y030786D01*
X030805Y030824D01*
X0309Y030898D01*
X030974Y030993D01*
X03102Y031105D01*
X03102Y031108D01*
X031034Y031119D01*
X03343Y033515D01*
X033531Y033502D01*
X033644Y033517D01*
X033749Y033561D01*
X03384Y03363D01*
X033909Y033721D01*
X033953Y033826D01*
X033968Y033939D01*
X033953Y034052D01*
X033909Y034157D01*
X03384Y034248D01*
X033749Y034317D01*
X033644Y034361D01*
X033531Y034376D01*
X033418Y034361D01*
X033313Y034317D01*
X033222Y034248D01*
X033153Y034157D01*
X033109Y034052D01*
X033094Y033939D01*
X033098Y033913D01*
X030816Y031631D01*
X03071Y031672D01*
X030702Y031724D01*
X030711Y031786D01*
X030805Y031824D01*
X0309Y031898D01*
X030974Y031993D01*
X03102Y032105D01*
X031035Y032224D01*
X03102Y032343D01*
X030974Y032455D01*
X0309Y03255D01*
X030805Y032624D01*
X030711Y032662D01*
X030702Y032724D01*
X030711Y032786D01*
X030805Y032824D01*
X0309Y032898D01*
X030974Y032993D01*
X03102Y033105D01*
X031035Y033224D01*
X03102Y033343D01*
X030974Y033455D01*
X0309Y03355D01*
X030805Y033624D01*
X030711Y033662D01*
X030702Y033724D01*
X030711Y033786D01*
X030805Y033824D01*
X0309Y033898D01*
X030974Y033993D01*
X03102Y034105D01*
X031035Y034224D01*
X03102Y034343D01*
X030974Y034455D01*
X0309Y03455D01*
X030805Y034624D01*
X030693Y03467D01*
X030574Y034685D01*
D02*
G37*
G36*
X033381Y033026D02*
X033268Y033011D01*
X033163Y032967D01*
X033072Y032898D01*
X033003Y032807D01*
X032959Y032702D01*
X032944Y032589D01*
X032959Y032476D01*
X033003Y032371D01*
X033072Y03228D01*
X033163Y032211D01*
X033268Y032167D01*
X033381Y032152D01*
X033494Y032167D01*
X0336Y032211D01*
X03369Y03228D01*
X033759Y032371D01*
X033803Y032476D01*
X033818Y032589D01*
X033803Y032702D01*
X033759Y032807D01*
X03369Y032898D01*
X0336Y032967D01*
X033494Y033011D01*
X033381Y033026D01*
D02*
G37*
G36*
X012939Y031734D02*
X012826Y031719D01*
X012721Y031675D01*
X01263Y031606D01*
X012561Y031515D01*
X012517Y03141D01*
X012502Y031297D01*
X012517Y031184D01*
X012561Y031078D01*
X01263Y030988D01*
X012721Y030919D01*
X012826Y030875D01*
X012939Y03086D01*
X013052Y030875D01*
X013157Y030919D01*
X013248Y030988D01*
X013317Y031078D01*
X013361Y031184D01*
X013376Y031297D01*
X013361Y03141D01*
X013317Y031515D01*
X013248Y031606D01*
X013157Y031675D01*
X013052Y031719D01*
X012939Y031734D01*
D02*
G37*
G36*
X011739D02*
X011626Y031719D01*
X011521Y031675D01*
X01143Y031606D01*
X011361Y031515D01*
X011317Y03141D01*
X011302Y031297D01*
X011317Y031184D01*
X011361Y031078D01*
X01143Y030988D01*
X011521Y030919D01*
X011626Y030875D01*
X011739Y03086D01*
X011852Y030875D01*
X011957Y030919D01*
X012048Y030988D01*
X012117Y031078D01*
X012161Y031184D01*
X012176Y031297D01*
X012161Y03141D01*
X012117Y031515D01*
X012048Y031606D01*
X011957Y031675D01*
X011852Y031719D01*
X011739Y031734D01*
D02*
G37*
G36*
X010489D02*
X010376Y031719D01*
X010271Y031675D01*
X01018Y031606D01*
X010111Y031515D01*
X010067Y03141D01*
X010052Y031297D01*
X010067Y031184D01*
X010111Y031078D01*
X01018Y030988D01*
X010271Y030919D01*
X010376Y030875D01*
X010489Y03086D01*
X010602Y030875D01*
X010707Y030919D01*
X010798Y030988D01*
X010867Y031078D01*
X010911Y031184D01*
X010926Y031297D01*
X010911Y03141D01*
X010867Y031515D01*
X010798Y031606D01*
X010707Y031675D01*
X010602Y031719D01*
X010489Y031734D01*
D02*
G37*
G36*
X009289D02*
X009176Y031719D01*
X009071Y031675D01*
X00898Y031606D01*
X008911Y031515D01*
X008867Y03141D01*
X008852Y031297D01*
X008867Y031184D01*
X008911Y031078D01*
X00898Y030988D01*
X009071Y030919D01*
X009176Y030875D01*
X009289Y03086D01*
X009402Y030875D01*
X009507Y030919D01*
X009598Y030988D01*
X009667Y031078D01*
X009711Y031184D01*
X009726Y031297D01*
X009711Y03141D01*
X009667Y031515D01*
X009598Y031606D01*
X009507Y031675D01*
X009402Y031719D01*
X009289Y031734D01*
D02*
G37*
G36*
X037397Y031626D02*
X037284Y031611D01*
X037178Y031567D01*
X037088Y031498D01*
X037019Y031407D01*
X036975Y031302D01*
X03696Y031189D01*
X036975Y031076D01*
X037019Y030971D01*
X037088Y03088D01*
X037178Y030811D01*
X037284Y030767D01*
X037397Y030752D01*
X03751Y030767D01*
X037615Y030811D01*
X037706Y03088D01*
X037775Y030971D01*
X037819Y031076D01*
X037834Y031189D01*
X037819Y031302D01*
X037775Y031407D01*
X037706Y031498D01*
X037615Y031567D01*
X03751Y031611D01*
X037397Y031626D01*
D02*
G37*
G36*
X033381D02*
X033268Y031611D01*
X033163Y031567D01*
X033072Y031498D01*
X033003Y031407D01*
X032959Y031302D01*
X032944Y031189D01*
X032959Y031076D01*
X033003Y030971D01*
X033072Y03088D01*
X033163Y030811D01*
X033268Y030767D01*
X033381Y030752D01*
X033494Y030767D01*
X0336Y030811D01*
X03369Y03088D01*
X033759Y030971D01*
X033803Y031076D01*
X033818Y031189D01*
X033803Y031302D01*
X033759Y031407D01*
X03369Y031498D01*
X0336Y031567D01*
X033494Y031611D01*
X033381Y031626D01*
D02*
G37*
G36*
X042481Y026776D02*
X042368Y026761D01*
X042263Y026717D01*
X042172Y026648D01*
X042103Y026557D01*
X042078Y026497D01*
X041618D01*
X041565Y026565D01*
X04147Y026639D01*
X041358Y026685D01*
X041239Y0267D01*
X041139D01*
X04102Y026685D01*
X040908Y026639D01*
X040813Y026565D01*
X040739Y02647D01*
X040693Y026358D01*
X040678Y026239D01*
X040693Y02612D01*
X040739Y026008D01*
X040813Y025913D01*
X040908Y025839D01*
X040968Y025815D01*
X040945Y025696D01*
X040682D01*
Y024781D01*
X041696D01*
Y025696D01*
X041433D01*
X04141Y025815D01*
X04147Y025839D01*
X041565Y025913D01*
X041618Y025981D01*
X042236D01*
X042263Y025961D01*
X042368Y025917D01*
X042481Y025902D01*
X042594Y025917D01*
X042699Y025961D01*
X04279Y02603D01*
X042859Y026121D01*
X042903Y026226D01*
X042918Y026339D01*
X042903Y026452D01*
X042859Y026557D01*
X04279Y026648D01*
X042699Y026717D01*
X042594Y026761D01*
X042481Y026776D01*
D02*
G37*
G36*
X038696Y023796D02*
X037782D01*
Y022582D01*
X038696D01*
Y023796D01*
D02*
G37*
G36*
X041932Y02311D02*
X04079D01*
Y021968D01*
X041932D01*
Y02311D01*
D02*
G37*
G36*
X046346Y019746D02*
X044531D01*
Y018437D01*
X044291Y018196D01*
X043205D01*
X043188Y018314D01*
X043223Y018325D01*
X043328Y018381D01*
X043421Y018457D01*
X043497Y01855D01*
X043553Y018655D01*
X043588Y01877D01*
X043599Y018889D01*
X043588Y019008D01*
X043553Y019123D01*
X043497Y019228D01*
X043421Y019321D01*
X043328Y019397D01*
X043223Y019453D01*
X043108Y019488D01*
X042989Y019499D01*
X04287Y019488D01*
X042755Y019453D01*
X04265Y019397D01*
X042557Y019321D01*
X042481Y019228D01*
X042425Y019123D01*
X04239Y019008D01*
X042379Y018889D01*
X04239Y01877D01*
X042425Y018655D01*
X042481Y01855D01*
X042557Y018457D01*
X04265Y018381D01*
X042755Y018325D01*
X04279Y018314D01*
X042773Y018196D01*
X042187D01*
X04159Y018793D01*
X041599Y018889D01*
X041588Y019008D01*
X041553Y019123D01*
X041497Y019228D01*
X041421Y019321D01*
X041328Y019397D01*
X041223Y019453D01*
X041108Y019488D01*
X040989Y019499D01*
X04087Y019488D01*
X040755Y019453D01*
X04065Y019397D01*
X040557Y019321D01*
X040481Y019228D01*
X040425Y019123D01*
X04039Y019008D01*
X040379Y018889D01*
X04039Y01877D01*
X040425Y018655D01*
X040481Y01855D01*
X040557Y018457D01*
X04065Y018381D01*
X040755Y018325D01*
X04087Y01829D01*
X040989Y018279D01*
X041085Y018288D01*
X041786Y017586D01*
X04186Y017529D01*
X041946Y017494D01*
X042039Y017482D01*
X044439D01*
X044531Y017494D01*
X044563Y017507D01*
X044624Y017483D01*
X044682Y017439D01*
Y017296D01*
X041D01*
X040908Y017284D01*
X040821Y017248D01*
X040747Y017192D01*
X040126Y01657D01*
X040069Y016496D01*
X040034Y01641D01*
X040021Y016318D01*
Y016072D01*
X039946D01*
Y015206D01*
X040812D01*
Y015206D01*
X04093Y015219D01*
X040936Y015217D01*
X041049Y015202D01*
X041162Y015217D01*
X041267Y015261D01*
X041358Y01533D01*
X041427Y015421D01*
X041471Y015526D01*
X041486Y015639D01*
X041471Y015752D01*
X041427Y015857D01*
X041358Y015948D01*
X041267Y016017D01*
X041162Y016061D01*
X041049Y016076D01*
X040936Y016061D01*
X04093Y016058D01*
X040812Y016072D01*
X040762Y016169D01*
X040757Y01619D01*
X041148Y016582D01*
X044682D01*
Y016032D01*
X046496D01*
Y017846D01*
X046426D01*
X046346Y017931D01*
Y019746D01*
D02*
G37*
G36*
X038589Y018084D02*
X038476Y018069D01*
X038371Y018025D01*
X03828Y017956D01*
X038211Y017865D01*
X038167Y01776D01*
X038152Y017647D01*
X038167Y017534D01*
X038211Y017428D01*
X03828Y017338D01*
X038371Y017269D01*
X038476Y017225D01*
X038589Y01721D01*
X038702Y017225D01*
X038807Y017269D01*
X038898Y017338D01*
X038967Y017428D01*
X039011Y017534D01*
X039026Y017647D01*
X039011Y01776D01*
X038967Y017865D01*
X038898Y017956D01*
X038807Y018025D01*
X038702Y018069D01*
X038589Y018084D01*
D02*
G37*
G36*
X035389Y017146D02*
X035271Y01713D01*
X035161Y017084D01*
X035066Y017012D01*
X034994Y016917D01*
X034948Y016807D01*
X034932Y016689D01*
X034948Y016571D01*
X034994Y016461D01*
X035066Y016366D01*
X035161Y016293D01*
X035271Y016248D01*
X035389Y016232D01*
X035507Y016248D01*
X035617Y016293D01*
X035712Y016366D01*
X035784Y016461D01*
X03583Y016571D01*
X035846Y016689D01*
X03583Y016807D01*
X035784Y016917D01*
X035712Y017012D01*
X035617Y017084D01*
X035507Y01713D01*
X035389Y017146D01*
D02*
G37*
G36*
X017089Y015768D02*
X016976Y015753D01*
X016871Y015709D01*
X01678Y01564D01*
X016741Y015589D01*
X016087D01*
X016048Y01564D01*
X015957Y015709D01*
X015852Y015753D01*
X015739Y015768D01*
X015626Y015753D01*
X015521Y015709D01*
X01543Y01564D01*
X015391Y015589D01*
X014787D01*
X014748Y01564D01*
X014657Y015709D01*
X014552Y015753D01*
X014439Y015768D01*
X014326Y015753D01*
X014221Y015709D01*
X01413Y01564D01*
X014091Y015589D01*
X013537D01*
X013498Y01564D01*
X013407Y015709D01*
X013302Y015753D01*
X013189Y015768D01*
X013076Y015753D01*
X012971Y015709D01*
X01288Y01564D01*
X012841Y015589D01*
X012287D01*
X012248Y01564D01*
X012157Y015709D01*
X012052Y015753D01*
X011939Y015768D01*
X011826Y015753D01*
X011721Y015709D01*
X01163Y01564D01*
X011591Y015589D01*
X011037D01*
X010998Y01564D01*
X010907Y015709D01*
X010802Y015753D01*
X010689Y015768D01*
X010576Y015753D01*
X010471Y015709D01*
X01038Y01564D01*
X010341Y015589D01*
X009737D01*
X009698Y01564D01*
X009607Y015709D01*
X009502Y015753D01*
X009389Y015768D01*
X009276Y015753D01*
X009171Y015709D01*
X00908Y01564D01*
X009011Y015549D01*
X008967Y015444D01*
X008952Y015331D01*
X008967Y015218D01*
X009011Y015113D01*
X00908Y015022D01*
X009171Y014953D01*
X009276Y014909D01*
X009389Y014894D01*
X009502Y014909D01*
X009607Y014953D01*
X009698Y015022D01*
X009737Y015073D01*
X010341D01*
X01038Y015022D01*
X010471Y014953D01*
X010576Y014909D01*
X010689Y014894D01*
X010802Y014909D01*
X010907Y014953D01*
X010998Y015022D01*
X011037Y015073D01*
X011591D01*
X01163Y015022D01*
X011721Y014953D01*
X011826Y014909D01*
X011939Y014894D01*
X012052Y014909D01*
X012157Y014953D01*
X012248Y015022D01*
X012287Y015073D01*
X012841D01*
X01288Y015022D01*
X012971Y014953D01*
X013076Y014909D01*
X013189Y014894D01*
X013302Y014909D01*
X013407Y014953D01*
X013498Y015022D01*
X013537Y015073D01*
X014091D01*
X01413Y015022D01*
X014221Y014953D01*
X014326Y014909D01*
X014439Y014894D01*
X014552Y014909D01*
X014657Y014953D01*
X014748Y015022D01*
X014787Y015073D01*
X015391D01*
X01543Y015022D01*
X015521Y014953D01*
X015626Y014909D01*
X015739Y014894D01*
X015852Y014909D01*
X015957Y014953D01*
X016048Y015022D01*
X016087Y015073D01*
X016741D01*
X01678Y015022D01*
X016871Y014953D01*
X016976Y014909D01*
X017089Y014894D01*
X017202Y014909D01*
X017307Y014953D01*
X017398Y015022D01*
X017467Y015113D01*
X017511Y015218D01*
X017526Y015331D01*
X017511Y015444D01*
X017467Y015549D01*
X017398Y01564D01*
X017307Y015709D01*
X017202Y015753D01*
X017089Y015768D01*
D02*
G37*
G36*
X025031Y015682D02*
X024117D01*
Y014767D01*
X025031D01*
Y015682D01*
D02*
G37*
G36*
X042389Y016076D02*
X042276Y016061D01*
X042171Y016017D01*
X04208Y015948D01*
X042011Y015857D01*
X041967Y015752D01*
X041952Y015639D01*
X041967Y015526D01*
X042011Y015421D01*
X042032Y015393D01*
Y014046D01*
X038718D01*
X038702Y014053D01*
X038589Y014068D01*
X038476Y014053D01*
X03846Y014046D01*
X035847D01*
Y014142D01*
X034941D01*
Y013236D01*
X035847D01*
Y013332D01*
X038273D01*
X03828Y013322D01*
X038371Y013253D01*
X038476Y013209D01*
X038589Y013194D01*
X038702Y013209D01*
X038807Y013253D01*
X038898Y013322D01*
X038905Y013332D01*
X040991D01*
X041079Y01326D01*
X041079Y013213D01*
Y012624D01*
X039862Y011407D01*
X039672D01*
Y011482D01*
X038806D01*
Y010737D01*
X036199D01*
X036171Y010771D01*
X036078Y010847D01*
X035973Y010903D01*
X035858Y010938D01*
X035739Y010949D01*
X03562Y010938D01*
X035505Y010903D01*
X0354Y010847D01*
X035307Y010771D01*
X035231Y010678D01*
X035175Y010573D01*
X03514Y010458D01*
X035129Y010339D01*
X03514Y01022D01*
X035175Y010105D01*
X035231Y01D01*
X035307Y009907D01*
X0354Y009831D01*
X035505Y009775D01*
X03562Y00974D01*
X035739Y009729D01*
X035858Y00974D01*
X035973Y009775D01*
X036078Y009831D01*
X036171Y009907D01*
X036247Y01D01*
X036258Y010022D01*
X038993D01*
X039021Y010001D01*
X039126Y009957D01*
X039239Y009942D01*
X039352Y009957D01*
X039457Y010001D01*
X039548Y01007D01*
X039617Y010161D01*
X039661Y010266D01*
X039676Y010379D01*
X039661Y010492D01*
X039658Y010498D01*
X039672Y010616D01*
X039759Y010692D01*
X04001D01*
X040103Y010704D01*
X040189Y01074D01*
X040263Y010797D01*
X041585Y012118D01*
X042221D01*
Y013213D01*
X042221Y01326D01*
X042309Y013332D01*
X043391D01*
X043832Y012891D01*
Y008087D01*
X040491Y004746D01*
X028137D01*
X027596Y005287D01*
Y008259D01*
X027643Y008295D01*
X02772Y008396D01*
X027769Y008513D01*
X027786Y008639D01*
Y008739D01*
X027769Y008865D01*
X02772Y008982D01*
X027656Y009066D01*
Y009379D01*
X027644Y009471D01*
X027608Y009558D01*
X027552Y009632D01*
X027242Y009942D01*
X027168Y009998D01*
X027081Y010034D01*
X026989Y010046D01*
X025687D01*
X025118Y010615D01*
Y010627D01*
X02517Y010696D01*
X025219Y010813D01*
X025236Y010939D01*
Y011039D01*
X025219Y011165D01*
X02517Y011282D01*
X025093Y011383D01*
X024992Y01146D01*
X024875Y011509D01*
X024749Y011526D01*
X024623Y011509D01*
X024506Y01146D01*
X024405Y011383D01*
X024328Y011282D01*
X024279Y011165D01*
X024262Y011039D01*
Y010939D01*
X024279Y010813D01*
X024328Y010696D01*
X024403Y010597D01*
Y010467D01*
X024416Y010375D01*
X024451Y010289D01*
X024508Y010215D01*
X025286Y009436D01*
X02536Y009379D01*
X025446Y009344D01*
X025539Y009332D01*
X026189D01*
X026197Y009213D01*
X026163Y009209D01*
X026046Y00916D01*
X025945Y009083D01*
X025868Y008982D01*
X025863Y008971D01*
X025735D01*
X02573Y008982D01*
X025653Y009083D01*
X025552Y00916D01*
X025435Y009209D01*
X025309Y009226D01*
X025183Y009209D01*
X025066Y00916D01*
X024965Y009083D01*
X024888Y008982D01*
X024839Y008865D01*
X024822Y008739D01*
Y008639D01*
X024839Y008513D01*
X024888Y008396D01*
X024965Y008295D01*
X025066Y008218D01*
X025183Y008169D01*
X025309Y008152D01*
X025435Y008169D01*
X025552Y008218D01*
X025653Y008295D01*
X02573Y008396D01*
X025735Y008407D01*
X025863D01*
X025868Y008396D01*
X025945Y008295D01*
X026046Y008218D01*
X026163Y008169D01*
X026289Y008152D01*
X026415Y008169D01*
X026532Y008218D01*
X026633Y008295D01*
X026694Y008374D01*
X026782Y008391D01*
X026835Y008387D01*
X026882Y008335D01*
Y005139D01*
X026894Y005046D01*
X026929Y00496D01*
X026986Y004886D01*
X027736Y004136D01*
X027736Y004136D01*
X02781Y004079D01*
X027896Y004044D01*
X027989Y004032D01*
X027989Y004032D01*
X040639D01*
X040731Y004044D01*
X040818Y004079D01*
X040892Y004136D01*
X044442Y007686D01*
X044498Y00776D01*
X044534Y007846D01*
X044546Y007939D01*
Y013039D01*
X044534Y013131D01*
X044498Y013218D01*
X044442Y013292D01*
X043792Y013942D01*
X043718Y013998D01*
X043631Y014034D01*
X043539Y014046D01*
X042746D01*
Y015393D01*
X042767Y015421D01*
X042811Y015526D01*
X042826Y015639D01*
X042811Y015752D01*
X042767Y015857D01*
X042698Y015948D01*
X042607Y016017D01*
X042502Y016061D01*
X042389Y016076D01*
D02*
G37*
G36*
X020947Y017047D02*
X018639D01*
X018572Y017038D01*
X01851Y017013D01*
X018456Y016971D01*
X017956Y016471D01*
X017915Y016418D01*
X01789Y016356D01*
X017881Y016289D01*
Y014746D01*
X017682Y014547D01*
X015989D01*
X015922Y014538D01*
X01586Y014513D01*
X015806Y014471D01*
X015556Y014221D01*
X015515Y014168D01*
X01549Y014106D01*
X015481Y014039D01*
Y013774D01*
X015395Y013708D01*
X015318Y013607D01*
X015303Y013572D01*
X015175D01*
X01516Y013607D01*
X015083Y013708D01*
X014982Y013785D01*
X014865Y013834D01*
X014739Y013851D01*
X014613Y013834D01*
X014496Y013785D01*
X014395Y013708D01*
X014318Y013607D01*
X014303Y013572D01*
X014175D01*
X01416Y013607D01*
X014083Y013708D01*
X013982Y013785D01*
X013865Y013834D01*
X013739Y013851D01*
X013613Y013834D01*
X013496Y013785D01*
X013395Y013708D01*
X013318Y013607D01*
X013303Y013572D01*
X013175D01*
X01316Y013607D01*
X013083Y013708D01*
X012982Y013785D01*
X012865Y013834D01*
X012739Y013851D01*
X012613Y013834D01*
X012496Y013785D01*
X012395Y013708D01*
X012318Y013607D01*
X012303Y013572D01*
X012175D01*
X01216Y013607D01*
X012083Y013708D01*
X011982Y013785D01*
X011865Y013834D01*
X011739Y013851D01*
X011613Y013834D01*
X011496Y013785D01*
X011395Y013708D01*
X011318Y013607D01*
X011303Y013572D01*
X011175D01*
X01116Y013607D01*
X011083Y013708D01*
X010982Y013785D01*
X010865Y013834D01*
X010739Y013851D01*
X010613Y013834D01*
X010496Y013785D01*
X010395Y013708D01*
X01034Y013636D01*
X010221Y01367D01*
Y013846D01*
X009257D01*
Y012631D01*
X009481D01*
Y0125D01*
X00949Y012433D01*
X009515Y012371D01*
X009556Y012317D01*
X009867Y012006D01*
X009921Y011965D01*
X009983Y01194D01*
X01005Y011931D01*
X017189D01*
X017256Y01194D01*
X017318Y011965D01*
X017371Y012006D01*
X018746Y013381D01*
X01886D01*
X018913Y013313D01*
X019008Y013239D01*
X019102Y013201D01*
X019111Y013139D01*
X019102Y013077D01*
X019008Y013039D01*
X018913Y012965D01*
X018839Y01287D01*
X018793Y012758D01*
X018778Y012639D01*
X018793Y01252D01*
X018839Y012408D01*
X018913Y012313D01*
X019008Y012239D01*
X019102Y012201D01*
X019111Y012139D01*
X019102Y012077D01*
X019008Y012039D01*
X018913Y011965D01*
X018839Y01187D01*
X018809Y011797D01*
X013431D01*
X013364Y011788D01*
X013302Y011763D01*
X013249Y011721D01*
X012052Y010525D01*
X011989Y010534D01*
X011876Y010519D01*
X011771Y010475D01*
X01168Y010406D01*
X011611Y010315D01*
X011567Y01021D01*
X011552Y010097D01*
X011567Y009984D01*
X011611Y009878D01*
X01168Y009788D01*
X011771Y009719D01*
X011876Y009675D01*
X011989Y00966D01*
X012102Y009675D01*
X012207Y009719D01*
X012298Y009788D01*
X012367Y009878D01*
X012411Y009984D01*
X012426Y010097D01*
X012417Y01016D01*
X013538Y011281D01*
X018854D01*
X018865Y011266D01*
X018808Y011148D01*
X014132D01*
X014065Y011139D01*
X014003Y011114D01*
X01395Y011073D01*
X013402Y010525D01*
X013339Y010534D01*
X013226Y010519D01*
X013121Y010475D01*
X01303Y010406D01*
X012961Y010315D01*
X012917Y01021D01*
X012902Y010097D01*
X012917Y009984D01*
X012961Y009878D01*
X01303Y009788D01*
X013121Y009719D01*
X013226Y009675D01*
X013339Y00966D01*
X013452Y009675D01*
X013557Y009719D01*
X013648Y009788D01*
X013717Y009878D01*
X013761Y009984D01*
X013776Y010097D01*
X013767Y01016D01*
X014239Y010632D01*
X014554D01*
X014576Y010519D01*
X014471Y010475D01*
X01438Y010406D01*
X014311Y010315D01*
X014267Y01021D01*
X014252Y010097D01*
X014267Y009984D01*
X014311Y009878D01*
X01438Y009788D01*
X014431Y009749D01*
Y008039D01*
X01444Y007972D01*
X014465Y00791D01*
X014506Y007856D01*
X015306Y007056D01*
X01536Y007015D01*
X015422Y00699D01*
X015489Y006981D01*
X020489D01*
X020556Y00699D01*
X020618Y007015D01*
X020671Y007056D01*
X021746Y008131D01*
X021785Y008181D01*
X022996D01*
Y009096D01*
X022733D01*
X02271Y009215D01*
X02277Y009239D01*
X022865Y009313D01*
X022939Y009408D01*
X022985Y00952D01*
X023Y009639D01*
X022985Y009758D01*
X022939Y00987D01*
X022865Y009965D01*
X02277Y010039D01*
X022676Y010077D01*
X022667Y010139D01*
X022676Y010201D01*
X02277Y010239D01*
X022865Y010313D01*
X022939Y010408D01*
X022985Y01052D01*
X023Y010639D01*
X022985Y010758D01*
X022939Y01087D01*
X022865Y010965D01*
X02277Y011039D01*
X022676Y011077D01*
X022667Y011139D01*
X022676Y011201D01*
X02277Y011239D01*
X022865Y011313D01*
X022939Y011408D01*
X022985Y01152D01*
X023Y011639D01*
X022985Y011758D01*
X022939Y01187D01*
X022865Y011965D01*
X02277Y012039D01*
X022676Y012077D01*
X022667Y012139D01*
X022676Y012201D01*
X02277Y012239D01*
X022865Y012313D01*
X022939Y012408D01*
X022985Y01252D01*
X023Y012639D01*
X022985Y012758D01*
X022939Y01287D01*
X022865Y012965D01*
X02277Y013039D01*
X022676Y013077D01*
X022667Y013139D01*
X022676Y013201D01*
X02277Y013239D01*
X022865Y013313D01*
X022939Y013408D01*
X022985Y01352D01*
X023Y013639D01*
X022985Y013758D01*
X022939Y01387D01*
X022865Y013965D01*
X02277Y014039D01*
X022676Y014077D01*
X022667Y014139D01*
X022676Y014201D01*
X02277Y014239D01*
X022865Y014313D01*
X022939Y014408D01*
X022985Y01452D01*
X023Y014639D01*
X022985Y014758D01*
X022939Y01487D01*
X022865Y014965D01*
X02277Y015039D01*
X022658Y015085D01*
X022539Y0151D01*
X022239D01*
X02212Y015085D01*
X022008Y015039D01*
X021913Y014965D01*
X021839Y01487D01*
X021815Y014811D01*
X021697Y014835D01*
Y016297D01*
X021688Y016364D01*
X021663Y016426D01*
X021621Y01648D01*
X02113Y016971D01*
X021076Y017013D01*
X021014Y017038D01*
X020947Y017047D01*
D02*
G37*
G36*
X045589Y012351D02*
X045411Y012333D01*
X04524Y012281D01*
X045082Y012197D01*
X044944Y012084D01*
X044831Y011946D01*
X044747Y011788D01*
X044695Y011617D01*
X044677Y011439D01*
X044695Y011261D01*
X044747Y01109D01*
X044831Y010932D01*
X044944Y010794D01*
X045082Y010681D01*
X04524Y010597D01*
X045411Y010545D01*
X045589Y010527D01*
X045767Y010545D01*
X045938Y010597D01*
X046096Y010681D01*
X046234Y010794D01*
X046347Y010932D01*
X046431Y01109D01*
X046483Y011261D01*
X046501Y011439D01*
X046483Y011617D01*
X046431Y011788D01*
X046347Y011946D01*
X046234Y012084D01*
X046096Y012197D01*
X045938Y012281D01*
X045767Y012333D01*
X045589Y012351D01*
D02*
G37*
G36*
X010639Y010534D02*
X010526Y010519D01*
X010421Y010475D01*
X01033Y010406D01*
X010261Y010315D01*
X010217Y01021D01*
X010202Y010097D01*
X010217Y009984D01*
X010261Y009878D01*
X01033Y009788D01*
X010421Y009719D01*
X010526Y009675D01*
X010639Y00966D01*
X010752Y009675D01*
X010857Y009719D01*
X010948Y009788D01*
X011017Y009878D01*
X011061Y009984D01*
X011076Y010097D01*
X011061Y01021D01*
X011017Y010315D01*
X010948Y010406D01*
X010857Y010475D01*
X010752Y010519D01*
X010639Y010534D01*
D02*
G37*
G36*
X009289D02*
X009176Y010519D01*
X009071Y010475D01*
X00898Y010406D01*
X008911Y010315D01*
X008867Y01021D01*
X008852Y010097D01*
X008867Y009984D01*
X008911Y009878D01*
X00898Y009788D01*
X009071Y009719D01*
X009176Y009675D01*
X009289Y00966D01*
X009402Y009675D01*
X009507Y009719D01*
X009598Y009788D01*
X009667Y009878D01*
X009711Y009984D01*
X009726Y010097D01*
X009711Y01021D01*
X009667Y010315D01*
X009598Y010406D01*
X009507Y010475D01*
X009402Y010519D01*
X009289Y010534D01*
D02*
G37*
G36*
X04291Y010499D02*
X041768D01*
Y009357D01*
X04291D01*
Y010499D01*
D02*
G37*
G36*
X039239Y009476D02*
X039126Y009461D01*
X039021Y009417D01*
X038993Y009396D01*
X036439D01*
X036346Y009384D01*
X03626Y009348D01*
X036186Y009292D01*
X036186Y009292D01*
X035835Y00894D01*
X035739Y008949D01*
X03562Y008938D01*
X035505Y008903D01*
X0354Y008847D01*
X035307Y008771D01*
X035246Y008696D01*
X03241D01*
Y009221D01*
X031268D01*
Y008079D01*
X031907D01*
X031971Y008029D01*
X032057Y007994D01*
X03215Y007982D01*
X03215Y007982D01*
X035246D01*
X035307Y007907D01*
X0354Y007831D01*
X035505Y007775D01*
X03562Y00774D01*
X035739Y007729D01*
X035858Y00774D01*
X035973Y007775D01*
X036078Y007831D01*
X036171Y007907D01*
X036247Y008D01*
X036303Y008105D01*
X036338Y00822D01*
X036349Y008339D01*
X03634Y008435D01*
X036587Y008682D01*
X038993D01*
X039021Y008661D01*
X039126Y008617D01*
X039239Y008602D01*
X039352Y008617D01*
X039457Y008661D01*
X039548Y00873D01*
X039617Y008821D01*
X039661Y008926D01*
X039676Y009039D01*
X039661Y009152D01*
X039617Y009257D01*
X039548Y009348D01*
X039457Y009417D01*
X039352Y009461D01*
X039239Y009476D01*
D02*
G37*
G36*
X046146Y010081D02*
X045132D01*
Y009066D01*
X045233D01*
X045272Y008963D01*
X045275Y008948D01*
X045196Y008845D01*
X045145Y008721D01*
X045127Y008589D01*
X045145Y008457D01*
X045196Y008333D01*
X045277Y008227D01*
X045383Y008146D01*
X045507Y008095D01*
X045639Y008077D01*
X045771Y008095D01*
X045895Y008146D01*
X046001Y008227D01*
X046082Y008333D01*
X046133Y008457D01*
X046151Y008589D01*
X046133Y008721D01*
X046082Y008845D01*
X046003Y008948D01*
X046006Y008963D01*
X046045Y009066D01*
X046146D01*
Y010081D01*
D02*
G37*
G36*
X030689Y0069D02*
X03057Y006885D01*
X030458Y006839D01*
X030363Y006765D01*
X030289Y00667D01*
X03028Y006647D01*
X029097D01*
X02903Y006638D01*
X028968Y006613D01*
X028914Y006571D01*
X028602Y00626D01*
X028539Y006268D01*
X028426Y006253D01*
X028321Y006209D01*
X02823Y00614D01*
X028161Y00605D01*
X028117Y005944D01*
X028102Y005831D01*
X028117Y005718D01*
X028161Y005613D01*
X02823Y005522D01*
X028321Y005453D01*
X028426Y005409D01*
X028539Y005394D01*
X028652Y005409D01*
X028757Y005453D01*
X028848Y005522D01*
X028917Y005613D01*
X028961Y005718D01*
X028976Y005831D01*
X028967Y005895D01*
X029204Y006131D01*
X03028D01*
X030289Y006108D01*
X030363Y006013D01*
X030458Y005939D01*
X03057Y005893D01*
X030689Y005878D01*
X030808Y005893D01*
X03092Y005939D01*
X031015Y006013D01*
X031089Y006108D01*
X031113Y006168D01*
X031232Y006145D01*
Y005882D01*
X032146D01*
Y006896D01*
X031232D01*
Y006633D01*
X031113Y00661D01*
X031089Y00667D01*
X031015Y006765D01*
X03092Y006839D01*
X030808Y006885D01*
X030689Y0069D01*
D02*
G37*
G36*
X035396Y007296D02*
X033582D01*
Y005482D01*
X035396D01*
Y007296D01*
D02*
G37*
G36*
X043546Y004646D02*
X042531D01*
Y003632D01*
X043546D01*
Y004646D01*
D02*
G37*
G36*
X045291Y005503D02*
X045111Y005489D01*
X044937Y005447D01*
X044771Y005378D01*
X044617Y005284D01*
X044481Y005167D01*
X044364Y005031D01*
X04427Y004877D01*
X044201Y004711D01*
X044159Y004537D01*
X044145Y004357D01*
X044159Y004178D01*
X044201Y004004D01*
X04427Y003838D01*
X044364Y003684D01*
X044481Y003548D01*
X044617Y003431D01*
X044771Y003337D01*
X044937Y003268D01*
X045111Y003226D01*
X045291Y003212D01*
X04547Y003226D01*
X045644Y003268D01*
X04581Y003337D01*
X045964Y003431D01*
X0461Y003548D01*
X046217Y003684D01*
X046311Y003838D01*
X04638Y004004D01*
X046422Y004178D01*
X046436Y004357D01*
X046422Y004537D01*
X04638Y004711D01*
X046311Y004877D01*
X046217Y005031D01*
X0461Y005167D01*
X045964Y005284D01*
X04581Y005378D01*
X045644Y005447D01*
X04547Y005489D01*
X045291Y005503D01*
D02*
G37*
G36*
X009857D02*
X009678Y005489D01*
X009504Y005447D01*
X009338Y005378D01*
X009184Y005284D01*
X009048Y005167D01*
X008931Y005031D01*
X008837Y004877D01*
X008768Y004711D01*
X008726Y004537D01*
X008712Y004357D01*
X008726Y004178D01*
X008768Y004004D01*
X008837Y003838D01*
X008931Y003684D01*
X009048Y003548D01*
X009184Y003431D01*
X009338Y003337D01*
X009504Y003268D01*
X009678Y003226D01*
X009857Y003212D01*
X010037Y003226D01*
X010211Y003268D01*
X010377Y003337D01*
X010531Y003431D01*
X010667Y003548D01*
X010784Y003684D01*
X010878Y003838D01*
X010947Y004004D01*
X010989Y004178D01*
X011003Y004357D01*
X010989Y004537D01*
X010947Y004711D01*
X010878Y004877D01*
X010784Y005031D01*
X010667Y005167D01*
X010531Y005284D01*
X010377Y005378D01*
X010211Y005447D01*
X010037Y005489D01*
X009857Y005503D01*
D02*
G37*
%LPD*%
G36*
X020281Y038082D02*
Y036189D01*
X02029Y036122D01*
X020315Y03606D01*
X020356Y036006D01*
X021733Y03463D01*
X021728Y034589D01*
X021743Y03447D01*
X021789Y034358D01*
X021863Y034263D01*
X021958Y034189D01*
X022052Y034151D01*
X022061Y034089D01*
X022052Y034027D01*
X021958Y033989D01*
X021863Y033915D01*
X021789Y03382D01*
X021743Y033708D01*
X021728Y033589D01*
X021743Y03347D01*
X021789Y033358D01*
X021863Y033263D01*
X021958Y033189D01*
X022052Y033151D01*
X022061Y033089D01*
X022052Y033027D01*
X021958Y032989D01*
X021863Y032915D01*
X02181Y032847D01*
X021589D01*
X021522Y032838D01*
X02146Y032813D01*
X021406Y032771D01*
X021006Y032371D01*
X020965Y032318D01*
X02094Y032256D01*
X020931Y032189D01*
Y030546D01*
X020643Y030258D01*
X019961D01*
X019921Y030313D01*
X019896Y030376D01*
X019935Y03047D01*
X01995Y030589D01*
X019935Y030708D01*
X019889Y03082D01*
X019815Y030915D01*
X01972Y030989D01*
X019608Y031035D01*
X019489Y03105D01*
X019189D01*
X01907Y031035D01*
X018958Y030989D01*
X018863Y030915D01*
X01883Y030913D01*
X018747Y030996D01*
Y032219D01*
X018792Y032248D01*
X018857Y032262D01*
X018863Y032262D01*
X018958Y032189D01*
X01907Y032143D01*
X019189Y032128D01*
X019489D01*
X019608Y032143D01*
X01972Y032189D01*
X019815Y032263D01*
X019889Y032358D01*
X019935Y03247D01*
X01995Y032589D01*
X019935Y032708D01*
X019889Y03282D01*
X019815Y032915D01*
X01972Y032989D01*
X019626Y033027D01*
X019617Y033089D01*
X019626Y033151D01*
X01972Y033189D01*
X019815Y033263D01*
X019889Y033358D01*
X019935Y03347D01*
X01995Y033589D01*
X019935Y033708D01*
X019889Y03382D01*
X019815Y033915D01*
X01972Y033989D01*
X019626Y034027D01*
X019617Y034089D01*
X019626Y034151D01*
X01972Y034189D01*
X019815Y034263D01*
X019889Y034358D01*
X019935Y03447D01*
X01995Y034589D01*
X019935Y034708D01*
X019889Y03482D01*
X019815Y034915D01*
X01972Y034989D01*
X019626Y035027D01*
X019617Y035089D01*
X019626Y035151D01*
X01972Y035189D01*
X019815Y035263D01*
X019889Y035358D01*
X019935Y03547D01*
X01995Y035589D01*
X019935Y035708D01*
X019889Y03582D01*
X019815Y035915D01*
X01972Y035989D01*
X019626Y036027D01*
X019617Y036089D01*
X019626Y036151D01*
X01972Y036189D01*
X019815Y036263D01*
X019889Y036358D01*
X019935Y03647D01*
X01995Y036589D01*
X019935Y036708D01*
X019889Y03682D01*
X019815Y036915D01*
X01972Y036989D01*
X019626Y037027D01*
X019617Y037089D01*
X019626Y037151D01*
X01972Y037189D01*
X019815Y037263D01*
X019889Y037358D01*
X019935Y03747D01*
X01995Y037589D01*
X019935Y037708D01*
X019889Y03782D01*
X019815Y037915D01*
X01972Y037989D01*
X019608Y038035D01*
X019489Y03805D01*
X019189D01*
X01907Y038035D01*
X018958Y037989D01*
X018863Y037915D01*
X018789Y03782D01*
X018743Y037708D01*
X018728Y037589D01*
X018743Y03747D01*
X018789Y037358D01*
X018863Y037263D01*
X018958Y037189D01*
X019052Y037151D01*
X019061Y037089D01*
X019052Y037027D01*
X018958Y036989D01*
X018863Y036915D01*
X018789Y03682D01*
X018743Y036708D01*
X018728Y036589D01*
X018743Y03647D01*
X018789Y036358D01*
X018863Y036263D01*
X018958Y036189D01*
X019052Y036151D01*
X019061Y036089D01*
X019052Y036027D01*
X018958Y035989D01*
X018863Y035915D01*
X01881Y035847D01*
X018489D01*
X018422Y035838D01*
X018419Y035837D01*
X018352Y035937D01*
X018533Y036117D01*
X018574Y036171D01*
X018599Y036233D01*
X018608Y0363D01*
Y038093D01*
X018896Y038381D01*
X019982D01*
X020281Y038082D01*
D02*
G37*
G36*
X024248Y026898D02*
X024343Y026824D01*
X024437Y026786D01*
X024446Y026724D01*
X024437Y026662D01*
X024343Y026624D01*
X024248Y02655D01*
X024174Y026455D01*
X024128Y026343D01*
X024113Y026224D01*
X024124Y026139D01*
X023481Y025496D01*
X02344Y025443D01*
X023414Y025381D01*
X023406Y025314D01*
Y021596D01*
X022643Y020833D01*
X02257Y020889D01*
X022476Y020927D01*
X022467Y020989D01*
X022476Y021051D01*
X02257Y021089D01*
X022665Y021163D01*
X022739Y021258D01*
X022785Y02137D01*
X0228Y021489D01*
X022785Y021608D01*
X022739Y02172D01*
X022665Y021815D01*
X02257Y021889D01*
X022476Y021927D01*
X022467Y021989D01*
X022476Y022051D01*
X02257Y022089D01*
X022665Y022163D01*
X022739Y022258D01*
X022785Y02237D01*
X0228Y022489D01*
X022785Y022608D01*
X022739Y02272D01*
X022665Y022815D01*
X02257Y022889D01*
X022476Y022927D01*
X022467Y022989D01*
X022476Y023051D01*
X02257Y023089D01*
X022665Y023163D01*
X022739Y023258D01*
X022785Y02337D01*
X0228Y023489D01*
X022785Y023608D01*
X022739Y02372D01*
X022665Y023815D01*
X02257Y023889D01*
X022476Y023927D01*
X022467Y023989D01*
X022476Y024051D01*
X02257Y024089D01*
X022665Y024163D01*
X022739Y024258D01*
X022785Y02437D01*
X0228Y024489D01*
X022785Y024608D01*
X022739Y02472D01*
X022665Y024815D01*
X02257Y024889D01*
X022476Y024927D01*
X022467Y024989D01*
X022476Y025051D01*
X02257Y025089D01*
X022665Y025163D01*
X022739Y025258D01*
X022785Y02537D01*
X0228Y025489D01*
X022785Y025608D01*
X022739Y02572D01*
X022665Y025815D01*
X02257Y025889D01*
X022458Y025935D01*
X022339Y02595D01*
X022039D01*
X02192Y025935D01*
X021808Y025889D01*
X021713Y025815D01*
X021639Y02572D01*
X021593Y025608D01*
X021578Y025489D01*
X021593Y02537D01*
X021639Y025258D01*
X021713Y025163D01*
X021808Y025089D01*
X021902Y025051D01*
X021911Y024989D01*
X021902Y024927D01*
X021808Y024889D01*
X021713Y024815D01*
X021639Y02472D01*
X021593Y024608D01*
X021578Y024489D01*
X021593Y02437D01*
X021639Y024258D01*
X021713Y024163D01*
X021808Y024089D01*
X021902Y024051D01*
X021911Y023989D01*
X021902Y023927D01*
X021808Y023889D01*
X021713Y023815D01*
X02166Y023747D01*
X020939D01*
X020872Y023738D01*
X02081Y023713D01*
X020756Y023671D01*
X020406Y023321D01*
X020365Y023268D01*
X02034Y023206D01*
X020331Y023139D01*
Y019679D01*
X019919Y019267D01*
X019873Y019273D01*
X019785Y01937D01*
X0198Y019489D01*
X019785Y019608D01*
X019739Y01972D01*
X019665Y019815D01*
X01957Y019889D01*
X019458Y019935D01*
X019339Y01995D01*
X019039D01*
X018998Y019945D01*
X017535Y021408D01*
X017546Y021489D01*
X01753Y021607D01*
X017502Y021674D01*
X017564Y021792D01*
X018321D01*
X018583Y02153D01*
X018578Y021489D01*
X018593Y02137D01*
X018639Y021258D01*
X018713Y021163D01*
X018808Y021089D01*
X01892Y021043D01*
X019039Y021028D01*
X019339D01*
X019458Y021043D01*
X01957Y021089D01*
X019665Y021163D01*
X019739Y021258D01*
X019785Y02137D01*
X0198Y021489D01*
X019785Y021608D01*
X019739Y02172D01*
X019665Y021815D01*
X01957Y021889D01*
X019476Y021927D01*
X019467Y021989D01*
X019476Y022051D01*
X01957Y022089D01*
X019665Y022163D01*
X019739Y022258D01*
X019785Y02237D01*
X0198Y022489D01*
X019785Y022608D01*
X019739Y02272D01*
X019665Y022815D01*
X01957Y022889D01*
X019476Y022927D01*
X019467Y022989D01*
X019476Y023051D01*
X01957Y023089D01*
X019665Y023163D01*
X019739Y023258D01*
X019785Y02337D01*
X0198Y023489D01*
X019785Y023608D01*
X019739Y02372D01*
X019665Y023815D01*
X01957Y023889D01*
X019476Y023927D01*
X019467Y023989D01*
X019476Y024051D01*
X01957Y024089D01*
X019665Y024163D01*
X019739Y024258D01*
X019785Y02437D01*
X0198Y024489D01*
X019785Y024608D01*
X019739Y02472D01*
X019665Y024815D01*
X01957Y024889D01*
X019476Y024927D01*
X019467Y024989D01*
X019476Y025051D01*
X01957Y025089D01*
X019665Y025163D01*
X019739Y025258D01*
X019785Y02537D01*
X0198Y025489D01*
X019785Y025608D01*
X019739Y02572D01*
X019665Y025815D01*
X01957Y025889D01*
X019476Y025927D01*
X019467Y025989D01*
X019476Y026051D01*
X01957Y026089D01*
X019665Y026163D01*
X019718Y026231D01*
X02038D01*
X020447Y02624D01*
X020509Y026265D01*
X020563Y026306D01*
X021222Y026966D01*
X024195D01*
X024248Y026898D01*
D02*
G37*
G36*
X020331Y015832D02*
Y009096D01*
X020132Y008897D01*
X019918D01*
X019865Y008965D01*
X01977Y009039D01*
X019658Y009085D01*
X019539Y0091D01*
X019239D01*
X01912Y009085D01*
X019008Y009039D01*
X018913Y008965D01*
X018839Y00887D01*
X018793Y008758D01*
X018778Y008639D01*
X018793Y00852D01*
X018839Y008408D01*
X018913Y008313D01*
X019008Y008239D01*
X01912Y008193D01*
X019239Y008178D01*
X019539D01*
X019658Y008193D01*
X01977Y008239D01*
X019865Y008313D01*
X019918Y008381D01*
X020239D01*
X020306Y00839D01*
X020368Y008415D01*
X020421Y008456D01*
X020642Y008677D01*
X02077Y008638D01*
X020778Y008593D01*
X020232Y008047D01*
X016646D01*
X016375Y008318D01*
Y00982D01*
X016398Y009838D01*
X016467Y009928D01*
X016511Y010034D01*
X016526Y010147D01*
X016511Y01026D01*
X016467Y010365D01*
X016398Y010456D01*
X016322Y010514D01*
X016326Y010567D01*
X016355Y010632D01*
X017223D01*
X017252Y010567D01*
X017256Y010514D01*
X01718Y010456D01*
X017111Y010365D01*
X017067Y01026D01*
X017052Y010147D01*
X017067Y010034D01*
X017111Y009928D01*
X01718Y009838D01*
X017271Y009769D01*
X017376Y009725D01*
X017489Y00971D01*
X017602Y009725D01*
X017707Y009769D01*
X017798Y009838D01*
X017867Y009928D01*
X017911Y010034D01*
X017926Y010147D01*
X017911Y01026D01*
X017867Y010365D01*
X017798Y010456D01*
X017722Y010514D01*
X017726Y010567D01*
X017755Y010632D01*
X018778D01*
X018793Y01052D01*
X018839Y010408D01*
X018913Y010313D01*
X019008Y010239D01*
X01912Y010193D01*
X019239Y010178D01*
X019539D01*
X019658Y010193D01*
X01977Y010239D01*
X019865Y010313D01*
X019939Y010408D01*
X019985Y01052D01*
X02Y010639D01*
X019985Y010758D01*
X019939Y01087D01*
X019865Y010965D01*
X01977Y011039D01*
X019676Y011077D01*
X019667Y011139D01*
X019676Y011201D01*
X01977Y011239D01*
X019865Y011313D01*
X019939Y011408D01*
X019985Y01152D01*
X02Y011639D01*
X019985Y011758D01*
X019939Y01187D01*
X019865Y011965D01*
X01977Y012039D01*
X019676Y012077D01*
X019667Y012139D01*
X019676Y012201D01*
X01977Y012239D01*
X019865Y012313D01*
X019939Y012408D01*
X019985Y01252D01*
X02Y012639D01*
X019985Y012758D01*
X019939Y01287D01*
X019865Y012965D01*
X01977Y013039D01*
X019676Y013077D01*
X019667Y013139D01*
X019676Y013201D01*
X01977Y013239D01*
X019865Y013313D01*
X019939Y013408D01*
X019985Y01352D01*
X02Y013639D01*
X019985Y013758D01*
X019939Y01387D01*
X019865Y013965D01*
X01977Y014039D01*
X019676Y014077D01*
X019667Y014139D01*
X019676Y014201D01*
X01977Y014239D01*
X019865Y014313D01*
X019939Y014408D01*
X019985Y01452D01*
X02Y014639D01*
X019985Y014758D01*
X019939Y01487D01*
X019865Y014965D01*
X01977Y015039D01*
X019676Y015077D01*
X019667Y015139D01*
X019676Y015201D01*
X01977Y015239D01*
X019865Y015313D01*
X019939Y015408D01*
X019985Y01552D01*
X02Y015639D01*
X019985Y015758D01*
X019939Y01587D01*
X019867Y015963D01*
X019869Y015975D01*
X019909Y016081D01*
X020082D01*
X020331Y015832D01*
D02*
G37*
D54*
X018539Y015939D02*
X018939Y016339D01*
X020189D02*
X020589Y015939D01*
X018939Y016339D02*
X020189D01*
X018539Y014339D02*
Y015939D01*
X017439Y013239D02*
X018539Y014339D01*
X018139Y016289D02*
X018639Y016789D01*
X020947D01*
X021439Y016297D01*
X018139Y014639D02*
Y016289D01*
X020589Y008989D02*
Y015939D01*
X020239Y008639D02*
X020589Y008989D01*
X019389Y008639D02*
X020239D01*
X016739Y013239D02*
X017439D01*
X021439Y013439D02*
Y016297D01*
X020339Y007789D02*
X021089Y008539D01*
X021564Y010514D02*
X021689Y010639D01*
X021089Y008539D02*
Y011289D01*
X021439Y011639D01*
X021564Y008314D02*
Y010514D01*
X020489Y007239D02*
X021564Y008314D01*
X021689Y010639D02*
X022389D01*
X016539Y007789D02*
X020339D01*
X021439Y011639D02*
X022389D01*
X044489Y027239D02*
X046839Y024889D01*
X039589Y027239D02*
X044489D01*
X046839Y021789D02*
Y024889D01*
X032839Y036139D02*
X036389Y032589D01*
X032789Y036139D02*
X032839D01*
X036389Y032589D02*
X037397D01*
X034839Y020539D02*
Y020889D01*
X034504Y021224D02*
X034839Y020889D01*
X030574Y021224D02*
X034504D01*
X034589Y021789D02*
X034839Y022039D01*
X031078Y021789D02*
X034589D01*
X034839Y022039D02*
Y022389D01*
X030642Y022224D02*
X031078Y021789D01*
X030574Y022224D02*
X030642D01*
X034839Y025389D02*
Y025989D01*
X033674Y024224D02*
X034839Y025389D01*
X030574Y024224D02*
X033674D01*
X034839Y023639D02*
Y024189D01*
X034424Y023224D02*
X034839Y023639D01*
X030574Y023224D02*
X034424D01*
X032889Y028539D02*
X034378D01*
X030574Y026224D02*
X032889Y028539D01*
X034378D02*
X034839Y029D01*
X030851Y031301D02*
X033489Y033939D01*
X030574Y031224D02*
X030651Y031301D01*
X030851D01*
X033489Y033939D02*
X033531D01*
X032789Y035389D02*
Y036139D01*
X03252Y03512D02*
X032789Y035389D01*
X026969Y03512D02*
X03252D01*
X032389Y038189D02*
X032789Y037789D01*
X026389Y038189D02*
X032389D01*
X032789Y037139D02*
Y037789D01*
X026074Y037015D02*
Y037874D01*
X026389Y038189D01*
X025846Y010632D02*
X026189Y010289D01*
X025846Y010632D02*
Y010902D01*
X026189Y010289D02*
X028097D01*
X028539Y009847D01*
X025759Y010989D02*
X025846Y010902D01*
X028539Y009847D02*
X03009D01*
X029097Y006389D02*
X030689D01*
X028539Y005831D02*
X029097Y006389D01*
X021039Y026489D02*
X022189D01*
X02023Y021D02*
Y02568D01*
X021039Y026489D01*
X022539Y028939D02*
X022539D01*
X023824Y030224D02*
X024574D01*
X022539Y028939D02*
X023824Y030224D01*
X024574Y029224D02*
X026954D01*
X02745Y028728D01*
Y0224D02*
Y028728D01*
X039239Y026189D02*
Y026889D01*
X039589Y027239D01*
X046239Y021189D02*
X046839Y021789D01*
X038989Y021189D02*
X046239D01*
X038639Y020839D02*
X038989Y021189D01*
X038639Y019789D02*
Y020839D01*
X042739Y022539D02*
X044509Y024309D01*
X045409D01*
X045439Y024339D01*
X042624Y023939D02*
X042739Y023824D01*
X039239Y023189D02*
Y023824D01*
X039354Y023939D02*
X042624D01*
X042739Y022539D02*
Y023824D01*
X039239Y022619D02*
Y023189D01*
Y023824D02*
X039354Y023939D01*
X042385Y026339D02*
X042481D01*
X041189Y026239D02*
X042285D01*
X042385Y026339D01*
X041987Y008369D02*
X042169Y00855D01*
X039239Y008369D02*
X041987D01*
X042169Y00855D02*
X042339D01*
X035739Y010339D02*
X035779Y010379D01*
X039171Y009641D02*
X039239Y009709D01*
X038946Y009639D02*
X038949Y009641D01*
X037463Y009633D02*
X037469Y009639D01*
X038949Y009641D02*
X039171D01*
X037469Y009639D02*
X038946D01*
X032286Y009633D02*
X037463D01*
X031669Y010028D02*
X031891D01*
X032286Y009633D01*
X031487Y009847D02*
X031669Y010028D01*
X03009Y009847D02*
X031487D01*
X03009Y009847D02*
X03009Y009847D01*
X013339Y006081D02*
X014689D01*
X014697Y006089D01*
X016047D01*
X016089Y006131D02*
X017489D01*
X016047Y006089D02*
X016089Y006131D01*
X016117Y008211D02*
Y010119D01*
Y008211D02*
X016539Y007789D01*
X014689Y008039D02*
Y010097D01*
X015489Y007239D02*
X020489D01*
X014689Y008039D02*
X015489Y007239D01*
X016089Y010147D02*
X016117Y010119D01*
X01005Y012189D02*
X017189D01*
X018639Y013639D01*
X009739Y0125D02*
X01005Y012189D01*
X019312Y011562D02*
X019389Y011639D01*
X018945Y011562D02*
X019312D01*
X018922Y011539D02*
X018945Y011562D01*
X011989Y010097D02*
X013431Y011539D01*
X018922D01*
X018639Y013639D02*
X019389D01*
X022239Y012639D02*
X022389D01*
X021439Y013439D02*
X022239Y012639D01*
X015989Y014289D02*
X017789D01*
X018139Y014639D01*
X015739Y014039D02*
X015989Y014289D01*
X015739Y013239D02*
Y014039D01*
X01944Y01763D02*
X02318D01*
X023589Y018039D01*
Y020239D01*
X015703Y018083D02*
X020883D01*
X021385Y018585D01*
X014439Y019347D02*
X015703Y018083D01*
X020402Y018489D02*
X020989Y019076D01*
X016597Y018489D02*
X020402D01*
X015739Y019347D02*
X016597Y018489D01*
X023589Y020239D02*
X024574Y021224D01*
X022339Y019489D02*
X02291Y02006D01*
Y020061D01*
X024018Y021169D01*
Y024668D01*
X022189Y019489D02*
X022339D01*
X021615Y021465D02*
X022165D01*
X021385Y018585D02*
Y021235D01*
X022165Y021465D02*
X022189Y021489D01*
X021385Y021235D02*
X021615Y021465D01*
X019089Y019489D02*
X019189D01*
X017089Y021489D02*
X019089Y019489D01*
X020989Y022089D02*
X021389Y022489D01*
X020989Y019076D02*
Y022089D01*
X021389Y022489D02*
X022189D01*
X020589Y023139D02*
X020939Y023489D01*
X020589Y019572D02*
Y023139D01*
X01995Y018933D02*
X020589Y019572D01*
X020939Y023489D02*
X022189D01*
X008988Y01869D02*
X012532D01*
X008689Y018989D02*
X008988Y01869D01*
X008689Y018989D02*
Y021789D01*
X00895Y02205D01*
X018428D01*
X018989Y021489D02*
X019189D01*
X018428Y02205D02*
X018989Y021489D01*
X00908Y02588D02*
X011448D01*
X008689Y025489D02*
X00908Y02588D01*
X008689Y023239D02*
Y025489D01*
Y023239D02*
X009439Y022489D01*
X019189D01*
X010639Y023539D02*
X017989D01*
X018939Y024489D02*
X019189D01*
X017989Y023539D02*
X018939Y024489D01*
X019039Y023489D02*
X019189D01*
X01859Y02304D02*
X019039Y023489D01*
X009738Y02304D02*
X01859D01*
X009839Y024339D02*
X010639Y023539D01*
X009839Y024339D02*
Y024539D01*
X009208Y02357D02*
X009738Y02304D01*
X009208Y02357D02*
Y025193D01*
X009454Y025439D01*
X010421D01*
X010765Y025095D01*
Y024613D02*
X010839Y024539D01*
X010765Y024613D02*
Y025095D01*
X011839Y024539D02*
Y025489D01*
X011448Y02588D02*
X011839Y025489D01*
X010439Y038189D02*
X011432Y039182D01*
X020546D01*
X010439Y036739D02*
Y038189D01*
X015446Y033539D02*
X015591Y033393D01*
X015635D01*
X016489Y032539D02*
X017739D01*
X014139Y033539D02*
X015446D01*
X015635Y033393D02*
X016489Y032539D01*
X017739D02*
X018189D01*
X018489Y030889D02*
Y032239D01*
X018189Y032539D02*
X018489Y032239D01*
Y030889D02*
X018765Y030613D01*
X019315D01*
X019339Y030589D01*
X017189Y030439D02*
Y031639D01*
X013498Y03198D02*
X016848D01*
X017189Y031639D01*
Y030439D02*
X017628Y03D01*
X02075D01*
X019589Y031589D02*
X02153Y03353D01*
X019339Y031589D02*
X019589D01*
X02153Y03353D02*
Y03424D01*
X02075Y03D02*
X021189Y030439D01*
Y032189D01*
X021589Y032589D01*
X022339D01*
X018739Y034589D02*
X019339D01*
X017739Y033539D02*
Y033589D01*
X018739Y034589D01*
X016539Y033539D02*
Y033639D01*
X018489Y035589D02*
X019339D01*
X016539Y033639D02*
X018489Y035589D01*
X012339Y035689D02*
X017739D01*
X01835Y0363D01*
Y0382D01*
X011439Y036589D02*
X012339Y035689D01*
X011439Y036589D02*
Y036739D01*
X020539Y036189D02*
Y038189D01*
X018789Y038639D02*
X020089D01*
X020539Y038189D01*
X01835Y0382D02*
X018789Y038639D01*
X020546Y039182D02*
X021069Y038659D01*
Y036459D02*
Y038659D01*
X020539Y036189D02*
X022139Y034589D01*
X022339D01*
X022262Y035666D02*
X022339Y035589D01*
X021862Y035666D02*
X022262D01*
X021069Y036459D02*
X021862Y035666D01*
X025759Y010989D02*
Y011271D01*
X024574Y019224D02*
X026739Y017059D01*
Y010989D02*
Y017059D01*
X024282Y006682D02*
Y008672D01*
X017489Y006131D02*
X023731D01*
X024282Y006682D01*
Y008672D02*
X024299Y008689D01*
X022536Y028224D02*
X024574D01*
X01924Y010639D02*
Y01089D01*
X022389Y015639D02*
X023989D01*
X024574Y016224D01*
X034839Y018739D02*
Y019D01*
X033615Y020224D02*
X034839Y019D01*
X030574Y020224D02*
X033615D01*
X021115Y027224D02*
X024574D01*
X02038Y026489D02*
X021115Y027224D01*
X019189Y026489D02*
X02038D01*
X022189Y020489D02*
X022664D01*
X023664Y021489D01*
Y025314D01*
X024574Y026224D01*
X019189Y020489D02*
X019719D01*
X02023Y021D01*
X017503Y018933D02*
X01995D01*
X017089Y019347D02*
X017503Y018933D01*
X012532Y01869D02*
X013189Y019347D01*
X022339Y031589D02*
X022939D01*
X024574Y033224D01*
X012939Y032539D02*
X013498Y03198D01*
X015339Y031297D02*
X017106Y02953D01*
X02005D01*
X024018Y024668D02*
X024574Y025224D01*
X034839Y029D02*
Y029589D01*
X022339Y030589D02*
X022939D01*
X024574Y032224D01*
X034839Y027389D02*
Y027789D01*
X032674Y025224D02*
X034839Y027389D01*
X030574Y025224D02*
X032674D01*
X022339Y037589D02*
X0245D01*
X026074Y036015D01*
X039009Y022389D02*
X039239Y022619D01*
X035331Y022389D02*
X039009D01*
X01924Y010639D02*
X019389D01*
X014132Y01089D02*
X01924D01*
X013339Y010097D02*
X014132Y01089D01*
X009739Y0125D02*
Y013239D01*
X026074Y036015D02*
X026969Y03512D01*
X041719Y015639D02*
Y016024D01*
X041875Y01618D01*
X042879D01*
X043059Y016D01*
Y015639D02*
Y016D01*
X011739Y033539D02*
X012939D01*
X014139D01*
X010489D02*
X011739D01*
X009239D02*
X010489D01*
X015739Y021489D02*
X017089D01*
X014439D02*
X015739D01*
X013189D02*
X014439D01*
X011889D02*
X013189D01*
X009389D02*
X010689D01*
X011889D01*
X009289Y027281D02*
X010489D01*
X011739D01*
X014139D02*
X015339D01*
X011739D02*
X012939D01*
X014139D01*
X015339D02*
X016539D01*
X017739D01*
X009289Y006081D02*
X010639D01*
X011989D01*
X013339D01*
X015739Y015331D02*
X017089D01*
X014439D02*
X015739D01*
X013189D02*
X014439D01*
X009389D02*
X010689D01*
X011939D02*
X013189D01*
X010689D02*
X011939D01*
D55*
X025539Y009689D02*
X026989D01*
X027299Y009379D01*
Y008689D02*
Y009379D01*
X024761Y010467D02*
X025539Y009689D01*
X027989Y004389D02*
X040639D01*
X044189Y007939D02*
Y013039D01*
X040639Y004389D02*
X044189Y007939D01*
X027239Y005139D02*
Y008398D01*
Y005139D02*
X027989Y004389D01*
X02725Y00864D02*
X027299Y008689D01*
X02725Y008409D02*
Y00864D01*
X027239Y008398D02*
X02725Y008409D01*
X044439Y017839D02*
X045439Y018839D01*
X042039Y017839D02*
X044439D01*
X040989Y018889D02*
X042039Y017839D01*
X043539Y013689D02*
X044189Y013039D01*
X042389Y013689D02*
X043539D01*
X038589Y013631D02*
X038647Y013689D01*
X042389D01*
Y015639D01*
X035394Y013689D02*
X038531D01*
X038589Y013631D01*
X035779Y010379D02*
X039239D01*
X031839Y00865D02*
X03215Y008339D01*
X035739D01*
X024761Y010467D02*
Y011126D01*
X036439Y009039D02*
X039239D01*
X035739Y008339D02*
X036439Y009039D01*
X04001Y011049D02*
X04165Y012689D01*
X039239Y011049D02*
X04001D01*
X041Y016939D02*
X045589D01*
X040379Y016318D02*
X041Y016939D01*
X040379Y015639D02*
Y016318D01*
D56*
X024299Y008689D02*
D03*
X025309D02*
D03*
X026289D02*
D03*
X027299D02*
D03*
X024749Y010989D02*
D03*
X025759D02*
D03*
X026739D02*
D03*
X027749D02*
D03*
D57*
X028539Y009847D02*
D03*
Y005831D02*
D03*
X042481Y026339D02*
D03*
X046497D02*
D03*
X038589Y017647D02*
D03*
Y013631D02*
D03*
X043059Y015639D02*
D03*
X042389D02*
D03*
X041719D02*
D03*
X041049D02*
D03*
X033381Y031189D02*
D03*
X037397D02*
D03*
Y032589D02*
D03*
X033381D02*
D03*
X037547Y033939D02*
D03*
X033531D02*
D03*
X011939Y019347D02*
D03*
Y015331D02*
D03*
X014439Y019347D02*
D03*
Y015331D02*
D03*
X013189Y019347D02*
D03*
Y015331D02*
D03*
X010489Y027281D02*
D03*
Y031297D02*
D03*
X012939Y027281D02*
D03*
Y031297D02*
D03*
X011739Y027281D02*
D03*
Y031297D02*
D03*
X014139Y027281D02*
D03*
Y031297D02*
D03*
X016539Y027281D02*
D03*
Y031297D02*
D03*
X015339Y027281D02*
D03*
Y031297D02*
D03*
X017739D02*
D03*
Y027281D02*
D03*
X010689Y019347D02*
D03*
Y015331D02*
D03*
X015739Y019347D02*
D03*
Y015331D02*
D03*
X017089Y019347D02*
D03*
Y015331D02*
D03*
X009289Y027281D02*
D03*
Y031297D02*
D03*
Y006081D02*
D03*
Y010097D02*
D03*
X014689Y006081D02*
D03*
Y010097D02*
D03*
X010639Y006081D02*
D03*
Y010097D02*
D03*
X011989Y006081D02*
D03*
Y010097D02*
D03*
X013339Y006081D02*
D03*
Y010097D02*
D03*
X016089Y006131D02*
D03*
Y010147D02*
D03*
X017489Y006131D02*
D03*
Y010147D02*
D03*
X039239Y008369D02*
D03*
Y009039D02*
D03*
Y009709D02*
D03*
Y010379D02*
D03*
X009389Y019347D02*
D03*
Y015331D02*
D03*
D58*
X028074Y036015D02*
D03*
X029074D02*
D03*
X027074D02*
D03*
X026074D02*
D03*
X028074Y037015D02*
D03*
X029074D02*
D03*
X027074D02*
D03*
X026074D02*
D03*
X035389Y016689D02*
D03*
X017089Y020489D02*
D03*
Y021489D02*
D03*
X015739Y020489D02*
D03*
Y021489D02*
D03*
X013189Y020489D02*
D03*
Y021489D02*
D03*
X010689Y020489D02*
D03*
Y021489D02*
D03*
X011889Y020489D02*
D03*
Y021489D02*
D03*
X014439Y020489D02*
D03*
Y021489D02*
D03*
X014139Y032539D02*
D03*
Y033539D02*
D03*
X012939Y032539D02*
D03*
Y033539D02*
D03*
X011739Y032539D02*
D03*
Y033539D02*
D03*
X017739D02*
D03*
Y032539D02*
D03*
X016539Y033539D02*
D03*
Y032539D02*
D03*
X015339D02*
D03*
Y033539D02*
D03*
X010489Y032539D02*
D03*
Y033539D02*
D03*
X009389Y020489D02*
D03*
Y021489D02*
D03*
X009239Y032539D02*
D03*
Y033539D02*
D03*
D59*
X030574Y024224D02*
D03*
Y025224D02*
D03*
Y026224D02*
D03*
Y034224D02*
D03*
Y033224D02*
D03*
Y032224D02*
D03*
Y031224D02*
D03*
Y029224D02*
D03*
Y030224D02*
D03*
Y028224D02*
D03*
Y023224D02*
D03*
Y022224D02*
D03*
Y016224D02*
D03*
Y017224D02*
D03*
Y018224D02*
D03*
Y019224D02*
D03*
Y020224D02*
D03*
Y021224D02*
D03*
X024574Y017224D02*
D03*
Y016224D02*
D03*
Y034224D02*
D03*
Y033224D02*
D03*
Y032224D02*
D03*
Y031224D02*
D03*
Y030224D02*
D03*
Y029224D02*
D03*
Y028224D02*
D03*
Y027224D02*
D03*
Y026224D02*
D03*
Y025224D02*
D03*
Y024224D02*
D03*
Y023224D02*
D03*
Y022224D02*
D03*
Y021224D02*
D03*
Y020224D02*
D03*
Y019224D02*
D03*
Y018224D02*
D03*
X030574Y027224D02*
D03*
D60*
Y015224D02*
D03*
X024574D02*
D03*
D61*
X045639Y009573D02*
D03*
D62*
Y008589D02*
D03*
X042055Y004139D02*
D03*
D63*
X045589Y016939D02*
D03*
X045439Y018839D02*
D03*
D64*
X045589Y011439D02*
D03*
X045439Y024339D02*
D03*
X039989Y006389D02*
D03*
D65*
X043039Y004139D02*
D03*
D66*
X042739Y022539D02*
D03*
X043028Y012689D02*
D03*
X042339Y00855D02*
D03*
X031839Y010028D02*
D03*
D67*
X041361Y022539D02*
D03*
X04165Y012689D02*
D03*
D68*
X035394Y013689D02*
D03*
D69*
X039639Y019789D02*
D03*
X038639D02*
D03*
X037639D02*
D03*
D70*
X042989Y018889D02*
D03*
X040989D02*
D03*
X035739Y008339D02*
D03*
Y010339D02*
D03*
D71*
X040379Y015639D02*
D03*
D72*
X042339Y009928D02*
D03*
X031839Y00865D02*
D03*
D73*
X034489Y006389D02*
D03*
D74*
X030689D02*
D03*
D75*
X031689D02*
D03*
D76*
X034347Y022389D02*
D03*
X034839D02*
D03*
X035331D02*
D03*
X034347Y025989D02*
D03*
X034839D02*
D03*
X035331D02*
D03*
X034347Y029589D02*
D03*
X034839D02*
D03*
X035331D02*
D03*
X034347Y027789D02*
D03*
X034839D02*
D03*
X035331D02*
D03*
X034347Y024189D02*
D03*
X034839D02*
D03*
X035331D02*
D03*
X034347Y020539D02*
D03*
X034839D02*
D03*
X035331D02*
D03*
X034347Y018739D02*
D03*
X034839D02*
D03*
X035331D02*
D03*
D77*
X022189Y019489D02*
D03*
X022339Y030589D02*
D03*
X022389Y008639D02*
D03*
D78*
X022189Y020489D02*
D03*
Y021489D02*
D03*
Y022489D02*
D03*
Y023489D02*
D03*
Y024489D02*
D03*
Y025489D02*
D03*
Y026489D02*
D03*
X019189Y019489D02*
D03*
Y020489D02*
D03*
Y021489D02*
D03*
Y022489D02*
D03*
Y023489D02*
D03*
Y024489D02*
D03*
Y025489D02*
D03*
Y026489D02*
D03*
X022339Y031589D02*
D03*
Y032589D02*
D03*
Y033589D02*
D03*
Y034589D02*
D03*
Y035589D02*
D03*
Y036589D02*
D03*
Y037589D02*
D03*
X019339Y030589D02*
D03*
Y031589D02*
D03*
Y032589D02*
D03*
Y033589D02*
D03*
Y034589D02*
D03*
Y035589D02*
D03*
Y036589D02*
D03*
Y037589D02*
D03*
X022389Y009639D02*
D03*
Y010639D02*
D03*
Y011639D02*
D03*
Y012639D02*
D03*
Y013639D02*
D03*
Y014639D02*
D03*
Y015639D02*
D03*
X019389Y008639D02*
D03*
Y009639D02*
D03*
Y010639D02*
D03*
Y011639D02*
D03*
Y012639D02*
D03*
Y013639D02*
D03*
Y014639D02*
D03*
Y015639D02*
D03*
D79*
X032789Y037139D02*
D03*
D80*
Y036139D02*
D03*
D81*
X038239Y026189D02*
D03*
X039239D02*
D03*
Y023189D02*
D03*
D82*
X038239D02*
D03*
D83*
X041189Y026239D02*
D03*
D84*
Y025239D02*
D03*
D85*
X010839Y024539D02*
D03*
X012839D02*
D03*
X015839D02*
D03*
X014839D02*
D03*
X013839D02*
D03*
X011839D02*
D03*
X009839D02*
D03*
X016439Y036739D02*
D03*
X014439D02*
D03*
X012439D02*
D03*
X011439D02*
D03*
X010439D02*
D03*
X013439D02*
D03*
X015439D02*
D03*
X017439D02*
D03*
D86*
X016839Y024539D02*
D03*
X009439Y036739D02*
D03*
D87*
X015739Y013239D02*
D03*
X013739D02*
D03*
X010739D02*
D03*
X011739D02*
D03*
X012739D02*
D03*
X014739D02*
D03*
X016739D02*
D03*
D88*
X009739D02*
D03*
D89*
X039239Y011049D02*
D03*
D90*
X022536Y028224D02*
D03*
X022539Y028939D02*
D03*
X02153Y03424D02*
D03*
X02745Y0224D02*
D03*
X01944Y01763D02*
D03*
X02005Y02953D02*
D03*
D91*
X045291Y004357D02*
D03*
Y039791D02*
D03*
X009857D02*
D03*
Y004357D02*
D03*
M02*
