G04*
G04 #@! TF.GenerationSoftware,Altium Limited,Altium Designer,21.3.2 (30)*
G04*
G04 Layer_Physical_Order=1*
G04 Layer_Color=255*
%FSTAX24Y24*%
%MOIN*%
G70*
G04*
G04 #@! TF.SameCoordinates,1AC0675F-A7BC-4776-8E39-8DD75055E93B*
G04*
G04*
G04 #@! TF.FilePolarity,Positive*
G04*
G01*
G75*
%ADD54C,0.0197*%
%ADD55C,0.0394*%
%ADD56O,0.0650X0.0750*%
%ADD57C,0.0551*%
%ADD58C,0.0591*%
%ADD59C,0.0600*%
%ADD60R,0.0600X0.0600*%
%ADD61R,0.0700X0.0700*%
%ADD62C,0.0700*%
%ADD63R,0.1500X0.1500*%
%ADD64C,0.1500*%
%ADD65R,0.0700X0.0700*%
%ADD66C,0.0827*%
%ADD67R,0.0827X0.0827*%
%ADD68R,0.0591X0.0591*%
%ADD69O,0.0660X0.1000*%
%ADD70C,0.0900*%
%ADD71R,0.0551X0.0551*%
%ADD72R,0.0827X0.0827*%
%ADD73R,0.1500X0.1500*%
%ADD74O,0.0600X0.0700*%
%ADD75R,0.0600X0.0700*%
%ADD76C,0.0315*%
%ADD77R,0.0900X0.0600*%
%ADD78O,0.0900X0.0600*%
%ADD79R,0.0591X0.0512*%
%ADD80O,0.0591X0.0512*%
%ADD81O,0.0600X0.0900*%
%ADD82R,0.0600X0.0900*%
%ADD83O,0.0700X0.0600*%
%ADD84R,0.0700X0.0600*%
%ADD85O,0.0750X0.0900*%
%ADD86R,0.0750X0.0900*%
%ADD87O,0.0650X0.0900*%
%ADD88R,0.0650X0.0900*%
%ADD89R,0.0551X0.0551*%
%ADD90C,0.0394*%
%ADD91C,0.1969*%
G36*
X047048Y002601D02*
X008101D01*
Y041548D01*
X047048D01*
Y002601D01*
D02*
G37*
%LPC*%
G36*
X045291Y040936D02*
X045111Y040922D01*
X044937Y04088D01*
X044771Y040811D01*
X044617Y040717D01*
X044481Y0406D01*
X044364Y040464D01*
X04427Y040311D01*
X044201Y040144D01*
X044159Y03997D01*
X044145Y039791D01*
X044159Y039611D01*
X044201Y039437D01*
X04427Y039271D01*
X044364Y039117D01*
X044481Y038981D01*
X044617Y038864D01*
X044771Y03877D01*
X044937Y038701D01*
X045111Y038659D01*
X045291Y038645D01*
X04547Y038659D01*
X045644Y038701D01*
X04581Y03877D01*
X045964Y038864D01*
X0461Y038981D01*
X046217Y039117D01*
X046311Y039271D01*
X04638Y039437D01*
X046422Y039611D01*
X046436Y039791D01*
X046422Y03997D01*
X04638Y040144D01*
X046311Y040311D01*
X046217Y040464D01*
X0461Y0406D01*
X045964Y040717D01*
X04581Y040811D01*
X045644Y04088D01*
X04547Y040922D01*
X045291Y040936D01*
D02*
G37*
G36*
X009857D02*
X009678Y040922D01*
X009504Y04088D01*
X009338Y040811D01*
X009184Y040717D01*
X009048Y0406D01*
X008931Y040464D01*
X008837Y040311D01*
X008768Y040144D01*
X008726Y03997D01*
X008712Y039791D01*
X008726Y039611D01*
X008768Y039437D01*
X008837Y039271D01*
X008931Y039117D01*
X009048Y038981D01*
X009184Y038864D01*
X009338Y03877D01*
X009504Y038701D01*
X009678Y038659D01*
X009857Y038645D01*
X010037Y038659D01*
X010211Y038701D01*
X010377Y03877D01*
X010531Y038864D01*
X010667Y038981D01*
X010784Y039117D01*
X010878Y039271D01*
X010947Y039437D01*
X010989Y039611D01*
X011003Y039791D01*
X010989Y03997D01*
X010947Y040144D01*
X010878Y040311D01*
X010784Y040464D01*
X010667Y0406D01*
X010531Y040717D01*
X010377Y040811D01*
X010211Y04088D01*
X010037Y040922D01*
X009857Y040936D01*
D02*
G37*
G36*
X033531Y034376D02*
X033418Y034361D01*
X033313Y034317D01*
X033222Y034248D01*
X033153Y034157D01*
X033109Y034052D01*
X033094Y033939D01*
X033109Y033826D01*
X033153Y033721D01*
X033222Y03363D01*
X033313Y033561D01*
X033418Y033517D01*
X033531Y033502D01*
X033644Y033517D01*
X033749Y033561D01*
X03384Y03363D01*
X033909Y033721D01*
X033953Y033826D01*
X033968Y033939D01*
X033953Y034052D01*
X033909Y034157D01*
X03384Y034248D01*
X033749Y034317D01*
X033644Y034361D01*
X033531Y034376D01*
D02*
G37*
G36*
X033242Y037552D02*
X032336D01*
Y036726D01*
X033242D01*
Y036881D01*
X033601D01*
X034089Y036393D01*
Y02977D01*
X034072Y029748D01*
X03404Y029671D01*
X034029Y029589D01*
X03404Y029507D01*
X034072Y02943D01*
X034089Y029408D01*
Y02797D01*
X034072Y027948D01*
X03404Y027871D01*
X034029Y027789D01*
X03404Y027707D01*
X034072Y02763D01*
X034089Y027608D01*
Y02617D01*
X034072Y026148D01*
X03404Y026071D01*
X034029Y025989D01*
X03404Y025907D01*
X034072Y02583D01*
X034089Y025808D01*
Y02437D01*
X034072Y024348D01*
X03404Y024271D01*
X034029Y024189D01*
X03404Y024107D01*
X034072Y02403D01*
X034089Y024008D01*
Y02257D01*
X034072Y022548D01*
X03404Y022471D01*
X034029Y022389D01*
X03404Y022307D01*
X034072Y02223D01*
X034089Y022208D01*
Y02072D01*
X034072Y020698D01*
X03404Y020621D01*
X034029Y020539D01*
X03404Y020457D01*
X034072Y02038D01*
X034089Y020358D01*
Y01892D01*
X034072Y018898D01*
X03404Y018821D01*
X034029Y018739D01*
X03404Y018657D01*
X034072Y01858D01*
X034089Y018558D01*
Y013603D01*
X034098Y013536D01*
X034123Y013474D01*
X034164Y013421D01*
X036192Y011393D01*
Y010906D01*
X036078Y010847D01*
X035973Y010903D01*
X035858Y010938D01*
X035739Y010949D01*
X03562Y010938D01*
X035505Y010903D01*
X0354Y010847D01*
X035307Y010771D01*
X035231Y010678D01*
X035175Y010573D01*
X03514Y010458D01*
X035129Y010339D01*
X035138Y010243D01*
X034236Y009342D01*
X034179Y009268D01*
X034144Y009181D01*
X034132Y009089D01*
Y007296D01*
X033582D01*
Y005482D01*
X035396D01*
Y007296D01*
X034846D01*
Y008941D01*
X035643Y009738D01*
X035739Y009729D01*
X035858Y00974D01*
X035973Y009775D01*
X036078Y009831D01*
X036192Y009772D01*
Y009157D01*
X035946Y008911D01*
X035858Y008938D01*
X035739Y008949D01*
X03562Y008938D01*
X035505Y008903D01*
X0354Y008847D01*
X035307Y008771D01*
X035231Y008678D01*
X035175Y008573D01*
X03514Y008458D01*
X035129Y008339D01*
X03514Y00822D01*
X035175Y008105D01*
X035231Y008D01*
X035307Y007907D01*
X0354Y007831D01*
X035505Y007775D01*
X03562Y00774D01*
X035739Y007729D01*
X035858Y00774D01*
X035973Y007775D01*
X036078Y007831D01*
X036171Y007907D01*
X036247Y008D01*
X036303Y008105D01*
X036338Y00822D01*
X036349Y008339D01*
X036338Y008458D01*
X036311Y008546D01*
X036633Y008867D01*
X036674Y008921D01*
X036699Y008983D01*
X036708Y00905D01*
Y0115D01*
X036699Y011567D01*
X036674Y011629D01*
X036633Y011683D01*
X035188Y013127D01*
X035233Y013236D01*
X035847D01*
Y014142D01*
X034941D01*
Y013528D01*
X034832Y013483D01*
X034605Y01371D01*
Y015491D01*
X034723Y01554D01*
X035356Y014906D01*
X03541Y014865D01*
X035472Y01484D01*
X035539Y014831D01*
X038882D01*
X040231Y013482D01*
Y008489D01*
X04024Y008422D01*
X040265Y00836D01*
X040306Y008306D01*
X042682Y005931D01*
Y004646D01*
X042531D01*
Y003632D01*
X043546D01*
Y004646D01*
X043396D01*
Y005841D01*
X045633Y008078D01*
X045639Y008077D01*
X045771Y008095D01*
X045895Y008146D01*
X046001Y008227D01*
X046082Y008333D01*
X046133Y008457D01*
X046151Y008589D01*
X046133Y008721D01*
X046082Y008845D01*
X046003Y008948D01*
X046006Y008963D01*
X046045Y009066D01*
X046146D01*
Y010081D01*
X045951D01*
Y010604D01*
X046096Y010681D01*
X046234Y010794D01*
X046347Y010932D01*
X046431Y01109D01*
X046483Y011261D01*
X046501Y011439D01*
X046483Y011617D01*
X046431Y011788D01*
X046347Y011946D01*
X046234Y012084D01*
X046096Y012197D01*
X045938Y012281D01*
X045767Y012333D01*
X045589Y012351D01*
X045411Y012333D01*
X04524Y012281D01*
X045082Y012197D01*
X044944Y012084D01*
X044831Y011946D01*
X044747Y011788D01*
X044695Y011617D01*
X044677Y011439D01*
X044695Y011261D01*
X044747Y01109D01*
X044831Y010932D01*
X044944Y010794D01*
X045082Y010681D01*
X045237Y010598D01*
Y010081D01*
X045132D01*
Y009066D01*
X045233D01*
X045272Y008963D01*
X045275Y008948D01*
X045196Y008845D01*
X045145Y008721D01*
X045127Y008589D01*
X045128Y008583D01*
X042944Y006399D01*
X040747Y008596D01*
Y013589D01*
X040738Y013656D01*
X040713Y013718D01*
X040671Y013771D01*
X039171Y015271D01*
X039118Y015313D01*
X039056Y015338D01*
X038989Y015347D01*
X035646D01*
X035047Y015946D01*
Y016232D01*
X035161Y016293D01*
X035271Y016248D01*
X035389Y016232D01*
X035507Y016248D01*
X035617Y016293D01*
X035712Y016366D01*
X035784Y016461D01*
X03583Y016571D01*
X035846Y016689D01*
X035835Y01677D01*
X037821Y018756D01*
X037863Y01881D01*
X037888Y018872D01*
X037897Y018939D01*
Y019203D01*
X037987Y019271D01*
X038065Y019373D01*
X038075Y019398D01*
X038203D01*
X038213Y019373D01*
X038291Y019271D01*
X038393Y019193D01*
X038512Y019144D01*
X038639Y019127D01*
X038766Y019144D01*
X038885Y019193D01*
X038987Y019271D01*
X039065Y019373D01*
X039114Y019492D01*
X039131Y019619D01*
Y019959D01*
X039114Y020086D01*
X039065Y020205D01*
X038987Y020307D01*
X038885Y020385D01*
X038766Y020434D01*
X038639Y020451D01*
X038512Y020434D01*
X038393Y020385D01*
X038291Y020307D01*
X038213Y020205D01*
X038203Y02018D01*
X038075D01*
X038065Y020205D01*
X037987Y020307D01*
X037885Y020385D01*
X037766Y020434D01*
X037639Y020451D01*
X037512Y020434D01*
X037393Y020385D01*
X037291Y020307D01*
X037213Y020205D01*
X037164Y020086D01*
X037147Y019959D01*
Y019619D01*
X037164Y019492D01*
X037213Y019373D01*
X037291Y019271D01*
X037381Y019203D01*
Y019046D01*
X03547Y017135D01*
X035389Y017146D01*
X035271Y01713D01*
X035212Y017106D01*
X035095Y017174D01*
X035087Y017252D01*
X036521Y018686D01*
X036563Y01874D01*
X036588Y018802D01*
X036597Y018869D01*
Y030024D01*
X037333Y030761D01*
X037397Y030752D01*
X03751Y030767D01*
X037615Y030811D01*
X037706Y03088D01*
X037775Y030971D01*
X037819Y031076D01*
X037834Y031189D01*
X037819Y031302D01*
X037775Y031407D01*
X037706Y031498D01*
X037615Y031567D01*
X03751Y031611D01*
X037397Y031626D01*
X037284Y031611D01*
X037178Y031567D01*
X037088Y031498D01*
X037019Y031407D01*
X036975Y031302D01*
X03696Y031189D01*
X036968Y031126D01*
X036156Y030314D01*
X036115Y03026D01*
X03609Y030198D01*
X036081Y030131D01*
Y018976D01*
X034723Y017618D01*
X034605Y017667D01*
Y018373D01*
X034622Y018394D01*
X034723Y018446D01*
X034757Y018432D01*
X034839Y018421D01*
X034921Y018432D01*
X034998Y018464D01*
X035064Y018514D01*
X035114Y01858D01*
X035146Y018657D01*
X035157Y018739D01*
X035146Y018821D01*
X035114Y018898D01*
X035064Y018964D01*
X034998Y019014D01*
X034921Y019046D01*
X034839Y019057D01*
X034757Y019046D01*
X034723Y019032D01*
X034622Y019084D01*
X034605Y019105D01*
Y020173D01*
X034622Y020194D01*
X034723Y020246D01*
X034757Y020232D01*
X034839Y020221D01*
X034921Y020232D01*
X034998Y020264D01*
X035064Y020314D01*
X035114Y02038D01*
X035146Y020457D01*
X035157Y020539D01*
X035146Y020621D01*
X035114Y020698D01*
X035064Y020764D01*
X034998Y020814D01*
X034921Y020846D01*
X034839Y020857D01*
X034757Y020846D01*
X034723Y020832D01*
X034622Y020884D01*
X034605Y020905D01*
Y022023D01*
X034622Y022044D01*
X034723Y022096D01*
X034757Y022082D01*
X034839Y022071D01*
X034921Y022082D01*
X034998Y022114D01*
X035064Y022164D01*
X035114Y02223D01*
X035146Y022307D01*
X035157Y022389D01*
X035146Y022471D01*
X035114Y022548D01*
X035064Y022614D01*
X034998Y022664D01*
X034921Y022696D01*
X034839Y022707D01*
X034757Y022696D01*
X034723Y022682D01*
X034622Y022734D01*
X034605Y022755D01*
Y023823D01*
X034622Y023844D01*
X034723Y023896D01*
X034757Y023882D01*
X034839Y023871D01*
X034921Y023882D01*
X034998Y023914D01*
X035064Y023964D01*
X035114Y02403D01*
X035146Y024107D01*
X035157Y024189D01*
X035146Y024271D01*
X035114Y024348D01*
X035064Y024414D01*
X034998Y024464D01*
X034921Y024496D01*
X034839Y024507D01*
X034757Y024496D01*
X034723Y024482D01*
X034622Y024534D01*
X034605Y024555D01*
Y025623D01*
X034622Y025644D01*
X034723Y025696D01*
X034757Y025682D01*
X034839Y025671D01*
X034921Y025682D01*
X034998Y025714D01*
X035064Y025764D01*
X035114Y02583D01*
X035146Y025907D01*
X035157Y025989D01*
X035146Y026071D01*
X035114Y026148D01*
X035064Y026214D01*
X034998Y026264D01*
X034921Y026296D01*
X034839Y026307D01*
X034757Y026296D01*
X034723Y026282D01*
X034622Y026334D01*
X034605Y026355D01*
Y027423D01*
X034622Y027444D01*
X034723Y027496D01*
X034757Y027482D01*
X034839Y027471D01*
X034921Y027482D01*
X034998Y027514D01*
X035064Y027564D01*
X035114Y02763D01*
X035146Y027707D01*
X035157Y027789D01*
X035146Y027871D01*
X035114Y027948D01*
X035064Y028014D01*
X034998Y028064D01*
X034921Y028096D01*
X034839Y028107D01*
X034757Y028096D01*
X034723Y028082D01*
X034622Y028134D01*
X034605Y028155D01*
Y029223D01*
X034622Y029244D01*
X034723Y029296D01*
X034757Y029282D01*
X034839Y029271D01*
X034921Y029282D01*
X034998Y029314D01*
X035064Y029364D01*
X035114Y02943D01*
X035146Y029507D01*
X035157Y029589D01*
X035146Y029671D01*
X035114Y029748D01*
X035064Y029814D01*
X034998Y029864D01*
X034921Y029896D01*
X034839Y029907D01*
X034757Y029896D01*
X034723Y029882D01*
X034622Y029934D01*
X034605Y029955D01*
Y0365D01*
X034596Y036567D01*
X03457Y036629D01*
X034529Y036683D01*
X03389Y037321D01*
X033837Y037363D01*
X033775Y037388D01*
X033708Y037397D01*
X033242D01*
Y037552D01*
D02*
G37*
G36*
X039239Y0268D02*
X03912Y026785D01*
X039008Y026739D01*
X038913Y026665D01*
X038839Y02657D01*
X038801Y026476D01*
X038739Y026467D01*
X038677Y026476D01*
X038639Y02657D01*
X038565Y026665D01*
X03847Y026739D01*
X038358Y026785D01*
X038239Y0268D01*
X03812Y026785D01*
X038008Y026739D01*
X037913Y026665D01*
X037839Y02657D01*
X037793Y026458D01*
X037778Y026339D01*
Y026039D01*
X037793Y02592D01*
X037839Y025808D01*
X037913Y025713D01*
X037981Y02566D01*
Y025451D01*
X03799Y025384D01*
X038015Y025322D01*
X038056Y025269D01*
X039972Y023353D01*
Y018437D01*
X03944Y017905D01*
X038937D01*
X038898Y017956D01*
X038807Y018025D01*
X038702Y018069D01*
X038589Y018084D01*
X038476Y018069D01*
X038371Y018025D01*
X03828Y017956D01*
X038211Y017865D01*
X038167Y01776D01*
X038152Y017647D01*
X038167Y017534D01*
X038211Y017428D01*
X03828Y017338D01*
X038371Y017269D01*
X038476Y017225D01*
X038589Y01721D01*
X038702Y017225D01*
X038807Y017269D01*
X038898Y017338D01*
X038937Y017389D01*
X039547D01*
X039614Y017398D01*
X039676Y017423D01*
X039729Y017464D01*
X040413Y018147D01*
X040454Y018201D01*
X040479Y018263D01*
X040488Y01833D01*
Y018361D01*
X040606Y018417D01*
X04065Y018381D01*
X040732Y018338D01*
Y016072D01*
X039946D01*
Y015206D01*
X040021D01*
Y014949D01*
X040034Y014857D01*
X040069Y014771D01*
X040126Y014697D01*
X041293Y01353D01*
Y01326D01*
X041079D01*
Y012118D01*
X041293D01*
Y010617D01*
X041305Y010524D01*
X04134Y010438D01*
X041397Y010364D01*
X041768Y009993D01*
Y009357D01*
X04291D01*
Y010499D01*
X042274D01*
X042007Y010765D01*
Y012118D01*
X042221D01*
Y01326D01*
X042007D01*
Y013678D01*
X041995Y01377D01*
X04196Y013857D01*
X041903Y013931D01*
X040746Y015088D01*
X040749Y015114D01*
X040812Y015206D01*
X04093Y015219D01*
X040936Y015217D01*
X041049Y015202D01*
X041162Y015217D01*
X041267Y015261D01*
X041358Y01533D01*
X041427Y015421D01*
X041471Y015526D01*
X041486Y015639D01*
X041471Y015752D01*
X041446Y015811D01*
Y018489D01*
X041497Y01855D01*
X041553Y018655D01*
X041588Y01877D01*
X041599Y018889D01*
X041588Y019008D01*
X041553Y019123D01*
X041497Y019228D01*
X041421Y019321D01*
X041328Y019397D01*
X041223Y019453D01*
X041108Y019488D01*
X040989Y019499D01*
X04087Y019488D01*
X040755Y019453D01*
X04065Y019397D01*
X040606Y019361D01*
X040488Y019417D01*
Y02346D01*
X040479Y023527D01*
X040454Y023589D01*
X040413Y023643D01*
X038505Y02555D01*
X03851Y025671D01*
X038565Y025713D01*
X038639Y025808D01*
X038677Y025902D01*
X038739Y025911D01*
X038801Y025902D01*
X038839Y025808D01*
X038913Y025713D01*
X039008Y025639D01*
X03912Y025593D01*
X039239Y025578D01*
X039358Y025593D01*
X03947Y025639D01*
X039565Y025713D01*
X039639Y025808D01*
X039685Y02592D01*
X0397Y026039D01*
Y026339D01*
X039685Y026458D01*
X039639Y02657D01*
X039565Y026665D01*
X03947Y026739D01*
X039358Y026785D01*
X039239Y0268D01*
D02*
G37*
G36*
X042481Y026776D02*
X042368Y026761D01*
X042263Y026717D01*
X042172Y026648D01*
X042103Y026557D01*
X042059Y026452D01*
X042044Y026339D01*
X042059Y026226D01*
X042103Y026121D01*
X042172Y02603D01*
X042263Y025961D01*
X042368Y025917D01*
X042481Y025902D01*
X042594Y025917D01*
X042699Y025961D01*
X04279Y02603D01*
X042859Y026121D01*
X042903Y026226D01*
X042918Y026339D01*
X042903Y026452D01*
X042859Y026557D01*
X04279Y026648D01*
X042699Y026717D01*
X042594Y026761D01*
X042481Y026776D01*
D02*
G37*
G36*
X031139Y039097D02*
X025489D01*
X025422Y039088D01*
X02536Y039063D01*
X025306Y039021D01*
X024856Y038571D01*
X024815Y038518D01*
X02479Y038456D01*
X024781Y038389D01*
Y035639D01*
X02479Y035572D01*
X024815Y03551D01*
X024856Y035456D01*
X025306Y035006D01*
X02536Y034965D01*
X025422Y03494D01*
X025489Y034931D01*
X026739D01*
X026806Y03494D01*
X026868Y034965D01*
X026921Y035006D01*
X027257Y035342D01*
X027298Y035395D01*
X027323Y035457D01*
X027332Y035524D01*
Y035643D01*
X027397Y035692D01*
X027469Y035787D01*
X027515Y035897D01*
X027633D01*
X027679Y035787D01*
X027751Y035692D01*
X027816Y035643D01*
Y025831D01*
X026467Y024482D01*
X024953D01*
X0249Y02455D01*
X024805Y024624D01*
X024711Y024662D01*
X024702Y024724D01*
X024711Y024786D01*
X024805Y024824D01*
X0249Y024898D01*
X024974Y024993D01*
X02502Y025105D01*
X025035Y025224D01*
X02502Y025343D01*
X024974Y025455D01*
X0249Y02555D01*
X024805Y025624D01*
X024711Y025662D01*
X024702Y025724D01*
X024711Y025786D01*
X024805Y025824D01*
X0249Y025898D01*
X024974Y025993D01*
X02502Y026105D01*
X025035Y026224D01*
X02502Y026343D01*
X024974Y026455D01*
X0249Y02655D01*
X024805Y026624D01*
X024711Y026662D01*
X024702Y026724D01*
X024711Y026786D01*
X024805Y026824D01*
X0249Y026898D01*
X024974Y026993D01*
X02502Y027105D01*
X025035Y027224D01*
X02502Y027343D01*
X024974Y027455D01*
X0249Y02755D01*
X024805Y027624D01*
X024711Y027662D01*
X024702Y027724D01*
X024711Y027786D01*
X024805Y027824D01*
X0249Y027898D01*
X024974Y027993D01*
X02502Y028105D01*
X025035Y028224D01*
X02502Y028343D01*
X024974Y028455D01*
X0249Y02855D01*
X024805Y028624D01*
X024711Y028662D01*
X024702Y028724D01*
X024711Y028786D01*
X024805Y028824D01*
X0249Y028898D01*
X024974Y028993D01*
X02502Y029105D01*
X025035Y029224D01*
X02502Y029343D01*
X024974Y029455D01*
X0249Y02955D01*
X024805Y029624D01*
X024711Y029662D01*
X024702Y029724D01*
X024711Y029786D01*
X024805Y029824D01*
X0249Y029898D01*
X024974Y029993D01*
X02502Y030105D01*
X025035Y030224D01*
X02502Y030343D01*
X024974Y030455D01*
X0249Y03055D01*
X024805Y030624D01*
X024711Y030662D01*
X024702Y030724D01*
X024711Y030786D01*
X024805Y030824D01*
X0249Y030898D01*
X024974Y030993D01*
X02502Y031105D01*
X025035Y031224D01*
X02502Y031343D01*
X024974Y031455D01*
X0249Y03155D01*
X024805Y031624D01*
X024711Y031662D01*
X024702Y031724D01*
X024711Y031786D01*
X024805Y031824D01*
X0249Y031898D01*
X024974Y031993D01*
X02502Y032105D01*
X025035Y032224D01*
X02502Y032343D01*
X024974Y032455D01*
X0249Y03255D01*
X024805Y032624D01*
X024711Y032662D01*
X024702Y032724D01*
X024711Y032786D01*
X024805Y032824D01*
X0249Y032898D01*
X024974Y032993D01*
X02502Y033105D01*
X025035Y033224D01*
X02502Y033343D01*
X024974Y033455D01*
X0249Y03355D01*
X024805Y033624D01*
X024711Y033662D01*
X024702Y033724D01*
X024711Y033786D01*
X024805Y033824D01*
X0249Y033898D01*
X024974Y033993D01*
X02502Y034105D01*
X025035Y034224D01*
X02502Y034343D01*
X024974Y034455D01*
X0249Y03455D01*
X024805Y034624D01*
X024693Y03467D01*
X024574Y034685D01*
X024455Y03467D01*
X024343Y034624D01*
X024248Y03455D01*
X024195Y034482D01*
X023524D01*
X023457Y034473D01*
X023395Y034448D01*
X023342Y034407D01*
X023006Y034071D01*
X022965Y034018D01*
X02294Y033956D01*
X022939Y033948D01*
X022815Y033915D01*
X02272Y033989D01*
X022626Y034027D01*
X022617Y034089D01*
X022626Y034151D01*
X02272Y034189D01*
X022815Y034263D01*
X022889Y034358D01*
X022935Y03447D01*
X02295Y034589D01*
X022935Y034708D01*
X022889Y03482D01*
X022815Y034915D01*
X02272Y034989D01*
X022626Y035027D01*
X022617Y035089D01*
X022626Y035151D01*
X02272Y035189D01*
X022815Y035263D01*
X022889Y035358D01*
X022935Y03547D01*
X02295Y035589D01*
X022935Y035708D01*
X022889Y03582D01*
X022815Y035915D01*
X02272Y035989D01*
X022626Y036027D01*
X022617Y036089D01*
X022626Y036151D01*
X02272Y036189D01*
X022815Y036263D01*
X022889Y036358D01*
X022935Y03647D01*
X02295Y036589D01*
X022935Y036708D01*
X022889Y03682D01*
X022815Y036915D01*
X02272Y036989D01*
X022608Y037035D01*
X022489Y03705D01*
X022189D01*
X02207Y037035D01*
X021958Y036989D01*
X021863Y036915D01*
X021789Y03682D01*
X021743Y036708D01*
X021728Y036589D01*
X021743Y03647D01*
X021789Y036358D01*
X021863Y036263D01*
X021958Y036189D01*
X022052Y036151D01*
X022061Y036089D01*
X022052Y036027D01*
X021958Y035989D01*
X021863Y035915D01*
X021789Y03582D01*
X021743Y035708D01*
X021728Y035589D01*
X021743Y03547D01*
X021789Y035358D01*
X021863Y035263D01*
X021958Y035189D01*
X022052Y035151D01*
X022061Y035089D01*
X022052Y035027D01*
X021958Y034989D01*
X021863Y034915D01*
X021789Y03482D01*
X021743Y034708D01*
X021728Y034589D01*
X021743Y03447D01*
X021789Y034358D01*
X021863Y034263D01*
X021958Y034189D01*
X022052Y034151D01*
X022061Y034089D01*
X022052Y034027D01*
X021958Y033989D01*
X021863Y033915D01*
X02181Y033847D01*
X021346D01*
X021088Y034105D01*
Y037948D01*
X021079Y038015D01*
X021054Y038077D01*
X021013Y03813D01*
X02057Y038573D01*
X020517Y038614D01*
X020455Y038639D01*
X020388Y038648D01*
X013D01*
X012933Y038639D01*
X012871Y038614D01*
X012817Y038573D01*
X012256Y038011D01*
X012215Y037958D01*
X01219Y037896D01*
X012181Y037829D01*
Y037283D01*
X01217Y037279D01*
X012059Y037194D01*
X012011Y03713D01*
X011997Y037124D01*
X011881D01*
X011867Y03713D01*
X011819Y037194D01*
X011708Y037279D01*
X011578Y037333D01*
X011439Y037351D01*
X0113Y037333D01*
X01117Y037279D01*
X011059Y037194D01*
X011011Y03713D01*
X010997Y037124D01*
X010881D01*
X010867Y03713D01*
X010819Y037194D01*
X010708Y037279D01*
X010578Y037333D01*
X010439Y037351D01*
X0103Y037333D01*
X01017Y037279D01*
X01009Y037217D01*
X00999Y037253D01*
X009971Y037269D01*
Y037346D01*
X008906D01*
Y036131D01*
X008981D01*
Y033912D01*
X008916Y033862D01*
X008844Y033767D01*
X008798Y033657D01*
X008782Y033539D01*
X008793Y033458D01*
X008497Y033163D01*
X008456Y033109D01*
X008431Y033047D01*
X008422Y03298D01*
Y022198D01*
X008431Y022131D01*
X008456Y022069D01*
X008497Y022015D01*
X008943Y02157D01*
X008932Y021489D01*
X008948Y021371D01*
X008993Y021261D01*
X009066Y021166D01*
X009161Y021093D01*
X009271Y021048D01*
Y02093D01*
X009161Y020884D01*
X009066Y020812D01*
X008993Y020717D01*
X008948Y020607D01*
X008932Y020489D01*
X008948Y020371D01*
X008993Y020261D01*
X009066Y020166D01*
X009131Y020116D01*
Y019695D01*
X00908Y019656D01*
X009011Y019565D01*
X008967Y01946D01*
X008952Y019347D01*
X008967Y019234D01*
X009011Y019128D01*
X00908Y019038D01*
X009171Y018969D01*
X009276Y018925D01*
X009389Y01891D01*
X009502Y018925D01*
X009607Y018969D01*
X009698Y019038D01*
X009767Y019128D01*
X009811Y019234D01*
X009826Y019347D01*
X009811Y01946D01*
X009767Y019565D01*
X009698Y019656D01*
X009647Y019695D01*
Y020116D01*
X009712Y020166D01*
X009784Y020261D01*
X00983Y020371D01*
X009846Y020489D01*
X009835Y02057D01*
X010271Y021006D01*
X010313Y02106D01*
X010401Y021099D01*
X010439Y021103D01*
X010452Y0211D01*
X010461Y021093D01*
X010571Y021048D01*
Y02093D01*
X010461Y020884D01*
X010366Y020812D01*
X010294Y020717D01*
X010248Y020607D01*
X010232Y020489D01*
X010248Y020371D01*
X010294Y020261D01*
X010366Y020166D01*
X010431Y020116D01*
Y019695D01*
X01038Y019656D01*
X010311Y019565D01*
X010267Y01946D01*
X010252Y019347D01*
X010267Y019234D01*
X010311Y019128D01*
X01038Y019038D01*
X010471Y018969D01*
X010576Y018925D01*
X010689Y01891D01*
X010802Y018925D01*
X010907Y018969D01*
X010998Y019038D01*
X011067Y019128D01*
X011111Y019234D01*
X011126Y019347D01*
X011111Y01946D01*
X011067Y019565D01*
X010998Y019656D01*
X010947Y019695D01*
Y020116D01*
X011012Y020166D01*
X011084Y020261D01*
X01113Y020371D01*
X011146Y020489D01*
X011135Y02057D01*
X011473Y020907D01*
X011514Y020961D01*
X011539Y021023D01*
X011541Y021036D01*
X011659Y021093D01*
X011661Y021093D01*
X011771Y021048D01*
Y02093D01*
X011661Y020884D01*
X011566Y020812D01*
X011494Y020717D01*
X011448Y020607D01*
X011432Y020489D01*
X011448Y020371D01*
X011494Y020261D01*
X011566Y020166D01*
X011631Y020116D01*
Y019656D01*
X01163Y019656D01*
X011561Y019565D01*
X011517Y01946D01*
X011502Y019347D01*
X011517Y019234D01*
X011561Y019128D01*
X01163Y019038D01*
X011721Y018969D01*
X011826Y018925D01*
X011939Y01891D01*
X012052Y018925D01*
X012157Y018969D01*
X012248Y019038D01*
X012317Y019128D01*
X012361Y019234D01*
X012376Y019347D01*
X012361Y01946D01*
X012317Y019565D01*
X012248Y019656D01*
X012157Y019725D01*
X012147Y019729D01*
Y020116D01*
X012212Y020166D01*
X012284Y020261D01*
X01233Y020371D01*
X012346Y020489D01*
X012335Y02057D01*
X012721Y020956D01*
X012763Y02101D01*
X012788Y021072D01*
X012789Y021081D01*
X012912Y021131D01*
X012961Y021093D01*
X013071Y021048D01*
Y02093D01*
X012961Y020884D01*
X012866Y020812D01*
X012794Y020717D01*
X012748Y020607D01*
X012732Y020489D01*
X012748Y020371D01*
X012794Y020261D01*
X012866Y020166D01*
X012931Y020116D01*
Y019695D01*
X01288Y019656D01*
X012811Y019565D01*
X012767Y01946D01*
X012752Y019347D01*
X012767Y019234D01*
X012811Y019128D01*
X01288Y019038D01*
X012971Y018969D01*
X013076Y018925D01*
X013189Y01891D01*
X013302Y018925D01*
X013407Y018969D01*
X013498Y019038D01*
X013567Y019128D01*
X013611Y019234D01*
X013626Y019347D01*
X013611Y01946D01*
X013567Y019565D01*
X013498Y019656D01*
X013447Y019695D01*
Y020116D01*
X013512Y020166D01*
X013584Y020261D01*
X01363Y020371D01*
X013646Y020489D01*
X013635Y02057D01*
X013973Y020907D01*
X014014Y020961D01*
X014039Y021023D01*
X014046Y021071D01*
X014093Y021104D01*
X014166Y021128D01*
X014211Y021093D01*
X014321Y021048D01*
Y02093D01*
X014211Y020884D01*
X014116Y020812D01*
X014044Y020717D01*
X013998Y020607D01*
X013982Y020489D01*
X013998Y020371D01*
X014044Y020261D01*
X014116Y020166D01*
X014181Y020116D01*
Y019695D01*
X01413Y019656D01*
X014061Y019565D01*
X014017Y01946D01*
X014002Y019347D01*
X014017Y019234D01*
X014061Y019128D01*
X01413Y019038D01*
X014221Y018969D01*
X014326Y018925D01*
X014439Y01891D01*
X014552Y018925D01*
X014657Y018969D01*
X014748Y019038D01*
X014817Y019128D01*
X014861Y019234D01*
X014876Y019347D01*
X014861Y01946D01*
X014817Y019565D01*
X014748Y019656D01*
X014697Y019695D01*
Y020116D01*
X014762Y020166D01*
X014834Y020261D01*
X01488Y020371D01*
X014896Y020489D01*
X014885Y02057D01*
X015223Y020907D01*
X015264Y020961D01*
X015289Y021023D01*
X015298Y02109D01*
Y021126D01*
X015416Y021166D01*
X015511Y021093D01*
X015621Y021048D01*
Y02093D01*
X015511Y020884D01*
X015416Y020812D01*
X015344Y020717D01*
X015298Y020607D01*
X015282Y020489D01*
X015298Y020371D01*
X015344Y020261D01*
X015416Y020166D01*
X015481Y020116D01*
Y019695D01*
X01543Y019656D01*
X015361Y019565D01*
X015317Y01946D01*
X015302Y019347D01*
X015317Y019234D01*
X015361Y019128D01*
X01543Y019038D01*
X015521Y018969D01*
X015626Y018925D01*
X015739Y01891D01*
X015802Y018918D01*
X016325Y018396D01*
X016378Y018355D01*
X01644Y018329D01*
X016507Y018321D01*
X017269D01*
X017336Y018329D01*
X017398Y018355D01*
X017451Y018396D01*
X017971Y018916D01*
X018013Y01897D01*
X018038Y019032D01*
X018047Y019099D01*
Y025389D01*
X018038Y025456D01*
X018013Y025518D01*
X017971Y025571D01*
X017571Y025971D01*
X017518Y026013D01*
X017456Y026038D01*
X017389Y026047D01*
X015089D01*
X015022Y026038D01*
X01496Y026013D01*
X014906Y025971D01*
X014656Y025721D01*
X014615Y025668D01*
X01459Y025606D01*
X014581Y025539D01*
Y025083D01*
X01457Y025079D01*
X014459Y024994D01*
X014411Y02493D01*
X014397Y024924D01*
X014281D01*
X014267Y02493D01*
X014219Y024994D01*
X014108Y025079D01*
X013978Y025133D01*
X013839Y025151D01*
X0137Y025133D01*
X01357Y025079D01*
X013459Y024994D01*
X013411Y02493D01*
X013397Y024924D01*
X013281D01*
X013267Y02493D01*
X013219Y024994D01*
X013108Y025079D01*
X012978Y025133D01*
X012839Y025151D01*
X0127Y025133D01*
X01257Y025079D01*
X012459Y024994D01*
X012411Y02493D01*
X012397Y024924D01*
X012281D01*
X012267Y02493D01*
X012219Y024994D01*
X012108Y025079D01*
X011978Y025133D01*
X011839Y025151D01*
X0117Y025133D01*
X01157Y025079D01*
X011459Y024994D01*
X011411Y02493D01*
X011397Y024924D01*
X011281D01*
X011267Y02493D01*
X011219Y024994D01*
X011108Y025079D01*
X010978Y025133D01*
X010839Y025151D01*
X0107Y025133D01*
X01057Y025079D01*
X010459Y024994D01*
X010411Y02493D01*
X010397Y024924D01*
X010281D01*
X010267Y02493D01*
X010219Y024994D01*
X010108Y025079D01*
X009978Y025133D01*
X009839Y025151D01*
X0097Y025133D01*
X00957Y025079D01*
X009459Y024994D01*
X009374Y024883D01*
X00932Y024753D01*
X009302Y024614D01*
Y024464D01*
X00932Y024325D01*
X009374Y024195D01*
X009459Y024084D01*
X00957Y023999D01*
X0097Y023945D01*
X009831Y023928D01*
Y021851D01*
X009713Y021811D01*
X009712Y021812D01*
X009617Y021884D01*
X009507Y02193D01*
X009389Y021946D01*
X009308Y021935D01*
X008938Y022305D01*
Y030871D01*
X009056Y03093D01*
X009071Y030919D01*
X009176Y030875D01*
X009289Y03086D01*
X009402Y030875D01*
X009507Y030919D01*
X009598Y030988D01*
X009667Y031078D01*
X009711Y031184D01*
X009726Y031297D01*
X009711Y03141D01*
X009667Y031515D01*
X009598Y031606D01*
X009507Y031675D01*
X009497Y031679D01*
Y032166D01*
X009562Y032216D01*
X009634Y032311D01*
X00968Y032421D01*
X009696Y032539D01*
X009685Y03262D01*
X010093Y033027D01*
X010134Y033081D01*
X010137Y033089D01*
X010248Y033138D01*
X010278Y033136D01*
X010371Y033098D01*
Y03298D01*
X010261Y032934D01*
X010166Y032862D01*
X010093Y032767D01*
X010048Y032657D01*
X010032Y032539D01*
X010048Y032421D01*
X010093Y032311D01*
X010166Y032216D01*
X010231Y032166D01*
Y031645D01*
X01018Y031606D01*
X010111Y031515D01*
X010067Y03141D01*
X010052Y031297D01*
X010067Y031184D01*
X010111Y031078D01*
X01018Y030988D01*
X010271Y030919D01*
X010376Y030875D01*
X010489Y03086D01*
X010602Y030875D01*
X010707Y030919D01*
X010798Y030988D01*
X010867Y031078D01*
X010911Y031184D01*
X010926Y031297D01*
X010911Y03141D01*
X010867Y031515D01*
X010798Y031606D01*
X010747Y031645D01*
Y032166D01*
X010812Y032216D01*
X010884Y032311D01*
X01093Y032421D01*
X010946Y032539D01*
X010935Y03262D01*
X011233Y032917D01*
X011274Y032971D01*
X011299Y033033D01*
X011308Y0331D01*
Y033163D01*
X011383Y0332D01*
X011426Y033208D01*
X011511Y033143D01*
X011621Y033098D01*
Y03298D01*
X011511Y032934D01*
X011416Y032862D01*
X011343Y032767D01*
X011298Y032657D01*
X011282Y032539D01*
X011298Y032421D01*
X011343Y032311D01*
X011416Y032216D01*
X011481Y032166D01*
Y031645D01*
X01143Y031606D01*
X011361Y031515D01*
X011317Y03141D01*
X011302Y031297D01*
X011317Y031184D01*
X011361Y031078D01*
X01143Y030988D01*
X011521Y030919D01*
X011626Y030875D01*
X011739Y03086D01*
X011852Y030875D01*
X011957Y030919D01*
X012048Y030988D01*
X012117Y031078D01*
X012161Y031184D01*
X012176Y031297D01*
X012161Y03141D01*
X012117Y031515D01*
X012048Y031606D01*
X011997Y031645D01*
Y032166D01*
X012062Y032216D01*
X012134Y032311D01*
X01218Y032421D01*
X012196Y032539D01*
X012185Y03262D01*
X01257Y033005D01*
X012611Y033059D01*
X012615Y033067D01*
X012716Y033122D01*
X012716Y033121D01*
X012761Y033083D01*
X01274Y032947D01*
X012711Y032934D01*
X012616Y032862D01*
X012543Y032767D01*
X012498Y032657D01*
X012482Y032539D01*
X012498Y032421D01*
X012543Y032311D01*
X012616Y032216D01*
X012681Y032166D01*
Y031645D01*
X01263Y031606D01*
X012561Y031515D01*
X012517Y03141D01*
X012502Y031297D01*
X012517Y031184D01*
X012561Y031078D01*
X01263Y030988D01*
X012721Y030919D01*
X012826Y030875D01*
X012939Y03086D01*
X013052Y030875D01*
X013157Y030919D01*
X013248Y030988D01*
X013317Y031078D01*
X013361Y031184D01*
X013376Y031297D01*
X013361Y03141D01*
X013317Y031515D01*
X013248Y031606D01*
X013197Y031645D01*
Y032166D01*
X013262Y032216D01*
X013334Y032311D01*
X01338Y032421D01*
X013396Y032539D01*
X013385Y03262D01*
X013673Y032908D01*
X013714Y032961D01*
X013739Y033023D01*
X013748Y03309D01*
Y033119D01*
X013866Y033177D01*
X013911Y033143D01*
X014021Y033098D01*
Y03298D01*
X013911Y032934D01*
X013816Y032862D01*
X013743Y032767D01*
X013698Y032657D01*
X013682Y032539D01*
X013698Y032421D01*
X013743Y032311D01*
X013816Y032216D01*
X013881Y032166D01*
Y031645D01*
X01383Y031606D01*
X013761Y031515D01*
X013717Y03141D01*
X013702Y031297D01*
X013717Y031184D01*
X013761Y031078D01*
X01383Y030988D01*
X013921Y030919D01*
X014026Y030875D01*
X014139Y03086D01*
X014252Y030875D01*
X014357Y030919D01*
X014448Y030988D01*
X014517Y031078D01*
X014561Y031184D01*
X014576Y031297D01*
X014561Y03141D01*
X014517Y031515D01*
X014448Y031606D01*
X014397Y031645D01*
Y032166D01*
X014462Y032216D01*
X014534Y032311D01*
X01458Y032421D01*
X014596Y032539D01*
X014585Y03262D01*
X014923Y032957D01*
X014964Y033011D01*
X014989Y033073D01*
X015094Y033124D01*
X015179Y033089D01*
X015202Y032972D01*
X015111Y032934D01*
X015016Y032862D01*
X014943Y032767D01*
X014898Y032657D01*
X014882Y032539D01*
X014898Y032421D01*
X014943Y032311D01*
X015016Y032216D01*
X015081Y032166D01*
Y031645D01*
X01503Y031606D01*
X014961Y031515D01*
X014917Y03141D01*
X014902Y031297D01*
X014917Y031184D01*
X014961Y031078D01*
X01503Y030988D01*
X015121Y030919D01*
X015226Y030875D01*
X015339Y03086D01*
X015452Y030875D01*
X015557Y030919D01*
X015648Y030988D01*
X015717Y031078D01*
X015761Y031184D01*
X015776Y031297D01*
X015761Y03141D01*
X015717Y031515D01*
X015648Y031606D01*
X015597Y031645D01*
Y032053D01*
X015612Y032062D01*
X01573Y031996D01*
Y031848D01*
X015738Y031781D01*
X015764Y031719D01*
X015805Y031666D01*
X016111Y03136D01*
X016102Y031297D01*
X016117Y031184D01*
X016161Y031078D01*
X01623Y030988D01*
X016321Y030919D01*
X016426Y030875D01*
X016539Y03086D01*
X016652Y030875D01*
X016757Y030919D01*
X016848Y030988D01*
X016917Y031078D01*
X016961Y031184D01*
X016976Y031297D01*
X016961Y03141D01*
X016917Y031515D01*
X016848Y031606D01*
X016757Y031675D01*
X016652Y031719D01*
X016539Y031734D01*
X016476Y031725D01*
X016256Y031945D01*
X016265Y032065D01*
X016364Y032121D01*
X016421Y032098D01*
X016539Y032082D01*
X016657Y032098D01*
X016767Y032143D01*
X016881Y032082D01*
Y031897D01*
X01689Y03183D01*
X016915Y031768D01*
X016956Y031714D01*
X017311Y03136D01*
X017302Y031297D01*
X017317Y031184D01*
X017361Y031078D01*
X01743Y030988D01*
X017521Y030919D01*
X017626Y030875D01*
X017739Y03086D01*
X017852Y030875D01*
X017957Y030919D01*
X018048Y030988D01*
X018117Y031078D01*
X018161Y031184D01*
X018176Y031297D01*
X018161Y03141D01*
X018117Y031515D01*
X018048Y031606D01*
X017957Y031675D01*
X017852Y031719D01*
X017739Y031734D01*
X017676Y031725D01*
X017426Y031975D01*
X017435Y032065D01*
X017546Y032129D01*
X017621Y032098D01*
X017739Y032082D01*
X017857Y032098D01*
X017967Y032143D01*
X018062Y032216D01*
X018134Y032311D01*
X01818Y032421D01*
X018196Y032539D01*
X01818Y032657D01*
X018134Y032767D01*
X018062Y032862D01*
X017967Y032934D01*
X017857Y03298D01*
Y033098D01*
X017967Y033143D01*
X018062Y033216D01*
X018134Y033311D01*
X01818Y033421D01*
X018292Y033396D01*
Y033128D01*
X018301Y033061D01*
X018326Y032999D01*
X018367Y032945D01*
X018728Y032585D01*
X018743Y03247D01*
X018789Y032358D01*
X018863Y032263D01*
X018958Y032189D01*
X01907Y032143D01*
X019189Y032128D01*
X019489D01*
X019608Y032143D01*
X019674Y03217D01*
X019792Y032107D01*
Y031071D01*
X019674Y031008D01*
X019608Y031035D01*
X019489Y03105D01*
X019189D01*
X01907Y031035D01*
X018958Y030989D01*
X018863Y030915D01*
X018789Y03082D01*
X018743Y030708D01*
X018728Y030589D01*
X018743Y03047D01*
X018789Y030358D01*
X018863Y030263D01*
X018958Y030189D01*
X01907Y030143D01*
X019189Y030128D01*
X019489D01*
X019608Y030143D01*
X019674Y03017D01*
X019792Y030107D01*
Y029776D01*
X01974Y029709D01*
X019705Y029622D01*
X019693Y02953D01*
X019705Y029437D01*
X01974Y029351D01*
X019797Y029277D01*
X019871Y02922D01*
X019957Y029185D01*
X02005Y029173D01*
X020143Y029185D01*
X020229Y02922D01*
X020303Y029277D01*
X02036Y029351D01*
X020395Y029437D01*
X020407Y02953D01*
X020395Y029622D01*
X02036Y029709D01*
X020367Y029729D01*
X020503Y02976D01*
X020756Y029506D01*
X02081Y029465D01*
X020872Y02944D01*
X020939Y029431D01*
X022839D01*
X022906Y02944D01*
X022968Y029465D01*
X023021Y029506D01*
X023222Y029707D01*
X023331Y029662D01*
Y028716D01*
X023222Y028671D01*
X022888Y029005D01*
X022884Y029031D01*
X022848Y029118D01*
X022792Y029192D01*
X022718Y029248D01*
X022631Y029284D01*
X022539Y029296D01*
X022446Y029284D01*
X02236Y029248D01*
X022286Y029192D01*
X022229Y029118D01*
X022194Y029031D01*
X022182Y028939D01*
X022194Y028846D01*
X022229Y02876D01*
X022286Y028686D01*
X022332Y028651D01*
X022343Y028603D01*
X022342Y028557D01*
X022332Y028514D01*
X022284Y028477D01*
X022227Y028403D01*
X022191Y028317D01*
X02218Y028233D01*
X021077Y02713D01*
X021036Y027077D01*
X021011Y027015D01*
X021002Y026948D01*
Y007918D01*
X021011Y007851D01*
X021036Y007789D01*
X021077Y007735D01*
X021356Y007456D01*
X02141Y007415D01*
X021411Y007415D01*
X021387Y007297D01*
X020596D01*
X019778Y008115D01*
X019775Y008164D01*
X019793Y008257D01*
X019865Y008313D01*
X019918Y008381D01*
X020189D01*
X020256Y00839D01*
X020318Y008415D01*
X020371Y008456D01*
X020671Y008756D01*
X020713Y00881D01*
X020738Y008872D01*
X020747Y008939D01*
Y019105D01*
X020738Y019172D01*
X020713Y019234D01*
X020671Y019287D01*
X020287Y019671D01*
X020234Y019713D01*
X020172Y019738D01*
X020105Y019747D01*
X019718D01*
X019665Y019815D01*
X01957Y019889D01*
X019458Y019935D01*
X019339Y01995D01*
X019039D01*
X01892Y019935D01*
X018808Y019889D01*
X018713Y019815D01*
X018639Y01972D01*
X018593Y019608D01*
X018578Y019489D01*
X018593Y01937D01*
X018639Y019258D01*
X018713Y019163D01*
X018808Y019089D01*
X01892Y019043D01*
X019039Y019028D01*
X019339D01*
X019458Y019043D01*
X01957Y019089D01*
X019665Y019163D01*
X019718Y019231D01*
X019998D01*
X020231Y018998D01*
Y009046D01*
X020082Y008897D01*
X019918D01*
X019865Y008965D01*
X01977Y009039D01*
X019658Y009085D01*
X019539Y0091D01*
X019239D01*
X01912Y009085D01*
X019008Y009039D01*
X018913Y008965D01*
X018839Y00887D01*
X018793Y008758D01*
X018778Y008639D01*
X018793Y00852D01*
X018839Y008408D01*
X018913Y008313D01*
X019008Y008239D01*
X01912Y008193D01*
X019211Y008181D01*
Y008059D01*
X01922Y007992D01*
X019245Y00793D01*
X019286Y007876D01*
X020306Y006856D01*
X02036Y006815D01*
X020422Y00679D01*
X020489Y006781D01*
X026389D01*
X026456Y00679D01*
X026518Y006815D01*
X026571Y006856D01*
X027481Y007766D01*
X027523Y00782D01*
X027548Y007882D01*
X027557Y007949D01*
Y008229D01*
X027643Y008295D01*
X02772Y008396D01*
X027769Y008513D01*
X027786Y008639D01*
Y008739D01*
X027769Y008865D01*
X02772Y008982D01*
X027643Y009083D01*
X027542Y00916D01*
X027425Y009209D01*
X027299Y009226D01*
X027173Y009209D01*
X027056Y00916D01*
X026955Y009083D01*
X026878Y008982D01*
X026858Y008935D01*
X02673D01*
X02671Y008982D01*
X026633Y009083D01*
X026547Y009149D01*
Y009632D01*
X026796Y009881D01*
X027989D01*
X028056Y00989D01*
X028118Y009915D01*
X028171Y009956D01*
X029021Y010806D01*
X029063Y01086D01*
X029088Y010922D01*
X029097Y010989D01*
Y022039D01*
X029088Y022106D01*
X029063Y022168D01*
X029021Y022221D01*
X02866Y022583D01*
X028607Y022624D01*
X028545Y022649D01*
X028478Y022658D01*
X027696D01*
X027629Y02271D01*
X027543Y022745D01*
X027485Y022753D01*
X027442Y022841D01*
X027438Y022873D01*
X029813Y025247D01*
X029854Y025301D01*
X029879Y025363D01*
X029888Y02543D01*
Y029391D01*
X029997Y029436D01*
X030124Y029309D01*
X030113Y029224D01*
X030128Y029105D01*
X030174Y028993D01*
X030248Y028898D01*
X030343Y028824D01*
X030437Y028786D01*
X030446Y028724D01*
X030437Y028662D01*
X030343Y028624D01*
X030248Y02855D01*
X030174Y028455D01*
X030128Y028343D01*
X030113Y028224D01*
X030128Y028105D01*
X030174Y027993D01*
X030248Y027898D01*
X030343Y027824D01*
X030437Y027786D01*
X030446Y027724D01*
X030437Y027662D01*
X030343Y027624D01*
X030248Y02755D01*
X030174Y027455D01*
X030128Y027343D01*
X030113Y027224D01*
X030128Y027105D01*
X030174Y026993D01*
X030248Y026898D01*
X030343Y026824D01*
X030437Y026786D01*
X030446Y026724D01*
X030437Y026662D01*
X030343Y026624D01*
X030248Y02655D01*
X030174Y026455D01*
X030128Y026343D01*
X030113Y026224D01*
X030128Y026105D01*
X030174Y025993D01*
X030248Y025898D01*
X030343Y025824D01*
X030437Y025786D01*
X030446Y025724D01*
X030437Y025662D01*
X030343Y025624D01*
X030248Y02555D01*
X030174Y025455D01*
X030128Y025343D01*
X030113Y025224D01*
X030128Y025105D01*
X030174Y024993D01*
X030248Y024898D01*
X030343Y024824D01*
X030437Y024786D01*
X030446Y024724D01*
X030437Y024662D01*
X030343Y024624D01*
X030248Y02455D01*
X030174Y024455D01*
X030128Y024343D01*
X030113Y024224D01*
X030128Y024105D01*
X030174Y023993D01*
X030248Y023898D01*
X030343Y023824D01*
X030437Y023786D01*
X030446Y023724D01*
X030437Y023662D01*
X030343Y023624D01*
X030248Y02355D01*
X030174Y023455D01*
X030128Y023343D01*
X030113Y023224D01*
X030128Y023105D01*
X030174Y022993D01*
X030248Y022898D01*
X030343Y022824D01*
X030437Y022786D01*
X030446Y022724D01*
X030437Y022662D01*
X030343Y022624D01*
X030248Y02255D01*
X030174Y022455D01*
X030128Y022343D01*
X030113Y022224D01*
X030128Y022105D01*
X030174Y021993D01*
X030248Y021898D01*
X030343Y021824D01*
X030437Y021786D01*
X030446Y021724D01*
X030437Y021662D01*
X030343Y021624D01*
X030248Y02155D01*
X030174Y021455D01*
X030128Y021343D01*
X030113Y021224D01*
X030128Y021105D01*
X030174Y020993D01*
X030248Y020898D01*
X030343Y020824D01*
X030437Y020786D01*
X030446Y020724D01*
X030437Y020662D01*
X030343Y020624D01*
X030248Y02055D01*
X030174Y020455D01*
X030128Y020343D01*
X030113Y020224D01*
X030128Y020105D01*
X030174Y019993D01*
X030248Y019898D01*
X030343Y019824D01*
X030437Y019786D01*
X030446Y019724D01*
X030437Y019662D01*
X030343Y019624D01*
X030248Y01955D01*
X030174Y019455D01*
X030128Y019343D01*
X030113Y019224D01*
X030128Y019105D01*
X030174Y018993D01*
X030248Y018898D01*
X030343Y018824D01*
X030437Y018786D01*
X030446Y018724D01*
X030437Y018662D01*
X030343Y018624D01*
X030248Y01855D01*
X030174Y018455D01*
X030128Y018343D01*
X030113Y018224D01*
X030128Y018105D01*
X030174Y017993D01*
X030248Y017898D01*
X030343Y017824D01*
X030437Y017786D01*
X030446Y017724D01*
X030437Y017662D01*
X030343Y017624D01*
X030248Y01755D01*
X030174Y017455D01*
X030128Y017343D01*
X030113Y017224D01*
X030128Y017105D01*
X030174Y016993D01*
X030248Y016898D01*
X030343Y016824D01*
X030437Y016786D01*
X030446Y016724D01*
X030437Y016662D01*
X030343Y016624D01*
X030248Y01655D01*
X030174Y016455D01*
X030128Y016343D01*
X030113Y016224D01*
X030128Y016105D01*
X030174Y015993D01*
X030248Y015898D01*
X030343Y015824D01*
X030403Y0158D01*
X03038Y015682D01*
X030117D01*
Y014767D01*
X031031D01*
Y015682D01*
X030768D01*
X030745Y0158D01*
X030805Y015824D01*
X0309Y015898D01*
X030974Y015993D01*
X03102Y016105D01*
X031035Y016224D01*
X03102Y016343D01*
X030974Y016455D01*
X0309Y01655D01*
X030805Y016624D01*
X030711Y016662D01*
X030702Y016724D01*
X030711Y016786D01*
X030805Y016824D01*
X0309Y016898D01*
X030974Y016993D01*
X03102Y017105D01*
X031035Y017224D01*
X03102Y017343D01*
X030974Y017455D01*
X0309Y01755D01*
X030805Y017624D01*
X030711Y017662D01*
X030702Y017724D01*
X030711Y017786D01*
X030805Y017824D01*
X0309Y017898D01*
X030974Y017993D01*
X03102Y018105D01*
X031035Y018224D01*
X03102Y018343D01*
X030974Y018455D01*
X0309Y01855D01*
X030805Y018624D01*
X030711Y018662D01*
X030702Y018724D01*
X030711Y018786D01*
X030805Y018824D01*
X0309Y018898D01*
X030974Y018993D01*
X03102Y019105D01*
X031035Y019224D01*
X03102Y019343D01*
X030974Y019455D01*
X0309Y01955D01*
X030805Y019624D01*
X030711Y019662D01*
X030702Y019724D01*
X030711Y019786D01*
X030805Y019824D01*
X0309Y019898D01*
X030974Y019993D01*
X03102Y020105D01*
X031035Y020224D01*
X03102Y020343D01*
X030974Y020455D01*
X0309Y02055D01*
X030805Y020624D01*
X030711Y020662D01*
X030702Y020724D01*
X030711Y020786D01*
X030805Y020824D01*
X0309Y020898D01*
X030974Y020993D01*
X03102Y021105D01*
X031035Y021224D01*
X03102Y021343D01*
X030974Y021455D01*
X0309Y02155D01*
X030805Y021624D01*
X030711Y021662D01*
X030702Y021724D01*
X030711Y021786D01*
X030805Y021824D01*
X0309Y021898D01*
X030974Y021993D01*
X03102Y022105D01*
X031035Y022224D01*
X03102Y022343D01*
X030974Y022455D01*
X0309Y02255D01*
X030805Y022624D01*
X030711Y022662D01*
X030702Y022724D01*
X030711Y022786D01*
X030805Y022824D01*
X0309Y022898D01*
X030974Y022993D01*
X03102Y023105D01*
X031035Y023224D01*
X03102Y023343D01*
X030974Y023455D01*
X0309Y02355D01*
X030805Y023624D01*
X030711Y023662D01*
X030702Y023724D01*
X030711Y023786D01*
X030805Y023824D01*
X0309Y023898D01*
X030974Y023993D01*
X03102Y024105D01*
X031035Y024224D01*
X03102Y024343D01*
X030974Y024455D01*
X0309Y02455D01*
X030805Y024624D01*
X030711Y024662D01*
X030702Y024724D01*
X030711Y024786D01*
X030805Y024824D01*
X0309Y024898D01*
X030974Y024993D01*
X03102Y025105D01*
X031035Y025224D01*
X03102Y025343D01*
X030974Y025455D01*
X0309Y02555D01*
X030805Y025624D01*
X030711Y025662D01*
X030702Y025724D01*
X030711Y025786D01*
X030805Y025824D01*
X0309Y025898D01*
X030974Y025993D01*
X03102Y026105D01*
X031035Y026224D01*
X03102Y026343D01*
X030974Y026455D01*
X0309Y02655D01*
X030805Y026624D01*
X030711Y026662D01*
X030702Y026724D01*
X030711Y026786D01*
X030805Y026824D01*
X0309Y026898D01*
X030974Y026993D01*
X03102Y027105D01*
X031035Y027224D01*
X031024Y027309D01*
X033564Y029849D01*
X033605Y029902D01*
X03363Y029964D01*
X033639Y030031D01*
Y030841D01*
X03369Y03088D01*
X033759Y030971D01*
X033803Y031076D01*
X033818Y031189D01*
X033803Y031302D01*
X033759Y031407D01*
X03369Y031498D01*
X033639Y031537D01*
Y032241D01*
X03369Y03228D01*
X033759Y032371D01*
X033803Y032476D01*
X033818Y032589D01*
X033803Y032702D01*
X033759Y032807D01*
X03369Y032898D01*
X0336Y032967D01*
X033494Y033011D01*
X033381Y033026D01*
X033268Y033011D01*
X033163Y032967D01*
X033072Y032898D01*
X033003Y032807D01*
X032959Y032702D01*
X032944Y032589D01*
X032959Y032476D01*
X033003Y032371D01*
X033072Y03228D01*
X033123Y032241D01*
Y031537D01*
X033072Y031498D01*
X033003Y031407D01*
X032959Y031302D01*
X032944Y031189D01*
X032959Y031076D01*
X033003Y030971D01*
X033072Y03088D01*
X033123Y030841D01*
Y030138D01*
X031164Y028179D01*
X031055Y028226D01*
X03104Y028325D01*
X031871Y029156D01*
X031913Y02921D01*
X031938Y029272D01*
X031947Y029339D01*
Y038289D01*
X031938Y038356D01*
X031913Y038418D01*
X031871Y038471D01*
X031321Y039021D01*
X031268Y039063D01*
X031206Y039088D01*
X031139Y039097D01*
D02*
G37*
G36*
X037547Y034376D02*
X037434Y034361D01*
X037328Y034317D01*
X037238Y034248D01*
X037169Y034157D01*
X037125Y034052D01*
X03711Y033939D01*
X037125Y033826D01*
X037169Y033721D01*
X037238Y03363D01*
X037328Y033561D01*
X037434Y033517D01*
X037547Y033502D01*
X03766Y033517D01*
X037765Y033561D01*
X037856Y03363D01*
X037895Y033681D01*
X038032D01*
X038281Y033432D01*
Y029946D01*
X037006Y028671D01*
X036965Y028618D01*
X03694Y028556D01*
X036931Y028489D01*
Y023539D01*
X03694Y023472D01*
X036965Y02341D01*
X037006Y023356D01*
X037365Y022997D01*
X037419Y022956D01*
X037481Y022931D01*
X037548Y022922D01*
X037782D01*
Y022582D01*
X038696D01*
Y023796D01*
X037782D01*
Y023438D01*
X037655D01*
X037447Y023646D01*
Y028382D01*
X038721Y029656D01*
X038763Y02971D01*
X038788Y029772D01*
X038797Y029839D01*
Y033539D01*
X038788Y033606D01*
X038763Y033668D01*
X038721Y033721D01*
X038321Y034121D01*
X038268Y034163D01*
X038206Y034188D01*
X038139Y034197D01*
X037895D01*
X037856Y034248D01*
X037765Y034317D01*
X03766Y034361D01*
X037547Y034376D01*
D02*
G37*
G36*
X019339Y02695D02*
X019039D01*
X01892Y026935D01*
X018808Y026889D01*
X018713Y026815D01*
X018639Y02672D01*
X018593Y026608D01*
X018578Y026489D01*
X018593Y02637D01*
X018639Y026258D01*
X018713Y026163D01*
X018808Y026089D01*
X018902Y026051D01*
X018911Y025989D01*
X018902Y025927D01*
X018808Y025889D01*
X018713Y025815D01*
X018639Y02572D01*
X018593Y025608D01*
X018578Y025489D01*
X018593Y02537D01*
X018639Y025258D01*
X018713Y025163D01*
X018808Y025089D01*
X018902Y025051D01*
X018911Y024989D01*
X018902Y024927D01*
X018808Y024889D01*
X018713Y024815D01*
X018639Y02472D01*
X018593Y024608D01*
X018578Y024489D01*
X018593Y02437D01*
X018639Y024258D01*
X018713Y024163D01*
X018808Y024089D01*
X018902Y024051D01*
X018911Y023989D01*
X018902Y023927D01*
X018808Y023889D01*
X018713Y023815D01*
X018639Y02372D01*
X018593Y023608D01*
X018578Y023489D01*
X018593Y02337D01*
X018639Y023258D01*
X018713Y023163D01*
X018808Y023089D01*
X018902Y023051D01*
X018911Y022989D01*
X018902Y022927D01*
X018808Y022889D01*
X018713Y022815D01*
X018639Y02272D01*
X018593Y022608D01*
X018578Y022489D01*
X018593Y02237D01*
X018639Y022258D01*
X018713Y022163D01*
X018808Y022089D01*
X018902Y022051D01*
X018911Y021989D01*
X018902Y021927D01*
X018808Y021889D01*
X018713Y021815D01*
X018639Y02172D01*
X018593Y021608D01*
X018578Y021489D01*
X018593Y02137D01*
X018639Y021258D01*
X018713Y021163D01*
X018808Y021089D01*
X01892Y021043D01*
X019039Y021028D01*
X019339D01*
X019458Y021043D01*
X01957Y021089D01*
X019665Y021163D01*
X019739Y021258D01*
X019785Y02137D01*
X0198Y021489D01*
X019785Y021608D01*
X019739Y02172D01*
X019665Y021815D01*
X01957Y021889D01*
X019476Y021927D01*
X019467Y021989D01*
X019476Y022051D01*
X01957Y022089D01*
X019665Y022163D01*
X019739Y022258D01*
X019785Y02237D01*
X0198Y022489D01*
X019785Y022608D01*
X019739Y02272D01*
X019665Y022815D01*
X01957Y022889D01*
X019476Y022927D01*
X019467Y022989D01*
X019476Y023051D01*
X01957Y023089D01*
X019665Y023163D01*
X019739Y023258D01*
X019785Y02337D01*
X0198Y023489D01*
X019785Y023608D01*
X019739Y02372D01*
X019665Y023815D01*
X01957Y023889D01*
X019476Y023927D01*
X019467Y023989D01*
X019476Y024051D01*
X01957Y024089D01*
X019665Y024163D01*
X019739Y024258D01*
X019785Y02437D01*
X0198Y024489D01*
X019785Y024608D01*
X019739Y02472D01*
X019665Y024815D01*
X01957Y024889D01*
X019476Y024927D01*
X019467Y024989D01*
X019476Y025051D01*
X01957Y025089D01*
X019665Y025163D01*
X019739Y025258D01*
X019785Y02537D01*
X0198Y025489D01*
X019785Y025608D01*
X019739Y02572D01*
X019665Y025815D01*
X01957Y025889D01*
X019476Y025927D01*
X019467Y025989D01*
X019476Y026051D01*
X01957Y026089D01*
X019665Y026163D01*
X019739Y026258D01*
X019785Y02637D01*
X0198Y026489D01*
X019785Y026608D01*
X019739Y02672D01*
X019665Y026815D01*
X01957Y026889D01*
X019458Y026935D01*
X019339Y02695D01*
D02*
G37*
G36*
X041239Y0267D02*
X041139D01*
X04102Y026685D01*
X040908Y026639D01*
X040813Y026565D01*
X040739Y02647D01*
X040693Y026358D01*
X040678Y026239D01*
X040693Y02612D01*
X040739Y026008D01*
X040813Y025913D01*
X040908Y025839D01*
X040968Y025815D01*
X040945Y025696D01*
X040682D01*
Y024781D01*
X040832D01*
Y02311D01*
X04079D01*
Y021968D01*
X041426D01*
X042632Y020763D01*
Y019382D01*
X042557Y019321D01*
X042481Y019228D01*
X042425Y019123D01*
X04239Y019008D01*
X042379Y018889D01*
X042388Y018793D01*
X042136Y018542D01*
X042079Y018468D01*
X042044Y018381D01*
X042032Y018289D01*
Y015885D01*
X042011Y015857D01*
X041967Y015752D01*
X041952Y015639D01*
X041967Y015526D01*
X042011Y015421D01*
X04208Y01533D01*
X042171Y015261D01*
X042276Y015217D01*
X042389Y015202D01*
X042502Y015217D01*
X042607Y015261D01*
X042698Y01533D01*
X042767Y015421D01*
X042811Y015526D01*
X042826Y015639D01*
X042811Y015752D01*
X042767Y015857D01*
X042746Y015885D01*
Y018141D01*
X042893Y018288D01*
X042989Y018279D01*
X043108Y01829D01*
X043223Y018325D01*
X043328Y018381D01*
X043421Y018457D01*
X043497Y01855D01*
X043553Y018655D01*
X043588Y01877D01*
X043599Y018889D01*
X043588Y019008D01*
X043553Y019123D01*
X043497Y019228D01*
X043421Y019321D01*
X043346Y019382D01*
Y020911D01*
X043334Y021004D01*
X043298Y02109D01*
X043242Y021164D01*
X043242Y021164D01*
X041932Y022474D01*
Y02311D01*
X041546D01*
Y024781D01*
X041696D01*
Y025696D01*
X041433D01*
X04141Y025815D01*
X04147Y025839D01*
X041565Y025913D01*
X041639Y026008D01*
X041685Y02612D01*
X0417Y026239D01*
X041685Y026358D01*
X041639Y02647D01*
X041565Y026565D01*
X04147Y026639D01*
X041358Y026685D01*
X041239Y0267D01*
D02*
G37*
G36*
X046346Y019746D02*
X044531D01*
Y017931D01*
X044602D01*
X044682Y017846D01*
X044682Y017813D01*
Y016032D01*
X046496D01*
Y017846D01*
X046426D01*
X046346Y017931D01*
X046346Y017965D01*
Y019746D01*
D02*
G37*
G36*
X017089Y015768D02*
X016976Y015753D01*
X016871Y015709D01*
X01678Y01564D01*
X016711Y015549D01*
X016667Y015444D01*
X016652Y015331D01*
X016667Y015218D01*
X016711Y015113D01*
X01678Y015022D01*
X016871Y014953D01*
X016976Y014909D01*
X017089Y014894D01*
X017202Y014909D01*
X017307Y014953D01*
X017398Y015022D01*
X017467Y015113D01*
X017511Y015218D01*
X017526Y015331D01*
X017511Y015444D01*
X017467Y015549D01*
X017398Y01564D01*
X017307Y015709D01*
X017202Y015753D01*
X017089Y015768D01*
D02*
G37*
G36*
X015739D02*
X015626Y015753D01*
X015521Y015709D01*
X01543Y01564D01*
X015361Y015549D01*
X015317Y015444D01*
X015302Y015331D01*
X015317Y015218D01*
X015361Y015113D01*
X01543Y015022D01*
X015521Y014953D01*
X015626Y014909D01*
X015739Y014894D01*
X015852Y014909D01*
X015957Y014953D01*
X016048Y015022D01*
X016117Y015113D01*
X016161Y015218D01*
X016176Y015331D01*
X016161Y015444D01*
X016117Y015549D01*
X016048Y01564D01*
X015957Y015709D01*
X015852Y015753D01*
X015739Y015768D01*
D02*
G37*
G36*
X014439D02*
X014326Y015753D01*
X014221Y015709D01*
X01413Y01564D01*
X014061Y015549D01*
X014017Y015444D01*
X014002Y015331D01*
X014017Y015218D01*
X014061Y015113D01*
X01413Y015022D01*
X014221Y014953D01*
X014326Y014909D01*
X014439Y014894D01*
X014552Y014909D01*
X014657Y014953D01*
X014748Y015022D01*
X014817Y015113D01*
X014861Y015218D01*
X014876Y015331D01*
X014861Y015444D01*
X014817Y015549D01*
X014748Y01564D01*
X014657Y015709D01*
X014552Y015753D01*
X014439Y015768D01*
D02*
G37*
G36*
X013189D02*
X013076Y015753D01*
X012971Y015709D01*
X01288Y01564D01*
X012811Y015549D01*
X012767Y015444D01*
X012752Y015331D01*
X012767Y015218D01*
X012811Y015113D01*
X01288Y015022D01*
X012971Y014953D01*
X013076Y014909D01*
X013189Y014894D01*
X013302Y014909D01*
X013407Y014953D01*
X013498Y015022D01*
X013567Y015113D01*
X013611Y015218D01*
X013626Y015331D01*
X013611Y015444D01*
X013567Y015549D01*
X013498Y01564D01*
X013407Y015709D01*
X013302Y015753D01*
X013189Y015768D01*
D02*
G37*
G36*
X011939D02*
X011826Y015753D01*
X011721Y015709D01*
X01163Y01564D01*
X011561Y015549D01*
X011517Y015444D01*
X011502Y015331D01*
X011517Y015218D01*
X011561Y015113D01*
X01163Y015022D01*
X011721Y014953D01*
X011826Y014909D01*
X011939Y014894D01*
X012052Y014909D01*
X012157Y014953D01*
X012248Y015022D01*
X012317Y015113D01*
X012361Y015218D01*
X012376Y015331D01*
X012361Y015444D01*
X012317Y015549D01*
X012248Y01564D01*
X012157Y015709D01*
X012052Y015753D01*
X011939Y015768D01*
D02*
G37*
G36*
X010689D02*
X010576Y015753D01*
X010471Y015709D01*
X01038Y01564D01*
X010311Y015549D01*
X010267Y015444D01*
X010252Y015331D01*
X010267Y015218D01*
X010311Y015113D01*
X01038Y015022D01*
X010471Y014953D01*
X010576Y014909D01*
X010689Y014894D01*
X010802Y014909D01*
X010907Y014953D01*
X010998Y015022D01*
X011067Y015113D01*
X011111Y015218D01*
X011126Y015331D01*
X011111Y015444D01*
X011067Y015549D01*
X010998Y01564D01*
X010907Y015709D01*
X010802Y015753D01*
X010689Y015768D01*
D02*
G37*
G36*
X009389D02*
X009276Y015753D01*
X009171Y015709D01*
X00908Y01564D01*
X009011Y015549D01*
X008967Y015444D01*
X008952Y015331D01*
X008967Y015218D01*
X009011Y015113D01*
X00908Y015022D01*
X009171Y014953D01*
X009276Y014909D01*
X009389Y014894D01*
X009502Y014909D01*
X009607Y014953D01*
X009698Y015022D01*
X009767Y015113D01*
X009811Y015218D01*
X009826Y015331D01*
X009811Y015444D01*
X009767Y015549D01*
X009698Y01564D01*
X009607Y015709D01*
X009502Y015753D01*
X009389Y015768D01*
D02*
G37*
G36*
X038589Y014068D02*
X038476Y014053D01*
X038371Y014009D01*
X03828Y01394D01*
X038211Y01385D01*
X038167Y013744D01*
X038152Y013631D01*
X038167Y013518D01*
X038211Y013413D01*
X03828Y013322D01*
X038371Y013253D01*
X038476Y013209D01*
X038589Y013194D01*
X038702Y013209D01*
X038807Y013253D01*
X038898Y013322D01*
X038967Y013413D01*
X039011Y013518D01*
X039026Y013631D01*
X039011Y013744D01*
X038967Y01385D01*
X038898Y01394D01*
X038807Y014009D01*
X038702Y014053D01*
X038589Y014068D01*
D02*
G37*
G36*
X01944Y017987D02*
X019347Y017975D01*
X019261Y01794D01*
X019187Y017883D01*
X01913Y017809D01*
X019095Y017723D01*
X019083Y01763D01*
X019095Y017537D01*
X01913Y017451D01*
X019182Y017384D01*
Y016093D01*
X01912Y016085D01*
X019008Y016039D01*
X018913Y015965D01*
X018839Y01587D01*
X018793Y015758D01*
X018778Y015639D01*
X018793Y01552D01*
X018839Y015408D01*
X018913Y015313D01*
X019008Y015239D01*
X019102Y015201D01*
X019111Y015139D01*
X019102Y015077D01*
X019008Y015039D01*
X018913Y014965D01*
X018839Y01487D01*
X018793Y014758D01*
X018778Y014639D01*
X018793Y01452D01*
X018839Y014408D01*
X018913Y014313D01*
X019008Y014239D01*
X019102Y014201D01*
X019111Y014139D01*
X019102Y014077D01*
X019008Y014039D01*
X018913Y013965D01*
X018839Y01387D01*
X018793Y013758D01*
X018778Y013639D01*
X018793Y01352D01*
X018839Y013408D01*
X018913Y013313D01*
X019008Y013239D01*
X019102Y013201D01*
X019111Y013139D01*
X019102Y013077D01*
X019008Y013039D01*
X018913Y012965D01*
X018775Y012979D01*
X017473Y014281D01*
X017419Y014323D01*
X017357Y014348D01*
X01729Y014357D01*
X011D01*
X010933Y014348D01*
X010871Y014323D01*
X010817Y014281D01*
X010556Y01402D01*
X010515Y013967D01*
X01049Y013905D01*
X010481Y013838D01*
Y013774D01*
X010395Y013708D01*
X01034Y013636D01*
X010221Y01367D01*
Y013846D01*
X009257D01*
Y012631D01*
X009481D01*
Y010654D01*
X009352Y010525D01*
X009289Y010534D01*
X009176Y010519D01*
X009071Y010475D01*
X00898Y010406D01*
X008911Y010315D01*
X008867Y01021D01*
X008852Y010097D01*
X008867Y009984D01*
X008911Y009878D01*
X00898Y009788D01*
X009071Y009719D01*
X009176Y009675D01*
X009289Y00966D01*
X009402Y009675D01*
X009507Y009719D01*
X009598Y009788D01*
X009667Y009878D01*
X009711Y009984D01*
X009726Y010097D01*
X009717Y01016D01*
X009921Y010364D01*
X009963Y010418D01*
X009988Y01048D01*
X009997Y010547D01*
Y012631D01*
X010221D01*
Y012716D01*
X01034Y012771D01*
X010381Y012735D01*
Y010445D01*
X01033Y010406D01*
X010261Y010315D01*
X010217Y01021D01*
X010202Y010097D01*
X010217Y009984D01*
X010261Y009878D01*
X01033Y009788D01*
X010421Y009719D01*
X010526Y009675D01*
X010639Y00966D01*
X010752Y009675D01*
X010857Y009719D01*
X010948Y009788D01*
X011017Y009878D01*
X011061Y009984D01*
X011076Y010097D01*
X011061Y01021D01*
X011017Y010315D01*
X010948Y010406D01*
X010897Y010445D01*
Y012657D01*
X010982Y012693D01*
X011083Y01277D01*
X01116Y012871D01*
X011175Y012906D01*
X011303D01*
X011318Y012871D01*
X011395Y01277D01*
X011496Y012693D01*
X011613Y012644D01*
X011731Y012628D01*
Y010445D01*
X01168Y010406D01*
X011611Y010315D01*
X011567Y01021D01*
X011552Y010097D01*
X011567Y009984D01*
X011611Y009878D01*
X01168Y009788D01*
X011771Y009719D01*
X011876Y009675D01*
X011989Y00966D01*
X012102Y009675D01*
X012207Y009719D01*
X012298Y009788D01*
X012367Y009878D01*
X012411Y009984D01*
X012426Y010097D01*
X012411Y01021D01*
X012367Y010315D01*
X012298Y010406D01*
X012247Y010445D01*
Y012741D01*
X012243Y012774D01*
X012356Y012821D01*
X012395Y01277D01*
X012481Y012704D01*
Y010697D01*
X01249Y01063D01*
X012515Y010568D01*
X012556Y010514D01*
X012911Y01016D01*
X012902Y010097D01*
X012917Y009984D01*
X012961Y009878D01*
X01303Y009788D01*
X013121Y009719D01*
X013226Y009675D01*
X013339Y00966D01*
X013452Y009675D01*
X013557Y009719D01*
X013648Y009788D01*
X013717Y009878D01*
X013761Y009984D01*
X013776Y010097D01*
X013761Y01021D01*
X013717Y010315D01*
X013648Y010406D01*
X013557Y010475D01*
X013452Y010519D01*
X013339Y010534D01*
X013276Y010525D01*
X012997Y010804D01*
Y012704D01*
X013083Y01277D01*
X01316Y012871D01*
X013175Y012906D01*
X013303D01*
X013318Y012871D01*
X013395Y01277D01*
X013481Y012704D01*
Y011047D01*
X01349Y01098D01*
X013515Y010918D01*
X013556Y010864D01*
X014261Y01016D01*
X014252Y010097D01*
X014267Y009984D01*
X014311Y009878D01*
X01438Y009788D01*
X014471Y009719D01*
X014576Y009675D01*
X014689Y00966D01*
X014802Y009675D01*
X014907Y009719D01*
X014998Y009788D01*
X015067Y009878D01*
X015111Y009984D01*
X015126Y010097D01*
X015111Y01021D01*
X015067Y010315D01*
X014998Y010406D01*
X014907Y010475D01*
X014802Y010519D01*
X014689Y010534D01*
X014626Y010525D01*
X013997Y011154D01*
Y012704D01*
X014083Y01277D01*
X01416Y012871D01*
X014175Y012906D01*
X014303D01*
X014318Y012871D01*
X014395Y01277D01*
X014481Y012704D01*
Y011497D01*
X01449Y01143D01*
X014515Y011368D01*
X014556Y011314D01*
X015661Y01021D01*
X015652Y010147D01*
X015667Y010034D01*
X015711Y009928D01*
X01578Y009838D01*
X015871Y009769D01*
X015976Y009725D01*
X016089Y00971D01*
X016202Y009725D01*
X016307Y009769D01*
X016398Y009838D01*
X016467Y009928D01*
X016511Y010034D01*
X016526Y010147D01*
X016511Y01026D01*
X016467Y010365D01*
X016398Y010456D01*
X016307Y010525D01*
X016202Y010569D01*
X016089Y010584D01*
X016026Y010575D01*
X014997Y011604D01*
Y012704D01*
X015083Y01277D01*
X01516Y012871D01*
X015175Y012906D01*
X015303D01*
X015318Y012871D01*
X015395Y01277D01*
X015481Y012704D01*
Y011897D01*
X01549Y01183D01*
X015515Y011768D01*
X015556Y011714D01*
X017061Y01021D01*
X017052Y010147D01*
X017067Y010034D01*
X017111Y009928D01*
X01718Y009838D01*
X017271Y009769D01*
X017376Y009725D01*
X017489Y00971D01*
X017602Y009725D01*
X017707Y009769D01*
X017798Y009838D01*
X017867Y009928D01*
X017911Y010034D01*
X017926Y010147D01*
X017911Y01026D01*
X017867Y010365D01*
X017798Y010456D01*
X017707Y010525D01*
X017602Y010569D01*
X017489Y010584D01*
X017426Y010575D01*
X015997Y012004D01*
Y012704D01*
X016083Y01277D01*
X01616Y012871D01*
X016175Y012906D01*
X016303D01*
X016318Y012871D01*
X016395Y01277D01*
X016496Y012693D01*
X016613Y012644D01*
X016739Y012627D01*
X016865Y012644D01*
X016982Y012693D01*
X017083Y01277D01*
X01716Y012871D01*
X017209Y012988D01*
X017226Y013114D01*
Y013364D01*
X017209Y01349D01*
X01716Y013607D01*
X01711Y013673D01*
X017141Y01378D01*
X017156Y0138D01*
X017216Y013808D01*
X018567Y012456D01*
X018621Y012415D01*
X018683Y01239D01*
X01875Y012381D01*
X01886D01*
X018913Y012313D01*
X019008Y012239D01*
X019102Y012201D01*
X019111Y012139D01*
X019102Y012077D01*
X019008Y012039D01*
X018913Y011965D01*
X018839Y01187D01*
X018793Y011758D01*
X018778Y011639D01*
X018793Y01152D01*
X018839Y011408D01*
X018913Y011313D01*
X019008Y011239D01*
X019102Y011201D01*
X019111Y011139D01*
X019102Y011077D01*
X019008Y011039D01*
X018913Y010965D01*
X018839Y01087D01*
X018793Y010758D01*
X018778Y010639D01*
X018793Y01052D01*
X018839Y010408D01*
X018913Y010313D01*
X019008Y010239D01*
X01912Y010193D01*
X019239Y010178D01*
X019539D01*
X019658Y010193D01*
X01977Y010239D01*
X019865Y010313D01*
X019939Y010408D01*
X019985Y01052D01*
X02Y010639D01*
X019985Y010758D01*
X019939Y01087D01*
X019865Y010965D01*
X01977Y011039D01*
X019676Y011077D01*
X019667Y011139D01*
X019676Y011201D01*
X01977Y011239D01*
X019865Y011313D01*
X019939Y011408D01*
X019985Y01152D01*
X02Y011639D01*
X019985Y011758D01*
X019939Y01187D01*
X019865Y011965D01*
X01977Y012039D01*
X019676Y012077D01*
X019667Y012139D01*
X019676Y012201D01*
X01977Y012239D01*
X019865Y012313D01*
X019939Y012408D01*
X019985Y01252D01*
X02Y012639D01*
X019985Y012758D01*
X019939Y01287D01*
X019865Y012965D01*
X01977Y013039D01*
X019676Y013077D01*
X019667Y013139D01*
X019676Y013201D01*
X01977Y013239D01*
X019865Y013313D01*
X019939Y013408D01*
X019985Y01352D01*
X02Y013639D01*
X019985Y013758D01*
X019939Y01387D01*
X019865Y013965D01*
X01977Y014039D01*
X019676Y014077D01*
X019667Y014139D01*
X019676Y014201D01*
X01977Y014239D01*
X019865Y014313D01*
X019939Y014408D01*
X019985Y01452D01*
X02Y014639D01*
X019985Y014758D01*
X019939Y01487D01*
X019865Y014965D01*
X01977Y015039D01*
X019676Y015077D01*
X019667Y015139D01*
X019676Y015201D01*
X01977Y015239D01*
X019865Y015313D01*
X019939Y015408D01*
X019985Y01552D01*
X02Y015639D01*
X019985Y015758D01*
X019939Y01587D01*
X019865Y015965D01*
X01977Y016039D01*
X019698Y016068D01*
Y017384D01*
X01975Y017451D01*
X019785Y017537D01*
X019797Y01763D01*
X019785Y017723D01*
X01975Y017809D01*
X019693Y017883D01*
X019619Y01794D01*
X019533Y017975D01*
X01944Y017987D01*
D02*
G37*
G36*
X039672Y011482D02*
X038806D01*
Y010616D01*
X038806D01*
X038819Y010498D01*
X038817Y010492D01*
X038802Y010379D01*
X038817Y010266D01*
X038861Y010161D01*
X03893Y01007D01*
X039021Y010001D01*
X039126Y009957D01*
X039239Y009942D01*
X039352Y009957D01*
X039457Y010001D01*
X039548Y01007D01*
X039617Y010161D01*
X039661Y010266D01*
X039676Y010379D01*
X039661Y010492D01*
X039658Y010498D01*
X039672Y010616D01*
X039672D01*
Y011482D01*
D02*
G37*
G36*
X039239Y009476D02*
X039126Y009461D01*
X039021Y009417D01*
X03893Y009348D01*
X038861Y009257D01*
X038817Y009152D01*
X038802Y009039D01*
X038817Y008926D01*
X038861Y008821D01*
X03893Y00873D01*
X039021Y008661D01*
X039126Y008617D01*
X039239Y008602D01*
X039352Y008617D01*
X039457Y008661D01*
X039548Y00873D01*
X039617Y008821D01*
X039661Y008926D01*
X039676Y009039D01*
X039661Y009152D01*
X039617Y009257D01*
X039548Y009348D01*
X039457Y009417D01*
X039352Y009461D01*
X039239Y009476D01*
D02*
G37*
G36*
X03241Y009221D02*
X031268D01*
Y008079D01*
X031332D01*
Y006896D01*
X031232D01*
Y006633D01*
X031113Y00661D01*
X031089Y00667D01*
X031015Y006765D01*
X03092Y006839D01*
X030808Y006885D01*
X030689Y0069D01*
X03057Y006885D01*
X030458Y006839D01*
X030363Y006765D01*
X030289Y00667D01*
X030243Y006558D01*
X030228Y006439D01*
Y006339D01*
X030243Y00622D01*
X030289Y006108D01*
X030363Y006013D01*
X030458Y005939D01*
X03057Y005893D01*
X030689Y005878D01*
X030808Y005893D01*
X03092Y005939D01*
X031015Y006013D01*
X031089Y006108D01*
X031113Y006168D01*
X031232Y006145D01*
Y005882D01*
X032146D01*
Y006896D01*
X032046D01*
Y008079D01*
X03241D01*
Y009221D01*
D02*
G37*
G36*
X028539Y006268D02*
X028426Y006253D01*
X028321Y006209D01*
X02823Y00614D01*
X028161Y00605D01*
X028117Y005944D01*
X028102Y005831D01*
X028117Y005718D01*
X028161Y005613D01*
X02823Y005522D01*
X028321Y005453D01*
X028426Y005409D01*
X028539Y005394D01*
X028652Y005409D01*
X028757Y005453D01*
X028848Y005522D01*
X028917Y005613D01*
X028961Y005718D01*
X028976Y005831D01*
X028961Y005944D01*
X028917Y00605D01*
X028848Y00614D01*
X028757Y006209D01*
X028652Y006253D01*
X028539Y006268D01*
D02*
G37*
G36*
X045291Y005503D02*
X045111Y005489D01*
X044937Y005447D01*
X044771Y005378D01*
X044617Y005284D01*
X044481Y005167D01*
X044364Y005031D01*
X04427Y004877D01*
X044201Y004711D01*
X044159Y004537D01*
X044145Y004357D01*
X044159Y004178D01*
X044201Y004004D01*
X04427Y003838D01*
X044364Y003684D01*
X044481Y003548D01*
X044617Y003431D01*
X044771Y003337D01*
X044937Y003268D01*
X045111Y003226D01*
X045291Y003212D01*
X04547Y003226D01*
X045644Y003268D01*
X04581Y003337D01*
X045964Y003431D01*
X0461Y003548D01*
X046217Y003684D01*
X046311Y003838D01*
X04638Y004004D01*
X046422Y004178D01*
X046436Y004357D01*
X046422Y004537D01*
X04638Y004711D01*
X046311Y004877D01*
X046217Y005031D01*
X0461Y005167D01*
X045964Y005284D01*
X04581Y005378D01*
X045644Y005447D01*
X04547Y005489D01*
X045291Y005503D01*
D02*
G37*
G36*
X009857D02*
X009678Y005489D01*
X009504Y005447D01*
X009338Y005378D01*
X009184Y005284D01*
X009048Y005167D01*
X008931Y005031D01*
X008837Y004877D01*
X008768Y004711D01*
X008726Y004537D01*
X008712Y004357D01*
X008726Y004178D01*
X008768Y004004D01*
X008837Y003838D01*
X008931Y003684D01*
X009048Y003548D01*
X009184Y003431D01*
X009338Y003337D01*
X009504Y003268D01*
X009678Y003226D01*
X009857Y003212D01*
X010037Y003226D01*
X010211Y003268D01*
X010377Y003337D01*
X010531Y003431D01*
X010667Y003548D01*
X010784Y003684D01*
X010878Y003838D01*
X010947Y004004D01*
X010989Y004178D01*
X011003Y004357D01*
X010989Y004537D01*
X010947Y004711D01*
X010878Y004877D01*
X010784Y005031D01*
X010667Y005167D01*
X010531Y005284D01*
X010377Y005378D01*
X010211Y005447D01*
X010037Y005489D01*
X009857Y005503D01*
D02*
G37*
%LPD*%
G36*
X027098Y038463D02*
X026892Y038257D01*
X02685Y038203D01*
X026825Y038141D01*
X026816Y038074D01*
Y037388D01*
X026751Y037338D01*
X026679Y037244D01*
X026633Y037134D01*
X026515D01*
X02647Y037244D01*
X026397Y037338D01*
X026302Y037411D01*
X026192Y037456D01*
X026074Y037472D01*
X025956Y037456D01*
X025846Y037411D01*
X025751Y037338D01*
X025679Y037244D01*
X025633Y037134D01*
X025617Y037015D01*
X025633Y036897D01*
X025679Y036787D01*
X025751Y036692D01*
X025846Y03662D01*
X025956Y036574D01*
X026074Y036559D01*
X026192Y036574D01*
X026302Y03662D01*
X026397Y036692D01*
X02647Y036787D01*
X026515Y036897D01*
X026633D01*
X026679Y036787D01*
X026751Y036692D01*
X026846Y03662D01*
X026956Y036574D01*
Y036456D01*
X026846Y036411D01*
X026751Y036338D01*
X026679Y036244D01*
X026633Y036134D01*
X026617Y036015D01*
X026633Y035897D01*
X026679Y035787D01*
X026751Y035692D01*
X026738Y035553D01*
X026632Y035447D01*
X025596D01*
X025297Y035746D01*
Y038282D01*
X025596Y038581D01*
X027049D01*
X027098Y038463D01*
D02*
G37*
G36*
X022941Y02798D02*
Y015052D01*
X022823Y014998D01*
X02277Y015039D01*
X022658Y015085D01*
X022539Y0151D01*
X022239D01*
X02212Y015085D01*
X022008Y015039D01*
X021913Y014965D01*
X021839Y01487D01*
X021793Y014758D01*
X021778Y014639D01*
X021793Y01452D01*
X021839Y014408D01*
X021913Y014313D01*
X022008Y014239D01*
X022102Y014201D01*
X022111Y014139D01*
X022102Y014077D01*
X022008Y014039D01*
X021913Y013965D01*
X021839Y01387D01*
X021793Y013758D01*
X021778Y013639D01*
X021793Y01352D01*
X021839Y013408D01*
X021913Y013313D01*
X022008Y013239D01*
X022102Y013201D01*
X022111Y013139D01*
X022102Y013077D01*
X022008Y013039D01*
X021913Y012965D01*
X021839Y01287D01*
X021793Y012758D01*
X021778Y012639D01*
X021793Y01252D01*
X021839Y012408D01*
X021913Y012313D01*
X022008Y012239D01*
X022102Y012201D01*
X022111Y012139D01*
X022102Y012077D01*
X022008Y012039D01*
X021913Y011965D01*
X021839Y01187D01*
X021793Y011758D01*
X021778Y011639D01*
X021793Y01152D01*
X021839Y011408D01*
X021913Y011313D01*
X022008Y011239D01*
X022102Y011201D01*
X022111Y011139D01*
X022102Y011077D01*
X022008Y011039D01*
X021913Y010965D01*
X021839Y01087D01*
X021793Y010758D01*
X021778Y010639D01*
X021793Y01052D01*
X021839Y010408D01*
X021913Y010313D01*
X022008Y010239D01*
X022102Y010201D01*
X022111Y010139D01*
X022102Y010077D01*
X022008Y010039D01*
X021913Y009965D01*
X021839Y00987D01*
X021793Y009758D01*
X021778Y009639D01*
X021793Y00952D01*
X021839Y009408D01*
X021913Y009313D01*
X022008Y009239D01*
X022068Y009215D01*
X022045Y009096D01*
X021781D01*
Y008181D01*
X022996D01*
Y008411D01*
X023019D01*
X023086Y00842D01*
X023148Y008445D01*
X023201Y008486D01*
X023771Y009056D01*
X023813Y00911D01*
X023838Y009172D01*
X023847Y009239D01*
Y011362D01*
X023956Y011407D01*
X024269Y011093D01*
X024262Y011039D01*
Y010939D01*
X024279Y010813D01*
X024328Y010696D01*
X024405Y010595D01*
X024506Y010518D01*
X024623Y010469D01*
X024749Y010452D01*
X024875Y010469D01*
X024992Y010518D01*
X025093Y010595D01*
X02517Y010696D01*
X025219Y010813D01*
X025236Y010939D01*
Y011039D01*
X025219Y011165D01*
X02517Y011282D01*
X025093Y011383D01*
X024992Y01146D01*
X024875Y011509D01*
X024749Y011526D01*
X024623Y011509D01*
X024595Y011498D01*
X024268Y011825D01*
Y014767D01*
X025031D01*
Y015682D01*
X024268D01*
Y016603D01*
X024447Y016782D01*
X024455Y016778D01*
X024574Y016763D01*
X024693Y016778D01*
X024805Y016824D01*
X0249Y016898D01*
X024974Y016993D01*
X02502Y017105D01*
X025035Y017224D01*
X02502Y017343D01*
X024974Y017455D01*
X0249Y01755D01*
X024805Y017624D01*
X024711Y017662D01*
X024702Y017724D01*
X024711Y017786D01*
X024805Y017824D01*
X0249Y017898D01*
X024953Y017966D01*
X026447D01*
X027491Y016922D01*
Y011449D01*
X027405Y011383D01*
X027328Y011282D01*
X027308Y011235D01*
X02718D01*
X02716Y011282D01*
X027083Y011383D01*
X026982Y01146D01*
X026865Y011509D01*
X026739Y011526D01*
X026613Y011509D01*
X026496Y01146D01*
X026395Y011383D01*
X026318Y011282D01*
X026269Y011165D01*
X026252Y011039D01*
Y010939D01*
X026269Y010813D01*
X026318Y010696D01*
X026395Y010595D01*
X026496Y010518D01*
X026561Y010491D01*
X026561Y010363D01*
X02656Y010363D01*
X026506Y010321D01*
X026106Y009921D01*
X026065Y009868D01*
X02604Y009806D01*
X026031Y009739D01*
Y009149D01*
X025945Y009083D01*
X025868Y008982D01*
X025863Y008971D01*
X025735D01*
X02573Y008982D01*
X025653Y009083D01*
X025552Y00916D01*
X025435Y009209D01*
X025309Y009226D01*
X025183Y009209D01*
X025066Y00916D01*
X024965Y009083D01*
X024888Y008982D01*
X024839Y008865D01*
X024822Y008739D01*
Y008639D01*
X024839Y008513D01*
X024888Y008396D01*
X02495Y008315D01*
X024532Y007897D01*
X021646D01*
X021518Y008025D01*
Y01894D01*
X021581Y019031D01*
X021636Y019031D01*
X022796D01*
Y019946D01*
X022533D01*
X02251Y020065D01*
X02257Y020089D01*
X022665Y020163D01*
X022739Y020258D01*
X022785Y02037D01*
X0228Y020489D01*
X022785Y020608D01*
X022739Y02072D01*
X022665Y020815D01*
X02257Y020889D01*
X022476Y020927D01*
X022467Y020989D01*
X022476Y021051D01*
X02257Y021089D01*
X022665Y021163D01*
X022739Y021258D01*
X022785Y02137D01*
X0228Y021489D01*
X022785Y021608D01*
X022739Y02172D01*
X022665Y021815D01*
X02257Y021889D01*
X022476Y021927D01*
X022467Y021989D01*
X022476Y022051D01*
X02257Y022089D01*
X022665Y022163D01*
X022739Y022258D01*
X022785Y02237D01*
X0228Y022489D01*
X022785Y022608D01*
X022739Y02272D01*
X022665Y022815D01*
X02257Y022889D01*
X022476Y022927D01*
X022467Y022989D01*
X022476Y023051D01*
X02257Y023089D01*
X022665Y023163D01*
X022739Y023258D01*
X022785Y02337D01*
X0228Y023489D01*
X022785Y023608D01*
X022739Y02372D01*
X022665Y023815D01*
X02257Y023889D01*
X022476Y023927D01*
X022467Y023989D01*
X022476Y024051D01*
X02257Y024089D01*
X022665Y024163D01*
X022739Y024258D01*
X022785Y02437D01*
X0228Y024489D01*
X022785Y024608D01*
X022739Y02472D01*
X022665Y024815D01*
X02257Y024889D01*
X022476Y024927D01*
X022467Y024989D01*
X022476Y025051D01*
X02257Y025089D01*
X022665Y025163D01*
X022739Y025258D01*
X022785Y02537D01*
X0228Y025489D01*
X022785Y025608D01*
X022739Y02572D01*
X022665Y025815D01*
X02257Y025889D01*
X022458Y025935D01*
X022339Y02595D01*
X022039D01*
X02192Y025935D01*
X021808Y025889D01*
X021713Y025815D01*
X021639Y02572D01*
X021636Y025712D01*
X021518Y025736D01*
Y026841D01*
X022545Y027868D01*
X022629Y027879D01*
X022715Y027915D01*
X022789Y027971D01*
X022823Y028016D01*
X022941Y02798D01*
D02*
G37*
D54*
X017489Y008375D02*
X01855Y009436D01*
X018577D01*
X018779Y009639D02*
X019389D01*
X018577Y009436D02*
X018779Y009639D01*
X017489Y006131D02*
Y008375D01*
X019469Y008059D02*
X020489Y007039D01*
X026389D02*
X027299Y007949D01*
X019389Y008639D02*
X020189D01*
X020489Y007039D02*
X026389D01*
X017639Y033851D02*
Y036314D01*
X017439Y036514D02*
X017639Y036314D01*
X017439Y036514D02*
Y036739D01*
X017639Y033851D02*
X017664Y033826D01*
Y033614D02*
Y033826D01*
Y033614D02*
X017739Y033539D01*
X015439Y036739D02*
X01594Y036238D01*
Y033331D02*
Y036238D01*
X014439Y036573D02*
X01474Y036272D01*
X014439Y036573D02*
Y037439D01*
X01474Y03314D02*
Y036272D01*
X026574Y024224D02*
X028074Y025724D01*
X024574Y024224D02*
X026574D01*
X028074Y025724D02*
Y036015D01*
X024574Y023224D02*
X026474D01*
X029074Y025824D02*
Y036015D01*
X026474Y023224D02*
X029074Y025824D01*
X02963Y02543D02*
Y037598D01*
X024574Y022224D02*
X026424D01*
X02963Y02543D01*
X03001Y029788D02*
X030574Y029224D01*
X03001Y029788D02*
Y037968D01*
X028074Y037624D02*
X028339Y037889D01*
X029339D02*
X02963Y037598D01*
X028339Y037889D02*
X029339D01*
X028074Y037015D02*
Y037624D01*
X027339Y038339D02*
X029639D01*
X03001Y037968D01*
X027074Y038074D02*
X027339Y038339D01*
X027074Y037015D02*
Y038074D01*
X025489Y038839D02*
X031139D01*
X025039Y038389D02*
X025489Y038839D01*
X025039Y035639D02*
Y038389D01*
X031689Y029339D02*
Y038289D01*
X031139Y038839D02*
X031689Y038289D01*
X025489Y035189D02*
X026739D01*
X025039Y035639D02*
X025489Y035189D01*
X027074Y035524D02*
Y036015D01*
X026739Y035189D02*
X027074Y035524D01*
X030574Y028224D02*
X031689Y029339D01*
X034789Y017319D02*
X036339Y018869D01*
X034789Y015839D02*
Y017319D01*
Y015839D02*
X035539Y015089D01*
X038989D02*
X040489Y013589D01*
Y008489D02*
Y013589D01*
X035539Y015089D02*
X038989D01*
X040489Y008489D02*
X043039Y005939D01*
X037189Y023539D02*
Y028489D01*
X038539Y029839D01*
Y033539D01*
X038139Y033939D02*
X038539Y033539D01*
X037547Y033939D02*
X038139D01*
X037548Y02318D02*
X03823D01*
X037189Y023539D02*
X037548Y02318D01*
X036339Y030131D02*
X037397Y031189D01*
X036339Y018869D02*
Y030131D01*
X03823Y02318D02*
X038239Y023189D01*
X035331Y032131D02*
X035789Y032589D01*
X035331Y029589D02*
Y032131D01*
X035789Y032589D02*
X037397D01*
X04023Y01833D02*
Y02346D01*
X038589Y017647D02*
X039547D01*
X04023Y01833D01*
X039239Y023148D02*
Y023189D01*
Y023148D02*
X039512Y022876D01*
X039524D02*
X039639Y02276D01*
X039512Y022876D02*
X039524D01*
X039639Y019789D02*
Y02276D01*
X043059Y015639D02*
X043689D01*
X044089Y016039D02*
Y022089D01*
X043689Y015639D02*
X044089Y016039D01*
X043059Y01272D02*
Y015639D01*
X042739Y022539D02*
X043639D01*
X044089Y022089D01*
X043028Y012689D02*
X043059Y01272D01*
X042874Y008624D02*
X043739Y009489D01*
Y011978D01*
X042339Y00855D02*
X042413Y008624D01*
X042874D01*
X043028Y012689D02*
X043739Y011978D01*
X031689Y0085D02*
X031839Y00865D01*
X01855Y033128D02*
Y037228D01*
X019089Y032589D02*
X019339D01*
X01855Y033128D02*
X019089Y032589D01*
X020939Y029689D02*
X022839D01*
X023189Y030039D01*
Y033889D01*
X023524Y034224D02*
X024574D01*
X023189Y033889D02*
X023524Y034224D01*
X022589Y028939D02*
X023199Y028329D01*
X022539Y028939D02*
X022589D01*
X023199Y010149D02*
Y028329D01*
X023589Y030939D02*
X023874Y031224D01*
X023019Y008669D02*
X023589Y009239D01*
Y030939D01*
X022797Y009788D02*
X022838D01*
X023199Y010149D01*
X022389Y009639D02*
X022648D01*
X022797Y009788D01*
X024524Y017224D02*
X024574D01*
X02401Y011718D02*
Y01671D01*
X024524Y017224D01*
X02401Y011718D02*
X024739Y010989D01*
X024749D01*
X028839D02*
Y022039D01*
X02745Y0224D02*
X028478D01*
X028839Y022039D01*
X026289Y009739D02*
X026689Y010139D01*
X026289Y008689D02*
Y009739D01*
X026689Y010139D02*
X027989D01*
X028839Y010989D01*
X025504Y016224D02*
X025759Y015969D01*
Y010909D02*
Y015969D01*
X025049Y010199D02*
Y010199D01*
X024361Y008767D02*
Y009511D01*
X025049Y010199D01*
Y010199D02*
X025759Y010909D01*
X038875Y00958D02*
X039239D01*
X024639Y007639D02*
X025309Y008309D01*
Y008409D01*
Y008787D01*
X027299Y007949D02*
Y008689D01*
X026554Y018224D02*
X027749Y017029D01*
Y010989D02*
Y017029D01*
X02126Y026948D02*
X022536Y028224D01*
X02126Y007918D02*
Y026948D01*
X023874Y031224D02*
X024574D01*
X022389Y008639D02*
X022419Y008669D01*
X023019D01*
X024574Y016224D02*
X025504D01*
X024574Y018224D02*
X026554D01*
X021539Y007639D02*
X024639D01*
X02126Y007918D02*
X021539Y007639D01*
X020489Y008939D02*
Y019105D01*
X020189Y008639D02*
X020489Y008939D01*
X019189Y019489D02*
X020105D01*
X020489Y019105D01*
X019469Y008059D02*
Y008559D01*
X019389Y008639D02*
X019469Y008559D01*
X016089Y010147D02*
Y010147D01*
X014739Y011497D02*
Y013239D01*
Y011497D02*
X016089Y010147D01*
X011739Y012991D02*
X011989Y012741D01*
Y010097D02*
Y012741D01*
X011739Y012991D02*
Y013239D01*
X010639Y010097D02*
Y012891D01*
X010739Y012991D02*
Y013838D01*
X010639Y012891D02*
X010739Y012991D01*
X017789Y019099D02*
Y025389D01*
X015089Y025789D02*
X017389D01*
X017789Y025389D01*
X014839Y024539D02*
Y025539D01*
X015089Y025789D01*
X017269Y018579D02*
X017789Y019099D01*
X018289Y020787D02*
X018587Y020489D01*
X017739Y027281D02*
X018289Y026731D01*
Y020787D02*
Y026731D01*
X015739Y019347D02*
X016507Y018579D01*
X017269D01*
X017089Y021489D02*
Y024289D01*
X016839Y024539D02*
X017089Y024289D01*
X011839Y024439D02*
X012539Y023739D01*
X011839Y020439D02*
X012539Y021139D01*
Y023739D01*
X011839Y024439D02*
Y024539D01*
X01379Y02109D02*
Y023538D01*
X012839Y024489D02*
X01379Y023538D01*
X012839Y024489D02*
Y024539D01*
X013839Y024464D02*
X01504Y023263D01*
Y02109D02*
Y023263D01*
X013839Y024464D02*
Y024539D01*
X01129Y02109D02*
Y024088D01*
X010839Y024539D02*
Y024539D01*
Y024539D02*
X01129Y024088D01*
X009389Y020489D02*
X010089Y021189D01*
X009839Y024322D02*
Y024539D01*
Y024322D02*
X010089Y024072D01*
Y021189D02*
Y024072D01*
X011889Y019397D02*
X011939Y019347D01*
X011889Y019397D02*
Y020489D01*
X02083Y033998D02*
Y037948D01*
X020388Y03839D02*
X02083Y037948D01*
X013Y03839D02*
X020388D01*
X02044Y030188D02*
Y037238D01*
X019339Y037589D02*
X020089D01*
X02044Y037238D01*
X02153Y03738D02*
X021739Y037589D01*
X02153Y03424D02*
Y03738D01*
X021739Y037589D02*
X022339D01*
X021239Y033589D02*
X022339D01*
X02083Y033998D02*
X021239Y033589D01*
X02044Y030188D02*
X020939Y029689D01*
X017139Y032939D02*
X017739Y033539D01*
X017139Y031897D02*
X017739Y031297D01*
X017139Y031897D02*
Y032939D01*
X015988Y031848D02*
Y032779D01*
X015339Y031297D02*
Y032539D01*
X016539Y03333D02*
Y036639D01*
X015339Y03273D02*
X01594Y033331D01*
X015339Y032539D02*
Y03273D01*
X015988Y032779D02*
X016539Y03333D01*
X015988Y031848D02*
X016539Y031297D01*
X016439Y036739D02*
X016539Y036639D01*
X014839Y037839D02*
X017939D01*
X014439Y037439D02*
X014839Y037839D01*
X017939D02*
X01855Y037228D01*
X013489Y033768D02*
X01349Y033767D01*
Y03309D02*
Y033767D01*
X013489Y033768D02*
Y036689D01*
X013439Y036739D02*
X013489Y036689D01*
X012939Y032539D02*
X01349Y03309D01*
X012388Y033767D02*
X012389Y033768D01*
Y036689D01*
X011739Y032539D02*
X012388Y033188D01*
Y033767D01*
X012439Y036739D02*
Y037829D01*
X012389Y036689D02*
X012439Y036739D01*
X01105Y0331D02*
Y0347D01*
X011439Y035089D02*
Y036739D01*
X01105Y0347D02*
X011439Y035089D01*
X00991Y03466D02*
X010439Y035189D01*
X00991Y03321D02*
Y03466D01*
X010439Y035189D02*
Y036739D01*
X009239Y031347D02*
Y032539D01*
Y031347D02*
X009289Y031297D01*
X009239Y036539D02*
X009439Y036739D01*
X009239Y033539D02*
Y036539D01*
X01944Y015639D02*
Y01763D01*
X010689Y020489D02*
X01129Y02109D01*
X014139Y032539D02*
X01474Y03314D01*
X012439Y037829D02*
X013Y03839D01*
X046497Y025397D02*
Y026339D01*
X045439Y024339D02*
X046497Y025397D01*
X018587Y020489D02*
X019189D01*
X013189D02*
X01379Y02109D01*
X009739Y010547D02*
Y013239D01*
X009289Y010097D02*
X009739Y010547D01*
X012739Y010697D02*
Y013239D01*
Y010697D02*
X013339Y010097D01*
X013739Y011047D02*
Y013239D01*
Y011047D02*
X014689Y010097D01*
X038239Y025451D02*
X04023Y02346D01*
X038239Y025451D02*
Y026189D01*
X014439Y020489D02*
X01504Y02109D01*
X019389Y015639D02*
X01944D01*
X02005Y02953D02*
Y033414D01*
X019875Y033589D02*
X02005Y033414D01*
X019339Y033589D02*
X019875D01*
X010739Y013838D02*
X011Y014099D01*
X01729D01*
X01875Y012639D01*
X019389D01*
X00868Y022198D02*
X009389Y021489D01*
X00868Y022198D02*
Y03298D01*
X009239Y033539D01*
X0405Y004139D02*
X042055D01*
X039989Y00465D02*
X0405Y004139D01*
X039989Y00465D02*
Y006389D01*
X037639Y018939D02*
Y019789D01*
X035389Y016689D02*
X037639Y018939D01*
X030574Y027224D02*
X033381Y030031D01*
Y031189D01*
X015739Y011897D02*
Y013239D01*
Y011897D02*
X017489Y010147D01*
X039239Y007139D02*
Y008369D01*
Y007139D02*
X039989Y006389D01*
X019279Y031589D02*
X019339D01*
X017739Y030049D02*
X019279Y031589D01*
X017739Y027281D02*
Y030049D01*
X015839Y023001D02*
Y024539D01*
Y023001D02*
X01645Y02239D01*
Y021128D02*
Y02239D01*
Y021128D02*
X017089Y020489D01*
X009239Y032539D02*
X00991Y03321D01*
X010489Y032539D02*
X01105Y0331D01*
X032789Y037139D02*
X033708D01*
X034347Y0365D01*
Y029589D02*
Y0365D01*
X035739Y008339D02*
X03645Y00905D01*
Y0115D01*
X034347Y013603D02*
X03645Y0115D01*
X034347Y013603D02*
Y018739D01*
X039239Y00958D02*
Y009709D01*
X0387Y009405D02*
X038875Y00958D01*
X0387Y0085D02*
Y009405D01*
Y0085D02*
X038831Y008369D01*
X039239D01*
X034347Y018739D02*
Y020539D01*
Y027789D02*
Y029589D01*
Y025989D02*
Y027789D01*
Y024189D02*
Y025989D01*
Y020539D02*
Y022389D01*
Y024189D01*
X010689Y019347D02*
Y020489D01*
X014139Y031297D02*
Y032539D01*
X012939Y031297D02*
Y032539D01*
X011739Y031297D02*
Y032539D01*
X010489Y031297D02*
Y032539D01*
X015739Y019347D02*
Y020489D01*
X035331Y018739D02*
Y020539D01*
Y022389D01*
Y024189D01*
Y025989D01*
Y027789D01*
Y029589D01*
X014439Y019347D02*
Y020489D01*
X013189Y019347D02*
Y020489D01*
X017089Y019347D02*
Y020489D01*
X009389Y019347D02*
Y020489D01*
X033381Y031189D02*
Y032589D01*
D55*
X045594Y009618D02*
Y011434D01*
Y009618D02*
X045639Y009573D01*
X045589Y011439D02*
X045594Y011434D01*
X040379Y014949D02*
X04165Y013678D01*
Y010617D02*
Y013678D01*
X040379Y014949D02*
Y015639D01*
X043039Y004139D02*
Y005989D01*
X031689Y006339D02*
Y0085D01*
X040989Y018752D02*
Y018889D01*
Y018752D02*
X041089Y018652D01*
Y01579D02*
Y018652D01*
X041079Y015669D02*
Y01578D01*
X041089Y01579D01*
X041049Y015639D02*
X041079Y015669D01*
X041189Y022711D02*
X042989Y020911D01*
X041189Y022711D02*
Y025239D01*
X042389Y015639D02*
Y018289D01*
X042989Y018889D01*
X043039Y005989D02*
X045639Y008589D01*
X034489Y006389D02*
Y009089D01*
X035739Y010339D01*
X04165Y010617D02*
X042339Y009928D01*
X042989Y018889D02*
Y020911D01*
D56*
X024299Y008689D02*
D03*
X025309D02*
D03*
X026289D02*
D03*
X027299D02*
D03*
X024749Y010989D02*
D03*
X025759D02*
D03*
X026739D02*
D03*
X027749D02*
D03*
D57*
X028539Y009847D02*
D03*
Y005831D02*
D03*
X042481Y026339D02*
D03*
X046497D02*
D03*
X038589Y017647D02*
D03*
Y013631D02*
D03*
X043059Y015639D02*
D03*
X042389D02*
D03*
X041719D02*
D03*
X041049D02*
D03*
X033381Y031189D02*
D03*
X037397D02*
D03*
Y032589D02*
D03*
X033381D02*
D03*
X037547Y033939D02*
D03*
X033531D02*
D03*
X011939Y019347D02*
D03*
Y015331D02*
D03*
X014439Y019347D02*
D03*
Y015331D02*
D03*
X013189Y019347D02*
D03*
Y015331D02*
D03*
X010489Y027281D02*
D03*
Y031297D02*
D03*
X012939Y027281D02*
D03*
Y031297D02*
D03*
X011739Y027281D02*
D03*
Y031297D02*
D03*
X014139Y027281D02*
D03*
Y031297D02*
D03*
X016539Y027281D02*
D03*
Y031297D02*
D03*
X015339Y027281D02*
D03*
Y031297D02*
D03*
X017739D02*
D03*
Y027281D02*
D03*
X010689Y019347D02*
D03*
Y015331D02*
D03*
X015739Y019347D02*
D03*
Y015331D02*
D03*
X017089Y019347D02*
D03*
Y015331D02*
D03*
X009289Y027281D02*
D03*
Y031297D02*
D03*
Y006081D02*
D03*
Y010097D02*
D03*
X014689Y006081D02*
D03*
Y010097D02*
D03*
X010639Y006081D02*
D03*
Y010097D02*
D03*
X011989Y006081D02*
D03*
Y010097D02*
D03*
X013339Y006081D02*
D03*
Y010097D02*
D03*
X016089Y006131D02*
D03*
Y010147D02*
D03*
X017489Y006131D02*
D03*
Y010147D02*
D03*
X039239Y008369D02*
D03*
Y009039D02*
D03*
Y009709D02*
D03*
Y010379D02*
D03*
X009389Y019347D02*
D03*
Y015331D02*
D03*
D58*
X028074Y036015D02*
D03*
X029074D02*
D03*
X027074D02*
D03*
X026074D02*
D03*
X028074Y037015D02*
D03*
X029074D02*
D03*
X027074D02*
D03*
X026074D02*
D03*
X035389Y016689D02*
D03*
X017089Y020489D02*
D03*
Y021489D02*
D03*
X015739Y020489D02*
D03*
Y021489D02*
D03*
X013189Y020489D02*
D03*
Y021489D02*
D03*
X010689Y020489D02*
D03*
Y021489D02*
D03*
X011889Y020489D02*
D03*
Y021489D02*
D03*
X014439Y020489D02*
D03*
Y021489D02*
D03*
X014139Y032539D02*
D03*
Y033539D02*
D03*
X012939Y032539D02*
D03*
Y033539D02*
D03*
X011739Y032539D02*
D03*
Y033539D02*
D03*
X017739D02*
D03*
Y032539D02*
D03*
X016539Y033539D02*
D03*
Y032539D02*
D03*
X015339D02*
D03*
Y033539D02*
D03*
X010489Y032539D02*
D03*
Y033539D02*
D03*
X009389Y020489D02*
D03*
Y021489D02*
D03*
X009239Y032539D02*
D03*
Y033539D02*
D03*
D59*
X030574Y024224D02*
D03*
Y025224D02*
D03*
Y026224D02*
D03*
Y034224D02*
D03*
Y033224D02*
D03*
Y032224D02*
D03*
Y031224D02*
D03*
Y029224D02*
D03*
Y030224D02*
D03*
Y028224D02*
D03*
Y023224D02*
D03*
Y022224D02*
D03*
Y016224D02*
D03*
Y017224D02*
D03*
Y018224D02*
D03*
Y019224D02*
D03*
Y020224D02*
D03*
Y021224D02*
D03*
X024574Y017224D02*
D03*
Y016224D02*
D03*
Y034224D02*
D03*
Y033224D02*
D03*
Y032224D02*
D03*
Y031224D02*
D03*
Y030224D02*
D03*
Y029224D02*
D03*
Y028224D02*
D03*
Y027224D02*
D03*
Y026224D02*
D03*
Y025224D02*
D03*
Y024224D02*
D03*
Y023224D02*
D03*
Y022224D02*
D03*
Y021224D02*
D03*
Y020224D02*
D03*
Y019224D02*
D03*
Y018224D02*
D03*
X030574Y027224D02*
D03*
D60*
Y015224D02*
D03*
X024574D02*
D03*
D61*
X045639Y009573D02*
D03*
D62*
Y008589D02*
D03*
X042055Y004139D02*
D03*
D63*
X045589Y016939D02*
D03*
X045439Y018839D02*
D03*
D64*
X045589Y011439D02*
D03*
X045439Y024339D02*
D03*
X039989Y006389D02*
D03*
D65*
X043039Y004139D02*
D03*
D66*
X042739Y022539D02*
D03*
X043028Y012689D02*
D03*
X042339Y00855D02*
D03*
X031839Y010028D02*
D03*
D67*
X041361Y022539D02*
D03*
X04165Y012689D02*
D03*
D68*
X035394Y013689D02*
D03*
D69*
X039639Y019789D02*
D03*
X038639D02*
D03*
X037639D02*
D03*
D70*
X042989Y018889D02*
D03*
X040989D02*
D03*
X035739Y008339D02*
D03*
Y010339D02*
D03*
D71*
X040379Y015639D02*
D03*
D72*
X042339Y009928D02*
D03*
X031839Y00865D02*
D03*
D73*
X034489Y006389D02*
D03*
D74*
X030689D02*
D03*
D75*
X031689D02*
D03*
D76*
X034347Y022389D02*
D03*
X034839D02*
D03*
X035331D02*
D03*
X034347Y025989D02*
D03*
X034839D02*
D03*
X035331D02*
D03*
X034347Y029589D02*
D03*
X034839D02*
D03*
X035331D02*
D03*
X034347Y027789D02*
D03*
X034839D02*
D03*
X035331D02*
D03*
X034347Y024189D02*
D03*
X034839D02*
D03*
X035331D02*
D03*
X034347Y020539D02*
D03*
X034839D02*
D03*
X035331D02*
D03*
X034347Y018739D02*
D03*
X034839D02*
D03*
X035331D02*
D03*
D77*
X022189Y019489D02*
D03*
X022339Y030589D02*
D03*
X022389Y008639D02*
D03*
D78*
X022189Y020489D02*
D03*
Y021489D02*
D03*
Y022489D02*
D03*
Y023489D02*
D03*
Y024489D02*
D03*
Y025489D02*
D03*
Y026489D02*
D03*
X019189Y019489D02*
D03*
Y020489D02*
D03*
Y021489D02*
D03*
Y022489D02*
D03*
Y023489D02*
D03*
Y024489D02*
D03*
Y025489D02*
D03*
Y026489D02*
D03*
X022339Y031589D02*
D03*
Y032589D02*
D03*
Y033589D02*
D03*
Y034589D02*
D03*
Y035589D02*
D03*
Y036589D02*
D03*
Y037589D02*
D03*
X019339Y030589D02*
D03*
Y031589D02*
D03*
Y032589D02*
D03*
Y033589D02*
D03*
Y034589D02*
D03*
Y035589D02*
D03*
Y036589D02*
D03*
Y037589D02*
D03*
X022389Y009639D02*
D03*
Y010639D02*
D03*
Y011639D02*
D03*
Y012639D02*
D03*
Y013639D02*
D03*
Y014639D02*
D03*
Y015639D02*
D03*
X019389Y008639D02*
D03*
Y009639D02*
D03*
Y010639D02*
D03*
Y011639D02*
D03*
Y012639D02*
D03*
Y013639D02*
D03*
Y014639D02*
D03*
Y015639D02*
D03*
D79*
X032789Y037139D02*
D03*
D80*
Y036139D02*
D03*
D81*
X038239Y026189D02*
D03*
X039239D02*
D03*
Y023189D02*
D03*
D82*
X038239D02*
D03*
D83*
X041189Y026239D02*
D03*
D84*
Y025239D02*
D03*
D85*
X010839Y024539D02*
D03*
X012839D02*
D03*
X015839D02*
D03*
X014839D02*
D03*
X013839D02*
D03*
X011839D02*
D03*
X009839D02*
D03*
X016439Y036739D02*
D03*
X014439D02*
D03*
X012439D02*
D03*
X011439D02*
D03*
X010439D02*
D03*
X013439D02*
D03*
X015439D02*
D03*
X017439D02*
D03*
D86*
X016839Y024539D02*
D03*
X009439Y036739D02*
D03*
D87*
X015739Y013239D02*
D03*
X013739D02*
D03*
X010739D02*
D03*
X011739D02*
D03*
X012739D02*
D03*
X014739D02*
D03*
X016739D02*
D03*
D88*
X009739D02*
D03*
D89*
X039239Y011049D02*
D03*
D90*
X022536Y028224D02*
D03*
X022539Y028939D02*
D03*
X02153Y03424D02*
D03*
X02745Y0224D02*
D03*
X01944Y01763D02*
D03*
X02005Y02953D02*
D03*
D91*
X045291Y004357D02*
D03*
Y039791D02*
D03*
X009857D02*
D03*
Y004357D02*
D03*
M02*
