G04*
G04 #@! TF.GenerationSoftware,Altium Limited,Altium Designer,21.3.2 (30)*
G04*
G04 Layer_Color=255*
%FSTAX24Y24*%
%MOIN*%
G70*
G04*
G04 #@! TF.SameCoordinates,1AC0675F-A7BC-4776-8E39-8DD75055E93B*
G04*
G04*
G04 #@! TF.FilePolarity,Positive*
G04*
G01*
G75*
%ADD56O,0.0650X0.0750*%
%ADD57C,0.0551*%
%ADD58C,0.0591*%
%ADD59C,0.0600*%
%ADD60R,0.0600X0.0600*%
%ADD61R,0.0700X0.0700*%
%ADD62C,0.0700*%
%ADD63R,0.1500X0.1500*%
%ADD64C,0.1500*%
%ADD65R,0.0700X0.0700*%
%ADD66C,0.0827*%
%ADD67R,0.0827X0.0827*%
%ADD68R,0.0591X0.0591*%
%ADD69O,0.0660X0.1000*%
%ADD70C,0.0900*%
%ADD71R,0.0551X0.0551*%
%ADD72R,0.0827X0.0827*%
%ADD73R,0.1500X0.1500*%
%ADD74O,0.0600X0.0700*%
%ADD75R,0.0600X0.0700*%
%ADD76C,0.0315*%
%ADD77R,0.0900X0.0600*%
%ADD78O,0.0900X0.0600*%
%ADD79R,0.0591X0.0512*%
%ADD80O,0.0591X0.0512*%
%ADD81O,0.0600X0.0900*%
%ADD82R,0.0600X0.0900*%
%ADD83O,0.0700X0.0600*%
%ADD84R,0.0700X0.0600*%
%ADD85O,0.0750X0.0900*%
%ADD86R,0.0750X0.0900*%
%ADD87O,0.0650X0.0900*%
%ADD88R,0.0650X0.0900*%
%ADD89R,0.0551X0.0551*%
D56*
X024299Y008689D02*
D03*
X025309D02*
D03*
X026289D02*
D03*
X027299D02*
D03*
X024749Y010989D02*
D03*
X025759D02*
D03*
X026739D02*
D03*
X027749D02*
D03*
D57*
X028539Y009847D02*
D03*
Y005831D02*
D03*
X042481Y026339D02*
D03*
X046497D02*
D03*
X038589Y017647D02*
D03*
Y013631D02*
D03*
X043059Y015639D02*
D03*
X042389D02*
D03*
X041719D02*
D03*
X041049D02*
D03*
X033381Y031189D02*
D03*
X037397D02*
D03*
Y032589D02*
D03*
X033381D02*
D03*
X037547Y033939D02*
D03*
X033531D02*
D03*
X011939Y019347D02*
D03*
Y015331D02*
D03*
X014439Y019347D02*
D03*
Y015331D02*
D03*
X013189Y019347D02*
D03*
Y015331D02*
D03*
X010489Y027281D02*
D03*
Y031297D02*
D03*
X012939Y027281D02*
D03*
Y031297D02*
D03*
X011739Y027281D02*
D03*
Y031297D02*
D03*
X014139Y027281D02*
D03*
Y031297D02*
D03*
X016539Y027281D02*
D03*
Y031297D02*
D03*
X015339Y027281D02*
D03*
Y031297D02*
D03*
X017739D02*
D03*
Y027281D02*
D03*
X010689Y019347D02*
D03*
Y015331D02*
D03*
X015739Y019347D02*
D03*
Y015331D02*
D03*
X017089Y019347D02*
D03*
Y015331D02*
D03*
X009289Y027281D02*
D03*
Y031297D02*
D03*
Y006081D02*
D03*
Y010097D02*
D03*
X014689Y006081D02*
D03*
Y010097D02*
D03*
X010639Y006081D02*
D03*
Y010097D02*
D03*
X011989Y006081D02*
D03*
Y010097D02*
D03*
X013339Y006081D02*
D03*
Y010097D02*
D03*
X016089Y006131D02*
D03*
Y010147D02*
D03*
X017489Y006131D02*
D03*
Y010147D02*
D03*
X039239Y008369D02*
D03*
Y009039D02*
D03*
Y009709D02*
D03*
Y010379D02*
D03*
X009389Y019347D02*
D03*
Y015331D02*
D03*
D58*
X028074Y036015D02*
D03*
X029074D02*
D03*
X027074D02*
D03*
X026074D02*
D03*
X028074Y037015D02*
D03*
X029074D02*
D03*
X027074D02*
D03*
X026074D02*
D03*
X035389Y016689D02*
D03*
X017089Y020489D02*
D03*
Y021489D02*
D03*
X015739Y020489D02*
D03*
Y021489D02*
D03*
X013189Y020489D02*
D03*
Y021489D02*
D03*
X010689Y020489D02*
D03*
Y021489D02*
D03*
X011889Y020489D02*
D03*
Y021489D02*
D03*
X014439Y020489D02*
D03*
Y021489D02*
D03*
X014139Y032539D02*
D03*
Y033539D02*
D03*
X012939Y032539D02*
D03*
Y033539D02*
D03*
X011739Y032539D02*
D03*
Y033539D02*
D03*
X017739D02*
D03*
Y032539D02*
D03*
X016539Y033539D02*
D03*
Y032539D02*
D03*
X015339D02*
D03*
Y033539D02*
D03*
X010489Y032539D02*
D03*
Y033539D02*
D03*
X009389Y020489D02*
D03*
Y021489D02*
D03*
X009239Y032539D02*
D03*
Y033539D02*
D03*
D59*
X030574Y024224D02*
D03*
Y025224D02*
D03*
Y026224D02*
D03*
Y034224D02*
D03*
Y033224D02*
D03*
Y032224D02*
D03*
Y031224D02*
D03*
Y029224D02*
D03*
Y030224D02*
D03*
Y028224D02*
D03*
Y023224D02*
D03*
Y022224D02*
D03*
Y016224D02*
D03*
Y017224D02*
D03*
Y018224D02*
D03*
Y019224D02*
D03*
Y020224D02*
D03*
Y021224D02*
D03*
X024574Y017224D02*
D03*
Y016224D02*
D03*
Y034224D02*
D03*
Y033224D02*
D03*
Y032224D02*
D03*
Y031224D02*
D03*
Y030224D02*
D03*
Y029224D02*
D03*
Y028224D02*
D03*
Y027224D02*
D03*
Y026224D02*
D03*
Y025224D02*
D03*
Y024224D02*
D03*
Y023224D02*
D03*
Y022224D02*
D03*
Y021224D02*
D03*
Y020224D02*
D03*
Y019224D02*
D03*
Y018224D02*
D03*
X030574Y027224D02*
D03*
D60*
Y015224D02*
D03*
X024574D02*
D03*
D61*
X045639Y009573D02*
D03*
D62*
Y008589D02*
D03*
X042055Y004139D02*
D03*
D63*
X045589Y016939D02*
D03*
X045439Y018839D02*
D03*
D64*
X045589Y011439D02*
D03*
X045439Y024339D02*
D03*
X039989Y006389D02*
D03*
D65*
X043039Y004139D02*
D03*
D66*
X042739Y022539D02*
D03*
X043028Y012689D02*
D03*
X042339Y00855D02*
D03*
X031839Y010028D02*
D03*
D67*
X041361Y022539D02*
D03*
X04165Y012689D02*
D03*
D68*
X035394Y013689D02*
D03*
D69*
X039639Y019789D02*
D03*
X038639D02*
D03*
X037639D02*
D03*
D70*
X042989Y018889D02*
D03*
X040989D02*
D03*
X035739Y008339D02*
D03*
Y010339D02*
D03*
D71*
X040379Y015639D02*
D03*
D72*
X042339Y009928D02*
D03*
X031839Y00865D02*
D03*
D73*
X034489Y006389D02*
D03*
D74*
X030689D02*
D03*
D75*
X031689D02*
D03*
D76*
X034347Y022389D02*
D03*
X034839D02*
D03*
X035331D02*
D03*
X034347Y025989D02*
D03*
X034839D02*
D03*
X035331D02*
D03*
X034347Y029589D02*
D03*
X034839D02*
D03*
X035331D02*
D03*
X034347Y027789D02*
D03*
X034839D02*
D03*
X035331D02*
D03*
X034347Y024189D02*
D03*
X034839D02*
D03*
X035331D02*
D03*
X034347Y020539D02*
D03*
X034839D02*
D03*
X035331D02*
D03*
X034347Y018739D02*
D03*
X034839D02*
D03*
X035331D02*
D03*
D77*
X022189Y019489D02*
D03*
X022339Y030589D02*
D03*
X022389Y008639D02*
D03*
D78*
X022189Y020489D02*
D03*
Y021489D02*
D03*
Y022489D02*
D03*
Y023489D02*
D03*
Y024489D02*
D03*
Y025489D02*
D03*
Y026489D02*
D03*
X019189Y019489D02*
D03*
Y020489D02*
D03*
Y021489D02*
D03*
Y022489D02*
D03*
Y023489D02*
D03*
Y024489D02*
D03*
Y025489D02*
D03*
Y026489D02*
D03*
X022339Y031589D02*
D03*
Y032589D02*
D03*
Y033589D02*
D03*
Y034589D02*
D03*
Y035589D02*
D03*
Y036589D02*
D03*
Y037589D02*
D03*
X019339Y030589D02*
D03*
Y031589D02*
D03*
Y032589D02*
D03*
Y033589D02*
D03*
Y034589D02*
D03*
Y035589D02*
D03*
Y036589D02*
D03*
Y037589D02*
D03*
X022389Y009639D02*
D03*
Y010639D02*
D03*
Y011639D02*
D03*
Y012639D02*
D03*
Y013639D02*
D03*
Y014639D02*
D03*
Y015639D02*
D03*
X019389Y008639D02*
D03*
Y009639D02*
D03*
Y010639D02*
D03*
Y011639D02*
D03*
Y012639D02*
D03*
Y013639D02*
D03*
Y014639D02*
D03*
Y015639D02*
D03*
D79*
X032789Y037139D02*
D03*
D80*
Y036139D02*
D03*
D81*
X038239Y026189D02*
D03*
X039239D02*
D03*
Y023189D02*
D03*
D82*
X038239D02*
D03*
D83*
X041189Y026239D02*
D03*
D84*
Y025239D02*
D03*
D85*
X010839Y024539D02*
D03*
X012839D02*
D03*
X015839D02*
D03*
X014839D02*
D03*
X013839D02*
D03*
X011839D02*
D03*
X009839D02*
D03*
X016439Y036739D02*
D03*
X014439D02*
D03*
X012439D02*
D03*
X011439D02*
D03*
X010439D02*
D03*
X013439D02*
D03*
X015439D02*
D03*
X017439D02*
D03*
D86*
X016839Y024539D02*
D03*
X009439Y036739D02*
D03*
D87*
X015739Y013239D02*
D03*
X013739D02*
D03*
X010739D02*
D03*
X011739D02*
D03*
X012739D02*
D03*
X014739D02*
D03*
X016739D02*
D03*
D88*
X009739D02*
D03*
D89*
X039239Y011049D02*
D03*
M02*
