M48
;Layer_Color=9474304
;FILE_FORMAT=2:4
INCH,LZ
;TYPE=PLATED
T1F00S00C0.0197
T2F00S00C0.0236
T3F00S00C0.0276
T4F00S00C0.0310
T5F00S00C0.0315
T6F00S00C0.0320
T7F00S00C0.0340
T8F00S00C0.0350
T9F00S00C0.0354
T10F00S00C0.0360
T11F00S00C0.0394
T12F00S00C0.0420
T13F00S00C0.0500
T14F00S00C0.0600
T15F00S00C0.1181
;TYPE=NON_PLATED
T16F00S00C0.0197
T17F00S00C0.0315
T18F00S00C0.0394
%
T01
X034347Y018739
X034839
Y020539
X034347
Y022389
X034839
Y024189
X034347
Y025989
X034839
Y027789
X034347
Y029589
X034839
X022539Y028939
X022536Y028224
X02005Y02953
X01944Y01763
X02745Y0224
X02153Y03424
T02
X009289Y006081
X010639
X011989
X013339
X014689
Y010097
X013339
X011989
X010639
X009289
X009389Y015331
X010689
X011939
X013189
X014439
X015739
X017089
X017489Y010147
X016089
Y006131
X017489
X028539Y005831
Y009847
X038589Y013631
Y017647
X042481Y026339
X046497
X037397Y031189
X033381
X017739Y027281
X016539
X017089Y019347
X015739
X014439
X013189
X011939
X010689
X009389
X009289Y027281
X010489
X011739
X012939
X014139
X015339
Y031297
X014139
X012939
X011739
X010489
X009289
X016539
X017739
X033381Y032589
X033531Y033939
X037547
X037397Y032589
T03
X015739Y020489
Y021489
X017089
Y020489
X014439
Y021489
X013189
Y020489
X011889
Y021489
X010689
Y020489
X009389
Y021489
X009239Y032539
Y033539
X010489
Y032539
X011739
Y033539
X012939
Y032539
X014139
Y033539
X015339
Y032539
X016539
Y033539
X017739
Y032539
T04
X019389Y008639
Y009639
Y010639
Y011639
Y012639
Y013639
Y014639
X022389
Y013639
Y012639
Y011639
Y010639
Y009639
Y008639
X038239Y023189
X039239
Y026189
X038239
X022189Y026489
Y025489
Y024489
Y023489
Y022489
Y021489
Y020489
Y019489
X019189
Y020489
Y021489
Y022489
Y023489
Y024489
Y025489
Y026489
X019339Y030589
X022339
X022389Y015639
X019389
X019339Y031589
Y032589
Y033589
Y034589
Y035589
Y036589
Y037589
X022339
Y036589
Y035589
Y034589
Y033589
Y032589
Y031589
T05
X039239Y008369
Y009039
Y009709
Y010379
X035394Y013689
X035389Y016689
X041049Y015639
X041719
X042389
X043059
X032789Y036139
Y037139
T06
X037639Y019789
X038639
X039639
T07
X015839Y024539
X016839
X014839
X013839
X012839
X011839
X010839
X009839
X009439Y036739
X010439
X011439
X012439
X013439
X014439
X015439
X016439
X017439
T08
X030689Y006389
X031689
X041189Y025239
Y026239
T09
X031839Y00865
Y010028
X042339Y009928
Y00855
X043028Y012689
X04165
X041361Y022539
X042739
T10
X024299Y008689
X025309
X026289
X027299
X027749Y010989
X026739
X025759
X024749
T11
X024574Y015224
X030574
Y016224
Y017224
Y018224
Y019224
Y020224
Y021224
Y022224
Y023224
Y024224
Y025224
Y026224
Y027224
Y028224
Y029224
Y030224
Y031224
X024574
Y030224
Y029224
Y028224
Y027224
Y026224
Y025224
Y024224
Y023224
Y022224
Y021224
Y020224
Y019224
Y018224
Y017224
Y016224
Y032224
Y033224
Y034224
X026074Y036015
X027074
X028074
X029074
Y037015
X028074
X027074
X026074
X030574Y034224
Y033224
Y032224
T12
X009739Y013239
X010739
X011739
X012739
X013739
X014739
X015739
X016739
T13
X035739Y008339
Y010339
X040989Y018889
X042989
T14
X034489Y006389
X039989
X045589Y011439
Y016939
X045439Y018839
Y024339
T15
X009857Y004357
X045291
X009857Y039791
X045291
T16
X035331Y018739
Y020539
Y022389
Y024189
Y025989
Y027789
Y029589
T17
X039239Y011049
X040379Y015639
T18
X042055Y004139
X043039
X045639Y008589
Y009573
M30
