G04*
G04 #@! TF.GenerationSoftware,Altium Limited,Altium Designer,21.3.2 (30)*
G04*
G04 Layer_Physical_Order=2*
G04 Layer_Color=16711680*
%FSTAX24Y24*%
%MOIN*%
G70*
G04*
G04 #@! TF.SameCoordinates,7536F4C1-D20E-4AD8-A34B-159FF933A109*
G04*
G04*
G04 #@! TF.FilePolarity,Positive*
G04*
G01*
G75*
%ADD47C,0.0197*%
%ADD48C,0.0591*%
%ADD49R,0.0551X0.0551*%
%ADD50C,0.0551*%
%ADD51R,0.0827X0.0827*%
%ADD52C,0.0827*%
%ADD53C,0.0900*%
%ADD54C,0.1500*%
%ADD55R,0.1500X0.1500*%
%ADD56C,0.0315*%
%ADD57C,0.0750*%
%ADD58O,0.0591X0.0512*%
%ADD59R,0.0591X0.0512*%
%ADD60R,0.0700X0.0600*%
%ADD61O,0.0700X0.0600*%
%ADD62O,0.0900X0.0650*%
%ADD63R,0.0900X0.0650*%
%ADD64O,0.0600X0.0900*%
%ADD65R,0.0600X0.0900*%
%ADD66R,0.0900X0.0600*%
%ADD67O,0.0900X0.0600*%
%ADD68O,0.0650X0.0750*%
%ADD69O,0.0750X0.0650*%
%ADD70O,0.0600X0.0700*%
%ADD71R,0.0600X0.0700*%
%ADD72C,0.0600*%
%ADD73R,0.0600X0.0600*%
%ADD74R,0.0700X0.0700*%
%ADD75C,0.0700*%
%ADD76C,0.0500*%
%ADD77C,0.0394*%
G36*
X07067Y002601D02*
X008101D01*
Y053359D01*
X07067D01*
Y002601D01*
D02*
G37*
%LPC*%
G36*
X064196Y051807D02*
X062382D01*
Y049993D01*
X064196D01*
Y051807D01*
D02*
G37*
G36*
X023846Y051557D02*
X022032D01*
Y049743D01*
X023846D01*
Y051557D01*
D02*
G37*
G36*
X069346Y051457D02*
X068331D01*
Y051208D01*
X065089D01*
X065022Y051199D01*
X06496Y051174D01*
X064906Y051133D01*
X064456Y050683D01*
X064415Y050629D01*
X06439Y050567D01*
X064381Y0505D01*
Y04896D01*
X064068D01*
Y04894D01*
X062122D01*
Y049253D01*
X061621D01*
X060892Y049983D01*
X060838Y050024D01*
X060776Y050049D01*
X060709Y050058D01*
X027239D01*
X027172Y050049D01*
X02711Y050024D01*
X027056Y049983D01*
X025956Y048883D01*
X025915Y048829D01*
X02589Y048767D01*
X025881Y0487D01*
Y048664D01*
X025763Y048624D01*
X025737Y048644D01*
X025675Y048669D01*
X025608Y048678D01*
X023222D01*
Y048853D01*
X022356D01*
Y048008D01*
X020376D01*
X020353Y048084D01*
X020297Y048189D01*
X020221Y048282D01*
X020128Y048358D01*
X020023Y048414D01*
X019908Y048449D01*
X019789Y04846D01*
X01967Y048449D01*
X019555Y048414D01*
X01945Y048358D01*
X019357Y048282D01*
X019281Y048189D01*
X019225Y048084D01*
X01919Y047969D01*
X019179Y04785D01*
X01919Y047731D01*
X019225Y047616D01*
X019281Y047511D01*
X019357Y047418D01*
X01945Y047342D01*
X019555Y047286D01*
X01967Y047251D01*
X019789Y04724D01*
X019908Y047251D01*
X020023Y047286D01*
X020128Y047342D01*
X020221Y047418D01*
X020281Y047492D01*
X022441D01*
X02248Y047441D01*
X022571Y047372D01*
X022676Y047328D01*
X022789Y047313D01*
X022902Y047328D01*
X023007Y047372D01*
X023098Y047441D01*
X023167Y047532D01*
X023211Y047637D01*
X023226Y04775D01*
X023211Y047863D01*
X023208Y047869D01*
X023222Y047987D01*
X023222D01*
Y048162D01*
X025501D01*
X025568Y048095D01*
Y047318D01*
X02671D01*
Y04846D01*
X026397D01*
Y048593D01*
X027346Y049542D01*
X033599D01*
X033648Y049424D01*
X033067Y048844D01*
X033026Y04879D01*
X033001Y048728D01*
X032992Y048661D01*
Y04709D01*
X033001Y047023D01*
X033026Y046961D01*
X033067Y046907D01*
X033407Y046567D01*
X033461Y046526D01*
X033523Y046501D01*
X03359Y046492D01*
X0343D01*
X034366Y046501D01*
X034429Y046526D01*
X034482Y046567D01*
X035701Y047787D01*
X036242D01*
Y047936D01*
X037481D01*
X03749Y047917D01*
X037562Y047822D01*
X037657Y047749D01*
X037767Y047704D01*
X037885Y047688D01*
X038003Y047704D01*
X038113Y047749D01*
X038208Y047822D01*
X038281Y047917D01*
X038326Y048027D01*
X038444D01*
X03849Y047917D01*
X038562Y047822D01*
X038657Y047749D01*
X038767Y047704D01*
Y047586D01*
X038657Y04754D01*
X038562Y047468D01*
X03849Y047373D01*
X038444Y047263D01*
X038428Y047145D01*
X038444Y047027D01*
X03849Y046917D01*
X038562Y046822D01*
X038657Y046749D01*
X038767Y046704D01*
X038885Y046688D01*
X038966Y046699D01*
X039647Y046017D01*
X039701Y045976D01*
X039763Y045951D01*
X03983Y045942D01*
X042695D01*
X042762Y04589D01*
X042848Y045855D01*
X042941Y045843D01*
X043033Y045855D01*
X04312Y04589D01*
X043194Y045947D01*
X04325Y046021D01*
X043286Y046108D01*
X043298Y0462D01*
X043286Y046293D01*
X04325Y046379D01*
X043194Y046453D01*
X04312Y04651D01*
X043033Y046545D01*
X042941Y046557D01*
X042848Y046545D01*
X042762Y04651D01*
X042695Y046458D01*
X039937D01*
X039817Y046578D01*
X039872Y04669D01*
X039885Y046688D01*
X040003Y046704D01*
X040113Y046749D01*
X040208Y046822D01*
X040281Y046917D01*
X040326Y047027D01*
X040444D01*
X04049Y046917D01*
X040562Y046822D01*
X040657Y046749D01*
X040767Y046704D01*
X040885Y046688D01*
X041003Y046704D01*
X041113Y046749D01*
X041208Y046822D01*
X041281Y046917D01*
X041326Y047027D01*
X041342Y047145D01*
X041326Y047263D01*
X041281Y047373D01*
X041208Y047468D01*
X041113Y04754D01*
X041003Y047586D01*
Y047704D01*
X041113Y047749D01*
X041208Y047822D01*
X041281Y047917D01*
X041326Y048027D01*
X041342Y048145D01*
X041326Y048263D01*
X041281Y048373D01*
X041242Y048424D01*
X041298Y048542D01*
X041652D01*
X041686Y048497D01*
X04176Y04844D01*
X041846Y048405D01*
X041939Y048393D01*
X042031Y048405D01*
X042118Y04844D01*
X042192Y048497D01*
X042248Y048571D01*
X042284Y048657D01*
X042296Y04875D01*
X042284Y048843D01*
X042248Y048929D01*
X042311Y049042D01*
X045632D01*
X046173Y048501D01*
Y045166D01*
X046156Y045145D01*
X046055Y045093D01*
X046021Y045107D01*
X045939Y045118D01*
X045857Y045107D01*
X04578Y045075D01*
X045714Y045025D01*
X045664Y044959D01*
X045632Y044882D01*
X045621Y0448D01*
X045627Y044756D01*
X045569Y044665D01*
X045537Y044638D01*
X044323D01*
X043529Y045433D01*
X043475Y045474D01*
X043413Y045499D01*
X043346Y045508D01*
X035289D01*
X035222Y045499D01*
X03516Y045474D01*
X035106Y045433D01*
X033432Y043758D01*
X033118D01*
X033065Y043826D01*
X03297Y0439D01*
X032876Y043938D01*
X032867Y044D01*
X032876Y044062D01*
X03297Y0441D01*
X033065Y044174D01*
X033139Y044269D01*
X033185Y044381D01*
X0332Y0445D01*
X033185Y044619D01*
X033139Y044731D01*
X033065Y044826D01*
X03297Y0449D01*
X032858Y044946D01*
X032739Y044961D01*
X032439D01*
X03232Y044946D01*
X032208Y0449D01*
X032113Y044826D01*
X032039Y044731D01*
X031993Y044619D01*
X031978Y0445D01*
X031993Y044381D01*
X032039Y044269D01*
X032113Y044174D01*
X032208Y0441D01*
X032302Y044062D01*
X032311Y044D01*
X032302Y043938D01*
X032208Y0439D01*
X032113Y043826D01*
X032039Y043731D01*
X031993Y043619D01*
X031978Y0435D01*
X031993Y043381D01*
X032039Y043269D01*
X032113Y043174D01*
X032208Y0431D01*
X032302Y043062D01*
X032311Y043D01*
X032302Y042938D01*
X032208Y0429D01*
X032113Y042826D01*
X032039Y042731D01*
X031993Y042619D01*
X031978Y0425D01*
X031993Y042381D01*
X032039Y042269D01*
X032113Y042174D01*
X032208Y0421D01*
X032302Y042062D01*
X032311Y042D01*
X032302Y041938D01*
X032208Y0419D01*
X032113Y041826D01*
X032039Y041731D01*
X031993Y041619D01*
X031978Y0415D01*
X031993Y041381D01*
X032039Y041269D01*
X032113Y041174D01*
X032208Y0411D01*
X032302Y041062D01*
X032311Y041D01*
X032302Y040938D01*
X032208Y0409D01*
X032113Y040826D01*
X032039Y040731D01*
X031993Y040619D01*
X031978Y0405D01*
X031993Y040381D01*
X032039Y040269D01*
X032113Y040174D01*
X032208Y0401D01*
X032302Y040062D01*
X032311Y04D01*
X032302Y039938D01*
X032208Y0399D01*
X032113Y039826D01*
X032039Y039731D01*
X031993Y039619D01*
X031978Y0395D01*
X031993Y039381D01*
X032039Y039269D01*
X032113Y039174D01*
X032208Y0391D01*
X032268Y039076D01*
X032245Y038957D01*
X031981D01*
Y038043D01*
X033196D01*
Y038242D01*
X0335D01*
X033567Y038251D01*
X033629Y038276D01*
X033683Y038317D01*
X035813Y040448D01*
X035925Y040393D01*
X035924Y040385D01*
X035939Y040266D01*
X035985Y040154D01*
X036059Y040059D01*
X036154Y039985D01*
X036248Y039947D01*
X036257Y039885D01*
X036248Y039823D01*
X036154Y039785D01*
X036059Y039711D01*
X035985Y039616D01*
X035939Y039504D01*
X035924Y039385D01*
X035939Y039266D01*
X035985Y039154D01*
X036059Y039059D01*
X036154Y038985D01*
X036248Y038947D01*
X036257Y038885D01*
X036248Y038823D01*
X036154Y038785D01*
X036059Y038711D01*
X035985Y038616D01*
X035939Y038504D01*
X035924Y038385D01*
X035935Y0383D01*
X035193Y037558D01*
X035049D01*
X034983Y037644D01*
X034882Y037721D01*
X034835Y037741D01*
Y037869D01*
X034882Y037889D01*
X034983Y037966D01*
X03506Y038067D01*
X035109Y038184D01*
X035126Y03831D01*
X035109Y038436D01*
X03506Y038553D01*
X034983Y038654D01*
X034882Y038731D01*
X034765Y03878D01*
X034639Y038797D01*
X034539D01*
X034413Y03878D01*
X034296Y038731D01*
X034195Y038654D01*
X034118Y038553D01*
X034113Y038543D01*
X034091Y038534D01*
X034038Y038493D01*
X033393Y037848D01*
X032006D01*
X031171Y038683D01*
X031118Y038724D01*
X031056Y038749D01*
X030989Y038758D01*
X030118D01*
X030065Y038826D01*
X02997Y0389D01*
X029858Y038946D01*
X029739Y038961D01*
X029439D01*
X02932Y038946D01*
X029208Y0389D01*
X029113Y038826D01*
X029039Y038731D01*
X028993Y038619D01*
X028978Y0385D01*
X028993Y038381D01*
X029039Y038269D01*
X029113Y038174D01*
X029208Y0381D01*
X02932Y038054D01*
X029439Y038039D01*
X029739D01*
X029858Y038054D01*
X02997Y0381D01*
X030065Y038174D01*
X030118Y038242D01*
X030882D01*
X031717Y037407D01*
X03177Y037366D01*
X031832Y03734D01*
X031899Y037332D01*
X032302D01*
X032341Y037232D01*
X032344Y037214D01*
X032262Y037106D01*
X032208Y036977D01*
X03219Y036838D01*
X032208Y036699D01*
X032262Y036569D01*
X032347Y036458D01*
X032458Y036373D01*
X032588Y036319D01*
X032727Y036301D01*
X032866Y036319D01*
X032996Y036373D01*
X033107Y036458D01*
X033192Y036569D01*
X033246Y036699D01*
X033264Y036838D01*
X033246Y036977D01*
X033192Y037106D01*
X03311Y037214D01*
X033113Y037232D01*
X033152Y037332D01*
X0335D01*
X033567Y03734D01*
X033629Y037366D01*
X033683Y037407D01*
X034221Y037946D01*
X034296Y037889D01*
X034343Y037869D01*
Y037741D01*
X034296Y037721D01*
X034195Y037644D01*
X034118Y037543D01*
X034069Y037426D01*
X034052Y0373D01*
X034069Y037174D01*
X034118Y037057D01*
X034195Y036956D01*
X034296Y036879D01*
X034307Y036874D01*
Y036746D01*
X034296Y036741D01*
X034195Y036664D01*
X034118Y036563D01*
X034069Y036446D01*
X034052Y03632D01*
X034069Y036194D01*
X034118Y036077D01*
X034195Y035976D01*
X034296Y035899D01*
X034413Y03585D01*
X034539Y035833D01*
X034639D01*
X034765Y03585D01*
X034882Y035899D01*
X034983Y035976D01*
X035049Y036062D01*
X03532D01*
X035387Y036071D01*
X035449Y036096D01*
X035503Y036137D01*
X035813Y036448D01*
X035925Y036393D01*
X035924Y036385D01*
X035939Y036266D01*
X035985Y036154D01*
X036059Y036059D01*
X036154Y035985D01*
X036248Y035947D01*
X036257Y035885D01*
X036248Y035823D01*
X036154Y035785D01*
X036059Y035711D01*
X035985Y035616D01*
X035939Y035504D01*
X035924Y035385D01*
X035939Y035266D01*
X035985Y035154D01*
X036059Y035059D01*
X036154Y034985D01*
X036248Y034947D01*
X036257Y034885D01*
X036248Y034823D01*
X036154Y034785D01*
X036059Y034711D01*
X035985Y034616D01*
X035939Y034504D01*
X035924Y034385D01*
X035939Y034266D01*
X035985Y034154D01*
X036059Y034059D01*
X036154Y033985D01*
X036248Y033947D01*
X036257Y033885D01*
X036248Y033823D01*
X036154Y033785D01*
X036059Y033711D01*
X035985Y033616D01*
X035939Y033504D01*
X035924Y033385D01*
X035939Y033266D01*
X035985Y033154D01*
X036059Y033059D01*
X036154Y032985D01*
X036248Y032947D01*
X036257Y032885D01*
X036248Y032823D01*
X036154Y032785D01*
X036059Y032711D01*
X035985Y032616D01*
X035939Y032504D01*
X035924Y032385D01*
X035939Y032266D01*
X035985Y032154D01*
X036059Y032059D01*
X036154Y031985D01*
X036248Y031947D01*
X036257Y031885D01*
X036248Y031823D01*
X036154Y031785D01*
X036059Y031711D01*
X035985Y031616D01*
X035939Y031504D01*
X035924Y031385D01*
X035939Y031266D01*
X035985Y031154D01*
X036059Y031059D01*
X036154Y030985D01*
X036248Y030947D01*
X036257Y030885D01*
X036248Y030823D01*
X036154Y030785D01*
X036059Y030711D01*
X035985Y030616D01*
X035939Y030504D01*
X035924Y030385D01*
X035935Y0303D01*
X033243Y027608D01*
X02973D01*
X029663Y027599D01*
X029601Y027574D01*
X029547Y027533D01*
X028715Y0267D01*
X028646Y026715D01*
X028597Y026746D01*
Y028993D01*
X028616Y029012D01*
X029445D01*
X029482Y028981D01*
X029536Y028904D01*
X029529Y02885D01*
X02954Y028768D01*
X029572Y028691D01*
X029622Y028625D01*
X029688Y028575D01*
X029765Y028543D01*
X029847Y028532D01*
X029929Y028543D01*
X030006Y028575D01*
X030071Y028625D01*
X030114D01*
X03018Y028575D01*
X030257Y028543D01*
X030339Y028532D01*
X030421Y028543D01*
X030498Y028575D01*
X030564Y028625D01*
X030614Y028691D01*
X030646Y028768D01*
X030657Y02885D01*
X030646Y028932D01*
X030614Y029009D01*
X030564Y029075D01*
X030498Y029125D01*
X030421Y029157D01*
X030339Y029168D01*
X030257Y029157D01*
X030193Y02913D01*
X030167Y029131D01*
X030055Y029178D01*
X030048Y029194D01*
X030007Y029247D01*
X029801Y029453D01*
X029748Y029494D01*
X029686Y029519D01*
X029619Y029528D01*
X028509D01*
X028442Y029519D01*
X02838Y029494D01*
X028326Y029453D01*
X028156Y029283D01*
X028115Y029229D01*
X02809Y029167D01*
X028081Y0291D01*
Y023681D01*
X02809Y023614D01*
X028115Y023552D01*
X028156Y023499D01*
X029437Y022217D01*
X029491Y022176D01*
X029553Y022151D01*
X02962Y022142D01*
X031243D01*
X031284Y022024D01*
X031245Y021994D01*
X031168Y021893D01*
X031153Y021858D01*
X023839D01*
X023772Y021849D01*
X02371Y021824D01*
X023656Y021783D01*
X02297Y021096D01*
X022889Y021107D01*
X022771Y021091D01*
X022661Y021045D01*
X022566Y020973D01*
X022533Y020929D01*
X022423Y02098D01*
X022437Y02109D01*
X022419Y021229D01*
X022365Y021358D01*
X02228Y02147D01*
X022169Y021555D01*
X022039Y021609D01*
X0219Y021627D01*
X021761Y021609D01*
X021632Y021555D01*
X02152Y02147D01*
X021435Y021358D01*
X021381Y021229D01*
X021363Y02109D01*
X021381Y020951D01*
X021429Y020835D01*
X021389Y020728D01*
X021384Y020717D01*
X020197D01*
X019974Y02094D01*
X019978Y020951D01*
X019996Y02109D01*
X019978Y021229D01*
X019924Y021358D01*
X019839Y02147D01*
X019728Y021555D01*
X019598Y021609D01*
X019459Y021627D01*
X01932Y021609D01*
X019191Y021555D01*
X019079Y02147D01*
X018994Y021358D01*
X01894Y021229D01*
X018922Y02109D01*
X01894Y020951D01*
X018945Y02094D01*
X018413Y020408D01*
X016569D01*
X016037Y02094D01*
X016041Y020951D01*
X016059Y02109D01*
X016041Y021229D01*
X015987Y021358D01*
X015902Y02147D01*
X015791Y021555D01*
X015661Y021609D01*
X015522Y021627D01*
X015383Y021609D01*
X015254Y021555D01*
X015142Y02147D01*
X015057Y021358D01*
X015053Y021348D01*
X014879D01*
X014812Y021339D01*
X01475Y021313D01*
X014696Y021272D01*
X01452Y021096D01*
X014439Y021107D01*
X014321Y021091D01*
X014211Y021045D01*
X014116Y020973D01*
X014044Y020878D01*
X013998Y020768D01*
X013982Y02065D01*
X013998Y020532D01*
X014044Y020422D01*
X014116Y020327D01*
X014211Y020255D01*
X014321Y020209D01*
Y020091D01*
X014211Y020045D01*
X014116Y019973D01*
X014066Y019908D01*
X013846D01*
X013629Y020125D01*
Y040575D01*
X014346Y041292D01*
X027291D01*
X027358Y04124D01*
X027444Y041205D01*
X027536Y041193D01*
X027613Y041203D01*
X027643Y041193D01*
X027731Y041119D01*
Y0358D01*
X02774Y035733D01*
X027765Y035671D01*
X027806Y035617D01*
X028256Y035167D01*
X02831Y035126D01*
X028372Y035101D01*
X028439Y035092D01*
X028516D01*
X028566Y035027D01*
X028661Y034955D01*
X028771Y034909D01*
X028889Y034893D01*
X02897Y034904D01*
X029187Y034687D01*
X029241Y034646D01*
X029303Y03462D01*
X02937Y034611D01*
X029817D01*
X029821Y034601D01*
X029906Y03449D01*
X030017Y034404D01*
X030038Y034396D01*
X03005Y034336D01*
X030045Y034265D01*
X029972Y034209D01*
X029903Y034118D01*
X029859Y034013D01*
X029844Y0339D01*
X029859Y033787D01*
X029903Y033682D01*
X029972Y033591D01*
X030063Y033522D01*
X030074Y033517D01*
Y033389D01*
X030017Y033366D01*
X029906Y033281D01*
X029821Y033169D01*
X029817Y033159D01*
X02954D01*
X029473Y03315D01*
X029411Y033124D01*
X029357Y033083D01*
X02907Y032796D01*
X028989Y032807D01*
X028871Y032791D01*
X028761Y032745D01*
X028666Y032673D01*
X028593Y032578D01*
X028548Y032468D01*
X028532Y03235D01*
X028548Y032232D01*
X028593Y032122D01*
X028666Y032027D01*
X028761Y031955D01*
X028871Y031909D01*
Y031791D01*
X028761Y031745D01*
X028666Y031673D01*
X028593Y031578D01*
X028548Y031468D01*
X028532Y03135D01*
X028548Y031232D01*
X028593Y031122D01*
X028666Y031027D01*
X028761Y030955D01*
X028871Y030909D01*
X028989Y030893D01*
X02907Y030904D01*
X029224Y03075D01*
X029278Y030709D01*
X02934Y030683D01*
X029407Y030674D01*
X029817D01*
X029821Y030664D01*
X029906Y030553D01*
X030017Y030467D01*
X030147Y030414D01*
X030286Y030395D01*
X030425Y030414D01*
X030435Y030418D01*
X030928Y029925D01*
X030981Y029884D01*
X031044Y029859D01*
X03111Y02985D01*
X032341D01*
X03238Y029799D01*
X032471Y02973D01*
X032576Y029686D01*
X032689Y029671D01*
X032802Y029686D01*
X032907Y02973D01*
X032998Y029799D01*
X033067Y029889D01*
X033111Y029995D01*
X033126Y030108D01*
X033111Y030221D01*
X033067Y030326D01*
X033034Y03037D01*
X033014Y030448D01*
X033053Y030523D01*
X033116Y030571D01*
X033201Y030682D01*
X033255Y030812D01*
X033273Y030951D01*
X033255Y03109D01*
X033201Y031219D01*
X033116Y031331D01*
X033005Y031416D01*
X032875Y03147D01*
X032736Y031488D01*
X032597Y03147D01*
X032467Y031416D01*
X032356Y031331D01*
X032271Y031219D01*
X032217Y03109D01*
X032199Y030951D01*
X032217Y030812D01*
X032271Y030682D01*
X032356Y030571D01*
X032359Y03045D01*
X032283Y030366D01*
X031217D01*
X0308Y030783D01*
X030805Y030793D01*
X030823Y030932D01*
X030805Y031071D01*
X030751Y031201D01*
X030666Y031312D01*
X030555Y031397D01*
X030425Y031451D01*
X030286Y031469D01*
X030147Y031451D01*
X030017Y031397D01*
X029906Y031312D01*
X029821Y031201D01*
X029817Y03119D01*
X029516D01*
X029436Y031276D01*
X029446Y03135D01*
X02943Y031468D01*
X029384Y031578D01*
X029312Y031673D01*
X029217Y031745D01*
X029107Y031791D01*
Y031909D01*
X029217Y031955D01*
X029312Y032027D01*
X029384Y032122D01*
X02943Y032232D01*
X029446Y03235D01*
X029435Y032431D01*
X029647Y032643D01*
X029817D01*
X029821Y032632D01*
X029906Y032521D01*
X030017Y032436D01*
X030147Y032382D01*
X030286Y032364D01*
X030425Y032382D01*
X030555Y032436D01*
X030666Y032521D01*
X030751Y032632D01*
X030805Y032762D01*
X030823Y032901D01*
X030805Y03304D01*
X030751Y033169D01*
X030666Y033281D01*
X030555Y033366D01*
X030493Y033391D01*
Y033519D01*
X030499Y033522D01*
X03059Y033591D01*
X030659Y033682D01*
X030703Y033787D01*
X030718Y0339D01*
X030703Y034013D01*
X030659Y034118D01*
X03059Y034209D01*
X03052Y034262D01*
X030516Y034343D01*
X030529Y034394D01*
X030555Y034404D01*
X030666Y03449D01*
X030751Y034601D01*
X030805Y03473D01*
X030823Y034869D01*
X030805Y035008D01*
X030751Y035138D01*
X030666Y035249D01*
X030555Y035334D01*
X030425Y035388D01*
X030286Y035406D01*
X030147Y035388D01*
X030017Y035334D01*
X029906Y035249D01*
X029821Y035138D01*
X029817Y035127D01*
X029477D01*
X029335Y035269D01*
X029346Y03535D01*
X02933Y035468D01*
X029284Y035578D01*
X029212Y035673D01*
X029117Y035745D01*
X029007Y035791D01*
Y035909D01*
X029117Y035955D01*
X029212Y036027D01*
X029284Y036122D01*
X02933Y036232D01*
X029346Y03635D01*
X029335Y036431D01*
X029484Y03658D01*
X029817D01*
X029821Y036569D01*
X029906Y036458D01*
X030017Y036373D01*
X030147Y036319D01*
X030286Y036301D01*
X030425Y036319D01*
X030555Y036373D01*
X030666Y036458D01*
X030751Y036569D01*
X030805Y036699D01*
X030823Y036838D01*
X030805Y036977D01*
X030751Y037106D01*
X030666Y037218D01*
X030555Y037303D01*
X030425Y037357D01*
X030286Y037375D01*
X030147Y037357D01*
X030017Y037303D01*
X029906Y037218D01*
X029821Y037106D01*
X029817Y037096D01*
X029377D01*
X02931Y037087D01*
X029248Y037061D01*
X029194Y03702D01*
X02897Y036796D01*
X028889Y036807D01*
X028771Y036791D01*
X028661Y036745D01*
X028566Y036673D01*
X028493Y036578D01*
X028448Y036468D01*
X028432Y03635D01*
X028448Y036232D01*
X028493Y036122D01*
X028566Y036027D01*
X028661Y035955D01*
X028771Y035909D01*
Y035791D01*
X028661Y035745D01*
X028566Y035673D01*
X028486Y035668D01*
X028247Y035907D01*
Y041893D01*
X028596Y042242D01*
X02906D01*
X029113Y042174D01*
X029208Y0421D01*
X029302Y042062D01*
X029311Y042D01*
X029302Y041938D01*
X029208Y0419D01*
X029113Y041826D01*
X029039Y041731D01*
X028993Y041619D01*
X028978Y0415D01*
X028993Y041381D01*
X029039Y041269D01*
X029113Y041174D01*
X029208Y0411D01*
X029302Y041062D01*
X029311Y041D01*
X029302Y040938D01*
X029208Y0409D01*
X029113Y040826D01*
X029039Y040731D01*
X028993Y040619D01*
X028978Y0405D01*
X028993Y040381D01*
X029039Y040269D01*
X029113Y040174D01*
X029208Y0401D01*
X02932Y040054D01*
X029439Y040039D01*
X029739D01*
X029858Y040054D01*
X02997Y0401D01*
X030065Y040174D01*
X030139Y040269D01*
X030185Y040381D01*
X0302Y0405D01*
X030185Y040619D01*
X030139Y040731D01*
X030065Y040826D01*
X02997Y0409D01*
X029876Y040938D01*
X029867Y041D01*
X029876Y041062D01*
X02997Y0411D01*
X030065Y041174D01*
X030139Y041269D01*
X030185Y041381D01*
X0302Y0415D01*
X030185Y041619D01*
X030139Y041731D01*
X030065Y041826D01*
X02997Y0419D01*
X029876Y041938D01*
X029867Y042D01*
X029876Y042062D01*
X02997Y0421D01*
X030065Y042174D01*
X030139Y042269D01*
X030185Y042381D01*
X0302Y0425D01*
X030185Y042619D01*
X030139Y042731D01*
X030065Y042826D01*
X02997Y0429D01*
X029876Y042938D01*
X029867Y043D01*
X029876Y043062D01*
X02997Y0431D01*
X030065Y043174D01*
X030139Y043269D01*
X030185Y043381D01*
X0302Y0435D01*
X030185Y043619D01*
X030139Y043731D01*
X030065Y043826D01*
X02997Y0439D01*
X029876Y043938D01*
X029867Y044D01*
X029876Y044062D01*
X02997Y0441D01*
X030065Y044174D01*
X030139Y044269D01*
X030185Y044381D01*
X0302Y0445D01*
X030185Y044619D01*
X030139Y044731D01*
X030065Y044826D01*
X02997Y0449D01*
X029876Y044938D01*
X029867Y045D01*
X029876Y045062D01*
X02997Y0451D01*
X030065Y045174D01*
X030139Y045269D01*
X030185Y045381D01*
X0302Y0455D01*
X030185Y045619D01*
X030139Y045731D01*
X030065Y045826D01*
X02997Y0459D01*
X029858Y045946D01*
X029739Y045961D01*
X029439D01*
X02932Y045946D01*
X029208Y0459D01*
X029113Y045826D01*
X029039Y045731D01*
X028993Y045619D01*
X028978Y0455D01*
X028993Y045381D01*
X029039Y045269D01*
X029113Y045174D01*
X029208Y0451D01*
X029302Y045062D01*
X029311Y045D01*
X029302Y044938D01*
X029208Y0449D01*
X029113Y044826D01*
X029039Y044731D01*
X028993Y044619D01*
X028978Y0445D01*
X028993Y044381D01*
X029039Y044269D01*
X029113Y044174D01*
X029208Y0441D01*
X029302Y044062D01*
X029311Y044D01*
X029302Y043938D01*
X029208Y0439D01*
X029113Y043826D01*
X029039Y043731D01*
X028993Y043619D01*
X028978Y0435D01*
X028993Y043381D01*
X029039Y043269D01*
X029113Y043174D01*
X029208Y0431D01*
X029302Y043062D01*
X029311Y043D01*
X029302Y042938D01*
X029208Y0429D01*
X029113Y042826D01*
X02906Y042758D01*
X028489D01*
X028422Y042749D01*
X02836Y042724D01*
X028306Y042683D01*
X027806Y042183D01*
X027765Y042129D01*
X02774Y042067D01*
X027731Y042D01*
Y041981D01*
X027643Y041907D01*
X027613Y041897D01*
X027536Y041907D01*
X027444Y041895D01*
X027358Y04186D01*
X027291Y041808D01*
X014239D01*
X014172Y041799D01*
X01411Y041774D01*
X014056Y041733D01*
X013188Y040864D01*
X013147Y040811D01*
X013121Y040748D01*
X013112Y040682D01*
Y020018D01*
X013121Y019952D01*
X013147Y019889D01*
X013188Y019836D01*
X013556Y019467D01*
X01361Y019426D01*
X013672Y019401D01*
X013739Y019392D01*
X014066D01*
X014116Y019327D01*
X014211Y019255D01*
X014321Y019209D01*
X014439Y019193D01*
X014557Y019209D01*
X014667Y019255D01*
X014748Y019317D01*
X01492D01*
X015Y019231D01*
X014985Y019121D01*
X015003Y018982D01*
X015057Y018853D01*
X015142Y018741D01*
X015254Y018656D01*
X015383Y018602D01*
X015522Y018584D01*
X015661Y018602D01*
X015791Y018656D01*
X015902Y018741D01*
X015987Y018853D01*
X016041Y018982D01*
X016059Y019121D01*
X016041Y01926D01*
X015987Y01939D01*
X015902Y019501D01*
X015791Y019586D01*
X015661Y01964D01*
X015522Y019658D01*
X015383Y01964D01*
X015344Y019624D01*
X01521Y019757D01*
X015157Y019798D01*
X015095Y019824D01*
X015028Y019833D01*
X014853D01*
X014834Y019878D01*
X014762Y019973D01*
X014667Y020045D01*
X014557Y020091D01*
Y020209D01*
X014667Y020255D01*
X014762Y020327D01*
X014834Y020422D01*
X01488Y020532D01*
X014896Y02065D01*
X014887Y020713D01*
X01497Y020791D01*
X015088Y020781D01*
X015142Y02071D01*
X015254Y020625D01*
X015383Y020571D01*
X015522Y020553D01*
X015661Y020571D01*
X015672Y020575D01*
X016279Y019967D01*
X016333Y019926D01*
X016395Y019901D01*
X016462Y019892D01*
X01852D01*
X018586Y019901D01*
X018649Y019926D01*
X018702Y019967D01*
X01931Y020575D01*
X01932Y020571D01*
X019459Y020553D01*
X019598Y020571D01*
X019609Y020575D01*
X019908Y020276D01*
X019961Y020235D01*
X020023Y02021D01*
X020059Y020086D01*
X019609Y019636D01*
X019598Y01964D01*
X019459Y019658D01*
X01932Y01964D01*
X019191Y019586D01*
X019079Y019501D01*
X018994Y01939D01*
X01894Y01926D01*
X018922Y019121D01*
X01894Y018982D01*
X018994Y018853D01*
X019079Y018741D01*
X019191Y018656D01*
X01932Y018602D01*
X019459Y018584D01*
X019598Y018602D01*
X019728Y018656D01*
X019839Y018741D01*
X019924Y018853D01*
X019978Y018982D01*
X019996Y019121D01*
X019978Y01926D01*
X019974Y019271D01*
X020395Y019692D01*
X02156D01*
X0216Y019574D01*
X021529Y01952D01*
X021444Y019408D01*
X02139Y019279D01*
X021372Y01914D01*
X02139Y019001D01*
X021444Y018871D01*
X021529Y01876D01*
X021641Y018675D01*
X02177Y018621D01*
X021909Y018603D01*
X022048Y018621D01*
X022178Y018675D01*
X022289Y01876D01*
X022374Y018871D01*
X022428Y019001D01*
X022446Y01914D01*
X022428Y019279D01*
X02239Y019371D01*
X022494Y019422D01*
X022566Y019327D01*
X022661Y019255D01*
X022771Y019209D01*
X022889Y019193D01*
X023007Y019209D01*
X023117Y019255D01*
X023212Y019327D01*
X023284Y019422D01*
X02333Y019532D01*
X023346Y01965D01*
X02333Y019768D01*
X023284Y019878D01*
X023212Y019973D01*
X023117Y020045D01*
X023007Y020091D01*
Y020209D01*
X023117Y020255D01*
X023212Y020327D01*
X023284Y020422D01*
X02333Y020532D01*
X023346Y02065D01*
X023335Y020731D01*
X023946Y021342D01*
X031153D01*
X031168Y021307D01*
X031245Y021206D01*
X031346Y021129D01*
X031463Y02108D01*
X031589Y021063D01*
X031715Y02108D01*
X031832Y021129D01*
X031933Y021206D01*
X03201Y021307D01*
X032059Y021424D01*
X032076Y02155D01*
Y02165D01*
X032059Y021776D01*
X03201Y021893D01*
X031933Y021994D01*
X031894Y022024D01*
X031935Y022142D01*
X033233D01*
X033274Y022024D01*
X033235Y021994D01*
X033158Y021893D01*
X033109Y021776D01*
X033092Y02165D01*
Y02155D01*
X033109Y021424D01*
X033158Y021307D01*
X033235Y021206D01*
X033336Y021129D01*
X033453Y02108D01*
X033579Y021063D01*
X033705Y02108D01*
X033822Y021129D01*
X033923Y021206D01*
X034Y021307D01*
X03402Y021354D01*
X034148D01*
X034168Y021307D01*
X034245Y021206D01*
X034346Y021129D01*
X034463Y02108D01*
X034589Y021063D01*
X034715Y02108D01*
X034832Y021129D01*
X034933Y021206D01*
X03501Y021307D01*
X035059Y021424D01*
X035076Y02155D01*
Y02165D01*
X035059Y021776D01*
X03501Y021893D01*
X034933Y021994D01*
X034894Y022024D01*
X034935Y022142D01*
X042243D01*
X04231Y02209D01*
X042396Y022055D01*
X042489Y022043D01*
X042581Y022055D01*
X042668Y02209D01*
X042742Y022147D01*
X042798Y022221D01*
X042834Y022308D01*
X042846Y0224D01*
X042834Y022492D01*
X042798Y022579D01*
X04286Y022692D01*
X044232D01*
X052466Y014457D01*
X05252Y014416D01*
X052582Y014391D01*
X052649Y014382D01*
X064142D01*
X064931Y013593D01*
Y008291D01*
X064813Y008242D01*
X064373Y008683D01*
X064319Y008724D01*
X064257Y008749D01*
X06419Y008758D01*
X063868D01*
X063815Y008826D01*
X06372Y0089D01*
X063626Y008938D01*
X063617Y009D01*
X063626Y009062D01*
X06372Y0091D01*
X063815Y009174D01*
X063889Y009269D01*
X063935Y009381D01*
X06395Y0095D01*
X063935Y009619D01*
X063889Y009731D01*
X063815Y009826D01*
X06372Y0099D01*
X063626Y009938D01*
X063617Y01D01*
X063626Y010062D01*
X06372Y0101D01*
X063815Y010174D01*
X063889Y010269D01*
X063935Y010381D01*
X06395Y0105D01*
X063935Y010619D01*
X063889Y010731D01*
X063815Y010826D01*
X06372Y0109D01*
X063626Y010938D01*
X063617Y011D01*
X063626Y011062D01*
X06372Y0111D01*
X063815Y011174D01*
X063889Y011269D01*
X063935Y011381D01*
X06395Y0115D01*
X063935Y011619D01*
X063889Y011731D01*
X063815Y011826D01*
X06372Y0119D01*
X06366Y011924D01*
X063683Y012043D01*
X063946D01*
Y012957D01*
X062731D01*
Y012043D01*
X062995D01*
X063018Y011924D01*
X062958Y0119D01*
X062863Y011826D01*
X062789Y011731D01*
X062743Y011619D01*
X062728Y0115D01*
X062743Y011381D01*
X062789Y011269D01*
X062863Y011174D01*
X062958Y0111D01*
X063052Y011062D01*
X063061Y011D01*
X063052Y010938D01*
X062958Y0109D01*
X062863Y010826D01*
X06281Y010758D01*
X062545D01*
X062506Y010809D01*
X062415Y010878D01*
X06231Y010922D01*
X062197Y010937D01*
X062084Y010922D01*
X061978Y010878D01*
X061888Y010809D01*
X061819Y010718D01*
X061775Y010613D01*
X06176Y0105D01*
X061775Y010387D01*
X061819Y010282D01*
X061888Y010191D01*
X061978Y010122D01*
X062084Y010078D01*
X062197Y010063D01*
X06231Y010078D01*
X062415Y010122D01*
X062506Y010191D01*
X062545Y010242D01*
X06281D01*
X062863Y010174D01*
X062958Y0101D01*
X063052Y010062D01*
X063061Y01D01*
X063052Y009938D01*
X062958Y0099D01*
X062863Y009826D01*
X06281Y009758D01*
X062397D01*
X06233Y009749D01*
X062275Y009727D01*
X062197Y009737D01*
X062084Y009722D01*
X061978Y009678D01*
X061888Y009609D01*
X061819Y009518D01*
X061775Y009413D01*
X06176Y0093D01*
X061775Y009187D01*
X061819Y009082D01*
X061888Y008991D01*
X061978Y008922D01*
X062084Y008878D01*
X062197Y008863D01*
X06231Y008878D01*
X062415Y008922D01*
X062506Y008991D01*
X062575Y009082D01*
X062619Y009187D01*
X062626Y009242D01*
X06281D01*
X062863Y009174D01*
X062958Y0091D01*
X063052Y009062D01*
X063061Y009D01*
X063052Y008938D01*
X062958Y0089D01*
X062863Y008826D01*
X06281Y008758D01*
X062597D01*
X06253Y008749D01*
X062468Y008724D01*
X062414Y008683D01*
X06226Y008528D01*
X062197Y008537D01*
X062084Y008522D01*
X061978Y008478D01*
X061888Y008409D01*
X061819Y008318D01*
X061775Y008213D01*
X06176Y0081D01*
X061775Y007987D01*
X061819Y007882D01*
X061888Y007791D01*
X061978Y007722D01*
X062084Y007678D01*
X062197Y007663D01*
X06231Y007678D01*
X062415Y007722D01*
X062506Y007791D01*
X062575Y007882D01*
X062619Y007987D01*
X062634Y0081D01*
X062627Y008151D01*
X062704Y008235D01*
X062819Y00823D01*
X062863Y008174D01*
X062958Y0081D01*
X063052Y008062D01*
X063061Y008D01*
X063052Y007938D01*
X062958Y0079D01*
X062863Y007826D01*
X062789Y007731D01*
X062743Y007619D01*
X062728Y0075D01*
X062743Y007381D01*
X062789Y007269D01*
X062863Y007174D01*
X062958Y0071D01*
X063052Y007062D01*
X063061Y007D01*
X063052Y006938D01*
X062958Y0069D01*
X062863Y006826D01*
X062789Y006731D01*
X062743Y006619D01*
X062728Y0065D01*
X062743Y006381D01*
X062789Y006269D01*
X062863Y006174D01*
X062958Y0061D01*
X06307Y006054D01*
X063189Y006039D01*
X063489D01*
X063608Y006054D01*
X06372Y0061D01*
X063815Y006174D01*
X063889Y006269D01*
X063935Y006381D01*
X06395Y0065D01*
X063935Y006619D01*
X063889Y006731D01*
X063815Y006826D01*
X06372Y0069D01*
X063626Y006938D01*
X063617Y007D01*
X063626Y007062D01*
X06372Y0071D01*
X063815Y007174D01*
X063889Y007269D01*
X063935Y007381D01*
X06395Y0075D01*
X063935Y007619D01*
X063889Y007731D01*
X063815Y007826D01*
X06372Y0079D01*
X063626Y007938D01*
X063617Y008D01*
X063626Y008062D01*
X06372Y0081D01*
X063815Y008174D01*
X063868Y008242D01*
X064083D01*
X064432Y007893D01*
Y00529D01*
X064441Y005223D01*
X064466Y005161D01*
X064507Y005107D01*
X065297Y004317D01*
X065351Y004276D01*
X065413Y004251D01*
X06548Y004242D01*
X06724D01*
X067248Y004124D01*
X067234Y004122D01*
X067128Y004078D01*
X067038Y004009D01*
X066969Y003918D01*
X066925Y003813D01*
X06691Y0037D01*
X066925Y003587D01*
X066969Y003482D01*
X067038Y003391D01*
X067128Y003322D01*
X067234Y003278D01*
X067347Y003263D01*
X06746Y003278D01*
X067565Y003322D01*
X067656Y003391D01*
X067725Y003482D01*
X067769Y003587D01*
X067784Y0037D01*
X067769Y003813D01*
X067725Y003918D01*
X067656Y004009D01*
X067565Y004078D01*
X06746Y004122D01*
X067446Y004124D01*
X067454Y004242D01*
X069639D01*
X069706Y004251D01*
X069768Y004276D01*
X069821Y004317D01*
X070271Y004767D01*
X070313Y004821D01*
X070338Y004883D01*
X070347Y00495D01*
Y01125D01*
X070338Y011317D01*
X070313Y011379D01*
X070271Y011433D01*
X069971Y011733D01*
X069918Y011774D01*
X069856Y011799D01*
X069789Y011808D01*
X069524D01*
X069458Y011894D01*
X069357Y011971D01*
X069322Y011986D01*
Y012114D01*
X069357Y012129D01*
X069458Y012206D01*
X069535Y012307D01*
X069584Y012424D01*
X069601Y01255D01*
X069584Y012676D01*
X069535Y012793D01*
X069458Y012894D01*
X069357Y012971D01*
X06924Y01302D01*
X069114Y013037D01*
X068864D01*
X068738Y01302D01*
X068621Y012971D01*
X06852Y012894D01*
X068454Y012808D01*
X067896D01*
X064371Y016333D01*
X064318Y016374D01*
X064256Y016399D01*
X064189Y016408D01*
X053096D01*
X047897Y021607D01*
Y022859D01*
X047888Y022926D01*
X047863Y022988D01*
X047821Y023041D01*
X047383Y023479D01*
X047821Y023917D01*
X047863Y023971D01*
X047888Y024033D01*
X047897Y0241D01*
Y025593D01*
X048238Y025934D01*
X049323D01*
X049344Y025917D01*
X049396Y025816D01*
X049382Y025782D01*
X049371Y0257D01*
X049382Y025618D01*
X049414Y025541D01*
X049464Y025475D01*
X04953Y025425D01*
X049607Y025393D01*
X049689Y025382D01*
X049771Y025393D01*
X049848Y025425D01*
X049914Y025475D01*
X049964Y025541D01*
X049996Y025618D01*
X050007Y0257D01*
X049996Y025782D01*
X049982Y025816D01*
X050034Y025917D01*
X050055Y025934D01*
X050461D01*
X053323Y023072D01*
Y022716D01*
X053306Y022695D01*
X053205Y022643D01*
X053171Y022657D01*
X053089Y022668D01*
X053007Y022657D01*
X05293Y022625D01*
X052864Y022575D01*
X052814Y022509D01*
X052782Y022432D01*
X052771Y02235D01*
X052782Y022268D01*
X052814Y022191D01*
X052835Y022163D01*
X05284Y022129D01*
X052865Y022067D01*
X052906Y022014D01*
X053172Y021747D01*
X053226Y021706D01*
X053288Y021681D01*
X053355Y021672D01*
X054419D01*
X054486Y021681D01*
X054548Y021706D01*
X054601Y021747D01*
X054971Y022117D01*
X055013Y022171D01*
X055038Y022233D01*
X055047Y0223D01*
Y0281D01*
X055038Y028167D01*
X055013Y028229D01*
X054971Y028283D01*
X054371Y028883D01*
X054318Y028924D01*
X054256Y028949D01*
X054189Y028958D01*
X046046D01*
X043436Y031568D01*
X043383Y031609D01*
X043321Y031634D01*
X043254Y031643D01*
X042764D01*
X042711Y031711D01*
X042616Y031785D01*
X042522Y031823D01*
X042513Y031885D01*
X042522Y031947D01*
X042616Y031985D01*
X042711Y032059D01*
X042785Y032154D01*
X042831Y032266D01*
X042846Y032385D01*
X042831Y032504D01*
X042785Y032616D01*
X042711Y032711D01*
X042616Y032785D01*
X042522Y032823D01*
X042513Y032885D01*
X042522Y032947D01*
X042616Y032985D01*
X042711Y033059D01*
X042785Y033154D01*
X042831Y033266D01*
X042846Y033385D01*
X042831Y033504D01*
X04282Y033529D01*
X042842Y033579D01*
X042902Y033642D01*
X05013D01*
X050197Y033651D01*
X050259Y033676D01*
X050313Y033717D01*
X051721Y035126D01*
X051763Y03518D01*
X051788Y035242D01*
X051797Y035309D01*
Y0411D01*
X051788Y041167D01*
X051763Y041229D01*
X051721Y041283D01*
X050671Y042333D01*
X050618Y042374D01*
X050579Y042464D01*
X050572Y042487D01*
X050577Y042513D01*
X050611Y042595D01*
X050626Y042708D01*
X050611Y042821D01*
X050567Y042926D01*
X050498Y043017D01*
X050407Y043086D01*
X050302Y04313D01*
X050189Y043145D01*
X050076Y04313D01*
X049971Y043086D01*
X04988Y043017D01*
X049811Y042926D01*
X049767Y042821D01*
X049752Y042708D01*
X049767Y042595D01*
X049795Y042526D01*
X049738Y042408D01*
X046799D01*
X046773Y042434D01*
X046729Y042526D01*
X046746Y042568D01*
X046757Y04265D01*
X046746Y042732D01*
X046714Y042809D01*
X046664Y042875D01*
X046598Y042925D01*
X046521Y042957D01*
X046439Y042968D01*
X046357Y042957D01*
X04628Y042925D01*
X046214Y042875D01*
X046171D01*
X046106Y042925D01*
X046029Y042957D01*
X045947Y042968D01*
X045865Y042957D01*
X045788Y042925D01*
X045722Y042875D01*
X045672Y042809D01*
X04564Y042732D01*
X045629Y04265D01*
X04564Y042568D01*
X045672Y042491D01*
X045689Y042469D01*
Y042453D01*
X045698Y042386D01*
X045723Y042324D01*
X045764Y042271D01*
X046039Y041996D01*
X046002Y041888D01*
X045993Y041878D01*
X045178D01*
X043852Y043204D01*
X043901Y043322D01*
X050602D01*
X051006Y042917D01*
X051981Y041943D01*
Y033157D01*
X050582Y031758D01*
X050012D01*
X049962Y031823D01*
X049867Y031895D01*
X049757Y031941D01*
Y032059D01*
X049867Y032105D01*
X049962Y032177D01*
X050034Y032272D01*
X05008Y032382D01*
X050096Y0325D01*
X05008Y032618D01*
X050034Y032728D01*
X049962Y032823D01*
X049867Y032895D01*
X049757Y032941D01*
X049639Y032957D01*
X049521Y032941D01*
X049411Y032895D01*
X049316Y032823D01*
X049243Y032728D01*
X049198Y032618D01*
X049182Y0325D01*
X049193Y032419D01*
X048932Y032158D01*
X047142D01*
X046549Y032751D01*
X046553Y032762D01*
X046571Y032901D01*
X046553Y03304D01*
X046499Y033169D01*
X046414Y033281D01*
X046303Y033366D01*
X046173Y03342D01*
X046034Y033438D01*
X045895Y03342D01*
X045766Y033366D01*
X045654Y033281D01*
X045569Y033169D01*
X045515Y03304D01*
X045497Y032901D01*
X045515Y032762D01*
X045569Y032632D01*
X045654Y032521D01*
X045766Y032436D01*
X045895Y032382D01*
X046034Y032364D01*
X046173Y032382D01*
X046183Y032386D01*
X046852Y031717D01*
X046906Y031676D01*
X046968Y031651D01*
X047035Y031642D01*
X049039D01*
X049089Y031648D01*
X04909Y031648D01*
X04915Y031605D01*
X049184Y03157D01*
X04919Y031558D01*
X049182Y0315D01*
X049198Y031382D01*
X049243Y031272D01*
X049306Y031191D01*
Y030732D01*
X049132Y030558D01*
X049003D01*
X048945Y030676D01*
X048949Y030682D01*
X049003Y030812D01*
X049021Y030951D01*
X049003Y03109D01*
X048949Y031219D01*
X048864Y031331D01*
X048753Y031416D01*
X048623Y03147D01*
X048484Y031488D01*
X048345Y03147D01*
X048216Y031416D01*
X048104Y031331D01*
X048019Y031219D01*
X047965Y03109D01*
X047947Y030951D01*
X047965Y030812D01*
X048019Y030682D01*
X048024Y030676D01*
X047965Y030558D01*
X046773D01*
X046549Y030783D01*
X046553Y030793D01*
X046571Y030932D01*
X046553Y031071D01*
X046499Y031201D01*
X046414Y031312D01*
X046303Y031397D01*
X046173Y031451D01*
X046034Y031469D01*
X045895Y031451D01*
X045766Y031397D01*
X045654Y031312D01*
X045569Y031201D01*
X045515Y031071D01*
X045497Y030932D01*
X045515Y030793D01*
X045569Y030664D01*
X045654Y030553D01*
X045728Y030496D01*
X045736Y030474D01*
X045738Y030382D01*
X045729Y030354D01*
X04568Y030317D01*
X045611Y030226D01*
X045567Y030121D01*
X045552Y030008D01*
X045567Y029895D01*
X045611Y029789D01*
X04568Y029699D01*
X045771Y02963D01*
X045876Y029586D01*
X045989Y029571D01*
X046102Y029586D01*
X046207Y02963D01*
X046298Y029699D01*
X046367Y029789D01*
X046411Y029895D01*
X046426Y030008D01*
X046425Y030014D01*
X046536Y030078D01*
X046537Y030076D01*
X0466Y030051D01*
X046666Y030042D01*
X049239D01*
X049306Y030051D01*
X049368Y030076D01*
X049421Y030117D01*
X049746Y030442D01*
X049787Y030496D01*
X049813Y030558D01*
X049822Y030625D01*
Y031086D01*
X049867Y031105D01*
X049962Y031177D01*
X050012Y031242D01*
X050689D01*
X050756Y031251D01*
X050818Y031276D01*
X050871Y031317D01*
X052421Y032867D01*
X052463Y032921D01*
X052488Y032983D01*
X052497Y03305D01*
Y04205D01*
X052488Y042117D01*
X052463Y042179D01*
X052421Y042233D01*
X051371Y043283D01*
X051371Y043283D01*
X051061Y043593D01*
X051106Y043702D01*
X057372D01*
X058331Y042743D01*
Y022773D01*
X058266Y022723D01*
X058193Y022628D01*
X058148Y022518D01*
X05803D01*
X057984Y022628D01*
X057912Y022723D01*
X057817Y022795D01*
X057707Y022841D01*
X057589Y022857D01*
X057471Y022841D01*
X057361Y022795D01*
X057266Y022723D01*
X057193Y022628D01*
X057148Y022518D01*
X057132Y0224D01*
X057148Y022282D01*
X057193Y022172D01*
X057266Y022077D01*
X057361Y022005D01*
X057471Y021959D01*
X057589Y021943D01*
X05767Y021954D01*
X057966Y021657D01*
X05802Y021616D01*
X058082Y021591D01*
X058149Y021582D01*
X058874D01*
X058913Y02149D01*
X058918Y021464D01*
X058837Y021358D01*
X058783Y021229D01*
X058765Y02109D01*
X058783Y020951D01*
X058837Y020821D01*
X058922Y02071D01*
X059033Y020625D01*
X059163Y020571D01*
X059302Y020553D01*
X059441Y020571D01*
X05957Y020625D01*
X059682Y02071D01*
X059767Y020821D01*
X059821Y020951D01*
X059839Y02109D01*
X059821Y021229D01*
X059767Y021358D01*
X059686Y021464D01*
X05969Y02149D01*
X059729Y021582D01*
X06037D01*
X060409Y02149D01*
X060414Y021464D01*
X060333Y021358D01*
X060279Y021229D01*
X060261Y02109D01*
X060279Y020951D01*
X060333Y020821D01*
X060418Y02071D01*
X060529Y020625D01*
X060659Y020571D01*
X060798Y020553D01*
X060937Y020571D01*
X061066Y020625D01*
X061178Y02071D01*
X061263Y020821D01*
X061317Y020951D01*
X061335Y02109D01*
X061317Y021229D01*
X061263Y021358D01*
X061178Y02147D01*
X061094Y021534D01*
X061074Y02161D01*
X061074Y021616D01*
X061081Y021677D01*
X061358Y021954D01*
X061439Y021943D01*
X061557Y021959D01*
X061667Y022005D01*
X061762Y022077D01*
X061834Y022172D01*
X06188Y022282D01*
X061998D01*
X062043Y022172D01*
X062116Y022077D01*
X062211Y022005D01*
X062321Y021959D01*
X062439Y021943D01*
X062557Y021959D01*
X062667Y022005D01*
X062762Y022077D01*
X062834Y022172D01*
X06288Y022282D01*
X062896Y0224D01*
X06288Y022518D01*
X062834Y022628D01*
X062762Y022723D01*
X062697Y022773D01*
Y0428D01*
X062688Y042867D01*
X062663Y042929D01*
X062621Y042983D01*
X061041Y044563D01*
X060988Y044604D01*
X060926Y044629D01*
X060859Y044638D01*
X052046D01*
X052001Y044747D01*
X052571Y045317D01*
X052613Y045371D01*
X052638Y045433D01*
X052647Y0455D01*
Y046043D01*
X052846D01*
Y046292D01*
X05363D01*
X053697Y046301D01*
X053702Y046303D01*
X054318D01*
Y04599D01*
X05546D01*
Y045992D01*
X058188D01*
X058231Y045911D01*
X058307Y045818D01*
X0584Y045742D01*
X058505Y045686D01*
X05862Y045651D01*
X058739Y04564D01*
X058858Y045651D01*
X058973Y045686D01*
X059078Y045742D01*
X059171Y045818D01*
X059247Y045911D01*
X059303Y046016D01*
X059338Y046131D01*
X059349Y04625D01*
X059338Y046369D01*
X059311Y046457D01*
X059396Y046542D01*
X061349D01*
X06138Y046501D01*
X061471Y046432D01*
X061576Y046388D01*
X061689Y046373D01*
X061802Y046388D01*
X061907Y046432D01*
X061998Y046501D01*
X062067Y046591D01*
X062111Y046697D01*
X062126Y04681D01*
X062111Y046923D01*
X062067Y047028D01*
X061998Y047119D01*
X061907Y047188D01*
X061802Y047232D01*
X061689Y047247D01*
X061576Y047232D01*
X061471Y047188D01*
X06138Y047119D01*
X061334Y047058D01*
X059289D01*
X059222Y047049D01*
X05916Y047024D01*
X059106Y046983D01*
X058946Y046822D01*
X058858Y046849D01*
X058739Y04686D01*
X05862Y046849D01*
X058505Y046814D01*
X0584Y046758D01*
X058307Y046682D01*
X058231Y046589D01*
X058188Y046508D01*
X05546D01*
Y047132D01*
X054318D01*
Y046819D01*
X053641D01*
X053574Y04681D01*
X053569Y046808D01*
X052846D01*
Y047057D01*
X051932D01*
Y046794D01*
X051813Y046771D01*
X051789Y046831D01*
X051715Y046926D01*
X05162Y047D01*
X051508Y047046D01*
X051389Y047061D01*
X05127Y047046D01*
X051158Y047D01*
X051063Y046926D01*
X050989Y046831D01*
X05098Y046808D01*
X050738D01*
X050678Y0468D01*
X050437D01*
X050398Y046851D01*
X050307Y04692D01*
X050202Y046964D01*
X050089Y046979D01*
X049976Y046964D01*
X049871Y04692D01*
X04978Y046851D01*
X049711Y046761D01*
X049667Y046655D01*
X049652Y046542D01*
X049667Y046429D01*
X049711Y046324D01*
X04978Y046233D01*
X049871Y046164D01*
X049976Y04612D01*
X050089Y046105D01*
X050202Y04612D01*
X050307Y046164D01*
X050398Y046233D01*
X050437Y046284D01*
X05073D01*
X05079Y046292D01*
X05098D01*
X050989Y046269D01*
X051063Y046174D01*
X051158Y0461D01*
X05127Y046054D01*
X051389Y046039D01*
X051508Y046054D01*
X05162Y0461D01*
X051715Y046174D01*
X051789Y046269D01*
X051813Y046329D01*
X051932Y046306D01*
Y046043D01*
X052131D01*
Y045607D01*
X051582Y045058D01*
X046689D01*
Y048608D01*
X04668Y048675D01*
X046655Y048737D01*
X046614Y04879D01*
X04598Y049424D01*
X046029Y049542D01*
X060602D01*
X061256Y048888D01*
Y048408D01*
X059326D01*
X059303Y048484D01*
X059247Y048589D01*
X059171Y048682D01*
X059078Y048758D01*
X058973Y048814D01*
X058858Y048849D01*
X058739Y04886D01*
X05862Y048849D01*
X058505Y048814D01*
X0584Y048758D01*
X058307Y048682D01*
X058231Y048589D01*
X058175Y048484D01*
X05814Y048369D01*
X058129Y04825D01*
X05814Y048131D01*
X058175Y048016D01*
X058231Y047911D01*
X058307Y047818D01*
X0584Y047742D01*
X058505Y047686D01*
X05862Y047651D01*
X058739Y04764D01*
X058858Y047651D01*
X058973Y047686D01*
X059078Y047742D01*
X059171Y047818D01*
X059231Y047892D01*
X061341D01*
X06138Y047841D01*
X061471Y047772D01*
X061576Y047728D01*
X061689Y047713D01*
X061802Y047728D01*
X061907Y047772D01*
X061998Y047841D01*
X062067Y047932D01*
X062111Y048037D01*
X062126Y04815D01*
X062111Y048263D01*
X062108Y048269D01*
X062119Y048361D01*
X062167Y048423D01*
X064068D01*
Y047818D01*
X06521D01*
Y04896D01*
X064897D01*
Y050393D01*
X065196Y050692D01*
X068331D01*
Y050443D01*
X068433D01*
X068472Y05034D01*
X068475Y050324D01*
X068396Y050222D01*
X068345Y050098D01*
X068327Y049966D01*
X068345Y049833D01*
X068396Y04971D01*
X068477Y049604D01*
X068583Y049522D01*
X068706Y049471D01*
X068839Y049454D01*
X068971Y049471D01*
X069095Y049522D01*
X069201Y049604D01*
X069282Y04971D01*
X069333Y049833D01*
X069351Y049966D01*
X069333Y050098D01*
X069282Y050222D01*
X069203Y050324D01*
X069206Y05034D01*
X069245Y050443D01*
X069346D01*
Y051457D01*
D02*
G37*
G36*
X012131Y049887D02*
X012018Y049872D01*
X011913Y049828D01*
X011822Y049759D01*
X011753Y049668D01*
X011709Y049563D01*
X011694Y04945D01*
X011709Y049337D01*
X011753Y049232D01*
X011822Y049141D01*
X011913Y049072D01*
X012018Y049028D01*
X012131Y049013D01*
X012244Y049028D01*
X012349Y049072D01*
X01244Y049141D01*
X012509Y049232D01*
X012553Y049337D01*
X012568Y04945D01*
X012553Y049563D01*
X012509Y049668D01*
X01244Y049759D01*
X012349Y049828D01*
X012244Y049872D01*
X012131Y049887D01*
D02*
G37*
G36*
X069396Y048042D02*
X068382D01*
Y047027D01*
X069396D01*
Y048042D01*
D02*
G37*
G36*
X012389Y047911D02*
X012289D01*
X01217Y047896D01*
X012058Y04785D01*
X011963Y047776D01*
X011889Y047681D01*
X011843Y047569D01*
X011828Y04745D01*
X011843Y047331D01*
X011889Y047219D01*
X011963Y047124D01*
X012058Y04705D01*
X012118Y047026D01*
X012095Y046907D01*
X011832D01*
Y045993D01*
X012534D01*
X012539Y045992D01*
X015168D01*
Y045679D01*
X015945D01*
X015956Y045667D01*
X01601Y045626D01*
X016072Y045601D01*
X016139Y045592D01*
X019238D01*
X019281Y045511D01*
X019357Y045418D01*
X01945Y045342D01*
X019555Y045286D01*
X01967Y045251D01*
X019789Y04524D01*
X019908Y045251D01*
X020023Y045286D01*
X020128Y045342D01*
X020221Y045418D01*
X020297Y045511D01*
X020353Y045616D01*
X020388Y045731D01*
X020399Y04585D01*
X020388Y045969D01*
X020361Y046057D01*
X020456Y046152D01*
X022441D01*
X02248Y046101D01*
X022571Y046032D01*
X022676Y045988D01*
X022789Y045973D01*
X022902Y045988D01*
X023007Y046032D01*
X023098Y046101D01*
X023167Y046191D01*
X023211Y046297D01*
X023226Y04641D01*
X023211Y046523D01*
X023167Y046628D01*
X023098Y046719D01*
X023007Y046788D01*
X022902Y046832D01*
X022789Y046847D01*
X022676Y046832D01*
X022571Y046788D01*
X02248Y046719D01*
X022441Y046668D01*
X020349D01*
X020282Y046659D01*
X02022Y046633D01*
X020166Y046592D01*
X019996Y046422D01*
X019908Y046449D01*
X019789Y04646D01*
X01967Y046449D01*
X019555Y046414D01*
X01945Y046358D01*
X019357Y046282D01*
X019281Y046189D01*
X019238Y046108D01*
X01631D01*
Y046821D01*
X015168D01*
Y046508D01*
X012846D01*
Y046907D01*
X012583D01*
X01256Y047026D01*
X01262Y04705D01*
X012715Y047124D01*
X012789Y047219D01*
X012835Y047331D01*
X01285Y04745D01*
X012835Y047569D01*
X012789Y047681D01*
X012715Y047776D01*
X01262Y04785D01*
X012508Y047896D01*
X012389Y047911D01*
D02*
G37*
G36*
X032736Y035425D02*
X032597Y035407D01*
X032467Y035353D01*
X032356Y035268D01*
X032271Y035156D01*
X032217Y035027D01*
X032199Y034888D01*
X032217Y034749D01*
X032271Y034619D01*
X032356Y034508D01*
X032467Y034423D01*
X032597Y034369D01*
X032736Y034351D01*
X032875Y034369D01*
X033005Y034423D01*
X033116Y034508D01*
X033201Y034619D01*
X033255Y034749D01*
X033273Y034888D01*
X033255Y035027D01*
X033201Y035156D01*
X033116Y035268D01*
X033005Y035353D01*
X032875Y035407D01*
X032736Y035425D01*
D02*
G37*
G36*
X048475Y033438D02*
X048336Y03342D01*
X048206Y033366D01*
X048095Y033281D01*
X04801Y033169D01*
X047956Y03304D01*
X047938Y032901D01*
X047956Y032762D01*
X04801Y032632D01*
X048095Y032521D01*
X048206Y032436D01*
X048336Y032382D01*
X048475Y032364D01*
X048614Y032382D01*
X048744Y032436D01*
X048855Y032521D01*
X04894Y032632D01*
X048994Y032762D01*
X049012Y032901D01*
X048994Y03304D01*
X04894Y033169D01*
X048855Y033281D01*
X048744Y033366D01*
X048614Y03342D01*
X048475Y033438D01*
D02*
G37*
G36*
X032727D02*
X032588Y03342D01*
X032458Y033366D01*
X032347Y033281D01*
X032262Y033169D01*
X032208Y03304D01*
X03219Y032901D01*
X032208Y032762D01*
X032262Y032632D01*
X032347Y032521D01*
X032458Y032436D01*
X032588Y032382D01*
X032727Y032364D01*
X032866Y032382D01*
X032996Y032436D01*
X033107Y032521D01*
X033192Y032632D01*
X033246Y032762D01*
X033264Y032901D01*
X033246Y03304D01*
X033192Y033169D01*
X033107Y033281D01*
X032996Y033366D01*
X032866Y03342D01*
X032727Y033438D01*
D02*
G37*
G36*
X063239Y021627D02*
X0631Y021609D01*
X06297Y021555D01*
X062859Y02147D01*
X062774Y021358D01*
X06272Y021229D01*
X062702Y02109D01*
X06272Y020951D01*
X062774Y020821D01*
X062859Y02071D01*
X06297Y020625D01*
X0631Y020571D01*
X063239Y020553D01*
X063378Y020571D01*
X063507Y020625D01*
X063619Y02071D01*
X063704Y020821D01*
X063758Y020951D01*
X063776Y02109D01*
X063758Y021229D01*
X063704Y021358D01*
X063619Y02147D01*
X063507Y021555D01*
X063378Y021609D01*
X063239Y021627D01*
D02*
G37*
G36*
X056861D02*
X056722Y021609D01*
X056592Y021555D01*
X056481Y02147D01*
X056396Y021358D01*
X056342Y021229D01*
X056324Y02109D01*
X056342Y020951D01*
X056396Y020821D01*
X056481Y02071D01*
X056592Y020625D01*
X056722Y020571D01*
X056861Y020553D01*
X057Y020571D01*
X057129Y020625D01*
X057241Y02071D01*
X057326Y020821D01*
X05738Y020951D01*
X057398Y02109D01*
X05738Y021229D01*
X057326Y021358D01*
X057241Y02147D01*
X057129Y021555D01*
X057Y021609D01*
X056861Y021627D01*
D02*
G37*
G36*
X017963D02*
X017824Y021609D01*
X017695Y021555D01*
X017583Y02147D01*
X017498Y021358D01*
X017444Y021229D01*
X017426Y02109D01*
X017444Y020951D01*
X017498Y020821D01*
X017583Y02071D01*
X017695Y020625D01*
X017824Y020571D01*
X017963Y020553D01*
X018102Y020571D01*
X018232Y020625D01*
X018343Y02071D01*
X018428Y020821D01*
X018482Y020951D01*
X0185Y02109D01*
X018482Y021229D01*
X018428Y021358D01*
X018343Y02147D01*
X018232Y021555D01*
X018102Y021609D01*
X017963Y021627D01*
D02*
G37*
G36*
X063248Y019677D02*
X063109Y019659D01*
X062979Y019605D01*
X062868Y01952D01*
X062783Y019408D01*
X062729Y019279D01*
X062711Y01914D01*
X062729Y019001D01*
X062783Y018871D01*
X062868Y01876D01*
X062979Y018675D01*
X063109Y018621D01*
X063248Y018603D01*
X063387Y018621D01*
X063516Y018675D01*
X063628Y01876D01*
X063713Y018871D01*
X063767Y019001D01*
X063785Y01914D01*
X063767Y019279D01*
X063713Y019408D01*
X063628Y01952D01*
X063516Y019605D01*
X063387Y019659D01*
X063248Y019677D01*
D02*
G37*
G36*
X059311D02*
X059172Y019659D01*
X059042Y019605D01*
X058931Y01952D01*
X058846Y019408D01*
X058792Y019279D01*
X058774Y01914D01*
X058792Y019001D01*
X058846Y018871D01*
X058931Y01876D01*
X059042Y018675D01*
X059172Y018621D01*
X059311Y018603D01*
X05945Y018621D01*
X059579Y018675D01*
X059691Y01876D01*
X059776Y018871D01*
X05983Y019001D01*
X059848Y01914D01*
X05983Y019279D01*
X059776Y019408D01*
X059691Y01952D01*
X059579Y019605D01*
X05945Y019659D01*
X059311Y019677D01*
D02*
G37*
G36*
X017972D02*
X017833Y019659D01*
X017704Y019605D01*
X017592Y01952D01*
X017507Y019408D01*
X017453Y019279D01*
X017435Y01914D01*
X017453Y019001D01*
X017507Y018871D01*
X017592Y01876D01*
X017704Y018675D01*
X017833Y018621D01*
X017972Y018603D01*
X018111Y018621D01*
X018241Y018675D01*
X018352Y01876D01*
X018437Y018871D01*
X018491Y019001D01*
X018509Y01914D01*
X018491Y019279D01*
X018437Y019408D01*
X018352Y01952D01*
X018241Y019605D01*
X018111Y019659D01*
X017972Y019677D01*
D02*
G37*
G36*
X060798Y019658D02*
X060659Y01964D01*
X060529Y019586D01*
X060418Y019501D01*
X060333Y01939D01*
X060279Y01926D01*
X060261Y019121D01*
X060279Y018982D01*
X060333Y018853D01*
X060418Y018741D01*
X060529Y018656D01*
X060659Y018602D01*
X060798Y018584D01*
X060937Y018602D01*
X061066Y018656D01*
X061178Y018741D01*
X061263Y018853D01*
X061317Y018982D01*
X061335Y019121D01*
X061317Y01926D01*
X061263Y01939D01*
X061178Y019501D01*
X061066Y019586D01*
X060937Y01964D01*
X060798Y019658D01*
D02*
G37*
G36*
X056861D02*
X056722Y01964D01*
X056592Y019586D01*
X056481Y019501D01*
X056396Y01939D01*
X056342Y01926D01*
X056324Y019121D01*
X056342Y018982D01*
X056396Y018853D01*
X056481Y018741D01*
X056592Y018656D01*
X056722Y018602D01*
X056861Y018584D01*
X057Y018602D01*
X057129Y018656D01*
X057241Y018741D01*
X057326Y018853D01*
X05738Y018982D01*
X057398Y019121D01*
X05738Y01926D01*
X057326Y01939D01*
X057241Y019501D01*
X057129Y019586D01*
X057Y01964D01*
X056861Y019658D01*
D02*
G37*
G36*
X064597Y018137D02*
X064484Y018122D01*
X064378Y018078D01*
X064288Y018009D01*
X064219Y017918D01*
X064175Y017813D01*
X06416Y0177D01*
X064175Y017587D01*
X064219Y017482D01*
X064288Y017391D01*
X064378Y017322D01*
X064484Y017278D01*
X064597Y017263D01*
X06471Y017278D01*
X064815Y017322D01*
X064906Y017391D01*
X064975Y017482D01*
X065019Y017587D01*
X065034Y0177D01*
X065019Y017813D01*
X064975Y017918D01*
X064906Y018009D01*
X064815Y018078D01*
X06471Y018122D01*
X064597Y018137D01*
D02*
G37*
G36*
X055631D02*
X055518Y018122D01*
X055413Y018078D01*
X055322Y018009D01*
X055253Y017918D01*
X055209Y017813D01*
X055194Y0177D01*
X055209Y017587D01*
X055253Y017482D01*
X055322Y017391D01*
X055413Y017322D01*
X055518Y017278D01*
X055631Y017263D01*
X055744Y017278D01*
X055849Y017322D01*
X05594Y017391D01*
X056009Y017482D01*
X056053Y017587D01*
X056068Y0177D01*
X056053Y017813D01*
X056009Y017918D01*
X05594Y018009D01*
X055849Y018078D01*
X055744Y018122D01*
X055631Y018137D01*
D02*
G37*
G36*
X022997Y017837D02*
X022884Y017822D01*
X022778Y017778D01*
X022688Y017709D01*
X022619Y017618D01*
X022575Y017513D01*
X02256Y0174D01*
X022575Y017287D01*
X022619Y017182D01*
X022688Y017091D01*
X022778Y017022D01*
X022884Y016978D01*
X022997Y016963D01*
X02311Y016978D01*
X023215Y017022D01*
X023306Y017091D01*
X023375Y017182D01*
X023419Y017287D01*
X023434Y0174D01*
X023419Y017513D01*
X023375Y017618D01*
X023306Y017709D01*
X023215Y017778D01*
X02311Y017822D01*
X022997Y017837D01*
D02*
G37*
G36*
X014031D02*
X013918Y017822D01*
X013813Y017778D01*
X013722Y017709D01*
X013653Y017618D01*
X013609Y017513D01*
X013594Y0174D01*
X013609Y017287D01*
X013653Y017182D01*
X013722Y017091D01*
X013813Y017022D01*
X013918Y016978D01*
X014031Y016963D01*
X014144Y016978D01*
X01425Y017022D01*
X01434Y017091D01*
X014409Y017182D01*
X014453Y017287D01*
X014468Y0174D01*
X014453Y017513D01*
X014409Y017618D01*
X01434Y017709D01*
X01425Y017778D01*
X014144Y017822D01*
X014031Y017837D01*
D02*
G37*
G36*
X068889Y015679D02*
X068776Y015664D01*
X068671Y01562D01*
X06858Y015551D01*
X068511Y015461D01*
X068467Y015355D01*
X068452Y015242D01*
X068467Y015129D01*
X068511Y015024D01*
X06858Y014933D01*
X068671Y014864D01*
X068776Y01482D01*
X068889Y014805D01*
X069002Y01482D01*
X069107Y014864D01*
X069198Y014933D01*
X069267Y015024D01*
X069311Y015129D01*
X069326Y015242D01*
X069311Y015355D01*
X069267Y015461D01*
X069198Y015551D01*
X069107Y01562D01*
X069002Y015664D01*
X068889Y015679D01*
D02*
G37*
G36*
X066389D02*
X066276Y015664D01*
X066171Y01562D01*
X06608Y015551D01*
X066011Y015461D01*
X065967Y015355D01*
X065952Y015242D01*
X065967Y015129D01*
X066011Y015024D01*
X06608Y014933D01*
X066171Y014864D01*
X066276Y01482D01*
X066389Y014805D01*
X066502Y01482D01*
X066607Y014864D01*
X066698Y014933D01*
X066767Y015024D01*
X066811Y015129D01*
X066826Y015242D01*
X066811Y015355D01*
X066767Y015461D01*
X066698Y015551D01*
X066607Y01562D01*
X066502Y015664D01*
X066389Y015679D01*
D02*
G37*
G36*
X067639Y015629D02*
X067526Y015614D01*
X067421Y01557D01*
X06733Y015501D01*
X067261Y015411D01*
X067217Y015305D01*
X067202Y015192D01*
X067217Y015079D01*
X067261Y014974D01*
X06733Y014883D01*
X067421Y014814D01*
X067526Y01477D01*
X067639Y014755D01*
X067752Y01477D01*
X067857Y014814D01*
X067948Y014883D01*
X068017Y014974D01*
X068061Y015079D01*
X068076Y015192D01*
X068061Y015305D01*
X068017Y015411D01*
X067948Y015501D01*
X067857Y01557D01*
X067752Y015614D01*
X067639Y015629D01*
D02*
G37*
G36*
X014989Y015395D02*
X014876Y01538D01*
X014771Y015336D01*
X01468Y015267D01*
X014641Y015216D01*
X014447D01*
X01438Y015207D01*
X014318Y015181D01*
X014264Y01514D01*
X013827Y014703D01*
X013755Y014712D01*
X013616Y014694D01*
X013486Y01464D01*
X013375Y014555D01*
X01329Y014444D01*
X013236Y014314D01*
X013218Y014175D01*
X013221Y014147D01*
X012482Y013408D01*
X011339D01*
X011289Y013402D01*
X011288Y013402D01*
X011228Y013445D01*
X011194Y01348D01*
X011188Y013492D01*
X011196Y01355D01*
X01118Y013668D01*
X011134Y013778D01*
X011062Y013873D01*
X010967Y013945D01*
X010857Y013991D01*
X010739Y014007D01*
X010621Y013991D01*
X010511Y013945D01*
X010416Y013873D01*
X010344Y013778D01*
X010298Y013668D01*
X010282Y01355D01*
X010298Y013432D01*
X010344Y013322D01*
X010416Y013227D01*
X010511Y013155D01*
X010621Y013109D01*
Y012991D01*
X010511Y012945D01*
X010416Y012873D01*
X010344Y012778D01*
X010298Y012668D01*
X010282Y01255D01*
X010298Y012432D01*
X010344Y012322D01*
X010416Y012227D01*
X010511Y012155D01*
X010621Y012109D01*
X010739Y012093D01*
X010857Y012109D01*
X010967Y012155D01*
X011062Y012227D01*
X011134Y012322D01*
X01118Y012432D01*
X011196Y01255D01*
X011185Y012631D01*
X011446Y012892D01*
X012589D01*
X012656Y012901D01*
X012718Y012926D01*
X012771Y012967D01*
X013506Y013702D01*
X013616Y013656D01*
X013755Y013638D01*
X013894Y013656D01*
X014023Y01371D01*
X014134Y013795D01*
X01422Y013906D01*
X014274Y014036D01*
X014292Y014175D01*
X014274Y014314D01*
X014243Y014389D01*
X014534Y01468D01*
X014661Y014674D01*
X01468Y014649D01*
X014771Y01458D01*
X014876Y014536D01*
X014989Y014521D01*
X015102Y014536D01*
X015207Y01458D01*
X015298Y014649D01*
X015367Y014739D01*
X015411Y014845D01*
X015426Y014958D01*
X015411Y015071D01*
X015367Y015176D01*
X015298Y015267D01*
X015207Y015336D01*
X015102Y01538D01*
X014989Y015395D01*
D02*
G37*
G36*
X011805Y014703D02*
X011666Y014685D01*
X011536Y014631D01*
X011425Y014546D01*
X01134Y014434D01*
X011286Y014305D01*
X011268Y014166D01*
X011286Y014027D01*
X01134Y013897D01*
X011425Y013786D01*
X011536Y013701D01*
X011666Y013647D01*
X011805Y013629D01*
X011944Y013647D01*
X012073Y013701D01*
X012184Y013786D01*
X01227Y013897D01*
X012323Y014027D01*
X012342Y014166D01*
X012323Y014305D01*
X01227Y014434D01*
X012184Y014546D01*
X012073Y014631D01*
X011944Y014685D01*
X011805Y014703D01*
D02*
G37*
G36*
X046339Y013958D02*
X041639D01*
X041572Y013949D01*
X04151Y013924D01*
X041456Y013883D01*
X040556Y012983D01*
X040515Y012929D01*
X04049Y012867D01*
X040481Y0128D01*
Y012029D01*
X040413Y011976D01*
X040339Y011881D01*
X040293Y011769D01*
X040278Y01165D01*
Y01135D01*
X040293Y011231D01*
X04032Y011166D01*
X040256Y011048D01*
X039222D01*
X039158Y011166D01*
X039185Y011231D01*
X0392Y01135D01*
Y01165D01*
X039185Y011769D01*
X039139Y011881D01*
X039065Y011976D01*
X038997Y012029D01*
Y01245D01*
X038988Y012517D01*
X038963Y012579D01*
X038921Y012633D01*
X038571Y012983D01*
X038518Y013024D01*
X038456Y013049D01*
X038389Y013058D01*
X030162D01*
X030112Y013123D01*
X030017Y013195D01*
X029907Y013241D01*
X029789Y013257D01*
X029671Y013241D01*
X029561Y013195D01*
X029466Y013123D01*
X029427Y013072D01*
X029314Y013119D01*
X029327Y013216D01*
X029309Y013355D01*
X029255Y013484D01*
X02917Y013596D01*
X029058Y013681D01*
X028929Y013735D01*
X02879Y013753D01*
X028651Y013735D01*
X028521Y013681D01*
X02841Y013596D01*
X028325Y013484D01*
X028271Y013355D01*
X028253Y013216D01*
X028271Y013077D01*
X028325Y012947D01*
X028349Y012916D01*
X02829Y012798D01*
X027132D01*
X026863Y013066D01*
X026868Y013077D01*
X026886Y013216D01*
X026868Y013355D01*
X026814Y013484D01*
X026729Y013596D01*
X026618Y013681D01*
X026488Y013735D01*
X026349Y013753D01*
X02621Y013735D01*
X02608Y013681D01*
X025969Y013596D01*
X025884Y013484D01*
X02583Y013355D01*
X025812Y013216D01*
X02583Y013077D01*
X025884Y012947D01*
X025969Y012836D01*
X02608Y012751D01*
X02621Y012697D01*
X026349Y012679D01*
X026488Y012697D01*
X026498Y012701D01*
X026842Y012357D01*
X026896Y012316D01*
X026958Y012291D01*
X026935Y012178D01*
X025817D01*
X02575Y012169D01*
X025688Y012144D01*
X025634Y012103D01*
X025152Y011621D01*
X025089Y011629D01*
X024976Y011614D01*
X024871Y01157D01*
X02478Y011501D01*
X024711Y011411D01*
X024667Y011305D01*
X024652Y011192D01*
X024667Y011079D01*
X024711Y010974D01*
X02478Y010883D01*
X024871Y010814D01*
X024976Y01077D01*
X025089Y010755D01*
X025202Y01077D01*
X025307Y010814D01*
X025398Y010883D01*
X025467Y010974D01*
X025511Y011079D01*
X025526Y011192D01*
X025517Y011256D01*
X025741Y011479D01*
X025841Y011412D01*
X02583Y011386D01*
X025812Y011247D01*
X02583Y011108D01*
X025884Y010979D01*
X025969Y010867D01*
X02608Y010782D01*
X02621Y010728D01*
X026349Y01071D01*
X026488Y010728D01*
X026618Y010782D01*
X026729Y010867D01*
X026814Y010979D01*
X026868Y011108D01*
X026886Y011247D01*
X026868Y011386D01*
X026814Y011516D01*
X026793Y011544D01*
X026851Y011662D01*
X028038D01*
X028285Y011415D01*
X02828Y011405D01*
X028262Y011266D01*
X02828Y011127D01*
X028334Y010997D01*
X028419Y010886D01*
X02853Y010801D01*
X02866Y010747D01*
X028799Y010729D01*
X028938Y010747D01*
X029068Y010801D01*
X029179Y010886D01*
X029264Y010997D01*
X029318Y011127D01*
X029336Y011266D01*
X02932Y011391D01*
X02939Y01147D01*
X029402Y011481D01*
X029466Y011477D01*
X029561Y011405D01*
X029671Y011359D01*
X029789Y011343D01*
X029907Y011359D01*
X030017Y011405D01*
X030112Y011477D01*
X030162Y011542D01*
X036182D01*
X036944Y01078D01*
X036899Y010661D01*
X036822Y010653D01*
X036353Y011123D01*
X036299Y011164D01*
X036237Y011189D01*
X03617Y011198D01*
X03049D01*
X030423Y011189D01*
X030361Y011164D01*
X030307Y011123D01*
X027756Y008571D01*
X024544D01*
X02454Y008582D01*
X024454Y008693D01*
X024343Y008778D01*
X024214Y008832D01*
X024075Y00885D01*
X023936Y008832D01*
X023925Y008827D01*
X02332Y009433D01*
X023267Y009474D01*
X023204Y009499D01*
X023138Y009508D01*
X021146D01*
X021079Y009499D01*
X021077Y009499D01*
X021021Y009543D01*
X020993Y009592D01*
X02103Y009682D01*
X021046Y0098D01*
X021045Y009808D01*
X021119Y009887D01*
X021245Y009883D01*
X021356Y009798D01*
X021486Y009744D01*
X021625Y009726D01*
X021764Y009744D01*
X021893Y009798D01*
X022004Y009883D01*
X02209Y009994D01*
X022143Y010124D01*
X022162Y010263D01*
X022143Y010402D01*
X02209Y010532D01*
X022004Y010643D01*
X021893Y010728D01*
X021764Y010782D01*
X021625Y0108D01*
X021486Y010782D01*
X021356Y010728D01*
X021245Y010643D01*
X021159Y010532D01*
X021155Y010521D01*
X021052D01*
X020985Y010512D01*
X020923Y010487D01*
X020869Y010446D01*
X02067Y010246D01*
X020589Y010257D01*
X020508Y010246D01*
X019091Y011663D01*
X019038Y011704D01*
X018976Y011729D01*
X018909Y011738D01*
X01476D01*
X014693Y011729D01*
X014631Y011704D01*
X014577Y011663D01*
X014362Y011447D01*
X014262Y011514D01*
X014292Y011586D01*
X01431Y011725D01*
X014292Y011864D01*
X014238Y011994D01*
X014153Y012105D01*
X014042Y01219D01*
X013912Y012244D01*
X013773Y012262D01*
X013634Y012244D01*
X013505Y01219D01*
X013393Y012105D01*
X013308Y011994D01*
X013254Y011864D01*
X013236Y011725D01*
X013254Y011586D01*
X013308Y011456D01*
X013331Y011426D01*
X013273Y011308D01*
X012587D01*
X012319Y011576D01*
X012323Y011586D01*
X012342Y011725D01*
X012323Y011864D01*
X01227Y011994D01*
X012184Y012105D01*
X012073Y01219D01*
X011944Y012244D01*
X011805Y012262D01*
X011666Y012244D01*
X011536Y01219D01*
X011425Y012105D01*
X01134Y011994D01*
X011286Y011864D01*
X011268Y011725D01*
X011286Y011586D01*
X01134Y011456D01*
X011425Y011345D01*
X011536Y01126D01*
X011666Y011206D01*
X011805Y011188D01*
X011944Y011206D01*
X011954Y011211D01*
X012297Y010867D01*
X012351Y010826D01*
X012413Y010801D01*
X01248Y010792D01*
X01433D01*
X014397Y010801D01*
X014459Y010826D01*
X014513Y010867D01*
X014867Y011222D01*
X018802D01*
X020143Y009881D01*
X020132Y0098D01*
X020148Y009682D01*
X020194Y009572D01*
X020266Y009477D01*
X020361Y009405D01*
X020471Y009359D01*
Y009241D01*
X020361Y009195D01*
X020266Y009123D01*
X020194Y009028D01*
X020148Y008918D01*
X020132Y0088D01*
X020148Y008682D01*
X020194Y008572D01*
X020266Y008477D01*
X020361Y008405D01*
X020471Y008359D01*
X020589Y008343D01*
X020707Y008359D01*
X020817Y008405D01*
X020912Y008477D01*
X020984Y008572D01*
X02103Y008682D01*
X021043Y008783D01*
X021252Y008992D01*
X023031D01*
X02356Y008462D01*
X023556Y008452D01*
X023538Y008313D01*
X023556Y008174D01*
X023609Y008044D01*
X023695Y007933D01*
X023806Y007848D01*
X023936Y007794D01*
X024075Y007776D01*
X024214Y007794D01*
X024343Y007848D01*
X024454Y007933D01*
X02454Y008044D01*
X024544Y008055D01*
X027863D01*
X02793Y008064D01*
X027992Y008089D01*
X028046Y00813D01*
X030513Y010598D01*
X030608Y010532D01*
X030555Y010402D01*
X030536Y010263D01*
X030555Y010124D01*
X030608Y009994D01*
X030694Y009883D01*
X030805Y009798D01*
X030934Y009744D01*
X031073Y009726D01*
X031212Y009744D01*
X031223Y009749D01*
X031654Y009317D01*
X031707Y009276D01*
X03177Y009251D01*
X031836Y009242D01*
X032181D01*
Y0052D01*
X03219Y005133D01*
X032215Y005071D01*
X032256Y005017D01*
X032826Y004447D01*
X03288Y004406D01*
X032942Y004381D01*
X033009Y004372D01*
X054619D01*
X054686Y004381D01*
X054748Y004406D01*
X054801Y004447D01*
X055221Y004867D01*
X055263Y004921D01*
X055288Y004983D01*
X055297Y00505D01*
Y0065D01*
X055288Y006567D01*
X055263Y006629D01*
X055221Y006683D01*
X054771Y007133D01*
X054718Y007174D01*
X054656Y007199D01*
X054589Y007208D01*
X053762D01*
X053712Y007273D01*
X053617Y007345D01*
X053507Y007391D01*
X053389Y007407D01*
X053271Y007391D01*
X053161Y007345D01*
X053066Y007273D01*
X053063Y007269D01*
X052958Y007307D01*
X052949Y007314D01*
X052931Y007449D01*
X052877Y007579D01*
X052792Y00769D01*
X052681Y007775D01*
X052551Y007829D01*
X052412Y007847D01*
X052273Y007829D01*
X052143Y007775D01*
X052032Y00769D01*
X051947Y007579D01*
X051893Y007449D01*
X051875Y00731D01*
X051893Y007171D01*
X051947Y007042D01*
X051974Y007006D01*
X051916Y006888D01*
X050758D01*
X050486Y007161D01*
X05049Y007171D01*
X050508Y00731D01*
X05049Y007449D01*
X050436Y007579D01*
X050351Y00769D01*
X05024Y007775D01*
X05011Y007829D01*
X049971Y007847D01*
X049832Y007829D01*
X049703Y007775D01*
X049591Y00769D01*
X049506Y007579D01*
X049452Y007449D01*
X049434Y00731D01*
X049452Y007171D01*
X049506Y007042D01*
X049591Y00693D01*
X049703Y006845D01*
X049832Y006791D01*
X049971Y006773D01*
X05011Y006791D01*
X05012Y006796D01*
X050469Y006447D01*
X05047Y006446D01*
X05043Y006328D01*
X042607D01*
X041997Y006938D01*
Y007971D01*
X042065Y008024D01*
X042139Y008119D01*
X042177Y008213D01*
X042239Y008222D01*
X042301Y008213D01*
X042339Y008119D01*
X042413Y008024D01*
X042508Y00795D01*
X04262Y007904D01*
X042739Y007889D01*
X042858Y007904D01*
X04297Y00795D01*
X043065Y008024D01*
X043139Y008119D01*
X043177Y008213D01*
X043239Y008222D01*
X043301Y008213D01*
X043339Y008119D01*
X043413Y008024D01*
X043508Y00795D01*
X04362Y007904D01*
X043739Y007889D01*
X043858Y007904D01*
X04397Y00795D01*
X044065Y008024D01*
X044139Y008119D01*
X044177Y008213D01*
X044239Y008222D01*
X044301Y008213D01*
X044339Y008119D01*
X044413Y008024D01*
X044508Y00795D01*
X04462Y007904D01*
X044739Y007889D01*
X044858Y007904D01*
X04497Y00795D01*
X045065Y008024D01*
X045139Y008119D01*
X045185Y008231D01*
X0452Y00835D01*
Y00865D01*
X045185Y008769D01*
X045139Y008881D01*
X045065Y008976D01*
X04497Y00905D01*
X044858Y009096D01*
X044739Y009111D01*
X04462Y009096D01*
X044508Y00905D01*
X044413Y008976D01*
X044339Y008881D01*
X044301Y008787D01*
X044239Y008778D01*
X044177Y008787D01*
X044139Y008881D01*
X044065Y008976D01*
X04397Y00905D01*
X043858Y009096D01*
X043739Y009111D01*
X04362Y009096D01*
X043508Y00905D01*
X043413Y008976D01*
X043339Y008881D01*
X043301Y008787D01*
X043239Y008778D01*
X043177Y008787D01*
X043139Y008881D01*
X043065Y008976D01*
X04297Y00905D01*
X042858Y009096D01*
X042739Y009111D01*
X04262Y009096D01*
X042508Y00905D01*
X042413Y008976D01*
X042339Y008881D01*
X042301Y008787D01*
X042239Y008778D01*
X042177Y008787D01*
X042139Y008881D01*
X042065Y008976D01*
X04197Y00905D01*
X041858Y009096D01*
X041739Y009111D01*
X04162Y009096D01*
X041508Y00905D01*
X041413Y008976D01*
X041339Y008881D01*
X041301Y008787D01*
X041239Y008778D01*
X041177Y008787D01*
X041139Y008881D01*
X041079Y008959D01*
X041442Y009322D01*
X050735D01*
X050802Y009331D01*
X050864Y009356D01*
X050918Y009397D01*
X052272Y010751D01*
X052282Y010747D01*
X052421Y010729D01*
X05256Y010747D01*
X05269Y010801D01*
X052801Y010886D01*
X052886Y010997D01*
X05294Y011127D01*
X052958Y011266D01*
X052942Y011389D01*
X053012Y011468D01*
X053025Y01148D01*
X053066Y011477D01*
X053161Y011405D01*
X053271Y011359D01*
X053389Y011343D01*
X053507Y011359D01*
X053617Y011405D01*
X053712Y011477D01*
X053762Y011542D01*
X053972D01*
X053972Y011541D01*
X054063Y011472D01*
X054168Y011428D01*
X054281Y011413D01*
X054394Y011428D01*
X0545Y011472D01*
X05459Y011541D01*
X054659Y011632D01*
X054703Y011737D01*
X054718Y01185D01*
X054703Y011963D01*
X054659Y012068D01*
X05459Y012159D01*
X0545Y012228D01*
X054394Y012272D01*
X054281Y012287D01*
X054168Y012272D01*
X054063Y012228D01*
X053972Y012159D01*
X053903Y012068D01*
X053899Y012058D01*
X053762D01*
X053712Y012123D01*
X053617Y012195D01*
X053507Y012241D01*
Y012359D01*
X053617Y012405D01*
X053712Y012477D01*
X053784Y012572D01*
X05383Y012682D01*
X053846Y0128D01*
X05383Y012918D01*
X053784Y013028D01*
X053712Y013123D01*
X053617Y013195D01*
X053507Y013241D01*
X053389Y013257D01*
X053271Y013241D01*
X053161Y013195D01*
X053066Y013123D01*
X053054Y013107D01*
X052941Y013154D01*
X052949Y013216D01*
X052931Y013355D01*
X052877Y013484D01*
X052792Y013596D01*
X052681Y013681D01*
X052551Y013735D01*
X052412Y013753D01*
X052273Y013735D01*
X052143Y013681D01*
X052032Y013596D01*
X051947Y013484D01*
X051893Y013355D01*
X051875Y013216D01*
X051893Y013077D01*
X051947Y012947D01*
X052032Y012836D01*
X052045Y012826D01*
X052005Y012708D01*
X050844D01*
X050486Y013066D01*
X05049Y013077D01*
X050508Y013216D01*
X05049Y013355D01*
X050436Y013484D01*
X050351Y013596D01*
X05024Y013681D01*
X05011Y013735D01*
X049971Y013753D01*
X049832Y013735D01*
X049703Y013681D01*
X049591Y013596D01*
X049506Y013484D01*
X049452Y013355D01*
X049434Y013216D01*
X049452Y013077D01*
X049506Y012947D01*
X049591Y012836D01*
X049703Y012751D01*
X049832Y012697D01*
X049971Y012679D01*
X05011Y012697D01*
X05012Y012701D01*
X050554Y012267D01*
X050608Y012226D01*
X05067Y012201D01*
X050737Y012192D01*
X05286D01*
X052923Y012074D01*
X052908Y012052D01*
X052889Y012049D01*
X052826Y012024D01*
X052773Y011983D01*
X05257Y01178D01*
X05256Y011785D01*
X052421Y011803D01*
X052282Y011785D01*
X052153Y011731D01*
X052041Y011646D01*
X051956Y011534D01*
X051902Y011405D01*
X051884Y011266D01*
X051902Y011127D01*
X051907Y011116D01*
X050628Y009838D01*
X047052D01*
X047007Y009947D01*
X047571Y010512D01*
X047613Y010565D01*
X047638Y010627D01*
X047647Y010694D01*
Y01265D01*
X047638Y012717D01*
X047613Y012779D01*
X047571Y012833D01*
X046521Y013883D01*
X046468Y013924D01*
X046406Y013949D01*
X046339Y013958D01*
D02*
G37*
G36*
X049971Y011784D02*
X049832Y011766D01*
X049703Y011712D01*
X049591Y011627D01*
X049506Y011516D01*
X049452Y011386D01*
X049434Y011247D01*
X049452Y011108D01*
X049506Y010979D01*
X049591Y010867D01*
X049703Y010782D01*
X049832Y010728D01*
X049971Y01071D01*
X05011Y010728D01*
X05024Y010782D01*
X050351Y010867D01*
X050436Y010979D01*
X05049Y011108D01*
X050508Y011247D01*
X05049Y011386D01*
X050436Y011516D01*
X050351Y011627D01*
X05024Y011712D01*
X05011Y011766D01*
X049971Y011784D01*
D02*
G37*
G36*
X024066Y0108D02*
X023927Y010782D01*
X023797Y010728D01*
X023686Y010643D01*
X0236Y010532D01*
X023547Y010402D01*
X023528Y010263D01*
X023547Y010124D01*
X0236Y009994D01*
X023686Y009883D01*
X023797Y009798D01*
X023927Y009744D01*
X024066Y009726D01*
X024205Y009744D01*
X024334Y009798D01*
X024445Y009883D01*
X024531Y009994D01*
X024584Y010124D01*
X024603Y010263D01*
X024584Y010402D01*
X024531Y010532D01*
X024445Y010643D01*
X024334Y010728D01*
X024205Y010782D01*
X024066Y0108D01*
D02*
G37*
G36*
X031073Y008832D02*
X030934Y008813D01*
X030805Y00876D01*
X030694Y008674D01*
X030608Y008563D01*
X030555Y008433D01*
X030536Y008294D01*
X030555Y008155D01*
X030608Y008026D01*
X030694Y007915D01*
X030805Y007829D01*
X030934Y007776D01*
X031073Y007757D01*
X031212Y007776D01*
X031342Y007829D01*
X031453Y007915D01*
X031539Y008026D01*
X031592Y008155D01*
X031611Y008294D01*
X031592Y008433D01*
X031539Y008563D01*
X031453Y008674D01*
X031342Y00876D01*
X031212Y008813D01*
X031073Y008832D01*
D02*
G37*
G36*
X021625D02*
X021486Y008813D01*
X021356Y00876D01*
X021245Y008674D01*
X021159Y008563D01*
X021106Y008433D01*
X021088Y008294D01*
X021106Y008155D01*
X021159Y008026D01*
X021245Y007915D01*
X021356Y007829D01*
X021486Y007776D01*
X021625Y007757D01*
X021764Y007776D01*
X021893Y007829D01*
X022004Y007915D01*
X02209Y008026D01*
X022143Y008155D01*
X022162Y008294D01*
X022143Y008433D01*
X02209Y008563D01*
X022004Y008674D01*
X021893Y00876D01*
X021764Y008813D01*
X021625Y008832D01*
D02*
G37*
G36*
X026349Y007847D02*
X02621Y007829D01*
X02608Y007775D01*
X025969Y00769D01*
X025884Y007579D01*
X02588Y007568D01*
X025699D01*
X025632Y00756D01*
X02557Y007534D01*
X025517Y007493D01*
X02522Y007196D01*
X025139Y007207D01*
X025021Y007191D01*
X024911Y007145D01*
X024816Y007073D01*
X024743Y006978D01*
X024698Y006868D01*
X024682Y00675D01*
X024698Y006632D01*
X024743Y006522D01*
X024816Y006427D01*
X024911Y006355D01*
X025021Y006309D01*
Y006191D01*
X024911Y006145D01*
X024816Y006073D01*
X024743Y005978D01*
X024698Y005868D01*
X024682Y00575D01*
X024698Y005632D01*
X024743Y005522D01*
X024816Y005427D01*
X024911Y005355D01*
X025021Y005309D01*
X025139Y005293D01*
X025257Y005309D01*
X025367Y005355D01*
X025462Y005427D01*
X025534Y005522D01*
X02558Y005632D01*
X025596Y00575D01*
X025585Y005831D01*
X025823Y006069D01*
X027725D01*
X028285Y00551D01*
X02828Y005499D01*
X028262Y00536D01*
X02828Y005221D01*
X028334Y005092D01*
X028419Y00498D01*
X02853Y004895D01*
X02866Y004841D01*
X028799Y004823D01*
X028938Y004841D01*
X029068Y004895D01*
X029179Y00498D01*
X029264Y005092D01*
X029318Y005221D01*
X029336Y00536D01*
X029318Y005499D01*
X029264Y005629D01*
X029179Y00574D01*
X029068Y005825D01*
X028938Y005879D01*
X028799Y005897D01*
X02866Y005879D01*
X02865Y005875D01*
X028015Y00651D01*
X027961Y006551D01*
X027899Y006576D01*
X027832Y006585D01*
X025716D01*
X025687Y006581D01*
X025662Y006593D01*
X025608Y006643D01*
X025586Y006678D01*
X025596Y00675D01*
X025585Y006831D01*
X02577Y007016D01*
X025791Y007021D01*
X025907Y007011D01*
X025969Y00693D01*
X02608Y006845D01*
X02621Y006791D01*
X026349Y006773D01*
X026488Y006791D01*
X026618Y006845D01*
X026729Y00693D01*
X026814Y007042D01*
X026868Y007171D01*
X026886Y00731D01*
X026868Y007449D01*
X026814Y007579D01*
X026729Y00769D01*
X026618Y007775D01*
X026488Y007829D01*
X026349Y007847D01*
D02*
G37*
G36*
X02879D02*
X028651Y007829D01*
X028521Y007775D01*
X02841Y00769D01*
X028325Y007579D01*
X028271Y007449D01*
X028253Y00731D01*
X028271Y007171D01*
X028325Y007042D01*
X02841Y00693D01*
X028521Y006845D01*
X028651Y006791D01*
X02879Y006773D01*
X028929Y006791D01*
X029058Y006845D01*
X02917Y00693D01*
X029255Y007042D01*
X029309Y007171D01*
X029327Y00731D01*
X029309Y007449D01*
X029255Y007579D01*
X02917Y00769D01*
X029058Y007775D01*
X028929Y007829D01*
X02879Y007847D01*
D02*
G37*
G36*
X024097Y007587D02*
X023984Y007572D01*
X023878Y007528D01*
X023788Y007459D01*
X023719Y007368D01*
X023675Y007263D01*
X02366Y00715D01*
X023675Y007037D01*
X023719Y006932D01*
X023788Y006841D01*
X023878Y006772D01*
X023984Y006728D01*
X024097Y006713D01*
X02421Y006728D01*
X024315Y006772D01*
X024406Y006841D01*
X024475Y006932D01*
X024519Y007037D01*
X024534Y00715D01*
X024519Y007263D01*
X024475Y007368D01*
X024406Y007459D01*
X024315Y007528D01*
X02421Y007572D01*
X024097Y007587D01*
D02*
G37*
G36*
X026349Y005879D02*
X02621Y005861D01*
X02608Y005807D01*
X025969Y005722D01*
X025884Y00561D01*
X02583Y005481D01*
X025812Y005342D01*
X02583Y005203D01*
X025884Y005073D01*
X025969Y004962D01*
X02608Y004877D01*
X02621Y004823D01*
X026349Y004805D01*
X026488Y004823D01*
X026618Y004877D01*
X026729Y004962D01*
X026814Y005073D01*
X026868Y005203D01*
X026886Y005342D01*
X026868Y005481D01*
X026814Y00561D01*
X026729Y005722D01*
X026618Y005807D01*
X026488Y005861D01*
X026349Y005879D01*
D02*
G37*
G36*
X025131Y004637D02*
X025018Y004622D01*
X024913Y004578D01*
X024822Y004509D01*
X024753Y004418D01*
X024709Y004313D01*
X024694Y0042D01*
X024709Y004087D01*
X024753Y003982D01*
X024822Y003891D01*
X024913Y003822D01*
X025018Y003778D01*
X025131Y003763D01*
X025244Y003778D01*
X02535Y003822D01*
X02544Y003891D01*
X025509Y003982D01*
X025553Y004087D01*
X025568Y0042D01*
X025553Y004313D01*
X025509Y004418D01*
X02544Y004509D01*
X02535Y004578D01*
X025244Y004622D01*
X025131Y004637D01*
D02*
G37*
%LPD*%
G36*
X044888Y041437D02*
X044942Y041396D01*
X045004Y041371D01*
X045071Y041362D01*
X050062D01*
X050472Y040952D01*
Y03916D01*
X050354Y039093D01*
X050302Y039114D01*
X050189Y039129D01*
X050076Y039114D01*
X049971Y03907D01*
X04988Y039001D01*
X049841Y03895D01*
X049187D01*
X049148Y039001D01*
X049057Y03907D01*
X048952Y039114D01*
X048839Y039129D01*
X048726Y039114D01*
X048621Y03907D01*
X04853Y039001D01*
X048491Y03895D01*
X045692D01*
X045625Y038941D01*
X045563Y038916D01*
X04551Y038875D01*
X042957Y036322D01*
X042845Y036378D01*
X042846Y036385D01*
X042831Y036504D01*
X042785Y036616D01*
X042711Y036711D01*
X042616Y036785D01*
X042522Y036823D01*
X042513Y036885D01*
X042522Y036947D01*
X042616Y036985D01*
X042711Y037059D01*
X042785Y037154D01*
X042831Y037266D01*
X042846Y037385D01*
X042831Y037504D01*
X042785Y037616D01*
X042711Y037711D01*
X042616Y037785D01*
X042522Y037823D01*
X042513Y037885D01*
X042522Y037947D01*
X042616Y037985D01*
X042711Y038059D01*
X042785Y038154D01*
X042831Y038266D01*
X042846Y038385D01*
X042831Y038504D01*
X042785Y038616D01*
X042711Y038711D01*
X042616Y038785D01*
X042522Y038823D01*
X042513Y038885D01*
X042522Y038947D01*
X042616Y038985D01*
X042711Y039059D01*
X042785Y039154D01*
X042831Y039266D01*
X042846Y039385D01*
X042831Y039504D01*
X042785Y039616D01*
X042711Y039711D01*
X042616Y039785D01*
X042522Y039823D01*
X042513Y039885D01*
X042522Y039947D01*
X042616Y039985D01*
X042711Y040059D01*
X042785Y040154D01*
X042831Y040266D01*
X042846Y040385D01*
X042831Y040504D01*
X042785Y040616D01*
X042711Y040711D01*
X042616Y040785D01*
X042522Y040823D01*
X042513Y040885D01*
X042522Y040947D01*
X042616Y040985D01*
X042711Y041059D01*
X042785Y041154D01*
X042831Y041266D01*
X042846Y041385D01*
X042831Y041504D01*
X042785Y041616D01*
X042711Y041711D01*
X042616Y041785D01*
X042522Y041823D01*
X042513Y041885D01*
X042522Y041947D01*
X042616Y041985D01*
X042711Y042059D01*
X042785Y042154D01*
X042831Y042266D01*
X042846Y042385D01*
X042831Y042504D01*
X042785Y042616D01*
X042711Y042711D01*
X042616Y042785D01*
X042522Y042823D01*
X042513Y042885D01*
X042522Y042947D01*
X042616Y042985D01*
X042711Y043059D01*
X042785Y043154D01*
X042831Y043266D01*
X042838Y043321D01*
X042963Y043363D01*
X044888Y041437D01*
D02*
G37*
G36*
X042075Y043724D02*
X042059Y043711D01*
X041985Y043616D01*
X041939Y043504D01*
X041924Y043385D01*
X041939Y043266D01*
X041985Y043154D01*
X042059Y043059D01*
X042154Y042985D01*
X042248Y042947D01*
X042257Y042885D01*
X042248Y042823D01*
X042154Y042785D01*
X042059Y042711D01*
X041985Y042616D01*
X041939Y042504D01*
X041924Y042385D01*
X041939Y042266D01*
X041985Y042154D01*
X042059Y042059D01*
X042154Y041985D01*
X042248Y041947D01*
X042257Y041885D01*
X042248Y041823D01*
X042154Y041785D01*
X042059Y041711D01*
X041985Y041616D01*
X041939Y041504D01*
X041924Y041385D01*
X041939Y041266D01*
X041985Y041154D01*
X042059Y041059D01*
X042154Y040985D01*
X042248Y040947D01*
X042257Y040885D01*
X042248Y040823D01*
X042154Y040785D01*
X042059Y040711D01*
X041985Y040616D01*
X041939Y040504D01*
X041924Y040385D01*
X041939Y040266D01*
X041985Y040154D01*
X042059Y040059D01*
X042154Y039985D01*
X042248Y039947D01*
X042257Y039885D01*
X042248Y039823D01*
X042154Y039785D01*
X042059Y039711D01*
X041985Y039616D01*
X041939Y039504D01*
X041924Y039385D01*
X041939Y039266D01*
X041985Y039154D01*
X042059Y039059D01*
X042154Y038985D01*
X042248Y038947D01*
X042257Y038885D01*
X042248Y038823D01*
X042154Y038785D01*
X042059Y038711D01*
X041985Y038616D01*
X041939Y038504D01*
X041924Y038385D01*
X041939Y038266D01*
X041985Y038154D01*
X042059Y038059D01*
X042154Y037985D01*
X042248Y037947D01*
X042257Y037885D01*
X042248Y037823D01*
X042154Y037785D01*
X042059Y037711D01*
X041985Y037616D01*
X041939Y037504D01*
X041924Y037385D01*
X041939Y037266D01*
X041985Y037154D01*
X042059Y037059D01*
X042154Y036985D01*
X042248Y036947D01*
X042257Y036885D01*
X042248Y036823D01*
X042154Y036785D01*
X042059Y036711D01*
X041985Y036616D01*
X041939Y036504D01*
X041924Y036385D01*
X041939Y036266D01*
X041985Y036154D01*
X042059Y036059D01*
X042154Y035985D01*
X042248Y035947D01*
X042257Y035885D01*
X042248Y035823D01*
X042154Y035785D01*
X042059Y035711D01*
X041985Y035616D01*
X041939Y035504D01*
X041924Y035385D01*
X041939Y035266D01*
X041985Y035154D01*
X042059Y035059D01*
X042154Y034985D01*
X042248Y034947D01*
X042257Y034885D01*
X042248Y034823D01*
X042154Y034785D01*
X042059Y034711D01*
X041985Y034616D01*
X041939Y034504D01*
X041924Y034385D01*
X041939Y034266D01*
X041985Y034154D01*
X042059Y034059D01*
X042154Y033985D01*
X042248Y033947D01*
X042257Y033885D01*
X042248Y033823D01*
X042154Y033785D01*
X042059Y033711D01*
X041985Y033616D01*
X041939Y033504D01*
X041924Y033385D01*
X041939Y033266D01*
X041985Y033154D01*
X042059Y033059D01*
X042154Y032985D01*
X042248Y032947D01*
X042257Y032885D01*
X042248Y032823D01*
X042154Y032785D01*
X042059Y032711D01*
X041985Y032616D01*
X041939Y032504D01*
X041924Y032385D01*
X041939Y032266D01*
X041985Y032154D01*
X042059Y032059D01*
X042154Y031985D01*
X042248Y031947D01*
X042257Y031885D01*
X042248Y031823D01*
X042154Y031785D01*
X042059Y031711D01*
X041985Y031616D01*
X041939Y031504D01*
X041924Y031385D01*
X041939Y031266D01*
X041985Y031154D01*
X042059Y031059D01*
X042154Y030985D01*
X042248Y030947D01*
X042257Y030885D01*
X042248Y030823D01*
X042154Y030785D01*
X042059Y030711D01*
X042006Y030643D01*
X041624D01*
X041557Y030634D01*
X041495Y030609D01*
X041441Y030568D01*
X041106Y030233D01*
X041065Y030179D01*
X04104Y030117D01*
X041031Y03005D01*
Y024357D01*
X040732Y024058D01*
X036843D01*
Y024843D01*
X035928D01*
Y024058D01*
X034046D01*
X031571Y026533D01*
X031518Y026574D01*
X031456Y026599D01*
X031389Y026608D01*
X030089D01*
X030022Y026599D01*
X02996Y026574D01*
X029906Y026533D01*
X029606Y026233D01*
X029565Y026179D01*
X02954Y026117D01*
X029531Y02605D01*
Y025881D01*
X029514Y025859D01*
X029482Y025782D01*
X029471Y0257D01*
X029482Y025618D01*
X029514Y025541D01*
X029564Y025475D01*
X02963Y025425D01*
X029707Y025393D01*
X029789Y025382D01*
X029871Y025393D01*
X029905Y025407D01*
X030006Y025355D01*
X030023Y025334D01*
Y024008D01*
X030032Y023941D01*
X030058Y023879D01*
X030099Y023825D01*
X030607Y023317D01*
X030562Y023208D01*
X030117D01*
X029138Y024187D01*
Y026393D01*
X029837Y027092D01*
X03335D01*
X033417Y027101D01*
X033479Y027126D01*
X033533Y027167D01*
X035813Y029448D01*
X035925Y029393D01*
X035924Y029385D01*
X035939Y029266D01*
X035985Y029154D01*
X036059Y029059D01*
X036154Y028985D01*
X036248Y028947D01*
X036257Y028885D01*
X036248Y028823D01*
X036154Y028785D01*
X036059Y028711D01*
X035985Y028616D01*
X035939Y028504D01*
X035924Y028385D01*
X035939Y028266D01*
X035985Y028154D01*
X036059Y028059D01*
X036154Y027985D01*
X036248Y027947D01*
X036257Y027885D01*
X036248Y027823D01*
X036154Y027785D01*
X036059Y027711D01*
X035985Y027616D01*
X035939Y027504D01*
X035924Y027385D01*
X035939Y027266D01*
X035985Y027154D01*
X036059Y027059D01*
X036154Y026985D01*
X036248Y026947D01*
X036257Y026885D01*
X036248Y026823D01*
X036154Y026785D01*
X036059Y026711D01*
X035985Y026616D01*
X035939Y026504D01*
X035924Y026385D01*
X035939Y026266D01*
X035985Y026154D01*
X036059Y026059D01*
X036154Y025985D01*
X036266Y025939D01*
X036385Y025924D01*
X036504Y025939D01*
X036616Y025985D01*
X036711Y026059D01*
X036785Y026154D01*
X036831Y026266D01*
X036846Y026385D01*
X036831Y026504D01*
X036785Y026616D01*
X036711Y026711D01*
X036616Y026785D01*
X036522Y026823D01*
X036513Y026885D01*
X036522Y026947D01*
X036616Y026985D01*
X036711Y027059D01*
X036785Y027154D01*
X036831Y027266D01*
X036846Y027385D01*
X036831Y027504D01*
X036785Y027616D01*
X036711Y027711D01*
X036616Y027785D01*
X036522Y027823D01*
X036513Y027885D01*
X036522Y027947D01*
X036616Y027985D01*
X036711Y028059D01*
X036785Y028154D01*
X036831Y028266D01*
X036846Y028385D01*
X036831Y028504D01*
X036785Y028616D01*
X036711Y028711D01*
X036616Y028785D01*
X036522Y028823D01*
X036513Y028885D01*
X036522Y028947D01*
X036616Y028985D01*
X036711Y029059D01*
X036785Y029154D01*
X036831Y029266D01*
X036846Y029385D01*
X036831Y029504D01*
X036785Y029616D01*
X036711Y029711D01*
X036616Y029785D01*
X036522Y029823D01*
X036513Y029885D01*
X036522Y029947D01*
X036616Y029985D01*
X036711Y030059D01*
X036785Y030154D01*
X036831Y030266D01*
X036846Y030385D01*
X036831Y030504D01*
X036785Y030616D01*
X036711Y030711D01*
X036616Y030785D01*
X036522Y030823D01*
X036513Y030885D01*
X036522Y030947D01*
X036616Y030985D01*
X036711Y031059D01*
X036785Y031154D01*
X036831Y031266D01*
X036846Y031385D01*
X036831Y031504D01*
X036785Y031616D01*
X036711Y031711D01*
X036616Y031785D01*
X036522Y031823D01*
X036513Y031885D01*
X036522Y031947D01*
X036616Y031985D01*
X036711Y032059D01*
X036785Y032154D01*
X036831Y032266D01*
X036846Y032385D01*
X036835Y03247D01*
X037983Y033617D01*
X038024Y033671D01*
X038049Y033733D01*
X038058Y0338D01*
Y043204D01*
X03811Y043271D01*
X038145Y043358D01*
X038157Y04345D01*
X038145Y043542D01*
X03811Y043629D01*
X038053Y043703D01*
X038025Y043724D01*
X038065Y043842D01*
X042035D01*
X042075Y043724D01*
D02*
G37*
G36*
X045756Y028517D02*
X04581Y028476D01*
X045872Y028451D01*
X045939Y028442D01*
X054082D01*
X054531Y027993D01*
Y022407D01*
X054312Y022188D01*
X053983D01*
X053951Y022215D01*
X053893Y022306D01*
X053899Y02235D01*
X053888Y022432D01*
X053856Y022509D01*
X053839Y022531D01*
Y023179D01*
X05383Y023246D01*
X053805Y023308D01*
X053764Y023361D01*
X05075Y026375D01*
X050697Y026416D01*
X050635Y026441D01*
X050568Y02645D01*
X04987D01*
X049848Y026467D01*
X049771Y026499D01*
X049689Y02651D01*
X049607Y026499D01*
X04953Y026467D01*
X049508Y02645D01*
X048131D01*
X048064Y026441D01*
X048002Y026416D01*
X047949Y026375D01*
X047456Y025883D01*
X047415Y025829D01*
X04739Y025767D01*
X047381Y0257D01*
Y024207D01*
X046836Y023662D01*
X046795Y023609D01*
X046795Y023608D01*
X041179D01*
X04113Y023726D01*
X041471Y024067D01*
X041513Y024121D01*
X041538Y024183D01*
X041547Y02425D01*
Y029943D01*
X041731Y030127D01*
X042006D01*
X042059Y030059D01*
X042154Y029985D01*
X042248Y029947D01*
X042257Y029885D01*
X042248Y029823D01*
X042154Y029785D01*
X042059Y029711D01*
X041985Y029616D01*
X041939Y029504D01*
X041924Y029385D01*
X041939Y029266D01*
X041985Y029154D01*
X042059Y029059D01*
X042154Y028985D01*
X042248Y028947D01*
X042257Y028885D01*
X042248Y028823D01*
X042154Y028785D01*
X042059Y028711D01*
X041985Y028616D01*
X041939Y028504D01*
X041924Y028385D01*
X041939Y028266D01*
X041985Y028154D01*
X042059Y028059D01*
X042154Y027985D01*
X042248Y027947D01*
X042257Y027885D01*
X042248Y027823D01*
X042154Y027785D01*
X042059Y027711D01*
X041985Y027616D01*
X041939Y027504D01*
X041924Y027385D01*
X041939Y027266D01*
X041985Y027154D01*
X042059Y027059D01*
X042154Y026985D01*
X042248Y026947D01*
X042257Y026885D01*
X042248Y026823D01*
X042154Y026785D01*
X042059Y026711D01*
X041985Y026616D01*
X041939Y026504D01*
X041924Y026385D01*
X041939Y026266D01*
X041985Y026154D01*
X042059Y026059D01*
X042154Y025985D01*
X042248Y025947D01*
X042257Y025885D01*
X042248Y025823D01*
X042154Y025785D01*
X042059Y025711D01*
X041985Y025616D01*
X041939Y025504D01*
X041924Y025385D01*
X041939Y025266D01*
X041985Y025154D01*
X042059Y025059D01*
X042154Y024985D01*
X042214Y024961D01*
X042191Y024843D01*
X041928D01*
Y023928D01*
X042843D01*
Y024843D01*
X042579D01*
X042556Y024961D01*
X042616Y024985D01*
X042711Y025059D01*
X042785Y025154D01*
X042831Y025266D01*
X042846Y025385D01*
X042831Y025504D01*
X042785Y025616D01*
X042711Y025711D01*
X042616Y025785D01*
X042522Y025823D01*
X042513Y025885D01*
X042522Y025947D01*
X042616Y025985D01*
X042711Y026059D01*
X042785Y026154D01*
X042831Y026266D01*
X042846Y026385D01*
X042831Y026504D01*
X042785Y026616D01*
X042711Y026711D01*
X042616Y026785D01*
X042522Y026823D01*
X042513Y026885D01*
X042522Y026947D01*
X042616Y026985D01*
X042711Y027059D01*
X042785Y027154D01*
X042831Y027266D01*
X042846Y027385D01*
X042831Y027504D01*
X042785Y027616D01*
X042711Y027711D01*
X042616Y027785D01*
X042522Y027823D01*
X042513Y027885D01*
X042522Y027947D01*
X042616Y027985D01*
X042711Y028059D01*
X042785Y028154D01*
X042831Y028266D01*
X042846Y028385D01*
X042831Y028504D01*
X042785Y028616D01*
X042711Y028711D01*
X042616Y028785D01*
X042522Y028823D01*
X042513Y028885D01*
X042522Y028947D01*
X042616Y028985D01*
X042711Y029059D01*
X042785Y029154D01*
X042831Y029266D01*
X042846Y029385D01*
X042831Y029504D01*
X042785Y029616D01*
X042711Y029711D01*
X042616Y029785D01*
X042522Y029823D01*
X042513Y029885D01*
X042522Y029947D01*
X042616Y029985D01*
X042711Y030059D01*
X042785Y030154D01*
X042831Y030266D01*
X042846Y030385D01*
X042831Y030504D01*
X042785Y030616D01*
X042711Y030711D01*
X042616Y030785D01*
X042522Y030823D01*
X042513Y030885D01*
X042522Y030947D01*
X042616Y030985D01*
X042711Y031059D01*
X042764Y031127D01*
X043147D01*
X045756Y028517D01*
D02*
G37*
G36*
X047381Y022752D02*
Y0215D01*
X04739Y021433D01*
X047415Y021371D01*
X047456Y021317D01*
X052806Y015967D01*
X05286Y015926D01*
X052922Y015901D01*
X052989Y015892D01*
X064082D01*
X067606Y012367D01*
X06766Y012326D01*
X067722Y012301D01*
X067789Y012292D01*
X068454D01*
X06852Y012206D01*
X068621Y012129D01*
X068656Y012114D01*
Y011986D01*
X068621Y011971D01*
X06852Y011894D01*
X068443Y011793D01*
X068394Y011676D01*
X068377Y01155D01*
X068394Y011424D01*
X068443Y011307D01*
X06852Y011206D01*
X068621Y011129D01*
X068656Y011114D01*
Y010986D01*
X068621Y010971D01*
X06852Y010894D01*
X068443Y010793D01*
X068394Y010676D01*
X068377Y01055D01*
X068394Y010424D01*
X068443Y010307D01*
X06852Y010206D01*
X068621Y010129D01*
X068656Y010114D01*
Y009986D01*
X068621Y009971D01*
X06852Y009894D01*
X068443Y009793D01*
X068394Y009676D01*
X068377Y00955D01*
X068393Y009428D01*
X068388Y00942D01*
X068292Y009362D01*
X067046Y010608D01*
X066992Y010649D01*
X06693Y010675D01*
X066911Y010678D01*
X066889Y010731D01*
X066815Y010826D01*
X06672Y0109D01*
X066608Y010946D01*
X066489Y010961D01*
X066189D01*
X06607Y010946D01*
X065958Y0109D01*
X065863Y010826D01*
X065789Y010731D01*
X065743Y010619D01*
X065728Y0105D01*
X065743Y010381D01*
X065789Y010269D01*
X065863Y010174D01*
X065958Y0101D01*
X066052Y010062D01*
X066061Y01D01*
X066052Y009938D01*
X065958Y0099D01*
X065863Y009826D01*
X065789Y009731D01*
X065743Y009619D01*
X065728Y0095D01*
X065743Y009381D01*
X065789Y009269D01*
X065863Y009174D01*
X065958Y0091D01*
X066052Y009062D01*
X066061Y009D01*
X066052Y008938D01*
X065958Y0089D01*
X065863Y008826D01*
X065789Y008731D01*
X065743Y008619D01*
X065728Y0085D01*
X065743Y008381D01*
X065789Y008269D01*
X065863Y008174D01*
X065958Y0081D01*
X066052Y008062D01*
X066061Y008D01*
X066052Y007938D01*
X065958Y0079D01*
X065863Y007826D01*
X065789Y007731D01*
X065743Y007619D01*
X065728Y0075D01*
X065743Y007381D01*
X065789Y007269D01*
X065863Y007174D01*
X065958Y0071D01*
X066052Y007062D01*
X066061Y007D01*
X066052Y006938D01*
X065958Y0069D01*
X065863Y006826D01*
X065789Y006731D01*
X065743Y006619D01*
X065728Y0065D01*
X065743Y006381D01*
X065789Y006269D01*
X065863Y006174D01*
X065958Y0061D01*
X066052Y006062D01*
X066061Y006D01*
X066052Y005938D01*
X065958Y0059D01*
X065863Y005826D01*
X06581Y005758D01*
X065646D01*
X065447Y005957D01*
Y0137D01*
X065438Y013767D01*
X065413Y013829D01*
X065371Y013883D01*
X064431Y014823D01*
X064378Y014864D01*
X064316Y014889D01*
X064249Y014898D01*
X052756D01*
X044671Y022983D01*
X044716Y023092D01*
X047041D01*
X047381Y022752D01*
D02*
G37*
%LPC*%
G36*
X046431Y040918D02*
X046349Y040907D01*
X046272Y040875D01*
X046206Y040825D01*
X046164D01*
X046098Y040875D01*
X046021Y040907D01*
X045939Y040918D01*
X045857Y040907D01*
X04578Y040875D01*
X045714Y040825D01*
X045664Y040759D01*
X045632Y040682D01*
X045621Y0406D01*
X045632Y040518D01*
X045664Y040441D01*
X045714Y040375D01*
X04578Y040325D01*
X045857Y040293D01*
X045939Y040282D01*
X046021Y040293D01*
X046098Y040325D01*
X046185Y040365D01*
X046272Y040325D01*
X046349Y040293D01*
X046431Y040282D01*
X046513Y040293D01*
X04659Y040325D01*
X046656Y040375D01*
X046706Y040441D01*
X046738Y040518D01*
X046749Y0406D01*
X046738Y040682D01*
X046706Y040759D01*
X046656Y040825D01*
X04659Y040875D01*
X046513Y040907D01*
X046431Y040918D01*
D02*
G37*
G36*
X066489Y012961D02*
X066189D01*
X06607Y012946D01*
X065958Y0129D01*
X065863Y012826D01*
X065789Y012731D01*
X065743Y012619D01*
X065728Y0125D01*
X065743Y012381D01*
X065789Y012269D01*
X065863Y012174D01*
X065958Y0121D01*
X06607Y012054D01*
X066189Y012039D01*
X066489D01*
X066608Y012054D01*
X06672Y0121D01*
X066815Y012174D01*
X066889Y012269D01*
X066935Y012381D01*
X06695Y0125D01*
X066935Y012619D01*
X066889Y012731D01*
X066815Y012826D01*
X06672Y0129D01*
X066608Y012946D01*
X066489Y012961D01*
D02*
G37*
%LPD*%
D47*
X014239Y04155D02*
X027536D01*
X028889Y03535D02*
X02937Y034869D01*
X027989Y042D02*
X028489Y0425D01*
X028439Y03535D02*
X028889D01*
X027989Y0358D02*
Y042D01*
Y0358D02*
X028439Y03535D01*
X028489Y0425D02*
X029589D01*
X013371Y040682D02*
X014239Y04155D01*
X013371Y020018D02*
Y040682D01*
Y020018D02*
X013739Y01965D01*
X014439Y02065D02*
X014879Y02109D01*
X015522D01*
X013739Y01965D02*
X014439D01*
X014514Y019575D01*
X015481Y019121D02*
X015522D01*
X015028Y019575D02*
X015481Y019121D01*
X014514Y019575D02*
X015028D01*
X036239Y0441D02*
X042591D01*
X032589Y0405D02*
X032639D01*
X036239Y0441D01*
X042591D02*
X045071Y04162D01*
X042885Y044454D02*
X043759Y04358D01*
X035289Y04385D02*
X035893Y044454D01*
X042885D01*
X043139Y04485D02*
X044029Y04396D01*
X033516Y042777D02*
X035589Y04485D01*
X043139D01*
X043346Y04525D02*
X044216Y04438D01*
X033539Y0435D02*
X035289Y04525D01*
X043346D01*
X050489Y04215D02*
X051539Y0411D01*
Y035309D02*
Y0411D01*
X05013Y0339D02*
X051539Y035309D01*
X050689Y0315D02*
X052239Y03305D01*
X051189Y0431D02*
X052239Y04205D01*
Y03305D02*
Y04205D01*
X065189Y00585D02*
Y0137D01*
X052649Y01464D02*
X064249D01*
X065189Y0137D01*
X03001Y02295D02*
X044339D01*
X052649Y01464D01*
X045939Y0287D02*
X054189D01*
X054789Y0223D02*
Y0281D01*
X054189Y0287D02*
X054789Y0281D01*
X058839Y04815D02*
X061689D01*
X058739Y04825D02*
X058839Y04815D01*
X066389Y019258D02*
X067589D01*
X064618D02*
X066389D01*
X037885Y047145D02*
X03938Y04565D01*
X03783Y0472D02*
X037885Y047145D01*
X03108Y0455D02*
X032589D01*
X03108D02*
X03108D01*
X032597Y015208D02*
X038981D01*
X025089D02*
X032597D01*
X026139Y0487D02*
X027239Y0498D01*
X060709D02*
X061828Y048682D01*
X027239Y0498D02*
X060709D01*
X03325Y048661D02*
X033889Y0493D01*
X045739D02*
X046431Y048608D01*
X033889Y0493D02*
X045739D01*
X040489Y0488D02*
X041789D01*
X041801Y048788D01*
X041901D01*
X041939Y04875D01*
X035789Y0472D02*
Y0472D01*
X034089Y0455D02*
X035789Y0472D01*
X032589Y0455D02*
X034089D01*
X026139Y046511D02*
X030069D01*
X03108Y0455D01*
X03108Y0455D02*
X03108Y0455D01*
X03108Y04D02*
Y0455D01*
X058739Y04625D02*
X059289Y0468D01*
X061679D01*
X061689Y04681D01*
X0552Y04625D02*
X058739D01*
X054889Y046561D02*
X0552Y04625D01*
X064346Y048682D02*
X064639Y048389D01*
X061828Y048682D02*
X064346D01*
X065089Y05095D02*
X068839D01*
X064639Y0505D02*
X065089Y05095D01*
X064639Y048389D02*
Y0505D01*
X012539Y04625D02*
X015739D01*
X012339Y04645D02*
X012539Y04625D01*
X016139Y04585D02*
X019789D01*
X015739Y04625D02*
X016139Y04585D01*
X019889Y04775D02*
X022789D01*
X019789Y04785D02*
X019889Y04775D01*
X034159Y04872D02*
X039319D01*
X03376Y04723D02*
Y048321D01*
X034159Y04872D01*
X039885Y048145D02*
Y048154D01*
X039319Y04872D02*
X039885Y048154D01*
X046431Y0448D02*
Y048608D01*
X026139Y047889D02*
Y0487D01*
X03325Y04709D02*
Y048661D01*
X03359Y04675D02*
X0343D01*
X035592Y048043D01*
Y048043D01*
X03575Y0482D01*
X035789D01*
X032599Y01521D02*
Y0216D01*
X032597Y015208D02*
X032599Y01521D01*
X038739Y0115D02*
Y01245D01*
X038389Y0128D02*
X038739Y01245D01*
X029789Y0128D02*
X038389D01*
X039739Y0115D02*
Y01445D01*
X038981Y015208D02*
X039739Y01445D01*
X037299Y01079D02*
X043529D01*
X036289Y0118D02*
X037299Y01079D01*
X029789Y0118D02*
X036289D01*
X041639Y0137D02*
X046339D01*
X040739Y0115D02*
Y0128D01*
X041639Y0137D01*
X041739Y0115D02*
Y0125D01*
X042439Y0132D02*
X046189D01*
X041739Y0125D02*
X042439Y0132D01*
X046189D02*
X046939Y01245D01*
Y01085D02*
Y01245D01*
X046339Y0137D02*
X047389Y01265D01*
Y010694D02*
Y01265D01*
X046675Y00998D02*
X047389Y010694D01*
X046469Y01038D02*
X046939Y01085D01*
X03673Y01038D02*
X046469D01*
X035969Y00998D02*
X046675D01*
X049971Y013216D02*
X050737Y01245D01*
X053039D02*
X053389Y0128D01*
X050737Y01245D02*
X053039D01*
X033009Y00463D02*
X054619D01*
X032439Y0052D02*
Y0095D01*
Y0052D02*
X033009Y00463D01*
X031836Y0095D02*
X032439D01*
X034382D01*
X034582Y0097D02*
X034689D01*
X034382Y0095D02*
X034582Y0097D01*
X031073Y010263D02*
X031836Y0095D01*
X014447Y014958D02*
X014989D01*
X013755Y014266D02*
X014447Y014958D01*
X013755Y014175D02*
Y014266D01*
X022877Y01965D02*
X022889D01*
X022577Y01995D02*
X022877Y01965D01*
X020288Y01995D02*
X022577D01*
X019459Y019121D02*
X020288Y01995D01*
X022591Y020459D02*
X022782Y02065D01*
X022889D01*
X02009Y020459D02*
X022591D01*
X022889Y02065D02*
X023839Y0216D01*
X019459Y02109D02*
X02009Y020459D01*
X015522Y02109D02*
X016462Y02015D01*
X01852D01*
X019459Y02109D01*
X028339Y023681D02*
Y0291D01*
X028509Y02927D02*
X029619D01*
X028339Y0291D02*
X028509Y02927D01*
X029619D02*
X029824Y029065D01*
Y028873D02*
Y029065D01*
Y028873D02*
X029847Y02885D01*
X028339Y023681D02*
X02962Y0224D01*
X041289Y03005D02*
X041624Y030385D01*
X042385D01*
X041289Y02425D02*
Y03005D01*
X040839Y0238D02*
X041289Y02425D01*
X033939Y0238D02*
X040839D01*
X029789Y02605D02*
X030089Y02635D01*
X029789Y0257D02*
Y02605D01*
X030089Y02635D02*
X031389D01*
X033939Y0238D01*
X029839Y02675D02*
X032031D01*
X029297Y0257D02*
Y026208D01*
X029839Y02675D01*
X032031D02*
X032689Y026092D01*
X033396Y025385D01*
X02973Y02735D02*
X03335D01*
X02888Y0265D02*
X02973Y02735D01*
X03335D02*
X036385Y030385D01*
X030939Y02335D02*
X047148D01*
X030281Y024008D02*
X030939Y02335D01*
X030281Y024008D02*
Y0257D01*
X047018Y023479D02*
X047148Y02335D01*
X047639Y022859D01*
X02888Y02408D02*
X03001Y02295D01*
X02962Y0224D02*
X042489D01*
X029598Y028437D02*
X033426D01*
X035289Y0303D02*
Y0336D01*
X033426Y028437D02*
X035289Y0303D01*
X033396Y025385D02*
X036385D01*
X052734Y005523D02*
X052812D01*
X053093Y005804D01*
X053137D01*
X053282Y00595D02*
X054181D01*
X052421Y00536D02*
X052571D01*
X052734Y005523D01*
X053137Y005804D02*
X053282Y00595D01*
X054181D02*
X054231Y0059D01*
X054589Y00695D02*
X055039Y0065D01*
X053389Y00695D02*
X054589D01*
X055039Y00505D02*
Y0065D01*
X054619Y00463D02*
X055039Y00505D01*
X053389Y0118D02*
X054231D01*
X052955D02*
X053389D01*
X054231D02*
X054281Y01185D01*
X069789Y01155D02*
X070089Y01125D01*
Y00495D02*
Y01125D01*
X068989Y01155D02*
X069789D01*
X069639Y0045D02*
X070089Y00495D01*
X06548Y0045D02*
X069639D01*
X06469Y00529D02*
X06548Y0045D01*
X066888Y009451D02*
X068789Y00755D01*
X068989D01*
X066388Y009451D02*
X066888D01*
X066339Y0095D02*
X066388Y009451D01*
X066863Y010426D02*
X068652Y008637D01*
X068902D01*
X068989Y00855D01*
X066339Y0105D02*
X066413Y010426D01*
X066863D01*
X065189Y00585D02*
X065539Y0055D01*
X066339D01*
X064189Y01615D02*
X067789Y01255D01*
X068989D01*
X052989Y01615D02*
X064189D01*
X047639Y0215D02*
Y022859D01*
Y0215D02*
X052989Y01615D01*
X047018Y023479D02*
X047639Y0241D01*
Y0257D01*
X048131Y026192D01*
X049689D01*
X050568D01*
X057297Y02005D02*
X059647Y0177D01*
X053047Y02005D02*
X057297D01*
X052597Y0205D02*
X053047Y02005D01*
X067589Y019258D02*
X067639Y019208D01*
X067681Y01925D01*
X068881D01*
X068889Y019258D01*
X053355Y02193D02*
X054419D01*
X054789Y0223D01*
X043254Y031385D02*
X045939Y0287D01*
X042385Y031385D02*
X043254D01*
X046034Y032901D02*
X047035Y0319D01*
X049039D02*
X049639Y0325D01*
X047035Y0319D02*
X049039D01*
X049239Y0303D02*
X049564Y030625D01*
Y031425D01*
X046666Y0303D02*
X049239D01*
X049564Y031425D02*
X049639Y0315D01*
X050689D01*
X046034Y030932D02*
X046666Y0303D01*
X042385Y034385D02*
X04287Y0339D01*
X05013D01*
X050169Y04162D02*
X05073Y041059D01*
Y03825D02*
Y041059D01*
X045071Y04162D02*
X050169D01*
X04625Y04215D02*
X050489D01*
X043759Y04358D02*
X050709D01*
X051189Y0431D02*
Y0431D01*
X050709Y04358D02*
X051189Y0431D01*
X046034Y034869D02*
X047Y035835D01*
Y03585D02*
X049132D01*
X049582Y0354D01*
X049689D01*
X044029Y04396D02*
X057479D01*
X058589Y0224D02*
Y04285D01*
X057479Y04396D02*
X058589Y04285D01*
X060859Y04438D02*
X062439Y0428D01*
Y0224D02*
Y0428D01*
X044216Y04438D02*
X060859D01*
X035794Y048195D02*
X037835D01*
X035789Y0482D02*
X035794Y048195D01*
X037835D02*
X037885Y048145D01*
X035789Y0472D02*
X03783D01*
X0378Y0338D02*
Y04345D01*
X044597Y04565D02*
X045447Y0448D01*
X03938Y04565D02*
X044597D01*
X032589Y0435D02*
X033539D01*
X035289Y04385D02*
Y04385D01*
X032589Y0415D02*
X032666Y041577D01*
X033016D02*
X035289Y04385D01*
X032666Y041577D02*
X033016D01*
X033248Y0425D02*
X033516Y042768D01*
Y042777D01*
X032589Y0425D02*
X033248D01*
X0335Y0395D02*
X036385Y042385D01*
X032589Y0395D02*
X0335D01*
X030989Y0385D02*
X031899Y03759D01*
X029589Y0385D02*
X030989D01*
X031899Y03759D02*
X0335D01*
X034297Y0339D02*
X034989D01*
X035289Y0336D01*
X020689Y00335D02*
X028339D01*
X020081Y003958D02*
Y00715D01*
Y003958D02*
X020689Y00335D01*
X029147Y004158D02*
Y0042D01*
X028339Y00335D02*
X029147Y004158D01*
Y0042D02*
X030239D01*
X030631Y004592D02*
Y0059D01*
X030239Y0042D02*
X030631Y004592D01*
X023138Y00925D02*
X024075Y008313D01*
X020696Y0088D02*
X021146Y00925D01*
X023138D01*
X020589Y0088D02*
X020696D01*
X012589Y01315D02*
X013614Y014175D01*
X010739Y01255D02*
X011339Y01315D01*
X012589D01*
X01433Y01105D02*
X01476Y01148D01*
X011805Y011725D02*
X01248Y01105D01*
X01433D01*
X01476Y01148D02*
X018909D01*
X013614Y014175D02*
X013755D01*
X018047Y0174D02*
X018981D01*
X057589Y0224D02*
X058149Y02184D01*
X060879D01*
X061439Y0224D01*
X049971Y00731D02*
X050651Y00663D01*
X053069D01*
X053389Y00695D01*
X020349Y04641D02*
X022789D01*
X019789Y04585D02*
X020349Y04641D01*
X029377Y036838D02*
X030286D01*
X028889Y03635D02*
X029377Y036838D01*
X02954Y032901D02*
X030286D01*
X028989Y03235D02*
X02954Y032901D01*
X023839Y0216D02*
X031589D01*
X021052Y010263D02*
X021625D01*
X020589Y0098D02*
X021052Y010263D01*
X025699Y00731D02*
X026349D01*
X025139Y00675D02*
X025699Y00731D01*
X029529Y01254D02*
X029789Y0128D01*
X027025Y01254D02*
X029529D01*
X026349Y013216D02*
X027025Y01254D01*
X02937Y034869D02*
X030286D01*
X03111Y030108D02*
X032689D01*
X030286Y030932D02*
X03111Y030108D01*
X029407Y030932D02*
X030286D01*
X028989Y03135D02*
X029407Y030932D01*
X047Y035835D02*
Y03735D01*
X0475Y03785D01*
X05033D01*
X05073Y03825D01*
X021173Y015208D02*
X025089D01*
X018981Y0174D02*
X021173Y015208D01*
X018781Y00715D02*
X020081D01*
X014989Y010942D02*
X018781Y00715D01*
X046139Y0081D02*
X058181D01*
X045739Y0085D02*
X046139Y0081D01*
X058647Y0055D02*
X063339D01*
X058247Y0059D02*
X058647Y0055D01*
X029355Y02885D02*
X029598Y028437D01*
X017347Y05065D02*
X017439D01*
X016147Y04945D02*
X017347Y05065D01*
X016287Y04708D02*
X022789D01*
X015739Y047628D02*
X016287Y04708D01*
X022789D02*
X02557D01*
X026139Y046511D01*
X0651Y04655D02*
X068889D01*
X064639Y047011D02*
X0651Y04655D01*
X061689Y04748D02*
X06417D01*
X064639Y047011D01*
X055348Y04748D02*
X061689D01*
X054889Y047939D02*
X055348Y04748D01*
X03617Y01094D02*
X03673Y01038D01*
X03049Y01094D02*
X03617D01*
X027863Y008313D02*
X03049Y01094D01*
X024075Y008313D02*
X027863D01*
X022789Y04842D02*
X025608D01*
X026139Y047889D01*
X050735Y00958D02*
X052421Y011266D01*
X041335Y00958D02*
X050735D01*
X040739Y008984D02*
X041335Y00958D01*
X040739Y0085D02*
Y008984D01*
X052421Y011266D02*
X052955Y0118D01*
X053089Y022196D02*
X053355Y02193D01*
X053089Y022196D02*
Y02235D01*
X038885Y047145D02*
X03983Y0462D01*
X042941D01*
X032589Y0385D02*
X0335D01*
X036385Y041385D01*
X034689Y0087D02*
X035969Y00998D01*
X03391Y0087D02*
X034689D01*
X033523Y008313D02*
X03391Y0087D01*
X028145Y01192D02*
X028799Y011266D01*
X025817Y01192D02*
X028145D01*
X025089Y011192D02*
X025817Y01192D01*
X029333Y0118D02*
X029789D01*
X028799Y011266D02*
X029333Y0118D01*
X062397Y0095D02*
X063339D01*
X062197Y0093D02*
X062397Y0095D01*
X062597Y0085D02*
X063339D01*
X062197Y0081D02*
X062597Y0085D01*
X02888Y02408D02*
Y0265D01*
X043739Y011D02*
Y0115D01*
X043529Y01079D02*
X043739Y011D01*
X03325Y04709D02*
X03359Y04675D01*
X036385Y032385D02*
X0378Y0338D01*
X06469Y00529D02*
Y008D01*
X06419Y0085D02*
X06469Y008D01*
X063339Y0085D02*
X06419D01*
X03422Y03831D02*
X034589D01*
X0335Y03759D02*
X03422Y03831D01*
X034589Y0373D02*
X0353D01*
X036385Y038385D01*
X045947Y042453D02*
X04625Y04215D01*
X045947Y042453D02*
Y04265D01*
X053581Y02235D02*
Y023179D01*
X050568Y026192D02*
X053581Y023179D01*
X034589Y03632D02*
X03532D01*
X036385Y037385D01*
X03058Y0395D02*
X03108Y04D01*
X029589Y0395D02*
X03058D01*
X050339Y02235D02*
X052597D01*
X049689Y023D02*
X050339Y02235D01*
X049689Y023D02*
Y025208D01*
X052597Y0205D02*
Y02235D01*
X045692Y038692D02*
X048839D01*
X042385Y035385D02*
X045692Y038692D01*
X041739Y006831D02*
Y0085D01*
Y006831D02*
X0425Y00607D01*
X051711D01*
X052421Y00536D01*
X046431Y0448D02*
X051689D01*
X052389Y0455D01*
Y04655D01*
X060581Y0177D02*
X06306D01*
X064618Y019258D01*
X018909Y01148D02*
X020589Y0098D01*
X025139Y00575D02*
X025716Y006327D01*
X027832D01*
X028799Y00536D01*
X048362Y043185D02*
X048839Y042708D01*
X04575Y043185D02*
X048362D01*
X045455Y042889D02*
X04575Y043185D01*
X045455Y04265D02*
Y042889D01*
X053641Y046561D02*
X054889D01*
X05363Y04655D02*
X053641Y046561D01*
X052389Y04655D02*
X05363D01*
X045423Y034869D02*
X046034D01*
X0454Y034892D02*
X045423Y034869D01*
X044789Y034892D02*
X0454D01*
X059647Y0177D02*
X060581D01*
X048839Y038692D02*
X050189D01*
X050738Y04655D02*
X051389D01*
X05073Y046542D02*
X050738Y04655D01*
X050089Y046542D02*
X05073D01*
X062197Y0105D02*
X063339D01*
D48*
X037885Y048145D02*
D03*
X038885D02*
D03*
X040885D02*
D03*
X039885D02*
D03*
X037885Y047145D02*
D03*
X038885D02*
D03*
X040885D02*
D03*
X039885D02*
D03*
X049639Y0325D02*
D03*
Y0315D02*
D03*
X049689Y0364D02*
D03*
Y0354D02*
D03*
X053389Y00695D02*
D03*
Y00595D02*
D03*
X034689Y0097D02*
D03*
Y0087D02*
D03*
X020589Y0098D02*
D03*
Y0088D02*
D03*
X028989Y03235D02*
D03*
Y03135D02*
D03*
X028889Y03635D02*
D03*
Y03535D02*
D03*
X062439Y0224D02*
D03*
X061439D02*
D03*
X058589D02*
D03*
X057589D02*
D03*
X053389Y0118D02*
D03*
Y0128D02*
D03*
X025139Y00675D02*
D03*
Y00575D02*
D03*
X029789Y0128D02*
D03*
Y0118D02*
D03*
X010739Y01355D02*
D03*
Y01255D02*
D03*
X022889Y02065D02*
D03*
Y01965D02*
D03*
X014439Y02065D02*
D03*
Y01965D02*
D03*
D49*
X061689Y04882D02*
D03*
X022789Y04842D02*
D03*
D50*
X061689Y04815D02*
D03*
Y04748D02*
D03*
Y04681D02*
D03*
Y04614D02*
D03*
X050089Y050558D02*
D03*
Y046542D02*
D03*
X044789Y034892D02*
D03*
Y038908D02*
D03*
X048839Y038692D02*
D03*
Y042708D02*
D03*
X050189D02*
D03*
Y038692D02*
D03*
X045989Y030008D02*
D03*
Y025992D02*
D03*
X068889Y015242D02*
D03*
Y019258D02*
D03*
X067639Y019208D02*
D03*
Y015192D02*
D03*
X066389Y015242D02*
D03*
Y019258D02*
D03*
X064597Y0177D02*
D03*
X060581D02*
D03*
X055631D02*
D03*
X059647D02*
D03*
X067347Y0037D02*
D03*
X063331D02*
D03*
X058247Y0059D02*
D03*
X054231D02*
D03*
X062197Y0093D02*
D03*
X058181D02*
D03*
X062197Y0081D02*
D03*
X058181D02*
D03*
X062197Y0105D02*
D03*
X058181D02*
D03*
X058297Y01185D02*
D03*
X054281D02*
D03*
X030631Y0059D02*
D03*
X034647D02*
D03*
X014031Y0174D02*
D03*
X018047D02*
D03*
X014989Y010942D02*
D03*
Y014958D02*
D03*
X022997Y0174D02*
D03*
X018981D02*
D03*
X034297Y0339D02*
D03*
X030281D02*
D03*
X032689Y030108D02*
D03*
Y026092D02*
D03*
X022789Y04775D02*
D03*
Y04708D02*
D03*
Y04641D02*
D03*
Y04574D02*
D03*
X016147Y04945D02*
D03*
X012131D02*
D03*
X020081Y00715D02*
D03*
X024097D02*
D03*
X029147Y0042D02*
D03*
X025131D02*
D03*
X025089Y011192D02*
D03*
Y015208D02*
D03*
D51*
X064639Y048389D02*
D03*
X054889Y046561D02*
D03*
X026139Y047889D02*
D03*
X015739Y04625D02*
D03*
D52*
X064639Y047011D02*
D03*
X054889Y047939D02*
D03*
X026139Y046511D02*
D03*
X015739Y047628D02*
D03*
D53*
X058739Y04825D02*
D03*
Y04625D02*
D03*
X019789Y04785D02*
D03*
Y04585D02*
D03*
D54*
X057789Y0509D02*
D03*
X017439Y05065D02*
D03*
D55*
X063289Y0509D02*
D03*
X022939Y05065D02*
D03*
D56*
X045447Y0448D02*
D03*
X045939D02*
D03*
X046431D02*
D03*
X045455Y04265D02*
D03*
X045947D02*
D03*
X046439D02*
D03*
X045447Y0406D02*
D03*
X045939D02*
D03*
X046431D02*
D03*
X049689Y025208D02*
D03*
Y0257D02*
D03*
Y026192D02*
D03*
X052597Y02235D02*
D03*
X053089D02*
D03*
X053581D02*
D03*
X030339Y02885D02*
D03*
X029847D02*
D03*
X029355D02*
D03*
X030281Y0257D02*
D03*
X029789D02*
D03*
X029297D02*
D03*
D57*
X046034Y032901D02*
D03*
X048484Y030951D02*
D03*
X048475Y032901D02*
D03*
X046034Y030932D02*
D03*
Y036838D02*
D03*
X048484Y034888D02*
D03*
X048475Y036838D02*
D03*
X046034Y034869D02*
D03*
X049971Y00731D02*
D03*
X052421Y00536D02*
D03*
X052412Y00731D02*
D03*
X049971Y005342D02*
D03*
Y013216D02*
D03*
X052421Y011266D02*
D03*
X052412Y013216D02*
D03*
X049971Y011247D02*
D03*
X031073Y010263D02*
D03*
X033523Y008313D02*
D03*
X033514Y010263D02*
D03*
X031073Y008294D02*
D03*
X021625Y010263D02*
D03*
X024075Y008313D02*
D03*
X024066Y010263D02*
D03*
X021625Y008294D02*
D03*
X030286Y032901D02*
D03*
X032736Y030951D02*
D03*
X032727Y032901D02*
D03*
X030286Y030932D02*
D03*
Y036838D02*
D03*
X032736Y034888D02*
D03*
X032727Y036838D02*
D03*
X030286Y034869D02*
D03*
X060798Y019121D02*
D03*
X063239Y02109D02*
D03*
X063248Y01914D02*
D03*
X060798Y02109D02*
D03*
X056861Y019121D02*
D03*
X059302Y02109D02*
D03*
X059311Y01914D02*
D03*
X056861Y02109D02*
D03*
X026349Y011247D02*
D03*
X02879Y013216D02*
D03*
X028799Y011266D02*
D03*
X026349Y013216D02*
D03*
Y005342D02*
D03*
X02879Y00731D02*
D03*
X028799Y00536D02*
D03*
X026349Y00731D02*
D03*
X013773Y011725D02*
D03*
X011805Y014166D02*
D03*
X013755Y014175D02*
D03*
X011805Y011725D02*
D03*
X019459Y019121D02*
D03*
X0219Y02109D02*
D03*
X021909Y01914D02*
D03*
X019459Y02109D02*
D03*
X015522Y019121D02*
D03*
X017963Y02109D02*
D03*
X017972Y01914D02*
D03*
X015522Y02109D02*
D03*
D58*
X035789Y0472D02*
D03*
D59*
Y0482D02*
D03*
D60*
X012339Y04645D02*
D03*
D61*
Y04745D02*
D03*
D62*
X068989Y01255D02*
D03*
Y01055D02*
D03*
Y00855D02*
D03*
Y00755D02*
D03*
Y00655D02*
D03*
Y00955D02*
D03*
Y01155D02*
D03*
D63*
Y00555D02*
D03*
D64*
X045739Y0115D02*
D03*
X044739D02*
D03*
X043739D02*
D03*
X042739D02*
D03*
X041739D02*
D03*
X040739D02*
D03*
X039739D02*
D03*
X038739D02*
D03*
X045739Y0085D02*
D03*
X044739D02*
D03*
X043739D02*
D03*
X042739D02*
D03*
X041739D02*
D03*
X040739D02*
D03*
X039739D02*
D03*
D65*
X038739D02*
D03*
D66*
X063339Y0125D02*
D03*
X032589Y0385D02*
D03*
D67*
X063339Y0115D02*
D03*
Y0105D02*
D03*
Y0095D02*
D03*
Y0085D02*
D03*
Y0075D02*
D03*
Y0065D02*
D03*
Y0055D02*
D03*
X066339Y0125D02*
D03*
Y0115D02*
D03*
Y0105D02*
D03*
Y0095D02*
D03*
Y0085D02*
D03*
Y0075D02*
D03*
Y0065D02*
D03*
Y0055D02*
D03*
X032589Y0395D02*
D03*
Y0405D02*
D03*
Y0415D02*
D03*
Y0425D02*
D03*
Y0435D02*
D03*
Y0445D02*
D03*
Y0455D02*
D03*
X029589Y0385D02*
D03*
Y0395D02*
D03*
Y0405D02*
D03*
Y0415D02*
D03*
Y0425D02*
D03*
Y0435D02*
D03*
Y0445D02*
D03*
Y0455D02*
D03*
D68*
X031589Y0216D02*
D03*
X032599D02*
D03*
X033579D02*
D03*
X034589D02*
D03*
D69*
Y03831D02*
D03*
Y0373D02*
D03*
Y03632D02*
D03*
Y03531D02*
D03*
D70*
X051389Y04655D02*
D03*
D71*
X052389D02*
D03*
D72*
X042385Y036385D02*
D03*
X036385Y027385D02*
D03*
Y028385D02*
D03*
Y029385D02*
D03*
Y030385D02*
D03*
Y031385D02*
D03*
Y032385D02*
D03*
Y033385D02*
D03*
Y034385D02*
D03*
Y035385D02*
D03*
Y036385D02*
D03*
Y037385D02*
D03*
Y038385D02*
D03*
Y039385D02*
D03*
Y040385D02*
D03*
Y041385D02*
D03*
Y042385D02*
D03*
Y043385D02*
D03*
Y025385D02*
D03*
Y026385D02*
D03*
X042385Y030385D02*
D03*
Y029385D02*
D03*
Y028385D02*
D03*
Y027385D02*
D03*
Y026385D02*
D03*
Y025385D02*
D03*
Y031385D02*
D03*
Y032385D02*
D03*
Y037385D02*
D03*
Y039385D02*
D03*
Y038385D02*
D03*
Y040385D02*
D03*
Y041385D02*
D03*
Y042385D02*
D03*
Y043385D02*
D03*
Y035385D02*
D03*
Y034385D02*
D03*
Y033385D02*
D03*
D73*
X036385Y024385D02*
D03*
X042385D02*
D03*
D74*
X068839Y05095D02*
D03*
X068889Y047534D02*
D03*
D75*
X068839Y049966D02*
D03*
X068889Y04655D02*
D03*
D76*
X063976Y03937D02*
D03*
Y019685D02*
D03*
X059055Y009843D02*
D03*
X054134Y03937D02*
D03*
X049213Y029528D02*
D03*
X054134Y019685D02*
D03*
X044291D02*
D03*
X034449D02*
D03*
X024606Y03937D02*
D03*
X019685Y029528D02*
D03*
Y009843D02*
D03*
X014764Y03937D02*
D03*
X009843Y029528D02*
D03*
Y009843D02*
D03*
D77*
X027536Y04155D02*
D03*
X040489Y0488D02*
D03*
X041939Y04875D02*
D03*
X042489Y0224D02*
D03*
X0378Y04345D02*
D03*
X042941Y0462D02*
D03*
X03376Y04723D02*
D03*
M02*
