G04*
G04 #@! TF.GenerationSoftware,Altium Limited,Altium Designer,21.3.2 (30)*
G04*
G04 Layer_Color=65535*
%FSTAX24Y24*%
%MOIN*%
G70*
G04*
G04 #@! TF.SameCoordinates,7536F4C1-D20E-4AD8-A34B-159FF933A109*
G04*
G04*
G04 #@! TF.FilePolarity,Positive*
G04*
G01*
G75*
%ADD10C,0.0079*%
%ADD11C,0.0100*%
%ADD12C,0.0070*%
%ADD13C,0.0150*%
%ADD14C,0.0010*%
%ADD15C,0.0060*%
%ADD16R,0.0300X0.2000*%
G36*
X034589Y02216D02*
X034839Y02241D01*
X034339D01*
X034589Y02216D01*
D02*
G37*
G36*
X035149Y03531D02*
X035399Y03506D01*
Y03556D01*
X035149Y03531D01*
D02*
G37*
G36*
X069739Y00555D02*
X069989Y0053D01*
Y0058D01*
X069739Y00555D01*
D02*
G37*
D10*
X061443Y049312D02*
G03*
X061935Y049312I000246J0D01*
G01*
X022543Y048912D02*
G03*
X023035Y048912I000246J0D01*
G01*
X062333Y04547D02*
Y049312D01*
X061045Y04547D02*
X062333D01*
X061045D02*
Y049312D01*
X061935D01*
X061443D02*
X062333D01*
X023433Y04507D02*
Y048912D01*
X022145Y04507D02*
X023433D01*
X022145D02*
Y048912D01*
X023035D01*
X022543D02*
X023433D01*
D11*
X066214Y0477D02*
G03*
X066214Y0477I-001575J0D01*
G01*
X058739Y04725D02*
G03*
X058739Y04775I0J00025D01*
G01*
Y04675D02*
G03*
X058739Y04725I0J00025D01*
G01*
X060239D02*
G03*
X060239Y04725I-0015J0D01*
G01*
X056464D02*
G03*
X056464Y04725I-001575J0D01*
G01*
X050015Y032496D02*
G03*
X049263Y03249I-000376J000004D01*
G01*
X049263Y031494D02*
G03*
X050015Y0315I000376J-000004D01*
G01*
X050065Y036396D02*
G03*
X049313Y03639I-000376J000004D01*
G01*
X049313Y035394D02*
G03*
X050065Y0354I000376J-000004D01*
G01*
X053765Y006946D02*
G03*
X053013Y00694I-000376J000004D01*
G01*
X053013Y005944D02*
G03*
X053765Y00595I000376J-000004D01*
G01*
X035065Y009696D02*
G03*
X034313Y00969I-000376J000004D01*
G01*
X034313Y008694D02*
G03*
X035065Y0087I000376J-000004D01*
G01*
X020965Y009796D02*
G03*
X020213Y00979I-000376J000004D01*
G01*
X020213Y008794D02*
G03*
X020965Y0088I000376J-000004D01*
G01*
X029365Y032346D02*
G03*
X028613Y03234I-000376J000004D01*
G01*
X028613Y031344D02*
G03*
X029365Y03135I000376J-000004D01*
G01*
X029265Y036346D02*
G03*
X028513Y03634I-000376J000004D01*
G01*
X028513Y035344D02*
G03*
X029265Y03535I000376J-000004D01*
G01*
X036779Y0477D02*
G03*
X036779Y0477I-00099J0D01*
G01*
X027714Y0472D02*
G03*
X027714Y0472I-001575J0D01*
G01*
X019789Y04685D02*
G03*
X019789Y04735I0J00025D01*
G01*
Y04635D02*
G03*
X019789Y04685I0J00025D01*
G01*
X021289D02*
G03*
X021289Y04685I-0015J0D01*
G01*
X011939Y04785D02*
G03*
X012739Y04785I0004J-0009D01*
G01*
X062445Y022024D02*
G03*
X062439Y022776I000004J000376D01*
G01*
X061443Y022776D02*
G03*
X061449Y022024I-000004J-000376D01*
G01*
X058595Y022024D02*
G03*
X058589Y022776I000004J000376D01*
G01*
X057593Y022776D02*
G03*
X057599Y022024I-000004J-000376D01*
G01*
X053013Y011794D02*
G03*
X053765Y0118I000376J-000004D01*
G01*
X053765Y012796D02*
G03*
X053013Y01279I-000376J000004D01*
G01*
X050989Y04615D02*
G03*
X050989Y04695I0009J0004D01*
G01*
X017314Y046939D02*
G03*
X017314Y046939I-001575J0D01*
G01*
X025515Y006746D02*
G03*
X024763Y00674I-000376J000004D01*
G01*
X024763Y005744D02*
G03*
X025515Y00575I000376J-000004D01*
G01*
X030165Y012796D02*
G03*
X029413Y01279I-000376J000004D01*
G01*
X029413Y011794D02*
G03*
X030165Y0118I000376J-000004D01*
G01*
X011115Y013546D02*
G03*
X010363Y01354I-000376J000004D01*
G01*
X010363Y012544D02*
G03*
X011115Y01255I000376J-000004D01*
G01*
X023265Y020646D02*
G03*
X022513Y02064I-000376J000004D01*
G01*
X022513Y019644D02*
G03*
X023265Y01965I000376J-000004D01*
G01*
X014815Y020646D02*
G03*
X014063Y02064I-000376J000004D01*
G01*
X014063Y019644D02*
G03*
X014815Y01965I000376J-000004D01*
G01*
X037385Y046665D02*
X041385D01*
Y048665D01*
X037385D02*
X041385D01*
X037385Y046665D02*
Y048665D01*
Y046665D02*
Y047665D01*
X038385D01*
Y046665D02*
Y047665D01*
X037385Y048665D02*
Y057665D01*
X041385Y048665D02*
Y057665D01*
X037385D02*
X041385D01*
X063064Y0477D02*
X066214D01*
X065679D02*
X065759D01*
X066139Y04732D01*
X065149Y0477D02*
X065379D01*
X066039Y04704D01*
X064859Y0477D02*
X064979D01*
X065889Y04679D01*
X064409Y0477D02*
X064589D01*
X065719Y04657D01*
X064099Y0477D02*
X064179D01*
X065489Y04639D01*
X063779Y0477D02*
X065229Y04625D01*
X063379Y0477D02*
X064909Y04617D01*
X063069Y04755D02*
Y04768D01*
Y04755D02*
X064489Y04613D01*
X063239Y047D02*
Y04702D01*
Y047D02*
X063949Y04629D01*
X053314Y04725D02*
X056464D01*
X053769D02*
X053849D01*
X053389Y04763D02*
X053769Y04725D01*
X054149D02*
X054379D01*
X053489Y04791D02*
X054149Y04725D01*
X054549D02*
X054669D01*
X053639Y04816D02*
X054549Y04725D01*
X054939D02*
X055119D01*
X053809Y04838D02*
X054939Y04725D01*
X055349D02*
X055429D01*
X054039Y04856D02*
X055349Y04725D01*
X054299Y0487D02*
X055749Y04725D01*
X054619Y04878D02*
X056149Y04725D01*
X056459Y04727D02*
Y0474D01*
X055039Y04882D02*
X056459Y0474D01*
X056289Y04793D02*
Y04795D01*
X055579Y04866D02*
X056289Y04795D01*
X049597Y04975D02*
X050581D01*
Y04735D02*
Y04975D01*
X049597Y04735D02*
X050581D01*
X049597D02*
Y04975D01*
X050089Y04682D02*
Y04734D01*
Y04977D02*
Y05029D01*
X045053Y044308D02*
Y045292D01*
Y044308D02*
X046825D01*
Y045292D01*
X045053D02*
X046825D01*
X045061Y042158D02*
Y043142D01*
Y042158D02*
X046833D01*
Y043142D01*
X045061D02*
X046833D01*
X045053Y040108D02*
Y041092D01*
Y040108D02*
X046825D01*
Y041092D01*
X045053D02*
X046825D01*
X044297Y0357D02*
X045281D01*
X044297D02*
Y0381D01*
X045281D01*
Y0357D02*
Y0381D01*
X044789Y03811D02*
Y03863D01*
Y03516D02*
Y03568D01*
X048347Y0395D02*
X049331D01*
X048347D02*
Y0419D01*
X049331D01*
Y0395D02*
Y0419D01*
X048839Y04191D02*
Y04243D01*
Y03896D02*
Y03948D01*
X049697Y0419D02*
X050681D01*
Y0395D02*
Y0419D01*
X049697Y0395D02*
X050681D01*
X049697D02*
Y0419D01*
X050189Y03897D02*
Y03949D01*
Y04192D02*
Y04244D01*
X050019Y03151D02*
Y03247D01*
X049259Y0315D02*
Y0325D01*
X050069Y03541D02*
Y03637D01*
X049309Y0354D02*
Y0364D01*
X045497Y0292D02*
X046481D01*
Y0268D02*
Y0292D01*
X045497Y0268D02*
X046481D01*
X045497D02*
Y0292D01*
X045989Y02627D02*
Y02679D01*
Y02922D02*
Y02974D01*
X049197Y024814D02*
X050181D01*
Y026586D01*
X049197D02*
X050181D01*
X049197Y024814D02*
Y026586D01*
X052203Y021858D02*
Y022842D01*
Y021858D02*
X053975D01*
Y022842D01*
X052203D02*
X053975D01*
X068397Y01605D02*
X069381D01*
X068397D02*
Y01845D01*
X069381D01*
Y01605D02*
Y01845D01*
X068889Y01846D02*
Y01898D01*
Y01551D02*
Y01603D01*
X067639Y01546D02*
Y01598D01*
Y01841D02*
Y01893D01*
X068131Y016D02*
Y0184D01*
X067147D02*
X068131D01*
X067147Y016D02*
Y0184D01*
Y016D02*
X068131D01*
X065897Y01605D02*
X066881D01*
X065897D02*
Y01845D01*
X066881D01*
Y01605D02*
Y01845D01*
X066389Y01846D02*
Y01898D01*
Y01551D02*
Y01603D01*
X063789Y017208D02*
Y018192D01*
X061389Y017208D02*
X063789D01*
X061389D02*
Y018192D01*
X063789D01*
X060859Y0177D02*
X061379D01*
X063809D02*
X064329D01*
X056439Y017208D02*
Y018192D01*
X058839D01*
Y017208D02*
Y018192D01*
X056439Y017208D02*
X058839D01*
X058849Y0177D02*
X059369D01*
X055899D02*
X056419D01*
X066539Y003208D02*
Y004192D01*
X064139Y003208D02*
X066539D01*
X064139D02*
Y004192D01*
X066539D01*
X063609Y0037D02*
X064129D01*
X066559D02*
X067079D01*
X053769Y00596D02*
Y00692D01*
X053009Y00595D02*
Y00695D01*
X057439Y005408D02*
Y006392D01*
X055039Y005408D02*
X057439D01*
X055039D02*
Y006392D01*
X057439D01*
X054509Y0059D02*
X055029D01*
X057459D02*
X057979D01*
X061389Y008808D02*
Y009792D01*
X058989Y008808D02*
X061389D01*
X058989D02*
Y009792D01*
X061389D01*
X058459Y0093D02*
X058979D01*
X061409D02*
X061929D01*
X061389Y007608D02*
Y008592D01*
X058989Y007608D02*
X061389D01*
X058989D02*
Y008592D01*
X061389D01*
X058459Y0081D02*
X058979D01*
X061409D02*
X061929D01*
X061389Y010008D02*
Y010992D01*
X058989Y010008D02*
X061389D01*
X058989D02*
Y010992D01*
X061389D01*
X058459Y0105D02*
X058979D01*
X061409D02*
X061929D01*
X057489Y011358D02*
Y012342D01*
X055089Y011358D02*
X057489D01*
X055089D02*
Y012342D01*
X057489D01*
X054559Y01185D02*
X055079D01*
X057509D02*
X058029D01*
X031439Y005408D02*
Y006392D01*
X033839D01*
Y005408D02*
Y006392D01*
X031439Y005408D02*
X033839D01*
X033849Y0059D02*
X034369D01*
X030899D02*
X031419D01*
X035069Y00871D02*
Y00967D01*
X034309Y0087D02*
Y0097D01*
X020969Y00881D02*
Y00977D01*
X020209Y0088D02*
Y0098D01*
X014839Y016908D02*
Y017892D01*
X017239D01*
Y016908D02*
Y017892D01*
X014839Y016908D02*
X017239D01*
X017249Y0174D02*
X017769D01*
X014299D02*
X014819D01*
X014497Y01175D02*
X015481D01*
X014497D02*
Y01415D01*
X015481D01*
Y01175D02*
Y01415D01*
X014989Y01416D02*
Y01468D01*
Y01121D02*
Y01173D01*
X022189Y016908D02*
Y017892D01*
X019789Y016908D02*
X022189D01*
X019789D02*
Y017892D01*
X022189D01*
X019259Y0174D02*
X019779D01*
X022209D02*
X022729D01*
X033489Y033408D02*
Y034392D01*
X031089Y033408D02*
X033489D01*
X031089D02*
Y034392D01*
X033489D01*
X030559Y0339D02*
X031079D01*
X033509D02*
X034029D01*
X032197Y0293D02*
X033181D01*
Y0269D02*
Y0293D01*
X032197Y0269D02*
X033181D01*
X032197D02*
Y0293D01*
X032689Y02637D02*
Y02689D01*
Y02932D02*
Y02984D01*
X029369Y03136D02*
Y03232D01*
X028609Y03135D02*
Y03235D01*
X029269Y03536D02*
Y03632D01*
X028509Y03535D02*
Y03635D01*
X034829Y04744D02*
X035509Y04676D01*
X034829Y04744D02*
Y04752D01*
X034859Y0477D02*
X035849Y04671D01*
X035189Y0477D02*
X036119Y04677D01*
X035179Y0477D02*
X035189D01*
X035539D02*
X036329Y04691D01*
X035499Y0477D02*
X035539D01*
X035869D02*
X036519Y04705D01*
X036179Y0477D02*
X036639Y04724D01*
X036169Y0477D02*
X036179D01*
X036479D02*
X036719Y04746D01*
X036309Y0477D02*
X036479D01*
X036309D02*
X036469D01*
X034809D02*
X036779D01*
X024564Y0472D02*
X027714D01*
X027179D02*
X027259D01*
X027639Y04682D01*
X026649Y0472D02*
X026879D01*
X027539Y04654D01*
X026359Y0472D02*
X026479D01*
X027389Y04629D01*
X025909Y0472D02*
X026089D01*
X027219Y04607D01*
X025599Y0472D02*
X025679D01*
X026989Y04589D01*
X025279Y0472D02*
X026729Y04575D01*
X024879Y0472D02*
X026409Y04567D01*
X024569Y04705D02*
Y04718D01*
Y04705D02*
X025989Y04563D01*
X024739Y0465D02*
Y04652D01*
Y0465D02*
X025449Y04579D01*
X015339Y048958D02*
Y049942D01*
X012939Y048958D02*
X015339D01*
X012939D02*
Y049942D01*
X015339D01*
X012409Y04945D02*
X012929D01*
X015359D02*
X015879D01*
X012139Y04565D02*
X012539D01*
X012339Y04545D02*
Y04585D01*
X011939Y04785D02*
X012739D01*
X061439Y02202D02*
X062439D01*
X061469Y02278D02*
X062429D01*
X057589Y02202D02*
X058589D01*
X057619Y02278D02*
X058579D01*
X053009Y0118D02*
Y0128D01*
X053769Y01181D02*
Y01277D01*
X050989Y04615D02*
Y04695D01*
X052989Y04655D02*
X053389D01*
X053189Y04635D02*
Y04675D01*
X014889Y048249D02*
X016199Y046939D01*
X014659Y048069D02*
X015789Y046939D01*
X015149Y048389D02*
X016599Y046939D01*
X015789D02*
X015969D01*
X016199D02*
X016279D01*
X015889Y048509D02*
X017309Y047089D01*
X015469Y048469D02*
X016999Y046939D01*
X016429Y048349D02*
X017139Y047639D01*
Y047619D02*
Y047639D01*
X017309Y046959D02*
Y047089D01*
X014339Y047599D02*
X014999Y046939D01*
X014239Y047319D02*
X014619Y046939D01*
X014489Y047849D02*
X015399Y046939D01*
X014619D02*
X014699D01*
X014999D02*
X015229D01*
X014164D02*
X017314D01*
X015399D02*
X015519D01*
X020889Y007642D02*
X023289D01*
X020349Y00715D02*
X020869D01*
X023299D02*
X023819D01*
X023289Y006658D02*
Y007642D01*
X020889Y006658D02*
Y007642D01*
Y006658D02*
X023289D01*
X025519Y00576D02*
Y00672D01*
X024759Y00575D02*
Y00675D01*
X025939Y003708D02*
X028339D01*
X028359Y0042D02*
X028879D01*
X025409D02*
X025929D01*
X025939Y003708D02*
Y004692D01*
X028339Y003708D02*
Y004692D01*
X025939D02*
X028339D01*
X030169Y01181D02*
Y01277D01*
X029409Y0118D02*
Y0128D01*
X011119Y01256D02*
Y01352D01*
X010359Y01255D02*
Y01355D01*
X023269Y01966D02*
Y02062D01*
X022509Y01965D02*
Y02065D01*
X014819Y01966D02*
Y02062D01*
X014059Y01965D02*
Y02065D01*
X068913Y024043D02*
Y043728D01*
X051196D02*
X068913D01*
X051196Y024043D02*
X068913D01*
X051196D02*
Y043728D01*
X027574Y024043D02*
Y043728D01*
X009857Y024043D02*
X027574D01*
X009857D02*
Y043728D01*
X027574D01*
X025089Y01442D02*
Y01494D01*
Y01147D02*
Y01199D01*
X024597Y012D02*
Y0144D01*
Y012D02*
X025581D01*
Y0144D01*
X024597D02*
X025581D01*
X028961Y029342D02*
X030733D01*
Y028358D02*
Y029342D01*
X028961Y028358D02*
X030733D01*
X028961D02*
Y029342D01*
X028903Y026192D02*
X030675D01*
Y025208D02*
Y026192D01*
X028903Y025208D02*
X030675D01*
X028903D02*
Y026192D01*
X041385Y023885D02*
Y043885D01*
Y023885D02*
X043385D01*
Y043885D01*
X041385D02*
X043385D01*
X035385Y023885D02*
Y043885D01*
Y023885D02*
X037385D01*
Y043885D01*
X035385D02*
X037385D01*
X038991Y04294D02*
X039779D01*
Y042546D02*
Y04294D01*
X038991Y042546D02*
X039779D01*
X038991D02*
Y04294D01*
X068195Y051684D02*
X069483D01*
X068195Y049239D02*
Y051684D01*
Y049239D02*
X069483D01*
Y051684D01*
X068245Y048268D02*
X069533D01*
X068245Y045823D02*
Y048268D01*
Y045823D02*
X069533D01*
Y048268D01*
X056039Y00785D02*
Y00845D01*
X056339D01*
X056439Y00835D01*
Y00815D01*
X056339Y00805D01*
X056039D01*
X056239D02*
X056439Y00785D01*
X057039D02*
X056639D01*
X057039Y00825D01*
Y00835D01*
X056939Y00845D01*
X056739D01*
X056639Y00835D01*
X057639Y00845D02*
X057439Y00835D01*
X057239Y00815D01*
Y00795D01*
X057339Y00785D01*
X057539D01*
X057639Y00795D01*
Y00805D01*
X057539Y00815D01*
X057239D01*
X055989Y00895D02*
Y00955D01*
X056289D01*
X056389Y00945D01*
Y00925D01*
X056289Y00915D01*
X055989D01*
X056189D02*
X056389Y00895D01*
X056989D02*
X056589D01*
X056989Y00935D01*
Y00945D01*
X056889Y00955D01*
X056689D01*
X056589Y00945D01*
X057589Y00955D02*
X057189D01*
Y00925D01*
X057389Y00935D01*
X057489D01*
X057589Y00925D01*
Y00905D01*
X057489Y00895D01*
X057289D01*
X057189Y00905D01*
X055939Y01015D02*
Y01075D01*
X056239D01*
X056339Y01065D01*
Y01045D01*
X056239Y01035D01*
X055939D01*
X056139D02*
X056339Y01015D01*
X056939D02*
X056539D01*
X056939Y01055D01*
Y01065D01*
X056839Y01075D01*
X056639D01*
X056539Y01065D01*
X057439Y01015D02*
Y01075D01*
X057139Y01045D01*
X057539D01*
X066639Y01985D02*
X066039D01*
Y02015D01*
X066139Y02025D01*
X066339D01*
X066439Y02015D01*
Y01985D01*
Y02005D02*
X066639Y02025D01*
Y02085D02*
Y02045D01*
X066239Y02085D01*
X066139D01*
X066039Y02075D01*
Y02055D01*
X066139Y02045D01*
Y02105D02*
X066039Y02115D01*
Y02135D01*
X066139Y02145D01*
X066239D01*
X066339Y02135D01*
Y02125D01*
Y02135D01*
X066439Y02145D01*
X066539D01*
X066639Y02135D01*
Y02115D01*
X066539Y02105D01*
X067839Y01985D02*
X067239D01*
Y02015D01*
X067339Y02025D01*
X067539D01*
X067639Y02015D01*
Y01985D01*
Y02005D02*
X067839Y02025D01*
Y02085D02*
Y02045D01*
X067439Y02085D01*
X067339D01*
X067239Y02075D01*
Y02055D01*
X067339Y02045D01*
X067839Y02145D02*
Y02105D01*
X067439Y02145D01*
X067339D01*
X067239Y02135D01*
Y02115D01*
X067339Y02105D01*
X069039Y02D02*
X068439D01*
Y0203D01*
X068539Y0204D01*
X068739D01*
X068839Y0203D01*
Y02D01*
Y0202D02*
X069039Y0204D01*
Y021D02*
Y0206D01*
X068639Y021D01*
X068539D01*
X068439Y0209D01*
Y0207D01*
X068539Y0206D01*
X069039Y0212D02*
Y0214D01*
Y0213D01*
X068439D01*
X068539Y0212D01*
X061039Y00345D02*
Y00405D01*
X061339D01*
X061439Y00395D01*
Y00375D01*
X061339Y00365D01*
X061039D01*
X061239D02*
X061439Y00345D01*
X062039D02*
X061639D01*
X062039Y00385D01*
Y00395D01*
X061939Y00405D01*
X061739D01*
X061639Y00395D01*
X062239D02*
X062339Y00405D01*
X062539D01*
X062639Y00395D01*
Y00355D01*
X062539Y00345D01*
X062339D01*
X062239Y00355D01*
Y00395D01*
X06888Y014D02*
X06868D01*
X06878D01*
Y0135D01*
X06868Y0134D01*
X06858D01*
X06848Y0135D01*
X06908Y0134D02*
Y014D01*
X06938D01*
X06948Y0139D01*
Y0137D01*
X06938Y0136D01*
X06908D01*
X06968Y0134D02*
X06988D01*
X06978D01*
Y014D01*
X06968Y0139D01*
X06287Y01394D02*
X06307D01*
X06297D01*
Y01334D01*
X06287D01*
X06307D01*
X06377Y01384D02*
X06367Y01394D01*
X06347D01*
X06337Y01384D01*
Y01344D01*
X06347Y01334D01*
X06367D01*
X06377Y01344D01*
X06397Y01384D02*
X06407Y01394D01*
X06427D01*
X06437Y01384D01*
Y01374D01*
X06427Y01364D01*
X06417D01*
X06427D01*
X06437Y01354D01*
Y01344D01*
X06427Y01334D01*
X06407D01*
X06397Y01344D01*
X063939Y0204D02*
X063839Y0205D01*
X063639D01*
X063539Y0204D01*
Y0203D01*
X063639Y0202D01*
X063839D01*
X063939Y0201D01*
Y02D01*
X063839Y0199D01*
X063639D01*
X063539Y02D01*
X064139Y0205D02*
Y0199D01*
X064339Y0201D01*
X064539Y0199D01*
Y0205D01*
X064739Y0199D02*
X064939D01*
X064839D01*
Y0205D01*
X064739Y0204D01*
X065639Y0205D02*
X065239D01*
Y0202D01*
X065439Y0203D01*
X065539D01*
X065639Y0202D01*
Y02D01*
X065539Y0199D01*
X065339D01*
X065239Y02D01*
X054489Y02035D02*
X054389Y02045D01*
X054189D01*
X054089Y02035D01*
Y02025D01*
X054189Y02015D01*
X054389D01*
X054489Y02005D01*
Y01995D01*
X054389Y01985D01*
X054189D01*
X054089Y01995D01*
X054689Y02045D02*
Y01985D01*
X054889Y02005D01*
X055089Y01985D01*
Y02045D01*
X055289Y01985D02*
X055489D01*
X055389D01*
Y02045D01*
X055289Y02035D01*
X056089Y01985D02*
Y02045D01*
X055789Y02015D01*
X056189D01*
X050489Y0086D02*
X050389Y0087D01*
X050189D01*
X050089Y0086D01*
Y0085D01*
X050189Y0084D01*
X050389D01*
X050489Y0083D01*
Y0082D01*
X050389Y0081D01*
X050189D01*
X050089Y0082D01*
X050689Y0087D02*
Y0081D01*
X050889Y0083D01*
X051089Y0081D01*
Y0087D01*
X051289Y0081D02*
X051489D01*
X051389D01*
Y0087D01*
X051289Y0086D01*
X052189Y0081D02*
X051789D01*
X052189Y0085D01*
Y0086D01*
X052089Y0087D01*
X051889D01*
X051789Y0086D01*
X050339Y01455D02*
X050239Y01465D01*
X050039D01*
X049939Y01455D01*
Y01445D01*
X050039Y01435D01*
X050239D01*
X050339Y01425D01*
Y01415D01*
X050239Y01405D01*
X050039D01*
X049939Y01415D01*
X050539Y01465D02*
Y01405D01*
X050739Y01425D01*
X050939Y01405D01*
Y01465D01*
X051139Y01405D02*
X051339D01*
X051239D01*
Y01465D01*
X051139Y01455D01*
X051639D02*
X051739Y01465D01*
X051939D01*
X052039Y01455D01*
Y01415D01*
X051939Y01405D01*
X051739D01*
X051639Y01415D01*
Y01455D01*
X062089Y01585D02*
Y01645D01*
X062389D01*
X062489Y01635D01*
Y01615D01*
X062389Y01605D01*
X062089D01*
X062289D02*
X062489Y01585D01*
X062689D02*
X062889D01*
X062789D01*
Y01645D01*
X062689Y01635D01*
X063589Y01645D02*
X063189D01*
Y01615D01*
X063389Y01625D01*
X063489D01*
X063589Y01615D01*
Y01595D01*
X063489Y01585D01*
X063289D01*
X063189Y01595D01*
X056889Y01615D02*
Y01675D01*
X057189D01*
X057289Y01665D01*
Y01645D01*
X057189Y01635D01*
X056889D01*
X057089D02*
X057289Y01615D01*
X057489D02*
X057689D01*
X057589D01*
Y01675D01*
X057489Y01665D01*
X058289Y01615D02*
Y01675D01*
X057989Y01645D01*
X058389D01*
X055839Y00435D02*
Y00495D01*
X056139D01*
X056239Y00485D01*
Y00465D01*
X056139Y00455D01*
X055839D01*
X056039D02*
X056239Y00435D01*
X056439D02*
X056639D01*
X056539D01*
Y00495D01*
X056439Y00485D01*
X056939Y00435D02*
X057139D01*
X057039D01*
Y00495D01*
X056939Y00485D01*
X055439Y01275D02*
Y01335D01*
X055739D01*
X055839Y01325D01*
Y01305D01*
X055739Y01295D01*
X055439D01*
X055639D02*
X055839Y01275D01*
X056039Y01285D02*
X056139Y01275D01*
X056339D01*
X056439Y01285D01*
Y01325D01*
X056339Y01335D01*
X056139D01*
X056039Y01325D01*
Y01315D01*
X056139Y01305D01*
X056439D01*
X051239Y0227D02*
X051039D01*
X051139D01*
Y0222D01*
X051039Y0221D01*
X050939D01*
X050839Y0222D01*
X051839Y0227D02*
X051439D01*
Y0224D01*
X051639Y0225D01*
X051739D01*
X051839Y0224D01*
Y0222D01*
X051739Y0221D01*
X051539D01*
X051439Y0222D01*
X06129Y02363D02*
X06119Y02373D01*
X06099D01*
X06089Y02363D01*
Y02323D01*
X06099Y02313D01*
X06119D01*
X06129Y02323D01*
X06149Y02313D02*
X06169D01*
X06159D01*
Y02373D01*
X06149Y02363D01*
X06239Y02373D02*
X06219Y02363D01*
X06199Y02343D01*
Y02323D01*
X06209Y02313D01*
X06229D01*
X06239Y02323D01*
Y02333D01*
X06229Y02343D01*
X06199D01*
X05744Y02363D02*
X05734Y02373D01*
X05714D01*
X05704Y02363D01*
Y02323D01*
X05714Y02313D01*
X05734D01*
X05744Y02323D01*
X05764Y02313D02*
X05784D01*
X05774D01*
Y02373D01*
X05764Y02363D01*
X05844Y02313D02*
Y02373D01*
X05814Y02343D01*
X05854D01*
X053539Y0086D02*
X053439Y0087D01*
X053239D01*
X053139Y0086D01*
Y0082D01*
X053239Y0081D01*
X053439D01*
X053539Y0082D01*
X053739Y0081D02*
X053939D01*
X053839D01*
Y0087D01*
X053739Y0086D01*
X054239D02*
X054339Y0087D01*
X054539D01*
X054639Y0086D01*
Y0085D01*
X054539Y0084D01*
X054439D01*
X054539D01*
X054639Y0083D01*
Y0082D01*
X054539Y0081D01*
X054339D01*
X054239Y0082D01*
X05346Y01425D02*
X05336Y01435D01*
X05316D01*
X05306Y01425D01*
Y01385D01*
X05316Y01375D01*
X05336D01*
X05346Y01385D01*
X05366Y01375D02*
X05386D01*
X05376D01*
Y01435D01*
X05366Y01425D01*
X05416Y01375D02*
X05436D01*
X05426D01*
Y01435D01*
X05416Y01425D01*
X044239Y0451D02*
X044039D01*
X044139D01*
Y0446D01*
X044039Y0445D01*
X043939D01*
X043839Y0446D01*
X044439D02*
X044539Y0445D01*
X044739D01*
X044839Y0446D01*
Y045D01*
X044739Y0451D01*
X044539D01*
X044439Y045D01*
Y0449D01*
X044539Y0448D01*
X044839D01*
X013539Y05035D02*
Y05095D01*
X013839D01*
X013939Y05085D01*
Y05065D01*
X013839Y05055D01*
X013539D01*
X013739D02*
X013939Y05035D01*
X014139D02*
X014339D01*
X014239D01*
Y05095D01*
X014139Y05085D01*
X014639Y05045D02*
X014739Y05035D01*
X014939D01*
X015039Y05045D01*
Y05085D01*
X014939Y05095D01*
X014739D01*
X014639Y05085D01*
Y05075D01*
X014739Y05065D01*
X015039D01*
X047689Y04835D02*
Y04895D01*
X047989D01*
X048089Y04885D01*
Y04865D01*
X047989Y04855D01*
X047689D01*
X047889D02*
X048089Y04835D01*
X048289D02*
X048489D01*
X048389D01*
Y04895D01*
X048289Y04885D01*
X048789D02*
X048889Y04895D01*
X049089D01*
X049189Y04885D01*
Y04875D01*
X049089Y04865D01*
X049189Y04855D01*
Y04845D01*
X049089Y04835D01*
X048889D01*
X048789Y04845D01*
Y04855D01*
X048889Y04865D01*
X048789Y04875D01*
Y04885D01*
X048889Y04865D02*
X049089D01*
X011089Y045D02*
Y0444D01*
X011489D01*
X012089Y045D02*
X011689D01*
Y0444D01*
X012089D01*
X011689Y0447D02*
X011889D01*
X012289Y045D02*
Y0444D01*
X012589D01*
X012689Y0445D01*
Y0449D01*
X012589Y045D01*
X012289D01*
X013289Y0444D02*
X012889D01*
X013289Y0448D01*
Y0449D01*
X013189Y045D01*
X012989D01*
X012889Y0449D01*
X05104Y04848D02*
Y04788D01*
X05144D01*
X05204Y04848D02*
X05164D01*
Y04788D01*
X05204D01*
X05164Y04818D02*
X05184D01*
X05224Y04848D02*
Y04788D01*
X05254D01*
X052639Y04798D01*
Y04838D01*
X05254Y04848D01*
X05224D01*
X052839Y04788D02*
X053039D01*
X052939D01*
Y04848D01*
X052839Y04838D01*
X03537Y04487D02*
Y04437D01*
X03547Y04427D01*
X03567D01*
X03577Y04437D01*
Y04487D01*
X03597Y04427D02*
X03617D01*
X03607D01*
Y04487D01*
X03597Y04477D01*
X012189Y01055D02*
X012089Y01065D01*
X011889D01*
X011789Y01055D01*
Y01045D01*
X011889Y01035D01*
X012089D01*
X012189Y01025D01*
Y01015D01*
X012089Y01005D01*
X011889D01*
X011789Y01015D01*
X012389Y01065D02*
Y01005D01*
X012589Y01025D01*
X012789Y01005D01*
Y01065D01*
X012989Y01005D02*
X013189D01*
X013089D01*
Y01065D01*
X012989Y01055D01*
X013489D02*
X013589Y01065D01*
X013789D01*
X013889Y01055D01*
Y01045D01*
X013789Y01035D01*
X013689D01*
X013789D01*
X013889Y01025D01*
Y01015D01*
X013789Y01005D01*
X013589D01*
X013489Y01015D01*
X046389Y0341D02*
X046289Y0342D01*
X046089D01*
X045989Y0341D01*
Y034D01*
X046089Y0339D01*
X046289D01*
X046389Y0338D01*
Y0337D01*
X046289Y0336D01*
X046089D01*
X045989Y0337D01*
X046589Y0342D02*
Y0336D01*
X046789Y0338D01*
X046989Y0336D01*
Y0342D01*
X047189Y0336D02*
X047389D01*
X047289D01*
Y0342D01*
X047189Y0341D01*
X047689Y0336D02*
X047889D01*
X047789D01*
Y0342D01*
X047689Y0341D01*
X046639Y0379D02*
X046539Y038D01*
X046339D01*
X046239Y0379D01*
Y0378D01*
X046339Y0377D01*
X046539D01*
X046639Y0376D01*
Y0375D01*
X046539Y0374D01*
X046339D01*
X046239Y0375D01*
X046839Y038D02*
Y0374D01*
X047039Y0376D01*
X047239Y0374D01*
Y038D01*
X047439Y0375D02*
X047539Y0374D01*
X047739D01*
X047839Y0375D01*
Y0379D01*
X047739Y038D01*
X047539D01*
X047439Y0379D01*
Y0378D01*
X047539Y0377D01*
X047839D01*
X031889Y0115D02*
X031789Y0116D01*
X031589D01*
X031489Y0115D01*
Y0114D01*
X031589Y0113D01*
X031789D01*
X031889Y0112D01*
Y0111D01*
X031789Y011D01*
X031589D01*
X031489Y0111D01*
X032089Y0116D02*
Y011D01*
X032289Y0112D01*
X032489Y011D01*
Y0116D01*
X032689Y0115D02*
X032789Y0116D01*
X032989D01*
X033089Y0115D01*
Y0114D01*
X032989Y0113D01*
X033089Y0112D01*
Y0111D01*
X032989Y011D01*
X032789D01*
X032689Y0111D01*
Y0112D01*
X032789Y0113D01*
X032689Y0114D01*
Y0115D01*
X032789Y0113D02*
X032989D01*
X020239Y0224D02*
X020139Y0225D01*
X019939D01*
X019839Y0224D01*
Y0223D01*
X019939Y0222D01*
X020139D01*
X020239Y0221D01*
Y022D01*
X020139Y0219D01*
X019939D01*
X019839Y022D01*
X020439Y0225D02*
Y0219D01*
X020639Y0221D01*
X020839Y0219D01*
Y0225D01*
X021039D02*
X021439D01*
Y0224D01*
X021039Y022D01*
Y0219D01*
X022489Y01165D02*
X022389Y01175D01*
X022189D01*
X022089Y01165D01*
Y01155D01*
X022189Y01145D01*
X022389D01*
X022489Y01135D01*
Y01125D01*
X022389Y01115D01*
X022189D01*
X022089Y01125D01*
X022689Y01175D02*
Y01115D01*
X022889Y01135D01*
X023089Y01115D01*
Y01175D01*
X023689D02*
X023489Y01165D01*
X023289Y01145D01*
Y01125D01*
X023389Y01115D01*
X023589D01*
X023689Y01125D01*
Y01135D01*
X023589Y01145D01*
X023289D01*
X016389Y02265D02*
X016289Y02275D01*
X016089D01*
X015989Y02265D01*
Y02255D01*
X016089Y02245D01*
X016289D01*
X016389Y02235D01*
Y02225D01*
X016289Y02215D01*
X016089D01*
X015989Y02225D01*
X016589Y02275D02*
Y02215D01*
X016789Y02235D01*
X016989Y02215D01*
Y02275D01*
X017589D02*
X017189D01*
Y02245D01*
X017389Y02255D01*
X017489D01*
X017589Y02245D01*
Y02225D01*
X017489Y02215D01*
X017289D01*
X017189Y02225D01*
X027089Y00845D02*
X026989Y00855D01*
X026789D01*
X026689Y00845D01*
Y00835D01*
X026789Y00825D01*
X026989D01*
X027089Y00815D01*
Y00805D01*
X026989Y00795D01*
X026789D01*
X026689Y00805D01*
X027289Y00855D02*
Y00795D01*
X027489Y00815D01*
X027689Y00795D01*
Y00855D01*
X028189Y00795D02*
Y00855D01*
X027889Y00825D01*
X028289D01*
X033839Y032D02*
X033739Y0321D01*
X033539D01*
X033439Y032D01*
Y0319D01*
X033539Y0318D01*
X033739D01*
X033839Y0317D01*
Y0316D01*
X033739Y0315D01*
X033539D01*
X033439Y0316D01*
X034039Y0321D02*
Y0315D01*
X034239Y0317D01*
X034439Y0315D01*
Y0321D01*
X034639Y032D02*
X034739Y0321D01*
X034939D01*
X035039Y032D01*
Y0319D01*
X034939Y0318D01*
X034839D01*
X034939D01*
X035039Y0317D01*
Y0316D01*
X034939Y0315D01*
X034739D01*
X034639Y0316D01*
X027039Y01435D02*
X026939Y01445D01*
X026739D01*
X026639Y01435D01*
Y01425D01*
X026739Y01415D01*
X026939D01*
X027039Y01405D01*
Y01395D01*
X026939Y01385D01*
X026739D01*
X026639Y01395D01*
X027239Y01445D02*
Y01385D01*
X027439Y01405D01*
X027639Y01385D01*
Y01445D01*
X028239Y01385D02*
X027839D01*
X028239Y01425D01*
Y01435D01*
X028139Y01445D01*
X027939D01*
X027839Y01435D01*
X028589Y03755D02*
X028489Y03765D01*
X028289D01*
X028189Y03755D01*
Y03745D01*
X028289Y03735D01*
X028489D01*
X028589Y03725D01*
Y03715D01*
X028489Y03705D01*
X028289D01*
X028189Y03715D01*
X028789Y03765D02*
Y03705D01*
X028989Y03725D01*
X029189Y03705D01*
Y03765D01*
X029389Y03705D02*
X029589D01*
X029489D01*
Y03765D01*
X029389Y03755D01*
X049089Y04345D02*
X048489D01*
Y04375D01*
X048589Y04385D01*
X048789D01*
X048889Y04375D01*
Y04345D01*
Y04365D02*
X049089Y04385D01*
Y04405D02*
Y04425D01*
Y04415D01*
X048489D01*
X048589Y04405D01*
X048489Y04455D02*
Y04495D01*
X048589D01*
X048989Y04455D01*
X049089D01*
X050489Y04355D02*
X049889D01*
Y04385D01*
X049989Y04395D01*
X050189D01*
X050289Y04385D01*
Y04355D01*
Y04375D02*
X050489Y04395D01*
Y04415D02*
Y04435D01*
Y04425D01*
X049889D01*
X049989Y04415D01*
X049889Y04505D02*
X049989Y04485D01*
X050189Y04465D01*
X050389D01*
X050489Y04475D01*
Y04495D01*
X050389Y04505D01*
X050289D01*
X050189Y04495D01*
Y04465D01*
X015989Y013D02*
Y0136D01*
X016289D01*
X016389Y0135D01*
Y0133D01*
X016289Y0132D01*
X015989D01*
X016189D02*
X016389Y013D01*
X016589D02*
X016789D01*
X016689D01*
Y0136D01*
X016589Y0135D01*
X017089D02*
X017189Y0136D01*
X017389D01*
X017489Y0135D01*
Y0134D01*
X017389Y0133D01*
X017289D01*
X017389D01*
X017489Y0132D01*
Y0131D01*
X017389Y013D01*
X017189D01*
X017089Y0131D01*
X046939Y02785D02*
Y02845D01*
X047239D01*
X047339Y02835D01*
Y02815D01*
X047239Y02805D01*
X046939D01*
X047139D02*
X047339Y02785D01*
X047539D02*
X047739D01*
X047639D01*
Y02845D01*
X047539Y02835D01*
X048439Y02785D02*
X048039D01*
X048439Y02825D01*
Y02835D01*
X048339Y02845D01*
X048139D01*
X048039Y02835D01*
X045639Y0389D02*
Y0395D01*
X045939D01*
X046039Y0394D01*
Y0392D01*
X045939Y0391D01*
X045639D01*
X045839D02*
X046039Y0389D01*
X046239D02*
X046439D01*
X046339D01*
Y0395D01*
X046239Y0394D01*
X046739D02*
X046839Y0395D01*
X047039D01*
X047139Y0394D01*
Y039D01*
X047039Y0389D01*
X046839D01*
X046739Y039D01*
Y0394D01*
X020889Y0159D02*
Y0165D01*
X021189D01*
X021289Y0164D01*
Y0162D01*
X021189Y0161D01*
X020889D01*
X021089D02*
X021289Y0159D01*
X021489Y0164D02*
X021589Y0165D01*
X021789D01*
X021889Y0164D01*
Y0163D01*
X021789Y0162D01*
X021889Y0161D01*
Y016D01*
X021789Y0159D01*
X021589D01*
X021489Y016D01*
Y0161D01*
X021589Y0162D01*
X021489Y0163D01*
Y0164D01*
X021589Y0162D02*
X021789D01*
X032489Y004D02*
Y0046D01*
X032789D01*
X032889Y0045D01*
Y0043D01*
X032789Y0042D01*
X032489D01*
X032689D02*
X032889Y004D01*
X033089Y0046D02*
X033489D01*
Y0045D01*
X033089Y0041D01*
Y004D01*
X015739Y0157D02*
Y0163D01*
X016039D01*
X016139Y0162D01*
Y016D01*
X016039Y0159D01*
X015739D01*
X015939D02*
X016139Y0157D01*
X016739Y0163D02*
X016539Y0162D01*
X016339Y016D01*
Y0158D01*
X016439Y0157D01*
X016639D01*
X016739Y0158D01*
Y0159D01*
X016639Y016D01*
X016339D01*
X021689Y0058D02*
Y0064D01*
X021989D01*
X022089Y0063D01*
Y0061D01*
X021989Y006D01*
X021689D01*
X021889D02*
X022089Y0058D01*
X022689Y0064D02*
X022289D01*
Y0061D01*
X022489Y0062D01*
X022589D01*
X022689Y0061D01*
Y0059D01*
X022589Y0058D01*
X022389D01*
X022289Y0059D01*
X033589Y02775D02*
Y02835D01*
X033889D01*
X033989Y02825D01*
Y02805D01*
X033889Y02795D01*
X033589D01*
X033789D02*
X033989Y02775D01*
X034489D02*
Y02835D01*
X034189Y02805D01*
X034589D01*
X023589Y00395D02*
Y00455D01*
X023889D01*
X023989Y00445D01*
Y00425D01*
X023889Y00415D01*
X023589D01*
X023789D02*
X023989Y00395D01*
X024189Y00445D02*
X024289Y00455D01*
X024489D01*
X024589Y00445D01*
Y00435D01*
X024489Y00425D01*
X024389D01*
X024489D01*
X024589Y00415D01*
Y00405D01*
X024489Y00395D01*
X024289D01*
X024189Y00405D01*
X033839Y0327D02*
Y0333D01*
X034139D01*
X034239Y0332D01*
Y033D01*
X034139Y0329D01*
X033839D01*
X034039D02*
X034239Y0327D01*
X034839D02*
X034439D01*
X034839Y0331D01*
Y0332D01*
X034739Y0333D01*
X034539D01*
X034439Y0332D01*
X02465Y01582D02*
Y01642D01*
X02495D01*
X02505Y01632D01*
Y01612D01*
X02495Y01602D01*
X02465D01*
X02485D02*
X02505Y01582D01*
X02525D02*
X02545D01*
X02535D01*
Y01642D01*
X02525Y01632D01*
X036089Y04965D02*
Y05025D01*
X036489Y04965D01*
Y05025D01*
X036689Y04965D02*
X036889D01*
X036789D01*
Y05025D01*
X036689Y05015D01*
X021989Y04465D02*
Y04405D01*
X022389D01*
X022589D02*
Y04465D01*
X022789Y04445D01*
X022989Y04465D01*
Y04405D01*
X023589D02*
X023189D01*
X023589Y04445D01*
Y04455D01*
X023489Y04465D01*
X023289D01*
X023189Y04455D01*
X060839Y0449D02*
Y0443D01*
X061239D01*
X061439D02*
Y0449D01*
X061639Y0447D01*
X061839Y0449D01*
Y0443D01*
X062039D02*
X062239D01*
X062139D01*
Y0449D01*
X062039Y0448D01*
X017839Y0491D02*
Y0485D01*
X018239D01*
X018839D02*
X018439D01*
X018839Y0489D01*
Y049D01*
X018739Y0491D01*
X018539D01*
X018439Y049D01*
X057389Y05D02*
Y0494D01*
X057789D01*
X057989D02*
X058189D01*
X058089D01*
Y05D01*
X057989Y0499D01*
X044189Y043D02*
X043989D01*
X044089D01*
Y0425D01*
X043989Y0424D01*
X043889D01*
X043789Y0425D01*
X044389Y0429D02*
X044489Y043D01*
X044689D01*
X044789Y0429D01*
Y0428D01*
X044689Y0427D01*
X044789Y0426D01*
Y0425D01*
X044689Y0424D01*
X044489D01*
X044389Y0425D01*
Y0426D01*
X044489Y0427D01*
X044389Y0428D01*
Y0429D01*
X044489Y0427D02*
X044689D01*
X044139Y0408D02*
X043939D01*
X044039D01*
Y0403D01*
X043939Y0402D01*
X043839D01*
X043739Y0403D01*
X044339Y0408D02*
X044739D01*
Y0407D01*
X044339Y0403D01*
Y0402D01*
X049589Y0244D02*
X049389D01*
X049489D01*
Y0239D01*
X049389Y0238D01*
X049289D01*
X049189Y0239D01*
X050189Y0244D02*
X049989Y0243D01*
X049789Y0241D01*
Y0239D01*
X049889Y0238D01*
X050089D01*
X050189Y0239D01*
Y024D01*
X050089Y0241D01*
X049789D01*
X02856Y02743D02*
X02836D01*
X02846D01*
Y02693D01*
X02836Y02683D01*
X02826D01*
X02816Y02693D01*
X02906Y02683D02*
Y02743D01*
X02876Y02713D01*
X02916D01*
X02861Y03058D02*
X02841D01*
X02851D01*
Y03008D01*
X02841Y02998D01*
X02831D01*
X02821Y03008D01*
X02881Y03048D02*
X02891Y03058D01*
X02911D01*
X02921Y03048D01*
Y03038D01*
X02911Y03028D01*
X02901D01*
X02911D01*
X02921Y03018D01*
Y03008D01*
X02911Y02998D01*
X02891D01*
X02881Y03008D01*
X03155Y02331D02*
X03135D01*
X03145D01*
Y02281D01*
X03135Y02271D01*
X03125D01*
X03115Y02281D01*
X03215Y02271D02*
X03175D01*
X03215Y02311D01*
Y02321D01*
X03205Y02331D01*
X03185D01*
X03175Y02321D01*
X03455Y03974D02*
X03435D01*
X03445D01*
Y03924D01*
X03435Y03914D01*
X03425D01*
X03415Y03924D01*
X03475Y03914D02*
X03495D01*
X03485D01*
Y03974D01*
X03475Y03964D01*
X02913Y04694D02*
X02933D01*
X02923D01*
Y04634D01*
X02913D01*
X02933D01*
X03003Y04684D02*
X02993Y04694D01*
X02973D01*
X02963Y04684D01*
Y04644D01*
X02973Y04634D01*
X02993D01*
X03003Y04644D01*
X03063Y04634D02*
X03023D01*
X03063Y04674D01*
Y04684D01*
X03053Y04694D01*
X03033D01*
X03023Y04684D01*
X0383Y01296D02*
X0385D01*
X0384D01*
Y01236D01*
X0383D01*
X0385D01*
X0392Y01286D02*
X0391Y01296D01*
X0389D01*
X0388Y01286D01*
Y01246D01*
X0389Y01236D01*
X0391D01*
X0392Y01246D01*
X0394Y01236D02*
X0396D01*
X0395D01*
Y01296D01*
X0394Y01286D01*
X019689Y05275D02*
Y05215D01*
X019989D01*
X020089Y05225D01*
Y05265D01*
X019989Y05275D01*
X019689D01*
X020689Y05215D02*
X020289D01*
X020689Y05255D01*
Y05265D01*
X020589Y05275D01*
X020389D01*
X020289Y05265D01*
X059889Y05295D02*
Y05235D01*
X060189D01*
X060289Y05245D01*
Y05285D01*
X060189Y05295D01*
X059889D01*
X060489Y05235D02*
X060689D01*
X060589D01*
Y05295D01*
X060489Y05285D01*
X015339Y04475D02*
X015239Y04485D01*
X015039D01*
X014939Y04475D01*
Y04435D01*
X015039Y04425D01*
X015239D01*
X015339Y04435D01*
X015939Y04425D02*
X015539D01*
X015939Y04465D01*
Y04475D01*
X015839Y04485D01*
X015639D01*
X015539Y04475D01*
X016139D02*
X016239Y04485D01*
X016439D01*
X016539Y04475D01*
Y04435D01*
X016439Y04425D01*
X016239D01*
X016139Y04435D01*
Y04475D01*
X025739Y0498D02*
X025639Y0499D01*
X025439D01*
X025339Y0498D01*
Y0494D01*
X025439Y0493D01*
X025639D01*
X025739Y0494D01*
X025939Y0493D02*
X026139D01*
X026039D01*
Y0499D01*
X025939Y0498D01*
X026439Y0494D02*
X026539Y0493D01*
X026739D01*
X026839Y0494D01*
Y0498D01*
X026739Y0499D01*
X026539D01*
X026439Y0498D01*
Y0497D01*
X026539Y0496D01*
X026839D01*
X054389Y0498D02*
X054289Y0499D01*
X054089D01*
X053989Y0498D01*
Y0494D01*
X054089Y0493D01*
X054289D01*
X054389Y0494D01*
X054589Y0493D02*
X054789D01*
X054689D01*
Y0499D01*
X054589Y0498D01*
X055089D02*
X055189Y0499D01*
X055389D01*
X055489Y0498D01*
Y0497D01*
X055389Y0496D01*
X055489Y0495D01*
Y0494D01*
X055389Y0493D01*
X055189D01*
X055089Y0494D01*
Y0495D01*
X055189Y0496D01*
X055089Y0497D01*
Y0498D01*
X055189Y0496D02*
X055389D01*
X064589Y05025D02*
X064489Y05035D01*
X064289D01*
X064189Y05025D01*
Y04985D01*
X064289Y04975D01*
X064489D01*
X064589Y04985D01*
X064789Y04975D02*
X064989D01*
X064889D01*
Y05035D01*
X064789Y05025D01*
X065289Y05035D02*
X065689D01*
Y05025D01*
X065289Y04985D01*
Y04975D01*
X009689Y01145D02*
X009589Y01155D01*
X009389D01*
X009289Y01145D01*
Y01105D01*
X009389Y01095D01*
X009589D01*
X009689Y01105D01*
X009889Y01095D02*
X010089D01*
X009989D01*
Y01155D01*
X009889Y01145D01*
X010789Y01155D02*
X010389D01*
Y01125D01*
X010589Y01135D01*
X010689D01*
X010789Y01125D01*
Y01105D01*
X010689Y01095D01*
X010489D01*
X010389Y01105D01*
X049439Y03415D02*
X049339Y03425D01*
X049139D01*
X049039Y03415D01*
Y03375D01*
X049139Y03365D01*
X049339D01*
X049439Y03375D01*
X049639Y03365D02*
X049839D01*
X049739D01*
Y03425D01*
X049639Y03415D01*
X050539Y03365D02*
X050139D01*
X050539Y03405D01*
Y03415D01*
X050439Y03425D01*
X050239D01*
X050139Y03415D01*
X049539Y0379D02*
X049439Y038D01*
X049239D01*
X049139Y0379D01*
Y0375D01*
X049239Y0374D01*
X049439D01*
X049539Y0375D01*
X049739Y0374D02*
X049939D01*
X049839D01*
Y038D01*
X049739Y0379D01*
X050239D02*
X050339Y038D01*
X050539D01*
X050639Y0379D01*
Y0375D01*
X050539Y0374D01*
X050339D01*
X050239Y0375D01*
Y0379D01*
X035989Y00935D02*
X035889Y00945D01*
X035689D01*
X035589Y00935D01*
Y00895D01*
X035689Y00885D01*
X035889D01*
X035989Y00895D01*
X036189D02*
X036289Y00885D01*
X036489D01*
X036589Y00895D01*
Y00935D01*
X036489Y00945D01*
X036289D01*
X036189Y00935D01*
Y00925D01*
X036289Y00915D01*
X036589D01*
X023239Y02245D02*
X023139Y02255D01*
X022939D01*
X022839Y02245D01*
Y02205D01*
X022939Y02195D01*
X023139D01*
X023239Y02205D01*
X023439Y02245D02*
X023539Y02255D01*
X023739D01*
X023839Y02245D01*
Y02235D01*
X023739Y02225D01*
X023839Y02215D01*
Y02205D01*
X023739Y02195D01*
X023539D01*
X023439Y02205D01*
Y02215D01*
X023539Y02225D01*
X023439Y02235D01*
Y02245D01*
X023539Y02225D02*
X023739D01*
X019039Y00945D02*
X018939Y00955D01*
X018739D01*
X018639Y00945D01*
Y00905D01*
X018739Y00895D01*
X018939D01*
X019039Y00905D01*
X019239Y00955D02*
X019639D01*
Y00945D01*
X019239Y00905D01*
Y00895D01*
X014239Y02225D02*
X014139Y02235D01*
X013939D01*
X013839Y02225D01*
Y02185D01*
X013939Y02175D01*
X014139D01*
X014239Y02185D01*
X014839Y02235D02*
X014639Y02225D01*
X014439Y02205D01*
Y02185D01*
X014539Y02175D01*
X014739D01*
X014839Y02185D01*
Y02195D01*
X014739Y02205D01*
X014439D01*
X023789Y0062D02*
X023689Y0063D01*
X023489D01*
X023389Y0062D01*
Y0058D01*
X023489Y0057D01*
X023689D01*
X023789Y0058D01*
X024389Y0063D02*
X023989D01*
Y006D01*
X024189Y0061D01*
X024289D01*
X024389Y006D01*
Y0058D01*
X024289Y0057D01*
X024089D01*
X023989Y0058D01*
X028689Y0336D02*
X028589Y0337D01*
X028389D01*
X028289Y0336D01*
Y0332D01*
X028389Y0331D01*
X028589D01*
X028689Y0332D01*
X029189Y0331D02*
Y0337D01*
X028889Y0334D01*
X029289D01*
X02986Y01425D02*
X02976Y01435D01*
X02956D01*
X02946Y01425D01*
Y01385D01*
X02956Y01375D01*
X02976D01*
X02986Y01385D01*
X03006Y01425D02*
X03016Y01435D01*
X03036D01*
X03046Y01425D01*
Y01415D01*
X03036Y01405D01*
X03026D01*
X03036D01*
X03046Y01395D01*
Y01385D01*
X03036Y01375D01*
X03016D01*
X03006Y01385D01*
X026439Y0358D02*
X026339Y0359D01*
X026139D01*
X026039Y0358D01*
Y0354D01*
X026139Y0353D01*
X026339D01*
X026439Y0354D01*
X027039Y0353D02*
X026639D01*
X027039Y0357D01*
Y0358D01*
X026939Y0359D01*
X026739D01*
X026639Y0358D01*
X034089Y04865D02*
X033989Y04875D01*
X033789D01*
X033689Y04865D01*
Y04825D01*
X033789Y04815D01*
X033989D01*
X034089Y04825D01*
X034289Y04815D02*
X034489D01*
X034389D01*
Y04875D01*
X034289Y04865D01*
X0683Y04912D02*
X0687Y04872D01*
X0683D02*
X0687Y04912D01*
X0683Y04892D02*
X0687D01*
X0685Y04872D02*
Y04912D01*
X0693Y04862D02*
X0689D01*
X0693Y04902D01*
Y04912D01*
X0692Y04922D01*
X069D01*
X0689Y04912D01*
X06825Y05253D02*
X06865Y05213D01*
X06825D02*
X06865Y05253D01*
X06825Y05233D02*
X06865D01*
X06845Y05213D02*
Y05253D01*
X06885Y05203D02*
X06905D01*
X06895D01*
Y05263D01*
X06885Y05253D01*
D12*
X038235Y0095D02*
G03*
X038239Y0105I000017J0005D01*
G01*
X064339Y013004D02*
G03*
X065339Y013I0005J-000017D01*
G01*
X031589Y037996D02*
G03*
X030589Y038I-0005J000017D01*
G01*
X061599Y0499D02*
Y05189D01*
X058969Y0499D02*
X062109D01*
X058969D02*
Y0519D01*
X062109D01*
Y0499D02*
Y0519D01*
X058589Y0509D02*
X058969D01*
X062109D02*
X062489D01*
X062109Y05044D02*
Y0509D01*
Y05134D01*
X048424Y030751D02*
X048434Y030761D01*
X048424Y034688D02*
X048434Y034698D01*
X052361Y00516D02*
X052371Y00517D01*
X052361Y011066D02*
X052371Y011076D01*
X033463Y008113D02*
X033473Y008123D01*
X024015Y008113D02*
X024025Y008123D01*
X032676Y030751D02*
X032686Y030761D01*
X032676Y034688D02*
X032686Y034698D01*
X021249Y04965D02*
Y05164D01*
X018619Y04965D02*
X021759D01*
X018619D02*
Y05165D01*
X021759D01*
Y04965D02*
Y05165D01*
X018239Y05065D02*
X018619D01*
X021759D02*
X022139D01*
X021759Y05019D02*
Y05065D01*
Y05109D01*
X068419Y00499D02*
X069589D01*
Y01307D01*
X068419D02*
X069589D01*
X068419Y00499D02*
Y01307D01*
X068429Y00606D02*
X069589D01*
X038239Y01199D02*
X038249Y012D01*
X046239D01*
Y008D02*
Y012D01*
X038239Y008D02*
X046239D01*
X038239Y01051D02*
Y012D01*
Y008D02*
Y0095D01*
X039239D02*
Y0105D01*
Y0095D02*
X045239D01*
Y0105D01*
X039239D02*
X045239D01*
X065339Y006D02*
Y012D01*
X064339Y006D02*
X065339D01*
X064339D02*
Y012D01*
X065339D01*
X062839Y013D02*
X064339D01*
X065349D02*
X066839D01*
X062839Y005D02*
Y013D01*
Y005D02*
X066839D01*
Y01299D01*
X066829Y013D02*
X066839Y01299D01*
X063188Y01894D02*
X063198Y01895D01*
X059251Y01894D02*
X059261Y01895D01*
X031089Y0221D02*
X035089D01*
Y0211D02*
Y0221D01*
X031089Y0211D02*
X035089D01*
X031089D02*
Y0221D01*
X034139Y02111D02*
Y0221D01*
X035089Y03481D02*
Y03881D01*
X034089Y03481D02*
X035089D01*
X034089D02*
Y03881D01*
X035089D01*
X034099Y03576D02*
X035089D01*
X028739Y011066D02*
X028749Y011076D01*
X028739Y00516D02*
X028749Y00517D01*
X013945Y014125D02*
X013955Y014115D01*
X021849Y01894D02*
X021859Y01895D01*
X017912Y01894D02*
X017922Y01895D01*
X030589Y039D02*
Y045D01*
X031589D01*
Y039D02*
Y045D01*
X030589Y039D02*
X031589D01*
Y038D02*
X033089D01*
X029089D02*
X030579D01*
X033089D02*
Y046D01*
X029089D02*
X033089D01*
X029089Y03801D02*
Y046D01*
Y03801D02*
X029099Y038D01*
D13*
X038829Y00927D02*
G03*
X038829Y00927I-00008J0D01*
G01*
X064189Y01249D02*
G03*
X064189Y01249I-00008J0D01*
G01*
X031899Y03851D02*
G03*
X031899Y03851I-00008J0D01*
G01*
D14*
X040676Y022467D02*
X040716D01*
X040656Y022457D02*
X040736D01*
X040646Y022447D02*
X040736D01*
X040626Y022437D02*
X040766D01*
X040606Y022427D02*
X040786D01*
X040596Y022417D02*
X040796D01*
X040566Y022407D02*
X040826D01*
X040556Y022397D02*
X040836D01*
X040536Y022387D02*
X040846D01*
X040516Y022377D02*
X040876D01*
X040506Y022367D02*
X040886D01*
X040486Y022357D02*
X040896D01*
X040466Y022347D02*
X040926D01*
X040446Y022337D02*
X040936D01*
X040436Y022327D02*
X040946D01*
X040416Y022317D02*
X040976D01*
X040396Y022307D02*
X040986D01*
X040366Y022297D02*
X041016D01*
X040366Y022287D02*
X041026D01*
X040346Y022277D02*
X041046D01*
X040316Y022267D02*
X041066D01*
X040306Y022257D02*
X041076D01*
X040296Y022247D02*
X041096D01*
X040266Y022237D02*
X041116D01*
X040256Y022227D02*
X041136D01*
X040246Y022217D02*
X041146D01*
X040216Y022207D02*
X041166D01*
X040206Y022197D02*
X041186D01*
X040186Y022187D02*
X041196D01*
X040156Y022177D02*
X041226D01*
X040156Y022167D02*
X041236D01*
X040136Y022157D02*
X041256D01*
X040116Y022147D02*
X041276D01*
X040106Y022137D02*
X041286D01*
X040086Y022127D02*
X041306D01*
X040066Y022117D02*
X041326D01*
X040046Y022107D02*
X041336D01*
X040036Y022097D02*
X041346D01*
X040016Y022087D02*
X041376D01*
X039996Y022077D02*
X041396D01*
X039986Y022067D02*
X041396D01*
X039956Y022057D02*
X041426D01*
X039946Y022047D02*
X041446D01*
X039926Y022037D02*
X041466D01*
X039906Y022027D02*
X041486D01*
X039896Y022017D02*
X041486D01*
X039876Y022007D02*
X041516D01*
X039856Y021997D02*
X041536D01*
X039846Y021987D02*
X041546D01*
X039816Y021977D02*
X041576D01*
X039806Y021967D02*
X041586D01*
X039786Y021957D02*
X041596D01*
X039766Y021947D02*
X041626D01*
X039756Y021937D02*
X041626D01*
X039736Y021927D02*
X041646D01*
X039716Y021917D02*
X041676D01*
X039696Y021907D02*
X041686D01*
X039686Y021897D02*
X041696D01*
X039666Y021887D02*
X041726D01*
X039646Y021877D02*
X041736D01*
X039646Y021867D02*
X041746D01*
X039616Y021857D02*
X041776D01*
X039596Y021847D02*
X041786D01*
X039586Y021837D02*
X041806D01*
X039556Y021827D02*
X041826D01*
X039556Y021817D02*
X041836D01*
X039526Y021807D02*
X041866D01*
X039506Y021797D02*
X041876D01*
X039496Y021787D02*
X041886D01*
X039466Y021777D02*
X041916D01*
X039456Y021767D02*
X041926D01*
X039446Y021757D02*
X041946D01*
X039416Y021747D02*
X041966D01*
X039406Y021737D02*
X041976D01*
X039396Y021727D02*
X041996D01*
X039366Y021717D02*
X042016D01*
X039356Y021707D02*
X042036D01*
X039346Y021697D02*
X042046D01*
X039316Y021687D02*
X042066D01*
X039306Y021677D02*
X042086D01*
X039296Y021667D02*
X042096D01*
X039266Y021657D02*
X042116D01*
X039256Y021647D02*
X042136D01*
X039236Y021637D02*
X042146D01*
X039216Y021627D02*
X042176D01*
X039206Y021617D02*
X042186D01*
X039186Y021607D02*
X042206D01*
X039166Y021597D02*
X042226D01*
X039146Y021587D02*
X042236D01*
X039136Y021577D02*
X042246D01*
X039116Y021567D02*
X042276D01*
X039096Y021557D02*
X042296D01*
X039066Y021547D02*
X042316D01*
X039066Y021537D02*
X042326D01*
X039046Y021527D02*
X042346D01*
X039026Y021517D02*
X042366D01*
X039006Y021507D02*
X042376D01*
X038996Y021497D02*
X042386D01*
X038976Y021487D02*
X042416D01*
X038956Y021477D02*
X042436D01*
X038946Y021467D02*
X042436D01*
X038916Y021457D02*
X042466D01*
X038906Y021447D02*
X042486D01*
X038896Y021437D02*
X042496D01*
X038866Y021427D02*
X042526D01*
X038856Y021417D02*
X042536D01*
X038836Y021407D02*
X042546D01*
X038816Y021397D02*
X042576D01*
X038806Y021387D02*
X042576D01*
X038786Y021377D02*
X042596D01*
X038766Y021367D02*
X042626D01*
X038746Y021357D02*
X042636D01*
X038746Y021347D02*
X042646D01*
X038716Y021337D02*
X042676D01*
X038696Y021327D02*
X042686D01*
X038686Y021317D02*
X042696D01*
X038656Y021307D02*
X042726D01*
X038646Y021297D02*
X042736D01*
X038626Y021287D02*
X042766D01*
X038606Y021277D02*
X042776D01*
X038596Y021267D02*
X042786D01*
X038576Y021257D02*
X042816D01*
X038556Y021247D02*
X042826D01*
X038546Y021237D02*
X042836D01*
X038516Y021227D02*
X042866D01*
X038506Y021217D02*
X042876D01*
X038486Y021207D02*
X042896D01*
X038466Y021197D02*
X042916D01*
X038456Y021187D02*
X042926D01*
X038456Y021177D02*
X042926D01*
X038456Y021167D02*
X042926D01*
X038456Y021157D02*
X042926D01*
X038456Y021147D02*
X042926D01*
X038456Y021137D02*
X042926D01*
X038456Y021127D02*
X042926D01*
X038456Y021117D02*
X042926D01*
X038456Y021107D02*
X042926D01*
X038456Y021097D02*
X042926D01*
X038456Y021087D02*
X042926D01*
X038456Y021077D02*
X042926D01*
X038456Y021067D02*
X042926D01*
X038456Y021057D02*
X042926D01*
X038456Y021047D02*
X042926D01*
X038456Y021037D02*
X042926D01*
X038456Y021027D02*
X042926D01*
X038456Y021017D02*
X042926D01*
X038456Y021007D02*
X042926D01*
X038456Y020997D02*
X042926D01*
X038456Y020987D02*
X042926D01*
X038456Y020977D02*
X042926D01*
X038456Y020967D02*
X042926D01*
X038456Y020957D02*
X042926D01*
X038456Y020947D02*
X042926D01*
X038456Y020937D02*
X042926D01*
X038456Y020927D02*
X042926D01*
X038456Y020917D02*
X042926D01*
X038456Y020907D02*
X042926D01*
X038456Y020897D02*
X042926D01*
X038456Y020887D02*
X042926D01*
X038456Y020877D02*
X042926D01*
X038456Y020867D02*
X042926D01*
X038456Y020857D02*
X042926D01*
X038456Y020847D02*
X042926D01*
X038456Y020837D02*
X042926D01*
X038456Y020827D02*
X042926D01*
X038456Y020817D02*
X042926D01*
X038456Y020807D02*
X042926D01*
X038456Y020797D02*
X042926D01*
X038456Y020787D02*
X042926D01*
X038456Y020777D02*
X042926D01*
X038456Y020767D02*
X042926D01*
X038456Y020757D02*
X042926D01*
X038456Y020747D02*
X042926D01*
X038456Y020737D02*
X042926D01*
X038456Y020727D02*
X042926D01*
X038456Y020717D02*
X042926D01*
X038456Y020707D02*
X042926D01*
X038456Y020697D02*
X042926D01*
X038456Y020687D02*
X042926D01*
X038456Y020677D02*
X042926D01*
X038456Y020667D02*
X042926D01*
X038456Y020657D02*
X042926D01*
X038456Y020647D02*
X042926D01*
X038456Y020637D02*
X042926D01*
X038456Y020627D02*
X042926D01*
X038456Y020617D02*
X042926D01*
X038456Y020607D02*
X042926D01*
X038456Y020597D02*
X042926D01*
X038456Y020587D02*
X042926D01*
X038456Y020577D02*
X042926D01*
X038456Y020567D02*
X042926D01*
X038456Y020557D02*
X042926D01*
X038456Y020547D02*
X042926D01*
X038456Y020537D02*
X042926D01*
X038456Y020527D02*
X042926D01*
X038456Y020517D02*
X042926D01*
X038456Y020507D02*
X042926D01*
X038456Y020497D02*
X042926D01*
X038456Y020487D02*
X042926D01*
X038456Y020477D02*
X042926D01*
X038456Y020467D02*
X042926D01*
X038456Y020457D02*
X042926D01*
X038456Y020447D02*
X042926D01*
X038456Y020437D02*
X042926D01*
X038456Y020427D02*
X042926D01*
X038456Y020417D02*
X042926D01*
X038456Y020407D02*
X042926D01*
X038456Y020397D02*
X042926D01*
X038456Y020387D02*
X042926D01*
X038456Y020377D02*
X042926D01*
X038456Y020367D02*
X042926D01*
X038456Y020357D02*
X042926D01*
X038456Y020347D02*
X042926D01*
X038456Y020337D02*
X042926D01*
X038456Y020327D02*
X042926D01*
X038456Y020317D02*
X042926D01*
X038456Y020307D02*
X042926D01*
X038456Y020297D02*
X042926D01*
X038456Y020287D02*
X042926D01*
X038456Y020277D02*
X042926D01*
X038456Y020267D02*
X042926D01*
X038456Y020257D02*
X042926D01*
X038456Y020247D02*
X042926D01*
X038456Y020237D02*
X042926D01*
X038456Y020227D02*
X042926D01*
X038456Y020217D02*
X042926D01*
X038456Y020207D02*
X042926D01*
X038456Y020197D02*
X042926D01*
X038456Y020187D02*
X042926D01*
X038456Y020177D02*
X042926D01*
X038456Y020167D02*
X042926D01*
X038456Y020157D02*
X042926D01*
X038456Y020147D02*
X042926D01*
X038456Y020137D02*
X042926D01*
X038456Y020127D02*
X042926D01*
X038456Y020117D02*
X042926D01*
X038456Y020107D02*
X042926D01*
X038456Y020097D02*
X042926D01*
X038456Y020087D02*
X042926D01*
X038456Y020077D02*
X042926D01*
X038456Y020067D02*
X042926D01*
X038456Y020057D02*
X042926D01*
X038456Y020047D02*
X042926D01*
X038456Y020037D02*
X042926D01*
X038456Y020027D02*
X042926D01*
X038456Y020017D02*
X042926D01*
X038456Y020007D02*
X042926D01*
X038456Y019997D02*
X042926D01*
X038456Y019987D02*
X042926D01*
X038456Y019977D02*
X042926D01*
X038456Y019967D02*
X042926D01*
X038456Y019957D02*
X042926D01*
X038456Y019947D02*
X042926D01*
X038456Y019937D02*
X042926D01*
X038456Y019927D02*
X042926D01*
X038456Y019917D02*
X042926D01*
X038456Y019907D02*
X042926D01*
X038456Y019897D02*
X042926D01*
X038456Y019887D02*
X042926D01*
X038456Y019877D02*
X040676D01*
X040716D02*
X042926D01*
X038456Y019867D02*
X040656D01*
X040726D02*
X042926D01*
X038456Y019857D02*
X040646D01*
X040736D02*
X042926D01*
X038456Y019847D02*
X040616D01*
X040766D02*
X042926D01*
X038456Y019837D02*
X040606D01*
X040776D02*
X042926D01*
X038456Y019827D02*
X040586D01*
X040796D02*
X042926D01*
X038456Y019817D02*
X040566D01*
X040816D02*
X042926D01*
X038456Y019807D02*
X040556D01*
X040826D02*
X042926D01*
X038456Y019797D02*
X040536D01*
X040846D02*
X042926D01*
X038456Y019787D02*
X040516D01*
X040866D02*
X042926D01*
X038456Y019777D02*
X040506D01*
X040886D02*
X042926D01*
X038456Y019767D02*
X040486D01*
X040896D02*
X042926D01*
X038456Y019757D02*
X040466D01*
X040916D02*
X042926D01*
X038456Y019747D02*
X040446D01*
X040936D02*
X042926D01*
X038456Y019737D02*
X040436D01*
X040946D02*
X042926D01*
X038456Y019727D02*
X040416D01*
X040966D02*
X042926D01*
X038456Y019717D02*
X040396D01*
X040986D02*
X042926D01*
X038456Y019707D02*
X040386D01*
X040996D02*
X042926D01*
X038456Y019697D02*
X040356D01*
X041026D02*
X042926D01*
X038456Y019687D02*
X040346D01*
X041036D02*
X042926D01*
X038456Y019677D02*
X040336D01*
X041046D02*
X042926D01*
X038456Y019667D02*
X040306D01*
X041076D02*
X042926D01*
X038456Y019657D02*
X040296D01*
X041086D02*
X042926D01*
X038456Y019647D02*
X040286D01*
X041096D02*
X042926D01*
X038456Y019637D02*
X040256D01*
X041126D02*
X042926D01*
X038456Y019627D02*
X040246D01*
X041136D02*
X042926D01*
X038456Y019617D02*
X040216D01*
X041166D02*
X042926D01*
X038456Y019607D02*
X040206D01*
X041176D02*
X042926D01*
X038456Y019597D02*
X040196D01*
X041186D02*
X042926D01*
X038456Y019587D02*
X040166D01*
X041216D02*
X042926D01*
X038456Y019577D02*
X040156D01*
X041226D02*
X042926D01*
X038456Y019567D02*
X040146D01*
X041236D02*
X042926D01*
X038456Y019557D02*
X040116D01*
X041266D02*
X042926D01*
X038456Y019547D02*
X040106D01*
X041286D02*
X042926D01*
X038456Y019537D02*
X040096D01*
X041286D02*
X042926D01*
X038456Y019527D02*
X040066D01*
X041316D02*
X042926D01*
X038456Y019517D02*
X040056D01*
X041326D02*
X042926D01*
X038456Y019507D02*
X040046D01*
X041346D02*
X042926D01*
X038456Y019497D02*
X040016D01*
X041376D02*
X042926D01*
X038456Y019487D02*
X040006D01*
X041376D02*
X042926D01*
X038456Y019477D02*
X039986D01*
X041396D02*
X042926D01*
X038456Y019467D02*
X039956D01*
X041426D02*
X042926D01*
X038456Y019457D02*
X039956D01*
X041426D02*
X042926D01*
X038456Y019447D02*
X039936D01*
X041446D02*
X042926D01*
X038456Y019437D02*
X039916D01*
X041466D02*
X042926D01*
X038456Y019427D02*
X039896D01*
X041486D02*
X042926D01*
X038456Y019417D02*
X039886D01*
X041496D02*
X042926D01*
X038456Y019407D02*
X039866D01*
X041516D02*
X042926D01*
X038456Y019397D02*
X039846D01*
X041536D02*
X042926D01*
X038456Y019387D02*
X039836D01*
X041546D02*
X042926D01*
X038456Y019377D02*
X039816D01*
X041576D02*
X042926D01*
X038456Y019367D02*
X039796D01*
X041586D02*
X042926D01*
X038456Y019357D02*
X039766D01*
X041606D02*
X042926D01*
X038456Y019347D02*
X039756D01*
X041626D02*
X042926D01*
X038456Y019337D02*
X039746D01*
X041636D02*
X042926D01*
X038456Y019327D02*
X039716D01*
X041656D02*
X042926D01*
X038456Y019317D02*
X039706D01*
X041676D02*
X042926D01*
X038456Y019307D02*
X039696D01*
X041686D02*
X042926D01*
X038456Y019297D02*
X039666D01*
X041716D02*
X042926D01*
X038456Y019287D02*
X039656D01*
X041726D02*
X042926D01*
X038456Y019277D02*
X039636D01*
X041746D02*
X042926D01*
X038456Y019267D02*
X039616D01*
X041766D02*
X042926D01*
X038456Y019257D02*
X039606D01*
X041776D02*
X042926D01*
X038456Y019247D02*
X039586D01*
X041796D02*
X042926D01*
X038456Y019237D02*
X039566D01*
X041826D02*
X042926D01*
X038456Y019227D02*
X039556D01*
X041836D02*
X042926D01*
X038456Y019217D02*
X039536D01*
X041846D02*
X042926D01*
X038456Y019207D02*
X039516D01*
X041866D02*
X042926D01*
X038456Y019197D02*
X039496D01*
X041886D02*
X042926D01*
X038456Y019187D02*
X039486D01*
X041896D02*
X042926D01*
X038456Y019177D02*
X039466D01*
X041926D02*
X042926D01*
X038456Y019167D02*
X039446D01*
X041936D02*
X042926D01*
X038456Y019157D02*
X039436D01*
X041946D02*
X042926D01*
X038456Y019147D02*
X039406D01*
X041976D02*
X042926D01*
X038456Y019137D02*
X039396D01*
X041986D02*
X042926D01*
X038456Y019127D02*
X039366D01*
X042006D02*
X042926D01*
X038456Y019117D02*
X039356D01*
X042026D02*
X042926D01*
X038456Y019107D02*
X039346D01*
X042036D02*
X042926D01*
X038456Y019097D02*
X039326D01*
X042066D02*
X042926D01*
X038456Y019087D02*
X039306D01*
X042076D02*
X042926D01*
X038456Y019077D02*
X039296D01*
X042096D02*
X042926D01*
X038456Y019067D02*
X039266D01*
X042116D02*
X042926D01*
X038456Y019057D02*
X039256D01*
X042126D02*
X042926D01*
X038456Y019047D02*
X039236D01*
X042146D02*
X042926D01*
X038456Y019037D02*
X039216D01*
X042166D02*
X042926D01*
X038456Y019027D02*
X039206D01*
X042176D02*
X042926D01*
X038456Y019017D02*
X039186D01*
X042196D02*
X042926D01*
X038456Y019007D02*
X039166D01*
X042216D02*
X042926D01*
X038456Y018997D02*
X039146D01*
X042236D02*
X042926D01*
X038456Y018987D02*
X039136D01*
X042246D02*
X042926D01*
X038456Y018977D02*
X039116D01*
X042266D02*
X042926D01*
X038456Y018967D02*
X039096D01*
X042286D02*
X042926D01*
X038456Y018957D02*
X039086D01*
X042296D02*
X042926D01*
X038456Y018947D02*
X039066D01*
X042326D02*
X042926D01*
X038456Y018937D02*
X039046D01*
X042336D02*
X042926D01*
X038456Y018927D02*
X039036D01*
X042346D02*
X042926D01*
X038456Y018917D02*
X039006D01*
X042376D02*
X042926D01*
X038456Y018907D02*
X038996D01*
X042386D02*
X042926D01*
X038456Y018897D02*
X038986D01*
X042396D02*
X042926D01*
X038456Y018887D02*
X038956D01*
X042426D02*
X042926D01*
X038456Y018877D02*
X038946D01*
X042436D02*
X042926D01*
X038456Y018867D02*
X038916D01*
X042466D02*
X042926D01*
X038456Y018857D02*
X038906D01*
X042476D02*
X042926D01*
X038456Y018847D02*
X038896D01*
X042496D02*
X042926D01*
X038456Y018837D02*
X038866D01*
X042516D02*
X042926D01*
X038456Y018827D02*
X038856D01*
X042526D02*
X042926D01*
X038456Y018817D02*
X038846D01*
X042536D02*
X042926D01*
X038456Y018807D02*
X038816D01*
X042566D02*
X042926D01*
X038456Y018797D02*
X038806D01*
X042586D02*
X042926D01*
X038456Y018787D02*
X038796D01*
X042586D02*
X042926D01*
X038456Y018777D02*
X038766D01*
X042616D02*
X042926D01*
X038456Y018767D02*
X038756D01*
X042636D02*
X042926D01*
X038456Y018757D02*
X038746D01*
X042646D02*
X042926D01*
X038456Y018747D02*
X038716D01*
X042666D02*
X042926D01*
X038456Y018737D02*
X038706D01*
X042676D02*
X042926D01*
X038456Y018727D02*
X038686D01*
X042696D02*
X042926D01*
X038456Y018717D02*
X038656D01*
X042726D02*
X042926D01*
X038456Y018707D02*
X038656D01*
X042726D02*
X042926D01*
X038456Y018697D02*
X038636D01*
X042746D02*
X042926D01*
X038456Y018687D02*
X038606D01*
X042776D02*
X042926D01*
X038456Y018677D02*
X038596D01*
X042786D02*
X042926D01*
X038456Y018667D02*
X038586D01*
X042796D02*
X042926D01*
X038456Y018657D02*
X038566D01*
X042826D02*
X042926D01*
X038456Y018647D02*
X038546D01*
X042836D02*
X042926D01*
X038456Y018637D02*
X038536D01*
X042846D02*
X042926D01*
X038456Y018627D02*
X038516D01*
X042876D02*
X042926D01*
X038456Y018617D02*
X038496D01*
X042886D02*
X042936D01*
X038436Y018607D02*
X038486D01*
X042906D02*
X042956D01*
X038416Y018597D02*
X038486D01*
X039176D02*
X040046D01*
X040876D02*
X041206D01*
X041836D02*
X042286D01*
X042906D02*
X042976D01*
X038396Y018587D02*
X038486D01*
X039176D02*
X040096D01*
X040876D02*
X041206D01*
X041836D02*
X042286D01*
X042906D02*
X042986D01*
X038386Y018577D02*
X038486D01*
X039176D02*
X040136D01*
X040866D02*
X041206D01*
X041826D02*
X042266D01*
X042906D02*
X042996D01*
X038366Y018567D02*
X038486D01*
X039176D02*
X040186D01*
X040876D02*
X041206D01*
X041806D02*
X042266D01*
X042906D02*
X043026D01*
X038346Y018557D02*
X038486D01*
X039176D02*
X040206D01*
X040876D02*
X041206D01*
X041806D02*
X042256D01*
X042906D02*
X043046D01*
X038316Y018547D02*
X038486D01*
X039176D02*
X040236D01*
X040876D02*
X041206D01*
X041786D02*
X042236D01*
X042906D02*
X043066D01*
X038316Y018537D02*
X038486D01*
X039176D02*
X040246D01*
X040876D02*
X041206D01*
X041776D02*
X042236D01*
X042906D02*
X043076D01*
X038296Y018527D02*
X038486D01*
X039176D02*
X040256D01*
X040876D02*
X041206D01*
X041776D02*
X042226D01*
X042906D02*
X043086D01*
X038276Y018517D02*
X038486D01*
X039176D02*
X040276D01*
X040876D02*
X041206D01*
X041766D02*
X042216D01*
X042906D02*
X043116D01*
X038256Y018507D02*
X038486D01*
X039176D02*
X040286D01*
X040876D02*
X041206D01*
X041756D02*
X042206D01*
X042906D02*
X043126D01*
X038246Y018497D02*
X038486D01*
X039176D02*
X040306D01*
X040876D02*
X041206D01*
X041746D02*
X042206D01*
X042906D02*
X043136D01*
X038226Y018487D02*
X038486D01*
X039176D02*
X040316D01*
X040876D02*
X041206D01*
X041736D02*
X042186D01*
X042906D02*
X043166D01*
X038206Y018477D02*
X038486D01*
X039176D02*
X040326D01*
X040876D02*
X041206D01*
X041726D02*
X042176D01*
X042906D02*
X043176D01*
X038196Y018467D02*
X038486D01*
X039176D02*
X040326D01*
X040876D02*
X041206D01*
X041716D02*
X042176D01*
X042906D02*
X043186D01*
X038166Y018457D02*
X038486D01*
X039176D02*
X040346D01*
X040876D02*
X041206D01*
X041706D02*
X042156D01*
X042906D02*
X043216D01*
X038156Y018447D02*
X038486D01*
X039176D02*
X040356D01*
X040876D02*
X041206D01*
X041696D02*
X042146D01*
X042906D02*
X043226D01*
X038146Y018437D02*
X038486D01*
X039176D02*
X040356D01*
X040876D02*
X041206D01*
X041686D02*
X042146D01*
X042906D02*
X043246D01*
X038116Y018427D02*
X038486D01*
X039176D02*
X040366D01*
X040876D02*
X041206D01*
X041686D02*
X042126D01*
X042906D02*
X043266D01*
X038106Y018417D02*
X038486D01*
X039176D02*
X040376D01*
X040876D02*
X041206D01*
X041666D02*
X042116D01*
X042906D02*
X043276D01*
X038086Y018407D02*
X038486D01*
X039176D02*
X040376D01*
X040876D02*
X041206D01*
X041666D02*
X042116D01*
X042906D02*
X043296D01*
X038066Y018397D02*
X038486D01*
X039176D02*
X040386D01*
X040876D02*
X041206D01*
X041656D02*
X042096D01*
X042906D02*
X043316D01*
X038056Y018387D02*
X038486D01*
X039176D02*
X040386D01*
X040876D02*
X041206D01*
X041646D02*
X042086D01*
X042906D02*
X043326D01*
X038036Y018377D02*
X038486D01*
X039176D02*
X040396D01*
X040876D02*
X041206D01*
X041636D02*
X042076D01*
X042906D02*
X043346D01*
X038016Y018367D02*
X038486D01*
X039176D02*
X040406D01*
X040876D02*
X041206D01*
X041626D02*
X042066D01*
X042906D02*
X043366D01*
X037996Y018357D02*
X038486D01*
X039176D02*
X040406D01*
X040876D02*
X041206D01*
X041616D02*
X042066D01*
X042906D02*
X043386D01*
X037986Y018347D02*
X038486D01*
X039176D02*
X040416D01*
X040876D02*
X041206D01*
X041606D02*
X042046D01*
X042906D02*
X043386D01*
X037966Y018337D02*
X038486D01*
X039176D02*
X040416D01*
X040876D02*
X041206D01*
X041596D02*
X042036D01*
X042906D02*
X043416D01*
X037946Y018327D02*
X038486D01*
X039176D02*
X040416D01*
X040876D02*
X041206D01*
X041596D02*
X042036D01*
X042906D02*
X043426D01*
X037936Y018317D02*
X038486D01*
X039176D02*
X039506D01*
X039976D02*
X040416D01*
X040876D02*
X041206D01*
X041586D02*
X042016D01*
X042906D02*
X043446D01*
X037906Y018307D02*
X038486D01*
X039176D02*
X039506D01*
X040006D02*
X040426D01*
X040876D02*
X041206D01*
X041576D02*
X042006D01*
X042906D02*
X043476D01*
X037896Y018297D02*
X038486D01*
X039176D02*
X039516D01*
X040026D02*
X040426D01*
X040876D02*
X041206D01*
X041566D02*
X042006D01*
X042906D02*
X043476D01*
X037876Y018287D02*
X038486D01*
X039176D02*
X039506D01*
X040046D02*
X040436D01*
X040876D02*
X041206D01*
X041546D02*
X041986D01*
X042906D02*
X043506D01*
X037856Y018277D02*
X038486D01*
X039176D02*
X039506D01*
X040066D02*
X040436D01*
X040876D02*
X041206D01*
X041546D02*
X041986D01*
X042906D02*
X043516D01*
X037846Y018267D02*
X038486D01*
X039176D02*
X039516D01*
X040076D02*
X040436D01*
X040876D02*
X041206D01*
X041536D02*
X041976D01*
X042906D02*
X043536D01*
X037826Y018257D02*
X038486D01*
X039176D02*
X039506D01*
X040076D02*
X040446D01*
X040876D02*
X041206D01*
X041516D02*
X041966D01*
X042906D02*
X043566D01*
X037806Y018247D02*
X038486D01*
X039176D02*
X039506D01*
X040086D02*
X040446D01*
X040876D02*
X041206D01*
X041516D02*
X041956D01*
X042906D02*
X043566D01*
X037796Y018237D02*
X038486D01*
X039176D02*
X039516D01*
X040096D02*
X040446D01*
X040876D02*
X041206D01*
X041506D02*
X041946D01*
X042906D02*
X043586D01*
X037766Y018227D02*
X038486D01*
X039176D02*
X039506D01*
X040106D02*
X040446D01*
X040876D02*
X041206D01*
X041496D02*
X041936D01*
X042906D02*
X043606D01*
X037766Y018217D02*
X038486D01*
X039176D02*
X039506D01*
X040106D02*
X040446D01*
X040876D02*
X041206D01*
X041486D02*
X041926D01*
X042906D02*
X043616D01*
X037746Y018207D02*
X038486D01*
X039176D02*
X039516D01*
X040106D02*
X040446D01*
X040876D02*
X041206D01*
X041486D02*
X041916D01*
X042906D02*
X043636D01*
X037716Y018197D02*
X038486D01*
X039176D02*
X039506D01*
X040106D02*
X040446D01*
X040876D02*
X041206D01*
X041466D02*
X041906D01*
X042906D02*
X043656D01*
X037706Y018187D02*
X038486D01*
X039176D02*
X039506D01*
X040106D02*
X040446D01*
X040876D02*
X041206D01*
X041456D02*
X041896D01*
X042906D02*
X043676D01*
X037696Y018177D02*
X038486D01*
X039176D02*
X039516D01*
X040106D02*
X040446D01*
X040876D02*
X041206D01*
X041456D02*
X041886D01*
X042906D02*
X043676D01*
X037666Y018167D02*
X038486D01*
X039176D02*
X039506D01*
X040106D02*
X040446D01*
X040876D02*
X041206D01*
X041436D02*
X041876D01*
X042906D02*
X043706D01*
X037656Y018157D02*
X038486D01*
X039176D02*
X039506D01*
X040116D02*
X040446D01*
X040876D02*
X041206D01*
X041426D02*
X041866D01*
X042906D02*
X043726D01*
X037646Y018147D02*
X038486D01*
X039176D02*
X039516D01*
X040106D02*
X040446D01*
X040876D02*
X041206D01*
X041426D02*
X041856D01*
X042906D02*
X043736D01*
X037626Y018137D02*
X038486D01*
X039176D02*
X039506D01*
X040106D02*
X040436D01*
X040876D02*
X041206D01*
X041416D02*
X041846D01*
X042906D02*
X043766D01*
X037606Y018127D02*
X038486D01*
X039176D02*
X039506D01*
X040106D02*
X040436D01*
X040876D02*
X041206D01*
X041406D02*
X041836D01*
X042906D02*
X043766D01*
X037596Y018117D02*
X038486D01*
X039176D02*
X039516D01*
X040106D02*
X040436D01*
X040876D02*
X041206D01*
X041396D02*
X041826D01*
X042906D02*
X043786D01*
X037566Y018107D02*
X038486D01*
X039176D02*
X039506D01*
X040106D02*
X040436D01*
X040876D02*
X041206D01*
X041386D02*
X041816D01*
X042906D02*
X043806D01*
X037556Y018097D02*
X038486D01*
X039176D02*
X039506D01*
X040106D02*
X040426D01*
X040876D02*
X041206D01*
X041376D02*
X041806D01*
X042906D02*
X043826D01*
X037536Y018087D02*
X038486D01*
X039176D02*
X039516D01*
X040106D02*
X040426D01*
X040876D02*
X041206D01*
X041376D02*
X041796D01*
X042906D02*
X043836D01*
X037516Y018077D02*
X038486D01*
X039176D02*
X039506D01*
X040096D02*
X040426D01*
X040876D02*
X041206D01*
X041356D02*
X041786D01*
X042906D02*
X043856D01*
X037506Y018067D02*
X038486D01*
X039176D02*
X039506D01*
X040096D02*
X040416D01*
X040876D02*
X041206D01*
X041346D02*
X041776D01*
X042906D02*
X043876D01*
X037476Y018057D02*
X038486D01*
X039176D02*
X039516D01*
X040086D02*
X040416D01*
X040876D02*
X041206D01*
X041346D02*
X041766D01*
X042906D02*
X043896D01*
X037466Y018047D02*
X038486D01*
X039176D02*
X039506D01*
X040076D02*
X040416D01*
X040876D02*
X041206D01*
X041326D02*
X041756D01*
X042906D02*
X043906D01*
X037446Y018037D02*
X038486D01*
X039176D02*
X039506D01*
X040076D02*
X040416D01*
X040876D02*
X041206D01*
X041326D02*
X041746D01*
X042906D02*
X043926D01*
X037426Y018027D02*
X038486D01*
X039176D02*
X039516D01*
X040056D02*
X040406D01*
X040876D02*
X041206D01*
X041316D02*
X041746D01*
X042906D02*
X043946D01*
X037416Y018017D02*
X038486D01*
X039176D02*
X039506D01*
X040046D02*
X040396D01*
X040876D02*
X041206D01*
X041306D02*
X041736D01*
X042906D02*
X043966D01*
X037396Y018007D02*
X038486D01*
X039176D02*
X039506D01*
X040036D02*
X040396D01*
X040876D02*
X041206D01*
X041296D02*
X041726D01*
X042906D02*
X043966D01*
X037376Y017997D02*
X038486D01*
X039176D02*
X039516D01*
X040016D02*
X040386D01*
X040876D02*
X041206D01*
X041286D02*
X041716D01*
X042906D02*
X043996D01*
X037366Y017987D02*
X038486D01*
X039176D02*
X039506D01*
X039986D02*
X040386D01*
X040876D02*
X041206D01*
X041276D02*
X041706D01*
X042906D02*
X044016D01*
X037346Y017977D02*
X038486D01*
X039176D02*
X039506D01*
X039956D02*
X040376D01*
X040876D02*
X041206D01*
X041266D02*
X041696D01*
X042906D02*
X044026D01*
X037326Y017967D02*
X038486D01*
X039176D02*
X040366D01*
X040876D02*
X041206D01*
X041256D02*
X041696D01*
X042906D02*
X044056D01*
X037306Y017957D02*
X038486D01*
X039176D02*
X040356D01*
X040876D02*
X041206D01*
X041256D02*
X041706D01*
X042906D02*
X044056D01*
X037296Y017947D02*
X038486D01*
X039176D02*
X040356D01*
X040876D02*
X041206D01*
X041246D02*
X041706D01*
X042906D02*
X044076D01*
X037276Y017937D02*
X038486D01*
X039176D02*
X040346D01*
X040876D02*
X041206D01*
X041226D02*
X041716D01*
X042906D02*
X044106D01*
X037256Y017927D02*
X038486D01*
X039176D02*
X040336D01*
X040876D02*
X041206D01*
X041226D02*
X041716D01*
X042906D02*
X044106D01*
X037246Y017917D02*
X038486D01*
X039176D02*
X040326D01*
X040876D02*
X041206D01*
X041216D02*
X041726D01*
X042906D02*
X044126D01*
X037216Y017907D02*
X038486D01*
X039176D02*
X040306D01*
X040876D02*
X041736D01*
X042906D02*
X044146D01*
X037206Y017897D02*
X038486D01*
X039176D02*
X040306D01*
X040876D02*
X041746D01*
X042906D02*
X044166D01*
X037196Y017887D02*
X038486D01*
X039176D02*
X040296D01*
X040876D02*
X041746D01*
X042906D02*
X044176D01*
X037166Y017877D02*
X038486D01*
X039176D02*
X040276D01*
X040876D02*
X041756D01*
X042906D02*
X044196D01*
X037156Y017867D02*
X038486D01*
X039176D02*
X040256D01*
X040876D02*
X041766D01*
X042906D02*
X044216D01*
X037146Y017857D02*
X038486D01*
X039176D02*
X040236D01*
X040876D02*
X041766D01*
X042906D02*
X044226D01*
X037116Y017847D02*
X038486D01*
X039176D02*
X040256D01*
X040876D02*
X041776D01*
X042906D02*
X044256D01*
X037106Y017837D02*
X038486D01*
X039176D02*
X040276D01*
X040876D02*
X041776D01*
X042906D02*
X044266D01*
X037086Y017827D02*
X038486D01*
X039176D02*
X040296D01*
X040876D02*
X041786D01*
X042906D02*
X044286D01*
X037066Y017817D02*
X038486D01*
X039176D02*
X040326D01*
X040876D02*
X041796D01*
X042906D02*
X044306D01*
X037046Y017807D02*
X038486D01*
X039176D02*
X040336D01*
X040876D02*
X041806D01*
X042906D02*
X044316D01*
X037026Y017797D02*
X038486D01*
X039176D02*
X040356D01*
X040876D02*
X041806D01*
X042906D02*
X044336D01*
X037016Y017787D02*
X038486D01*
X039176D02*
X040366D01*
X040876D02*
X041816D01*
X042906D02*
X044356D01*
X036996Y017777D02*
X038486D01*
X039176D02*
X040376D01*
X040876D02*
X041816D01*
X042906D02*
X044366D01*
X036976Y017767D02*
X038486D01*
X039176D02*
X040396D01*
X040876D02*
X041826D01*
X042906D02*
X044396D01*
X036956Y017757D02*
X038486D01*
X039176D02*
X040406D01*
X040876D02*
X041826D01*
X042906D02*
X044406D01*
X036946Y017747D02*
X038486D01*
X039176D02*
X040416D01*
X040876D02*
X041836D01*
X042906D02*
X044426D01*
X036926Y017737D02*
X038486D01*
X039176D02*
X040426D01*
X040876D02*
X041846D01*
X042906D02*
X044446D01*
X036906Y017727D02*
X038486D01*
X039176D02*
X040426D01*
X040876D02*
X041446D01*
X041456D02*
X041856D01*
X042906D02*
X044456D01*
X036896Y017717D02*
X038486D01*
X039176D02*
X040436D01*
X040876D02*
X041436D01*
X041466D02*
X041856D01*
X042906D02*
X044476D01*
X036876Y017707D02*
X038486D01*
X039176D02*
X040446D01*
X040876D02*
X041426D01*
X041476D02*
X041866D01*
X042906D02*
X044496D01*
X036856Y017697D02*
X038486D01*
X039176D02*
X040446D01*
X040876D02*
X041426D01*
X041486D02*
X041866D01*
X042906D02*
X044516D01*
X036846Y017687D02*
X038486D01*
X039176D02*
X039506D01*
X039886D02*
X040456D01*
X040876D02*
X041416D01*
X041486D02*
X041876D01*
X042906D02*
X044526D01*
X036816Y017677D02*
X038486D01*
X039176D02*
X039506D01*
X040026D02*
X040466D01*
X040876D02*
X041396D01*
X041486D02*
X041886D01*
X042906D02*
X044546D01*
X036806Y017667D02*
X038486D01*
X039176D02*
X039506D01*
X040046D02*
X040476D01*
X040876D02*
X041396D01*
X041496D02*
X041886D01*
X042906D02*
X044566D01*
X036786Y017657D02*
X038486D01*
X039176D02*
X039516D01*
X040066D02*
X040476D01*
X040876D02*
X041386D01*
X041506D02*
X041896D01*
X042906D02*
X044576D01*
X036766Y017647D02*
X038486D01*
X039176D02*
X039506D01*
X040096D02*
X040476D01*
X040876D02*
X041366D01*
X041516D02*
X041906D01*
X042906D02*
X044596D01*
X036756Y017637D02*
X038486D01*
X039176D02*
X039506D01*
X040106D02*
X040486D01*
X040876D02*
X041366D01*
X041516D02*
X041916D01*
X042906D02*
X044606D01*
X036736Y017627D02*
X038486D01*
X039176D02*
X039516D01*
X040116D02*
X040486D01*
X040876D02*
X041346D01*
X041526D02*
X041916D01*
X042906D02*
X044626D01*
X036716Y017617D02*
X038486D01*
X039176D02*
X039506D01*
X040126D02*
X040496D01*
X040876D02*
X041336D01*
X041526D02*
X041926D01*
X042906D02*
X044656D01*
X036696Y017607D02*
X038486D01*
X039176D02*
X039506D01*
X040136D02*
X040496D01*
X040876D02*
X041336D01*
X041536D02*
X041926D01*
X042906D02*
X044656D01*
X036696Y017597D02*
X038486D01*
X039176D02*
X039516D01*
X040146D02*
X040506D01*
X040876D02*
X041316D01*
X041546D02*
X041936D01*
X042906D02*
X044676D01*
X036666Y017587D02*
X038486D01*
X039176D02*
X039506D01*
X040146D02*
X040506D01*
X040876D02*
X041316D01*
X041546D02*
X041946D01*
X042906D02*
X044696D01*
X036646Y017577D02*
X038486D01*
X039176D02*
X039506D01*
X040156D02*
X040506D01*
X040876D02*
X041306D01*
X041546D02*
X041946D01*
X042906D02*
X044716D01*
X036646Y017567D02*
X038486D01*
X039176D02*
X039516D01*
X040156D02*
X040506D01*
X040876D02*
X041286D01*
X041556D02*
X041956D01*
X042906D02*
X044726D01*
X036616Y017557D02*
X038486D01*
X039176D02*
X039506D01*
X040156D02*
X040506D01*
X040876D02*
X041286D01*
X041566D02*
X041966D01*
X042906D02*
X044746D01*
X036596Y017547D02*
X038486D01*
X039176D02*
X039506D01*
X040156D02*
X040506D01*
X040876D02*
X041276D01*
X041566D02*
X041966D01*
X042906D02*
X044766D01*
X036576Y017537D02*
X038486D01*
X039176D02*
X039516D01*
X040166D02*
X040516D01*
X040876D02*
X041256D01*
X041576D02*
X041976D01*
X042906D02*
X044786D01*
X036556Y017527D02*
X038486D01*
X039176D02*
X039506D01*
X040166D02*
X040516D01*
X040876D02*
X041256D01*
X041576D02*
X041976D01*
X042906D02*
X044806D01*
X036546Y017517D02*
X038486D01*
X039176D02*
X039506D01*
X040166D02*
X040516D01*
X040876D02*
X041246D01*
X041586D02*
X041986D01*
X042906D02*
X044816D01*
X036526Y017507D02*
X038486D01*
X039176D02*
X039516D01*
X040166D02*
X040516D01*
X040876D02*
X041226D01*
X041596D02*
X041996D01*
X042906D02*
X044836D01*
X036506Y017497D02*
X038486D01*
X039176D02*
X039506D01*
X040176D02*
X040516D01*
X040876D02*
X041226D01*
X041606D02*
X042006D01*
X042906D02*
X044856D01*
X036496Y017487D02*
X038486D01*
X039176D02*
X039506D01*
X040176D02*
X040516D01*
X040876D02*
X041216D01*
X041606D02*
X042006D01*
X042906D02*
X044866D01*
X036466Y017477D02*
X038486D01*
X039176D02*
X039516D01*
X040176D02*
X040516D01*
X040876D02*
X041206D01*
X041606D02*
X042016D01*
X042906D02*
X044886D01*
X036456Y017467D02*
X038486D01*
X039176D02*
X039506D01*
X040166D02*
X040516D01*
X040876D02*
X041206D01*
X041616D02*
X042026D01*
X042906D02*
X044906D01*
X036446Y017457D02*
X038486D01*
X039176D02*
X039506D01*
X040166D02*
X040516D01*
X040876D02*
X041206D01*
X041616D02*
X042026D01*
X042906D02*
X044916D01*
X036416Y017447D02*
X038486D01*
X039176D02*
X039516D01*
X040166D02*
X040516D01*
X040876D02*
X041206D01*
X041636D02*
X042036D01*
X042906D02*
X044946D01*
X036406Y017437D02*
X038486D01*
X039176D02*
X039506D01*
X040166D02*
X040516D01*
X040876D02*
X041206D01*
X041636D02*
X042036D01*
X042906D02*
X044956D01*
X036396Y017427D02*
X038486D01*
X039176D02*
X039506D01*
X040166D02*
X040516D01*
X040876D02*
X041206D01*
X041636D02*
X042046D01*
X042906D02*
X044966D01*
X036366Y017417D02*
X038486D01*
X039176D02*
X039516D01*
X040156D02*
X040516D01*
X040876D02*
X041206D01*
X041646D02*
X042056D01*
X042906D02*
X044996D01*
X036356Y017407D02*
X038486D01*
X039176D02*
X039506D01*
X040156D02*
X040516D01*
X040876D02*
X041206D01*
X041656D02*
X042066D01*
X042906D02*
X045006D01*
X036346Y017397D02*
X038486D01*
X039176D02*
X039506D01*
X040156D02*
X040516D01*
X040876D02*
X041206D01*
X041656D02*
X042066D01*
X042906D02*
X045016D01*
X036316Y017387D02*
X038486D01*
X039176D02*
X039516D01*
X040156D02*
X040506D01*
X040876D02*
X041206D01*
X041656D02*
X042076D01*
X042906D02*
X045036D01*
X036306Y017377D02*
X038486D01*
X039176D02*
X039506D01*
X040146D02*
X040506D01*
X040876D02*
X041206D01*
X041666D02*
X042076D01*
X042906D02*
X045056D01*
X036296Y017367D02*
X038486D01*
X039176D02*
X039506D01*
X040136D02*
X040506D01*
X040876D02*
X041206D01*
X041676D02*
X042086D01*
X042906D02*
X045066D01*
X036266Y017357D02*
X038486D01*
X039176D02*
X039516D01*
X040136D02*
X040506D01*
X040876D02*
X041206D01*
X041686D02*
X042086D01*
X042906D02*
X045086D01*
X036256Y017347D02*
X038486D01*
X039176D02*
X039506D01*
X040126D02*
X040506D01*
X040876D02*
X041206D01*
X041686D02*
X042096D01*
X042906D02*
X045106D01*
X036236Y017337D02*
X038486D01*
X039176D02*
X039506D01*
X040116D02*
X040506D01*
X040876D02*
X041206D01*
X041686D02*
X042106D01*
X042906D02*
X045116D01*
X036236Y017327D02*
X038486D01*
X039176D02*
X039516D01*
X040096D02*
X040506D01*
X040876D02*
X041206D01*
X041696D02*
X042116D01*
X042906D02*
X045146D01*
X036236Y017317D02*
X038486D01*
X039176D02*
X039506D01*
X040086D02*
X040496D01*
X040876D02*
X041206D01*
X041706D02*
X042116D01*
X042906D02*
X045146D01*
X036236Y017307D02*
X038486D01*
X039176D02*
X039516D01*
X040056D02*
X040496D01*
X040876D02*
X041206D01*
X041716D02*
X042126D01*
X042906D02*
X045146D01*
X036236Y017297D02*
X038486D01*
X039176D02*
X039516D01*
X040036D02*
X040486D01*
X040876D02*
X041206D01*
X041716D02*
X042136D01*
X042906D02*
X045146D01*
X036236Y017287D02*
X038486D01*
X039176D02*
X039506D01*
X039986D02*
X040486D01*
X040876D02*
X041206D01*
X041716D02*
X042136D01*
X042906D02*
X045146D01*
X036236Y017277D02*
X038486D01*
X039176D02*
X040476D01*
X040876D02*
X041206D01*
X041726D02*
X042146D01*
X042906D02*
X045146D01*
X036236Y017267D02*
X038486D01*
X039176D02*
X040476D01*
X040876D02*
X041206D01*
X041736D02*
X042146D01*
X042906D02*
X045146D01*
X036236Y017257D02*
X038486D01*
X039176D02*
X040476D01*
X040876D02*
X041206D01*
X041736D02*
X042156D01*
X042906D02*
X045146D01*
X036236Y017247D02*
X038486D01*
X039176D02*
X040466D01*
X040876D02*
X041206D01*
X041746D02*
X042166D01*
X042906D02*
X045146D01*
X036236Y017237D02*
X038486D01*
X039176D02*
X040466D01*
X040876D02*
X041206D01*
X041746D02*
X042176D01*
X042906D02*
X045146D01*
X036236Y017227D02*
X038486D01*
X039176D02*
X040456D01*
X040876D02*
X041206D01*
X041756D02*
X042176D01*
X042906D02*
X045146D01*
X036236Y017217D02*
X038486D01*
X039176D02*
X040446D01*
X040876D02*
X041206D01*
X041766D02*
X042186D01*
X042906D02*
X045146D01*
X036236Y017207D02*
X038486D01*
X039176D02*
X040446D01*
X040876D02*
X041206D01*
X041766D02*
X042186D01*
X042906D02*
X045146D01*
X036236Y017197D02*
X038486D01*
X039176D02*
X040446D01*
X040876D02*
X041206D01*
X041776D02*
X042196D01*
X042906D02*
X045146D01*
X036236Y017187D02*
X038486D01*
X039176D02*
X040426D01*
X040876D02*
X041206D01*
X041776D02*
X042206D01*
X042906D02*
X045146D01*
X036236Y017177D02*
X038486D01*
X039176D02*
X040426D01*
X040876D02*
X041206D01*
X041786D02*
X042206D01*
X042906D02*
X045146D01*
X036236Y017167D02*
X038486D01*
X039176D02*
X040416D01*
X040876D02*
X041206D01*
X041786D02*
X042216D01*
X042906D02*
X045146D01*
X036236Y017157D02*
X038486D01*
X039176D02*
X040406D01*
X040876D02*
X041206D01*
X041796D02*
X042226D01*
X042906D02*
X045146D01*
X036236Y017147D02*
X038486D01*
X039176D02*
X040396D01*
X040876D02*
X041206D01*
X041806D02*
X042236D01*
X042906D02*
X045146D01*
X036236Y017137D02*
X038486D01*
X039176D02*
X040386D01*
X040876D02*
X041206D01*
X041806D02*
X042236D01*
X042906D02*
X045146D01*
X036236Y017127D02*
X038486D01*
X039176D02*
X040376D01*
X040876D02*
X041206D01*
X041816D02*
X042246D01*
X042906D02*
X045146D01*
X036236Y017117D02*
X038486D01*
X039176D02*
X040366D01*
X040876D02*
X041206D01*
X041816D02*
X042246D01*
X042906D02*
X045146D01*
X036236Y017107D02*
X038486D01*
X039176D02*
X040356D01*
X040876D02*
X041206D01*
X041836D02*
X042256D01*
X042906D02*
X045146D01*
X036236Y017097D02*
X038486D01*
X039176D02*
X040346D01*
X040876D02*
X041206D01*
X041836D02*
X042266D01*
X042906D02*
X045146D01*
X036236Y017087D02*
X038486D01*
X039176D02*
X040326D01*
X040876D02*
X041206D01*
X041836D02*
X042266D01*
X042906D02*
X045146D01*
X036236Y017077D02*
X038486D01*
X039176D02*
X040316D01*
X040876D02*
X041206D01*
X041846D02*
X042266D01*
X042906D02*
X045146D01*
X036236Y017067D02*
X038486D01*
X039176D02*
X040306D01*
X040876D02*
X041206D01*
X041846D02*
X042286D01*
X042906D02*
X045146D01*
X036236Y017057D02*
X038486D01*
X039176D02*
X040286D01*
X040876D02*
X041206D01*
X041856D02*
X042286D01*
X042906D02*
X045146D01*
X036236Y017047D02*
X038486D01*
X039176D02*
X040256D01*
X040876D02*
X041206D01*
X041866D02*
X042296D01*
X042906D02*
X045146D01*
X036236Y017037D02*
X038486D01*
X039176D02*
X040236D01*
X040876D02*
X041206D01*
X041866D02*
X042296D01*
X042906D02*
X045146D01*
X036236Y017027D02*
X038486D01*
X039176D02*
X040216D01*
X040876D02*
X041206D01*
X041866D02*
X042306D01*
X042906D02*
X045146D01*
X036236Y017017D02*
X038486D01*
X039176D02*
X040156D01*
X040876D02*
X041206D01*
X041886D02*
X042316D01*
X042906D02*
X045146D01*
X036236Y017007D02*
X038486D01*
X039176D02*
X040096D01*
X040876D02*
X041206D01*
X041886D02*
X042316D01*
X042906D02*
X045146D01*
X036236Y016997D02*
X038486D01*
X039186D02*
X039866D01*
X039876D02*
X039896D01*
X040886D02*
X041196D01*
X041896D02*
X042306D01*
X042906D02*
X045146D01*
X036236Y016987D02*
X038486D01*
X042906D02*
X045146D01*
X036236Y016977D02*
X038486D01*
X042906D02*
X045146D01*
X036236Y016967D02*
X038486D01*
X042906D02*
X045146D01*
X036236Y016957D02*
X038486D01*
X042906D02*
X045146D01*
X036236Y016947D02*
X038486D01*
X042906D02*
X045146D01*
X036236Y016937D02*
X038486D01*
X042906D02*
X045146D01*
X036236Y016927D02*
X038486D01*
X042906D02*
X045146D01*
X036236Y016917D02*
X038486D01*
X042906D02*
X045146D01*
X036236Y016907D02*
X038486D01*
X042906D02*
X045146D01*
X036236Y016897D02*
X038486D01*
X042906D02*
X045146D01*
X036236Y016887D02*
X038486D01*
X042906D02*
X045146D01*
X036236Y016877D02*
X038486D01*
X042906D02*
X045146D01*
X036236Y016867D02*
X038486D01*
X042906D02*
X045146D01*
X036236Y016857D02*
X038486D01*
X042906D02*
X045146D01*
X036236Y016847D02*
X038486D01*
X042906D02*
X045146D01*
X036236Y016837D02*
X038486D01*
X042906D02*
X045146D01*
X036236Y016827D02*
X038486D01*
X042906D02*
X045146D01*
X036236Y016817D02*
X038486D01*
X042906D02*
X045146D01*
X036236Y016807D02*
X038486D01*
X042906D02*
X045146D01*
X036236Y016797D02*
X038486D01*
X042906D02*
X045146D01*
X036236Y016787D02*
X038486D01*
X042906D02*
X045146D01*
X036236Y016777D02*
X038486D01*
X042906D02*
X045146D01*
X036236Y016767D02*
X038486D01*
X042906D02*
X045146D01*
X036236Y016757D02*
X038486D01*
X042906D02*
X045146D01*
X036236Y016747D02*
X038486D01*
X042906D02*
X045146D01*
X036236Y016737D02*
X038486D01*
X042906D02*
X045146D01*
X036236Y016727D02*
X038486D01*
X042906D02*
X045146D01*
X036236Y016717D02*
X038486D01*
X041276D02*
X041406D01*
X042906D02*
X045146D01*
X036236Y016707D02*
X038486D01*
X039176D02*
X039676D01*
X039746D02*
X040066D01*
X040446D02*
X040586D01*
X040826D02*
X040956D01*
X041246D02*
X041436D01*
X041686D02*
X041886D01*
X042096D02*
X042296D01*
X042906D02*
X045146D01*
X036236Y016697D02*
X038486D01*
X039176D02*
X039676D01*
X039746D02*
X040126D01*
X040446D02*
X040586D01*
X040816D02*
X040956D01*
X041206D02*
X041476D01*
X041686D02*
X041896D01*
X042096D02*
X042296D01*
X042906D02*
X045146D01*
X036236Y016687D02*
X038486D01*
X039176D02*
X039676D01*
X039746D02*
X040136D01*
X040446D02*
X040586D01*
X040816D02*
X040956D01*
X041196D02*
X041486D01*
X041686D02*
X041896D01*
X042096D02*
X042296D01*
X042906D02*
X045146D01*
X036236Y016677D02*
X038486D01*
X039176D02*
X039676D01*
X039746D02*
X040156D01*
X040446D02*
X040586D01*
X040816D02*
X040956D01*
X041176D02*
X041506D01*
X041686D02*
X041896D01*
X042096D02*
X042296D01*
X042906D02*
X045146D01*
X036236Y016667D02*
X038486D01*
X039176D02*
X039676D01*
X039746D02*
X040176D01*
X040446D02*
X040586D01*
X040816D02*
X040956D01*
X041156D02*
X041526D01*
X041686D02*
X041906D01*
X042086D02*
X042296D01*
X042906D02*
X045146D01*
X036236Y016657D02*
X038486D01*
X039176D02*
X039676D01*
X039746D02*
X040186D01*
X040446D02*
X040586D01*
X040816D02*
X040956D01*
X041146D02*
X041536D01*
X041686D02*
X041906D01*
X042086D02*
X042296D01*
X042906D02*
X045146D01*
X036236Y016647D02*
X038486D01*
X039176D02*
X039676D01*
X039746D02*
X040186D01*
X040446D02*
X040586D01*
X040816D02*
X040956D01*
X041146D02*
X041546D01*
X041686D02*
X041906D01*
X042086D02*
X042296D01*
X042906D02*
X045146D01*
X036236Y016637D02*
X038486D01*
X039176D02*
X039676D01*
X039746D02*
X040196D01*
X040446D02*
X040586D01*
X040816D02*
X040956D01*
X041126D02*
X041556D01*
X041686D02*
X041916D01*
X042076D02*
X042296D01*
X042906D02*
X045146D01*
X036236Y016627D02*
X038486D01*
X039176D02*
X039676D01*
X039746D02*
X040206D01*
X040446D02*
X040586D01*
X040816D02*
X040956D01*
X041116D02*
X041556D01*
X041686D02*
X041916D01*
X042076D02*
X042296D01*
X042906D02*
X045146D01*
X036236Y016617D02*
X038486D01*
X039176D02*
X039676D01*
X039746D02*
X040206D01*
X040446D02*
X040586D01*
X040826D02*
X040956D01*
X041116D02*
X041566D01*
X041686D02*
X041916D01*
X042076D02*
X042296D01*
X042906D02*
X045146D01*
X036236Y016607D02*
X038486D01*
X039176D02*
X039676D01*
X039746D02*
X040216D01*
X040446D02*
X040586D01*
X040816D02*
X040956D01*
X041106D02*
X041576D01*
X041686D02*
X041916D01*
X042066D02*
X042296D01*
X042906D02*
X045146D01*
X036236Y016597D02*
X038486D01*
X039176D02*
X039676D01*
X039746D02*
X040216D01*
X040446D02*
X040586D01*
X040816D02*
X040956D01*
X041096D02*
X041316D01*
X041366D02*
X041576D01*
X041686D02*
X041916D01*
X042066D02*
X042296D01*
X042906D02*
X045146D01*
X036236Y016587D02*
X038486D01*
X039356D02*
X039496D01*
X039746D02*
X039886D01*
X040036D02*
X040216D01*
X040446D02*
X040586D01*
X040826D02*
X040956D01*
X041086D02*
X041266D01*
X041396D02*
X041576D01*
X041686D02*
X041916D01*
X042066D02*
X042296D01*
X042906D02*
X045146D01*
X036236Y016577D02*
X038486D01*
X039356D02*
X039496D01*
X039746D02*
X039886D01*
X040046D02*
X040226D01*
X040446D02*
X040586D01*
X040816D02*
X040956D01*
X041086D02*
X041256D01*
X041416D02*
X041586D01*
X041686D02*
X041926D01*
X042066D02*
X042296D01*
X042906D02*
X045146D01*
X036236Y016567D02*
X038486D01*
X039356D02*
X039496D01*
X039746D02*
X039886D01*
X040056D02*
X040226D01*
X040446D02*
X040586D01*
X040816D02*
X040956D01*
X041086D02*
X041256D01*
X041426D02*
X041596D01*
X041686D02*
X041926D01*
X042066D02*
X042296D01*
X042906D02*
X045146D01*
X036236Y016557D02*
X038486D01*
X039356D02*
X039496D01*
X039746D02*
X039886D01*
X040076D02*
X040226D01*
X040446D02*
X040586D01*
X040816D02*
X040956D01*
X041076D02*
X041236D01*
X041436D02*
X041596D01*
X041686D02*
X041936D01*
X042056D02*
X042296D01*
X042906D02*
X045146D01*
X036236Y016547D02*
X038486D01*
X039356D02*
X039496D01*
X039746D02*
X039886D01*
X040076D02*
X040236D01*
X040446D02*
X040586D01*
X040816D02*
X040956D01*
X041066D02*
X041226D01*
X041436D02*
X041596D01*
X041686D02*
X041936D01*
X042056D02*
X042296D01*
X042906D02*
X045146D01*
X036236Y016537D02*
X038486D01*
X039356D02*
X039496D01*
X039746D02*
X039886D01*
X040076D02*
X040236D01*
X040446D02*
X040586D01*
X040816D02*
X040956D01*
X041066D02*
X041226D01*
X041446D02*
X041596D01*
X041686D02*
X041936D01*
X042056D02*
X042296D01*
X042906D02*
X045146D01*
X036236Y016527D02*
X038486D01*
X039356D02*
X039496D01*
X039746D02*
X039886D01*
X040086D02*
X040236D01*
X040446D02*
X040586D01*
X040816D02*
X040956D01*
X041066D02*
X041216D01*
X041456D02*
X041586D01*
X041686D02*
X041946D01*
X042046D02*
X042296D01*
X042906D02*
X045146D01*
X036236Y016517D02*
X038486D01*
X039356D02*
X039496D01*
X039746D02*
X039886D01*
X040086D02*
X040236D01*
X040446D02*
X040586D01*
X040816D02*
X040956D01*
X041056D02*
X041206D01*
X041456D02*
X041556D01*
X041686D02*
X041946D01*
X042046D02*
X042296D01*
X042906D02*
X045146D01*
X036236Y016507D02*
X038486D01*
X039356D02*
X039496D01*
X039746D02*
X039886D01*
X040086D02*
X040236D01*
X040446D02*
X040586D01*
X040816D02*
X040956D01*
X041056D02*
X041206D01*
X041456D02*
X041526D01*
X041686D02*
X041946D01*
X042046D02*
X042296D01*
X042906D02*
X045146D01*
X036236Y016497D02*
X038486D01*
X039356D02*
X039496D01*
X039746D02*
X039886D01*
X040086D02*
X040236D01*
X040446D02*
X040586D01*
X040816D02*
X040956D01*
X041056D02*
X041196D01*
X041686D02*
X041946D01*
X042036D02*
X042296D01*
X042906D02*
X045146D01*
X036236Y016487D02*
X038486D01*
X039356D02*
X039496D01*
X039746D02*
X039886D01*
X040076D02*
X040236D01*
X040446D02*
X040586D01*
X040816D02*
X040956D01*
X041056D02*
X041196D01*
X041686D02*
X041946D01*
X042036D02*
X042296D01*
X042906D02*
X045146D01*
X036236Y016477D02*
X038486D01*
X039356D02*
X039496D01*
X039746D02*
X039886D01*
X040076D02*
X040236D01*
X040446D02*
X040586D01*
X040816D02*
X040956D01*
X041056D02*
X041196D01*
X041686D02*
X041816D01*
X041836D02*
X041946D01*
X042036D02*
X042296D01*
X042906D02*
X045146D01*
X036236Y016467D02*
X038486D01*
X039356D02*
X039496D01*
X039746D02*
X039886D01*
X040076D02*
X040226D01*
X040446D02*
X040956D01*
X041056D02*
X041196D01*
X041686D02*
X041826D01*
X041836D02*
X041956D01*
X042036D02*
X042156D01*
X042176D02*
X042296D01*
X042906D02*
X045146D01*
X036236Y016457D02*
X038486D01*
X039356D02*
X039496D01*
X039746D02*
X039886D01*
X040066D02*
X040226D01*
X040446D02*
X040956D01*
X041056D02*
X041196D01*
X041686D02*
X041826D01*
X041836D02*
X041956D01*
X042036D02*
X042156D01*
X042166D02*
X042296D01*
X042906D02*
X045146D01*
X036236Y016447D02*
X038486D01*
X039356D02*
X039496D01*
X039746D02*
X039886D01*
X040056D02*
X040226D01*
X040446D02*
X040956D01*
X041046D02*
X041196D01*
X041686D02*
X041816D01*
X041836D02*
X041956D01*
X042036D02*
X042156D01*
X042166D02*
X042296D01*
X042906D02*
X045146D01*
X036236Y016437D02*
X038486D01*
X039356D02*
X039496D01*
X039746D02*
X039886D01*
X040006D02*
X040216D01*
X040446D02*
X040956D01*
X041046D02*
X041196D01*
X041686D02*
X041826D01*
X041836D02*
X041966D01*
X042026D02*
X042146D01*
X042176D02*
X042296D01*
X042906D02*
X045146D01*
X036236Y016427D02*
X038486D01*
X039356D02*
X039496D01*
X039746D02*
X040216D01*
X040446D02*
X040956D01*
X041046D02*
X041196D01*
X041686D02*
X041826D01*
X041836D02*
X041966D01*
X042026D02*
X042146D01*
X042166D02*
X042296D01*
X042906D02*
X045146D01*
X036236Y016417D02*
X038486D01*
X039356D02*
X039496D01*
X039746D02*
X040216D01*
X040446D02*
X040956D01*
X041046D02*
X041196D01*
X041686D02*
X041816D01*
X041846D02*
X041966D01*
X042026D02*
X042146D01*
X042166D02*
X042296D01*
X042906D02*
X045146D01*
X036236Y016407D02*
X038486D01*
X039356D02*
X039496D01*
X039746D02*
X040206D01*
X040446D02*
X040956D01*
X041046D02*
X041196D01*
X041686D02*
X041816D01*
X041846D02*
X041976D01*
X042016D02*
X042146D01*
X042176D02*
X042296D01*
X042906D02*
X045146D01*
X036236Y016397D02*
X038486D01*
X039356D02*
X039496D01*
X039746D02*
X040206D01*
X040446D02*
X040956D01*
X041046D02*
X041196D01*
X041686D02*
X041816D01*
X041846D02*
X041976D01*
X042016D02*
X042146D01*
X042166D02*
X042296D01*
X042906D02*
X045146D01*
X036236Y016387D02*
X038486D01*
X039356D02*
X039496D01*
X039746D02*
X040196D01*
X040446D02*
X040956D01*
X041046D02*
X041196D01*
X041686D02*
X041826D01*
X041856D02*
X041976D01*
X042016D02*
X042146D01*
X042166D02*
X042296D01*
X042906D02*
X045146D01*
X036236Y016377D02*
X038486D01*
X039356D02*
X039496D01*
X039746D02*
X040186D01*
X040446D02*
X040956D01*
X041046D02*
X041196D01*
X041686D02*
X041816D01*
X041856D02*
X041976D01*
X042006D02*
X042136D01*
X042176D02*
X042296D01*
X042906D02*
X045146D01*
X036236Y016367D02*
X038486D01*
X039356D02*
X039496D01*
X039746D02*
X040186D01*
X040446D02*
X040956D01*
X041046D02*
X041196D01*
X041686D02*
X041816D01*
X041856D02*
X041976D01*
X042006D02*
X042136D01*
X042166D02*
X042296D01*
X042906D02*
X045146D01*
X036236Y016357D02*
X038486D01*
X039356D02*
X039496D01*
X039746D02*
X040156D01*
X040446D02*
X040956D01*
X041046D02*
X041196D01*
X041686D02*
X041816D01*
X041866D02*
X041986D01*
X042006D02*
X042136D01*
X042176D02*
X042296D01*
X042906D02*
X045146D01*
X036236Y016347D02*
X038486D01*
X039356D02*
X039496D01*
X039746D02*
X040156D01*
X040446D02*
X040586D01*
X040816D02*
X040956D01*
X041046D02*
X041196D01*
X041686D02*
X041816D01*
X041866D02*
X041986D01*
X042006D02*
X042126D01*
X042176D02*
X042296D01*
X042906D02*
X045146D01*
X036236Y016337D02*
X038486D01*
X039356D02*
X039496D01*
X039746D02*
X040136D01*
X040446D02*
X040586D01*
X040816D02*
X040956D01*
X041046D02*
X041196D01*
X041686D02*
X041816D01*
X041866D02*
X041986D01*
X042006D02*
X042126D01*
X042166D02*
X042296D01*
X042906D02*
X045146D01*
X036236Y016327D02*
X038486D01*
X039356D02*
X039496D01*
X039746D02*
X040106D01*
X040446D02*
X040586D01*
X040826D02*
X040956D01*
X041056D02*
X041196D01*
X041686D02*
X041816D01*
X041866D02*
X041996D01*
X042006D02*
X042126D01*
X042176D02*
X042296D01*
X042906D02*
X045146D01*
X036236Y016317D02*
X038486D01*
X039356D02*
X039496D01*
X039746D02*
X040076D01*
X040446D02*
X040586D01*
X040816D02*
X040956D01*
X041056D02*
X041196D01*
X041466D02*
X041486D01*
X041686D02*
X041816D01*
X041866D02*
X042116D01*
X042176D02*
X042296D01*
X042906D02*
X045146D01*
X036236Y016307D02*
X038486D01*
X039356D02*
X039496D01*
X039746D02*
X039976D01*
X040446D02*
X040586D01*
X040816D02*
X040956D01*
X041056D02*
X041196D01*
X041456D02*
X041516D01*
X041686D02*
X041816D01*
X041866D02*
X042116D01*
X042166D02*
X042296D01*
X042906D02*
X045146D01*
X036236Y016297D02*
X038486D01*
X039356D02*
X039496D01*
X039746D02*
X039886D01*
X040446D02*
X040586D01*
X040816D02*
X040956D01*
X041056D02*
X041206D01*
X041456D02*
X041566D01*
X041686D02*
X041816D01*
X041876D02*
X042116D01*
X042176D02*
X042296D01*
X042906D02*
X045146D01*
X036236Y016287D02*
X038486D01*
X039356D02*
X039496D01*
X039746D02*
X039886D01*
X040446D02*
X040586D01*
X040816D02*
X040956D01*
X041056D02*
X041206D01*
X041456D02*
X041586D01*
X041686D02*
X041816D01*
X041876D02*
X042116D01*
X042176D02*
X042296D01*
X042906D02*
X045146D01*
X036236Y016277D02*
X038486D01*
X039356D02*
X039496D01*
X039746D02*
X039886D01*
X040446D02*
X040586D01*
X040816D02*
X040956D01*
X041056D02*
X041206D01*
X041456D02*
X041596D01*
X041686D02*
X041816D01*
X041876D02*
X042116D01*
X042166D02*
X042296D01*
X042906D02*
X045146D01*
X036236Y016267D02*
X038486D01*
X039356D02*
X039496D01*
X039746D02*
X039886D01*
X040446D02*
X040586D01*
X040816D02*
X040956D01*
X041056D02*
X041216D01*
X041446D02*
X041596D01*
X041686D02*
X041816D01*
X041886D02*
X042116D01*
X042176D02*
X042296D01*
X042906D02*
X045146D01*
X036236Y016257D02*
X038486D01*
X039356D02*
X039496D01*
X039746D02*
X039886D01*
X040446D02*
X040586D01*
X040816D02*
X040956D01*
X041066D02*
X041226D01*
X041446D02*
X041596D01*
X041686D02*
X041816D01*
X041886D02*
X042106D01*
X042176D02*
X042296D01*
X042906D02*
X045146D01*
X036236Y016247D02*
X038486D01*
X039356D02*
X039496D01*
X039746D02*
X039886D01*
X040446D02*
X040586D01*
X040816D02*
X040956D01*
X041066D02*
X041226D01*
X041436D02*
X041596D01*
X041686D02*
X041816D01*
X041886D02*
X042106D01*
X042166D02*
X042296D01*
X042906D02*
X045146D01*
X036236Y016237D02*
X038486D01*
X039356D02*
X039496D01*
X039746D02*
X039886D01*
X040446D02*
X040586D01*
X040816D02*
X040956D01*
X041076D02*
X041236D01*
X041426D02*
X041596D01*
X041686D02*
X041816D01*
X041896D02*
X042106D01*
X042176D02*
X042296D01*
X042906D02*
X045146D01*
X036236Y016227D02*
X038486D01*
X039356D02*
X039496D01*
X039746D02*
X039886D01*
X040446D02*
X040586D01*
X040816D02*
X040956D01*
X041076D02*
X041246D01*
X041426D02*
X041586D01*
X041686D02*
X041816D01*
X041896D02*
X042096D01*
X042176D02*
X042296D01*
X042906D02*
X045146D01*
X036236Y016217D02*
X038486D01*
X039356D02*
X039496D01*
X039746D02*
X039886D01*
X040446D02*
X040586D01*
X040816D02*
X040956D01*
X041086D02*
X041256D01*
X041416D02*
X041586D01*
X041686D02*
X041816D01*
X041896D02*
X042096D01*
X042166D02*
X042296D01*
X042906D02*
X045146D01*
X036236Y016207D02*
X038486D01*
X039356D02*
X039496D01*
X039746D02*
X039886D01*
X040206D02*
X040336D01*
X040446D02*
X040586D01*
X040816D02*
X040956D01*
X041086D02*
X041276D01*
X041396D02*
X041576D01*
X041686D02*
X041816D01*
X041896D02*
X042096D01*
X042176D02*
X042296D01*
X042906D02*
X045146D01*
X036236Y016197D02*
X038486D01*
X039356D02*
X039496D01*
X039746D02*
X039886D01*
X040206D02*
X040336D01*
X040446D02*
X040586D01*
X040816D02*
X040956D01*
X041086D02*
X041286D01*
X041376D02*
X041576D01*
X041686D02*
X041816D01*
X041896D02*
X042086D01*
X042176D02*
X042296D01*
X042906D02*
X045146D01*
X036236Y016187D02*
X038486D01*
X039356D02*
X039496D01*
X039746D02*
X039886D01*
X040206D02*
X040336D01*
X040446D02*
X040586D01*
X040816D02*
X040956D01*
X041096D02*
X041326D01*
X041346D02*
X041576D01*
X041686D02*
X041816D01*
X041896D02*
X042086D01*
X042176D02*
X042296D01*
X042906D02*
X045146D01*
X036236Y016177D02*
X038486D01*
X039356D02*
X039496D01*
X039746D02*
X039886D01*
X040206D02*
X040336D01*
X040446D02*
X040586D01*
X040816D02*
X040956D01*
X041106D02*
X041566D01*
X041686D02*
X041816D01*
X041906D02*
X042086D01*
X042166D02*
X042296D01*
X042906D02*
X045146D01*
X036236Y016167D02*
X038486D01*
X039356D02*
X039496D01*
X039746D02*
X039886D01*
X040206D02*
X040336D01*
X040446D02*
X040586D01*
X040816D02*
X040956D01*
X041116D02*
X041556D01*
X041686D02*
X041816D01*
X041906D02*
X042086D01*
X042166D02*
X042296D01*
X042906D02*
X045146D01*
X036236Y016157D02*
X038486D01*
X039356D02*
X039496D01*
X039746D02*
X039886D01*
X040206D02*
X040336D01*
X040446D02*
X040586D01*
X040816D02*
X040956D01*
X041116D02*
X041546D01*
X041686D02*
X041816D01*
X041906D02*
X042086D01*
X042176D02*
X042296D01*
X042906D02*
X045146D01*
X036236Y016147D02*
X038486D01*
X039356D02*
X039496D01*
X039746D02*
X039886D01*
X040206D02*
X040336D01*
X040446D02*
X040586D01*
X040816D02*
X040956D01*
X041136D02*
X041546D01*
X041686D02*
X041816D01*
X041916D02*
X042086D01*
X042166D02*
X042296D01*
X042906D02*
X045146D01*
X036236Y016137D02*
X038486D01*
X039356D02*
X039496D01*
X039746D02*
X039886D01*
X040206D02*
X040336D01*
X040446D02*
X040586D01*
X040816D02*
X040956D01*
X041146D02*
X041536D01*
X041686D02*
X041816D01*
X041916D02*
X042076D01*
X042166D02*
X042296D01*
X042906D02*
X045146D01*
X036236Y016127D02*
X038486D01*
X039356D02*
X039496D01*
X039746D02*
X039886D01*
X040206D02*
X040336D01*
X040446D02*
X040586D01*
X040816D02*
X040956D01*
X041156D02*
X041516D01*
X041686D02*
X041816D01*
X041916D02*
X042076D01*
X042176D02*
X042296D01*
X042906D02*
X045146D01*
X036236Y016117D02*
X038486D01*
X039356D02*
X039496D01*
X039746D02*
X039886D01*
X040206D02*
X040336D01*
X040446D02*
X040586D01*
X040816D02*
X040956D01*
X041166D02*
X041506D01*
X041686D02*
X041816D01*
X041916D02*
X042066D01*
X042176D02*
X042296D01*
X042906D02*
X045146D01*
X036236Y016107D02*
X038486D01*
X039356D02*
X039496D01*
X039746D02*
X039886D01*
X040206D02*
X040336D01*
X040446D02*
X040586D01*
X040816D02*
X040956D01*
X041176D02*
X041496D01*
X041686D02*
X041816D01*
X041916D02*
X042066D01*
X042176D02*
X042296D01*
X042906D02*
X045146D01*
X036236Y016097D02*
X038486D01*
X039356D02*
X039496D01*
X039746D02*
X039886D01*
X040206D02*
X040336D01*
X040446D02*
X040586D01*
X040816D02*
X040956D01*
X041196D02*
X041476D01*
X041686D02*
X041816D01*
X041926D02*
X042066D01*
X042176D02*
X042296D01*
X042906D02*
X045146D01*
X036236Y016087D02*
X038486D01*
X039356D02*
X039496D01*
X039746D02*
X039886D01*
X040206D02*
X040336D01*
X040446D02*
X040586D01*
X040826D02*
X040956D01*
X041226D02*
X041456D01*
X041686D02*
X041816D01*
X041926D02*
X042066D01*
X042176D02*
X042296D01*
X042906D02*
X045146D01*
X036236Y016077D02*
X038486D01*
X039356D02*
X039496D01*
X039746D02*
X039876D01*
X040206D02*
X040336D01*
X040446D02*
X040586D01*
X040826D02*
X040956D01*
X041236D02*
X041436D01*
X041686D02*
X041816D01*
X041926D02*
X042066D01*
X042176D02*
X042296D01*
X042906D02*
X045146D01*
X036236Y016067D02*
X038486D01*
X042906D02*
X045146D01*
X036236Y016057D02*
X038486D01*
X042906D02*
X045146D01*
X036236Y016047D02*
X038486D01*
X042896D02*
X045146D01*
X036236Y016037D02*
X038516D01*
X042876D02*
X045146D01*
X036236Y016027D02*
X038526D01*
X042866D02*
X045146D01*
X036236Y016017D02*
X038546D01*
X042856D02*
X045146D01*
X036236Y016007D02*
X038566D01*
X042826D02*
X045146D01*
X036236Y015997D02*
X038576D01*
X042816D02*
X045146D01*
X036236Y015987D02*
X038596D01*
X042806D02*
X045146D01*
X036236Y015977D02*
X038616D01*
X042776D02*
X045146D01*
X036236Y015967D02*
X038626D01*
X042756D02*
X045146D01*
X036236Y015957D02*
X038646D01*
X042756D02*
X045146D01*
X036236Y015947D02*
X038666D01*
X042726D02*
X045146D01*
X036236Y015937D02*
X038686D01*
X042706D02*
X045146D01*
X036236Y015927D02*
X038696D01*
X042696D02*
X045146D01*
X036236Y015917D02*
X038716D01*
X042666D02*
X045146D01*
X036236Y015907D02*
X038736D01*
X042666D02*
X045146D01*
X036236Y015897D02*
X038746D01*
X042646D02*
X045146D01*
X036236Y015887D02*
X038776D01*
X042616D02*
X045146D01*
X036236Y015877D02*
X038786D01*
X042616D02*
X045146D01*
X036236Y015867D02*
X038796D01*
X042596D02*
X045146D01*
X036236Y015857D02*
X038826D01*
X042576D02*
X045146D01*
X036236Y015847D02*
X038836D01*
X042556D02*
X045146D01*
X036236Y015837D02*
X038846D01*
X042546D02*
X045146D01*
X036236Y015827D02*
X038876D01*
X042526D02*
X045146D01*
X036236Y015817D02*
X038886D01*
X042506D02*
X045146D01*
X036236Y015807D02*
X038916D01*
X042476D02*
X045146D01*
X036236Y015797D02*
X038926D01*
X042466D02*
X045146D01*
X036236Y015787D02*
X038936D01*
X042456D02*
X045146D01*
X036236Y015777D02*
X038966D01*
X042426D02*
X045146D01*
X036236Y015767D02*
X038976D01*
X042416D02*
X045146D01*
X036236Y015757D02*
X038986D01*
X042406D02*
X045146D01*
X036236Y015747D02*
X039016D01*
X042376D02*
X045146D01*
X036236Y015737D02*
X039036D01*
X042366D02*
X045146D01*
X036236Y015727D02*
X039036D01*
X042356D02*
X045146D01*
X036236Y015717D02*
X039066D01*
X042326D02*
X045146D01*
X036236Y015707D02*
X039086D01*
X042316D02*
X045146D01*
X036236Y015697D02*
X039086D01*
X042296D02*
X045146D01*
X036236Y015687D02*
X039116D01*
X042276D02*
X045146D01*
X036236Y015677D02*
X039126D01*
X042266D02*
X045146D01*
X036236Y015667D02*
X039146D01*
X042246D02*
X045146D01*
X036236Y015657D02*
X039176D01*
X042226D02*
X045146D01*
X036236Y015647D02*
X039176D01*
X042206D02*
X045146D01*
X036236Y015637D02*
X039196D01*
X042196D02*
X045146D01*
X036236Y015627D02*
X039226D01*
X042176D02*
X045146D01*
X036236Y015617D02*
X039236D01*
X042156D02*
X045146D01*
X036236Y015607D02*
X039246D01*
X042146D02*
X045146D01*
X036236Y015597D02*
X039276D01*
X042126D02*
X045146D01*
X036236Y015587D02*
X039286D01*
X042106D02*
X045146D01*
X036236Y015577D02*
X039296D01*
X042096D02*
X045146D01*
X036236Y015567D02*
X039326D01*
X042066D02*
X045146D01*
X036236Y015557D02*
X039336D01*
X042056D02*
X045146D01*
X036236Y015547D02*
X039366D01*
X042026D02*
X045146D01*
X036236Y015537D02*
X039376D01*
X042016D02*
X045146D01*
X036236Y015527D02*
X039386D01*
X042006D02*
X045146D01*
X036236Y015517D02*
X039416D01*
X041976D02*
X045146D01*
X036236Y015507D02*
X039436D01*
X041966D02*
X045146D01*
X036236Y015497D02*
X039436D01*
X041946D02*
X045146D01*
X036236Y015487D02*
X039466D01*
X041916D02*
X045146D01*
X036236Y015477D02*
X039486D01*
X041916D02*
X045146D01*
X036236Y015467D02*
X039496D01*
X041896D02*
X045146D01*
X036236Y015457D02*
X039526D01*
X041876D02*
X045146D01*
X036236Y015447D02*
X039526D01*
X041866D02*
X045146D01*
X036236Y015437D02*
X039546D01*
X041846D02*
X045146D01*
X036236Y015427D02*
X039576D01*
X041826D02*
X045146D01*
X036236Y015417D02*
X039576D01*
X041806D02*
X045146D01*
X036236Y015407D02*
X039596D01*
X041796D02*
X045146D01*
X036236Y015397D02*
X039626D01*
X041776D02*
X045146D01*
X036236Y015387D02*
X039636D01*
X041756D02*
X045146D01*
X036236Y015377D02*
X039646D01*
X041746D02*
X045146D01*
X036236Y015367D02*
X039676D01*
X041716D02*
X045146D01*
X036236Y015357D02*
X039686D01*
X041706D02*
X045146D01*
X036236Y015347D02*
X039696D01*
X041686D02*
X045146D01*
X036236Y015337D02*
X039726D01*
X041666D02*
X045146D01*
X036236Y015327D02*
X039736D01*
X041656D02*
X045146D01*
X036236Y015317D02*
X039756D01*
X041646D02*
X045146D01*
X036236Y015307D02*
X039776D01*
X041616D02*
X045146D01*
X036236Y015297D02*
X039786D01*
X041606D02*
X045146D01*
X036236Y015287D02*
X039816D01*
X041576D02*
X045146D01*
X036236Y015277D02*
X039826D01*
X041566D02*
X045146D01*
X036236Y015267D02*
X039836D01*
X041546D02*
X045146D01*
X036236Y015257D02*
X039866D01*
X041526D02*
X045146D01*
X036236Y015247D02*
X039876D01*
X041516D02*
X045146D01*
X036236Y015237D02*
X039896D01*
X041496D02*
X045146D01*
X036236Y015227D02*
X039926D01*
X041476D02*
X045146D01*
X036236Y015217D02*
X039926D01*
X041456D02*
X045146D01*
X036236Y015207D02*
X039946D01*
X041446D02*
X045146D01*
X036236Y015197D02*
X039966D01*
X041426D02*
X045146D01*
X036236Y015187D02*
X039986D01*
X041406D02*
X045146D01*
X036236Y015177D02*
X039996D01*
X041396D02*
X045146D01*
X036236Y015167D02*
X040016D01*
X041376D02*
X045146D01*
X036236Y015157D02*
X040036D01*
X041356D02*
X045146D01*
X036236Y015147D02*
X040046D01*
X041346D02*
X045146D01*
X036236Y015137D02*
X040076D01*
X041316D02*
X045146D01*
X036236Y015127D02*
X040086D01*
X041316D02*
X045146D01*
X036236Y015117D02*
X040096D01*
X041296D02*
X045146D01*
X036236Y015107D02*
X040126D01*
X041266D02*
X045146D01*
X036236Y015097D02*
X040136D01*
X041256D02*
X045146D01*
X036236Y015087D02*
X040156D01*
X041246D02*
X045146D01*
X036236Y015077D02*
X040176D01*
X041216D02*
X045146D01*
X036236Y015067D02*
X040186D01*
X041206D02*
X045146D01*
X036236Y015057D02*
X040216D01*
X041176D02*
X045146D01*
X036236Y015047D02*
X040226D01*
X041166D02*
X045146D01*
X036236Y015037D02*
X040246D01*
X041156D02*
X045146D01*
X036236Y015027D02*
X040266D01*
X041126D02*
X045146D01*
X036236Y015017D02*
X040276D01*
X041116D02*
X045146D01*
X036236Y015007D02*
X040296D01*
X041106D02*
X045146D01*
X036236Y014997D02*
X040316D01*
X041076D02*
X045146D01*
X036236Y014987D02*
X040326D01*
X041066D02*
X045146D01*
X036236Y014977D02*
X040336D01*
X041056D02*
X045146D01*
X036236Y014967D02*
X040366D01*
X041026D02*
X045146D01*
X036236Y014957D02*
X040386D01*
X041016D02*
X045146D01*
X036236Y014947D02*
X040386D01*
X040996D02*
X045146D01*
X036236Y014937D02*
X040416D01*
X040976D02*
X045146D01*
X036236Y014927D02*
X040426D01*
X040966D02*
X045146D01*
X036236Y014917D02*
X040446D01*
X040946D02*
X045146D01*
X036236Y014907D02*
X040476D01*
X040926D02*
X045146D01*
X036236Y014897D02*
X040476D01*
X040906D02*
X045146D01*
X036236Y014887D02*
X040496D01*
X040896D02*
X045146D01*
X036236Y014877D02*
X040526D01*
X040876D02*
X045146D01*
X036236Y014867D02*
X040536D01*
X040856D02*
X045146D01*
X036236Y014857D02*
X040546D01*
X040846D02*
X045146D01*
X036236Y014847D02*
X040566D01*
X040826D02*
X045146D01*
X036236Y014837D02*
X040586D01*
X040806D02*
X045146D01*
X036236Y014827D02*
X040596D01*
X040796D02*
X045146D01*
X036236Y014817D02*
X040616D01*
X040766D02*
X045146D01*
X036236Y014807D02*
X040636D01*
X040756D02*
X045146D01*
X036236Y014797D02*
X040666D01*
X040736D02*
X045146D01*
X036236Y014787D02*
X040676D01*
X040716D02*
X045146D01*
X036236Y014777D02*
X040686D01*
X040706D02*
X045146D01*
X036246Y014767D02*
X045146D01*
X036256Y014757D02*
X045146D01*
X036266Y014747D02*
X045146D01*
X036296Y014737D02*
X040676D01*
X040716D02*
X045126D01*
X036306Y014727D02*
X040656D01*
X040736D02*
X045116D01*
X036326Y014717D02*
X040646D01*
X040736D02*
X045096D01*
X036356Y014707D02*
X040616D01*
X040766D02*
X045076D01*
X036356Y014697D02*
X040606D01*
X040786D02*
X045066D01*
X036376Y014687D02*
X040586D01*
X040796D02*
X045046D01*
X036406Y014677D02*
X040566D01*
X040826D02*
X045026D01*
X036406Y014667D02*
X040556D01*
X040836D02*
X045006D01*
X036426Y014657D02*
X040536D01*
X040846D02*
X044996D01*
X036446Y014647D02*
X040516D01*
X040876D02*
X044976D01*
X036466Y014637D02*
X040506D01*
X040886D02*
X044956D01*
X036486Y014627D02*
X040476D01*
X040906D02*
X044936D01*
X036496Y014617D02*
X040466D01*
X040926D02*
X044916D01*
X036516Y014607D02*
X040446D01*
X040936D02*
X044906D01*
X036536Y014597D02*
X040426D01*
X040966D02*
X044876D01*
X036556Y014587D02*
X040416D01*
X040976D02*
X044866D01*
X036566Y014577D02*
X040396D01*
X040996D02*
X044856D01*
X036586Y014567D02*
X040376D01*
X041016D02*
X044826D01*
X036606Y014557D02*
X040356D01*
X041026D02*
X044816D01*
X036616Y014547D02*
X040346D01*
X041046D02*
X044806D01*
X036646Y014537D02*
X040326D01*
X041066D02*
X044776D01*
X036656Y014527D02*
X040306D01*
X041086D02*
X044766D01*
X036666Y014517D02*
X040296D01*
X041096D02*
X044746D01*
X036696Y014507D02*
X040276D01*
X041116D02*
X044716D01*
X036706Y014497D02*
X040256D01*
X041136D02*
X044716D01*
X036716Y014487D02*
X040246D01*
X041146D02*
X044696D01*
X036746Y014477D02*
X040216D01*
X041176D02*
X044666D01*
X036756Y014467D02*
X040206D01*
X041186D02*
X044656D01*
X036766Y014457D02*
X040196D01*
X041196D02*
X044646D01*
X036796Y014447D02*
X040166D01*
X041226D02*
X044616D01*
X036806Y014437D02*
X040156D01*
X041236D02*
X044606D01*
X036816Y014427D02*
X040146D01*
X041256D02*
X044596D01*
X036846Y014417D02*
X040116D01*
X041276D02*
X044576D01*
X036856Y014407D02*
X040096D01*
X041286D02*
X044556D01*
X036876Y014397D02*
X040096D01*
X041306D02*
X044546D01*
X036896Y014387D02*
X040066D01*
X041326D02*
X044516D01*
X036906Y014377D02*
X040056D01*
X041346D02*
X044506D01*
X036926Y014367D02*
X040026D01*
X041376D02*
X044476D01*
X036946Y014357D02*
X040016D01*
X041376D02*
X044466D01*
X036956Y014347D02*
X040006D01*
X041396D02*
X044456D01*
X036986Y014337D02*
X039976D01*
X041426D02*
X044426D01*
X036996Y014327D02*
X039956D01*
X041426D02*
X044416D01*
X037016Y014317D02*
X039956D01*
X041446D02*
X044396D01*
X037036Y014307D02*
X039926D01*
X041476D02*
X044366D01*
X037046Y014297D02*
X039916D01*
X041486D02*
X044366D01*
X037066Y014287D02*
X039896D01*
X041496D02*
X044346D01*
X037086Y014277D02*
X039866D01*
X041526D02*
X044316D01*
X037106Y014267D02*
X039866D01*
X041546D02*
X044316D01*
X037106Y014257D02*
X039846D01*
X041546D02*
X044296D01*
X037136Y014247D02*
X039816D01*
X041576D02*
X044266D01*
X037146Y014237D02*
X039816D01*
X041596D02*
X044256D01*
X037156Y014227D02*
X039796D01*
X041606D02*
X044246D01*
X037186Y014217D02*
X039766D01*
X041636D02*
X044216D01*
X037196Y014207D02*
X039756D01*
X041646D02*
X044206D01*
X037216Y014197D02*
X039746D01*
X041656D02*
X044196D01*
X037236Y014187D02*
X039726D01*
X041686D02*
X044166D01*
X037246Y014177D02*
X039706D01*
X041696D02*
X044156D01*
X037266Y014167D02*
X039696D01*
X041706D02*
X044136D01*
X037286Y014157D02*
X039666D01*
X041736D02*
X044106D01*
X037306Y014147D02*
X039656D01*
X041746D02*
X044106D01*
X037316Y014137D02*
X039636D01*
X041756D02*
X044086D01*
X037336Y014127D02*
X039616D01*
X041786D02*
X044056D01*
X037356Y014117D02*
X039606D01*
X041806D02*
X044056D01*
X037376Y014107D02*
X039576D01*
X041826D02*
X044026D01*
X037396Y014097D02*
X039566D01*
X041836D02*
X044006D01*
X037406Y014087D02*
X039556D01*
X041856D02*
X043996D01*
X037426Y014077D02*
X039526D01*
X041876D02*
X043966D01*
X037446Y014067D02*
X039516D01*
X041896D02*
X043956D01*
X037446Y014057D02*
X039496D01*
X041906D02*
X043946D01*
X037476Y014047D02*
X039476D01*
X041926D02*
X043916D01*
X037496Y014037D02*
X039466D01*
X041946D02*
X043906D01*
X037506Y014027D02*
X039446D01*
X041956D02*
X043896D01*
X037536Y014017D02*
X039426D01*
X041976D02*
X043866D01*
X037536Y014007D02*
X039406D01*
X041996D02*
X043846D01*
X037556Y013997D02*
X039396D01*
X042006D02*
X043846D01*
X037576Y013987D02*
X039376D01*
X042036D02*
X043816D01*
X037596Y013977D02*
X039356D01*
X042046D02*
X043796D01*
X037606Y013967D02*
X039346D01*
X042066D02*
X043796D01*
X037626Y013957D02*
X039326D01*
X042086D02*
X043766D01*
X037646Y013947D02*
X039306D01*
X042096D02*
X043746D01*
X037656Y013937D02*
X039296D01*
X042116D02*
X043736D01*
X037676Y013927D02*
X039266D01*
X042136D02*
X043706D01*
X037696Y013917D02*
X039256D01*
X042146D02*
X043696D01*
X037706Y013907D02*
X039246D01*
X042166D02*
X043686D01*
X037736Y013897D02*
X039216D01*
X042186D02*
X043656D01*
X037746Y013887D02*
X039206D01*
X042206D02*
X043646D01*
X037766Y013877D02*
X039176D01*
X042226D02*
X043616D01*
X037786Y013867D02*
X039166D01*
X042236D02*
X043606D01*
X037796Y013857D02*
X039156D01*
X042256D02*
X043586D01*
X037826Y013847D02*
X039126D01*
X042276D02*
X043566D01*
X037826Y013837D02*
X039116D01*
X042296D02*
X043556D01*
X037846Y013827D02*
X039106D01*
X042306D02*
X043536D01*
X037876Y013817D02*
X039076D01*
X042326D02*
X043516D01*
X037886Y013807D02*
X039066D01*
X042346D02*
X043506D01*
X037896Y013797D02*
X039056D01*
X042356D02*
X043486D01*
X037926Y013787D02*
X039026D01*
X042386D02*
X043466D01*
X037936Y013777D02*
X039006D01*
X042396D02*
X043446D01*
X037946Y013767D02*
X039006D01*
X042406D02*
X043436D01*
X037976Y013757D02*
X038976D01*
X042436D02*
X043416D01*
X037986Y013747D02*
X038966D01*
X042446D02*
X043396D01*
X037996Y013737D02*
X038946D01*
X042466D02*
X043386D01*
X038026Y013727D02*
X038916D01*
X042486D02*
X043356D01*
X038036Y013717D02*
X038916D01*
X042496D02*
X043346D01*
X038056Y013707D02*
X038896D01*
X042516D02*
X043326D01*
X038076Y013697D02*
X038866D01*
X042536D02*
X043306D01*
X038086Y013687D02*
X038856D01*
X042556D02*
X043296D01*
X038106Y013677D02*
X038846D01*
X042566D02*
X043276D01*
X038126Y013667D02*
X038816D01*
X042586D02*
X043256D01*
X038146Y013657D02*
X038806D01*
X042606D02*
X043246D01*
X038156Y013647D02*
X038796D01*
X042626D02*
X043226D01*
X038176Y013637D02*
X038766D01*
X042646D02*
X043196D01*
X038196Y013627D02*
X038746D01*
X042666D02*
X043186D01*
X038216Y013617D02*
X038726D01*
X042686D02*
X043156D01*
X038226Y013607D02*
X038716D01*
X042696D02*
X043146D01*
X038246Y013597D02*
X038696D01*
X042716D02*
X043136D01*
X038266Y013587D02*
X038676D01*
X042736D02*
X043106D01*
X038286Y013577D02*
X038656D01*
X042746D02*
X043096D01*
X038286Y013567D02*
X038646D01*
X042766D02*
X043086D01*
X038316Y013557D02*
X038626D01*
X042786D02*
X043056D01*
X038336Y013547D02*
X038606D01*
X042806D02*
X043046D01*
X038346Y013537D02*
X038596D01*
X042816D02*
X043036D01*
X038376Y013527D02*
X038576D01*
X042846D02*
X043006D01*
X038386Y013517D02*
X038556D01*
X042856D02*
X042986D01*
X038396Y013507D02*
X038546D01*
X042876D02*
X042986D01*
X038426Y013497D02*
X038516D01*
X042896D02*
X042956D01*
X038436Y013487D02*
X038506D01*
X042906D02*
X042936D01*
X038446Y013477D02*
X038496D01*
D15*
X046027Y03144D02*
Y03239D01*
X046494Y030901D02*
X048034D01*
X048473Y03144D02*
Y03239D01*
X046484Y032901D02*
X048034D01*
X046027Y035377D02*
Y036327D01*
X046494Y034838D02*
X048034D01*
X048473Y035377D02*
Y036327D01*
X046484Y036838D02*
X048034D01*
X049964Y00585D02*
Y0068D01*
X050431Y00531D02*
X051971D01*
X05241Y00585D02*
Y0068D01*
X050421Y00731D02*
X051971D01*
X049964Y011755D02*
Y012705D01*
X050431Y011216D02*
X051971D01*
X05241Y011755D02*
Y012705D01*
X050421Y013216D02*
X051971D01*
X031066Y008802D02*
Y009752D01*
X031533Y008263D02*
X033073D01*
X033513Y008802D02*
Y009752D01*
X031523Y010263D02*
X033073D01*
X021617Y008802D02*
Y009752D01*
X022085Y008263D02*
X023625D01*
X024064Y008802D02*
Y009752D01*
X022075Y010263D02*
X023625D01*
X030279Y03144D02*
Y03239D01*
X030746Y030901D02*
X032286D01*
X032725Y03144D02*
Y03239D01*
X030736Y032901D02*
X032286D01*
X030279Y035377D02*
Y036327D01*
X030746Y034838D02*
X032286D01*
X032725Y035377D02*
Y036327D01*
X030736Y036838D02*
X032286D01*
X061248Y02109D02*
X062798D01*
X063237Y019629D02*
Y020579D01*
X061258Y01909D02*
X062798D01*
X06079Y019629D02*
Y020579D01*
X057311Y02109D02*
X058861D01*
X0593Y019629D02*
Y020579D01*
X057321Y01909D02*
X058861D01*
X056853Y019629D02*
Y020579D01*
X026799Y013216D02*
X028349D01*
X028788Y011755D02*
Y012705D01*
X026809Y011216D02*
X028349D01*
X026342Y011755D02*
Y012705D01*
X026799Y00731D02*
X028349D01*
X028788Y00585D02*
Y0068D01*
X026809Y00531D02*
X028349D01*
X026342Y00585D02*
Y0068D01*
X011805Y012175D02*
Y013725D01*
X012315Y014164D02*
X013265D01*
X013805Y012185D02*
Y013725D01*
X012315Y011718D02*
X013265D01*
X019909Y02109D02*
X021459D01*
X021899Y019629D02*
Y020579D01*
X019919Y01909D02*
X021459D01*
X019452Y019629D02*
Y020579D01*
X015972Y02109D02*
X017522D01*
X017962Y019629D02*
Y020579D01*
X015982Y01909D02*
X017522D01*
X015515Y019629D02*
Y020579D01*
D16*
X061939Y0509D02*
D03*
X021589Y05065D02*
D03*
M02*
