G04*
G04 #@! TF.GenerationSoftware,Altium Limited,Altium Designer,21.3.2 (30)*
G04*
G04 Layer_Color=8388736*
%FSTAX24Y24*%
%MOIN*%
G70*
G04*
G04 #@! TF.SameCoordinates,7536F4C1-D20E-4AD8-A34B-159FF933A109*
G04*
G04*
G04 #@! TF.FilePolarity,Negative*
G04*
G01*
G75*
%ADD17C,0.0671*%
%ADD18R,0.0631X0.0631*%
%ADD19C,0.0631*%
%ADD20R,0.0907X0.0907*%
%ADD21C,0.0907*%
%ADD22C,0.0980*%
%ADD23C,0.1580*%
%ADD24R,0.1580X0.1580*%
%ADD25C,0.0395*%
%ADD26C,0.0830*%
%ADD27O,0.0671X0.0592*%
%ADD28R,0.0671X0.0592*%
%ADD29R,0.0780X0.0680*%
%ADD30O,0.0780X0.0680*%
%ADD31O,0.0980X0.0730*%
%ADD32R,0.0980X0.0730*%
%ADD33O,0.0680X0.0980*%
%ADD34R,0.0680X0.0980*%
%ADD35R,0.0980X0.0680*%
%ADD36O,0.0980X0.0680*%
%ADD37O,0.0730X0.0830*%
%ADD38O,0.0830X0.0730*%
%ADD39O,0.0680X0.0780*%
%ADD40R,0.0680X0.0780*%
%ADD41C,0.0680*%
%ADD42R,0.0680X0.0680*%
%ADD43R,0.0780X0.0780*%
%ADD44C,0.0780*%
%ADD45C,0.0580*%
%ADD46C,0.0474*%
D17*
X037885Y048145D02*
D03*
X038885D02*
D03*
X040885D02*
D03*
X039885D02*
D03*
X037885Y047145D02*
D03*
X038885D02*
D03*
X040885D02*
D03*
X039885D02*
D03*
X049639Y0325D02*
D03*
Y0315D02*
D03*
X049689Y0364D02*
D03*
Y0354D02*
D03*
X053389Y00695D02*
D03*
Y00595D02*
D03*
X034689Y0097D02*
D03*
Y0087D02*
D03*
X020589Y0098D02*
D03*
Y0088D02*
D03*
X028989Y03235D02*
D03*
Y03135D02*
D03*
X028889Y03635D02*
D03*
Y03535D02*
D03*
X062439Y0224D02*
D03*
X061439D02*
D03*
X058589D02*
D03*
X057589D02*
D03*
X053389Y0118D02*
D03*
Y0128D02*
D03*
X025139Y00675D02*
D03*
Y00575D02*
D03*
X029789Y0128D02*
D03*
Y0118D02*
D03*
X010739Y01355D02*
D03*
Y01255D02*
D03*
X022889Y02065D02*
D03*
Y01965D02*
D03*
X014439Y02065D02*
D03*
Y01965D02*
D03*
D18*
X061689Y04882D02*
D03*
X022789Y04842D02*
D03*
D19*
X061689Y04815D02*
D03*
Y04748D02*
D03*
Y04681D02*
D03*
Y04614D02*
D03*
X050089Y050558D02*
D03*
Y046542D02*
D03*
X044789Y034892D02*
D03*
Y038908D02*
D03*
X048839Y038692D02*
D03*
Y042708D02*
D03*
X050189D02*
D03*
Y038692D02*
D03*
X045989Y030008D02*
D03*
Y025992D02*
D03*
X068889Y015242D02*
D03*
Y019258D02*
D03*
X067639Y019208D02*
D03*
Y015192D02*
D03*
X066389Y015242D02*
D03*
Y019258D02*
D03*
X064597Y0177D02*
D03*
X060581D02*
D03*
X055631D02*
D03*
X059647D02*
D03*
X067347Y0037D02*
D03*
X063331D02*
D03*
X058247Y0059D02*
D03*
X054231D02*
D03*
X062197Y0093D02*
D03*
X058181D02*
D03*
X062197Y0081D02*
D03*
X058181D02*
D03*
X062197Y0105D02*
D03*
X058181D02*
D03*
X058297Y01185D02*
D03*
X054281D02*
D03*
X030631Y0059D02*
D03*
X034647D02*
D03*
X014031Y0174D02*
D03*
X018047D02*
D03*
X014989Y010942D02*
D03*
Y014958D02*
D03*
X022997Y0174D02*
D03*
X018981D02*
D03*
X034297Y0339D02*
D03*
X030281D02*
D03*
X032689Y030108D02*
D03*
Y026092D02*
D03*
X022789Y04775D02*
D03*
Y04708D02*
D03*
Y04641D02*
D03*
Y04574D02*
D03*
X016147Y04945D02*
D03*
X012131D02*
D03*
X020081Y00715D02*
D03*
X024097D02*
D03*
X029147Y0042D02*
D03*
X025131D02*
D03*
X025089Y011192D02*
D03*
Y015208D02*
D03*
D20*
X064639Y048389D02*
D03*
X054889Y046561D02*
D03*
X026139Y047889D02*
D03*
X015739Y04625D02*
D03*
D21*
X064639Y047011D02*
D03*
X054889Y047939D02*
D03*
X026139Y046511D02*
D03*
X015739Y047628D02*
D03*
D22*
X058739Y04825D02*
D03*
Y04625D02*
D03*
X019789Y04785D02*
D03*
Y04585D02*
D03*
D23*
X057789Y0509D02*
D03*
X017439Y05065D02*
D03*
D24*
X063289Y0509D02*
D03*
X022939Y05065D02*
D03*
D25*
X045447Y0448D02*
D03*
X045939D02*
D03*
X046431D02*
D03*
X045455Y04265D02*
D03*
X045947D02*
D03*
X046439D02*
D03*
X045447Y0406D02*
D03*
X045939D02*
D03*
X046431D02*
D03*
X049689Y025208D02*
D03*
Y0257D02*
D03*
Y026192D02*
D03*
X052597Y02235D02*
D03*
X053089D02*
D03*
X053581D02*
D03*
X030339Y02885D02*
D03*
X029847D02*
D03*
X029355D02*
D03*
X030281Y0257D02*
D03*
X029789D02*
D03*
X029297D02*
D03*
D26*
X046034Y032901D02*
D03*
X048484Y030951D02*
D03*
X048475Y032901D02*
D03*
X046034Y030932D02*
D03*
Y036838D02*
D03*
X048484Y034888D02*
D03*
X048475Y036838D02*
D03*
X046034Y034869D02*
D03*
X049971Y00731D02*
D03*
X052421Y00536D02*
D03*
X052412Y00731D02*
D03*
X049971Y005342D02*
D03*
Y013216D02*
D03*
X052421Y011266D02*
D03*
X052412Y013216D02*
D03*
X049971Y011247D02*
D03*
X031073Y010263D02*
D03*
X033523Y008313D02*
D03*
X033514Y010263D02*
D03*
X031073Y008294D02*
D03*
X021625Y010263D02*
D03*
X024075Y008313D02*
D03*
X024066Y010263D02*
D03*
X021625Y008294D02*
D03*
X030286Y032901D02*
D03*
X032736Y030951D02*
D03*
X032727Y032901D02*
D03*
X030286Y030932D02*
D03*
Y036838D02*
D03*
X032736Y034888D02*
D03*
X032727Y036838D02*
D03*
X030286Y034869D02*
D03*
X060798Y019121D02*
D03*
X063239Y02109D02*
D03*
X063248Y01914D02*
D03*
X060798Y02109D02*
D03*
X056861Y019121D02*
D03*
X059302Y02109D02*
D03*
X059311Y01914D02*
D03*
X056861Y02109D02*
D03*
X026349Y011247D02*
D03*
X02879Y013216D02*
D03*
X028799Y011266D02*
D03*
X026349Y013216D02*
D03*
Y005342D02*
D03*
X02879Y00731D02*
D03*
X028799Y00536D02*
D03*
X026349Y00731D02*
D03*
X013773Y011725D02*
D03*
X011805Y014166D02*
D03*
X013755Y014175D02*
D03*
X011805Y011725D02*
D03*
X019459Y019121D02*
D03*
X0219Y02109D02*
D03*
X021909Y01914D02*
D03*
X019459Y02109D02*
D03*
X015522Y019121D02*
D03*
X017963Y02109D02*
D03*
X017972Y01914D02*
D03*
X015522Y02109D02*
D03*
D27*
X035789Y0472D02*
D03*
D28*
Y0482D02*
D03*
D29*
X012339Y04645D02*
D03*
D30*
Y04745D02*
D03*
D31*
X068989Y01255D02*
D03*
Y01055D02*
D03*
Y00855D02*
D03*
Y00755D02*
D03*
Y00655D02*
D03*
Y00955D02*
D03*
Y01155D02*
D03*
D32*
Y00555D02*
D03*
D33*
X045739Y0115D02*
D03*
X044739D02*
D03*
X043739D02*
D03*
X042739D02*
D03*
X041739D02*
D03*
X040739D02*
D03*
X039739D02*
D03*
X038739D02*
D03*
X045739Y0085D02*
D03*
X044739D02*
D03*
X043739D02*
D03*
X042739D02*
D03*
X041739D02*
D03*
X040739D02*
D03*
X039739D02*
D03*
D34*
X038739D02*
D03*
D35*
X063339Y0125D02*
D03*
X032589Y0385D02*
D03*
D36*
X063339Y0115D02*
D03*
Y0105D02*
D03*
Y0095D02*
D03*
Y0085D02*
D03*
Y0075D02*
D03*
Y0065D02*
D03*
Y0055D02*
D03*
X066339Y0125D02*
D03*
Y0115D02*
D03*
Y0105D02*
D03*
Y0095D02*
D03*
Y0085D02*
D03*
Y0075D02*
D03*
Y0065D02*
D03*
Y0055D02*
D03*
X032589Y0395D02*
D03*
Y0405D02*
D03*
Y0415D02*
D03*
Y0425D02*
D03*
Y0435D02*
D03*
Y0445D02*
D03*
Y0455D02*
D03*
X029589Y0385D02*
D03*
Y0395D02*
D03*
Y0405D02*
D03*
Y0415D02*
D03*
Y0425D02*
D03*
Y0435D02*
D03*
Y0445D02*
D03*
Y0455D02*
D03*
D37*
X031589Y0216D02*
D03*
X032599D02*
D03*
X033579D02*
D03*
X034589D02*
D03*
D38*
Y03831D02*
D03*
Y0373D02*
D03*
Y03632D02*
D03*
Y03531D02*
D03*
D39*
X051389Y04655D02*
D03*
D40*
X052389D02*
D03*
D41*
X042385Y036385D02*
D03*
X036385Y027385D02*
D03*
Y028385D02*
D03*
Y029385D02*
D03*
Y030385D02*
D03*
Y031385D02*
D03*
Y032385D02*
D03*
Y033385D02*
D03*
Y034385D02*
D03*
Y035385D02*
D03*
Y036385D02*
D03*
Y037385D02*
D03*
Y038385D02*
D03*
Y039385D02*
D03*
Y040385D02*
D03*
Y041385D02*
D03*
Y042385D02*
D03*
Y043385D02*
D03*
Y025385D02*
D03*
Y026385D02*
D03*
X042385Y030385D02*
D03*
Y029385D02*
D03*
Y028385D02*
D03*
Y027385D02*
D03*
Y026385D02*
D03*
Y025385D02*
D03*
Y031385D02*
D03*
Y032385D02*
D03*
Y037385D02*
D03*
Y039385D02*
D03*
Y038385D02*
D03*
Y040385D02*
D03*
Y041385D02*
D03*
Y042385D02*
D03*
Y043385D02*
D03*
Y035385D02*
D03*
Y034385D02*
D03*
Y033385D02*
D03*
D42*
X036385Y024385D02*
D03*
X042385D02*
D03*
D43*
X068839Y05095D02*
D03*
X068889Y047534D02*
D03*
D44*
X068839Y049966D02*
D03*
X068889Y04655D02*
D03*
D45*
X063976Y03937D02*
D03*
Y019685D02*
D03*
X059055Y009843D02*
D03*
X054134Y03937D02*
D03*
X049213Y029528D02*
D03*
X054134Y019685D02*
D03*
X044291D02*
D03*
X034449D02*
D03*
X024606Y03937D02*
D03*
X019685Y029528D02*
D03*
Y009843D02*
D03*
X014764Y03937D02*
D03*
X009843Y029528D02*
D03*
Y009843D02*
D03*
D46*
X027536Y04155D02*
D03*
X040489Y0488D02*
D03*
X041939Y04875D02*
D03*
X042489Y0224D02*
D03*
X0378Y04345D02*
D03*
X042941Y0462D02*
D03*
X03376Y04723D02*
D03*
M02*
