G04*
G04 #@! TF.GenerationSoftware,Altium Limited,Altium Designer,21.3.2 (30)*
G04*
G04 Layer_Physical_Order=1*
G04 Layer_Color=255*
%FSTAX24Y24*%
%MOIN*%
G70*
G04*
G04 #@! TF.SameCoordinates,7536F4C1-D20E-4AD8-A34B-159FF933A109*
G04*
G04*
G04 #@! TF.FilePolarity,Positive*
G04*
G01*
G75*
%ADD47C,0.0197*%
%ADD48C,0.0591*%
%ADD49R,0.0551X0.0551*%
%ADD50C,0.0551*%
%ADD51R,0.0827X0.0827*%
%ADD52C,0.0827*%
%ADD53C,0.0900*%
%ADD54C,0.1500*%
%ADD55R,0.1500X0.1500*%
%ADD56C,0.0315*%
%ADD57C,0.0750*%
%ADD58O,0.0591X0.0512*%
%ADD59R,0.0591X0.0512*%
%ADD60R,0.0700X0.0600*%
%ADD61O,0.0700X0.0600*%
%ADD62O,0.0900X0.0650*%
%ADD63R,0.0900X0.0650*%
%ADD64O,0.0600X0.0900*%
%ADD65R,0.0600X0.0900*%
%ADD66R,0.0900X0.0600*%
%ADD67O,0.0900X0.0600*%
%ADD68O,0.0650X0.0750*%
%ADD69O,0.0750X0.0650*%
%ADD70O,0.0600X0.0700*%
%ADD71R,0.0600X0.0700*%
%ADD72C,0.0600*%
%ADD73R,0.0600X0.0600*%
%ADD74R,0.0700X0.0700*%
%ADD75C,0.0700*%
%ADD76C,0.0500*%
%ADD77C,0.0394*%
G36*
X045681Y045143D02*
Y044981D01*
X045664Y044959D01*
X045632Y044882D01*
X045621Y0448D01*
X045632Y044718D01*
X045664Y044641D01*
X045714Y044575D01*
X04578Y044525D01*
X045857Y044493D01*
X045939Y044482D01*
X046021Y044493D01*
X046055Y044507D01*
X046156Y044455D01*
X046173Y044434D01*
Y043728D01*
X046181Y043668D01*
Y043016D01*
X046164Y042995D01*
X046063Y042943D01*
X046029Y042957D01*
X045947Y042968D01*
X045865Y042957D01*
X045788Y042925D01*
X045722Y042875D01*
X045672Y042809D01*
X04564Y042732D01*
X045629Y04265D01*
X04564Y042568D01*
X045672Y042491D01*
X045722Y042425D01*
X045788Y042375D01*
X045865Y042343D01*
X045947Y042332D01*
X046029Y042343D01*
X046063Y042357D01*
X046164Y042305D01*
X046181Y042284D01*
Y04168D01*
X046173Y04162D01*
Y040966D01*
X046156Y040945D01*
X046055Y040893D01*
X046021Y040907D01*
X045939Y040918D01*
X045857Y040907D01*
X04578Y040875D01*
X045714Y040825D01*
X045664Y040759D01*
X045632Y040682D01*
X045621Y0406D01*
X045632Y040518D01*
X045664Y040441D01*
X045681Y040419D01*
Y038907D01*
X043406Y036633D01*
X043365Y036579D01*
X04334Y036517D01*
X043331Y03645D01*
Y033957D01*
X043017Y033643D01*
X042764D01*
X042711Y033711D01*
X042616Y033785D01*
X042522Y033823D01*
X042513Y033885D01*
X042522Y033947D01*
X042616Y033985D01*
X042711Y034059D01*
X042785Y034154D01*
X042831Y034266D01*
X042846Y034385D01*
X042831Y034504D01*
X042785Y034616D01*
X042711Y034711D01*
X042616Y034785D01*
X042522Y034823D01*
X042513Y034885D01*
X042522Y034947D01*
X042616Y034985D01*
X042711Y035059D01*
X042785Y035154D01*
X042831Y035266D01*
X042846Y035385D01*
X042831Y035504D01*
X042785Y035616D01*
X042711Y035711D01*
X042616Y035785D01*
X042522Y035823D01*
X042513Y035885D01*
X042522Y035947D01*
X042616Y035985D01*
X042711Y036059D01*
X042785Y036154D01*
X042831Y036266D01*
X042846Y036385D01*
X042835Y03647D01*
X044173Y037807D01*
X044214Y037861D01*
X044239Y037923D01*
X044248Y03799D01*
Y045144D01*
X044396Y045292D01*
X045532D01*
X045681Y045143D01*
D02*
G37*
G36*
X036881Y026092D02*
Y024945D01*
X036843Y024843D01*
X036763Y024843D01*
X036015D01*
X035928Y024843D01*
X035897Y024948D01*
Y025532D01*
X0363Y025935D01*
X036385Y025924D01*
X036504Y025939D01*
X036616Y025985D01*
X036711Y026059D01*
X036763Y026126D01*
X036881Y026092D01*
D02*
G37*
G36*
X07067Y010501D02*
X070551Y010453D01*
X070271Y010733D01*
X070218Y010774D01*
X070156Y010799D01*
X070089Y010808D01*
X069524D01*
X069458Y010894D01*
X069357Y010971D01*
X069322Y010986D01*
Y011114D01*
X069357Y011129D01*
X069458Y011206D01*
X069535Y011307D01*
X069584Y011424D01*
X069601Y01155D01*
X069584Y011676D01*
X069535Y011793D01*
X069458Y011894D01*
X069357Y011971D01*
X069322Y011986D01*
Y012114D01*
X069357Y012129D01*
X069458Y012206D01*
X069535Y012307D01*
X069584Y012424D01*
X069601Y01255D01*
X069584Y012676D01*
X069535Y012793D01*
X069458Y012894D01*
X069357Y012971D01*
X06924Y01302D01*
X069114Y013037D01*
X068864D01*
X068738Y01302D01*
X068621Y012971D01*
X06852Y012894D01*
X068515Y012888D01*
X068397Y012928D01*
Y014385D01*
X068826Y014814D01*
X068889Y014805D01*
X069002Y01482D01*
X069107Y014864D01*
X069198Y014933D01*
X069267Y015024D01*
X069311Y015129D01*
X069326Y015242D01*
X069311Y015355D01*
X069267Y015461D01*
X069198Y015551D01*
X069107Y01562D01*
X069002Y015664D01*
X068889Y015679D01*
X068776Y015664D01*
X068671Y01562D01*
X06858Y015551D01*
X068511Y015461D01*
X068467Y015355D01*
X068452Y015242D01*
X068461Y015179D01*
X068082Y0148D01*
X067955Y01484D01*
X067948Y014883D01*
X068017Y014974D01*
X068061Y015079D01*
X068076Y015192D01*
X068061Y015305D01*
X068017Y015411D01*
X067948Y015501D01*
X067857Y01557D01*
X067752Y015614D01*
X067639Y015629D01*
X067526Y015614D01*
X067421Y01557D01*
X06733Y015501D01*
X067261Y015411D01*
X067217Y015305D01*
X067202Y015192D01*
X067217Y015079D01*
X067261Y014974D01*
X06733Y014883D01*
X067353Y014866D01*
X067349Y014806D01*
X067248Y014769D01*
X067228Y014768D01*
X066817Y015179D01*
X066826Y015242D01*
X066811Y015355D01*
X066767Y015461D01*
X066698Y015551D01*
X066607Y01562D01*
X066502Y015664D01*
X066389Y015679D01*
X066276Y015664D01*
X066234Y015647D01*
X066116Y01572D01*
Y017012D01*
X066346Y017242D01*
X069489D01*
X069556Y017251D01*
X069618Y017276D01*
X069671Y017317D01*
X070121Y017767D01*
X070163Y017821D01*
X070188Y017883D01*
X070197Y01795D01*
Y0225D01*
X070188Y022567D01*
X070163Y022629D01*
X070121Y022683D01*
X069641Y023163D01*
X069588Y023204D01*
X069526Y023229D01*
X069459Y023238D01*
X061625D01*
X061558Y023229D01*
X061496Y023204D01*
X061442Y023163D01*
X061256Y022976D01*
X061215Y022923D01*
X06119Y022861D01*
X061181Y022794D01*
Y022773D01*
X061116Y022723D01*
X061044Y022628D01*
X060998Y022518D01*
X060982Y0224D01*
X060998Y022282D01*
X061044Y022172D01*
X061116Y022077D01*
X061181Y022027D01*
Y021838D01*
X060947Y021604D01*
X060937Y021609D01*
X060798Y021627D01*
X060659Y021609D01*
X060529Y021555D01*
X060418Y02147D01*
X060333Y021358D01*
X060279Y021229D01*
X060261Y02109D01*
X060279Y020951D01*
X060333Y020821D01*
X060418Y02071D01*
X060529Y020625D01*
X060659Y020571D01*
X060798Y020553D01*
X060937Y020571D01*
X061066Y020625D01*
X061178Y02071D01*
X061263Y020821D01*
X061317Y020951D01*
X061335Y02109D01*
X061317Y021229D01*
X061312Y021239D01*
X061621Y021548D01*
X061663Y021602D01*
X061688Y021664D01*
X061697Y021731D01*
Y022027D01*
X061762Y022077D01*
X061834Y022172D01*
X06188Y022282D01*
X061998D01*
X062043Y022172D01*
X062116Y022077D01*
X062181Y022027D01*
Y020869D01*
X060947Y019636D01*
X060937Y01964D01*
X060798Y019658D01*
X060659Y01964D01*
X060529Y019586D01*
X060418Y019501D01*
X060333Y01939D01*
X060279Y01926D01*
X060261Y019121D01*
X060279Y018982D01*
X060333Y018853D01*
X060418Y018741D01*
X060425Y018736D01*
X060385Y018618D01*
X0597D01*
X05966Y018736D01*
X059691Y01876D01*
X059776Y018871D01*
X05983Y019001D01*
X059848Y01914D01*
X05983Y019279D01*
X059776Y019408D01*
X059691Y01952D01*
X059579Y019605D01*
X05945Y019659D01*
X059311Y019677D01*
X059172Y019659D01*
X059042Y019605D01*
X058931Y01952D01*
X058846Y019408D01*
X058792Y019279D01*
X058774Y01914D01*
X058792Y019001D01*
X058846Y018871D01*
X058931Y01876D01*
X058962Y018736D01*
X058922Y018618D01*
X057949D01*
X057882Y018609D01*
X05782Y018584D01*
X057766Y018543D01*
X056977Y017754D01*
X056936Y0177D01*
X056911Y017638D01*
X056902Y017571D01*
Y005478D01*
X056402Y004978D01*
X052948D01*
X052886Y005092D01*
X05294Y005221D01*
X052958Y00536D01*
X05294Y005499D01*
X052886Y005629D01*
X052801Y00574D01*
X05269Y005825D01*
X05256Y005879D01*
X052421Y005897D01*
X052282Y005879D01*
X052153Y005825D01*
X052041Y00574D01*
X051956Y005629D01*
X051902Y005499D01*
X051885Y005367D01*
X051864Y005352D01*
X051771Y005314D01*
X051547Y005538D01*
Y0176D01*
X051538Y017667D01*
X051513Y017729D01*
X051471Y017783D01*
X050481Y018773D01*
X050428Y018814D01*
X050366Y018839D01*
X050299Y018848D01*
X042656D01*
X041137Y020367D01*
Y03941D01*
X041129Y039476D01*
X041103Y039539D01*
X041062Y039592D01*
X040086Y040568D01*
X040033Y040609D01*
X039971Y040634D01*
X039904Y040643D01*
X036764D01*
X036711Y040711D01*
X036616Y040785D01*
X036522Y040823D01*
X036513Y040885D01*
X036522Y040947D01*
X036616Y040985D01*
X036711Y041059D01*
X036785Y041154D01*
X036831Y041266D01*
X036846Y041385D01*
X036831Y041504D01*
X036785Y041616D01*
X036711Y041711D01*
X036616Y041785D01*
X036522Y041823D01*
X036513Y041885D01*
X036522Y041947D01*
X036616Y041985D01*
X036711Y042059D01*
X036785Y042154D01*
X036831Y042266D01*
X036846Y042385D01*
X036831Y042504D01*
X036805Y042566D01*
X03681Y042589D01*
X036867Y042673D01*
X03688Y042682D01*
X03829D01*
X038357Y042691D01*
X038419Y042716D01*
X038473Y042757D01*
X041462Y045747D01*
X041571Y045702D01*
Y038941D01*
X04158Y038874D01*
X041606Y038812D01*
X041647Y038758D01*
X041935Y03847D01*
X041924Y038385D01*
X041939Y038266D01*
X041985Y038154D01*
X042059Y038059D01*
X042154Y037985D01*
X042248Y037947D01*
X042257Y037885D01*
X042248Y037823D01*
X042154Y037785D01*
X042059Y037711D01*
X041985Y037616D01*
X041939Y037504D01*
X041924Y037385D01*
X041939Y037266D01*
X041985Y037154D01*
X042059Y037059D01*
X042154Y036985D01*
X042248Y036947D01*
X042257Y036885D01*
X042248Y036823D01*
X042154Y036785D01*
X042059Y036711D01*
X041985Y036616D01*
X041939Y036504D01*
X041924Y036385D01*
X041939Y036266D01*
X041985Y036154D01*
X042059Y036059D01*
X042154Y035985D01*
X042248Y035947D01*
X042257Y035885D01*
X042248Y035823D01*
X042154Y035785D01*
X042059Y035711D01*
X041985Y035616D01*
X041939Y035504D01*
X041924Y035385D01*
X041939Y035266D01*
X041985Y035154D01*
X042059Y035059D01*
X042154Y034985D01*
X042248Y034947D01*
X042257Y034885D01*
X042248Y034823D01*
X042154Y034785D01*
X042059Y034711D01*
X041985Y034616D01*
X041939Y034504D01*
X041924Y034385D01*
X041939Y034266D01*
X041985Y034154D01*
X042059Y034059D01*
X042154Y033985D01*
X042248Y033947D01*
X042257Y033885D01*
X042248Y033823D01*
X042154Y033785D01*
X042059Y033711D01*
X041985Y033616D01*
X041939Y033504D01*
X041924Y033385D01*
X041939Y033266D01*
X041985Y033154D01*
X042059Y033059D01*
X042154Y032985D01*
X042248Y032947D01*
X042257Y032885D01*
X042248Y032823D01*
X042154Y032785D01*
X042059Y032711D01*
X041985Y032616D01*
X041939Y032504D01*
X041924Y032385D01*
X041939Y032266D01*
X041985Y032154D01*
X042059Y032059D01*
X042154Y031985D01*
X042248Y031947D01*
X042257Y031885D01*
X042248Y031823D01*
X042154Y031785D01*
X042059Y031711D01*
X041985Y031616D01*
X041939Y031504D01*
X041924Y031385D01*
X041939Y031266D01*
X041985Y031154D01*
X042059Y031059D01*
X042154Y030985D01*
X042248Y030947D01*
X042257Y030885D01*
X042248Y030823D01*
X042154Y030785D01*
X042059Y030711D01*
X041985Y030616D01*
X041939Y030504D01*
X041924Y030385D01*
X041939Y030266D01*
X041985Y030154D01*
X042059Y030059D01*
X042154Y029985D01*
X042248Y029947D01*
X042257Y029885D01*
X042248Y029823D01*
X042154Y029785D01*
X042059Y029711D01*
X041985Y029616D01*
X041939Y029504D01*
X041924Y029385D01*
X041939Y029266D01*
X041985Y029154D01*
X042059Y029059D01*
X042154Y028985D01*
X042248Y028947D01*
X042257Y028885D01*
X042248Y028823D01*
X042154Y028785D01*
X042059Y028711D01*
X041985Y028616D01*
X041939Y028504D01*
X041924Y028385D01*
X041939Y028266D01*
X041985Y028154D01*
X042059Y028059D01*
X042154Y027985D01*
X042248Y027947D01*
X042257Y027885D01*
X042248Y027823D01*
X042154Y027785D01*
X042059Y027711D01*
X041985Y027616D01*
X041939Y027504D01*
X041924Y027385D01*
X041939Y027266D01*
X041985Y027154D01*
X042059Y027059D01*
X042154Y026985D01*
X042248Y026947D01*
X042257Y026885D01*
X042248Y026823D01*
X042154Y026785D01*
X042059Y026711D01*
X041985Y026616D01*
X041939Y026504D01*
X041924Y026385D01*
X041939Y026266D01*
X041985Y026154D01*
X042059Y026059D01*
X042154Y025985D01*
X042248Y025947D01*
X042257Y025885D01*
X042248Y025823D01*
X042154Y025785D01*
X042059Y025711D01*
X041985Y025616D01*
X041939Y025504D01*
X041924Y025385D01*
X041939Y025266D01*
X041985Y025154D01*
X042059Y025059D01*
X042154Y024985D01*
X042214Y024961D01*
X042191Y024843D01*
X041928D01*
Y023928D01*
X042683D01*
Y022959D01*
X04248Y022756D01*
X042396Y022745D01*
X04231Y02271D01*
X042236Y022653D01*
X042179Y022579D01*
X042144Y022492D01*
X042132Y0224D01*
X042144Y022308D01*
X042179Y022221D01*
X042236Y022147D01*
X04231Y02209D01*
X042396Y022055D01*
X042489Y022043D01*
X042581Y022055D01*
X042668Y02209D01*
X042742Y022147D01*
X042798Y022221D01*
X042834Y022308D01*
X042845Y022391D01*
X043123Y022669D01*
X043164Y022723D01*
X04319Y022785D01*
X043199Y022852D01*
Y028829D01*
X04319Y028896D01*
X043164Y028958D01*
X043123Y029012D01*
X042835Y0293D01*
X042846Y029385D01*
X042831Y029504D01*
X042785Y029616D01*
X042711Y029711D01*
X042616Y029785D01*
X042522Y029823D01*
X042513Y029885D01*
X042522Y029947D01*
X042616Y029985D01*
X042711Y030059D01*
X042785Y030154D01*
X042831Y030266D01*
X042846Y030385D01*
X042831Y030504D01*
X042785Y030616D01*
X042711Y030711D01*
X042616Y030785D01*
X042522Y030823D01*
X042513Y030885D01*
X042522Y030947D01*
X042616Y030985D01*
X042711Y031059D01*
X042785Y031154D01*
X042831Y031266D01*
X042846Y031385D01*
X042831Y031504D01*
X042785Y031616D01*
X042711Y031711D01*
X042616Y031785D01*
X042522Y031823D01*
X042513Y031885D01*
X042522Y031947D01*
X042616Y031985D01*
X042711Y032059D01*
X042764Y032127D01*
X043947D01*
X044331Y031743D01*
Y0289D01*
X04434Y028833D01*
X044365Y028771D01*
X044406Y028717D01*
X047606Y025517D01*
X04766Y025476D01*
X047722Y025451D01*
X047789Y025442D01*
X049508D01*
X04953Y025425D01*
X049607Y025393D01*
X049689Y025382D01*
X049771Y025393D01*
X049848Y025425D01*
X049914Y025475D01*
X049964Y025541D01*
X049996Y025618D01*
X050007Y0257D01*
X049996Y025782D01*
X049964Y025859D01*
X049924Y025946D01*
X049964Y026033D01*
X049996Y02611D01*
X050007Y026192D01*
X049996Y026274D01*
X049964Y026351D01*
X049914Y026417D01*
X049848Y026467D01*
X049771Y026499D01*
X049689Y02651D01*
X049607Y026499D01*
X04953Y026467D01*
X049508Y02645D01*
X048404D01*
X047697Y027157D01*
Y04015D01*
X047688Y040217D01*
X047663Y040279D01*
X047621Y040333D01*
X047171Y040783D01*
X047118Y040824D01*
X047056Y040849D01*
X046989Y040858D01*
X046689D01*
Y041568D01*
X046697Y041628D01*
Y042469D01*
X046714Y042491D01*
X046746Y042568D01*
X046757Y04265D01*
X046746Y042732D01*
X046714Y042809D01*
X046697Y042831D01*
Y04372D01*
X046689Y04378D01*
Y044619D01*
X046706Y044641D01*
X046738Y044718D01*
X046749Y0448D01*
X046738Y044882D01*
X046706Y044959D01*
X046656Y045025D01*
X04659Y045075D01*
X046513Y045107D01*
X046431Y045118D01*
X046349Y045107D01*
X046315Y045093D01*
X046214Y045145D01*
X046197Y045166D01*
Y04525D01*
X046188Y045317D01*
X046163Y045379D01*
X046121Y045433D01*
X045821Y045733D01*
X045768Y045774D01*
X045706Y045799D01*
X045639Y045808D01*
X044289D01*
X044222Y045799D01*
X04416Y045774D01*
X044106Y045733D01*
X043807Y045434D01*
X043766Y04538D01*
X043741Y045318D01*
X043732Y045251D01*
Y038097D01*
X042975Y03734D01*
X042866Y037387D01*
X042852Y037487D01*
X043123Y037758D01*
X043164Y037812D01*
X04319Y037874D01*
X043199Y037941D01*
Y045954D01*
X04325Y046021D01*
X043286Y046108D01*
X043298Y0462D01*
X043286Y046293D01*
X04325Y046379D01*
X043194Y046453D01*
X04312Y04651D01*
X043033Y046545D01*
X042941Y046557D01*
X042848Y046545D01*
X042762Y04651D01*
X042688Y046453D01*
X042631Y046379D01*
X042596Y046293D01*
X042584Y0462D01*
X042596Y046108D01*
X042631Y046021D01*
X042683Y045954D01*
Y043872D01*
X042565Y043806D01*
X042504Y043831D01*
X042385Y043846D01*
X042266Y043831D01*
X042205Y043806D01*
X042087Y043872D01*
Y048428D01*
X042118Y04844D01*
X042192Y048497D01*
X042248Y048571D01*
X042284Y048657D01*
X042296Y04875D01*
X042284Y048843D01*
X042248Y048929D01*
X042192Y049003D01*
X042118Y04906D01*
X042031Y049095D01*
X041939Y049107D01*
X041846Y049095D01*
X041812Y049081D01*
X041694Y049148D01*
Y049303D01*
X041686Y04937D01*
X04166Y049432D01*
X041619Y049485D01*
X041151Y049953D01*
X041098Y049994D01*
X041036Y050019D01*
X040969Y050028D01*
X030009D01*
X029942Y050019D01*
X02988Y049994D01*
X029826Y049953D01*
X029406Y049533D01*
X029365Y049479D01*
X02934Y049417D01*
X029331Y04935D01*
Y045947D01*
X02932Y045946D01*
X029208Y0459D01*
X029113Y045826D01*
X029039Y045731D01*
X028993Y045619D01*
X028978Y0455D01*
X028993Y045381D01*
X029039Y045269D01*
X029113Y045174D01*
X029208Y0451D01*
X029302Y045062D01*
X029311Y045D01*
X029302Y044938D01*
X029208Y0449D01*
X029113Y044826D01*
X029039Y044731D01*
X028993Y044619D01*
X028978Y0445D01*
X028993Y044381D01*
X029039Y044269D01*
X029113Y044174D01*
X029208Y0441D01*
X029302Y044062D01*
X029311Y044D01*
X029302Y043938D01*
X029208Y0439D01*
X029113Y043826D01*
X02906Y043758D01*
X027139D01*
X027072Y043749D01*
X02701Y043724D01*
X026956Y043683D01*
X026506Y043233D01*
X026465Y043179D01*
X02644Y043117D01*
X026431Y04305D01*
Y04D01*
X02644Y039933D01*
X026465Y039871D01*
X026506Y039817D01*
X029292Y037032D01*
Y036753D01*
X029292Y036752D01*
X029174Y036702D01*
X029117Y036745D01*
X029007Y036791D01*
X028889Y036807D01*
X028771Y036791D01*
X028661Y036745D01*
X028566Y036673D01*
X028516Y036608D01*
X026096D01*
X025498Y037206D01*
Y045749D01*
X025489Y045816D01*
X025464Y045878D01*
X025423Y045931D01*
X024762Y046592D01*
X024708Y046633D01*
X024646Y046659D01*
X024579Y046668D01*
X023137D01*
X023098Y046719D01*
X023007Y046788D01*
X022902Y046832D01*
X022789Y046847D01*
X022676Y046832D01*
X022571Y046788D01*
X02248Y046719D01*
X022411Y046628D01*
X022367Y046523D01*
X022352Y04641D01*
X022367Y046297D01*
X022411Y046191D01*
X02248Y046101D01*
X022571Y046032D01*
X022676Y045988D01*
X022789Y045973D01*
X022902Y045988D01*
X023007Y046032D01*
X023098Y046101D01*
X023137Y046152D01*
X024472D01*
X024982Y045642D01*
Y037099D01*
X024991Y037032D01*
X025016Y03697D01*
X025057Y036916D01*
X025806Y036167D01*
X02586Y036126D01*
X025922Y036101D01*
X025989Y036092D01*
X028516D01*
X028566Y036027D01*
X028661Y035955D01*
X028771Y035909D01*
Y035791D01*
X028661Y035745D01*
X028566Y035673D01*
X028493Y035578D01*
X028448Y035468D01*
X028432Y03535D01*
X028448Y035232D01*
X028493Y035122D01*
X028566Y035027D01*
X028661Y034955D01*
X028771Y034909D01*
X028889Y034893D01*
X029007Y034909D01*
X029117Y034955D01*
X029174Y034998D01*
X029292Y034948D01*
X029292Y034947D01*
Y032825D01*
X029174Y032764D01*
X029107Y032791D01*
X028989Y032807D01*
X028871Y032791D01*
X028761Y032745D01*
X028666Y032673D01*
X028593Y032578D01*
X028548Y032468D01*
X028532Y03235D01*
X028548Y032232D01*
X028593Y032122D01*
X028666Y032027D01*
X028761Y031955D01*
X028871Y031909D01*
Y031791D01*
X028761Y031745D01*
X028666Y031673D01*
X028593Y031578D01*
X028548Y031468D01*
X028532Y03135D01*
X028548Y031232D01*
X028593Y031122D01*
X028666Y031027D01*
X028761Y030955D01*
X028871Y030909D01*
X028989Y030893D01*
X029107Y030909D01*
X029217Y030955D01*
X029312Y031027D01*
X029384Y031122D01*
X02943Y031232D01*
X029446Y03135D01*
X029435Y031431D01*
X029733Y031729D01*
X029774Y031782D01*
X029799Y031844D01*
X029808Y031911D01*
Y032455D01*
X029853Y032485D01*
X029926Y032506D01*
X030017Y032436D01*
X030147Y032382D01*
X030286Y032364D01*
X030425Y032382D01*
X030555Y032436D01*
X030666Y032521D01*
X030751Y032632D01*
X030805Y032762D01*
X030823Y032901D01*
X030805Y03304D01*
X0308Y03305D01*
X031103Y033352D01*
X031144Y033406D01*
X031169Y033468D01*
X031178Y033535D01*
Y036519D01*
X031169Y036586D01*
X031144Y036648D01*
X031103Y036701D01*
X03089Y036914D01*
X030836Y036955D01*
X030806Y036968D01*
X030805Y036977D01*
X030751Y037106D01*
X030666Y037218D01*
X030555Y037303D01*
X030544Y037307D01*
Y03732D01*
X030535Y037387D01*
X03051Y037449D01*
X030469Y037503D01*
X029981Y03799D01*
X030008Y03813D01*
X030065Y038174D01*
X030139Y038269D01*
X030185Y038381D01*
X0302Y0385D01*
X030185Y038619D01*
X030139Y038731D01*
X030065Y038826D01*
X02997Y0389D01*
X029858Y038946D01*
X029739Y038961D01*
X029439D01*
X02932Y038946D01*
X029208Y0389D01*
X029113Y038826D01*
X029039Y038731D01*
X028993Y038619D01*
X028978Y0385D01*
X028993Y038381D01*
X029039Y038269D01*
X029113Y038174D01*
X029208Y0381D01*
X02932Y038054D01*
X029331Y038053D01*
Y038017D01*
X02934Y03795D01*
X029365Y037888D01*
X029406Y037835D01*
X029829Y037412D01*
X029815Y037283D01*
X029774Y037268D01*
X029733Y037321D01*
X026947Y040107D01*
Y042943D01*
X027246Y043242D01*
X02906D01*
X029113Y043174D01*
X029208Y0431D01*
X029302Y043062D01*
X029311Y043D01*
X029302Y042938D01*
X029208Y0429D01*
X029113Y042826D01*
X029039Y042731D01*
X028993Y042619D01*
X028978Y0425D01*
X028993Y042381D01*
X029039Y042269D01*
X029113Y042174D01*
X029208Y0421D01*
X029302Y042062D01*
X029311Y042D01*
X029302Y041938D01*
X029208Y0419D01*
X029113Y041826D01*
X02908Y041783D01*
X027804D01*
X027789Y041803D01*
X027715Y04186D01*
X027629Y041895D01*
X027536Y041907D01*
X027444Y041895D01*
X027358Y04186D01*
X027284Y041803D01*
X027227Y041729D01*
X027191Y041642D01*
X027179Y04155D01*
X027191Y041458D01*
X027227Y041371D01*
X027284Y041297D01*
X027358Y04124D01*
X027444Y041205D01*
X027536Y041193D01*
X027629Y041205D01*
X027715Y04124D01*
X027749Y041267D01*
X029041D01*
X029113Y041174D01*
X029208Y0411D01*
X029302Y041062D01*
X029311Y041D01*
X029302Y040938D01*
X029208Y0409D01*
X029113Y040826D01*
X029039Y040731D01*
X028993Y040619D01*
X028978Y0405D01*
X028993Y040381D01*
X029039Y040269D01*
X029113Y040174D01*
X029208Y0401D01*
X02932Y040054D01*
X029439Y040039D01*
X029739D01*
X029858Y040054D01*
X02997Y0401D01*
X030065Y040174D01*
X030118Y040242D01*
X030983D01*
X031332Y039893D01*
Y025707D01*
X025533Y019908D01*
X023262D01*
X023212Y019973D01*
X023117Y020045D01*
X023007Y020091D01*
Y020209D01*
X023117Y020255D01*
X023212Y020327D01*
X023284Y020422D01*
X02333Y020532D01*
X023346Y02065D01*
X02333Y020768D01*
X023284Y020878D01*
X023212Y020973D01*
X023117Y021045D01*
X023007Y021091D01*
X022889Y021107D01*
X022771Y021091D01*
X022661Y021045D01*
X022566Y020973D01*
X022533Y020929D01*
X022423Y02098D01*
X022437Y02109D01*
X022419Y021229D01*
X022365Y021358D01*
X02228Y02147D01*
X022169Y021555D01*
X022039Y021609D01*
X0219Y021627D01*
X021761Y021609D01*
X021632Y021555D01*
X02152Y02147D01*
X021435Y021358D01*
X021381Y021229D01*
X021363Y02109D01*
X021381Y020951D01*
X021435Y020821D01*
X02152Y02071D01*
X021632Y020625D01*
X021761Y020571D01*
X0219Y020553D01*
X022039Y020571D01*
X022169Y020625D01*
X02228Y02071D01*
X02233Y020775D01*
X022443Y020728D01*
X022432Y02065D01*
X022448Y020532D01*
X022494Y020422D01*
X022566Y020327D01*
X022661Y020255D01*
X022771Y020209D01*
Y020091D01*
X022661Y020045D01*
X022566Y019973D01*
X022494Y019878D01*
X022448Y019768D01*
X022432Y01965D01*
X022448Y019532D01*
X022478Y019459D01*
X022374Y019408D01*
X022289Y01952D01*
X022178Y019605D01*
X022048Y019659D01*
X021909Y019677D01*
X02177Y019659D01*
X021641Y019605D01*
X021529Y01952D01*
X021444Y019408D01*
X02139Y019279D01*
X021372Y01914D01*
X02139Y019001D01*
X021444Y018871D01*
X021529Y01876D01*
X021641Y018675D01*
X02177Y018621D01*
X021909Y018603D01*
X022048Y018621D01*
X022178Y018675D01*
X022289Y01876D01*
X022374Y018871D01*
X022428Y019001D01*
X022446Y01914D01*
X022428Y019279D01*
X02239Y019371D01*
X022494Y019422D01*
X022566Y019327D01*
X022631Y019277D01*
Y017692D01*
X022637Y017643D01*
X022619Y017618D01*
X022575Y017513D01*
X02256Y0174D01*
X022575Y017287D01*
X022619Y017182D01*
X022688Y017091D01*
X022778Y017022D01*
X022884Y016978D01*
X022997Y016963D01*
X02311Y016978D01*
X023215Y017022D01*
X023306Y017091D01*
X023375Y017182D01*
X023419Y017287D01*
X023434Y0174D01*
X023419Y017513D01*
X023375Y017618D01*
X023306Y017709D01*
X023215Y017778D01*
X023147Y017807D01*
Y019277D01*
X023212Y019327D01*
X023262Y019392D01*
X02564D01*
X025707Y019401D01*
X025769Y019426D01*
X025823Y019467D01*
X031773Y025417D01*
X031814Y025471D01*
X031839Y025533D01*
X031848Y0256D01*
Y04D01*
X031839Y040067D01*
X031814Y040129D01*
X031773Y040183D01*
X031273Y040683D01*
X031219Y040724D01*
X031157Y040749D01*
X03109Y040758D01*
X030118D01*
X030065Y040826D01*
X02997Y0409D01*
X029876Y040938D01*
X029867Y041D01*
X029876Y041062D01*
X02997Y0411D01*
X030065Y041174D01*
X030139Y041269D01*
X030185Y041381D01*
X0302Y0415D01*
X030185Y041619D01*
X030139Y041731D01*
X030065Y041826D01*
X02997Y0419D01*
X029876Y041938D01*
X029867Y042D01*
X029876Y042062D01*
X02997Y0421D01*
X030065Y042174D01*
X030139Y042269D01*
X030185Y042381D01*
X0302Y0425D01*
X030185Y042619D01*
X030139Y042731D01*
X030065Y042826D01*
X02997Y0429D01*
X029876Y042938D01*
X029867Y043D01*
X029876Y043062D01*
X02997Y0431D01*
X030065Y043174D01*
X030139Y043269D01*
X030185Y043381D01*
X0302Y0435D01*
X030185Y043619D01*
X030139Y043731D01*
X030065Y043826D01*
X02997Y0439D01*
X029876Y043938D01*
X029867Y044D01*
X029876Y044062D01*
X02997Y0441D01*
X030065Y044174D01*
X030139Y044269D01*
X030185Y044381D01*
X0302Y0445D01*
X030185Y044619D01*
X030139Y044731D01*
X030065Y044826D01*
X02997Y0449D01*
X029876Y044938D01*
X029867Y045D01*
X029876Y045062D01*
X02997Y0451D01*
X030065Y045174D01*
X030139Y045269D01*
X030185Y045381D01*
X0302Y0455D01*
X030185Y045619D01*
X030139Y045731D01*
X030065Y045826D01*
X02997Y0459D01*
X029858Y045946D01*
X029847Y045947D01*
Y049243D01*
X030116Y049512D01*
X040862D01*
X041178Y049196D01*
Y04863D01*
X04106Y048562D01*
X041003Y048586D01*
X040916Y048597D01*
X040847Y048681D01*
X040835Y048705D01*
X040835Y048714D01*
X040846Y0488D01*
X040834Y048892D01*
X040798Y048979D01*
X040742Y049053D01*
X040668Y04911D01*
X040581Y049145D01*
X040489Y049157D01*
X040409Y049147D01*
X040403Y049149D01*
X040336Y049158D01*
X039054D01*
X038987Y049149D01*
X038925Y049124D01*
X038872Y049083D01*
X038703Y048914D01*
X038662Y04886D01*
X038636Y048798D01*
X038627Y048731D01*
Y048518D01*
X038562Y048468D01*
X03849Y048373D01*
X038444Y048263D01*
X038326D01*
X038281Y048373D01*
X038208Y048468D01*
X038113Y04854D01*
X038003Y048586D01*
X037885Y048602D01*
X037767Y048586D01*
X037657Y04854D01*
X037562Y048468D01*
X03749Y048373D01*
X037444Y048263D01*
X037428Y048145D01*
X037444Y048027D01*
X03749Y047917D01*
X037562Y047822D01*
X037657Y047749D01*
X037767Y047704D01*
X037885Y047688D01*
X038003Y047704D01*
X038113Y047749D01*
X038208Y047822D01*
X038281Y047917D01*
X038326Y048027D01*
X038444D01*
X03849Y047917D01*
X038562Y047822D01*
X038657Y047749D01*
X038767Y047704D01*
Y047586D01*
X038657Y04754D01*
X038562Y047468D01*
X03849Y047373D01*
X038444Y047263D01*
X038428Y047145D01*
X038444Y047027D01*
X03849Y046917D01*
X038562Y046822D01*
X038657Y046749D01*
X038767Y046704D01*
X038885Y046688D01*
X038898Y04669D01*
X038953Y046578D01*
X037433Y045058D01*
X036189D01*
X036122Y045049D01*
X03606Y045024D01*
X036006Y044983D01*
X035637Y044614D01*
X035596Y04456D01*
X035571Y044498D01*
X035562Y044431D01*
Y03395D01*
X035571Y033883D01*
X035596Y033821D01*
X035637Y033768D01*
X035935Y03347D01*
X035924Y033385D01*
X035939Y033266D01*
X035985Y033154D01*
X036059Y033059D01*
X036154Y032985D01*
X036248Y032947D01*
X036257Y032885D01*
X036248Y032823D01*
X036154Y032785D01*
X036059Y032711D01*
X035985Y032616D01*
X035939Y032504D01*
X035924Y032385D01*
X035939Y032266D01*
X035985Y032154D01*
X036059Y032059D01*
X036154Y031985D01*
X036248Y031947D01*
X036257Y031885D01*
X036248Y031823D01*
X036154Y031785D01*
X036059Y031711D01*
X036006Y031643D01*
X034812D01*
X034018Y032437D01*
Y036022D01*
X034031Y036029D01*
X034136Y036052D01*
X034195Y035976D01*
X034296Y035899D01*
X034413Y03585D01*
X034539Y035833D01*
X034639D01*
X034765Y03585D01*
X034882Y035899D01*
X034983Y035976D01*
X03506Y036077D01*
X035109Y036194D01*
X035126Y03632D01*
X035109Y036446D01*
X03506Y036563D01*
X034983Y036664D01*
X034882Y036741D01*
X034871Y036746D01*
Y036874D01*
X034882Y036879D01*
X034983Y036956D01*
X03506Y037057D01*
X035109Y037174D01*
X035126Y0373D01*
X035109Y037426D01*
X03506Y037543D01*
X034983Y037644D01*
X034882Y037721D01*
X034835Y037741D01*
Y037869D01*
X034882Y037889D01*
X034983Y037966D01*
X03506Y038067D01*
X035109Y038184D01*
X035126Y03831D01*
X035109Y038436D01*
X03506Y038553D01*
X034983Y038654D01*
X034882Y038731D01*
X034765Y03878D01*
X034639Y038797D01*
X034539D01*
X034413Y03878D01*
X034296Y038731D01*
X034195Y038654D01*
X034136Y038578D01*
X034031Y038601D01*
X034018Y038608D01*
Y046984D01*
X03407Y047051D01*
X034105Y047137D01*
X034117Y04723D01*
X034105Y047323D01*
X03407Y047409D01*
X034013Y047483D01*
X033939Y04754D01*
X033853Y047575D01*
X03376Y047587D01*
X033668Y047575D01*
X033581Y04754D01*
X033507Y047483D01*
X03345Y047409D01*
X033415Y047323D01*
X033403Y04723D01*
X033415Y047137D01*
X03345Y047051D01*
X033502Y046984D01*
Y03233D01*
X033511Y032263D01*
X033536Y032201D01*
X033577Y032147D01*
X034522Y031203D01*
X034576Y031162D01*
X034638Y031136D01*
X034705Y031127D01*
X036006D01*
X036059Y031059D01*
X036154Y030985D01*
X036248Y030947D01*
X036257Y030885D01*
X036248Y030823D01*
X036154Y030785D01*
X036059Y030711D01*
X035985Y030616D01*
X035939Y030504D01*
X035924Y030385D01*
X035939Y030266D01*
X035985Y030154D01*
X036059Y030059D01*
X036154Y029985D01*
X036248Y029947D01*
X036257Y029885D01*
X036248Y029823D01*
X036154Y029785D01*
X036059Y029711D01*
X035985Y029616D01*
X035939Y029504D01*
X035924Y029385D01*
X035939Y029266D01*
X035985Y029154D01*
X036059Y029059D01*
X036154Y028985D01*
X036248Y028947D01*
X036257Y028885D01*
X036248Y028823D01*
X036154Y028785D01*
X036059Y028711D01*
X035985Y028616D01*
X035939Y028504D01*
X035924Y028385D01*
X035935Y0283D01*
X033396Y025761D01*
X033355Y025708D01*
X03333Y025646D01*
X033321Y025579D01*
Y02206D01*
X033235Y021994D01*
X033158Y021893D01*
X033109Y021776D01*
X033092Y02165D01*
Y02155D01*
X033109Y021424D01*
X033158Y021307D01*
X033235Y021206D01*
X033336Y021129D01*
X033453Y02108D01*
X033579Y021063D01*
X033705Y02108D01*
X033822Y021129D01*
X033923Y021206D01*
X034Y021307D01*
X03402Y021354D01*
X034148D01*
X034168Y021307D01*
X034245Y021206D01*
X034346Y021129D01*
X034463Y02108D01*
X034589Y021063D01*
X034715Y02108D01*
X034832Y021129D01*
X034933Y021206D01*
X03501Y021307D01*
X035059Y021424D01*
X035076Y02155D01*
Y02165D01*
X035059Y021776D01*
X03501Y021893D01*
X034933Y021994D01*
X034847Y02206D01*
Y025482D01*
X035795Y02643D01*
X035904Y026383D01*
X035919Y026284D01*
X035456Y025821D01*
X035415Y025768D01*
X03539Y025706D01*
X035381Y025639D01*
Y021307D01*
X034932Y020858D01*
X031847D01*
Y02114D01*
X031933Y021206D01*
X03201Y021307D01*
X032059Y021424D01*
X032076Y02155D01*
Y02165D01*
X032059Y021776D01*
X03201Y021893D01*
X031933Y021994D01*
X031832Y022071D01*
X031715Y02212D01*
X031589Y022137D01*
X031463Y02212D01*
X031346Y022071D01*
X031245Y021994D01*
X031168Y021893D01*
X031119Y021776D01*
X031102Y02165D01*
Y02155D01*
X031119Y021424D01*
X031168Y021307D01*
X031245Y021206D01*
X031331Y02114D01*
Y0206D01*
Y014707D01*
X02987Y013246D01*
X029789Y013257D01*
X029671Y013241D01*
X029561Y013195D01*
X029466Y013123D01*
X029427Y013072D01*
X029314Y013119D01*
X029327Y013216D01*
X029309Y013355D01*
X029255Y013484D01*
X02917Y013596D01*
X029058Y013681D01*
X028929Y013735D01*
X02879Y013753D01*
X028651Y013735D01*
X028521Y013681D01*
X02841Y013596D01*
X028325Y013484D01*
X028271Y013355D01*
X028253Y013216D01*
X028271Y013077D01*
X028325Y012947D01*
X02841Y012836D01*
X028521Y012751D01*
X028651Y012697D01*
X02879Y012679D01*
X028929Y012697D01*
X029058Y012751D01*
X02917Y012836D01*
X029228Y012912D01*
X029341Y012865D01*
X029332Y0128D01*
X029348Y012682D01*
X029393Y012572D01*
X029466Y012477D01*
X029561Y012405D01*
X029671Y012359D01*
Y012241D01*
X029561Y012195D01*
X029466Y012123D01*
X029393Y012028D01*
X029348Y011918D01*
X029332Y0118D01*
X029348Y011682D01*
X029393Y011572D01*
X029466Y011477D01*
X029561Y011405D01*
X029671Y011359D01*
X029789Y011343D01*
X029907Y011359D01*
X030017Y011405D01*
X030112Y011477D01*
X030184Y011572D01*
X03023Y011682D01*
X030246Y0118D01*
X030244Y011813D01*
X030356Y011868D01*
X030815Y011409D01*
Y010732D01*
X030805Y010728D01*
X030694Y010643D01*
X030608Y010532D01*
X030555Y010402D01*
X030536Y010263D01*
X030555Y010124D01*
X030608Y009994D01*
X030694Y009883D01*
X030805Y009798D01*
X030934Y009744D01*
X031073Y009726D01*
X031212Y009744D01*
X031342Y009798D01*
X031453Y009883D01*
X031539Y009994D01*
X031592Y010124D01*
X031611Y010263D01*
X031592Y010402D01*
X031539Y010532D01*
X031453Y010643D01*
X031342Y010728D01*
X031332Y010732D01*
Y011516D01*
X031323Y011582D01*
X031297Y011645D01*
X031256Y011698D01*
X030235Y012719D01*
X030246Y0128D01*
X030235Y012881D01*
X031771Y014417D01*
X031813Y014471D01*
X031838Y014533D01*
X031847Y0146D01*
Y020342D01*
X035039D01*
X035106Y020351D01*
X035168Y020376D01*
X035221Y020417D01*
X035821Y021017D01*
X035863Y021071D01*
X035888Y021133D01*
X035897Y0212D01*
Y023822D01*
X035928Y023928D01*
X036015Y023928D01*
X036763D01*
X036843Y023928D01*
X036881Y023825D01*
Y008871D01*
X03689Y008804D01*
X036915Y008742D01*
X036956Y008689D01*
X037317Y008327D01*
X037371Y008286D01*
X037433Y008261D01*
X0375Y008252D01*
X038282D01*
Y007893D01*
X039196D01*
Y008156D01*
X039315Y008179D01*
X039339Y008119D01*
X039413Y008024D01*
X039508Y00795D01*
X03962Y007904D01*
X039739Y007889D01*
X039858Y007904D01*
X03997Y00795D01*
X040065Y008024D01*
X040139Y008119D01*
X040177Y008213D01*
X040239Y008222D01*
X040301Y008213D01*
X040339Y008119D01*
X040413Y008024D01*
X040508Y00795D01*
X04062Y007904D01*
X040739Y007889D01*
X040858Y007904D01*
X04097Y00795D01*
X041065Y008024D01*
X041139Y008119D01*
X041177Y008213D01*
X041239Y008222D01*
X041301Y008213D01*
X041339Y008119D01*
X041413Y008024D01*
X041508Y00795D01*
X04162Y007904D01*
X041739Y007889D01*
X041858Y007904D01*
X04197Y00795D01*
X042065Y008024D01*
X042139Y008119D01*
X042177Y008213D01*
X042239Y008222D01*
X042301Y008213D01*
X042339Y008119D01*
X042406Y008032D01*
X039482Y005108D01*
X033427D01*
X030854Y007681D01*
X030921Y007781D01*
X030934Y007776D01*
X031073Y007757D01*
X031212Y007776D01*
X031342Y007829D01*
X031453Y007915D01*
X031539Y008026D01*
X031592Y008155D01*
X031611Y008294D01*
X031592Y008433D01*
X031539Y008563D01*
X031453Y008674D01*
X031342Y00876D01*
X031212Y008813D01*
X031073Y008832D01*
X030934Y008813D01*
X030805Y00876D01*
X030694Y008674D01*
X030608Y008563D01*
X030555Y008433D01*
X030536Y008294D01*
X030555Y008155D01*
X03056Y008142D01*
X03046Y008075D01*
X027928Y010607D01*
Y01318D01*
X027919Y013247D01*
X027894Y013309D01*
X027853Y013363D01*
X027183Y014033D01*
X027129Y014074D01*
X027067Y014099D01*
X027Y014108D01*
X021947D01*
X020948Y015107D01*
Y017199D01*
X020939Y017266D01*
X020914Y017328D01*
X020873Y017381D01*
X020031Y018223D01*
X019978Y018264D01*
X019916Y018289D01*
X019849Y018298D01*
X015579D01*
X015512Y018289D01*
X01545Y018264D01*
X015396Y018223D01*
X014806Y017633D01*
X014765Y017579D01*
X01474Y017517D01*
X014731Y01745D01*
Y015306D01*
X01468Y015267D01*
X014611Y015176D01*
X014567Y015071D01*
X014552Y014958D01*
X014567Y014845D01*
X014611Y014739D01*
X01468Y014649D01*
X014771Y01458D01*
X014876Y014536D01*
X014989Y014521D01*
X015102Y014536D01*
X015207Y01458D01*
X015298Y014649D01*
X015367Y014739D01*
X015411Y014845D01*
X015426Y014958D01*
X015411Y015071D01*
X015367Y015176D01*
X015298Y015267D01*
X015247Y015306D01*
Y017343D01*
X015686Y017782D01*
X019742D01*
X020432Y017092D01*
Y015D01*
X020441Y014933D01*
X020466Y014871D01*
X020507Y014817D01*
X021657Y013667D01*
X021711Y013626D01*
X021773Y013601D01*
X02184Y013592D01*
X024805D01*
X024805Y013474D01*
X024738Y013465D01*
X024676Y013439D01*
X024622Y013398D01*
X024256Y013033D01*
X024215Y012979D01*
X02419Y012917D01*
X024181Y01285D01*
Y011208D01*
X022312D01*
X022245Y011199D01*
X022183Y011174D01*
X022129Y011133D01*
X021774Y010777D01*
X021764Y010782D01*
X021625Y0108D01*
X021486Y010782D01*
X021356Y010728D01*
X021245Y010643D01*
X021159Y010532D01*
X021106Y010402D01*
X021088Y010263D01*
X021106Y010124D01*
X021159Y009994D01*
X021245Y009883D01*
X021356Y009798D01*
X021486Y009744D01*
X021625Y009726D01*
X021764Y009744D01*
X021893Y009798D01*
X022004Y009883D01*
X02209Y009994D01*
X022143Y010124D01*
X022162Y010263D01*
X022143Y010402D01*
X022139Y010412D01*
X022419Y010692D01*
X023575D01*
X023633Y010574D01*
X0236Y010532D01*
X023547Y010402D01*
X023528Y010263D01*
X023547Y010124D01*
X0236Y009994D01*
X023686Y009883D01*
X023797Y009798D01*
X023927Y009744D01*
X024066Y009726D01*
X024205Y009744D01*
X024334Y009798D01*
X024445Y009883D01*
X024531Y009994D01*
X024584Y010124D01*
X024602Y010255D01*
X024625Y010272D01*
X024716Y010308D01*
X026091Y008933D01*
Y00778D01*
X02608Y007775D01*
X025969Y00769D01*
X025884Y007579D01*
X02583Y007449D01*
X025812Y00731D01*
X02583Y007171D01*
X025884Y007042D01*
X025969Y00693D01*
X02608Y006845D01*
X02621Y006791D01*
X026349Y006773D01*
X026488Y006791D01*
X026618Y006845D01*
X026729Y00693D01*
X026814Y007042D01*
X026868Y007171D01*
X026886Y00731D01*
X026868Y007449D01*
X026814Y007579D01*
X026729Y00769D01*
X026618Y007775D01*
X026607Y00778D01*
Y00904D01*
X026598Y009107D01*
X026573Y009169D01*
X026532Y009222D01*
X025114Y01064D01*
X025157Y010764D01*
X025202Y01077D01*
X025307Y010814D01*
X025398Y010883D01*
X025467Y010974D01*
X025511Y011079D01*
X025526Y011192D01*
X025511Y011305D01*
X025467Y011411D01*
X025398Y011501D01*
X025307Y01157D01*
X025202Y011614D01*
X025089Y011629D01*
X024976Y011614D01*
X024871Y01157D01*
X024815Y011528D01*
X024704Y011573D01*
X024697Y011579D01*
Y012743D01*
X024912Y012958D01*
X02588D01*
X025884Y012947D01*
X025969Y012836D01*
X02608Y012751D01*
X02621Y012697D01*
X026349Y012679D01*
X026488Y012697D01*
X026618Y012751D01*
X026729Y012836D01*
X026814Y012947D01*
X026868Y013077D01*
X026886Y013216D01*
X026868Y013355D01*
X026858Y013379D01*
X026928Y013517D01*
X026958Y013524D01*
X026963Y013522D01*
X027412Y013073D01*
Y0105D01*
X027421Y010433D01*
X027446Y010371D01*
X027487Y010317D01*
X033137Y004667D01*
X033191Y004626D01*
X033253Y004601D01*
X03332Y004592D01*
X039589D01*
X039656Y004601D01*
X039718Y004626D01*
X039771Y004667D01*
X042921Y007817D01*
X042963Y007871D01*
X042988Y007933D01*
X042993Y007968D01*
X043065Y008024D01*
X043139Y008119D01*
X043177Y008213D01*
X043239Y008222D01*
X043301Y008213D01*
X043339Y008119D01*
X043413Y008024D01*
X043508Y00795D01*
X04362Y007904D01*
X043739Y007889D01*
X043858Y007904D01*
X04397Y00795D01*
X044065Y008024D01*
X044139Y008119D01*
X044177Y008213D01*
X044239Y008222D01*
X044301Y008213D01*
X044339Y008119D01*
X044413Y008024D01*
X044508Y00795D01*
X04462Y007904D01*
X044739Y007889D01*
X044858Y007904D01*
X04497Y00795D01*
X045065Y008024D01*
X045139Y008119D01*
X045185Y008231D01*
X0452Y00835D01*
Y00865D01*
X045185Y008769D01*
X045139Y008881D01*
X045065Y008976D01*
X04497Y00905D01*
X044858Y009096D01*
X044739Y009111D01*
X04462Y009096D01*
X044508Y00905D01*
X044413Y008976D01*
X044339Y008881D01*
X044301Y008787D01*
X044239Y008778D01*
X044177Y008787D01*
X044139Y008881D01*
X044065Y008976D01*
X04397Y00905D01*
X043858Y009096D01*
X043739Y009111D01*
X04362Y009096D01*
X043508Y00905D01*
X043413Y008976D01*
X043339Y008881D01*
X043301Y008787D01*
X043239Y008778D01*
X043177Y008787D01*
X043139Y008881D01*
X043065Y008976D01*
X04297Y00905D01*
X042858Y009096D01*
X042739Y009111D01*
X04262Y009096D01*
X042508Y00905D01*
X042413Y008976D01*
X042339Y008881D01*
X042301Y008787D01*
X042239Y008778D01*
X042177Y008787D01*
X042139Y008881D01*
X042065Y008976D01*
X04197Y00905D01*
X041858Y009096D01*
X041739Y009111D01*
X04162Y009096D01*
X041508Y00905D01*
X041413Y008976D01*
X041339Y008881D01*
X041301Y008787D01*
X041239Y008778D01*
X041177Y008787D01*
X041139Y008881D01*
X041065Y008976D01*
X04097Y00905D01*
X040858Y009096D01*
X040739Y009111D01*
X04062Y009096D01*
X040508Y00905D01*
X040413Y008976D01*
X040339Y008881D01*
X040301Y008787D01*
X040239Y008778D01*
X040177Y008787D01*
X040139Y008881D01*
X040065Y008976D01*
X03997Y00905D01*
X039896Y00908D01*
X039885Y009106D01*
X039844Y00916D01*
X037947Y011057D01*
Y034081D01*
X037938Y034148D01*
X037913Y03421D01*
X037871Y034264D01*
X036835Y0353D01*
X036846Y035385D01*
X036831Y035504D01*
X036785Y035616D01*
X036711Y035711D01*
X036616Y035785D01*
X036522Y035823D01*
X036513Y035885D01*
X036522Y035947D01*
X036616Y035985D01*
X036711Y036059D01*
X036764Y036127D01*
X038147D01*
X038631Y035643D01*
Y01955D01*
X03864Y019483D01*
X038665Y019421D01*
X038706Y019367D01*
X045481Y012593D01*
Y012029D01*
X045413Y011976D01*
X045339Y011881D01*
X045301Y011787D01*
X045239Y011778D01*
X045177Y011787D01*
X045139Y011881D01*
X045065Y011976D01*
X04497Y01205D01*
X044858Y012096D01*
X044739Y012111D01*
X04462Y012096D01*
X044508Y01205D01*
X044413Y011976D01*
X044339Y011881D01*
X044301Y011787D01*
X044239Y011778D01*
X044177Y011787D01*
X044139Y011881D01*
X044065Y011976D01*
X04397Y01205D01*
X043858Y012096D01*
X043739Y012111D01*
X04362Y012096D01*
X043508Y01205D01*
X043413Y011976D01*
X043339Y011881D01*
X043301Y011787D01*
X043239Y011778D01*
X043177Y011787D01*
X043139Y011881D01*
X043065Y011976D01*
X04297Y01205D01*
X042858Y012096D01*
X042739Y012111D01*
X04262Y012096D01*
X042508Y01205D01*
X042413Y011976D01*
X042339Y011881D01*
X042301Y011787D01*
X042239Y011778D01*
X042177Y011787D01*
X042139Y011881D01*
X042065Y011976D01*
X04197Y01205D01*
X041858Y012096D01*
X041739Y012111D01*
X04162Y012096D01*
X041508Y01205D01*
X041413Y011976D01*
X041339Y011881D01*
X041301Y011787D01*
X041239Y011778D01*
X041177Y011787D01*
X041139Y011881D01*
X041065Y011976D01*
X04097Y01205D01*
X040858Y012096D01*
X040739Y012111D01*
X04062Y012096D01*
X040508Y01205D01*
X040413Y011976D01*
X040339Y011881D01*
X040293Y011769D01*
X040278Y01165D01*
Y01135D01*
X040293Y011231D01*
X040339Y011119D01*
X040413Y011024D01*
X040508Y01095D01*
X04062Y010904D01*
X040739Y010889D01*
X040858Y010904D01*
X04097Y01095D01*
X041065Y011024D01*
X041139Y011119D01*
X041177Y011213D01*
X041239Y011222D01*
X041301Y011213D01*
X041339Y011119D01*
X041413Y011024D01*
X041508Y01095D01*
X04162Y010904D01*
X041739Y010889D01*
X041858Y010904D01*
X04197Y01095D01*
X042065Y011024D01*
X042139Y011119D01*
X042177Y011213D01*
X042239Y011222D01*
X042301Y011213D01*
X042339Y011119D01*
X042413Y011024D01*
X042481Y010971D01*
Y01075D01*
X04249Y010683D01*
X042515Y010621D01*
X042556Y010567D01*
X042906Y010217D01*
X04296Y010176D01*
X043022Y010151D01*
X043089Y010142D01*
X046132D01*
X046431Y009843D01*
Y004257D01*
X045832Y003658D01*
X028996D01*
X028647Y004007D01*
Y004724D01*
X028765Y004828D01*
X028799Y004823D01*
X028938Y004841D01*
X029068Y004895D01*
X029179Y00498D01*
X029264Y005092D01*
X029318Y005221D01*
X029336Y00536D01*
X029318Y005499D01*
X029264Y005629D01*
X029179Y00574D01*
X029068Y005825D01*
X028938Y005879D01*
X028799Y005897D01*
X02866Y005879D01*
X02853Y005825D01*
X028419Y00574D01*
X028334Y005629D01*
X02828Y005499D01*
X028262Y00536D01*
X028278Y005239D01*
X028206Y005168D01*
X028165Y005114D01*
X02814Y005052D01*
X028131Y004985D01*
Y0039D01*
X02814Y003833D01*
X028165Y003771D01*
X028206Y003717D01*
X028706Y003217D01*
X02876Y003176D01*
X028822Y003151D01*
X028889Y003142D01*
X045939D01*
X046006Y003151D01*
X046068Y003176D01*
X046121Y003217D01*
X046871Y003967D01*
X046913Y004021D01*
X046938Y004083D01*
X046947Y00415D01*
Y00995D01*
X046938Y010017D01*
X046913Y010079D01*
X046871Y010133D01*
X046421Y010583D01*
X046368Y010624D01*
X046306Y010649D01*
X046239Y010658D01*
X043196D01*
X042997Y010857D01*
Y010971D01*
X043065Y011024D01*
X043139Y011119D01*
X043177Y011213D01*
X043239Y011222D01*
X043301Y011213D01*
X043339Y011119D01*
X043413Y011024D01*
X043508Y01095D01*
X04362Y010904D01*
X043739Y010889D01*
X043858Y010904D01*
X04397Y01095D01*
X044065Y011024D01*
X044139Y011119D01*
X044177Y011213D01*
X044239Y011222D01*
X044301Y011213D01*
X044339Y011119D01*
X044413Y011024D01*
X044508Y01095D01*
X04462Y010904D01*
X044739Y010889D01*
X044858Y010904D01*
X04497Y01095D01*
X045065Y011024D01*
X045139Y011119D01*
X045177Y011213D01*
X045239Y011222D01*
X045301Y011213D01*
X045339Y011119D01*
X045413Y011024D01*
X045508Y01095D01*
X04562Y010904D01*
X045739Y010889D01*
X045858Y010904D01*
X04597Y01095D01*
X046065Y011024D01*
X046139Y011119D01*
X046185Y011231D01*
X0462Y01135D01*
Y01165D01*
X046185Y011769D01*
X046139Y011881D01*
X046065Y011976D01*
X045997Y012029D01*
Y0127D01*
X045988Y012767D01*
X045963Y012829D01*
X045921Y012883D01*
X039147Y019657D01*
Y03575D01*
X039138Y035817D01*
X039113Y035879D01*
X039071Y035933D01*
X038436Y036568D01*
X038383Y036609D01*
X038321Y036634D01*
X038254Y036643D01*
X036764D01*
X036711Y036711D01*
X036616Y036785D01*
X036522Y036823D01*
X036513Y036885D01*
X036522Y036947D01*
X036616Y036985D01*
X036711Y037059D01*
X036785Y037154D01*
X036831Y037266D01*
X036846Y037385D01*
X036831Y037504D01*
X036785Y037616D01*
X036711Y037711D01*
X036616Y037785D01*
X036522Y037823D01*
X036513Y037885D01*
X036522Y037947D01*
X036616Y037985D01*
X036711Y038059D01*
X036785Y038154D01*
X036831Y038266D01*
X036846Y038385D01*
X036831Y038504D01*
X036785Y038616D01*
X036711Y038711D01*
X036616Y038785D01*
X036522Y038823D01*
X036513Y038885D01*
X036522Y038947D01*
X036616Y038985D01*
X036711Y039059D01*
X036775Y039142D01*
X038782D01*
X039631Y038293D01*
Y01995D01*
X03964Y019883D01*
X039665Y019821D01*
X039706Y019767D01*
X047992Y011482D01*
Y005D01*
X048001Y004933D01*
X048026Y004871D01*
X048067Y004817D01*
X048917Y003967D01*
X048971Y003926D01*
X049033Y003901D01*
X0491Y003892D01*
X060139D01*
X060206Y003901D01*
X060268Y003926D01*
X060321Y003967D01*
X060971Y004617D01*
X061013Y004671D01*
X061038Y004733D01*
X061047Y0048D01*
Y010893D01*
X061396Y011242D01*
X06281D01*
X062863Y011174D01*
X062958Y0111D01*
X063052Y011062D01*
X063061Y011D01*
X063052Y010938D01*
X062958Y0109D01*
X062863Y010826D01*
X062789Y010731D01*
X062743Y010619D01*
X06274Y010596D01*
X062621D01*
X062619Y010613D01*
X062575Y010718D01*
X062506Y010809D01*
X062415Y010878D01*
X06231Y010922D01*
X062197Y010937D01*
X062084Y010922D01*
X061978Y010878D01*
X061888Y010809D01*
X061819Y010718D01*
X061775Y010613D01*
X06176Y0105D01*
X061775Y010387D01*
X061819Y010282D01*
X061888Y010191D01*
X061978Y010122D01*
X062084Y010078D01*
X062197Y010063D01*
X06231Y010078D01*
X062415Y010122D01*
X062506Y010191D01*
X062575Y010282D01*
X062619Y010387D01*
X062621Y010404D01*
X06274D01*
X062743Y010381D01*
X062789Y010269D01*
X062863Y010174D01*
X062958Y0101D01*
X063052Y010062D01*
X063061Y01D01*
X063052Y009938D01*
X062958Y0099D01*
X062863Y009826D01*
X062789Y009731D01*
X062743Y009619D01*
X062728Y0095D01*
X062743Y009381D01*
X062789Y009269D01*
X062863Y009174D01*
X062958Y0091D01*
X063052Y009062D01*
X063061Y009D01*
X063052Y008938D01*
X062958Y0089D01*
X062863Y008826D01*
X062789Y008731D01*
X062743Y008619D01*
X062728Y0085D01*
X062743Y008381D01*
X062789Y008269D01*
X062863Y008174D01*
X062958Y0081D01*
X063052Y008062D01*
X063061Y008D01*
X063052Y007938D01*
X062958Y0079D01*
X062863Y007826D01*
X062789Y007731D01*
X062743Y007619D01*
X062728Y0075D01*
X062743Y007381D01*
X062789Y007269D01*
X062863Y007174D01*
X062958Y0071D01*
X063052Y007062D01*
X063061Y007D01*
X063052Y006938D01*
X062958Y0069D01*
X062863Y006826D01*
X062789Y006731D01*
X062743Y006619D01*
X062728Y0065D01*
X062743Y006381D01*
X062789Y006269D01*
X062863Y006174D01*
X062958Y0061D01*
X06307Y006054D01*
X063189Y006039D01*
X063489D01*
X063608Y006054D01*
X06372Y0061D01*
X063815Y006174D01*
X063889Y006269D01*
X063935Y006381D01*
X06395Y0065D01*
X063935Y006619D01*
X063889Y006731D01*
X063815Y006826D01*
X06372Y0069D01*
X063626Y006938D01*
X063617Y007D01*
X063626Y007062D01*
X06372Y0071D01*
X063815Y007174D01*
X063889Y007269D01*
X063935Y007381D01*
X06395Y0075D01*
X063935Y007619D01*
X063889Y007731D01*
X063815Y007826D01*
X06372Y0079D01*
X063626Y007938D01*
X063617Y008D01*
X063626Y008062D01*
X06372Y0081D01*
X063815Y008174D01*
X063889Y008269D01*
X063935Y008381D01*
X06395Y0085D01*
X063935Y008619D01*
X063889Y008731D01*
X063815Y008826D01*
X06372Y0089D01*
X063626Y008938D01*
X063617Y009D01*
X063626Y009062D01*
X06372Y0091D01*
X063815Y009174D01*
X063868Y009242D01*
X064132D01*
X064281Y009093D01*
Y0034D01*
X06429Y003333D01*
X064315Y003271D01*
X064356Y003217D01*
X064864Y00271D01*
X064819Y002601D01*
X008101D01*
Y053359D01*
X07067D01*
Y010501D01*
D02*
G37*
G36*
X069681Y022393D02*
Y018057D01*
X069382Y017758D01*
X066239D01*
X066172Y017749D01*
X06611Y017724D01*
X066056Y017683D01*
X065675Y017301D01*
X065634Y017248D01*
X065608Y017185D01*
X065599Y017119D01*
Y014618D01*
X065592Y014561D01*
Y01263D01*
X065601Y012563D01*
X065626Y012501D01*
X065667Y012447D01*
X06575Y012365D01*
X065789Y012269D01*
X065863Y012174D01*
X065958Y0121D01*
X06607Y012054D01*
X066189Y012039D01*
X066489D01*
X066608Y012054D01*
X066674Y012081D01*
X066792Y012018D01*
Y010993D01*
X066777Y010974D01*
X066674Y010919D01*
X066608Y010946D01*
X066489Y010961D01*
X066189D01*
X06607Y010946D01*
X065958Y0109D01*
X065863Y010826D01*
X065789Y010731D01*
X065743Y010619D01*
X065728Y0105D01*
X065743Y010381D01*
X065789Y010269D01*
X065863Y010174D01*
X065958Y0101D01*
X066052Y010062D01*
X066061Y01D01*
X066052Y009938D01*
X065958Y0099D01*
X065863Y009826D01*
X065789Y009731D01*
X065743Y009619D01*
X065728Y0095D01*
X065743Y009381D01*
X065789Y009269D01*
X065863Y009174D01*
X065958Y0091D01*
X066052Y009062D01*
X066061Y009D01*
X066052Y008938D01*
X065958Y0089D01*
X065863Y008826D01*
X065789Y008731D01*
X065743Y008619D01*
X065728Y0085D01*
X065743Y008381D01*
X065789Y008269D01*
X065863Y008174D01*
X065958Y0081D01*
X066052Y008062D01*
X066061Y008D01*
X066052Y007938D01*
X065958Y0079D01*
X065863Y007826D01*
X065789Y007731D01*
X065743Y007619D01*
X065728Y0075D01*
X065743Y007381D01*
X065789Y007269D01*
X065863Y007174D01*
X065958Y0071D01*
X066052Y007062D01*
X066061Y007D01*
X066052Y006938D01*
X065958Y0069D01*
X065863Y006826D01*
X065789Y006731D01*
X065743Y006619D01*
X065728Y0065D01*
X065743Y006381D01*
X065789Y006269D01*
X065863Y006174D01*
X065958Y0061D01*
X066052Y006062D01*
X066061Y006D01*
X066052Y005938D01*
X065958Y0059D01*
X065863Y005826D01*
X065789Y005731D01*
X065743Y005619D01*
X065728Y0055D01*
X065743Y005381D01*
X065789Y005269D01*
X065863Y005174D01*
X065958Y0051D01*
X06607Y005054D01*
X066189Y005039D01*
X066489D01*
X066608Y005054D01*
X06672Y0051D01*
X066815Y005174D01*
X066889Y005269D01*
X066935Y005381D01*
X06695Y0055D01*
X066935Y005619D01*
X066889Y005731D01*
X066815Y005826D01*
X06672Y0059D01*
X066626Y005938D01*
X066617Y006D01*
X066626Y006062D01*
X06672Y0061D01*
X066815Y006174D01*
X066889Y006269D01*
X066935Y006381D01*
X06695Y0065D01*
X066935Y006619D01*
X066889Y006731D01*
X066815Y006826D01*
X06672Y0069D01*
X066626Y006938D01*
X066617Y007D01*
X066626Y007062D01*
X06672Y0071D01*
X066815Y007174D01*
X066833Y007197D01*
X06697Y007204D01*
X067081Y007093D01*
Y0061D01*
X06709Y006033D01*
X067115Y005971D01*
X067156Y005917D01*
X067528Y005546D01*
X067164Y005183D01*
X067123Y005129D01*
X067098Y005067D01*
X067089Y005D01*
Y004048D01*
X067038Y004009D01*
X066969Y003918D01*
X066925Y003813D01*
X06691Y0037D01*
X066925Y003587D01*
X066969Y003482D01*
X067002Y003438D01*
X066944Y00332D01*
X066199D01*
X065547Y003972D01*
Y00995D01*
X065538Y010017D01*
X065513Y010079D01*
X065471Y010133D01*
X064921Y010683D01*
X064868Y010724D01*
X064806Y010749D01*
X064739Y010758D01*
X063868D01*
X063815Y010826D01*
X06372Y0109D01*
X063626Y010938D01*
X063617Y011D01*
X063626Y011062D01*
X06372Y0111D01*
X063815Y011174D01*
X063889Y011269D01*
X063935Y011381D01*
X06395Y0115D01*
X063935Y011619D01*
X063889Y011731D01*
X063815Y011826D01*
X06372Y0119D01*
X06366Y011924D01*
X063683Y012043D01*
X063946D01*
Y012957D01*
X063103D01*
Y017244D01*
X063094Y017311D01*
X063069Y017373D01*
X063028Y017426D01*
X061911Y018543D01*
X061858Y018584D01*
X061796Y018609D01*
X061729Y018618D01*
X061211D01*
X061171Y018736D01*
X061178Y018741D01*
X061263Y018853D01*
X061267Y018863D01*
X061823D01*
X063169Y017517D01*
X063222Y017476D01*
X063284Y017451D01*
X063351Y017442D01*
X064249D01*
X064288Y017391D01*
X064378Y017322D01*
X064484Y017278D01*
X064597Y017263D01*
X06471Y017278D01*
X064815Y017322D01*
X064906Y017391D01*
X064975Y017482D01*
X065019Y017587D01*
X065034Y0177D01*
X065019Y017813D01*
X064975Y017918D01*
X064906Y018009D01*
X064815Y018078D01*
X06471Y018122D01*
X064597Y018137D01*
X064484Y018122D01*
X064378Y018078D01*
X064288Y018009D01*
X064249Y017958D01*
X063458D01*
X062113Y019304D01*
X062059Y019345D01*
X061997Y019371D01*
X06193Y019379D01*
X061575D01*
X06153Y019488D01*
X062621Y02058D01*
X062663Y020633D01*
X062688Y020696D01*
X062693Y020732D01*
X062771Y020765D01*
X062815Y020767D01*
X062859Y02071D01*
X06297Y020625D01*
X0631Y020571D01*
X063239Y020553D01*
X063378Y020571D01*
X063507Y020625D01*
X063619Y02071D01*
X063704Y020821D01*
X063758Y020951D01*
X063776Y02109D01*
X063758Y021229D01*
X063704Y021358D01*
X063619Y02147D01*
X063507Y021555D01*
X063378Y021609D01*
X063239Y021627D01*
X0631Y021609D01*
X06297Y021555D01*
X062859Y02147D01*
X062815Y021412D01*
X062697Y021453D01*
Y022027D01*
X062762Y022077D01*
X062834Y022172D01*
X06288Y022282D01*
X062896Y0224D01*
X06288Y022518D01*
X062845Y022604D01*
X062895Y022722D01*
X069352D01*
X069681Y022393D01*
D02*
G37*
G36*
X062587Y017137D02*
Y0125D01*
X062596Y012433D01*
X062621Y012371D01*
X062662Y012317D01*
X062716Y012276D01*
X062731Y01227D01*
Y012043D01*
X062995D01*
X063018Y011924D01*
X062958Y0119D01*
X062863Y011826D01*
X06281Y011758D01*
X061289D01*
X061222Y011749D01*
X06116Y011724D01*
X061106Y011683D01*
X060606Y011183D01*
X060565Y011129D01*
X06054Y011067D01*
X060531Y011D01*
Y004907D01*
X060032Y004408D01*
X056717D01*
X056677Y004526D01*
X056691Y004537D01*
X057343Y005189D01*
X057384Y005242D01*
X057409Y005304D01*
X057418Y005371D01*
Y017464D01*
X058056Y018102D01*
X061622D01*
X062587Y017137D01*
D02*
G37*
%LPC*%
G36*
X064196Y051807D02*
X062382D01*
Y049993D01*
X063031D01*
Y049046D01*
X062393Y048408D01*
X062122D01*
Y049253D01*
X061256D01*
Y048387D01*
X061256D01*
X061269Y048269D01*
X061267Y048263D01*
X061252Y04815D01*
X061267Y048037D01*
X061311Y047932D01*
X06138Y047841D01*
X061471Y047772D01*
X061576Y047728D01*
X061689Y047713D01*
X061802Y047728D01*
X061907Y047772D01*
X061998Y047841D01*
X062037Y047892D01*
X0625D01*
X062567Y047901D01*
X062629Y047926D01*
X062683Y047967D01*
X063471Y048756D01*
X063513Y04881D01*
X063538Y048872D01*
X063547Y048939D01*
Y049993D01*
X064196D01*
Y051807D01*
D02*
G37*
G36*
X023846Y051557D02*
X022032D01*
Y049743D01*
X023072D01*
Y048853D01*
X022356D01*
Y047987D01*
X022356D01*
X022369Y047869D01*
X022367Y047863D01*
X022352Y04775D01*
X022367Y047637D01*
X022411Y047532D01*
X02248Y047441D01*
X022571Y047372D01*
X022676Y047328D01*
X022789Y047313D01*
X022902Y047328D01*
X023007Y047372D01*
X023098Y047441D01*
X023143Y0475D01*
X023147Y047501D01*
X023209Y047526D01*
X023263Y047567D01*
X023513Y047817D01*
X023554Y047871D01*
X023579Y047933D01*
X023588Y048D01*
Y049743D01*
X023846D01*
Y051557D01*
D02*
G37*
G36*
X06521Y04896D02*
X064068D01*
Y047818D01*
X06521D01*
Y04896D01*
D02*
G37*
G36*
X036242Y048613D02*
X035336D01*
Y047787D01*
X036242D01*
Y048613D01*
D02*
G37*
G36*
X058739Y04886D02*
X05862Y048849D01*
X058505Y048814D01*
X0584Y048758D01*
X058307Y048682D01*
X058231Y048589D01*
X058175Y048484D01*
X05814Y048369D01*
X058129Y04825D01*
X05814Y048131D01*
X058175Y048016D01*
X058231Y047911D01*
X058307Y047818D01*
X0584Y047742D01*
X058505Y047686D01*
X05862Y047651D01*
X058739Y04764D01*
X058858Y047651D01*
X058973Y047686D01*
X059078Y047742D01*
X059171Y047818D01*
X059247Y047911D01*
X059303Y048016D01*
X059338Y048131D01*
X059349Y04825D01*
X059338Y048369D01*
X059303Y048484D01*
X059247Y048589D01*
X059171Y048682D01*
X059078Y048758D01*
X058973Y048814D01*
X058858Y048849D01*
X058739Y04886D01*
D02*
G37*
G36*
X02671Y04846D02*
X025568D01*
Y047318D01*
X02671D01*
Y04846D01*
D02*
G37*
G36*
X019789Y04846D02*
X01967Y048449D01*
X019555Y048414D01*
X01945Y048358D01*
X019357Y048282D01*
X019281Y048189D01*
X019225Y048084D01*
X01919Y047969D01*
X019179Y04785D01*
X01919Y047731D01*
X019225Y047616D01*
X019281Y047511D01*
X019357Y047418D01*
X01945Y047342D01*
X019555Y047286D01*
X01967Y047251D01*
X019789Y04724D01*
X019908Y047251D01*
X020023Y047286D01*
X020128Y047342D01*
X020221Y047418D01*
X020297Y047511D01*
X020353Y047616D01*
X020388Y047731D01*
X020399Y04785D01*
X020388Y047969D01*
X020353Y048084D01*
X020297Y048189D01*
X020221Y048282D01*
X020128Y048358D01*
X020023Y048414D01*
X019908Y048449D01*
X019789Y04846D01*
D02*
G37*
G36*
X061689Y047247D02*
X061576Y047232D01*
X061471Y047188D01*
X06138Y047119D01*
X061311Y047028D01*
X061267Y046923D01*
X061252Y04681D01*
X061267Y046697D01*
X061311Y046591D01*
X06138Y046501D01*
X061471Y046432D01*
X061576Y046388D01*
X061689Y046373D01*
X061802Y046388D01*
X061907Y046432D01*
X061998Y046501D01*
X062067Y046591D01*
X062111Y046697D01*
X062126Y04681D01*
X062111Y046923D01*
X062067Y047028D01*
X061998Y047119D01*
X061907Y047188D01*
X061802Y047232D01*
X061689Y047247D01*
D02*
G37*
G36*
X050089Y046979D02*
X049976Y046964D01*
X049871Y04692D01*
X04978Y046851D01*
X049711Y046761D01*
X049667Y046655D01*
X049652Y046542D01*
X049667Y046429D01*
X049711Y046324D01*
X04978Y046233D01*
X049871Y046164D01*
X049976Y04612D01*
X050089Y046105D01*
X050202Y04612D01*
X050307Y046164D01*
X050398Y046233D01*
X050467Y046324D01*
X050511Y046429D01*
X050526Y046542D01*
X050511Y046655D01*
X050467Y046761D01*
X050398Y046851D01*
X050307Y04692D01*
X050202Y046964D01*
X050089Y046979D01*
D02*
G37*
G36*
X051389Y047061D02*
X05127Y047046D01*
X051158Y047D01*
X051063Y046926D01*
X050989Y046831D01*
X050943Y046719D01*
X050928Y0466D01*
Y0465D01*
X050943Y046381D01*
X050989Y046269D01*
X051063Y046174D01*
X051158Y0461D01*
X05127Y046054D01*
X051389Y046039D01*
X051508Y046054D01*
X05162Y0461D01*
X051715Y046174D01*
X051789Y046269D01*
X051813Y046329D01*
X051932Y046306D01*
Y046043D01*
X052846D01*
Y047057D01*
X051932D01*
Y046794D01*
X051813Y046771D01*
X051789Y046831D01*
X051715Y046926D01*
X05162Y047D01*
X051508Y047046D01*
X051389Y047061D01*
D02*
G37*
G36*
X012131Y049887D02*
X012018Y049872D01*
X011913Y049828D01*
X011822Y049759D01*
X011753Y049668D01*
X011709Y049563D01*
X011694Y04945D01*
X011709Y049337D01*
X011753Y049232D01*
X011822Y049141D01*
X011913Y049072D01*
X012018Y049028D01*
X012081Y04902D01*
Y047859D01*
X012058Y04785D01*
X011963Y047776D01*
X011889Y047681D01*
X011843Y047569D01*
X011828Y04745D01*
X011843Y047331D01*
X011889Y047219D01*
X011963Y047124D01*
X012058Y04705D01*
X012118Y047026D01*
X012095Y046907D01*
X011832D01*
Y045993D01*
X012846D01*
Y046907D01*
X012583D01*
X01256Y047026D01*
X01262Y04705D01*
X012715Y047124D01*
X012789Y047219D01*
X012835Y047331D01*
X01285Y04745D01*
X012835Y047569D01*
X012789Y047681D01*
X012715Y047776D01*
X01262Y04785D01*
X012597Y047859D01*
Y049242D01*
X012588Y049309D01*
X012563Y049371D01*
X012558Y049377D01*
X012568Y04945D01*
X012553Y049563D01*
X012509Y049668D01*
X01244Y049759D01*
X012349Y049828D01*
X012244Y049872D01*
X012131Y049887D01*
D02*
G37*
G36*
X05546Y047132D02*
X054318D01*
Y04599D01*
X05546D01*
Y047132D01*
D02*
G37*
G36*
X058739Y04686D02*
X05862Y046849D01*
X058505Y046814D01*
X0584Y046758D01*
X058307Y046682D01*
X058231Y046589D01*
X058175Y046484D01*
X05814Y046369D01*
X058129Y04625D01*
X05814Y046131D01*
X058175Y046016D01*
X058231Y045911D01*
X058307Y045818D01*
X0584Y045742D01*
X058505Y045686D01*
X05862Y045651D01*
X058739Y04564D01*
X058858Y045651D01*
X058973Y045686D01*
X059078Y045742D01*
X059171Y045818D01*
X059247Y045911D01*
X059303Y046016D01*
X059338Y046131D01*
X059349Y04625D01*
X059338Y046369D01*
X059303Y046484D01*
X059247Y046589D01*
X059171Y046682D01*
X059078Y046758D01*
X058973Y046814D01*
X058858Y046849D01*
X058739Y04686D01*
D02*
G37*
G36*
X019789Y04646D02*
X01967Y046449D01*
X019555Y046414D01*
X01945Y046358D01*
X019357Y046282D01*
X019281Y046189D01*
X019225Y046084D01*
X01919Y045969D01*
X019179Y04585D01*
X01919Y045731D01*
X019225Y045616D01*
X019281Y045511D01*
X019357Y045418D01*
X01945Y045342D01*
X019555Y045286D01*
X01967Y045251D01*
X019789Y04524D01*
X019908Y045251D01*
X020023Y045286D01*
X020128Y045342D01*
X020221Y045418D01*
X020297Y045511D01*
X020353Y045616D01*
X020388Y045731D01*
X020399Y04585D01*
X020388Y045969D01*
X020353Y046084D01*
X020297Y046189D01*
X020221Y046282D01*
X020128Y046358D01*
X020023Y046414D01*
X019908Y046449D01*
X019789Y04646D01*
D02*
G37*
G36*
X069346Y051457D02*
X068331D01*
Y050443D01*
X068433D01*
X068472Y05034D01*
X068475Y050324D01*
X068396Y050222D01*
X068345Y050098D01*
X068327Y049966D01*
X068345Y049833D01*
X068396Y04971D01*
X068477Y049604D01*
X068581Y049524D01*
Y048042D01*
X068382D01*
Y047392D01*
X063956Y042966D01*
X050537D01*
X050498Y043017D01*
X050407Y043086D01*
X050302Y04313D01*
X050189Y043145D01*
X050076Y04313D01*
X049971Y043086D01*
X04988Y043017D01*
X049811Y042926D01*
X049767Y042821D01*
X049752Y042708D01*
X049767Y042595D01*
X049811Y042489D01*
X04988Y042399D01*
X049971Y04233D01*
X050076Y042286D01*
X050189Y042271D01*
X050302Y042286D01*
X050407Y04233D01*
X050498Y042399D01*
X050537Y04245D01*
X064063D01*
X064129Y042459D01*
X064192Y042484D01*
X064245Y042525D01*
X068747Y047027D01*
X069396D01*
Y048042D01*
X069097D01*
Y049524D01*
X069201Y049604D01*
X069282Y04971D01*
X069333Y049833D01*
X069351Y049966D01*
X069333Y050098D01*
X069282Y050222D01*
X069203Y050324D01*
X069206Y05034D01*
X069245Y050443D01*
X069346D01*
Y051457D01*
D02*
G37*
G36*
X050189Y039129D02*
X050076Y039114D01*
X049971Y03907D01*
X04988Y039001D01*
X049811Y038911D01*
X049767Y038805D01*
X049752Y038692D01*
X049767Y038579D01*
X049811Y038474D01*
X04988Y038383D01*
X049971Y038314D01*
X050076Y03827D01*
X050189Y038255D01*
X050302Y03827D01*
X050407Y038314D01*
X050498Y038383D01*
X050567Y038474D01*
X050611Y038579D01*
X050626Y038692D01*
X050611Y038805D01*
X050567Y038911D01*
X050498Y039001D01*
X050407Y03907D01*
X050302Y039114D01*
X050189Y039129D01*
D02*
G37*
G36*
X048839D02*
X048726Y039114D01*
X048621Y03907D01*
X04853Y039001D01*
X048461Y038911D01*
X048417Y038805D01*
X048402Y038692D01*
X048417Y038579D01*
X048461Y038474D01*
X04853Y038383D01*
X048621Y038314D01*
X048726Y03827D01*
X048839Y038255D01*
X048952Y03827D01*
X049057Y038314D01*
X049148Y038383D01*
X049217Y038474D01*
X049261Y038579D01*
X049276Y038692D01*
X049261Y038805D01*
X049217Y038911D01*
X049148Y039001D01*
X049057Y03907D01*
X048952Y039114D01*
X048839Y039129D01*
D02*
G37*
G36*
X032739Y044961D02*
X032439D01*
X03232Y044946D01*
X032208Y0449D01*
X032113Y044826D01*
X032039Y044731D01*
X031993Y044619D01*
X031978Y0445D01*
X031993Y044381D01*
X032039Y044269D01*
X032113Y044174D01*
X032208Y0441D01*
X032302Y044062D01*
X032311Y044D01*
X032302Y043938D01*
X032208Y0439D01*
X032113Y043826D01*
X032039Y043731D01*
X031993Y043619D01*
X031978Y0435D01*
X031993Y043381D01*
X032039Y043269D01*
X032113Y043174D01*
X032208Y0431D01*
X032302Y043062D01*
X032311Y043D01*
X032302Y042938D01*
X032208Y0429D01*
X032113Y042826D01*
X032039Y042731D01*
X031993Y042619D01*
X031978Y0425D01*
X031993Y042381D01*
X032039Y042269D01*
X032113Y042174D01*
X032208Y0421D01*
X032302Y042062D01*
X032311Y042D01*
X032302Y041938D01*
X032208Y0419D01*
X032113Y041826D01*
X032039Y041731D01*
X031993Y041619D01*
X031978Y0415D01*
X031993Y041381D01*
X032039Y041269D01*
X032113Y041174D01*
X032208Y0411D01*
X032302Y041062D01*
X032311Y041D01*
X032302Y040938D01*
X032208Y0409D01*
X032113Y040826D01*
X032039Y040731D01*
X031993Y040619D01*
X031978Y0405D01*
X031993Y040381D01*
X032039Y040269D01*
X032113Y040174D01*
X032208Y0401D01*
X032302Y040062D01*
X032311Y04D01*
X032302Y039938D01*
X032208Y0399D01*
X032113Y039826D01*
X032039Y039731D01*
X031993Y039619D01*
X031978Y0395D01*
X031993Y039381D01*
X032039Y039269D01*
X032113Y039174D01*
X032208Y0391D01*
X032268Y039076D01*
X032245Y038957D01*
X031981D01*
Y038043D01*
X033196D01*
Y038957D01*
X032933D01*
X03291Y039076D01*
X03297Y0391D01*
X033065Y039174D01*
X033139Y039269D01*
X033185Y039381D01*
X0332Y0395D01*
X033185Y039619D01*
X033139Y039731D01*
X033065Y039826D01*
X03297Y0399D01*
X032876Y039938D01*
X032867Y04D01*
X032876Y040062D01*
X03297Y0401D01*
X033065Y040174D01*
X033139Y040269D01*
X033185Y040381D01*
X0332Y0405D01*
X033185Y040619D01*
X033139Y040731D01*
X033065Y040826D01*
X03297Y0409D01*
X032876Y040938D01*
X032867Y041D01*
X032876Y041062D01*
X03297Y0411D01*
X033065Y041174D01*
X033139Y041269D01*
X033185Y041381D01*
X0332Y0415D01*
X033185Y041619D01*
X033139Y041731D01*
X033065Y041826D01*
X03297Y0419D01*
X032876Y041938D01*
X032867Y042D01*
X032876Y042062D01*
X03297Y0421D01*
X033065Y042174D01*
X033139Y042269D01*
X033185Y042381D01*
X0332Y0425D01*
X033185Y042619D01*
X033139Y042731D01*
X033065Y042826D01*
X03297Y0429D01*
X032876Y042938D01*
X032867Y043D01*
X032876Y043062D01*
X03297Y0431D01*
X033065Y043174D01*
X033139Y043269D01*
X033185Y043381D01*
X0332Y0435D01*
X033185Y043619D01*
X033139Y043731D01*
X033065Y043826D01*
X03297Y0439D01*
X032876Y043938D01*
X032867Y044D01*
X032876Y044062D01*
X03297Y0441D01*
X033065Y044174D01*
X033139Y044269D01*
X033185Y044381D01*
X0332Y0445D01*
X033185Y044619D01*
X033139Y044731D01*
X033065Y044826D01*
X03297Y0449D01*
X032858Y044946D01*
X032739Y044961D01*
D02*
G37*
G36*
X048475Y037375D02*
X048336Y037357D01*
X048206Y037303D01*
X048095Y037218D01*
X04801Y037106D01*
X047956Y036977D01*
X047938Y036838D01*
X047956Y036699D01*
X04801Y036569D01*
X048095Y036458D01*
X048206Y036373D01*
X048336Y036319D01*
X048475Y036301D01*
X048614Y036319D01*
X048744Y036373D01*
X048855Y036458D01*
X04894Y036569D01*
X048994Y036699D01*
X049012Y036838D01*
X048994Y036977D01*
X04894Y037106D01*
X048855Y037218D01*
X048744Y037303D01*
X048614Y037357D01*
X048475Y037375D01*
D02*
G37*
G36*
X032727D02*
X032588Y037357D01*
X032458Y037303D01*
X032347Y037218D01*
X032262Y037106D01*
X032208Y036977D01*
X03219Y036838D01*
X032208Y036699D01*
X032262Y036569D01*
X032347Y036458D01*
X032458Y036373D01*
X032588Y036319D01*
X032727Y036301D01*
X032866Y036319D01*
X032996Y036373D01*
X033107Y036458D01*
X033192Y036569D01*
X033246Y036699D01*
X033264Y036838D01*
X033246Y036977D01*
X033192Y037106D01*
X033107Y037218D01*
X032996Y037303D01*
X032866Y037357D01*
X032727Y037375D01*
D02*
G37*
G36*
X048484Y035425D02*
X048345Y035407D01*
X048216Y035353D01*
X048104Y035268D01*
X048019Y035156D01*
X047965Y035027D01*
X047947Y034888D01*
X047965Y034749D01*
X048019Y034619D01*
X048104Y034508D01*
X048216Y034423D01*
X048345Y034369D01*
X048484Y034351D01*
X048623Y034369D01*
X048753Y034423D01*
X048864Y034508D01*
X048949Y034619D01*
X049003Y034749D01*
X049021Y034888D01*
X049003Y035027D01*
X048949Y035156D01*
X048864Y035268D01*
X048753Y035353D01*
X048623Y035407D01*
X048484Y035425D01*
D02*
G37*
G36*
X032736D02*
X032597Y035407D01*
X032467Y035353D01*
X032356Y035268D01*
X032271Y035156D01*
X032217Y035027D01*
X032199Y034888D01*
X032217Y034749D01*
X032271Y034619D01*
X032356Y034508D01*
X032467Y034423D01*
X032597Y034369D01*
X032736Y034351D01*
X032875Y034369D01*
X033005Y034423D01*
X033116Y034508D01*
X033201Y034619D01*
X033255Y034749D01*
X033273Y034888D01*
X033255Y035027D01*
X033201Y035156D01*
X033116Y035268D01*
X033005Y035353D01*
X032875Y035407D01*
X032736Y035425D01*
D02*
G37*
G36*
X049689Y036857D02*
X049571Y036841D01*
X049461Y036795D01*
X049366Y036723D01*
X049293Y036628D01*
X049248Y036518D01*
X049232Y0364D01*
X049248Y036282D01*
X049293Y036172D01*
X049366Y036077D01*
X049461Y036005D01*
X049571Y035959D01*
Y035841D01*
X049461Y035795D01*
X049366Y035723D01*
X049293Y035628D01*
X049248Y035518D01*
X049232Y0354D01*
X049248Y035282D01*
X049293Y035172D01*
X049366Y035077D01*
X049461Y035005D01*
X049571Y034959D01*
X049689Y034943D01*
X049807Y034959D01*
X049917Y035005D01*
X050012Y035077D01*
X050063Y035143D01*
X050181Y03511D01*
Y033407D01*
X04972Y032946D01*
X049639Y032957D01*
X049521Y032941D01*
X049411Y032895D01*
X049316Y032823D01*
X049243Y032728D01*
X049198Y032618D01*
X049182Y0325D01*
X049198Y032382D01*
X049243Y032272D01*
X049316Y032177D01*
X049411Y032105D01*
X049521Y032059D01*
Y031941D01*
X049411Y031895D01*
X049316Y031823D01*
X049243Y031728D01*
X049198Y031618D01*
X049182Y0315D01*
X049198Y031382D01*
X049243Y031272D01*
X049316Y031177D01*
X049411Y031105D01*
X049521Y031059D01*
X049639Y031043D01*
X049757Y031059D01*
X049867Y031105D01*
X049962Y031177D01*
X050034Y031272D01*
X05008Y031382D01*
X050096Y0315D01*
X05008Y031618D01*
X050034Y031728D01*
X049962Y031823D01*
X049867Y031895D01*
X049757Y031941D01*
Y032059D01*
X049867Y032105D01*
X049962Y032177D01*
X050012Y032242D01*
X050782D01*
X051192Y031832D01*
Y021639D01*
X051201Y021572D01*
X051226Y02151D01*
X051267Y021456D01*
X051756Y020967D01*
X05181Y020926D01*
X051872Y020901D01*
X051939Y020892D01*
X052732D01*
X053131Y020493D01*
Y0176D01*
X053131Y0176D01*
Y013184D01*
X053049Y013123D01*
X052943Y013169D01*
X052949Y013216D01*
X052931Y013355D01*
X052877Y013484D01*
X052792Y013596D01*
X052681Y013681D01*
X052551Y013735D01*
X052412Y013753D01*
X052273Y013735D01*
X052143Y013681D01*
X052032Y013596D01*
X051947Y013484D01*
X051893Y013355D01*
X051875Y013216D01*
X051893Y013077D01*
X051947Y012947D01*
X052032Y012836D01*
X052143Y012751D01*
X052273Y012697D01*
X052412Y012679D01*
X052551Y012697D01*
X052681Y012751D01*
X052792Y012836D01*
X052823Y012877D01*
X052936Y01283D01*
X052932Y0128D01*
X052948Y012682D01*
X052993Y012572D01*
X053066Y012477D01*
X053161Y012405D01*
X053271Y012359D01*
Y012241D01*
X053161Y012195D01*
X053066Y012123D01*
X052993Y012028D01*
X052948Y011918D01*
X052932Y0118D01*
X052948Y011682D01*
X052978Y011608D01*
X052875Y011549D01*
X052801Y011646D01*
X05269Y011731D01*
X05256Y011785D01*
X052421Y011803D01*
X052282Y011785D01*
X052153Y011731D01*
X052041Y011646D01*
X051956Y011534D01*
X051902Y011405D01*
X051884Y011266D01*
X051902Y011127D01*
X051956Y010997D01*
X052041Y010886D01*
X052153Y010801D01*
X052282Y010747D01*
X052421Y010729D01*
X05256Y010747D01*
X05269Y010801D01*
X052801Y010886D01*
X052886Y010997D01*
X05294Y011127D01*
X052958Y011266D01*
X05294Y011405D01*
X052901Y011498D01*
X053004Y011557D01*
X053066Y011477D01*
X053161Y011405D01*
X053271Y011359D01*
X053389Y011343D01*
X053507Y011359D01*
X053617Y011405D01*
X053712Y011477D01*
X053784Y011572D01*
X053792Y01159D01*
X053826Y011603D01*
X053925Y011603D01*
X053972Y011541D01*
X054063Y011472D01*
X054168Y011428D01*
X054281Y011413D01*
X054394Y011428D01*
X0545Y011472D01*
X05459Y011541D01*
X054659Y011632D01*
X054703Y011737D01*
X054718Y01185D01*
X054703Y011963D01*
X054659Y012068D01*
X05459Y012159D01*
X0545Y012228D01*
X054394Y012272D01*
X054281Y012287D01*
X054168Y012272D01*
X054063Y012228D01*
X053972Y012159D01*
X053903Y012068D01*
X053899Y01206D01*
X053851Y012047D01*
X053768Y01205D01*
X053712Y012123D01*
X053617Y012195D01*
X053507Y012241D01*
Y012359D01*
X053617Y012405D01*
X053712Y012477D01*
X053762Y012542D01*
X054432D01*
X054981Y011993D01*
Y007707D01*
X054482Y007208D01*
X053762D01*
X053712Y007273D01*
X053617Y007345D01*
X053507Y007391D01*
X053389Y007407D01*
X053271Y007391D01*
X053161Y007345D01*
X053066Y007273D01*
X053063Y007269D01*
X052958Y007307D01*
X052949Y007314D01*
X052931Y007449D01*
X052877Y007579D01*
X052792Y00769D01*
X052681Y007775D01*
X052551Y007829D01*
X052412Y007847D01*
X052273Y007829D01*
X052143Y007775D01*
X052032Y00769D01*
X051947Y007579D01*
X051893Y007449D01*
X051875Y00731D01*
X051893Y007171D01*
X051947Y007042D01*
X052032Y00693D01*
X052143Y006845D01*
X052273Y006791D01*
X052412Y006773D01*
X052551Y006791D01*
X052681Y006845D01*
X052792Y00693D01*
X052816Y006962D01*
X052865Y006957D01*
X052936Y006924D01*
X052948Y006832D01*
X052993Y006722D01*
X053066Y006627D01*
X053161Y006555D01*
X053271Y006509D01*
Y006391D01*
X053161Y006345D01*
X053066Y006273D01*
X052993Y006178D01*
X052948Y006068D01*
X052932Y00595D01*
X052948Y005832D01*
X052993Y005722D01*
X053066Y005627D01*
X053161Y005555D01*
X053271Y005509D01*
X053389Y005493D01*
X053507Y005509D01*
X053617Y005555D01*
X053712Y005627D01*
X053735Y005657D01*
X05377Y005664D01*
X053878Y005649D01*
X053922Y005591D01*
X054013Y005522D01*
X054118Y005478D01*
X054231Y005463D01*
X054344Y005478D01*
X05445Y005522D01*
X05454Y005591D01*
X054609Y005682D01*
X054653Y005787D01*
X054668Y0059D01*
X054653Y006013D01*
X054609Y006118D01*
X05454Y006209D01*
X05445Y006278D01*
X054344Y006322D01*
X054231Y006337D01*
X054118Y006322D01*
X054013Y006278D01*
X053922Y006209D01*
X053908Y00619D01*
X053855Y006185D01*
X053767Y006201D01*
X053712Y006273D01*
X053617Y006345D01*
X053507Y006391D01*
Y006509D01*
X053617Y006555D01*
X053712Y006627D01*
X053762Y006692D01*
X054589D01*
X054656Y006701D01*
X054718Y006726D01*
X054771Y006767D01*
X055421Y007417D01*
X055463Y007471D01*
X055488Y007533D01*
X055497Y0076D01*
Y0121D01*
X055488Y012167D01*
X055463Y012229D01*
X055421Y012283D01*
X054721Y012983D01*
X054668Y013024D01*
X054606Y013049D01*
X054539Y013058D01*
X053762D01*
X053712Y013123D01*
X053647Y013173D01*
Y0176D01*
X053647Y0176D01*
Y020493D01*
X053986Y020832D01*
X056391D01*
X056396Y020821D01*
X056481Y02071D01*
X056592Y020625D01*
X056722Y020571D01*
X056861Y020553D01*
X057Y020571D01*
X057129Y020625D01*
X057241Y02071D01*
X057326Y020821D01*
X05738Y020951D01*
X057398Y02109D01*
X05738Y021229D01*
X057375Y021239D01*
X057771Y021635D01*
X057813Y021689D01*
X057838Y021751D01*
X057847Y021818D01*
Y022027D01*
X057912Y022077D01*
X057984Y022172D01*
X05803Y022282D01*
X058148D01*
X058193Y022172D01*
X058266Y022077D01*
X058331Y022027D01*
Y020956D01*
X05701Y019636D01*
X057Y01964D01*
X056861Y019658D01*
X056722Y01964D01*
X056592Y019586D01*
X056481Y019501D01*
X056396Y01939D01*
X056342Y01926D01*
X056324Y019121D01*
X056342Y018982D01*
X056396Y018853D01*
X056406Y01884D01*
X055695Y018128D01*
X055631Y018137D01*
X055518Y018122D01*
X055413Y018078D01*
X055322Y018009D01*
X055253Y017918D01*
X055209Y017813D01*
X055194Y0177D01*
X055209Y017587D01*
X055253Y017482D01*
X055322Y017391D01*
X055413Y017322D01*
X055518Y017278D01*
X055631Y017263D01*
X055744Y017278D01*
X055849Y017322D01*
X05594Y017391D01*
X056009Y017482D01*
X056053Y017587D01*
X056068Y0177D01*
X05606Y017763D01*
X056883Y018587D01*
X057Y018602D01*
X057129Y018656D01*
X057241Y018741D01*
X057326Y018853D01*
X05738Y018982D01*
X057398Y019121D01*
X05738Y01926D01*
X057375Y019271D01*
X058771Y020667D01*
X058789Y02069D01*
X058901Y020707D01*
X058933Y020702D01*
X059033Y020625D01*
X059163Y020571D01*
X059302Y020553D01*
X059441Y020571D01*
X05957Y020625D01*
X059682Y02071D01*
X059767Y020821D01*
X059821Y020951D01*
X059839Y02109D01*
X059821Y021229D01*
X059767Y021358D01*
X059682Y02147D01*
X05957Y021555D01*
X059441Y021609D01*
X059302Y021627D01*
X059163Y021609D01*
X059033Y021555D01*
X058965Y021503D01*
X058847Y021558D01*
Y022027D01*
X058912Y022077D01*
X058984Y022172D01*
X05903Y022282D01*
X059046Y0224D01*
X05903Y022518D01*
X058984Y022628D01*
X058912Y022723D01*
X058817Y022795D01*
X058707Y022841D01*
X058589Y022857D01*
X058471Y022841D01*
X058361Y022795D01*
X058266Y022723D01*
X058193Y022628D01*
X058148Y022518D01*
X05803D01*
X057984Y022628D01*
X057912Y022723D01*
X057817Y022795D01*
X057707Y022841D01*
X057589Y022857D01*
X057471Y022841D01*
X057361Y022795D01*
X057266Y022723D01*
X057193Y022628D01*
X057148Y022518D01*
X057132Y0224D01*
X057148Y022282D01*
X057193Y022172D01*
X057266Y022077D01*
X057318Y022037D01*
X057323Y021917D01*
X05701Y021604D01*
X057Y021609D01*
X056861Y021627D01*
X056722Y021609D01*
X056592Y021555D01*
X056481Y02147D01*
X056396Y021358D01*
X056391Y021348D01*
X053879D01*
X053812Y021339D01*
X05375Y021313D01*
X053696Y021272D01*
X053389Y020965D01*
X053021Y021333D01*
X052968Y021374D01*
X052906Y021399D01*
X052839Y021408D01*
X052046D01*
X051708Y021746D01*
Y031939D01*
X051699Y032006D01*
X051674Y032068D01*
X051633Y032121D01*
X051071Y032683D01*
X051018Y032724D01*
X050956Y032749D01*
X050889Y032758D01*
X050416D01*
X050371Y032867D01*
X050621Y033117D01*
X050663Y033171D01*
X050688Y033233D01*
X050697Y0333D01*
Y03605D01*
X050688Y036117D01*
X050663Y036179D01*
X050621Y036233D01*
X050347Y036507D01*
X050293Y036548D01*
X050231Y036574D01*
X050164Y036583D01*
X050103D01*
X050084Y036628D01*
X050012Y036723D01*
X049917Y036795D01*
X049807Y036841D01*
X049689Y036857D01*
D02*
G37*
G36*
X048475Y033438D02*
X048336Y03342D01*
X048206Y033366D01*
X048095Y033281D01*
X04801Y033169D01*
X047956Y03304D01*
X047938Y032901D01*
X047956Y032762D01*
X04801Y032632D01*
X048095Y032521D01*
X048206Y032436D01*
X048336Y032382D01*
X048475Y032364D01*
X048614Y032382D01*
X048744Y032436D01*
X048855Y032521D01*
X04894Y032632D01*
X048994Y032762D01*
X049012Y032901D01*
X048994Y03304D01*
X04894Y033169D01*
X048855Y033281D01*
X048744Y033366D01*
X048614Y03342D01*
X048475Y033438D01*
D02*
G37*
G36*
X032727D02*
X032588Y03342D01*
X032458Y033366D01*
X032347Y033281D01*
X032262Y033169D01*
X032208Y03304D01*
X03219Y032901D01*
X032208Y032762D01*
X032262Y032632D01*
X032347Y032521D01*
X032458Y032436D01*
X032588Y032382D01*
X032727Y032364D01*
X032866Y032382D01*
X032996Y032436D01*
X033107Y032521D01*
X033192Y032632D01*
X033246Y032762D01*
X033264Y032901D01*
X033246Y03304D01*
X033192Y033169D01*
X033107Y033281D01*
X032996Y033366D01*
X032866Y03342D01*
X032727Y033438D01*
D02*
G37*
G36*
X048484Y031488D02*
X048345Y03147D01*
X048216Y031416D01*
X048104Y031331D01*
X048019Y031219D01*
X047965Y03109D01*
X047947Y030951D01*
X047965Y030812D01*
X048019Y030682D01*
X048104Y030571D01*
X048216Y030486D01*
X048345Y030432D01*
X048484Y030414D01*
X048623Y030432D01*
X048753Y030486D01*
X048864Y030571D01*
X048949Y030682D01*
X049003Y030812D01*
X049021Y030951D01*
X049003Y03109D01*
X048949Y031219D01*
X048864Y031331D01*
X048753Y031416D01*
X048623Y03147D01*
X048484Y031488D01*
D02*
G37*
G36*
X030286Y031469D02*
X030147Y031451D01*
X030017Y031397D01*
X029906Y031312D01*
X029821Y031201D01*
X029767Y031071D01*
X029749Y030932D01*
X029767Y030793D01*
X029821Y030664D01*
X029906Y030553D01*
X030017Y030467D01*
X030147Y030414D01*
X030286Y030395D01*
X030425Y030414D01*
X030555Y030467D01*
X030666Y030553D01*
X030751Y030664D01*
X030805Y030793D01*
X030823Y030932D01*
X030805Y031071D01*
X030751Y031201D01*
X030666Y031312D01*
X030555Y031397D01*
X030425Y031451D01*
X030286Y031469D01*
D02*
G37*
G36*
X032736Y031488D02*
X032597Y03147D01*
X032467Y031416D01*
X032356Y031331D01*
X032271Y031219D01*
X032217Y03109D01*
X032199Y030951D01*
X032217Y030812D01*
X032271Y030682D01*
X032356Y030571D01*
X032372Y030559D01*
X03238Y030417D01*
X032311Y030326D01*
X032267Y030221D01*
X032252Y030108D01*
X032267Y029995D01*
X032311Y029889D01*
X03238Y029799D01*
X032471Y02973D01*
X032576Y029686D01*
X032689Y029671D01*
X032802Y029686D01*
X032907Y02973D01*
X032998Y029799D01*
X033067Y029889D01*
X033111Y029995D01*
X033126Y030108D01*
X033111Y030221D01*
X033067Y030326D01*
X033034Y03037D01*
X033014Y030448D01*
X033053Y030523D01*
X033116Y030571D01*
X033201Y030682D01*
X033255Y030812D01*
X033273Y030951D01*
X033255Y03109D01*
X033201Y031219D01*
X033116Y031331D01*
X033005Y031416D01*
X032875Y03147D01*
X032736Y031488D01*
D02*
G37*
G36*
X030339Y029168D02*
X030257Y029157D01*
X03018Y029125D01*
X030114Y029075D01*
X030071D01*
X030006Y029125D01*
X029929Y029157D01*
X029847Y029168D01*
X029765Y029157D01*
X029688Y029125D01*
X029622Y029075D01*
X029572Y029009D01*
X02954Y028932D01*
X029529Y02885D01*
X02954Y028768D01*
X029572Y028691D01*
X029622Y028625D01*
X029688Y028575D01*
X029765Y028543D01*
X029847Y028532D01*
X029929Y028543D01*
X029963Y028557D01*
X030064Y028505D01*
X030081Y028484D01*
Y028007D01*
X030081Y028007D01*
Y026022D01*
X029963Y025964D01*
X029948Y025975D01*
X029871Y026007D01*
X029789Y026018D01*
X029707Y026007D01*
X02963Y025975D01*
X029564Y025925D01*
X029514Y025859D01*
X029482Y025782D01*
X029471Y0257D01*
X029482Y025618D01*
X029514Y025541D01*
X029564Y025475D01*
X02963Y025425D01*
X029707Y025393D01*
X029789Y025382D01*
X029871Y025393D01*
X029948Y025425D01*
X030014Y025475D01*
X030056D01*
X030122Y025425D01*
X030199Y025393D01*
X030281Y025382D01*
X030363Y025393D01*
X03044Y025425D01*
X030506Y025475D01*
X030556Y025541D01*
X030588Y025618D01*
X030599Y0257D01*
X030589Y025777D01*
X030597Y025841D01*
Y028007D01*
X030597Y028007D01*
Y028669D01*
X030614Y028691D01*
X030646Y028768D01*
X030657Y02885D01*
X030646Y028932D01*
X030614Y029009D01*
X030564Y029075D01*
X030498Y029125D01*
X030421Y029157D01*
X030339Y029168D01*
D02*
G37*
G36*
X053581Y022668D02*
X053499Y022657D01*
X053422Y022625D01*
X053356Y022575D01*
X053314D01*
X053248Y022625D01*
X053171Y022657D01*
X053089Y022668D01*
X053007Y022657D01*
X05293Y022625D01*
X052864Y022575D01*
X052814Y022509D01*
X052782Y022432D01*
X052771Y02235D01*
X052782Y022268D01*
X052814Y022191D01*
X052864Y022125D01*
X05293Y022075D01*
X053007Y022043D01*
X053089Y022032D01*
X053171Y022043D01*
X053248Y022075D01*
X053335Y022115D01*
X053422Y022075D01*
X053499Y022043D01*
X053581Y022032D01*
X053663Y022043D01*
X05374Y022075D01*
X053806Y022125D01*
X053856Y022191D01*
X053888Y022268D01*
X053899Y02235D01*
X053888Y022432D01*
X053856Y022509D01*
X053806Y022575D01*
X05374Y022625D01*
X053663Y022657D01*
X053581Y022668D01*
D02*
G37*
G36*
X019459Y021627D02*
X01932Y021609D01*
X019191Y021555D01*
X019079Y02147D01*
X018994Y021358D01*
X01894Y021229D01*
X018922Y02109D01*
X01894Y020951D01*
X018994Y020821D01*
X019079Y02071D01*
X019191Y020625D01*
X01932Y020571D01*
X019459Y020553D01*
X019598Y020571D01*
X019728Y020625D01*
X019839Y02071D01*
X019924Y020821D01*
X019978Y020951D01*
X019996Y02109D01*
X019978Y021229D01*
X019924Y021358D01*
X019839Y02147D01*
X019728Y021555D01*
X019598Y021609D01*
X019459Y021627D01*
D02*
G37*
G36*
X017963D02*
X017824Y021609D01*
X017695Y021555D01*
X017583Y02147D01*
X017498Y021358D01*
X017444Y021229D01*
X017426Y02109D01*
X017444Y020951D01*
X017498Y020821D01*
X017583Y02071D01*
X017695Y020625D01*
X017824Y020571D01*
X017963Y020553D01*
X018102Y020571D01*
X018232Y020625D01*
X018343Y02071D01*
X018428Y020821D01*
X018482Y020951D01*
X0185Y02109D01*
X018482Y021229D01*
X018428Y021358D01*
X018343Y02147D01*
X018232Y021555D01*
X018102Y021609D01*
X017963Y021627D01*
D02*
G37*
G36*
X01631Y046821D02*
X015168D01*
Y045679D01*
X015262D01*
Y021558D01*
X015254Y021555D01*
X015142Y02147D01*
X015057Y021358D01*
X015003Y021229D01*
X014985Y02109D01*
X015003Y020951D01*
X015057Y020821D01*
X015142Y02071D01*
X015254Y020625D01*
X015383Y020571D01*
X015522Y020553D01*
X015661Y020571D01*
X015791Y020625D01*
X015902Y02071D01*
X015987Y020821D01*
X016041Y020951D01*
X016059Y02109D01*
X016041Y021229D01*
X015987Y021358D01*
X015902Y02147D01*
X015791Y021555D01*
X015778Y02156D01*
Y045679D01*
X01631D01*
Y046821D01*
D02*
G37*
G36*
X017972Y019677D02*
X017833Y019659D01*
X017704Y019605D01*
X017592Y01952D01*
X017507Y019408D01*
X017453Y019279D01*
X017435Y01914D01*
X017453Y019001D01*
X017507Y018871D01*
X017592Y01876D01*
X017704Y018675D01*
X017833Y018621D01*
X017972Y018603D01*
X018111Y018621D01*
X018241Y018675D01*
X018352Y01876D01*
X018437Y018871D01*
X018491Y019001D01*
X018509Y01914D01*
X018491Y019279D01*
X018437Y019408D01*
X018352Y01952D01*
X018241Y019605D01*
X018111Y019659D01*
X017972Y019677D01*
D02*
G37*
G36*
X019459Y019658D02*
X01932Y01964D01*
X019191Y019586D01*
X019079Y019501D01*
X018994Y01939D01*
X01894Y01926D01*
X018922Y019121D01*
X01894Y018982D01*
X018994Y018853D01*
X019079Y018741D01*
X019191Y018656D01*
X01932Y018602D01*
X019459Y018584D01*
X019598Y018602D01*
X019728Y018656D01*
X019839Y018741D01*
X019924Y018853D01*
X019978Y018982D01*
X019996Y019121D01*
X019978Y01926D01*
X019924Y01939D01*
X019839Y019501D01*
X019728Y019586D01*
X019598Y01964D01*
X019459Y019658D01*
D02*
G37*
G36*
X015522D02*
X015383Y01964D01*
X015254Y019586D01*
X015142Y019501D01*
X015057Y01939D01*
X015003Y01926D01*
X014985Y019121D01*
X015003Y018982D01*
X015057Y018853D01*
X015142Y018741D01*
X015254Y018656D01*
X015383Y018602D01*
X015522Y018584D01*
X015661Y018602D01*
X015791Y018656D01*
X015902Y018741D01*
X015987Y018853D01*
X016041Y018982D01*
X016059Y019121D01*
X016041Y01926D01*
X015987Y01939D01*
X015902Y019501D01*
X015791Y019586D01*
X015661Y01964D01*
X015522Y019658D01*
D02*
G37*
G36*
X014439Y021107D02*
X014321Y021091D01*
X014211Y021045D01*
X014116Y020973D01*
X014044Y020878D01*
X013998Y020768D01*
X013982Y02065D01*
X013998Y020532D01*
X014044Y020422D01*
X014116Y020327D01*
X014211Y020255D01*
X014321Y020209D01*
Y020091D01*
X014211Y020045D01*
X014116Y019973D01*
X014044Y019878D01*
X013998Y019768D01*
X013982Y01965D01*
X013998Y019532D01*
X014044Y019422D01*
X014116Y019327D01*
X014181Y019277D01*
Y017915D01*
X014095Y017828D01*
X014031Y017837D01*
X013918Y017822D01*
X013813Y017778D01*
X013722Y017709D01*
X013653Y017618D01*
X013609Y017513D01*
X013594Y0174D01*
X013609Y017287D01*
X013653Y017182D01*
X013722Y017091D01*
X013813Y017022D01*
X013918Y016978D01*
X014031Y016963D01*
X014144Y016978D01*
X01425Y017022D01*
X01434Y017091D01*
X014409Y017182D01*
X014453Y017287D01*
X014468Y0174D01*
X01446Y017463D01*
X014621Y017625D01*
X014663Y017679D01*
X014688Y017741D01*
X014697Y017808D01*
Y019277D01*
X014762Y019327D01*
X014834Y019422D01*
X01488Y019532D01*
X014896Y01965D01*
X01488Y019768D01*
X014834Y019878D01*
X014762Y019973D01*
X014667Y020045D01*
X014557Y020091D01*
Y020209D01*
X014667Y020255D01*
X014762Y020327D01*
X014834Y020422D01*
X01488Y020532D01*
X014896Y02065D01*
X01488Y020768D01*
X014834Y020878D01*
X014762Y020973D01*
X014667Y021045D01*
X014557Y021091D01*
X014439Y021107D01*
D02*
G37*
G36*
X013755Y014712D02*
X013616Y014694D01*
X013486Y01464D01*
X013375Y014555D01*
X01329Y014444D01*
X013236Y014314D01*
X013218Y014175D01*
X013236Y014036D01*
X01329Y013906D01*
X013375Y013795D01*
X013486Y01371D01*
X013616Y013656D01*
X013755Y013638D01*
X013894Y013656D01*
X014023Y01371D01*
X014134Y013795D01*
X01422Y013906D01*
X014274Y014036D01*
X014292Y014175D01*
X014274Y014314D01*
X01422Y014444D01*
X014134Y014555D01*
X014023Y01464D01*
X013894Y014694D01*
X013755Y014712D01*
D02*
G37*
G36*
X011805Y014703D02*
X011666Y014685D01*
X011536Y014631D01*
X011425Y014546D01*
X01134Y014434D01*
X011286Y014305D01*
X011268Y014166D01*
X011286Y014027D01*
X01134Y013897D01*
X011425Y013786D01*
X011536Y013701D01*
X011666Y013647D01*
X011805Y013629D01*
X011944Y013647D01*
X012073Y013701D01*
X012184Y013786D01*
X01227Y013897D01*
X012323Y014027D01*
X012342Y014166D01*
X012323Y014305D01*
X01227Y014434D01*
X012184Y014546D01*
X012073Y014631D01*
X011944Y014685D01*
X011805Y014703D01*
D02*
G37*
G36*
X013773Y012262D02*
X013634Y012244D01*
X013505Y01219D01*
X013393Y012105D01*
X013308Y011994D01*
X013254Y011864D01*
X013236Y011725D01*
X013254Y011586D01*
X013308Y011456D01*
X013393Y011345D01*
X013505Y01126D01*
X013634Y011206D01*
X013773Y011188D01*
X013912Y011206D01*
X014042Y01126D01*
X014153Y011345D01*
X014238Y011456D01*
X014292Y011586D01*
X01431Y011725D01*
X014292Y011864D01*
X014238Y011994D01*
X014153Y012105D01*
X014042Y01219D01*
X013912Y012244D01*
X013773Y012262D01*
D02*
G37*
G36*
X010739Y014007D02*
X010621Y013991D01*
X010511Y013945D01*
X010416Y013873D01*
X010344Y013778D01*
X010298Y013668D01*
X010282Y01355D01*
X010298Y013432D01*
X010344Y013322D01*
X010416Y013227D01*
X010511Y013155D01*
X010621Y013109D01*
Y012991D01*
X010511Y012945D01*
X010416Y012873D01*
X010344Y012778D01*
X010298Y012668D01*
X010282Y01255D01*
X010298Y012432D01*
X010344Y012322D01*
X010416Y012227D01*
X010511Y012155D01*
X010621Y012109D01*
X010739Y012093D01*
X010857Y012109D01*
X010967Y012155D01*
X011062Y012227D01*
X011134Y012322D01*
X01118Y012432D01*
X011196Y01255D01*
X011194Y012563D01*
X011306Y012618D01*
X011547Y012377D01*
Y012194D01*
X011536Y01219D01*
X011425Y012105D01*
X01134Y011994D01*
X011286Y011864D01*
X011268Y011725D01*
X011286Y011586D01*
X01134Y011456D01*
X011425Y011345D01*
X011536Y01126D01*
X011666Y011206D01*
X011805Y011188D01*
X011944Y011206D01*
X012073Y01126D01*
X012184Y011345D01*
X01227Y011456D01*
X012323Y011586D01*
X012342Y011725D01*
X012323Y011864D01*
X01227Y011994D01*
X012184Y012105D01*
X012073Y01219D01*
X012063Y012194D01*
Y012484D01*
X012054Y012551D01*
X012028Y012613D01*
X011987Y012667D01*
X011185Y013469D01*
X011196Y01355D01*
X01118Y013668D01*
X011134Y013778D01*
X011062Y013873D01*
X010967Y013945D01*
X010857Y013991D01*
X010739Y014007D01*
D02*
G37*
G36*
X038739Y012111D02*
X03862Y012096D01*
X038508Y01205D01*
X038413Y011976D01*
X038339Y011881D01*
X038293Y011769D01*
X038278Y01165D01*
Y01135D01*
X038293Y011231D01*
X038339Y011119D01*
X038413Y011024D01*
X038508Y01095D01*
X03862Y010904D01*
X038739Y010889D01*
X038858Y010904D01*
X03897Y01095D01*
X039065Y011024D01*
X039139Y011119D01*
X039185Y011231D01*
X0392Y01135D01*
Y01165D01*
X039185Y011769D01*
X039139Y011881D01*
X039065Y011976D01*
X03897Y01205D01*
X038858Y012096D01*
X038739Y012111D01*
D02*
G37*
G36*
X028799Y011803D02*
X02866Y011785D01*
X02853Y011731D01*
X028419Y011646D01*
X028334Y011534D01*
X02828Y011405D01*
X028262Y011266D01*
X02828Y011127D01*
X028334Y010997D01*
X028419Y010886D01*
X02853Y010801D01*
X02866Y010747D01*
X028799Y010729D01*
X028938Y010747D01*
X029068Y010801D01*
X029179Y010886D01*
X029264Y010997D01*
X029318Y011127D01*
X029336Y011266D01*
X029318Y011405D01*
X029264Y011534D01*
X029179Y011646D01*
X029068Y011731D01*
X028938Y011785D01*
X028799Y011803D01*
D02*
G37*
G36*
X026349Y011784D02*
X02621Y011766D01*
X02608Y011712D01*
X025969Y011627D01*
X025884Y011516D01*
X02583Y011386D01*
X025812Y011247D01*
X02583Y011108D01*
X025884Y010979D01*
X025969Y010867D01*
X02608Y010782D01*
X02621Y010728D01*
X026349Y01071D01*
X026488Y010728D01*
X026618Y010782D01*
X026729Y010867D01*
X026814Y010979D01*
X026868Y011108D01*
X026886Y011247D01*
X026868Y011386D01*
X026814Y011516D01*
X026729Y011627D01*
X026618Y011712D01*
X026488Y011766D01*
X026349Y011784D01*
D02*
G37*
G36*
X033514Y0108D02*
X033375Y010782D01*
X033246Y010728D01*
X033135Y010643D01*
X033049Y010532D01*
X032996Y010402D01*
X032977Y010263D01*
X032996Y010124D01*
X033049Y009994D01*
X033135Y009883D01*
X033246Y009798D01*
X033375Y009744D01*
X033514Y009726D01*
X033653Y009744D01*
X033783Y009798D01*
X033894Y009883D01*
X033979Y009994D01*
X034033Y010124D01*
X034051Y010263D01*
X034033Y010402D01*
X033979Y010532D01*
X033894Y010643D01*
X033783Y010728D01*
X033653Y010782D01*
X033514Y0108D01*
D02*
G37*
G36*
X062197Y009737D02*
X062084Y009722D01*
X061978Y009678D01*
X061888Y009609D01*
X061819Y009518D01*
X061775Y009413D01*
X06176Y0093D01*
X061775Y009187D01*
X061819Y009082D01*
X061888Y008991D01*
X061978Y008922D01*
X062084Y008878D01*
X062197Y008863D01*
X06231Y008878D01*
X062415Y008922D01*
X062506Y008991D01*
X062575Y009082D01*
X062619Y009187D01*
X062634Y0093D01*
X062619Y009413D01*
X062575Y009518D01*
X062506Y009609D01*
X062415Y009678D01*
X06231Y009722D01*
X062197Y009737D01*
D02*
G37*
G36*
X020589Y010257D02*
X020471Y010241D01*
X020361Y010195D01*
X020266Y010123D01*
X020194Y010028D01*
X020148Y009918D01*
X020132Y0098D01*
X020148Y009682D01*
X020194Y009572D01*
X020266Y009477D01*
X020361Y009405D01*
X020471Y009359D01*
Y009241D01*
X020361Y009195D01*
X020266Y009123D01*
X020194Y009028D01*
X020148Y008918D01*
X020132Y0088D01*
X020148Y008682D01*
X020194Y008572D01*
X020266Y008477D01*
X020361Y008405D01*
X020471Y008359D01*
X020589Y008343D01*
X020707Y008359D01*
X020817Y008405D01*
X020912Y008477D01*
X020984Y008572D01*
X02103Y008682D01*
X021046Y0088D01*
X02103Y008918D01*
X020984Y009028D01*
X020912Y009123D01*
X020817Y009195D01*
X020707Y009241D01*
Y009359D01*
X020817Y009405D01*
X020912Y009477D01*
X020984Y009572D01*
X02103Y009682D01*
X021046Y0098D01*
X02103Y009918D01*
X020984Y010028D01*
X020912Y010123D01*
X020817Y010195D01*
X020707Y010241D01*
X020589Y010257D01*
D02*
G37*
G36*
X033523Y00885D02*
X033384Y008832D01*
X033255Y008778D01*
X033144Y008693D01*
X033058Y008582D01*
X033005Y008452D01*
X032986Y008313D01*
X033005Y008174D01*
X033058Y008044D01*
X033144Y007933D01*
X033255Y007848D01*
X033384Y007794D01*
X033523Y007776D01*
X033662Y007794D01*
X033792Y007848D01*
X033903Y007933D01*
X033989Y008044D01*
X034042Y008174D01*
X03406Y008313D01*
X034042Y008452D01*
X033989Y008582D01*
X033903Y008693D01*
X033792Y008778D01*
X033662Y008832D01*
X033523Y00885D01*
D02*
G37*
G36*
X021625Y008832D02*
X021486Y008813D01*
X021356Y00876D01*
X021245Y008674D01*
X021159Y008563D01*
X021106Y008433D01*
X021088Y008294D01*
X021106Y008155D01*
X021159Y008026D01*
X021245Y007915D01*
X021356Y007829D01*
X021486Y007776D01*
X021625Y007757D01*
X021764Y007776D01*
X021893Y007829D01*
X022004Y007915D01*
X02209Y008026D01*
X022143Y008155D01*
X022162Y008294D01*
X022143Y008433D01*
X02209Y008563D01*
X022004Y008674D01*
X021893Y00876D01*
X021764Y008813D01*
X021625Y008832D01*
D02*
G37*
G36*
X062197Y008537D02*
X062084Y008522D01*
X061978Y008478D01*
X061888Y008409D01*
X061819Y008318D01*
X061775Y008213D01*
X06176Y0081D01*
X061775Y007987D01*
X061819Y007882D01*
X061888Y007791D01*
X061978Y007722D01*
X062084Y007678D01*
X062197Y007663D01*
X06231Y007678D01*
X062415Y007722D01*
X062506Y007791D01*
X062575Y007882D01*
X062619Y007987D01*
X062634Y0081D01*
X062619Y008213D01*
X062575Y008318D01*
X062506Y008409D01*
X062415Y008478D01*
X06231Y008522D01*
X062197Y008537D01*
D02*
G37*
G36*
X02879Y007847D02*
X028651Y007829D01*
X028521Y007775D01*
X02841Y00769D01*
X028325Y007579D01*
X028271Y007449D01*
X028253Y00731D01*
X028271Y007171D01*
X028325Y007042D01*
X02841Y00693D01*
X028521Y006845D01*
X028651Y006791D01*
X02879Y006773D01*
X028929Y006791D01*
X029058Y006845D01*
X02917Y00693D01*
X029255Y007042D01*
X029309Y007171D01*
X029327Y00731D01*
X029309Y007449D01*
X029255Y007579D01*
X02917Y00769D01*
X029058Y007775D01*
X028929Y007829D01*
X02879Y007847D01*
D02*
G37*
G36*
X024075Y00885D02*
X023936Y008832D01*
X023806Y008778D01*
X023695Y008693D01*
X023609Y008582D01*
X023556Y008452D01*
X023538Y008313D01*
X023556Y008174D01*
X023609Y008044D01*
X023695Y007933D01*
X023806Y007848D01*
X023816Y007844D01*
Y007742D01*
X023825Y007675D01*
X023839Y007643D01*
Y007498D01*
X023788Y007459D01*
X023719Y007368D01*
X023675Y007263D01*
X02366Y00715D01*
X023675Y007037D01*
X023719Y006932D01*
X023788Y006841D01*
X023878Y006772D01*
X023984Y006728D01*
X024097Y006713D01*
X02421Y006728D01*
X024315Y006772D01*
X024406Y006841D01*
X024475Y006932D01*
X024519Y007037D01*
X024534Y00715D01*
X024519Y007263D01*
X024475Y007368D01*
X024406Y007459D01*
X024355Y007498D01*
Y00772D01*
X024346Y007787D01*
X024343Y007848D01*
X024454Y007933D01*
X02454Y008044D01*
X024593Y008174D01*
X024612Y008313D01*
X024593Y008452D01*
X02454Y008582D01*
X024454Y008693D01*
X024343Y008778D01*
X024214Y008832D01*
X024075Y00885D01*
D02*
G37*
G36*
X034689Y010157D02*
X034571Y010141D01*
X034461Y010095D01*
X034366Y010023D01*
X034293Y009928D01*
X034248Y009818D01*
X034232Y0097D01*
X034248Y009582D01*
X034293Y009472D01*
X034366Y009377D01*
X034461Y009305D01*
X034571Y009259D01*
Y009141D01*
X034461Y009095D01*
X034366Y009023D01*
X034293Y008928D01*
X034248Y008818D01*
X034232Y0087D01*
X034248Y008582D01*
X034293Y008472D01*
X034366Y008377D01*
X034381Y008366D01*
Y006242D01*
X034338Y006209D01*
X034269Y006118D01*
X034225Y006013D01*
X03421Y0059D01*
X034225Y005787D01*
X034269Y005682D01*
X034338Y005591D01*
X034428Y005522D01*
X034534Y005478D01*
X034647Y005463D01*
X03476Y005478D01*
X034865Y005522D01*
X034956Y005591D01*
X035025Y005682D01*
X035069Y005787D01*
X035084Y0059D01*
X035069Y006013D01*
X035025Y006118D01*
X034956Y006209D01*
X034897Y006254D01*
Y008296D01*
X034917Y008305D01*
X035012Y008377D01*
X035084Y008472D01*
X03513Y008582D01*
X035146Y0087D01*
X03513Y008818D01*
X035084Y008928D01*
X035012Y009023D01*
X034917Y009095D01*
X034807Y009141D01*
Y009259D01*
X034917Y009305D01*
X035012Y009377D01*
X035084Y009472D01*
X03513Y009582D01*
X035146Y0097D01*
X03513Y009818D01*
X035084Y009928D01*
X035012Y010023D01*
X034917Y010095D01*
X034807Y010141D01*
X034689Y010157D01*
D02*
G37*
G36*
X026349Y005879D02*
X02621Y005861D01*
X02608Y005807D01*
X025969Y005722D01*
X025884Y00561D01*
X02583Y005481D01*
X025812Y005342D01*
X02583Y005203D01*
X025884Y005073D01*
X025969Y004962D01*
X02608Y004877D01*
X02621Y004823D01*
X026349Y004805D01*
X026488Y004823D01*
X026618Y004877D01*
X026729Y004962D01*
X026814Y005073D01*
X026868Y005203D01*
X026886Y005342D01*
X026868Y005481D01*
X026814Y00561D01*
X026729Y005722D01*
X026618Y005807D01*
X026488Y005861D01*
X026349Y005879D01*
D02*
G37*
G36*
X025139Y007207D02*
X025021Y007191D01*
X024911Y007145D01*
X024816Y007073D01*
X024743Y006978D01*
X024698Y006868D01*
X024682Y00675D01*
X024698Y006632D01*
X024743Y006522D01*
X024816Y006427D01*
X024911Y006355D01*
X025021Y006309D01*
Y006191D01*
X024911Y006145D01*
X024816Y006073D01*
X024743Y005978D01*
X024698Y005868D01*
X024682Y00575D01*
X024698Y005632D01*
X024743Y005522D01*
X024816Y005427D01*
X024881Y005377D01*
Y00503D01*
X024873Y00497D01*
Y004548D01*
X024822Y004509D01*
X024753Y004418D01*
X024709Y004313D01*
X024694Y0042D01*
X024709Y004087D01*
X024753Y003982D01*
X024822Y003891D01*
X024913Y003822D01*
X025018Y003778D01*
X025131Y003763D01*
X025244Y003778D01*
X02535Y003822D01*
X02544Y003891D01*
X025509Y003982D01*
X025553Y004087D01*
X025568Y0042D01*
X025553Y004313D01*
X025509Y004418D01*
X02544Y004509D01*
X025389Y004548D01*
Y004918D01*
X025397Y004978D01*
Y005377D01*
X025462Y005427D01*
X025534Y005522D01*
X02558Y005632D01*
X025596Y00575D01*
X02558Y005868D01*
X025534Y005978D01*
X025462Y006073D01*
X025367Y006145D01*
X025257Y006191D01*
Y006309D01*
X025367Y006355D01*
X025462Y006427D01*
X025534Y006522D01*
X02558Y006632D01*
X025596Y00675D01*
X02558Y006868D01*
X025534Y006978D01*
X025462Y007073D01*
X025367Y007145D01*
X025257Y007191D01*
X025139Y007207D01*
D02*
G37*
G36*
X063248Y019677D02*
X063109Y019659D01*
X062979Y019605D01*
X062868Y01952D01*
X062783Y019408D01*
X062729Y019279D01*
X062711Y01914D01*
X062729Y019001D01*
X062783Y018871D01*
X062868Y01876D01*
X062979Y018675D01*
X063109Y018621D01*
X063248Y018603D01*
X063387Y018621D01*
X063516Y018675D01*
X063628Y01876D01*
X063713Y018871D01*
X063767Y019001D01*
X063785Y01914D01*
X063767Y019279D01*
X063713Y019408D01*
X063628Y01952D01*
X063516Y019605D01*
X063387Y019659D01*
X063248Y019677D01*
D02*
G37*
%LPD*%
D47*
X030707Y036732D02*
X03092Y036519D01*
Y033535D02*
Y036519D01*
X030286Y036838D02*
X030392Y036732D01*
X030707D01*
X030286Y036838D02*
Y03732D01*
X027536Y04155D02*
X027561Y041525D01*
X029564D02*
X029589Y0415D01*
X027561Y041525D02*
X029564D01*
X02955Y031911D02*
Y037139D01*
X026689Y04D02*
Y04305D01*
Y04D02*
X02955Y037139D01*
X026689Y04305D02*
X027139Y0435D01*
X029589D01*
X058297Y01185D02*
X059647Y0132D01*
X058229Y011782D02*
X058297Y01185D01*
X058181Y0105D02*
Y01111D01*
Y0093D02*
Y0105D01*
X029319Y025806D02*
X029339Y025826D01*
Y027282D01*
X068839Y049966D02*
X068839Y049966D01*
X068839Y047584D02*
X068889Y047534D01*
X068839Y047584D02*
Y049966D01*
X018047Y011558D02*
Y0174D01*
X014989Y010942D02*
X017431D01*
X018047Y011558D01*
X01552Y02109D02*
Y046031D01*
X024439Y01095D02*
X02446D01*
X022312D02*
X024439D01*
X056861Y02109D02*
X057589Y021818D01*
X051289Y005431D02*
Y0176D01*
Y005431D02*
X052Y00472D01*
X050299Y01859D02*
X051289Y0176D01*
X042549Y01859D02*
X050299D01*
X038889Y0394D02*
X039889Y0384D01*
Y01995D02*
X04825Y011589D01*
X039889Y01995D02*
Y0384D01*
X0364Y0394D02*
X038889D01*
X036385Y039385D02*
X0364Y0394D01*
X038889Y01955D02*
Y03575D01*
X038254Y036385D02*
X038889Y03575D01*
Y01955D02*
X045739Y0127D01*
X036385Y036385D02*
X038254D01*
X040879Y02026D02*
X042549Y01859D01*
X040879Y02026D02*
Y03941D01*
X04825Y005D02*
Y011589D01*
X045739Y0115D02*
Y0127D01*
X029589Y0455D02*
Y04935D01*
X030009Y04977D02*
X040969D01*
X029589Y04935D02*
X030009Y04977D01*
X03534Y046751D02*
X035789Y0472D01*
X03534Y03565D02*
Y046751D01*
X03582Y044431D02*
X036189Y0448D01*
X03582Y03395D02*
Y044431D01*
X036189Y0448D02*
X03754D01*
X039885Y047145D01*
X042385Y033385D02*
X043124D01*
X043589Y03385D02*
Y03645D01*
X043124Y033385D02*
X043589Y03385D01*
Y03645D02*
X045939Y0388D01*
Y0406D01*
X046431D02*
X046989D01*
X047439Y02705D02*
Y04015D01*
X046989Y0406D02*
X047439Y04015D01*
X045939Y0448D02*
Y04525D01*
X045639Y04555D02*
X045939Y04525D01*
X044289Y04555D02*
X045639D01*
X04399Y045251D02*
X044289Y04555D01*
X04399Y03799D02*
Y045251D01*
X057789Y04875D02*
Y0509D01*
X054889Y047939D02*
X056978D01*
X057789Y04875D01*
X049297Y050558D02*
X050089D01*
X048839Y0501D02*
X049297Y050558D01*
X048839Y042708D02*
Y0501D01*
X05065Y047939D02*
X054889D01*
X050089Y0485D02*
X05065Y047939D01*
X050089Y0485D02*
Y050558D01*
X050439Y0333D02*
Y03605D01*
X049764Y036325D02*
X050164D01*
X050439Y03605D01*
X049639Y0325D02*
X050439Y0333D01*
X049689Y0364D02*
X049764Y036325D01*
X048297Y026192D02*
X049689D01*
X047439Y02705D02*
X048297Y026192D01*
X045989Y030008D02*
X045989Y030008D01*
X045989Y030008D02*
Y030887D01*
X046034Y030932D01*
X047789Y0257D02*
X049689D01*
X044589Y0289D02*
X047789Y0257D01*
X044589Y0289D02*
Y03185D01*
X042385Y032385D02*
X044054D01*
X044589Y03185D01*
X05145Y021639D02*
Y031939D01*
X050889Y0325D02*
X05145Y031939D01*
X049639Y0325D02*
X050889D01*
X051939Y02115D02*
X052839D01*
X05145Y021639D02*
X051939Y02115D01*
X052839D02*
X053389Y0206D01*
X053389Y0128D02*
Y0176D01*
X053389Y0176D02*
Y0206D01*
Y0176D02*
X053389Y0176D01*
X053389Y0206D02*
X053879Y02109D01*
X056861D01*
X065897Y019258D02*
X066389D01*
X06549Y018851D02*
X065897Y019258D01*
X06549Y01175D02*
Y018851D01*
X066239Y0175D02*
X069489D01*
X069939Y01795D02*
Y0225D01*
X069489Y0175D02*
X069939Y01795D01*
X065857Y014569D02*
Y017119D01*
X066239Y0175D01*
X069459Y02298D02*
X069939Y0225D01*
X061625Y02298D02*
X069459D01*
X06585Y014561D02*
X065857Y014569D01*
X06585Y01263D02*
Y014561D01*
X068139Y0068D02*
X068385Y006554D01*
X068985D01*
X068989Y00655D01*
X068139Y0068D02*
Y0091D01*
Y014492D02*
X068889Y015242D01*
X068139Y0091D02*
Y014492D01*
X066339Y0085D02*
X067539D01*
X068139Y0091D01*
X067339Y0061D02*
X067893Y005546D01*
X067039Y0075D02*
X067339Y0072D01*
Y0061D02*
Y0072D01*
X067897Y00555D02*
X068989D01*
X066339Y0075D02*
X067039D01*
X068989Y01055D02*
X070089D01*
X070439Y0102D01*
Y00375D02*
Y0102D01*
X068989Y00955D02*
X069689D01*
X069989Y004249D02*
Y00925D01*
X069689Y00955D02*
X069989Y00925D01*
X068802Y003062D02*
X069989Y004249D01*
X069384Y002695D02*
X070439Y00375D01*
X065244Y002695D02*
X069384D01*
X064539Y0034D02*
Y0092D01*
Y0034D02*
X065244Y002695D01*
X063339Y0095D02*
X064239D01*
X064539Y0092D01*
X063339Y0105D02*
X064739D01*
X065289Y003865D02*
Y00995D01*
X064739Y0105D02*
X065289Y00995D01*
Y003865D02*
X066093Y003062D01*
X062845Y0125D02*
Y017244D01*
X061729Y01836D02*
X062845Y017244D01*
X057949Y01836D02*
X061729D01*
X05716Y017571D02*
X057949Y01836D01*
X05716Y005371D02*
Y017571D01*
X056509Y00472D02*
X05716Y005371D01*
X052Y00472D02*
X056509D01*
X058229Y011605D02*
Y011782D01*
X058181Y011558D02*
X058229Y011605D01*
X058181Y01111D02*
X058181Y01111D01*
Y011558D01*
X05816Y008079D02*
X058181Y0081D01*
X05816Y006192D02*
Y008079D01*
X058181Y0081D02*
Y0093D01*
X058179Y005968D02*
X058247Y0059D01*
X058179Y005968D02*
Y006174D01*
X05816Y006192D02*
X058179Y006174D01*
X060789Y0048D02*
Y011D01*
X060139Y00415D02*
X060789Y0048D01*
X0491Y00415D02*
X060139D01*
X061289Y0115D02*
X063339D01*
X060789Y011D02*
X061289Y0115D01*
X04825Y005D02*
X0491Y00415D01*
X054589Y00695D02*
X055239Y0076D01*
X053389Y00695D02*
X054589D01*
X055239Y0076D02*
Y0121D01*
X054539Y0128D02*
X055239Y0121D01*
X053389Y0128D02*
X054539D01*
X037689Y01095D02*
X039662Y008977D01*
Y008577D02*
Y008977D01*
Y008577D02*
X039739Y0085D01*
X037689Y01095D02*
Y034081D01*
X034639Y00865D02*
X034689Y0087D01*
X034639Y005908D02*
Y00865D01*
Y005908D02*
X034647Y0059D01*
X03332Y00485D02*
X039589D01*
X02767Y0105D02*
X03332Y00485D01*
X039589D02*
X042739Y008D01*
X031589Y0206D02*
X035039D01*
X035639Y0212D02*
Y025639D01*
X035039Y0206D02*
X035639Y0212D01*
Y025639D02*
X036385Y026385D01*
X031589Y0206D02*
Y0216D01*
Y0146D02*
Y0206D01*
X032621Y025822D02*
Y026024D01*
X032689Y026092D01*
X032599Y0216D02*
Y0258D01*
X032621Y025822D01*
X029297Y0257D02*
X029319Y025723D01*
Y025806D01*
X029339Y027282D02*
X029355Y027298D01*
Y02885D01*
X030339Y028007D02*
X030339Y028007D01*
X030281Y0257D02*
X030304Y025723D01*
Y025806D01*
X030339Y025841D01*
Y028007D01*
X02524Y037099D02*
Y045749D01*
X022789Y04641D02*
X024579D01*
X02524Y045749D01*
X025989Y03635D02*
X028889D01*
X02524Y037099D02*
X025989Y03635D01*
X040436Y0488D02*
X040489D01*
X040336Y0489D02*
X040436Y0488D01*
X041939Y048697D02*
Y04875D01*
X039054Y0489D02*
X040336D01*
X038885Y048145D02*
Y048731D01*
X038885Y048145D02*
X038885Y048145D01*
Y048731D02*
X039054Y0489D01*
X041436Y046086D02*
Y049303D01*
X040969Y04977D02*
X041436Y049303D01*
X041829Y038941D02*
Y048587D01*
Y038941D02*
X042385Y038385D01*
X041829Y048587D02*
X041939Y048697D01*
X03829Y04294D02*
X041436Y046086D01*
X036385Y040385D02*
X039904D01*
X040879Y03941D01*
X037139Y008871D02*
Y033631D01*
X036385Y034385D02*
X037139Y033631D01*
Y008871D02*
X0375Y00851D01*
X036385Y035385D02*
X037689Y034081D01*
X040239Y00995D02*
X045289D01*
X045739Y0085D02*
Y0095D01*
X045289Y00995D02*
X045739Y0095D01*
X039739Y01045D02*
X040239Y00995D01*
X043089Y0104D02*
X046239D01*
X042739Y01075D02*
Y0115D01*
Y01075D02*
X043089Y0104D01*
X046689Y00415D02*
Y00995D01*
X046239Y0104D02*
X046689Y00995D01*
X039739Y01045D02*
Y0115D01*
X028889Y0034D02*
X045939D01*
X046689Y00415D01*
X028389Y0039D02*
Y004985D01*
Y0039D02*
X028889Y0034D01*
X028764Y00536D02*
X028799D01*
X028389Y004985D02*
X028764Y00536D01*
X029147Y0042D02*
X030239D01*
X030563Y004524D02*
Y005832D01*
X030239Y0042D02*
X030563Y004524D01*
Y005832D02*
X030631Y0059D01*
X024805Y013216D02*
X026349D01*
X024439Y01095D02*
Y01285D01*
X024805Y013216D01*
X024439Y01095D02*
X026349Y00904D01*
X021625Y010263D02*
X022312Y01095D01*
X026349Y00731D02*
Y00904D01*
X019849Y01804D02*
X02069Y017199D01*
X015579Y01804D02*
X019849D01*
X02069Y015D02*
Y017199D01*
X014989Y01745D02*
X015579Y01804D01*
X014989Y014958D02*
Y01745D01*
X022929Y017468D02*
Y017652D01*
Y017468D02*
X022997Y0174D01*
X022889Y017692D02*
Y01965D01*
Y017692D02*
X022929Y017652D01*
X042941Y022852D02*
Y028829D01*
X042489Y0224D02*
X042941Y022852D01*
X042385Y029385D02*
X042941Y028829D01*
X0378Y04345D02*
Y04406D01*
X02333Y048D02*
Y05065D01*
X0375Y00851D02*
X038739D01*
X061439Y021731D02*
Y0224D01*
X060798Y02109D02*
X061439Y021731D01*
X057589Y021818D02*
Y0224D01*
X061439D02*
Y022794D01*
X061625Y02298D01*
X06585Y01263D02*
X06598Y0125D01*
X066339D01*
X046034Y032901D02*
X046665Y033532D01*
Y036207D01*
X046034Y036838D02*
X046665Y036207D01*
X011805Y011725D02*
Y012484D01*
X010739Y01355D02*
X011805Y012484D01*
X029789Y0128D02*
X031589Y0146D01*
X064063Y042708D02*
X068889Y047534D01*
X050189Y042708D02*
X064063D01*
X014439Y017808D02*
Y01965D01*
X014031Y0174D02*
X014439Y017808D01*
X022889Y01965D02*
X02564D01*
X03159Y0256D01*
Y04D01*
X03109Y0405D02*
X03159Y04D01*
X029589Y0405D02*
X03109D01*
X056861Y01893D02*
Y019121D01*
X055631Y0177D02*
X056861Y01893D01*
X060798Y019121D02*
X06193D01*
X063351Y0177D01*
X064597D01*
X059647Y0132D02*
Y0177D01*
X034589Y034192D02*
Y03531D01*
X034297Y0339D02*
X034589Y034192D01*
X016147Y048036D02*
Y04945D01*
X015739Y047628D02*
X016147Y048036D01*
X042941Y037941D02*
Y0462D01*
X042385Y037385D02*
X042941Y037941D01*
X03582Y03395D02*
X036385Y033385D01*
X012339Y04745D02*
Y049242D01*
X012131Y04945D02*
X012339Y049242D01*
X067347Y005D02*
X067897Y00555D01*
X067347Y0037D02*
Y005D01*
X066339Y0095D02*
X06716D01*
X067639Y009979D01*
Y015192D01*
X066093Y003062D02*
X068802D01*
X062845Y0125D02*
X063339D01*
X042739Y008D02*
Y0085D01*
X02767Y0105D02*
Y01318D01*
X027Y01385D02*
X02767Y01318D01*
X02184Y01385D02*
X027D01*
X02069Y015D02*
X02184Y01385D01*
X046773Y025208D02*
X049689D01*
X045989Y025992D02*
X046773Y025208D01*
X034705Y031385D02*
X036385D01*
X03376Y03233D02*
X034705Y031385D01*
X03376Y03233D02*
Y04723D01*
X03683Y04294D02*
X03829D01*
X036385Y043385D02*
X03683Y04294D01*
X034589Y0216D02*
Y025589D01*
X036385Y027385D01*
X033579Y0216D02*
Y025579D01*
X036385Y028385D01*
X0378Y04406D02*
X040885Y047145D01*
X042385Y036385D02*
X04399Y03799D01*
X035Y03531D02*
X03534Y03565D01*
X034589Y03531D02*
X035D01*
X01552Y02109D02*
X015522D01*
X01552Y046031D02*
X015739Y04625D01*
X066339Y0105D02*
X0668D01*
X06705Y01075D01*
Y014581D01*
X066389Y015242D02*
X06705Y014581D01*
X063289Y048939D02*
Y0509D01*
X0625Y04815D02*
X063289Y048939D01*
X061689Y04815D02*
X0625D01*
X056861Y019121D02*
X058589Y020849D01*
Y0224D01*
X031073Y010263D02*
Y011516D01*
X029789Y0128D02*
X031073Y011516D01*
X060798Y019121D02*
X062439Y020762D01*
Y0224D01*
X045447Y039566D02*
Y0406D01*
X044789Y038908D02*
X045447Y039566D01*
X030339Y028007D02*
Y02885D01*
X038739Y0085D02*
Y00851D01*
X022939Y05065D02*
X02333D01*
X02308Y04775D02*
X02333Y048D01*
X022789Y04775D02*
X02308D01*
X028989Y03135D02*
X02955Y031911D01*
X06574Y0115D02*
X066339D01*
X06549Y01175D02*
X06574Y0115D01*
X030286Y032901D02*
X03092Y033535D01*
X061689Y04748D02*
X062D01*
X06223Y04725D01*
Y04637D02*
Y04725D01*
X062Y04614D02*
X06223Y04637D01*
X061689Y04614D02*
X062D01*
X0225Y04708D02*
X022789D01*
X02225Y04683D02*
X0225Y04708D01*
X02225Y04599D02*
Y04683D01*
Y04599D02*
X0225Y04574D01*
X022789D01*
X046431Y043728D02*
Y0448D01*
Y043728D02*
X046439Y04372D01*
Y04265D02*
Y04372D01*
Y041628D02*
Y04265D01*
X046431Y04162D02*
X046439Y041628D01*
X046431Y0406D02*
Y04162D01*
X029589Y038017D02*
Y0385D01*
Y038017D02*
X030286Y03732D01*
X025139Y004978D02*
Y00575D01*
X025131Y00497D02*
X025139Y004978D01*
X025131Y0042D02*
Y00497D01*
X030286Y034385D02*
Y034869D01*
X030281Y03438D02*
X030286Y034385D01*
X030281Y0339D02*
Y03438D01*
X063339Y004598D02*
Y0055D01*
X063331Y00459D02*
X063339Y004598D01*
X063331Y0037D02*
Y00459D01*
X045447Y043728D02*
Y0448D01*
Y043728D02*
X045455Y04372D01*
Y04265D02*
Y04372D01*
Y041628D02*
Y04265D01*
X045447Y04162D02*
X045455Y041628D01*
X045447Y0406D02*
Y04162D01*
X024075Y007742D02*
Y008313D01*
Y007742D02*
X024097Y00772D01*
Y00715D02*
Y00772D01*
D48*
X037885Y048145D02*
D03*
X038885D02*
D03*
X040885D02*
D03*
X039885D02*
D03*
X037885Y047145D02*
D03*
X038885D02*
D03*
X040885D02*
D03*
X039885D02*
D03*
X049639Y0325D02*
D03*
Y0315D02*
D03*
X049689Y0364D02*
D03*
Y0354D02*
D03*
X053389Y00695D02*
D03*
Y00595D02*
D03*
X034689Y0097D02*
D03*
Y0087D02*
D03*
X020589Y0098D02*
D03*
Y0088D02*
D03*
X028989Y03235D02*
D03*
Y03135D02*
D03*
X028889Y03635D02*
D03*
Y03535D02*
D03*
X062439Y0224D02*
D03*
X061439D02*
D03*
X058589D02*
D03*
X057589D02*
D03*
X053389Y0118D02*
D03*
Y0128D02*
D03*
X025139Y00675D02*
D03*
Y00575D02*
D03*
X029789Y0128D02*
D03*
Y0118D02*
D03*
X010739Y01355D02*
D03*
Y01255D02*
D03*
X022889Y02065D02*
D03*
Y01965D02*
D03*
X014439Y02065D02*
D03*
Y01965D02*
D03*
D49*
X061689Y04882D02*
D03*
X022789Y04842D02*
D03*
D50*
X061689Y04815D02*
D03*
Y04748D02*
D03*
Y04681D02*
D03*
Y04614D02*
D03*
X050089Y050558D02*
D03*
Y046542D02*
D03*
X044789Y034892D02*
D03*
Y038908D02*
D03*
X048839Y038692D02*
D03*
Y042708D02*
D03*
X050189D02*
D03*
Y038692D02*
D03*
X045989Y030008D02*
D03*
Y025992D02*
D03*
X068889Y015242D02*
D03*
Y019258D02*
D03*
X067639Y019208D02*
D03*
Y015192D02*
D03*
X066389Y015242D02*
D03*
Y019258D02*
D03*
X064597Y0177D02*
D03*
X060581D02*
D03*
X055631D02*
D03*
X059647D02*
D03*
X067347Y0037D02*
D03*
X063331D02*
D03*
X058247Y0059D02*
D03*
X054231D02*
D03*
X062197Y0093D02*
D03*
X058181D02*
D03*
X062197Y0081D02*
D03*
X058181D02*
D03*
X062197Y0105D02*
D03*
X058181D02*
D03*
X058297Y01185D02*
D03*
X054281D02*
D03*
X030631Y0059D02*
D03*
X034647D02*
D03*
X014031Y0174D02*
D03*
X018047D02*
D03*
X014989Y010942D02*
D03*
Y014958D02*
D03*
X022997Y0174D02*
D03*
X018981D02*
D03*
X034297Y0339D02*
D03*
X030281D02*
D03*
X032689Y030108D02*
D03*
Y026092D02*
D03*
X022789Y04775D02*
D03*
Y04708D02*
D03*
Y04641D02*
D03*
Y04574D02*
D03*
X016147Y04945D02*
D03*
X012131D02*
D03*
X020081Y00715D02*
D03*
X024097D02*
D03*
X029147Y0042D02*
D03*
X025131D02*
D03*
X025089Y011192D02*
D03*
Y015208D02*
D03*
D51*
X064639Y048389D02*
D03*
X054889Y046561D02*
D03*
X026139Y047889D02*
D03*
X015739Y04625D02*
D03*
D52*
X064639Y047011D02*
D03*
X054889Y047939D02*
D03*
X026139Y046511D02*
D03*
X015739Y047628D02*
D03*
D53*
X058739Y04825D02*
D03*
Y04625D02*
D03*
X019789Y04785D02*
D03*
Y04585D02*
D03*
D54*
X057789Y0509D02*
D03*
X017439Y05065D02*
D03*
D55*
X063289Y0509D02*
D03*
X022939Y05065D02*
D03*
D56*
X045447Y0448D02*
D03*
X045939D02*
D03*
X046431D02*
D03*
X045455Y04265D02*
D03*
X045947D02*
D03*
X046439D02*
D03*
X045447Y0406D02*
D03*
X045939D02*
D03*
X046431D02*
D03*
X049689Y025208D02*
D03*
Y0257D02*
D03*
Y026192D02*
D03*
X052597Y02235D02*
D03*
X053089D02*
D03*
X053581D02*
D03*
X030339Y02885D02*
D03*
X029847D02*
D03*
X029355D02*
D03*
X030281Y0257D02*
D03*
X029789D02*
D03*
X029297D02*
D03*
D57*
X046034Y032901D02*
D03*
X048484Y030951D02*
D03*
X048475Y032901D02*
D03*
X046034Y030932D02*
D03*
Y036838D02*
D03*
X048484Y034888D02*
D03*
X048475Y036838D02*
D03*
X046034Y034869D02*
D03*
X049971Y00731D02*
D03*
X052421Y00536D02*
D03*
X052412Y00731D02*
D03*
X049971Y005342D02*
D03*
Y013216D02*
D03*
X052421Y011266D02*
D03*
X052412Y013216D02*
D03*
X049971Y011247D02*
D03*
X031073Y010263D02*
D03*
X033523Y008313D02*
D03*
X033514Y010263D02*
D03*
X031073Y008294D02*
D03*
X021625Y010263D02*
D03*
X024075Y008313D02*
D03*
X024066Y010263D02*
D03*
X021625Y008294D02*
D03*
X030286Y032901D02*
D03*
X032736Y030951D02*
D03*
X032727Y032901D02*
D03*
X030286Y030932D02*
D03*
Y036838D02*
D03*
X032736Y034888D02*
D03*
X032727Y036838D02*
D03*
X030286Y034869D02*
D03*
X060798Y019121D02*
D03*
X063239Y02109D02*
D03*
X063248Y01914D02*
D03*
X060798Y02109D02*
D03*
X056861Y019121D02*
D03*
X059302Y02109D02*
D03*
X059311Y01914D02*
D03*
X056861Y02109D02*
D03*
X026349Y011247D02*
D03*
X02879Y013216D02*
D03*
X028799Y011266D02*
D03*
X026349Y013216D02*
D03*
Y005342D02*
D03*
X02879Y00731D02*
D03*
X028799Y00536D02*
D03*
X026349Y00731D02*
D03*
X013773Y011725D02*
D03*
X011805Y014166D02*
D03*
X013755Y014175D02*
D03*
X011805Y011725D02*
D03*
X019459Y019121D02*
D03*
X0219Y02109D02*
D03*
X021909Y01914D02*
D03*
X019459Y02109D02*
D03*
X015522Y019121D02*
D03*
X017963Y02109D02*
D03*
X017972Y01914D02*
D03*
X015522Y02109D02*
D03*
D58*
X035789Y0472D02*
D03*
D59*
Y0482D02*
D03*
D60*
X012339Y04645D02*
D03*
D61*
Y04745D02*
D03*
D62*
X068989Y01255D02*
D03*
Y01055D02*
D03*
Y00855D02*
D03*
Y00755D02*
D03*
Y00655D02*
D03*
Y00955D02*
D03*
Y01155D02*
D03*
D63*
Y00555D02*
D03*
D64*
X045739Y0115D02*
D03*
X044739D02*
D03*
X043739D02*
D03*
X042739D02*
D03*
X041739D02*
D03*
X040739D02*
D03*
X039739D02*
D03*
X038739D02*
D03*
X045739Y0085D02*
D03*
X044739D02*
D03*
X043739D02*
D03*
X042739D02*
D03*
X041739D02*
D03*
X040739D02*
D03*
X039739D02*
D03*
D65*
X038739D02*
D03*
D66*
X063339Y0125D02*
D03*
X032589Y0385D02*
D03*
D67*
X063339Y0115D02*
D03*
Y0105D02*
D03*
Y0095D02*
D03*
Y0085D02*
D03*
Y0075D02*
D03*
Y0065D02*
D03*
Y0055D02*
D03*
X066339Y0125D02*
D03*
Y0115D02*
D03*
Y0105D02*
D03*
Y0095D02*
D03*
Y0085D02*
D03*
Y0075D02*
D03*
Y0065D02*
D03*
Y0055D02*
D03*
X032589Y0395D02*
D03*
Y0405D02*
D03*
Y0415D02*
D03*
Y0425D02*
D03*
Y0435D02*
D03*
Y0445D02*
D03*
Y0455D02*
D03*
X029589Y0385D02*
D03*
Y0395D02*
D03*
Y0405D02*
D03*
Y0415D02*
D03*
Y0425D02*
D03*
Y0435D02*
D03*
Y0445D02*
D03*
Y0455D02*
D03*
D68*
X031589Y0216D02*
D03*
X032599D02*
D03*
X033579D02*
D03*
X034589D02*
D03*
D69*
Y03831D02*
D03*
Y0373D02*
D03*
Y03632D02*
D03*
Y03531D02*
D03*
D70*
X051389Y04655D02*
D03*
D71*
X052389D02*
D03*
D72*
X042385Y036385D02*
D03*
X036385Y027385D02*
D03*
Y028385D02*
D03*
Y029385D02*
D03*
Y030385D02*
D03*
Y031385D02*
D03*
Y032385D02*
D03*
Y033385D02*
D03*
Y034385D02*
D03*
Y035385D02*
D03*
Y036385D02*
D03*
Y037385D02*
D03*
Y038385D02*
D03*
Y039385D02*
D03*
Y040385D02*
D03*
Y041385D02*
D03*
Y042385D02*
D03*
Y043385D02*
D03*
Y025385D02*
D03*
Y026385D02*
D03*
X042385Y030385D02*
D03*
Y029385D02*
D03*
Y028385D02*
D03*
Y027385D02*
D03*
Y026385D02*
D03*
Y025385D02*
D03*
Y031385D02*
D03*
Y032385D02*
D03*
Y037385D02*
D03*
Y039385D02*
D03*
Y038385D02*
D03*
Y040385D02*
D03*
Y041385D02*
D03*
Y042385D02*
D03*
Y043385D02*
D03*
Y035385D02*
D03*
Y034385D02*
D03*
Y033385D02*
D03*
D73*
X036385Y024385D02*
D03*
X042385D02*
D03*
D74*
X068839Y05095D02*
D03*
X068889Y047534D02*
D03*
D75*
X068839Y049966D02*
D03*
X068889Y04655D02*
D03*
D76*
X063976Y03937D02*
D03*
Y019685D02*
D03*
X059055Y009843D02*
D03*
X054134Y03937D02*
D03*
X049213Y029528D02*
D03*
X054134Y019685D02*
D03*
X044291D02*
D03*
X034449D02*
D03*
X024606Y03937D02*
D03*
X019685Y029528D02*
D03*
Y009843D02*
D03*
X014764Y03937D02*
D03*
X009843Y029528D02*
D03*
Y009843D02*
D03*
D77*
X027536Y04155D02*
D03*
X040489Y0488D02*
D03*
X041939Y04875D02*
D03*
X042489Y0224D02*
D03*
X0378Y04345D02*
D03*
X042941Y0462D02*
D03*
X03376Y04723D02*
D03*
M02*
