G04*
G04 #@! TF.GenerationSoftware,Altium Limited,Altium Designer,21.3.2 (30)*
G04*
G04 Layer_Color=2752767*
%FSTAX24Y24*%
%MOIN*%
G70*
G04*
G04 #@! TF.SameCoordinates,7536F4C1-D20E-4AD8-A34B-159FF933A109*
G04*
G04*
G04 #@! TF.FilePolarity,Positive*
G04*
G01*
G75*
%ADD78C,0.0020*%
%ADD79C,0.0027*%
%ADD80C,0.0013*%
D78*
X037805Y048065D02*
Y048225D01*
X037965D01*
Y048065D01*
X037805D01*
X038805D02*
Y048225D01*
X038965D01*
Y048065D01*
X038805D01*
X040805D02*
Y048225D01*
X040965D01*
Y048065D01*
X040805D01*
X039805D02*
Y048225D01*
X039965D01*
Y048065D01*
X039805D01*
X037805Y047065D02*
Y047225D01*
X037965D01*
Y047065D01*
X037805D01*
X038805D02*
Y047225D01*
X038965D01*
Y047065D01*
X038805D01*
X040805D02*
Y047225D01*
X040965D01*
Y047065D01*
X040805D01*
X039805D02*
Y047225D01*
X039965D01*
Y047065D01*
X039805D01*
X061689Y04807D02*
X061609Y04823D01*
X061769D01*
X061689Y04807D01*
Y0474D02*
X061609Y04756D01*
X061769D01*
X061689Y0474D01*
Y04673D02*
X061609Y04689D01*
X061769D01*
X061689Y04673D01*
Y04606D02*
X061609Y04622D01*
X061769D01*
X061689Y04606D01*
X064639Y048309D02*
X064679Y048349D01*
X064719D01*
X064679Y048389D01*
X064719Y048429D01*
X064679D01*
X064639Y048469D01*
X064599Y048429D01*
X064559D01*
X064599Y048389D01*
X064559Y048349D01*
X064599D01*
X064639Y048309D01*
Y046931D02*
X064679Y046971D01*
X064719D01*
X064679Y047011D01*
X064719Y047051D01*
X064679D01*
X064639Y047091D01*
X064599Y047051D01*
X064559D01*
X064599Y047011D01*
X064559Y046971D01*
X064599D01*
X064639Y046931D01*
X058659Y04817D02*
X058699Y04825D01*
X058659Y04833D01*
X058739Y04829D01*
X058819Y04833D01*
X058779Y04825D01*
X058819Y04817D01*
X058739Y04821D01*
X058659Y04817D01*
Y04617D02*
X058699Y04625D01*
X058659Y04633D01*
X058739Y04629D01*
X058819Y04633D01*
X058779Y04625D01*
X058819Y04617D01*
X058739Y04621D01*
X058659Y04617D01*
X057749Y05086D02*
Y05082D01*
X057829D01*
Y05086D01*
X057869D01*
Y05094D01*
X057829D01*
Y05098D01*
X057749D01*
Y05094D01*
X057709D01*
Y05086D01*
X057749D01*
X063249D02*
Y05082D01*
X063329D01*
Y05086D01*
X063369D01*
Y05094D01*
X063329D01*
Y05098D01*
X063249D01*
Y05094D01*
X063209D01*
Y05086D01*
X063249D01*
X054889Y046481D02*
X054929Y046521D01*
X054969D01*
X054929Y046561D01*
X054969Y046601D01*
X054929D01*
X054889Y046641D01*
X054849Y046601D01*
X054809D01*
X054849Y046561D01*
X054809Y046521D01*
X054849D01*
X054889Y046481D01*
Y047859D02*
X054929Y047899D01*
X054969D01*
X054929Y047939D01*
X054969Y047979D01*
X054929D01*
X054889Y048019D01*
X054849Y047979D01*
X054809D01*
X054849Y047939D01*
X054809Y047899D01*
X054849D01*
X054889Y047859D01*
X050009Y050478D02*
X050049D01*
X050089Y050518D01*
X050129Y050478D01*
X050169D01*
Y050518D01*
X050129Y050558D01*
X050169Y050598D01*
Y050638D01*
X050129D01*
X050089Y050598D01*
X050049Y050638D01*
X050009D01*
Y050598D01*
X050049Y050558D01*
X050009Y050518D01*
Y050478D01*
Y046462D02*
X050049D01*
X050089Y046502D01*
X050129Y046462D01*
X050169D01*
Y046502D01*
X050129Y046542D01*
X050169Y046582D01*
Y046622D01*
X050129D01*
X050089Y046582D01*
X050049Y046622D01*
X050009D01*
Y046582D01*
X050049Y046542D01*
X050009Y046502D01*
Y046462D01*
X045367Y0448D02*
X045447Y04488D01*
X045527Y0448D01*
X045447Y04472D01*
X045367Y0448D01*
X045859Y04472D02*
Y04488D01*
X046019D01*
Y04472D01*
X045859D01*
X045899Y04476D02*
Y04484D01*
X045979D01*
Y04476D01*
X045899D01*
X046351Y04472D02*
Y04488D01*
X046511D01*
Y04472D01*
X046351D01*
X046391Y04476D02*
Y04484D01*
X046471D01*
Y04476D01*
X046391D01*
X045375Y04265D02*
X045455Y04273D01*
X045535Y04265D01*
X045455Y04257D01*
X045375Y04265D01*
X045867Y04257D02*
Y04273D01*
X046027D01*
Y04257D01*
X045867D01*
X045907Y04261D02*
Y04269D01*
X045987D01*
Y04261D01*
X045907D01*
X046359Y04257D02*
Y04273D01*
X046519D01*
Y04257D01*
X046359D01*
X046399Y04261D02*
Y04269D01*
X046479D01*
Y04261D01*
X046399D01*
X045367Y0406D02*
X045447Y04068D01*
X045527Y0406D01*
X045447Y04052D01*
X045367Y0406D01*
X045859Y04052D02*
Y04068D01*
X046019D01*
Y04052D01*
X045859D01*
X045899Y04056D02*
Y04064D01*
X045979D01*
Y04056D01*
X045899D01*
X046351Y04052D02*
Y04068D01*
X046511D01*
Y04052D01*
X046351D01*
X046391Y04056D02*
Y04064D01*
X046471D01*
Y04056D01*
X046391D01*
X044709Y034812D02*
X044749D01*
X044789Y034852D01*
X044829Y034812D01*
X044869D01*
Y034852D01*
X044829Y034892D01*
X044869Y034932D01*
Y034972D01*
X044829D01*
X044789Y034932D01*
X044749Y034972D01*
X044709D01*
Y034932D01*
X044749Y034892D01*
X044709Y034852D01*
Y034812D01*
Y038828D02*
X044749D01*
X044789Y038868D01*
X044829Y038828D01*
X044869D01*
Y038868D01*
X044829Y038908D01*
X044869Y038948D01*
Y038988D01*
X044829D01*
X044789Y038948D01*
X044749Y038988D01*
X044709D01*
Y038948D01*
X044749Y038908D01*
X044709Y038868D01*
Y038828D01*
X048759Y038612D02*
X048799D01*
X048839Y038652D01*
X048879Y038612D01*
X048919D01*
Y038652D01*
X048879Y038692D01*
X048919Y038732D01*
Y038772D01*
X048879D01*
X048839Y038732D01*
X048799Y038772D01*
X048759D01*
Y038732D01*
X048799Y038692D01*
X048759Y038652D01*
Y038612D01*
Y042628D02*
X048799D01*
X048839Y042668D01*
X048879Y042628D01*
X048919D01*
Y042668D01*
X048879Y042708D01*
X048919Y042748D01*
Y042788D01*
X048879D01*
X048839Y042748D01*
X048799Y042788D01*
X048759D01*
Y042748D01*
X048799Y042708D01*
X048759Y042668D01*
Y042628D01*
X050109D02*
X050149D01*
X050189Y042668D01*
X050229Y042628D01*
X050269D01*
Y042668D01*
X050229Y042708D01*
X050269Y042748D01*
Y042788D01*
X050229D01*
X050189Y042748D01*
X050149Y042788D01*
X050109D01*
Y042748D01*
X050149Y042708D01*
X050109Y042668D01*
Y042628D01*
Y038612D02*
X050149D01*
X050189Y038652D01*
X050229Y038612D01*
X050269D01*
Y038652D01*
X050229Y038692D01*
X050269Y038732D01*
Y038772D01*
X050229D01*
X050189Y038732D01*
X050149Y038772D01*
X050109D01*
Y038732D01*
X050149Y038692D01*
X050109Y038652D01*
Y038612D01*
X046034Y032821D02*
X045954Y032981D01*
X046114D01*
X046034Y032821D01*
Y032861D02*
X045994Y032941D01*
X046074D01*
X046034Y032861D01*
X048484Y030871D02*
X048404Y031031D01*
X048564D01*
X048484Y030871D01*
Y030911D02*
X048444Y030991D01*
X048524D01*
X048484Y030911D01*
X048475Y032821D02*
X048395Y032981D01*
X048555D01*
X048475Y032821D01*
Y032861D02*
X048435Y032941D01*
X048515D01*
X048475Y032861D01*
X046034Y030852D02*
X045954Y031012D01*
X046114D01*
X046034Y030852D01*
Y030892D02*
X045994Y030972D01*
X046074D01*
X046034Y030892D01*
Y036758D02*
X045954Y036918D01*
X046114D01*
X046034Y036758D01*
Y036798D02*
X045994Y036878D01*
X046074D01*
X046034Y036798D01*
X048484Y034808D02*
X048404Y034968D01*
X048564D01*
X048484Y034808D01*
Y034848D02*
X048444Y034928D01*
X048524D01*
X048484Y034848D01*
X048475Y036758D02*
X048395Y036918D01*
X048555D01*
X048475Y036758D01*
Y036798D02*
X048435Y036878D01*
X048515D01*
X048475Y036798D01*
X046034Y034789D02*
X045954Y034949D01*
X046114D01*
X046034Y034789D01*
Y034829D02*
X045994Y034909D01*
X046074D01*
X046034Y034829D01*
X045909Y029928D02*
X045949D01*
X045989Y029968D01*
X046029Y029928D01*
X046069D01*
Y029968D01*
X046029Y030008D01*
X046069Y030048D01*
Y030088D01*
X046029D01*
X045989Y030048D01*
X045949Y030088D01*
X045909D01*
Y030048D01*
X045949Y030008D01*
X045909Y029968D01*
Y029928D01*
Y025912D02*
X045949D01*
X045989Y025952D01*
X046029Y025912D01*
X046069D01*
Y025952D01*
X046029Y025992D01*
X046069Y026032D01*
Y026072D01*
X046029D01*
X045989Y026032D01*
X045949Y026072D01*
X045909D01*
Y026032D01*
X045949Y025992D01*
X045909Y025952D01*
Y025912D01*
X049609Y025208D02*
X049689Y025288D01*
X049769Y025208D01*
X049689Y025128D01*
X049609Y025208D01*
Y02562D02*
Y02578D01*
X049769D01*
Y02562D01*
X049609D01*
X049649Y02566D02*
Y02574D01*
X049729D01*
Y02566D01*
X049649D01*
X049609Y026112D02*
Y026272D01*
X049769D01*
Y026112D01*
X049609D01*
X049649Y026152D02*
Y026232D01*
X049729D01*
Y026152D01*
X049649D01*
X052517Y02235D02*
X052597Y02243D01*
X052677Y02235D01*
X052597Y02227D01*
X052517Y02235D01*
X053009Y02227D02*
Y02243D01*
X053169D01*
Y02227D01*
X053009D01*
X053049Y02231D02*
Y02239D01*
X053129D01*
Y02231D01*
X053049D01*
X053501Y02227D02*
Y02243D01*
X053661D01*
Y02227D01*
X053501D01*
X053541Y02231D02*
Y02239D01*
X053621D01*
Y02231D01*
X053541D01*
X068809Y015162D02*
X068849D01*
X068889Y015202D01*
X068929Y015162D01*
X068969D01*
Y015202D01*
X068929Y015242D01*
X068969Y015282D01*
Y015322D01*
X068929D01*
X068889Y015282D01*
X068849Y015322D01*
X068809D01*
Y015282D01*
X068849Y015242D01*
X068809Y015202D01*
Y015162D01*
Y019178D02*
X068849D01*
X068889Y019218D01*
X068929Y019178D01*
X068969D01*
Y019218D01*
X068929Y019258D01*
X068969Y019298D01*
Y019338D01*
X068929D01*
X068889Y019298D01*
X068849Y019338D01*
X068809D01*
Y019298D01*
X068849Y019258D01*
X068809Y019218D01*
Y019178D01*
X067559Y019128D02*
X067599D01*
X067639Y019168D01*
X067679Y019128D01*
X067719D01*
Y019168D01*
X067679Y019208D01*
X067719Y019248D01*
Y019288D01*
X067679D01*
X067639Y019248D01*
X067599Y019288D01*
X067559D01*
Y019248D01*
X067599Y019208D01*
X067559Y019168D01*
Y019128D01*
Y015112D02*
X067599D01*
X067639Y015152D01*
X067679Y015112D01*
X067719D01*
Y015152D01*
X067679Y015192D01*
X067719Y015232D01*
Y015272D01*
X067679D01*
X067639Y015232D01*
X067599Y015272D01*
X067559D01*
Y015232D01*
X067599Y015192D01*
X067559Y015152D01*
Y015112D01*
X066309Y015162D02*
X066349D01*
X066389Y015202D01*
X066429Y015162D01*
X066469D01*
Y015202D01*
X066429Y015242D01*
X066469Y015282D01*
Y015322D01*
X066429D01*
X066389Y015282D01*
X066349Y015322D01*
X066309D01*
Y015282D01*
X066349Y015242D01*
X066309Y015202D01*
Y015162D01*
Y019178D02*
X066349D01*
X066389Y019218D01*
X066429Y019178D01*
X066469D01*
Y019218D01*
X066429Y019258D01*
X066469Y019298D01*
Y019338D01*
X066429D01*
X066389Y019298D01*
X066349Y019338D01*
X066309D01*
Y019298D01*
X066349Y019258D01*
X066309Y019218D01*
Y019178D01*
X064517Y01762D02*
X064557D01*
X064597Y01766D01*
X064637Y01762D01*
X064677D01*
Y01766D01*
X064637Y0177D01*
X064677Y01774D01*
Y01778D01*
X064637D01*
X064597Y01774D01*
X064557Y01778D01*
X064517D01*
Y01774D01*
X064557Y0177D01*
X064517Y01766D01*
Y01762D01*
X060501D02*
X060541D01*
X060581Y01766D01*
X060621Y01762D01*
X060661D01*
Y01766D01*
X060621Y0177D01*
X060661Y01774D01*
Y01778D01*
X060621D01*
X060581Y01774D01*
X060541Y01778D01*
X060501D01*
Y01774D01*
X060541Y0177D01*
X060501Y01766D01*
Y01762D01*
X055551D02*
X055591D01*
X055631Y01766D01*
X055671Y01762D01*
X055711D01*
Y01766D01*
X055671Y0177D01*
X055711Y01774D01*
Y01778D01*
X055671D01*
X055631Y01774D01*
X055591Y01778D01*
X055551D01*
Y01774D01*
X055591Y0177D01*
X055551Y01766D01*
Y01762D01*
X059567D02*
X059607D01*
X059647Y01766D01*
X059687Y01762D01*
X059727D01*
Y01766D01*
X059687Y0177D01*
X059727Y01774D01*
Y01778D01*
X059687D01*
X059647Y01774D01*
X059607Y01778D01*
X059567D01*
Y01774D01*
X059607Y0177D01*
X059567Y01766D01*
Y01762D01*
X067267Y00362D02*
X067307D01*
X067347Y00366D01*
X067387Y00362D01*
X067427D01*
Y00366D01*
X067387Y0037D01*
X067427Y00374D01*
Y00378D01*
X067387D01*
X067347Y00374D01*
X067307Y00378D01*
X067267D01*
Y00374D01*
X067307Y0037D01*
X067267Y00366D01*
Y00362D01*
X063251D02*
X063291D01*
X063331Y00366D01*
X063371Y00362D01*
X063411D01*
Y00366D01*
X063371Y0037D01*
X063411Y00374D01*
Y00378D01*
X063371D01*
X063331Y00374D01*
X063291Y00378D01*
X063251D01*
Y00374D01*
X063291Y0037D01*
X063251Y00366D01*
Y00362D01*
X049971Y00723D02*
X049891Y00739D01*
X050051D01*
X049971Y00723D01*
Y00727D02*
X049931Y00735D01*
X050011D01*
X049971Y00727D01*
X052421Y00528D02*
X052341Y00544D01*
X052501D01*
X052421Y00528D01*
Y00532D02*
X052381Y0054D01*
X052461D01*
X052421Y00532D01*
X052412Y00723D02*
X052332Y00739D01*
X052492D01*
X052412Y00723D01*
Y00727D02*
X052372Y00735D01*
X052452D01*
X052412Y00727D01*
X049971Y005262D02*
X049891Y005422D01*
X050051D01*
X049971Y005262D01*
Y005302D02*
X049931Y005382D01*
X050011D01*
X049971Y005302D01*
X058167Y00582D02*
X058207D01*
X058247Y00586D01*
X058287Y00582D01*
X058327D01*
Y00586D01*
X058287Y0059D01*
X058327Y00594D01*
Y00598D01*
X058287D01*
X058247Y00594D01*
X058207Y00598D01*
X058167D01*
Y00594D01*
X058207Y0059D01*
X058167Y00586D01*
Y00582D01*
X054151D02*
X054191D01*
X054231Y00586D01*
X054271Y00582D01*
X054311D01*
Y00586D01*
X054271Y0059D01*
X054311Y00594D01*
Y00598D01*
X054271D01*
X054231Y00594D01*
X054191Y00598D01*
X054151D01*
Y00594D01*
X054191Y0059D01*
X054151Y00586D01*
Y00582D01*
X062117Y00922D02*
X062157D01*
X062197Y00926D01*
X062237Y00922D01*
X062277D01*
Y00926D01*
X062237Y0093D01*
X062277Y00934D01*
Y00938D01*
X062237D01*
X062197Y00934D01*
X062157Y00938D01*
X062117D01*
Y00934D01*
X062157Y0093D01*
X062117Y00926D01*
Y00922D01*
X058101D02*
X058141D01*
X058181Y00926D01*
X058221Y00922D01*
X058261D01*
Y00926D01*
X058221Y0093D01*
X058261Y00934D01*
Y00938D01*
X058221D01*
X058181Y00934D01*
X058141Y00938D01*
X058101D01*
Y00934D01*
X058141Y0093D01*
X058101Y00926D01*
Y00922D01*
X062117Y00802D02*
X062157D01*
X062197Y00806D01*
X062237Y00802D01*
X062277D01*
Y00806D01*
X062237Y0081D01*
X062277Y00814D01*
Y00818D01*
X062237D01*
X062197Y00814D01*
X062157Y00818D01*
X062117D01*
Y00814D01*
X062157Y0081D01*
X062117Y00806D01*
Y00802D01*
X058101D02*
X058141D01*
X058181Y00806D01*
X058221Y00802D01*
X058261D01*
Y00806D01*
X058221Y0081D01*
X058261Y00814D01*
Y00818D01*
X058221D01*
X058181Y00814D01*
X058141Y00818D01*
X058101D01*
Y00814D01*
X058141Y0081D01*
X058101Y00806D01*
Y00802D01*
X062117Y01042D02*
X062157D01*
X062197Y01046D01*
X062237Y01042D01*
X062277D01*
Y01046D01*
X062237Y0105D01*
X062277Y01054D01*
Y01058D01*
X062237D01*
X062197Y01054D01*
X062157Y01058D01*
X062117D01*
Y01054D01*
X062157Y0105D01*
X062117Y01046D01*
Y01042D01*
X058101D02*
X058141D01*
X058181Y01046D01*
X058221Y01042D01*
X058261D01*
Y01046D01*
X058221Y0105D01*
X058261Y01054D01*
Y01058D01*
X058221D01*
X058181Y01054D01*
X058141Y01058D01*
X058101D01*
Y01054D01*
X058141Y0105D01*
X058101Y01046D01*
Y01042D01*
X058217Y01177D02*
X058257D01*
X058297Y01181D01*
X058337Y01177D01*
X058377D01*
Y01181D01*
X058337Y01185D01*
X058377Y01189D01*
Y01193D01*
X058337D01*
X058297Y01189D01*
X058257Y01193D01*
X058217D01*
Y01189D01*
X058257Y01185D01*
X058217Y01181D01*
Y01177D01*
X054201D02*
X054241D01*
X054281Y01181D01*
X054321Y01177D01*
X054361D01*
Y01181D01*
X054321Y01185D01*
X054361Y01189D01*
Y01193D01*
X054321D01*
X054281Y01189D01*
X054241Y01193D01*
X054201D01*
Y01189D01*
X054241Y01185D01*
X054201Y01181D01*
Y01177D01*
X049971Y013136D02*
X049891Y013296D01*
X050051D01*
X049971Y013136D01*
Y013176D02*
X049931Y013256D01*
X050011D01*
X049971Y013176D01*
X052421Y011186D02*
X052341Y011346D01*
X052501D01*
X052421Y011186D01*
Y011226D02*
X052381Y011306D01*
X052461D01*
X052421Y011226D01*
X052412Y013136D02*
X052332Y013296D01*
X052492D01*
X052412Y013136D01*
Y013176D02*
X052372Y013256D01*
X052452D01*
X052412Y013176D01*
X049971Y011167D02*
X049891Y011327D01*
X050051D01*
X049971Y011167D01*
Y011207D02*
X049931Y011287D01*
X050011D01*
X049971Y011207D01*
X030551Y00582D02*
X030591D01*
X030631Y00586D01*
X030671Y00582D01*
X030711D01*
Y00586D01*
X030671Y0059D01*
X030711Y00594D01*
Y00598D01*
X030671D01*
X030631Y00594D01*
X030591Y00598D01*
X030551D01*
Y00594D01*
X030591Y0059D01*
X030551Y00586D01*
Y00582D01*
X034567D02*
X034607D01*
X034647Y00586D01*
X034687Y00582D01*
X034727D01*
Y00586D01*
X034687Y0059D01*
X034727Y00594D01*
Y00598D01*
X034687D01*
X034647Y00594D01*
X034607Y00598D01*
X034567D01*
Y00594D01*
X034607Y0059D01*
X034567Y00586D01*
Y00582D01*
X031073Y010183D02*
X030993Y010343D01*
X031153D01*
X031073Y010183D01*
Y010223D02*
X031033Y010303D01*
X031113D01*
X031073Y010223D01*
X033523Y008233D02*
X033443Y008393D01*
X033603D01*
X033523Y008233D01*
Y008273D02*
X033483Y008353D01*
X033563D01*
X033523Y008273D01*
X033514Y010183D02*
X033434Y010343D01*
X033594D01*
X033514Y010183D01*
Y010223D02*
X033474Y010303D01*
X033554D01*
X033514Y010223D01*
X031073Y008214D02*
X030993Y008374D01*
X031153D01*
X031073Y008214D01*
Y008254D02*
X031033Y008334D01*
X031113D01*
X031073Y008254D01*
X021625Y010183D02*
X021545Y010343D01*
X021705D01*
X021625Y010183D01*
Y010223D02*
X021585Y010303D01*
X021665D01*
X021625Y010223D01*
X024075Y008233D02*
X023995Y008393D01*
X024155D01*
X024075Y008233D01*
Y008273D02*
X024035Y008353D01*
X024115D01*
X024075Y008273D01*
X024066Y010183D02*
X023986Y010343D01*
X024146D01*
X024066Y010183D01*
Y010223D02*
X024026Y010303D01*
X024106D01*
X024066Y010223D01*
X021625Y008214D02*
X021545Y008374D01*
X021705D01*
X021625Y008214D01*
Y008254D02*
X021585Y008334D01*
X021665D01*
X021625Y008254D01*
X013951Y01732D02*
X013991D01*
X014031Y01736D01*
X014071Y01732D01*
X014111D01*
Y01736D01*
X014071Y0174D01*
X014111Y01744D01*
Y01748D01*
X014071D01*
X014031Y01744D01*
X013991Y01748D01*
X013951D01*
Y01744D01*
X013991Y0174D01*
X013951Y01736D01*
Y01732D01*
X017967D02*
X018007D01*
X018047Y01736D01*
X018087Y01732D01*
X018127D01*
Y01736D01*
X018087Y0174D01*
X018127Y01744D01*
Y01748D01*
X018087D01*
X018047Y01744D01*
X018007Y01748D01*
X017967D01*
Y01744D01*
X018007Y0174D01*
X017967Y01736D01*
Y01732D01*
X014909Y010862D02*
X014949D01*
X014989Y010902D01*
X015029Y010862D01*
X015069D01*
Y010902D01*
X015029Y010942D01*
X015069Y010982D01*
Y011022D01*
X015029D01*
X014989Y010982D01*
X014949Y011022D01*
X014909D01*
Y010982D01*
X014949Y010942D01*
X014909Y010902D01*
Y010862D01*
Y014878D02*
X014949D01*
X014989Y014918D01*
X015029Y014878D01*
X015069D01*
Y014918D01*
X015029Y014958D01*
X015069Y014998D01*
Y015038D01*
X015029D01*
X014989Y014998D01*
X014949Y015038D01*
X014909D01*
Y014998D01*
X014949Y014958D01*
X014909Y014918D01*
Y014878D01*
X022917Y01732D02*
X022957D01*
X022997Y01736D01*
X023037Y01732D01*
X023077D01*
Y01736D01*
X023037Y0174D01*
X023077Y01744D01*
Y01748D01*
X023037D01*
X022997Y01744D01*
X022957Y01748D01*
X022917D01*
Y01744D01*
X022957Y0174D01*
X022917Y01736D01*
Y01732D01*
X018901D02*
X018941D01*
X018981Y01736D01*
X019021Y01732D01*
X019061D01*
Y01736D01*
X019021Y0174D01*
X019061Y01744D01*
Y01748D01*
X019021D01*
X018981Y01744D01*
X018941Y01748D01*
X018901D01*
Y01744D01*
X018941Y0174D01*
X018901Y01736D01*
Y01732D01*
X034217Y03382D02*
X034257D01*
X034297Y03386D01*
X034337Y03382D01*
X034377D01*
Y03386D01*
X034337Y0339D01*
X034377Y03394D01*
Y03398D01*
X034337D01*
X034297Y03394D01*
X034257Y03398D01*
X034217D01*
Y03394D01*
X034257Y0339D01*
X034217Y03386D01*
Y03382D01*
X030201D02*
X030241D01*
X030281Y03386D01*
X030321Y03382D01*
X030361D01*
Y03386D01*
X030321Y0339D01*
X030361Y03394D01*
Y03398D01*
X030321D01*
X030281Y03394D01*
X030241Y03398D01*
X030201D01*
Y03394D01*
X030241Y0339D01*
X030201Y03386D01*
Y03382D01*
X032609Y030028D02*
X032649D01*
X032689Y030068D01*
X032729Y030028D01*
X032769D01*
Y030068D01*
X032729Y030108D01*
X032769Y030148D01*
Y030188D01*
X032729D01*
X032689Y030148D01*
X032649Y030188D01*
X032609D01*
Y030148D01*
X032649Y030108D01*
X032609Y030068D01*
Y030028D01*
Y026012D02*
X032649D01*
X032689Y026052D01*
X032729Y026012D01*
X032769D01*
Y026052D01*
X032729Y026092D01*
X032769Y026132D01*
Y026172D01*
X032729D01*
X032689Y026132D01*
X032649Y026172D01*
X032609D01*
Y026132D01*
X032649Y026092D01*
X032609Y026052D01*
Y026012D01*
X030286Y032821D02*
X030206Y032981D01*
X030366D01*
X030286Y032821D01*
Y032861D02*
X030246Y032941D01*
X030326D01*
X030286Y032861D01*
X032736Y030871D02*
X032656Y031031D01*
X032816D01*
X032736Y030871D01*
Y030911D02*
X032696Y030991D01*
X032776D01*
X032736Y030911D01*
X032727Y032821D02*
X032647Y032981D01*
X032807D01*
X032727Y032821D01*
Y032861D02*
X032687Y032941D01*
X032767D01*
X032727Y032861D01*
X030286Y030852D02*
X030206Y031012D01*
X030366D01*
X030286Y030852D01*
Y030892D02*
X030246Y030972D01*
X030326D01*
X030286Y030892D01*
Y036758D02*
X030206Y036918D01*
X030366D01*
X030286Y036758D01*
Y036798D02*
X030246Y036878D01*
X030326D01*
X030286Y036798D01*
X032736Y034808D02*
X032656Y034968D01*
X032816D01*
X032736Y034808D01*
Y034848D02*
X032696Y034928D01*
X032776D01*
X032736Y034848D01*
X032727Y036758D02*
X032647Y036918D01*
X032807D01*
X032727Y036758D01*
Y036798D02*
X032687Y036878D01*
X032767D01*
X032727Y036798D01*
X030286Y034789D02*
X030206Y034949D01*
X030366D01*
X030286Y034789D01*
Y034829D02*
X030246Y034909D01*
X030326D01*
X030286Y034829D01*
X035789Y04712D02*
X035709Y04728D01*
X035869D01*
X035789Y04712D01*
Y04812D02*
X035709Y04828D01*
X035869D01*
X035789Y04812D01*
X022789Y04767D02*
X022709Y04783D01*
X022869D01*
X022789Y04767D01*
Y047D02*
X022709Y04716D01*
X022869D01*
X022789Y047D01*
Y04633D02*
X022709Y04649D01*
X022869D01*
X022789Y04633D01*
Y04566D02*
X022709Y04582D01*
X022869D01*
X022789Y04566D01*
X026139Y047809D02*
X026179Y047849D01*
X026219D01*
X026179Y047889D01*
X026219Y047929D01*
X026179D01*
X026139Y047969D01*
X026099Y047929D01*
X026059D01*
X026099Y047889D01*
X026059Y047849D01*
X026099D01*
X026139Y047809D01*
Y046431D02*
X026179Y046471D01*
X026219D01*
X026179Y046511D01*
X026219Y046551D01*
X026179D01*
X026139Y046591D01*
X026099Y046551D01*
X026059D01*
X026099Y046511D01*
X026059Y046471D01*
X026099D01*
X026139Y046431D01*
X019709Y04777D02*
X019749Y04785D01*
X019709Y04793D01*
X019789Y04789D01*
X019869Y04793D01*
X019829Y04785D01*
X019869Y04777D01*
X019789Y04781D01*
X019709Y04777D01*
Y04577D02*
X019749Y04585D01*
X019709Y04593D01*
X019789Y04589D01*
X019869Y04593D01*
X019829Y04585D01*
X019869Y04577D01*
X019789Y04581D01*
X019709Y04577D01*
X017399Y05061D02*
Y05057D01*
X017479D01*
Y05061D01*
X017519D01*
Y05069D01*
X017479D01*
Y05073D01*
X017399D01*
Y05069D01*
X017359D01*
Y05061D01*
X017399D01*
X022899D02*
Y05057D01*
X022979D01*
Y05061D01*
X023019D01*
Y05069D01*
X022979D01*
Y05073D01*
X022899D01*
Y05069D01*
X022859D01*
Y05061D01*
X022899D01*
X016067Y04937D02*
X016107D01*
X016147Y04941D01*
X016187Y04937D01*
X016227D01*
Y04941D01*
X016187Y04945D01*
X016227Y04949D01*
Y04953D01*
X016187D01*
X016147Y04949D01*
X016107Y04953D01*
X016067D01*
Y04949D01*
X016107Y04945D01*
X016067Y04941D01*
Y04937D01*
X012051D02*
X012091D01*
X012131Y04941D01*
X012171Y04937D01*
X012211D01*
Y04941D01*
X012171Y04945D01*
X012211Y04949D01*
Y04953D01*
X012171D01*
X012131Y04949D01*
X012091Y04953D01*
X012051D01*
Y04949D01*
X012091Y04945D01*
X012051Y04941D01*
Y04937D01*
X012339Y04637D02*
X012379Y04641D01*
X012419D01*
X012379Y04645D01*
X012419Y04649D01*
X012379D01*
X012339Y04653D01*
X012299Y04649D01*
X012259D01*
X012299Y04645D01*
X012259Y04641D01*
X012299D01*
X012339Y04637D01*
Y04641D02*
X012359Y04643D01*
X012379D01*
X012359Y04645D01*
X012379Y04647D01*
X012359D01*
X012339Y04649D01*
X012319Y04647D01*
X012299D01*
X012319Y04645D01*
X012299Y04643D01*
X012319D01*
X012339Y04641D01*
Y04737D02*
X012379Y04741D01*
X012419D01*
X012379Y04745D01*
X012419Y04749D01*
X012379D01*
X012339Y04753D01*
X012299Y04749D01*
X012259D01*
X012299Y04745D01*
X012259Y04741D01*
X012299D01*
X012339Y04737D01*
Y04741D02*
X012359Y04743D01*
X012379D01*
X012359Y04745D01*
X012379Y04747D01*
X012359D01*
X012339Y04749D01*
X012319Y04747D01*
X012299D01*
X012319Y04745D01*
X012299Y04743D01*
X012319D01*
X012339Y04741D01*
X068909Y01247D02*
X068949Y01255D01*
X068909Y01263D01*
X068989Y01259D01*
X069069Y01263D01*
X069029Y01255D01*
X069069Y01247D01*
X068989Y01251D01*
X068909Y01247D01*
X068949Y01251D02*
X068969Y01255D01*
X068949Y01259D01*
X068989Y01257D01*
X069029Y01259D01*
X069009Y01255D01*
X069029Y01251D01*
X068989Y01253D01*
X068949Y01251D01*
X068909Y01047D02*
X068949Y01055D01*
X068909Y01063D01*
X068989Y01059D01*
X069069Y01063D01*
X069029Y01055D01*
X069069Y01047D01*
X068989Y01051D01*
X068909Y01047D01*
X068949Y01051D02*
X068969Y01055D01*
X068949Y01059D01*
X068989Y01057D01*
X069029Y01059D01*
X069009Y01055D01*
X069029Y01051D01*
X068989Y01053D01*
X068949Y01051D01*
X068909Y00847D02*
X068949Y00855D01*
X068909Y00863D01*
X068989Y00859D01*
X069069Y00863D01*
X069029Y00855D01*
X069069Y00847D01*
X068989Y00851D01*
X068909Y00847D01*
X068949Y00851D02*
X068969Y00855D01*
X068949Y00859D01*
X068989Y00857D01*
X069029Y00859D01*
X069009Y00855D01*
X069029Y00851D01*
X068989Y00853D01*
X068949Y00851D01*
X068909Y00747D02*
X068949Y00755D01*
X068909Y00763D01*
X068989Y00759D01*
X069069Y00763D01*
X069029Y00755D01*
X069069Y00747D01*
X068989Y00751D01*
X068909Y00747D01*
X068949Y00751D02*
X068969Y00755D01*
X068949Y00759D01*
X068989Y00757D01*
X069029Y00759D01*
X069009Y00755D01*
X069029Y00751D01*
X068989Y00753D01*
X068949Y00751D01*
X068909Y00647D02*
X068949Y00655D01*
X068909Y00663D01*
X068989Y00659D01*
X069069Y00663D01*
X069029Y00655D01*
X069069Y00647D01*
X068989Y00651D01*
X068909Y00647D01*
X068949Y00651D02*
X068969Y00655D01*
X068949Y00659D01*
X068989Y00657D01*
X069029Y00659D01*
X069009Y00655D01*
X069029Y00651D01*
X068989Y00653D01*
X068949Y00651D01*
X068909Y00547D02*
X068949Y00555D01*
X068909Y00563D01*
X068989Y00559D01*
X069069Y00563D01*
X069029Y00555D01*
X069069Y00547D01*
X068989Y00551D01*
X068909Y00547D01*
X068949Y00551D02*
X068969Y00555D01*
X068949Y00559D01*
X068989Y00557D01*
X069029Y00559D01*
X069009Y00555D01*
X069029Y00551D01*
X068989Y00553D01*
X068949Y00551D01*
X068909Y00947D02*
X068949Y00955D01*
X068909Y00963D01*
X068989Y00959D01*
X069069Y00963D01*
X069029Y00955D01*
X069069Y00947D01*
X068989Y00951D01*
X068909Y00947D01*
X068949Y00951D02*
X068969Y00955D01*
X068949Y00959D01*
X068989Y00957D01*
X069029Y00959D01*
X069009Y00955D01*
X069029Y00951D01*
X068989Y00953D01*
X068949Y00951D01*
X068909Y01147D02*
X068949Y01155D01*
X068909Y01163D01*
X068989Y01159D01*
X069069Y01163D01*
X069029Y01155D01*
X069069Y01147D01*
X068989Y01151D01*
X068909Y01147D01*
X068949Y01151D02*
X068969Y01155D01*
X068949Y01159D01*
X068989Y01157D01*
X069029Y01159D01*
X069009Y01155D01*
X069029Y01151D01*
X068989Y01153D01*
X068949Y01151D01*
X045739Y01142D02*
X045659Y01158D01*
X045819D01*
X045739Y01142D01*
Y01146D02*
X045699Y01154D01*
X045779D01*
X045739Y01146D01*
X044739Y01142D02*
X044659Y01158D01*
X044819D01*
X044739Y01142D01*
Y01146D02*
X044699Y01154D01*
X044779D01*
X044739Y01146D01*
X043739Y01142D02*
X043659Y01158D01*
X043819D01*
X043739Y01142D01*
Y01146D02*
X043699Y01154D01*
X043779D01*
X043739Y01146D01*
X042739Y01142D02*
X042659Y01158D01*
X042819D01*
X042739Y01142D01*
Y01146D02*
X042699Y01154D01*
X042779D01*
X042739Y01146D01*
X041739Y01142D02*
X041659Y01158D01*
X041819D01*
X041739Y01142D01*
Y01146D02*
X041699Y01154D01*
X041779D01*
X041739Y01146D01*
X040739Y01142D02*
X040659Y01158D01*
X040819D01*
X040739Y01142D01*
Y01146D02*
X040699Y01154D01*
X040779D01*
X040739Y01146D01*
X039739Y01142D02*
X039659Y01158D01*
X039819D01*
X039739Y01142D01*
Y01146D02*
X039699Y01154D01*
X039779D01*
X039739Y01146D01*
X038739Y01142D02*
X038659Y01158D01*
X038819D01*
X038739Y01142D01*
Y01146D02*
X038699Y01154D01*
X038779D01*
X038739Y01146D01*
X045739Y00842D02*
X045659Y00858D01*
X045819D01*
X045739Y00842D01*
Y00846D02*
X045699Y00854D01*
X045779D01*
X045739Y00846D01*
X044739Y00842D02*
X044659Y00858D01*
X044819D01*
X044739Y00842D01*
Y00846D02*
X044699Y00854D01*
X044779D01*
X044739Y00846D01*
X043739Y00842D02*
X043659Y00858D01*
X043819D01*
X043739Y00842D01*
Y00846D02*
X043699Y00854D01*
X043779D01*
X043739Y00846D01*
X042739Y00842D02*
X042659Y00858D01*
X042819D01*
X042739Y00842D01*
Y00846D02*
X042699Y00854D01*
X042779D01*
X042739Y00846D01*
X041739Y00842D02*
X041659Y00858D01*
X041819D01*
X041739Y00842D01*
Y00846D02*
X041699Y00854D01*
X041779D01*
X041739Y00846D01*
X040739Y00842D02*
X040659Y00858D01*
X040819D01*
X040739Y00842D01*
Y00846D02*
X040699Y00854D01*
X040779D01*
X040739Y00846D01*
X039739Y00842D02*
X039659Y00858D01*
X039819D01*
X039739Y00842D01*
Y00846D02*
X039699Y00854D01*
X039779D01*
X039739Y00846D01*
X038739Y00842D02*
X038659Y00858D01*
X038819D01*
X038739Y00842D01*
Y00846D02*
X038699Y00854D01*
X038779D01*
X038739Y00846D01*
X063339Y01242D02*
X063259Y01258D01*
X063419D01*
X063339Y01242D01*
Y01246D02*
X063299Y01254D01*
X063379D01*
X063339Y01246D01*
Y01142D02*
X063259Y01158D01*
X063419D01*
X063339Y01142D01*
Y01146D02*
X063299Y01154D01*
X063379D01*
X063339Y01146D01*
Y01042D02*
X063259Y01058D01*
X063419D01*
X063339Y01042D01*
Y01046D02*
X063299Y01054D01*
X063379D01*
X063339Y01046D01*
Y00942D02*
X063259Y00958D01*
X063419D01*
X063339Y00942D01*
Y00946D02*
X063299Y00954D01*
X063379D01*
X063339Y00946D01*
Y00842D02*
X063259Y00858D01*
X063419D01*
X063339Y00842D01*
Y00846D02*
X063299Y00854D01*
X063379D01*
X063339Y00846D01*
Y00742D02*
X063259Y00758D01*
X063419D01*
X063339Y00742D01*
Y00746D02*
X063299Y00754D01*
X063379D01*
X063339Y00746D01*
Y00642D02*
X063259Y00658D01*
X063419D01*
X063339Y00642D01*
Y00646D02*
X063299Y00654D01*
X063379D01*
X063339Y00646D01*
Y00542D02*
X063259Y00558D01*
X063419D01*
X063339Y00542D01*
Y00546D02*
X063299Y00554D01*
X063379D01*
X063339Y00546D01*
X066339Y01242D02*
X066259Y01258D01*
X066419D01*
X066339Y01242D01*
Y01246D02*
X066299Y01254D01*
X066379D01*
X066339Y01246D01*
Y01142D02*
X066259Y01158D01*
X066419D01*
X066339Y01142D01*
Y01146D02*
X066299Y01154D01*
X066379D01*
X066339Y01146D01*
Y01042D02*
X066259Y01058D01*
X066419D01*
X066339Y01042D01*
Y01046D02*
X066299Y01054D01*
X066379D01*
X066339Y01046D01*
Y00942D02*
X066259Y00958D01*
X066419D01*
X066339Y00942D01*
Y00946D02*
X066299Y00954D01*
X066379D01*
X066339Y00946D01*
Y00842D02*
X066259Y00858D01*
X066419D01*
X066339Y00842D01*
Y00846D02*
X066299Y00854D01*
X066379D01*
X066339Y00846D01*
Y00742D02*
X066259Y00758D01*
X066419D01*
X066339Y00742D01*
Y00746D02*
X066299Y00754D01*
X066379D01*
X066339Y00746D01*
Y00642D02*
X066259Y00658D01*
X066419D01*
X066339Y00642D01*
Y00646D02*
X066299Y00654D01*
X066379D01*
X066339Y00646D01*
Y00542D02*
X066259Y00558D01*
X066419D01*
X066339Y00542D01*
Y00546D02*
X066299Y00554D01*
X066379D01*
X066339Y00546D01*
X060798Y019041D02*
X060718Y019201D01*
X060878D01*
X060798Y019041D01*
Y019081D02*
X060758Y019161D01*
X060838D01*
X060798Y019081D01*
X063239Y02101D02*
X063159Y02117D01*
X063319D01*
X063239Y02101D01*
Y02105D02*
X063199Y02113D01*
X063279D01*
X063239Y02105D01*
X063248Y01906D02*
X063168Y01922D01*
X063328D01*
X063248Y01906D01*
Y0191D02*
X063208Y01918D01*
X063288D01*
X063248Y0191D01*
X060798Y02101D02*
X060718Y02117D01*
X060878D01*
X060798Y02101D01*
Y02105D02*
X060758Y02113D01*
X060838D01*
X060798Y02105D01*
X056861Y019041D02*
X056781Y019201D01*
X056941D01*
X056861Y019041D01*
Y019081D02*
X056821Y019161D01*
X056901D01*
X056861Y019081D01*
X059302Y02101D02*
X059222Y02117D01*
X059382D01*
X059302Y02101D01*
Y02105D02*
X059262Y02113D01*
X059342D01*
X059302Y02105D01*
X059311Y01906D02*
X059231Y01922D01*
X059391D01*
X059311Y01906D01*
Y0191D02*
X059271Y01918D01*
X059351D01*
X059311Y0191D01*
X056861Y02101D02*
X056781Y02117D01*
X056941D01*
X056861Y02101D01*
Y02105D02*
X056821Y02113D01*
X056901D01*
X056861Y02105D01*
X031549Y02156D02*
Y02152D01*
X031629D01*
Y02156D01*
X031669D01*
Y02164D01*
X031629D01*
Y02168D01*
X031549D01*
Y02164D01*
X031509D01*
Y02156D01*
X031549D01*
X031569Y02158D02*
Y02156D01*
X031609D01*
Y02158D01*
X031629D01*
Y02162D01*
X031609D01*
Y02164D01*
X031569D01*
Y02162D01*
X031549D01*
Y02158D01*
X031569D01*
X032559Y02156D02*
Y02152D01*
X032639D01*
Y02156D01*
X032679D01*
Y02164D01*
X032639D01*
Y02168D01*
X032559D01*
Y02164D01*
X032519D01*
Y02156D01*
X032559D01*
X032579Y02158D02*
Y02156D01*
X032619D01*
Y02158D01*
X032639D01*
Y02162D01*
X032619D01*
Y02164D01*
X032579D01*
Y02162D01*
X032559D01*
Y02158D01*
X032579D01*
X033539Y02156D02*
Y02152D01*
X033619D01*
Y02156D01*
X033659D01*
Y02164D01*
X033619D01*
Y02168D01*
X033539D01*
Y02164D01*
X033499D01*
Y02156D01*
X033539D01*
X033559Y02158D02*
Y02156D01*
X033599D01*
Y02158D01*
X033619D01*
Y02162D01*
X033599D01*
Y02164D01*
X033559D01*
Y02162D01*
X033539D01*
Y02158D01*
X033559D01*
X034549Y02156D02*
Y02152D01*
X034629D01*
Y02156D01*
X034669D01*
Y02164D01*
X034629D01*
Y02168D01*
X034549D01*
Y02164D01*
X034509D01*
Y02156D01*
X034549D01*
X034569Y02158D02*
Y02156D01*
X034609D01*
Y02158D01*
X034629D01*
Y02162D01*
X034609D01*
Y02164D01*
X034569D01*
Y02162D01*
X034549D01*
Y02158D01*
X034569D01*
X034549Y03827D02*
Y03823D01*
X034629D01*
Y03827D01*
X034669D01*
Y03835D01*
X034629D01*
Y03839D01*
X034549D01*
Y03835D01*
X034509D01*
Y03827D01*
X034549D01*
X034569Y03829D02*
Y03827D01*
X034609D01*
Y03829D01*
X034629D01*
Y03833D01*
X034609D01*
Y03835D01*
X034569D01*
Y03833D01*
X034549D01*
Y03829D01*
X034569D01*
X034549Y03726D02*
Y03722D01*
X034629D01*
Y03726D01*
X034669D01*
Y03734D01*
X034629D01*
Y03738D01*
X034549D01*
Y03734D01*
X034509D01*
Y03726D01*
X034549D01*
X034569Y03728D02*
Y03726D01*
X034609D01*
Y03728D01*
X034629D01*
Y03732D01*
X034609D01*
Y03734D01*
X034569D01*
Y03732D01*
X034549D01*
Y03728D01*
X034569D01*
X034549Y03628D02*
Y03624D01*
X034629D01*
Y03628D01*
X034669D01*
Y03636D01*
X034629D01*
Y0364D01*
X034549D01*
Y03636D01*
X034509D01*
Y03628D01*
X034549D01*
X034569Y0363D02*
Y03628D01*
X034609D01*
Y0363D01*
X034629D01*
Y03634D01*
X034609D01*
Y03636D01*
X034569D01*
Y03634D01*
X034549D01*
Y0363D01*
X034569D01*
X034549Y03527D02*
Y03523D01*
X034629D01*
Y03527D01*
X034669D01*
Y03535D01*
X034629D01*
Y03539D01*
X034549D01*
Y03535D01*
X034509D01*
Y03527D01*
X034549D01*
X034569Y03529D02*
Y03527D01*
X034609D01*
Y03529D01*
X034629D01*
Y03533D01*
X034609D01*
Y03535D01*
X034569D01*
Y03533D01*
X034549D01*
Y03529D01*
X034569D01*
X051389Y04647D02*
X051429Y04651D01*
X051469D01*
X051429Y04655D01*
X051469Y04659D01*
X051429D01*
X051389Y04663D01*
X051349Y04659D01*
X051309D01*
X051349Y04655D01*
X051309Y04651D01*
X051349D01*
X051389Y04647D01*
Y04651D02*
X051409Y04653D01*
X051429D01*
X051409Y04655D01*
X051429Y04657D01*
X051409D01*
X051389Y04659D01*
X051369Y04657D01*
X051349D01*
X051369Y04655D01*
X051349Y04653D01*
X051369D01*
X051389Y04651D01*
X052389Y04647D02*
X052429Y04651D01*
X052469D01*
X052429Y04655D01*
X052469Y04659D01*
X052429D01*
X052389Y04663D01*
X052349Y04659D01*
X052309D01*
X052349Y04655D01*
X052309Y04651D01*
X052349D01*
X052389Y04647D01*
Y04651D02*
X052409Y04653D01*
X052429D01*
X052409Y04655D01*
X052429Y04657D01*
X052409D01*
X052389Y04659D01*
X052369Y04657D01*
X052349D01*
X052369Y04655D01*
X052349Y04653D01*
X052369D01*
X052389Y04651D01*
X015739Y047548D02*
X015779Y047588D01*
X015819D01*
X015779Y047628D01*
X015819Y047668D01*
X015779D01*
X015739Y047708D01*
X015699Y047668D01*
X015659D01*
X015699Y047628D01*
X015659Y047588D01*
X015699D01*
X015739Y047548D01*
Y04617D02*
X015779Y04621D01*
X015819D01*
X015779Y04625D01*
X015819Y04629D01*
X015779D01*
X015739Y04633D01*
X015699Y04629D01*
X015659D01*
X015699Y04625D01*
X015659Y04621D01*
X015699D01*
X015739Y04617D01*
X020001Y00707D02*
X020041D01*
X020081Y00711D01*
X020121Y00707D01*
X020161D01*
Y00711D01*
X020121Y00715D01*
X020161Y00719D01*
Y00723D01*
X020121D01*
X020081Y00719D01*
X020041Y00723D01*
X020001D01*
Y00719D01*
X020041Y00715D01*
X020001Y00711D01*
Y00707D01*
X024017D02*
X024057D01*
X024097Y00711D01*
X024137Y00707D01*
X024177D01*
Y00711D01*
X024137Y00715D01*
X024177Y00719D01*
Y00723D01*
X024137D01*
X024097Y00719D01*
X024057Y00723D01*
X024017D01*
Y00719D01*
X024057Y00715D01*
X024017Y00711D01*
Y00707D01*
X026349Y011167D02*
X026269Y011327D01*
X026429D01*
X026349Y011167D01*
Y011207D02*
X026309Y011287D01*
X026389D01*
X026349Y011207D01*
X02879Y013136D02*
X02871Y013296D01*
X02887D01*
X02879Y013136D01*
Y013176D02*
X02875Y013256D01*
X02883D01*
X02879Y013176D01*
X028799Y011186D02*
X028719Y011346D01*
X028879D01*
X028799Y011186D01*
Y011226D02*
X028759Y011306D01*
X028839D01*
X028799Y011226D01*
X026349Y013136D02*
X026269Y013296D01*
X026429D01*
X026349Y013136D01*
Y013176D02*
X026309Y013256D01*
X026389D01*
X026349Y013176D01*
Y005262D02*
X026269Y005422D01*
X026429D01*
X026349Y005262D01*
Y005302D02*
X026309Y005382D01*
X026389D01*
X026349Y005302D01*
X02879Y00723D02*
X02871Y00739D01*
X02887D01*
X02879Y00723D01*
Y00727D02*
X02875Y00735D01*
X02883D01*
X02879Y00727D01*
X028799Y00528D02*
X028719Y00544D01*
X028879D01*
X028799Y00528D01*
Y00532D02*
X028759Y0054D01*
X028839D01*
X028799Y00532D01*
X026349Y00723D02*
X026269Y00739D01*
X026429D01*
X026349Y00723D01*
Y00727D02*
X026309Y00735D01*
X026389D01*
X026349Y00727D01*
X029067Y00412D02*
X029107D01*
X029147Y00416D01*
X029187Y00412D01*
X029227D01*
Y00416D01*
X029187Y0042D01*
X029227Y00424D01*
Y00428D01*
X029187D01*
X029147Y00424D01*
X029107Y00428D01*
X029067D01*
Y00424D01*
X029107Y0042D01*
X029067Y00416D01*
Y00412D01*
X025051D02*
X025091D01*
X025131Y00416D01*
X025171Y00412D01*
X025211D01*
Y00416D01*
X025171Y0042D01*
X025211Y00424D01*
Y00428D01*
X025171D01*
X025131Y00424D01*
X025091Y00428D01*
X025051D01*
Y00424D01*
X025091Y0042D01*
X025051Y00416D01*
Y00412D01*
X013773Y011645D02*
X013693Y011805D01*
X013853D01*
X013773Y011645D01*
Y011685D02*
X013733Y011765D01*
X013813D01*
X013773Y011685D01*
X011805Y014086D02*
X011725Y014246D01*
X011885D01*
X011805Y014086D01*
Y014126D02*
X011765Y014206D01*
X011845D01*
X011805Y014126D01*
X013755Y014095D02*
X013675Y014255D01*
X013835D01*
X013755Y014095D01*
Y014135D02*
X013715Y014215D01*
X013795D01*
X013755Y014135D01*
X011805Y011645D02*
X011725Y011805D01*
X011885D01*
X011805Y011645D01*
Y011685D02*
X011765Y011765D01*
X011845D01*
X011805Y011685D01*
X019459Y019041D02*
X019379Y019201D01*
X019539D01*
X019459Y019041D01*
Y019081D02*
X019419Y019161D01*
X019499D01*
X019459Y019081D01*
X0219Y02101D02*
X02182Y02117D01*
X02198D01*
X0219Y02101D01*
Y02105D02*
X02186Y02113D01*
X02194D01*
X0219Y02105D01*
X021909Y01906D02*
X021829Y01922D01*
X021989D01*
X021909Y01906D01*
Y0191D02*
X021869Y01918D01*
X021949D01*
X021909Y0191D01*
X019459Y02101D02*
X019379Y02117D01*
X019539D01*
X019459Y02101D01*
Y02105D02*
X019419Y02113D01*
X019499D01*
X019459Y02105D01*
X015522Y019041D02*
X015442Y019201D01*
X015602D01*
X015522Y019041D01*
Y019081D02*
X015482Y019161D01*
X015562D01*
X015522Y019081D01*
X017963Y02101D02*
X017883Y02117D01*
X018043D01*
X017963Y02101D01*
Y02105D02*
X017923Y02113D01*
X018003D01*
X017963Y02105D01*
X017972Y01906D02*
X017892Y01922D01*
X018052D01*
X017972Y01906D01*
Y0191D02*
X017932Y01918D01*
X018012D01*
X017972Y0191D01*
X015522Y02101D02*
X015442Y02117D01*
X015602D01*
X015522Y02101D01*
Y02105D02*
X015482Y02113D01*
X015562D01*
X015522Y02105D01*
X025009Y011112D02*
X025049D01*
X025089Y011152D01*
X025129Y011112D01*
X025169D01*
Y011152D01*
X025129Y011192D01*
X025169Y011232D01*
Y011272D01*
X025129D01*
X025089Y011232D01*
X025049Y011272D01*
X025009D01*
Y011232D01*
X025049Y011192D01*
X025009Y011152D01*
Y011112D01*
Y015128D02*
X025049D01*
X025089Y015168D01*
X025129Y015128D01*
X025169D01*
Y015168D01*
X025129Y015208D01*
X025169Y015248D01*
Y015288D01*
X025129D01*
X025089Y015248D01*
X025049Y015288D01*
X025009D01*
Y015248D01*
X025049Y015208D01*
X025009Y015168D01*
Y015128D01*
X030259Y02877D02*
Y02893D01*
X030419D01*
Y02877D01*
X030259D01*
X030299Y02881D02*
Y02889D01*
X030379D01*
Y02881D01*
X030299D01*
X029767Y02877D02*
Y02893D01*
X029927D01*
Y02877D01*
X029767D01*
X029807Y02881D02*
Y02889D01*
X029887D01*
Y02881D01*
X029807D01*
X029275Y02885D02*
X029355Y02893D01*
X029435Y02885D01*
X029355Y02877D01*
X029275Y02885D01*
X030201Y02562D02*
Y02578D01*
X030361D01*
Y02562D01*
X030201D01*
X030241Y02566D02*
Y02574D01*
X030321D01*
Y02566D01*
X030241D01*
X029709Y02562D02*
Y02578D01*
X029869D01*
Y02562D01*
X029709D01*
X029749Y02566D02*
Y02574D01*
X029829D01*
Y02566D01*
X029749D01*
X029217Y0257D02*
X029297Y02578D01*
X029377Y0257D01*
X029297Y02562D01*
X029217Y0257D01*
X042305Y036305D02*
Y036465D01*
X042465D01*
Y036305D01*
X042305D01*
X036305Y027305D02*
Y027465D01*
X036465D01*
Y027305D01*
X036305D01*
Y028305D02*
Y028465D01*
X036465D01*
Y028305D01*
X036305D01*
Y029305D02*
Y029465D01*
X036465D01*
Y029305D01*
X036305D01*
Y030305D02*
Y030465D01*
X036465D01*
Y030305D01*
X036305D01*
Y031305D02*
Y031465D01*
X036465D01*
Y031305D01*
X036305D01*
Y032305D02*
Y032465D01*
X036465D01*
Y032305D01*
X036305D01*
Y033305D02*
Y033465D01*
X036465D01*
Y033305D01*
X036305D01*
Y034305D02*
Y034465D01*
X036465D01*
Y034305D01*
X036305D01*
Y035305D02*
Y035465D01*
X036465D01*
Y035305D01*
X036305D01*
Y036305D02*
Y036465D01*
X036465D01*
Y036305D01*
X036305D01*
Y037305D02*
Y037465D01*
X036465D01*
Y037305D01*
X036305D01*
Y038305D02*
Y038465D01*
X036465D01*
Y038305D01*
X036305D01*
Y039305D02*
Y039465D01*
X036465D01*
Y039305D01*
X036305D01*
Y040305D02*
Y040465D01*
X036465D01*
Y040305D01*
X036305D01*
Y041305D02*
Y041465D01*
X036465D01*
Y041305D01*
X036305D01*
Y042305D02*
Y042465D01*
X036465D01*
Y042305D01*
X036305D01*
Y043305D02*
Y043465D01*
X036465D01*
Y043305D01*
X036305D01*
Y025305D02*
Y025465D01*
X036465D01*
Y025305D01*
X036305D01*
Y026305D02*
Y026465D01*
X036465D01*
Y026305D01*
X036305D01*
Y024305D02*
Y024465D01*
X036465D01*
Y024305D01*
X036305D01*
X042305D02*
Y024465D01*
X042465D01*
Y024305D01*
X042305D01*
Y030305D02*
Y030465D01*
X042465D01*
Y030305D01*
X042305D01*
Y029305D02*
Y029465D01*
X042465D01*
Y029305D01*
X042305D01*
Y028305D02*
Y028465D01*
X042465D01*
Y028305D01*
X042305D01*
Y027305D02*
Y027465D01*
X042465D01*
Y027305D01*
X042305D01*
Y026305D02*
Y026465D01*
X042465D01*
Y026305D01*
X042305D01*
Y025305D02*
Y025465D01*
X042465D01*
Y025305D01*
X042305D01*
Y031305D02*
Y031465D01*
X042465D01*
Y031305D01*
X042305D01*
Y032305D02*
Y032465D01*
X042465D01*
Y032305D01*
X042305D01*
Y037305D02*
Y037465D01*
X042465D01*
Y037305D01*
X042305D01*
Y039305D02*
Y039465D01*
X042465D01*
Y039305D01*
X042305D01*
Y038305D02*
Y038465D01*
X042465D01*
Y038305D01*
X042305D01*
Y040305D02*
Y040465D01*
X042465D01*
Y040305D01*
X042305D01*
Y041305D02*
Y041465D01*
X042465D01*
Y041305D01*
X042305D01*
Y042305D02*
Y042465D01*
X042465D01*
Y042305D01*
X042305D01*
Y043305D02*
Y043465D01*
X042465D01*
Y043305D01*
X042305D01*
Y035305D02*
Y035465D01*
X042465D01*
Y035305D01*
X042305D01*
Y034305D02*
Y034465D01*
X042465D01*
Y034305D01*
X042305D01*
Y033305D02*
Y033465D01*
X042465D01*
Y033305D01*
X042305D01*
X032589Y03842D02*
X032509Y03858D01*
X032669D01*
X032589Y03842D01*
Y03846D02*
X032549Y03854D01*
X032629D01*
X032589Y03846D01*
Y03942D02*
X032509Y03958D01*
X032669D01*
X032589Y03942D01*
Y03946D02*
X032549Y03954D01*
X032629D01*
X032589Y03946D01*
Y04042D02*
X032509Y04058D01*
X032669D01*
X032589Y04042D01*
Y04046D02*
X032549Y04054D01*
X032629D01*
X032589Y04046D01*
Y04142D02*
X032509Y04158D01*
X032669D01*
X032589Y04142D01*
Y04146D02*
X032549Y04154D01*
X032629D01*
X032589Y04146D01*
Y04242D02*
X032509Y04258D01*
X032669D01*
X032589Y04242D01*
Y04246D02*
X032549Y04254D01*
X032629D01*
X032589Y04246D01*
Y04342D02*
X032509Y04358D01*
X032669D01*
X032589Y04342D01*
Y04346D02*
X032549Y04354D01*
X032629D01*
X032589Y04346D01*
Y04442D02*
X032509Y04458D01*
X032669D01*
X032589Y04442D01*
Y04446D02*
X032549Y04454D01*
X032629D01*
X032589Y04446D01*
Y04542D02*
X032509Y04558D01*
X032669D01*
X032589Y04542D01*
Y04546D02*
X032549Y04554D01*
X032629D01*
X032589Y04546D01*
X029589Y03842D02*
X029509Y03858D01*
X029669D01*
X029589Y03842D01*
Y03846D02*
X029549Y03854D01*
X029629D01*
X029589Y03846D01*
Y03942D02*
X029509Y03958D01*
X029669D01*
X029589Y03942D01*
Y03946D02*
X029549Y03954D01*
X029629D01*
X029589Y03946D01*
Y04042D02*
X029509Y04058D01*
X029669D01*
X029589Y04042D01*
Y04046D02*
X029549Y04054D01*
X029629D01*
X029589Y04046D01*
Y04142D02*
X029509Y04158D01*
X029669D01*
X029589Y04142D01*
Y04146D02*
X029549Y04154D01*
X029629D01*
X029589Y04146D01*
Y04242D02*
X029509Y04258D01*
X029669D01*
X029589Y04242D01*
Y04246D02*
X029549Y04254D01*
X029629D01*
X029589Y04246D01*
Y04342D02*
X029509Y04358D01*
X029669D01*
X029589Y04342D01*
Y04346D02*
X029549Y04354D01*
X029629D01*
X029589Y04346D01*
Y04442D02*
X029509Y04458D01*
X029669D01*
X029589Y04442D01*
Y04446D02*
X029549Y04454D01*
X029629D01*
X029589Y04446D01*
Y04542D02*
X029509Y04558D01*
X029669D01*
X029589Y04542D01*
Y04546D02*
X029549Y04554D01*
X029629D01*
X029589Y04546D01*
X068759Y05087D02*
X068799D01*
X068839Y05091D01*
X068879Y05087D01*
X068919D01*
Y05091D01*
X068879Y05095D01*
X068919Y05099D01*
Y05103D01*
X068879D01*
X068839Y05099D01*
X068799Y05103D01*
X068759D01*
Y05099D01*
X068799Y05095D01*
X068759Y05091D01*
Y05087D01*
X068799Y05091D02*
X068819D01*
X068839Y05093D01*
X068859Y05091D01*
X068879D01*
Y05093D01*
X068859Y05095D01*
X068879Y05097D01*
Y05099D01*
X068859D01*
X068839Y05097D01*
X068819Y05099D01*
X068799D01*
Y05097D01*
X068819Y05095D01*
X068799Y05093D01*
Y05091D01*
X068759Y049886D02*
X068799D01*
X068839Y049926D01*
X068879Y049886D01*
X068919D01*
Y049926D01*
X068879Y049966D01*
X068919Y050006D01*
Y050046D01*
X068879D01*
X068839Y050006D01*
X068799Y050046D01*
X068759D01*
Y050006D01*
X068799Y049966D01*
X068759Y049926D01*
Y049886D01*
X068799Y049926D02*
X068819D01*
X068839Y049946D01*
X068859Y049926D01*
X068879D01*
Y049946D01*
X068859Y049966D01*
X068879Y049986D01*
Y050006D01*
X068859D01*
X068839Y049986D01*
X068819Y050006D01*
X068799D01*
Y049986D01*
X068819Y049966D01*
X068799Y049946D01*
Y049926D01*
X068809Y047454D02*
X068849D01*
X068889Y047494D01*
X068929Y047454D01*
X068969D01*
Y047494D01*
X068929Y047534D01*
X068969Y047574D01*
Y047614D01*
X068929D01*
X068889Y047574D01*
X068849Y047614D01*
X068809D01*
Y047574D01*
X068849Y047534D01*
X068809Y047494D01*
Y047454D01*
X068849Y047494D02*
X068869D01*
X068889Y047514D01*
X068909Y047494D01*
X068929D01*
Y047514D01*
X068909Y047534D01*
X068929Y047554D01*
Y047574D01*
X068909D01*
X068889Y047554D01*
X068869Y047574D01*
X068849D01*
Y047554D01*
X068869Y047534D01*
X068849Y047514D01*
Y047494D01*
X068809Y04647D02*
X068849D01*
X068889Y04651D01*
X068929Y04647D01*
X068969D01*
Y04651D01*
X068929Y04655D01*
X068969Y04659D01*
Y04663D01*
X068929D01*
X068889Y04659D01*
X068849Y04663D01*
X068809D01*
Y04659D01*
X068849Y04655D01*
X068809Y04651D01*
Y04647D01*
X068849Y04651D02*
X068869D01*
X068889Y04653D01*
X068909Y04651D01*
X068929D01*
Y04653D01*
X068909Y04655D01*
X068929Y04657D01*
Y04659D01*
X068909D01*
X068889Y04657D01*
X068869Y04659D01*
X068849D01*
Y04657D01*
X068869Y04655D01*
X068849Y04653D01*
Y04651D01*
X027456Y04147D02*
Y04163D01*
X027616D01*
Y04147D01*
X027456D01*
X027496Y04151D02*
Y04159D01*
X027576D01*
Y04151D01*
X027496D01*
X040409Y04872D02*
Y04888D01*
X040569D01*
Y04872D01*
X040409D01*
X040449Y04876D02*
Y04884D01*
X040529D01*
Y04876D01*
X040449D01*
X041859Y04867D02*
Y04883D01*
X042019D01*
Y04867D01*
X041859D01*
X041899Y04871D02*
Y04879D01*
X041979D01*
Y04871D01*
X041899D01*
X042409Y02232D02*
Y02248D01*
X042569D01*
Y02232D01*
X042409D01*
X042449Y02236D02*
Y02244D01*
X042529D01*
Y02236D01*
X042449D01*
X03772Y04337D02*
Y04353D01*
X03788D01*
Y04337D01*
X03772D01*
X03776Y04341D02*
Y04349D01*
X03784D01*
Y04341D01*
X03776D01*
X042861Y04612D02*
Y04628D01*
X043021D01*
Y04612D01*
X042861D01*
X042901Y04616D02*
Y04624D01*
X042981D01*
Y04616D01*
X042901D01*
X03368Y04715D02*
Y04731D01*
X03384D01*
Y04715D01*
X03368D01*
X03372Y04719D02*
Y04727D01*
X0338D01*
Y04719D01*
X03372D01*
D79*
X061769Y04882D02*
G03*
X061769Y04882I-00008J0D01*
G01*
X049719Y0325D02*
G03*
X049719Y0325I-00008J0D01*
G01*
Y0315D02*
G03*
X049719Y0315I-00008J0D01*
G01*
X049769Y0364D02*
G03*
X049769Y0364I-00008J0D01*
G01*
Y0354D02*
G03*
X049769Y0354I-00008J0D01*
G01*
X053469Y00695D02*
G03*
X053469Y00695I-00008J0D01*
G01*
Y00595D02*
G03*
X053469Y00595I-00008J0D01*
G01*
X034769Y0097D02*
G03*
X034769Y0097I-00008J0D01*
G01*
Y0087D02*
G03*
X034769Y0087I-00008J0D01*
G01*
X020669Y0098D02*
G03*
X020669Y0098I-00008J0D01*
G01*
Y0088D02*
G03*
X020669Y0088I-00008J0D01*
G01*
X029069Y03235D02*
G03*
X029069Y03235I-00008J0D01*
G01*
Y03135D02*
G03*
X029069Y03135I-00008J0D01*
G01*
X028969Y03635D02*
G03*
X028969Y03635I-00008J0D01*
G01*
Y03535D02*
G03*
X028969Y03535I-00008J0D01*
G01*
X022869Y04842D02*
G03*
X022869Y04842I-00008J0D01*
G01*
X062519Y0224D02*
G03*
X062519Y0224I-00008J0D01*
G01*
X061519D02*
G03*
X061519Y0224I-00008J0D01*
G01*
X058669D02*
G03*
X058669Y0224I-00008J0D01*
G01*
X057669D02*
G03*
X057669Y0224I-00008J0D01*
G01*
X053469Y0118D02*
G03*
X053469Y0118I-00008J0D01*
G01*
Y0128D02*
G03*
X053469Y0128I-00008J0D01*
G01*
X025219Y00675D02*
G03*
X025219Y00675I-00008J0D01*
G01*
Y00575D02*
G03*
X025219Y00575I-00008J0D01*
G01*
X029869Y0128D02*
G03*
X029869Y0128I-00008J0D01*
G01*
Y0118D02*
G03*
X029869Y0118I-00008J0D01*
G01*
X010819Y01355D02*
G03*
X010819Y01355I-00008J0D01*
G01*
Y01255D02*
G03*
X010819Y01255I-00008J0D01*
G01*
X022969Y02065D02*
G03*
X022969Y02065I-00008J0D01*
G01*
Y01965D02*
G03*
X022969Y01965I-00008J0D01*
G01*
X014519Y02065D02*
G03*
X014519Y02065I-00008J0D01*
G01*
Y01965D02*
G03*
X014519Y01965I-00008J0D01*
G01*
X064056Y03937D02*
G03*
X064056Y03937I-00008J0D01*
G01*
Y019685D02*
G03*
X064056Y019685I-00008J0D01*
G01*
X059135Y009843D02*
G03*
X059135Y009843I-00008J0D01*
G01*
X054214Y03937D02*
G03*
X054214Y03937I-00008J0D01*
G01*
X049293Y029528D02*
G03*
X049293Y029528I-00008J0D01*
G01*
X054214Y019685D02*
G03*
X054214Y019685I-00008J0D01*
G01*
X044371D02*
G03*
X044371Y019685I-00008J0D01*
G01*
X034529D02*
G03*
X034529Y019685I-00008J0D01*
G01*
X024686Y03937D02*
G03*
X024686Y03937I-00008J0D01*
G01*
X019765Y029528D02*
G03*
X019765Y029528I-00008J0D01*
G01*
Y009843D02*
G03*
X019765Y009843I-00008J0D01*
G01*
X014844Y03937D02*
G03*
X014844Y03937I-00008J0D01*
G01*
X009923Y029528D02*
G03*
X009923Y029528I-00008J0D01*
G01*
Y009843D02*
G03*
X009923Y009843I-00008J0D01*
G01*
D80*
X049679Y0325D02*
G03*
X049679Y0325I-00004J0D01*
G01*
Y0315D02*
G03*
X049679Y0315I-00004J0D01*
G01*
X049729Y0364D02*
G03*
X049729Y0364I-00004J0D01*
G01*
Y0354D02*
G03*
X049729Y0354I-00004J0D01*
G01*
X053429Y00695D02*
G03*
X053429Y00695I-00004J0D01*
G01*
Y00595D02*
G03*
X053429Y00595I-00004J0D01*
G01*
X034729Y0097D02*
G03*
X034729Y0097I-00004J0D01*
G01*
Y0087D02*
G03*
X034729Y0087I-00004J0D01*
G01*
X020629Y0098D02*
G03*
X020629Y0098I-00004J0D01*
G01*
Y0088D02*
G03*
X020629Y0088I-00004J0D01*
G01*
X029029Y03235D02*
G03*
X029029Y03235I-00004J0D01*
G01*
Y03135D02*
G03*
X029029Y03135I-00004J0D01*
G01*
X028929Y03635D02*
G03*
X028929Y03635I-00004J0D01*
G01*
Y03535D02*
G03*
X028929Y03535I-00004J0D01*
G01*
X062479Y0224D02*
G03*
X062479Y0224I-00004J0D01*
G01*
X061479D02*
G03*
X061479Y0224I-00004J0D01*
G01*
X058629D02*
G03*
X058629Y0224I-00004J0D01*
G01*
X057629D02*
G03*
X057629Y0224I-00004J0D01*
G01*
X053429Y0118D02*
G03*
X053429Y0118I-00004J0D01*
G01*
Y0128D02*
G03*
X053429Y0128I-00004J0D01*
G01*
X025179Y00675D02*
G03*
X025179Y00675I-00004J0D01*
G01*
Y00575D02*
G03*
X025179Y00575I-00004J0D01*
G01*
X029829Y0128D02*
G03*
X029829Y0128I-00004J0D01*
G01*
Y0118D02*
G03*
X029829Y0118I-00004J0D01*
G01*
X010779Y01355D02*
G03*
X010779Y01355I-00004J0D01*
G01*
Y01255D02*
G03*
X010779Y01255I-00004J0D01*
G01*
X022929Y02065D02*
G03*
X022929Y02065I-00004J0D01*
G01*
Y01965D02*
G03*
X022929Y01965I-00004J0D01*
G01*
X014479Y02065D02*
G03*
X014479Y02065I-00004J0D01*
G01*
Y01965D02*
G03*
X014479Y01965I-00004J0D01*
G01*
X064016Y03937D02*
G03*
X064016Y03937I-00004J0D01*
G01*
Y019685D02*
G03*
X064016Y019685I-00004J0D01*
G01*
X059095Y009843D02*
G03*
X059095Y009843I-00004J0D01*
G01*
X054174Y03937D02*
G03*
X054174Y03937I-00004J0D01*
G01*
X049253Y029528D02*
G03*
X049253Y029528I-00004J0D01*
G01*
X054174Y019685D02*
G03*
X054174Y019685I-00004J0D01*
G01*
X044331D02*
G03*
X044331Y019685I-00004J0D01*
G01*
X034489D02*
G03*
X034489Y019685I-00004J0D01*
G01*
X024646Y03937D02*
G03*
X024646Y03937I-00004J0D01*
G01*
X019725Y029528D02*
G03*
X019725Y029528I-00004J0D01*
G01*
Y009843D02*
G03*
X019725Y009843I-00004J0D01*
G01*
X014804Y03937D02*
G03*
X014804Y03937I-00004J0D01*
G01*
X009883Y029528D02*
G03*
X009883Y029528I-00004J0D01*
G01*
Y009843D02*
G03*
X009883Y009843I-00004J0D01*
G01*
M02*
