G04*
G04 #@! TF.GenerationSoftware,Altium Limited,Altium Designer,21.3.2 (30)*
G04*
G04 Layer_Color=255*
%FSTAX24Y24*%
%MOIN*%
G70*
G04*
G04 #@! TF.SameCoordinates,7536F4C1-D20E-4AD8-A34B-159FF933A109*
G04*
G04*
G04 #@! TF.FilePolarity,Positive*
G04*
G01*
G75*
%ADD48C,0.0591*%
%ADD49R,0.0551X0.0551*%
%ADD50C,0.0551*%
%ADD51R,0.0827X0.0827*%
%ADD52C,0.0827*%
%ADD53C,0.0900*%
%ADD54C,0.1500*%
%ADD55R,0.1500X0.1500*%
%ADD56C,0.0315*%
%ADD57C,0.0750*%
%ADD58O,0.0591X0.0512*%
%ADD59R,0.0591X0.0512*%
%ADD60R,0.0700X0.0600*%
%ADD61O,0.0700X0.0600*%
%ADD62O,0.0900X0.0650*%
%ADD63R,0.0900X0.0650*%
%ADD64O,0.0600X0.0900*%
%ADD65R,0.0600X0.0900*%
%ADD66R,0.0900X0.0600*%
%ADD67O,0.0900X0.0600*%
%ADD68O,0.0650X0.0750*%
%ADD69O,0.0750X0.0650*%
%ADD70O,0.0600X0.0700*%
%ADD71R,0.0600X0.0700*%
%ADD72C,0.0600*%
%ADD73R,0.0600X0.0600*%
%ADD74R,0.0700X0.0700*%
%ADD75C,0.0700*%
D48*
X037885Y048145D02*
D03*
X038885D02*
D03*
X040885D02*
D03*
X039885D02*
D03*
X037885Y047145D02*
D03*
X038885D02*
D03*
X040885D02*
D03*
X039885D02*
D03*
X049639Y0325D02*
D03*
Y0315D02*
D03*
X049689Y0364D02*
D03*
Y0354D02*
D03*
X053389Y00695D02*
D03*
Y00595D02*
D03*
X034689Y0097D02*
D03*
Y0087D02*
D03*
X020589Y0098D02*
D03*
Y0088D02*
D03*
X028989Y03235D02*
D03*
Y03135D02*
D03*
X028889Y03635D02*
D03*
Y03535D02*
D03*
X062439Y0224D02*
D03*
X061439D02*
D03*
X058589D02*
D03*
X057589D02*
D03*
X053389Y0118D02*
D03*
Y0128D02*
D03*
X025139Y00675D02*
D03*
Y00575D02*
D03*
X029789Y0128D02*
D03*
Y0118D02*
D03*
X010739Y01355D02*
D03*
Y01255D02*
D03*
X022889Y02065D02*
D03*
Y01965D02*
D03*
X014439Y02065D02*
D03*
Y01965D02*
D03*
D49*
X061689Y04882D02*
D03*
X022789Y04842D02*
D03*
D50*
X061689Y04815D02*
D03*
Y04748D02*
D03*
Y04681D02*
D03*
Y04614D02*
D03*
X050089Y050558D02*
D03*
Y046542D02*
D03*
X044789Y034892D02*
D03*
Y038908D02*
D03*
X048839Y038692D02*
D03*
Y042708D02*
D03*
X050189D02*
D03*
Y038692D02*
D03*
X045989Y030008D02*
D03*
Y025992D02*
D03*
X068889Y015242D02*
D03*
Y019258D02*
D03*
X067639Y019208D02*
D03*
Y015192D02*
D03*
X066389Y015242D02*
D03*
Y019258D02*
D03*
X064597Y0177D02*
D03*
X060581D02*
D03*
X055631D02*
D03*
X059647D02*
D03*
X067347Y0037D02*
D03*
X063331D02*
D03*
X058247Y0059D02*
D03*
X054231D02*
D03*
X062197Y0093D02*
D03*
X058181D02*
D03*
X062197Y0081D02*
D03*
X058181D02*
D03*
X062197Y0105D02*
D03*
X058181D02*
D03*
X058297Y01185D02*
D03*
X054281D02*
D03*
X030631Y0059D02*
D03*
X034647D02*
D03*
X014031Y0174D02*
D03*
X018047D02*
D03*
X014989Y010942D02*
D03*
Y014958D02*
D03*
X022997Y0174D02*
D03*
X018981D02*
D03*
X034297Y0339D02*
D03*
X030281D02*
D03*
X032689Y030108D02*
D03*
Y026092D02*
D03*
X022789Y04775D02*
D03*
Y04708D02*
D03*
Y04641D02*
D03*
Y04574D02*
D03*
X016147Y04945D02*
D03*
X012131D02*
D03*
X020081Y00715D02*
D03*
X024097D02*
D03*
X029147Y0042D02*
D03*
X025131D02*
D03*
X025089Y011192D02*
D03*
Y015208D02*
D03*
D51*
X064639Y048389D02*
D03*
X054889Y046561D02*
D03*
X026139Y047889D02*
D03*
X015739Y04625D02*
D03*
D52*
X064639Y047011D02*
D03*
X054889Y047939D02*
D03*
X026139Y046511D02*
D03*
X015739Y047628D02*
D03*
D53*
X058739Y04825D02*
D03*
Y04625D02*
D03*
X019789Y04785D02*
D03*
Y04585D02*
D03*
D54*
X057789Y0509D02*
D03*
X017439Y05065D02*
D03*
D55*
X063289Y0509D02*
D03*
X022939Y05065D02*
D03*
D56*
X045447Y0448D02*
D03*
X045939D02*
D03*
X046431D02*
D03*
X045455Y04265D02*
D03*
X045947D02*
D03*
X046439D02*
D03*
X045447Y0406D02*
D03*
X045939D02*
D03*
X046431D02*
D03*
X049689Y025208D02*
D03*
Y0257D02*
D03*
Y026192D02*
D03*
X052597Y02235D02*
D03*
X053089D02*
D03*
X053581D02*
D03*
X030339Y02885D02*
D03*
X029847D02*
D03*
X029355D02*
D03*
X030281Y0257D02*
D03*
X029789D02*
D03*
X029297D02*
D03*
D57*
X046034Y032901D02*
D03*
X048484Y030951D02*
D03*
X048475Y032901D02*
D03*
X046034Y030932D02*
D03*
Y036838D02*
D03*
X048484Y034888D02*
D03*
X048475Y036838D02*
D03*
X046034Y034869D02*
D03*
X049971Y00731D02*
D03*
X052421Y00536D02*
D03*
X052412Y00731D02*
D03*
X049971Y005342D02*
D03*
Y013216D02*
D03*
X052421Y011266D02*
D03*
X052412Y013216D02*
D03*
X049971Y011247D02*
D03*
X031073Y010263D02*
D03*
X033523Y008313D02*
D03*
X033514Y010263D02*
D03*
X031073Y008294D02*
D03*
X021625Y010263D02*
D03*
X024075Y008313D02*
D03*
X024066Y010263D02*
D03*
X021625Y008294D02*
D03*
X030286Y032901D02*
D03*
X032736Y030951D02*
D03*
X032727Y032901D02*
D03*
X030286Y030932D02*
D03*
Y036838D02*
D03*
X032736Y034888D02*
D03*
X032727Y036838D02*
D03*
X030286Y034869D02*
D03*
X060798Y019121D02*
D03*
X063239Y02109D02*
D03*
X063248Y01914D02*
D03*
X060798Y02109D02*
D03*
X056861Y019121D02*
D03*
X059302Y02109D02*
D03*
X059311Y01914D02*
D03*
X056861Y02109D02*
D03*
X026349Y011247D02*
D03*
X02879Y013216D02*
D03*
X028799Y011266D02*
D03*
X026349Y013216D02*
D03*
Y005342D02*
D03*
X02879Y00731D02*
D03*
X028799Y00536D02*
D03*
X026349Y00731D02*
D03*
X013773Y011725D02*
D03*
X011805Y014166D02*
D03*
X013755Y014175D02*
D03*
X011805Y011725D02*
D03*
X019459Y019121D02*
D03*
X0219Y02109D02*
D03*
X021909Y01914D02*
D03*
X019459Y02109D02*
D03*
X015522Y019121D02*
D03*
X017963Y02109D02*
D03*
X017972Y01914D02*
D03*
X015522Y02109D02*
D03*
D58*
X035789Y0472D02*
D03*
D59*
Y0482D02*
D03*
D60*
X012339Y04645D02*
D03*
D61*
Y04745D02*
D03*
D62*
X068989Y01255D02*
D03*
Y01055D02*
D03*
Y00855D02*
D03*
Y00755D02*
D03*
Y00655D02*
D03*
Y00955D02*
D03*
Y01155D02*
D03*
D63*
Y00555D02*
D03*
D64*
X045739Y0115D02*
D03*
X044739D02*
D03*
X043739D02*
D03*
X042739D02*
D03*
X041739D02*
D03*
X040739D02*
D03*
X039739D02*
D03*
X038739D02*
D03*
X045739Y0085D02*
D03*
X044739D02*
D03*
X043739D02*
D03*
X042739D02*
D03*
X041739D02*
D03*
X040739D02*
D03*
X039739D02*
D03*
D65*
X038739D02*
D03*
D66*
X063339Y0125D02*
D03*
X032589Y0385D02*
D03*
D67*
X063339Y0115D02*
D03*
Y0105D02*
D03*
Y0095D02*
D03*
Y0085D02*
D03*
Y0075D02*
D03*
Y0065D02*
D03*
Y0055D02*
D03*
X066339Y0125D02*
D03*
Y0115D02*
D03*
Y0105D02*
D03*
Y0095D02*
D03*
Y0085D02*
D03*
Y0075D02*
D03*
Y0065D02*
D03*
Y0055D02*
D03*
X032589Y0395D02*
D03*
Y0405D02*
D03*
Y0415D02*
D03*
Y0425D02*
D03*
Y0435D02*
D03*
Y0445D02*
D03*
Y0455D02*
D03*
X029589Y0385D02*
D03*
Y0395D02*
D03*
Y0405D02*
D03*
Y0415D02*
D03*
Y0425D02*
D03*
Y0435D02*
D03*
Y0445D02*
D03*
Y0455D02*
D03*
D68*
X031589Y0216D02*
D03*
X032599D02*
D03*
X033579D02*
D03*
X034589D02*
D03*
D69*
Y03831D02*
D03*
Y0373D02*
D03*
Y03632D02*
D03*
Y03531D02*
D03*
D70*
X051389Y04655D02*
D03*
D71*
X052389D02*
D03*
D72*
X042385Y036385D02*
D03*
X036385Y027385D02*
D03*
Y028385D02*
D03*
Y029385D02*
D03*
Y030385D02*
D03*
Y031385D02*
D03*
Y032385D02*
D03*
Y033385D02*
D03*
Y034385D02*
D03*
Y035385D02*
D03*
Y036385D02*
D03*
Y037385D02*
D03*
Y038385D02*
D03*
Y039385D02*
D03*
Y040385D02*
D03*
Y041385D02*
D03*
Y042385D02*
D03*
Y043385D02*
D03*
Y025385D02*
D03*
Y026385D02*
D03*
X042385Y030385D02*
D03*
Y029385D02*
D03*
Y028385D02*
D03*
Y027385D02*
D03*
Y026385D02*
D03*
Y025385D02*
D03*
Y031385D02*
D03*
Y032385D02*
D03*
Y037385D02*
D03*
Y039385D02*
D03*
Y038385D02*
D03*
Y040385D02*
D03*
Y041385D02*
D03*
Y042385D02*
D03*
Y043385D02*
D03*
Y035385D02*
D03*
Y034385D02*
D03*
Y033385D02*
D03*
D73*
X036385Y024385D02*
D03*
X042385D02*
D03*
D74*
X068839Y05095D02*
D03*
X068889Y047534D02*
D03*
D75*
X068839Y049966D02*
D03*
X068889Y04655D02*
D03*
M02*
