M48
;Layer_Color=9474304
;FILE_FORMAT=2:4
INCH,LZ
;TYPE=PLATED
T1F00S00C0.0197
T2F00S00C0.0236
T3F00S00C0.0276
T4F00S00C0.0310
T5F00S00C0.0315
T6F00S00C0.0350
T7F00S00C0.0354
T8F00S00C0.0360
T9F00S00C0.0394
T10F00S00C0.0420
T11F00S00C0.0500
T12F00S00C0.0600
;TYPE=NON_PLATED
T13F00S00C0.0197
T14F00S00C0.0315
T15F00S00C0.0394
%
T01
X049689Y0257
Y026192
X053089Y02235
X053581
X042489Y0224
X030281Y0257
X029789
X029847Y02885
X030339
X027536Y04155
X0378Y04345
X042941Y0462
X045939Y0448
X046431
X046439Y04265
X045947
X045939Y0406
X046431
X041939Y04875
X040489Y0488
X03376Y04723
T02
X014989Y010942
Y014958
X025089Y015208
Y011192
X024097Y00715
X025131Y0042
X029147
X030631Y0059
X020081Y00715
X034647Y0059
X054231
X058247
X058181Y0081
Y0093
Y0105
X058297Y01185
X054281
X062197Y0105
Y0093
Y0081
X063331Y0037
X067347
X067639Y015192
X068889Y015242
X066389
Y019258
X067639Y019208
X068889Y019258
X064597Y0177
X060581
X059647
X055631
X045989Y025992
Y030008
X032689Y030108
Y026092
X022997Y0174
X018981
X018047
X014031
X030281Y0339
X034297
X044789Y034892
Y038908
X048839Y038692
X050189
Y042708
X048839
X050089Y046542
Y050558
X016147Y04945
X012131
T03
X009843Y009843
X010739Y01255
Y01355
X019685Y009843
X020589Y0098
Y0088
X025139Y00675
Y00575
X029789Y0118
Y0128
X034689Y0097
Y0087
X053389Y00695
Y00595
Y0118
Y0128
X059055Y009843
X063976Y019685
X062439Y0224
X061439
X058589
X057589
X054134Y019685
X049213Y029528
X044291Y019685
X034449
X022889Y01965
Y02065
X019685Y029528
X009843
X014439Y02065
Y01965
X014764Y03937
X024606
X028889Y03635
Y03535
X028989Y03235
Y03135
X049639Y0315
Y0325
X049689Y0354
Y0364
X054134Y03937
X063976
T04
X011805Y011725
X013773
X013755Y014175
X011805Y014166
X021625Y010263
Y008294
X024075Y008313
X024066Y010263
X026349Y011247
Y013216
X02879
X028799Y011266
X031073Y010263
Y008294
X02879Y00731
X028799Y00536
X026349Y005342
Y00731
X033523Y008313
X033514Y010263
X038739Y0115
X039739
X040739
X041739
X042739
X043739
X044739
X045739
Y0085
X044739
X043739
X042739
X041739
X040739
X039739
X038739
X049971Y00731
Y005342
X052421Y00536
X052412Y00731
X052421Y011266
X052412Y013216
X049971
Y011247
X063339Y0115
Y0125
Y0105
Y0095
Y0085
Y0075
Y0065
Y0055
X066339
Y0065
Y0075
Y0085
Y0095
Y0105
Y0115
Y0125
X063248Y01914
X063239Y02109
X060798
X059302
X059311Y01914
X060798Y019121
X056861
Y02109
X048484Y030951
X046034Y030932
X032736Y030951
X030286Y030932
X0219Y02109
X021909Y01914
X019459Y019121
X017972Y01914
X017963Y02109
X019459
X015522
Y019121
X030286Y032901
Y034869
Y036838
X029589Y0385
Y0395
Y0405
Y0415
Y0425
Y0435
Y0445
Y0455
X032589
Y0445
Y0435
Y0425
Y0415
Y0405
Y0395
Y0385
X032727Y036838
X032736Y034888
X032727Y032901
X046034
Y034869
Y036838
X048475
X048484Y034888
X048475Y032901
T05
X022789Y04574
Y04641
X061689Y04614
Y04681
Y04748
Y04815
X035789Y0482
Y0472
X022789Y04708
Y04775
T06
X012339Y04645
X051389Y04655
X052389
X012339Y04745
T07
X015739Y04625
X026139Y046511
X054889Y046561
X064639Y047011
Y048389
X054889Y047939
X026139Y047889
X015739Y047628
T08
X031589Y0216
X032599
X033579
X034589
Y03531
Y03632
Y0373
Y03831
T09
X036385Y024385
Y025385
Y026385
Y027385
Y028385
Y029385
Y030385
X042385
Y029385
Y028385
Y027385
Y026385
Y025385
Y024385
Y031385
Y032385
Y033385
Y034385
Y035385
Y036385
Y037385
Y038385
Y039385
Y040385
Y041385
Y042385
Y043385
X036385
Y042385
Y041385
Y040385
Y039385
Y038385
Y037385
Y036385
Y035385
Y034385
Y033385
Y032385
Y031385
X037885Y047145
Y048145
X038885
X039885
X040885
Y047145
X039885
X038885
T10
X068989Y00555
Y00655
Y00755
Y00855
Y00955
Y01055
Y01155
Y01255
T11
X019789Y04585
X058739Y04625
Y04825
X019789Y04785
T12
X063289Y0509
X057789
X022939Y05065
X017439
T13
X049689Y025208
X052597Y02235
X029297Y0257
X029355Y02885
X045447Y0406
X045455Y04265
X045447Y0448
T14
X061689Y04882
X022789Y04842
T15
X068889Y04655
Y047534
X068839Y049966
Y05095
M30
